<svg width="3433" height="1568" viewBox="0 0 3433 1568" fill="none" xmlns="http://www.w3.org/2000/svg">
    <path d="M102.541 1372.94H793.874V1557.72H102.541V1372.94Z" fill="#CCD781" />
    <path d="M684.814 693.777L576.541 801.591L307.236 525.404L413.673 426.766L684.814 693.777Z" fill="#76CCF1" />
    <path d="M699.954 920.874L803.18 818.107L684.814 696.071L579.294 799.756L699.954 920.874Z" fill="#76CCF1" />
    <path d="M924.772 1559.07V1253.28H848.326V1202.56H797.607V1559.07H924.772Z" fill="#76CCF1" />
    <path d="M1170.28 1338.59H1032.09V1560.54H1170.28V1338.59Z" fill="#76CCF1" />
    <path d="M1308.47 1338.59H1170.28V1560.54H1308.47V1338.59Z" fill="#76CCF1" />
    <path d="M1449.55 1338.59H1308.47V1560.54H1449.55V1338.59Z" fill="#76CCF1" />
    <path d="M1584.71 1338.59H1449.55V1560.54H1584.71V1338.59Z" fill="#76CCF1" />
    <path d="M1733.43 1338.59H1584.71V1560.54H1733.43V1338.59Z" fill="#76CCF1" />
    <path d="M1872.58 1338.59H1733.43V1560.54H1872.58V1338.59Z" fill="#76CCF1" />
    <path d="M2015.33 1338.59H1872.58V1560.54H2015.33V1338.59Z" fill="#76CCF1" />
    <path d="M2155.55 1338.59H2015.33V1560.54H2155.55V1338.59Z" fill="#76CCF1" />
    <path d="M2297.89 1338.59H2155.55V1560.54H2297.89V1338.59Z" fill="#76CCF1" />
    <path d="M2440.23 1338.59H2297.89V1560.54H2440.23V1338.59Z" fill="#76CCF1" />
    <path d="M2551.87 1330.79L2541.9 1316.04V1281.75L2664.7 1166.93V1562.04H2551.87V1330.79Z" fill="#76CCF1" />
    <path d="M2825.45 1363.6H2666.9V1558.85H2825.45V1363.6Z" fill="#76CCF1" />
    <path d="M2976.94 1363.6H2825.45V1558.85H2976.94V1363.6Z" fill="#76CCF1" />
    <path d="M3128.43 1363.6H2976.94V1558.85H3128.43V1363.6Z" fill="#76CCF1" />
    <path d="M3279.92 1363.6H3128.43V1558.85H3279.92V1363.6Z" fill="#76CCF1" />
    <path d="M3423.42 1363.6H3279.92V1558.85H3423.42V1363.6Z" fill="#76CCF1" />
    <path d="M3057.7 722.262H2874.27L2947.64 649.548V528.358H3057.7V722.262Z" fill="#76CCF1" stroke="black" />
    <path d="M3273.22 410.444V587.971L3414.06 591.246V410.444H3273.22Z" fill="#76CCF1" />
    <path d="M3416.68 408.479V270.257H3272.56V408.479H3416.68Z" fill="#76CCF1" />
    <path d="M3173.65 526.393V270.257H2951.57V526.393H3173.65Z" fill="#76CCF1" />
    <path
        d="M702.23 916.644L692.898 705.517M791.657 806.609L581.308 799.61M776.824 1377.7L99.073 1553.19M104.277 1377.7L795.592 1553.19M1135.71 1155.53L1816.4 939.413M1490.02 1173.91L946.06 938.678M1895.79 939.413L2391.24 1183.46M2472.09 939.413L1884.76 1183.46M2660.67 1252.18L2613.15 1216.28M2577.78 1252.18L2660.67 1203.61M2951.41 645.322L3064.89 533.141M2951.41 533.141L3053.87 645.322M3273.04 579.181L3404.02 413.179M3278.23 413.179L3413.1 587.611M847.102 1204.72L803.791 1251.76M799.6 1204.72L847.102 1254.08"
        stroke="black" stroke-width="2" />
    <path
        d="M98.3591 529.85V584.05M109.986 530.386V584.05M120.22 530.386V583.513M131.362 529.85V584.05M142.989 530.386V584.05M153.646 530.386V583.513M164.787 530.386V583.513M135.561 531.464L94.2454 585.413"
        stroke="black" stroke-width="2" />
    <path
        d="M108.288 524.598H96.7876V466.203H108.288M108.288 524.598V466.203M108.288 524.598H120.288M108.288 466.203H120.288M120.288 466.203V524.598M120.288 466.203H130.788M120.288 524.598H130.788M130.788 524.598V466.203M130.788 524.598H142.788M130.788 466.203H142.788M142.788 524.598V466.203M142.788 524.598H153.788M142.788 466.203H153.788M153.788 524.598V466.203M153.788 524.598H164.788V466.203H153.788"
        stroke="black" stroke-width="2" />
    <path
        d="M3078.29 619.413L3168.46 619.413M3168.46 654.382L3061.05 654.382M3061.05 645.346L3168.46 645.346M3168.46 610.884L3080.16 610.884M3168.46 602.749L3080.16 602.749M3168.46 594.375L3076.89 594.375M3168.46 585.002L3078.29 585.002M3055.66 662.024L3168.46 662.024M3078.29 636.767L3168.46 636.767M3078.29 628.202L3168.46 628.202"
        stroke="black" stroke-width="2" />
    <path
        d="M2548.16 1437.59L2497.72 1437.59M2497.72 1428.59L2548.16 1428.59M2548.16 1419.09L2497.72 1419.09M2548.16 1409.09L2497.72 1409.09M2548.16 1399.09L2497.72 1399.09M2548.16 1391.09L2497.72 1391.09"
        stroke="black" stroke-width="2" />
    <path
        d="M2496.84 1426.26L2446.34 1426.26M2496.34 1417.26L2446.34 1417.26M2496.34 1407.26L2446.84 1407.26M2496.34 1398.76L2446.84 1398.76M2496.84 1388.26L2446.34 1388.26M2496.34 1379.26L2446.34 1379.26M2496.34 1369.26L2446.84 1369.26M2496.34 1359.76L2446.84 1359.76M2498.21 1436.01L2446.34 1436.01M2458.54 1450.09L2498.21 1424.03"
        stroke="black" stroke-width="2" />
    <path
        d="M978.534 1417.93L927.049 1417.93M978.534 1408.93L927.563 1408.93M978.534 1399.43L927.563 1399.43M979.049 1389.93L927.049 1389.93M978.534 1379.93L927.049 1379.93M978.534 1428.12L927.049 1428.12M978.534 1436.84L927.049 1436.84M979.049 1424.98L943.144 1450.13"
        stroke="black" stroke-width="2" />
    <path
        d="M979.049 1428.25L979.049 1437.25L1030.26 1437.25L1030.26 1428.25M979.049 1428.25L1030.26 1428.25M979.049 1428.25L979.049 1417.75M1030.26 1428.25L1030.26 1417.75M1030.26 1417.75L979.049 1417.75M1030.26 1417.75L1030.26 1408.75M979.049 1417.75L979.049 1408.75M1030.26 1408.75L979.049 1408.75M1030.26 1408.75L1030.26 1399.75M979.049 1408.75L979.049 1399.75M1030.26 1399.75L979.049 1399.75M1030.26 1399.75L1030.26 1389.75L979.049 1389.75L979.049 1399.75"
        stroke="black" stroke-width="2" />
    <path
        d="M1822.61 934.257H1878.89M1878.89 944.153H1822.61M1822.61 953.459H1878.89M1878.89 963.65L1822.61 962.912M1822.61 972.365H1878.89M1696.92 881.085V831.309M1687.91 831.309V881.085M1679.34 881.085V831.309M1670.63 831.309V881.085M1670.63 828.207V780.942M1679.34 780.942V828.207M1687.91 828.207V780.942"
        stroke="black" stroke-width="2" />
    <path
        d="M3274.66 812.635H3417.77M3417.77 812.635H3426.3V1561.3H2664.98M3417.77 812.635V590.456M343.352 355.651L413.213 425.046M413.213 425.046L926.922 935.329H1811.44V886.562H1546.38V776.564H1891.39V935.329H2649.68L2948.15 647.717V528.006M413.213 425.046L308.054 527.735M295.953 539.552L308.054 527.735M272.211 563.294L245.143 590.363H100.293M308.054 527.735L414.88 637.861M308.054 527.735L244.716 464.397H8.05176V590.363H100.293M100.293 590.363V1373.07M3197.41 812.635H3028.04L3007.82 831.56M2948.15 528.006V269.761H3417.77V411.039M2948.15 528.006H3056.87M3171.58 528.006V720.888H3105.43M3171.58 528.006H3056.87M3171.58 528.006V448.062M3056.87 528.006V653.963V723.452M3417.77 411.039H3272.6V590.456H3417.77M3417.77 411.039V590.456M2664.98 1561.3V1168.15M2664.98 1561.3H2551.42M2664.98 1168.15L2683.89 1149.02M2664.98 1168.15L2638.51 1194.62M2551.42 1561.3V1321.92H2531.6M2551.42 1561.3H2442.21M2496.65 1321.92H2442.21V1561.3M2442.21 1561.3H1028.84M1028.84 1561.3V1318.66H966.224M1028.84 1561.3H926.926M937.29 1318.66H926.926V1561.3M926.926 1561.3H796.075M796.075 1561.3H100.293V1373.07M796.075 1561.3V1373.07M796.075 1199.47V1373.07M796.075 1373.07H716.615M675.158 1373.07H100.293M472.326 695.306L850.547 1073.53M1533.51 1194.26H1499.56V1101.17H1605.72M1605.72 1101.17V1194.26M1605.72 1101.17H1707.57M1605.72 1194.26H1576.95M1605.72 1194.26H1634.49M1673.91 1194.26H1707.57M1732.32 1194.26H1707.57M1774.32 1194.26H1813.45V1101.17H1707.57M1707.57 1194.26V1101.17M1493.23 1185.34L1494.5 1095.73H1819.91M165.8 525.193H98.6229"
        stroke="black" stroke-width="13" />
    <path
        d="M546.173 562.007L438.004 670.175M467.85 580.64L407.994 640.165M527.293 640.083L467.437 699.608M683.082 697.317L580.735 799.663M700.286 919.214L800.058 819.443L1162.93 1182.95H1495.95M1820.13 928.859V1192.05M2480.56 937.979V1098.65L2396.03 1183.68H1881.04V931.354H1889.45V936.018H1883.88M2876 721.882H3016.97M3044.67 721.882H3071.62M2949.43 652.439H3053.02M2952.86 379.752H3120.58M3120.58 379.752V483.573H3097.91M3120.58 379.752V312.543H3104.86M3173.9 449.567V403.453M3173.9 361.718V273.611M3271.8 275.157V357.596M3271.8 395.466V415.046M3268.48 593.445H3254.49M3189.36 593.445H3174.89M3420.74 1363.83H3321.06M3290.09 1363.83H3280.63M3273.17 1363.83H3280.63M3244.02 1363.83H3129.71M3019.41 1363.83H3129.71M2986.87 1363.83H2978.54M2867.67 1363.83H2978.54M2834.36 1363.83H2825.55M2818.74 1363.83H2825.55M2783.34 1363.83H2670.13M2660.24 1359.93H2594.39M2562.12 1359.93H2555.61M3280.63 1363.83V1557.8M3129.71 1363.83V1557.8M2978.54 1363.83V1560.3M2825.55 1363.83V1557.8M2541.94 1316.92V1282.66L2549.2 1275.64M2667.32 1161.34L2573.77 1251.86M2568.64 1256.82L2573.77 1251.86M2437.68 1338.57H2334.33M2303.62 1338.57H2297.51M2289.41 1338.57H2297.51M2259.71 1338.57H2155.8M2053.88 1338.57H2155.8M2022.41 1338.57H2015.43M2008.45 1338.57H2015.43M1974.69 1338.57H1873.17M1771.65 1338.57H1873.17M1741.45 1338.57H1734.47M1727.49 1338.57H1734.47M1691.96 1338.57H1584.73M1487.39 1338.57H1584.73M1458.46 1338.57H1450.97M1443.49 1338.57H1450.97M1411.51 1338.57H1308.1M1206.69 1338.57H1308.1M1176.74 1338.57H1170.01M1163.29 1338.57H1170.01M1130.04 1338.57H1033.09M2297.51 1338.57V1557.73M2155.8 1338.57V1557.73M2015.43 1338.57V1557.73M1873.17 1338.57V1557.73M1734.47 1338.57V1557.73M1584.73 1338.57V1557.73M1450.97 1338.57V1557.73M1308.1 1338.57V1560.21M1170.01 1338.57V1557.73M921.585 1358.17H910.557M882.145 1358.17H800.46M924.576 1312.93V1287.89M924.576 1260.78V1253.49H847.751M801.394 1253.49H847.751M847.751 1253.49V1202.46H801.394M3111.69 583.155V664.54M2497.24 1357.09V1448.21M977.256 1379.04V1447.8M1814.44 883.348V871.786M1814.44 837.989V779.797M1702.81 830.203H1659.68M2573.77 1251.86H2661.48"
        stroke="black" stroke-width="7" />
    <path fill-rule="evenodd" clip-rule="evenodd"
        d="M1506.25 1104.26C1506.25 1103.12 1507.18 1102.19 1508.32 1102.19H1588.08C1589.23 1102.19 1590.15 1103.12 1590.15 1104.26V1184.03C1590.15 1185.17 1589.23 1186.1 1588.08 1186.1H1508.32C1507.18 1186.1 1506.25 1185.17 1506.25 1184.03V1104.26ZM1518.68 1109.44C1518.68 1108.87 1519.14 1108.41 1519.71 1108.41H1525.93C1526.5 1108.41 1526.97 1108.87 1526.97 1109.44V1178.85C1526.97 1179.42 1526.5 1179.88 1525.93 1179.88H1519.71C1519.14 1179.88 1518.68 1179.42 1518.68 1178.85V1109.44ZM1571.51 1108.41C1570.94 1108.41 1570.47 1108.87 1570.47 1109.44V1178.85C1570.47 1179.42 1570.94 1179.88 1571.51 1179.88H1577.72C1578.3 1179.88 1578.76 1179.42 1578.76 1178.85V1109.44C1578.76 1108.87 1578.3 1108.41 1577.72 1108.41H1571.51Z"
        fill="black" />
    <path fill-rule="evenodd" clip-rule="evenodd"
        d="M1508.32 1103.74C1508.03 1103.74 1507.8 1103.98 1507.8 1104.26V1184.03C1507.8 1184.31 1508.03 1184.54 1508.32 1184.54H1588.08C1588.37 1184.54 1588.6 1184.31 1588.6 1184.03V1104.26C1588.6 1103.98 1588.37 1103.74 1588.08 1103.74H1508.32ZM1517.12 1109.44C1517.12 1108.01 1518.28 1106.85 1519.71 1106.85H1525.93C1527.36 1106.85 1528.52 1108.01 1528.52 1109.44V1178.85C1528.52 1180.28 1527.36 1181.44 1525.93 1181.44H1519.71C1518.28 1181.44 1517.12 1180.28 1517.12 1178.85V1109.44ZM1568.92 1109.44C1568.92 1108.01 1570.08 1106.85 1571.51 1106.85H1577.72C1579.15 1106.85 1580.31 1108.01 1580.31 1109.44V1178.85C1580.31 1180.28 1579.15 1181.44 1577.72 1181.44H1571.51C1570.08 1181.44 1568.92 1180.28 1568.92 1178.85V1109.44ZM1508.32 1102.19C1507.18 1102.19 1506.25 1103.12 1506.25 1104.26V1184.03C1506.25 1185.17 1507.18 1186.1 1508.32 1186.1H1588.08C1589.23 1186.1 1590.15 1185.17 1590.15 1184.03V1104.26C1590.15 1103.12 1589.23 1102.19 1588.08 1102.19H1508.32ZM1519.71 1108.41C1519.14 1108.41 1518.68 1108.87 1518.68 1109.44V1178.85C1518.68 1179.42 1519.14 1179.88 1519.71 1179.88H1525.93C1526.5 1179.88 1526.97 1179.42 1526.97 1178.85V1109.44C1526.97 1108.87 1526.5 1108.41 1525.93 1108.41H1519.71ZM1570.47 1109.44C1570.47 1108.87 1570.94 1108.41 1571.51 1108.41H1577.72C1578.3 1108.41 1578.76 1108.87 1578.76 1109.44V1178.85C1578.76 1179.42 1578.3 1179.88 1577.72 1179.88H1571.51C1570.94 1179.88 1570.47 1179.42 1570.47 1178.85V1109.44Z"
        fill="white" />
    <path
        d="M1530.09 1128.11C1530.09 1126.97 1531.02 1126.04 1532.17 1126.04H1562.79C1563.93 1126.04 1564.86 1126.97 1564.86 1128.11V1161.55C1564.86 1162.69 1563.93 1163.62 1562.79 1163.62H1532.17C1531.02 1163.62 1530.09 1162.69 1530.09 1161.55V1128.11Z"
        fill="black" />
    <path fill-rule="evenodd" clip-rule="evenodd"
        d="M1562.79 1128.11H1532.17V1161.55H1562.79L1562.79 1128.11ZM1532.17 1126.04C1531.02 1126.04 1530.09 1126.97 1530.09 1128.11V1161.55C1530.09 1162.69 1531.02 1163.62 1532.17 1163.62H1562.79C1563.93 1163.62 1564.86 1162.69 1564.86 1161.55V1128.11C1564.86 1126.97 1563.93 1126.04 1562.79 1126.04H1532.17Z"
        fill="white" />
    <path
        d="M1548.27 1138.14L1541.94 1149.04H1548.27V1138.14ZM1548.13 1160.51V1153.75H1536.11V1148.48L1547.39 1129.56H1554.19V1149.04H1557.69V1153.75H1554.19V1160.51H1548.13Z"
        fill="white" />
    <path
        d="M1543.34 1112.79L1547.76 1106.61L1552.18 1112.79V1116.32L1549.53 1113.67V1120.74H1545.99V1113.67L1543.34 1116.32V1112.79Z"
        fill="white" />
    <path
        d="M1543.34 1175.5L1547.76 1181.68L1552.18 1175.5V1171.97L1549.53 1174.62V1167.55H1545.99V1174.62L1543.34 1171.97V1175.5Z"
        fill="white" />
    <path fill-rule="evenodd" clip-rule="evenodd"
        d="M1616.45 1104.26C1616.45 1103.12 1617.38 1102.19 1618.53 1102.19H1698.29C1699.43 1102.19 1700.36 1103.12 1700.36 1104.26V1184.03C1700.36 1185.17 1699.43 1186.1 1698.29 1186.1H1618.53C1617.38 1186.1 1616.45 1185.17 1616.45 1184.03V1104.26ZM1628.88 1109.44C1628.88 1108.87 1629.35 1108.41 1629.92 1108.41H1636.14C1636.71 1108.41 1637.17 1108.87 1637.17 1109.44V1178.85C1637.17 1179.42 1636.71 1179.88 1636.14 1179.88H1629.92C1629.35 1179.88 1628.88 1179.42 1628.88 1178.85V1109.44ZM1681.72 1108.41C1681.14 1108.41 1680.68 1108.87 1680.68 1109.44V1178.85C1680.68 1179.42 1681.14 1179.88 1681.72 1179.88H1687.93C1688.5 1179.88 1688.97 1179.42 1688.97 1178.85V1109.44C1688.97 1108.87 1688.5 1108.41 1687.93 1108.41H1681.72Z"
        fill="black" />
    <path fill-rule="evenodd" clip-rule="evenodd"
        d="M1618.53 1103.74C1618.24 1103.74 1618.01 1103.98 1618.01 1104.26V1184.03C1618.01 1184.31 1618.24 1184.54 1618.53 1184.54H1698.29C1698.58 1184.54 1698.81 1184.31 1698.81 1184.03V1104.26C1698.81 1103.98 1698.58 1103.74 1698.29 1103.74H1618.53ZM1627.33 1109.44C1627.33 1108.01 1628.49 1106.85 1629.92 1106.85H1636.14C1637.57 1106.85 1638.73 1108.01 1638.73 1109.44V1178.85C1638.73 1180.28 1637.57 1181.44 1636.14 1181.44H1629.92C1628.49 1181.44 1627.33 1180.28 1627.33 1178.85V1109.44ZM1679.13 1109.44C1679.13 1108.01 1680.28 1106.85 1681.72 1106.85H1687.93C1689.36 1106.85 1690.52 1108.01 1690.52 1109.44V1178.85C1690.52 1180.28 1689.36 1181.44 1687.93 1181.44H1681.72C1680.28 1181.44 1679.13 1180.28 1679.13 1178.85V1109.44ZM1618.53 1102.19C1617.38 1102.19 1616.45 1103.12 1616.45 1104.26V1184.03C1616.45 1185.17 1617.38 1186.1 1618.53 1186.1H1698.29C1699.43 1186.1 1700.36 1185.17 1700.36 1184.03V1104.26C1700.36 1103.12 1699.43 1102.19 1698.29 1102.19H1618.53ZM1629.92 1108.41C1629.35 1108.41 1628.88 1108.87 1628.88 1109.44V1178.85C1628.88 1179.42 1629.35 1179.88 1629.92 1179.88H1636.14C1636.71 1179.88 1637.17 1179.42 1637.17 1178.85V1109.44C1637.17 1108.87 1636.71 1108.41 1636.14 1108.41H1629.92ZM1680.68 1109.44C1680.68 1108.87 1681.14 1108.41 1681.72 1108.41H1687.93C1688.5 1108.41 1688.97 1108.87 1688.97 1109.44V1178.85C1688.97 1179.42 1688.5 1179.88 1687.93 1179.88H1681.72C1681.14 1179.88 1680.68 1179.42 1680.68 1178.85V1109.44Z"
        fill="white" />
    <path
        d="M1640.3 1128.11C1640.3 1126.97 1641.23 1126.04 1642.37 1126.04H1672.99C1674.14 1126.04 1675.06 1126.97 1675.06 1128.11V1161.55C1675.06 1162.69 1674.14 1163.62 1672.99 1163.62H1642.37C1641.23 1163.62 1640.3 1162.69 1640.3 1161.55V1128.11Z"
        fill="black" />
    <path fill-rule="evenodd" clip-rule="evenodd"
        d="M1672.99 1128.11H1642.37V1161.55H1672.99L1672.99 1128.11ZM1642.37 1126.04C1641.23 1126.04 1640.3 1126.97 1640.3 1128.11V1161.55C1640.3 1162.69 1641.23 1163.62 1642.37 1163.62H1672.99C1674.14 1163.62 1675.06 1162.69 1675.06 1161.55V1128.11C1675.06 1126.97 1674.14 1126.04 1672.99 1126.04H1642.37Z"
        fill="white" />
    <path
        d="M1654.12 1147.19H1648.34L1648.94 1129.57H1666.6V1134.38H1653.95L1653.69 1142.16C1654.96 1140.79 1656.86 1140.1 1659.39 1140.1C1661.81 1140.1 1663.8 1140.92 1665.35 1142.55C1666.9 1144.18 1667.68 1146.41 1667.68 1149.24C1667.68 1152.36 1666.76 1154.86 1664.92 1156.76C1663.1 1158.65 1660.73 1159.6 1657.79 1159.6C1655.17 1159.6 1652.96 1158.81 1651.14 1157.24C1649.33 1155.64 1648.37 1153.6 1648.25 1151.12H1653.86C1653.98 1152.31 1654.38 1153.26 1655.07 1153.96C1655.76 1154.63 1656.67 1154.97 1657.79 1154.97C1660.64 1154.97 1662.07 1153.15 1662.07 1149.5C1662.07 1146.3 1660.76 1144.69 1658.14 1144.69C1656.27 1144.69 1654.93 1145.53 1654.12 1147.19Z"
        fill="white" />
    <path
        d="M1653.55 1112.79L1657.97 1106.61L1662.38 1112.79V1116.32L1659.73 1113.67V1120.74H1656.2V1113.67L1653.55 1116.32V1112.79Z"
        fill="white" />
    <path
        d="M1653.55 1175.5L1657.97 1181.68L1662.38 1175.5V1171.97L1659.73 1174.62V1167.55H1656.2V1174.62L1653.55 1171.97V1175.5Z"
        fill="white" />
    <path fill-rule="evenodd" clip-rule="evenodd"
        d="M1718.08 1104.26C1718.08 1103.12 1719 1102.19 1720.15 1102.19H1799.91C1801.06 1102.19 1801.98 1103.12 1801.98 1104.26V1184.03C1801.98 1185.17 1801.06 1186.1 1799.91 1186.1H1720.15C1719 1186.1 1718.08 1185.17 1718.08 1184.03V1104.26ZM1730.51 1109.44C1730.51 1108.87 1730.97 1108.41 1731.54 1108.41H1737.76C1738.33 1108.41 1738.79 1108.87 1738.79 1109.44V1178.85C1738.79 1179.42 1738.33 1179.88 1737.76 1179.88H1731.54C1730.97 1179.88 1730.51 1179.42 1730.51 1178.85V1109.44ZM1783.34 1108.41C1782.77 1108.41 1782.3 1108.87 1782.3 1109.44V1178.85C1782.3 1179.42 1782.77 1179.88 1783.34 1179.88H1789.55C1790.13 1179.88 1790.59 1179.42 1790.59 1178.85V1109.44C1790.59 1108.87 1790.13 1108.41 1789.55 1108.41H1783.34Z"
        fill="black" />
    <path fill-rule="evenodd" clip-rule="evenodd"
        d="M1720.15 1103.74C1719.86 1103.74 1719.63 1103.98 1719.63 1104.26V1184.03C1719.63 1184.31 1719.86 1184.54 1720.15 1184.54H1799.91C1800.2 1184.54 1800.43 1184.31 1800.43 1184.03V1104.26C1800.43 1103.98 1800.2 1103.74 1799.91 1103.74H1720.15ZM1728.95 1109.44C1728.95 1108.01 1730.11 1106.85 1731.54 1106.85H1737.76C1739.19 1106.85 1740.35 1108.01 1740.35 1109.44V1178.85C1740.35 1180.28 1739.19 1181.44 1737.76 1181.44H1731.54C1730.11 1181.44 1728.95 1180.28 1728.95 1178.85V1109.44ZM1780.75 1109.44C1780.75 1108.01 1781.91 1106.85 1783.34 1106.85H1789.55C1790.98 1106.85 1792.14 1108.01 1792.14 1109.44V1178.85C1792.14 1180.28 1790.98 1181.44 1789.55 1181.44H1783.34C1781.91 1181.44 1780.75 1180.28 1780.75 1178.85V1109.44ZM1720.15 1102.19C1719 1102.19 1718.08 1103.12 1718.08 1104.26V1184.03C1718.08 1185.17 1719 1186.1 1720.15 1186.1H1799.91C1801.06 1186.1 1801.98 1185.17 1801.98 1184.03V1104.26C1801.98 1103.12 1801.06 1102.19 1799.91 1102.19H1720.15ZM1731.54 1108.41C1730.97 1108.41 1730.51 1108.87 1730.51 1109.44V1178.85C1730.51 1179.42 1730.97 1179.88 1731.54 1179.88H1737.76C1738.33 1179.88 1738.79 1179.42 1738.79 1178.85V1109.44C1738.79 1108.87 1738.33 1108.41 1737.76 1108.41H1731.54ZM1782.3 1109.44C1782.3 1108.87 1782.77 1108.41 1783.34 1108.41H1789.55C1790.13 1108.41 1790.59 1108.87 1790.59 1109.44V1178.85C1790.59 1179.42 1790.13 1179.88 1789.55 1179.88H1783.34C1782.77 1179.88 1782.3 1179.42 1782.3 1178.85V1109.44Z"
        fill="white" />
    <path
        d="M1741.92 1128.11C1741.92 1126.97 1742.85 1126.04 1744 1126.04H1774.61C1775.76 1126.04 1776.69 1126.97 1776.69 1128.11V1161.55C1776.69 1162.69 1775.76 1163.62 1774.61 1163.62H1744C1742.85 1163.62 1741.92 1162.69 1741.92 1161.55V1128.11Z"
        fill="black" />
    <path fill-rule="evenodd" clip-rule="evenodd"
        d="M1774.61 1128.11H1744V1161.55H1774.61L1774.61 1128.11ZM1744 1126.04C1742.85 1126.04 1741.92 1126.97 1741.92 1128.11V1161.55C1741.92 1162.69 1742.85 1163.62 1744 1163.62H1774.61C1775.76 1163.62 1776.69 1162.69 1776.69 1161.55V1128.11C1776.69 1126.97 1775.76 1126.04 1774.61 1126.04H1744Z"
        fill="white" />
    <path
        d="M1759.8 1155.91C1761.06 1155.91 1762.04 1155.4 1762.73 1154.38C1763.44 1153.33 1763.8 1152.01 1763.8 1150.41C1763.8 1148.75 1763.43 1147.45 1762.68 1146.49C1761.94 1145.5 1760.95 1145.01 1759.72 1145.01C1758.46 1145.01 1757.42 1145.5 1756.62 1146.49C1755.85 1147.48 1755.46 1148.75 1755.46 1150.32C1755.46 1152.01 1755.85 1153.36 1756.62 1154.38C1757.4 1155.4 1758.46 1155.91 1759.8 1155.91ZM1768.79 1136.81H1763.24C1763.1 1135.01 1762.1 1134.1 1760.23 1134.1C1758.71 1134.1 1757.57 1134.85 1756.79 1136.33C1756.02 1137.81 1755.55 1140.12 1755.38 1143.26C1756.89 1141.46 1758.84 1140.56 1761.22 1140.56C1763.54 1140.56 1765.46 1141.43 1766.98 1143.17C1768.53 1144.89 1769.3 1147.21 1769.3 1150.15C1769.3 1153.14 1768.43 1155.61 1766.68 1157.56C1764.93 1159.51 1762.67 1160.48 1759.89 1160.48C1753.21 1160.48 1749.87 1155.64 1749.87 1145.96C1749.87 1140.24 1750.73 1136.08 1752.45 1133.49C1754.2 1130.88 1756.88 1129.57 1760.49 1129.57C1762.81 1129.57 1764.7 1130.2 1766.17 1131.45C1767.63 1132.7 1768.5 1134.48 1768.79 1136.81Z"
        fill="white" />
    <path
        d="M1755.17 1112.79L1759.59 1106.61L1764 1112.79V1116.32L1761.35 1113.67V1120.74H1757.82V1113.67L1755.17 1116.32V1112.79Z"
        fill="white" />
    <path
        d="M1755.17 1175.5L1759.59 1181.68L1764 1175.5V1171.97L1761.35 1174.62V1167.55H1757.82V1174.62L1755.17 1171.97V1175.5Z"
        fill="white" />
    <circle cx="112.605" cy="1015.53" r="15.3668" stroke="black" stroke-width="8" />
    <circle cx="423.361" cy="1021.12" r="15.3668" stroke="black" stroke-width="8" />
    <circle cx="1180.41" cy="988.417" r="15.3668" stroke="black" stroke-width="8" />
    <circle cx="424.361" cy="1362.06" r="15.3668" stroke="black" stroke-width="8" />
    <circle cx="109.051" cy="802.632" r="15.3668" stroke="black" stroke-width="8" />
    <circle cx="970.054" cy="1200.69" r="10.5911" stroke="black" stroke-width="8" />
    <circle cx="688.916" cy="1200.69" r="10.5911" stroke="black" stroke-width="8" />
    <circle cx="1379.81" cy="1200.69" r="10.5911" stroke="black" stroke-width="8" />
    <circle cx="1175.63" cy="1200.69" r="10.5911" stroke="black" stroke-width="8" />
    <circle cx="1896.36" cy="1200.69" r="10.5911" stroke="black" stroke-width="8" />
    <circle cx="2095.07" cy="1200.69" r="10.5911" stroke="black" stroke-width="8" />
    <circle cx="2297.55" cy="1202.69" r="10.5911" stroke="black" stroke-width="8" />
    <circle cx="2546.58" cy="1196.69" r="10.5911" stroke="black" stroke-width="8" />
    <circle cx="108.646" cy="1360.87" r="15.3668" stroke="black" stroke-width="8" />
    <circle cx="1384.58" cy="986.417" r="15.3668" stroke="black" stroke-width="8" />
    <circle cx="972.933" cy="1038.71" r="15.3668" stroke="black" stroke-width="8" />
    <circle cx="2497.8" cy="992.227" r="15.3668" stroke="black" stroke-width="8" />
    <circle cx="1900" cy="990.227" r="15.3668" stroke="black" stroke-width="8" />
    <circle cx="2095.07" cy="990.227" r="15.3668" stroke="black" stroke-width="8" />
    <circle cx="1801.98" cy="986.417" r="15.3668" stroke="black" stroke-width="8" />
    <circle cx="1586.59" cy="986.417" r="15.3668" stroke="black" stroke-width="8" />
    <circle cx="2294.78" cy="992.227" r="15.3668" stroke="black" stroke-width="8" />
    <circle cx="2675.57" cy="992.227" r="15.3668" stroke="black" stroke-width="8" />
    <circle cx="2911.18" cy="758.664" r="15.3668" stroke="black" stroke-width="8" />
    <rect x="382.831" y="1017.53" width="127.764" height="124.852" rx="3" fill="black" stroke="white"
        stroke-width="4" />
    <path
        d="M423.066 1084.98H429.542C428.89 1088.56 427.383 1091.4 425.023 1093.51C422.693 1095.62 419.758 1096.68 416.217 1096.68C411.993 1096.68 408.545 1095.28 405.874 1092.49C403.234 1089.66 401.914 1085.67 401.914 1080.51C401.914 1075.29 403.203 1071.18 405.781 1068.17C408.359 1065.15 411.868 1063.65 416.31 1063.65C420.068 1063.65 423.128 1064.7 425.488 1066.81C427.88 1068.93 429.231 1071.6 429.542 1074.83H423.066C422.631 1073.12 421.792 1071.77 420.55 1070.77C419.307 1069.75 417.91 1069.24 416.357 1069.24C413.748 1069.24 411.775 1070.2 410.44 1072.13C409.135 1074.02 408.483 1076.69 408.483 1080.14C408.483 1083.62 409.12 1086.3 410.393 1088.2C411.667 1090.09 413.546 1091.04 416.031 1091.04C419.789 1091.04 422.134 1089.02 423.066 1084.98Z"
        fill="white" />
    <path
        d="M437.336 1083.45H431.092L431.745 1064.67H450.8V1069.8H437.149L436.87 1078.09C438.236 1076.63 440.286 1075.9 443.02 1075.9C445.629 1075.9 447.772 1076.77 449.449 1078.51C451.126 1080.25 451.965 1082.62 451.965 1085.64C451.965 1088.96 450.971 1091.63 448.983 1093.65C447.026 1095.67 444.464 1096.68 441.296 1096.68C438.469 1096.68 436.078 1095.84 434.121 1094.16C432.164 1092.45 431.123 1090.28 430.999 1087.64H437.056C437.18 1088.91 437.615 1089.92 438.361 1090.67C439.106 1091.38 440.084 1091.74 441.296 1091.74C444.371 1091.74 445.908 1089.8 445.908 1085.92C445.908 1082.5 444.495 1080.79 441.669 1080.79C439.65 1080.79 438.205 1081.68 437.336 1083.45Z"
        fill="white" />
    <path
        d="M465.208 1095.61H459.151V1074.22H452.815V1070.03C455.393 1070.03 457.225 1069.61 458.312 1068.77C459.43 1067.9 460.083 1066.53 460.269 1064.67H465.208V1095.61Z"
        fill="white" />
    <path
        d="M477.922 1091.79C479.413 1091.79 480.516 1090.89 481.23 1089.08C481.945 1087.28 482.302 1084.32 482.302 1080.19C482.302 1075.99 481.945 1073 481.23 1071.19C480.516 1069.39 479.413 1068.49 477.922 1068.49C476.4 1068.49 475.282 1069.39 474.568 1071.19C473.853 1072.96 473.496 1075.93 473.496 1080.09C473.496 1084.29 473.853 1087.28 474.568 1089.08C475.282 1090.89 476.4 1091.79 477.922 1091.79ZM477.736 1096.68C470.716 1096.68 467.206 1091.12 467.206 1080C467.206 1069.1 470.716 1063.65 477.736 1063.65C484.88 1063.65 488.452 1069.07 488.452 1079.91C488.452 1085.53 487.52 1089.74 485.656 1092.53C483.793 1095.3 481.153 1096.68 477.736 1096.68Z"
        fill="white" />
    <rect x="3050.91" y="1023.36" width="127.764" height="124.852" rx="3" fill="black" stroke="white"
        stroke-width="4" />
    <path
        d="M3091.14 1090.82H3097.62C3096.96 1094.39 3095.46 1097.23 3093.1 1099.34C3090.77 1101.45 3087.83 1102.51 3084.29 1102.51C3080.07 1102.51 3076.62 1101.11 3073.95 1098.32C3071.31 1095.49 3069.99 1091.5 3069.99 1086.34C3069.99 1081.12 3071.28 1077.01 3073.85 1074C3076.43 1070.98 3079.94 1069.48 3084.38 1069.48C3088.14 1069.48 3091.2 1070.53 3093.56 1072.64C3095.95 1074.76 3097.31 1077.43 3097.62 1080.66H3091.14C3090.71 1078.95 3089.87 1077.6 3088.62 1076.6C3087.38 1075.58 3085.98 1075.07 3084.43 1075.07C3081.82 1075.07 3079.85 1076.03 3078.51 1077.96C3077.21 1079.85 3076.56 1082.52 3076.56 1085.97C3076.56 1089.45 3077.19 1092.14 3078.47 1094.03C3079.74 1095.92 3081.62 1096.87 3084.1 1096.87C3087.86 1096.87 3090.21 1094.85 3091.14 1090.82Z"
        fill="white" />
    <path
        d="M3105.41 1089.28H3099.17L3099.82 1070.5H3118.87V1075.63H3105.22L3104.94 1083.92C3106.31 1082.46 3108.36 1081.73 3111.09 1081.73C3113.7 1081.73 3115.85 1082.6 3117.52 1084.34C3119.2 1086.08 3120.04 1088.45 3120.04 1091.47C3120.04 1094.79 3119.05 1097.46 3117.06 1099.48C3115.1 1101.5 3112.54 1102.51 3109.37 1102.51C3106.54 1102.51 3104.15 1101.67 3102.2 1099.99C3100.24 1098.29 3099.2 1096.11 3099.07 1093.47H3105.13C3105.25 1094.74 3105.69 1095.75 3106.43 1096.5C3107.18 1097.21 3108.16 1097.57 3109.37 1097.57C3112.44 1097.57 3113.98 1095.63 3113.98 1091.75C3113.98 1088.33 3112.57 1086.62 3109.74 1086.62C3107.72 1086.62 3106.28 1087.51 3105.41 1089.28Z"
        fill="white" />
    <path
        d="M3133.05 1089.98V1079.07L3126.71 1089.98H3133.05ZM3138.97 1101.44H3132.91V1094.68H3120.89V1089.42L3132.16 1070.5H3138.97V1089.98H3142.46V1094.68H3138.97V1101.44Z"
        fill="white" />
    <path
        d="M3154.37 1097.62C3155.86 1097.62 3156.96 1096.72 3157.68 1094.92C3158.39 1093.11 3158.75 1090.15 3158.75 1086.02C3158.75 1081.82 3158.39 1078.83 3157.68 1077.02C3156.96 1075.22 3155.86 1074.32 3154.37 1074.32C3152.85 1074.32 3151.73 1075.22 3151.01 1077.02C3150.3 1078.79 3149.94 1081.76 3149.94 1085.92C3149.94 1090.12 3150.3 1093.11 3151.01 1094.92C3151.73 1096.72 3152.85 1097.62 3154.37 1097.62ZM3154.18 1102.51C3147.16 1102.51 3143.65 1096.95 3143.65 1085.83C3143.65 1074.93 3147.16 1069.48 3154.18 1069.48C3161.33 1069.48 3164.9 1074.9 3164.9 1085.74C3164.9 1091.36 3163.97 1095.57 3162.1 1098.36C3160.24 1101.13 3157.6 1102.51 3154.18 1102.51Z"
        fill="white" />
    <rect x="592.662" y="0.109131" width="501" height="504" fill="black" />
    <path
        d="M779.699 182.909H800.549C798.449 194.409 793.599 203.559 785.999 210.359C778.499 217.159 769.049 220.559 757.649 220.559C744.049 220.559 732.949 216.059 724.349 207.059C715.849 197.959 711.599 185.109 711.599 168.509C711.599 151.709 715.749 138.459 724.049 128.759C732.349 119.059 743.649 114.209 757.949 114.209C770.049 114.209 779.899 117.609 787.499 124.409C795.199 131.209 799.549 139.809 800.549 150.209H779.699C778.299 144.709 775.599 140.359 771.599 137.159C767.599 133.859 763.099 132.209 758.099 132.209C749.699 132.209 743.349 135.309 739.049 141.509C734.849 147.609 732.749 156.209 732.749 167.309C732.749 178.509 734.799 187.159 738.899 193.259C742.999 199.359 749.049 202.409 757.049 202.409C769.149 202.409 776.699 195.909 779.699 182.909ZM851.891 134.759H825.041V161.309H851.141C861.341 161.309 866.441 156.909 866.441 148.109C866.441 139.209 861.591 134.759 851.891 134.759ZM883.241 217.109H862.841V191.459C862.841 186.559 861.691 183.109 859.391 181.109C857.191 179.109 853.141 178.109 847.241 178.109H825.041V217.109H804.791V117.509H855.341C864.441 117.509 871.791 120.209 877.391 125.609C883.091 131.009 885.941 137.909 885.941 146.309C885.941 151.709 884.641 156.509 882.041 160.709C879.441 164.809 875.791 167.709 871.091 169.409C875.591 170.809 878.741 172.959 880.541 175.859C882.341 178.759 883.241 183.109 883.241 188.909V217.109ZM975.555 217.109H950.205L931.155 182.909L911.055 217.109H886.755L919.005 166.259L888.555 117.509H913.155L931.155 149.759L949.305 117.509H973.455L943.155 165.359L975.555 217.109ZM830.695 357.959H810.595L812.695 297.509H874.045V314.009H830.095L829.195 340.709C833.595 336.009 840.195 333.659 848.995 333.659C857.395 333.659 864.295 336.459 869.695 342.059C875.095 347.659 877.795 355.309 877.795 365.009C877.795 375.709 874.595 384.309 868.195 390.809C861.895 397.309 853.645 400.559 843.445 400.559C834.345 400.559 826.645 397.859 820.345 392.459C814.045 386.959 810.695 379.959 810.295 371.459H829.795C830.195 375.559 831.595 378.809 833.995 381.209C836.395 383.509 839.545 384.659 843.445 384.659C853.345 384.659 858.295 378.409 858.295 365.909C858.295 354.909 853.745 349.409 844.645 349.409C838.145 349.409 833.495 352.259 830.695 357.959Z"
        fill="white" />
    <rect x="2969.88" y="535.082" width="110.231" height="109.396" rx="7.5" fill="#125900" stroke="white"
        stroke-width="5" />
    <path
        d="M2980.74 617.335V628.608H3069.67V551.787H3047.13V563.477H3033.35V577.255H3020.82V590.197H3005.37V604.392H2994.1V617.335H2980.74Z"
        fill="white" stroke="white" stroke-width="2" />
    <path
        d="M3055.96 615.107H3062.91C3062.21 618.941 3060.6 621.991 3058.06 624.257C3055.56 626.524 3052.41 627.657 3048.61 627.657C3044.08 627.657 3040.38 626.157 3037.51 623.157C3034.68 620.124 3033.26 615.841 3033.26 610.307C3033.26 604.707 3034.65 600.291 3037.41 597.057C3040.18 593.824 3043.95 592.207 3048.71 592.207C3052.75 592.207 3056.03 593.341 3058.56 595.607C3061.13 597.874 3062.58 600.741 3062.91 604.207H3055.96C3055.5 602.374 3054.6 600.924 3053.26 599.857C3051.93 598.757 3050.43 598.207 3048.76 598.207C3045.96 598.207 3043.85 599.241 3042.41 601.307C3041.01 603.341 3040.31 606.207 3040.31 609.907C3040.31 613.641 3041 616.524 3042.36 618.557C3043.73 620.591 3045.75 621.607 3048.41 621.607C3052.45 621.607 3054.96 619.441 3055.96 615.107Z"
        fill="#125900" />
    <rect x="1553.95" y="774.457" width="110.231" height="109.396" rx="7.5" fill="#125900" stroke="white"
        stroke-width="5" />
    <path
        d="M1564.81 856.71V867.982H1653.74V791.162H1631.19V802.852H1617.41V816.63H1604.89V829.572H1589.44V843.767H1578.17V856.71H1564.81Z"
        fill="white" stroke="white" stroke-width="2" />
    <path
        d="M1642.93 865.882H1617.73V832.682H1642.13V838.482H1624.48V845.582H1640.73V851.432H1624.48V859.982H1642.93V865.882Z"
        fill="#125900" />
    <rect x="2.91748" y="469.022" width="119" height="118.101" rx="7.5" fill="#125900" stroke="white"
        stroke-width="5" />
    <path
        d="M14.7944 557.725V569.855H110.49V487.188H86.2292V499.768H71.4031V514.594H57.9249V528.522H41.3017V543.797H29.1712V557.725H14.7944Z"
        fill="white" stroke="white" stroke-width="2" />
    <path
        d="M100.504 563.942H92.0544L82.2044 548.992L78.5044 552.642V563.942H71.6544V530.742H78.5044V544.242L91.2044 530.742H100.204L87.1044 543.842L100.504 563.942Z"
        fill="#125900" />
    <rect x="2426.41" y="1439.46" width="119.244" height="118.344" rx="7.5" fill="#125900" stroke="white"
        stroke-width="5" />
    <path
        d="M2438.32 1528.34V1540.5H2534.2V1457.67H2509.89V1470.27H2495.04V1485.13H2481.53V1499.08H2464.88V1514.39H2452.72V1528.34H2438.32Z"
        fill="white" stroke="white" stroke-width="2" />
    <path
        d="M2502.04 1528.83H2507.79C2510.79 1528.83 2512.97 1527.89 2514.34 1526.03C2515.74 1524.16 2516.44 1521.33 2516.44 1517.53C2516.44 1513.76 2515.72 1511.08 2514.29 1509.48C2512.89 1507.84 2510.52 1507.03 2507.19 1507.03H2502.04V1528.83ZM2509.19 1534.48H2495.29V1501.28H2508.14C2512.7 1501.28 2516.4 1502.74 2519.24 1505.68C2522.1 1508.61 2523.54 1512.56 2523.54 1517.53C2523.54 1522.59 2522.22 1526.69 2519.59 1529.83C2516.95 1532.93 2513.49 1534.48 2509.19 1534.48Z"
        fill="#125900" />
    <rect x="912.348" y="1439.53" width="115.412" height="114.539" rx="7.5" fill="#125900" stroke="white"
        stroke-width="5" />
    <path
        d="M923.808 1525.59V1537.37H1016.73V1457.1H993.176V1469.31H978.779V1483.71H965.691V1497.23H949.549V1512.07H937.769V1525.59H923.808Z"
        fill="white" stroke="white" stroke-width="2" />
    <path d="M1000.61 1519.02H986.006V1533.02H979.056V1499.82H1002.71V1505.62H986.006V1513.17H1000.61V1519.02Z"
        fill="#125900" />
    <path
        d="M3324.71 1420.23H3329.71C3329.21 1422.99 3328.05 1425.19 3326.22 1426.82C3324.42 1428.45 3322.15 1429.27 3319.42 1429.27C3316.15 1429.27 3313.49 1428.19 3311.43 1426.03C3309.39 1423.84 3308.37 1420.76 3308.37 1416.78C3308.37 1412.74 3309.36 1409.56 3311.35 1407.24C3313.35 1404.91 3316.06 1403.74 3319.49 1403.74C3322.39 1403.74 3324.76 1404.56 3326.58 1406.19C3328.43 1407.82 3329.47 1409.89 3329.71 1412.38H3324.71C3324.37 1411.06 3323.73 1410.02 3322.77 1409.25C3321.81 1408.46 3320.73 1408.06 3319.53 1408.06C3317.51 1408.06 3315.99 1408.81 3314.95 1410.3C3313.95 1411.76 3313.44 1413.82 3313.44 1416.49C3313.44 1419.18 3313.93 1421.25 3314.92 1422.72C3315.9 1424.18 3317.35 1424.91 3319.27 1424.91C3322.18 1424.91 3323.99 1423.35 3324.71 1420.23ZM3335.74 1419.04H3330.91L3331.42 1404.54H3346.14V1408.5H3335.59L3335.38 1414.9C3336.43 1413.78 3338.02 1413.21 3340.13 1413.21C3342.14 1413.21 3343.8 1413.88 3345.1 1415.23C3346.39 1416.57 3347.04 1418.41 3347.04 1420.74C3347.04 1423.3 3346.27 1425.37 3344.74 1426.93C3343.22 1428.49 3341.24 1429.27 3338.8 1429.27C3336.61 1429.27 3334.76 1428.62 3333.25 1427.32C3331.74 1426 3330.94 1424.32 3330.84 1422.28H3335.52C3335.62 1423.27 3335.95 1424.05 3336.53 1424.62C3337.1 1425.18 3337.86 1425.45 3338.8 1425.45C3341.17 1425.45 3342.36 1423.95 3342.36 1420.95C3342.36 1418.31 3341.27 1416.99 3339.08 1416.99C3337.52 1416.99 3336.41 1417.68 3335.74 1419.04ZM3357.09 1419.58V1411.16L3352.2 1419.58H3357.09ZM3361.66 1428.44H3356.98V1423.22H3347.7V1419.15L3356.41 1404.54H3361.66V1419.58H3364.36V1423.22H3361.66V1428.44ZM3370.51 1419.04H3365.68L3366.19 1404.54H3380.91V1408.5H3370.36L3370.15 1414.9C3371.2 1413.78 3372.79 1413.21 3374.9 1413.21C3376.91 1413.21 3378.57 1413.88 3379.87 1415.23C3381.16 1416.57 3381.81 1418.41 3381.81 1420.74C3381.81 1423.3 3381.04 1425.37 3379.51 1426.93C3377.99 1428.49 3376.01 1429.27 3373.57 1429.27C3371.38 1429.27 3369.53 1428.62 3368.02 1427.32C3366.51 1426 3365.71 1424.32 3365.61 1422.28H3370.29C3370.39 1423.27 3370.72 1424.05 3371.3 1424.62C3371.87 1425.18 3372.63 1425.45 3373.57 1425.45C3375.94 1425.45 3377.13 1423.95 3377.13 1420.95C3377.13 1418.31 3376.04 1416.99 3373.85 1416.99C3372.29 1416.99 3371.18 1417.68 3370.51 1419.04Z"
        fill="black" />
    <path
        d="M3188.09 1420.23H3193.09C3192.59 1422.99 3191.43 1425.19 3189.6 1426.82C3187.8 1428.45 3185.53 1429.27 3182.8 1429.27C3179.53 1429.27 3176.87 1428.19 3174.81 1426.03C3172.77 1423.84 3171.75 1420.76 3171.75 1416.78C3171.75 1412.74 3172.74 1409.56 3174.73 1407.24C3176.73 1404.91 3179.44 1403.74 3182.87 1403.74C3185.77 1403.74 3188.14 1404.56 3189.96 1406.19C3191.81 1407.82 3192.85 1409.89 3193.09 1412.38H3188.09C3187.75 1411.06 3187.11 1410.02 3186.15 1409.25C3185.19 1408.46 3184.11 1408.06 3182.91 1408.06C3180.89 1408.06 3179.37 1408.81 3178.33 1410.3C3177.33 1411.76 3176.82 1413.82 3176.82 1416.49C3176.82 1419.18 3177.31 1421.25 3178.3 1422.72C3179.28 1424.18 3180.73 1424.91 3182.65 1424.91C3185.56 1424.91 3187.37 1423.35 3188.09 1420.23ZM3199.12 1419.04H3194.29L3194.8 1404.54H3209.52V1408.5H3198.97L3198.76 1414.9C3199.81 1413.78 3201.4 1413.21 3203.51 1413.21C3205.52 1413.21 3207.18 1413.88 3208.48 1415.23C3209.77 1416.57 3210.42 1418.41 3210.42 1420.74C3210.42 1423.3 3209.65 1425.37 3208.12 1426.93C3206.6 1428.49 3204.62 1429.27 3202.18 1429.27C3199.99 1429.27 3198.14 1428.62 3196.63 1427.32C3195.12 1426 3194.32 1424.32 3194.22 1422.28H3198.9C3199 1423.27 3199.33 1424.05 3199.91 1424.62C3200.48 1425.18 3201.24 1425.45 3202.18 1425.45C3204.55 1425.45 3205.74 1423.95 3205.74 1420.95C3205.74 1418.31 3204.65 1416.99 3202.46 1416.99C3200.9 1416.99 3199.79 1417.68 3199.12 1419.04ZM3220.47 1419.58V1411.16L3215.58 1419.58H3220.47ZM3225.04 1428.44H3220.36V1423.22H3211.08V1419.15L3219.79 1404.54H3225.04V1419.58H3227.74V1423.22H3225.04V1428.44ZM3237.59 1419.58V1411.16L3232.7 1419.58H3237.59ZM3242.16 1428.44H3237.48V1423.22H3228.2V1419.15L3236.91 1404.54H3242.16V1419.58H3244.86V1423.22H3242.16V1428.44Z"
        fill="black" />
    <path
        d="M3025.8 1420.23H3030.81C3030.3 1422.99 3029.14 1425.19 3027.31 1426.82C3025.51 1428.45 3023.25 1429.27 3020.51 1429.27C3017.25 1429.27 3014.58 1428.19 3012.52 1426.03C3010.48 1423.84 3009.46 1420.76 3009.46 1416.78C3009.46 1412.74 3010.45 1409.56 3012.45 1407.24C3014.44 1404.91 3017.15 1403.74 3020.58 1403.74C3023.49 1403.74 3025.85 1404.56 3027.67 1406.19C3029.52 1407.82 3030.57 1409.89 3030.81 1412.38H3025.8C3025.47 1411.06 3024.82 1410.02 3023.86 1409.25C3022.9 1408.46 3021.82 1408.06 3020.62 1408.06C3018.6 1408.06 3017.08 1408.81 3016.05 1410.3C3015.04 1411.76 3014.53 1413.82 3014.53 1416.49C3014.53 1419.18 3015.03 1421.25 3016.01 1422.72C3016.99 1424.18 3018.45 1424.91 3020.37 1424.91C3023.27 1424.91 3025.08 1423.35 3025.8 1420.23ZM3036.83 1419.04H3032L3032.51 1404.54H3047.23V1408.5H3036.68L3036.47 1414.9C3037.52 1413.78 3039.11 1413.21 3041.22 1413.21C3043.24 1413.21 3044.89 1413.88 3046.19 1415.23C3047.48 1416.57 3048.13 1418.41 3048.13 1420.74C3048.13 1423.3 3047.36 1425.37 3045.83 1426.93C3044.32 1428.49 3042.34 1429.27 3039.89 1429.27C3037.7 1429.27 3035.86 1428.62 3034.34 1427.32C3032.83 1426 3032.03 1424.32 3031.93 1422.28H3036.61C3036.71 1423.27 3037.04 1424.05 3037.62 1424.62C3038.2 1425.18 3038.95 1425.45 3039.89 1425.45C3042.26 1425.45 3043.45 1423.95 3043.45 1420.95C3043.45 1418.31 3042.36 1416.99 3040.18 1416.99C3038.62 1416.99 3037.5 1417.68 3036.83 1419.04ZM3058.18 1419.58V1411.16L3053.29 1419.58H3058.18ZM3062.76 1428.44H3058.08V1423.22H3048.79V1419.15L3057.5 1404.54H3062.76V1419.58H3065.46V1423.22H3062.76V1428.44ZM3072.39 1417.71V1414.44C3074.24 1414.44 3075.51 1414.15 3076.21 1413.57C3076.9 1412.97 3077.25 1412.17 3077.25 1411.16C3077.25 1408.71 3076.22 1407.49 3074.15 1407.49C3073.22 1407.49 3072.45 1407.84 3071.85 1408.53C3071.27 1409.23 3070.99 1410.19 3070.99 1411.41H3066.63C3066.63 1409.13 3067.34 1407.28 3068.75 1405.87C3070.19 1404.45 3072.05 1403.74 3074.33 1403.74C3076.42 1403.74 3078.17 1404.36 3079.59 1405.58C3081.03 1406.8 3081.75 1408.36 3081.75 1410.26C3081.75 1411.39 3081.51 1412.43 3081.03 1413.39C3080.55 1414.35 3079.85 1415.1 3078.94 1415.62C3081.32 1416.61 3082.51 1418.58 3082.51 1421.53C3082.51 1423.9 3081.73 1425.79 3080.17 1427.18C3078.63 1428.57 3076.6 1429.27 3074.08 1429.27C3071.61 1429.27 3069.68 1428.57 3068.29 1427.18C3066.92 1425.79 3066.23 1423.87 3066.23 1421.42H3070.73C3070.73 1424.08 3071.92 1425.42 3074.3 1425.42C3075.31 1425.42 3076.12 1425.07 3076.75 1424.37C3077.39 1423.65 3077.72 1422.68 3077.72 1421.46C3077.72 1420.06 3077.32 1419.09 3076.53 1418.54C3075.74 1417.99 3074.36 1417.71 3072.39 1417.71Z"
        fill="black" />
    <path
        d="M2872.83 1420.23H2877.83C2877.33 1422.99 2876.16 1425.19 2874.34 1426.82C2872.54 1428.45 2870.27 1429.27 2867.54 1429.27C2864.27 1429.27 2861.61 1428.19 2859.54 1426.03C2857.5 1423.84 2856.48 1420.76 2856.48 1416.78C2856.48 1412.74 2857.48 1409.56 2859.47 1407.24C2861.46 1404.91 2864.18 1403.74 2867.61 1403.74C2870.51 1403.74 2872.88 1404.56 2874.7 1406.19C2876.55 1407.82 2877.59 1409.89 2877.83 1412.38H2872.83C2872.49 1411.06 2871.84 1410.02 2870.88 1409.25C2869.92 1408.46 2868.84 1408.06 2867.64 1408.06C2865.63 1408.06 2864.1 1408.81 2863.07 1410.3C2862.06 1411.76 2861.56 1413.82 2861.56 1416.49C2861.56 1419.18 2862.05 1421.25 2863.04 1422.72C2864.02 1424.18 2865.47 1424.91 2867.39 1424.91C2870.3 1424.91 2872.11 1423.35 2872.83 1420.23ZM2883.85 1419.04H2879.03L2879.53 1404.54H2894.26V1408.5H2883.71L2883.49 1414.9C2884.55 1413.78 2886.13 1413.21 2888.25 1413.21C2890.26 1413.21 2891.92 1413.88 2893.21 1415.23C2894.51 1416.57 2895.16 1418.41 2895.16 1420.74C2895.16 1423.3 2894.39 1425.37 2892.85 1426.93C2891.34 1428.49 2889.36 1429.27 2886.91 1429.27C2884.73 1429.27 2882.88 1428.62 2881.37 1427.32C2879.86 1426 2879.05 1424.32 2878.96 1422.28H2883.64C2883.73 1423.27 2884.07 1424.05 2884.65 1424.62C2885.22 1425.18 2885.98 1425.45 2886.91 1425.45C2889.29 1425.45 2890.48 1423.95 2890.48 1420.95C2890.48 1418.31 2889.39 1416.99 2887.2 1416.99C2885.64 1416.99 2884.53 1417.68 2883.85 1419.04ZM2905.21 1419.58V1411.16L2900.31 1419.58H2905.21ZM2909.78 1428.44H2905.1V1423.22H2895.81V1419.15L2904.53 1404.54H2909.78V1419.58H2912.48V1423.22H2909.78V1428.44ZM2929.21 1428.44H2912.94C2912.96 1426.04 2913.44 1423.98 2914.38 1422.25C2915.34 1420.52 2917.26 1418.62 2920.14 1416.56C2921.86 1415.31 2923.03 1414.3 2923.63 1413.54C2924.25 1412.77 2924.56 1411.88 2924.56 1410.87C2924.56 1408.78 2923.46 1407.74 2921.25 1407.74C2920.12 1407.74 2919.26 1408.06 2918.66 1408.71C2918.06 1409.36 2917.76 1410.45 2917.76 1411.99H2913.26C2913.26 1409.42 2913.94 1407.4 2915.31 1405.94C2916.68 1404.48 2918.59 1403.74 2921.04 1403.74C2923.53 1403.74 2925.5 1404.34 2926.94 1405.54C2928.4 1406.72 2929.14 1408.45 2929.14 1410.73C2929.14 1412.5 2928.64 1414.04 2927.66 1415.34C2926.68 1416.63 2924.86 1418.22 2922.22 1420.09C2921.29 1420.76 2920.51 1421.49 2919.88 1422.28C2919.28 1423.08 2918.96 1423.77 2918.91 1424.37H2929.21V1428.44Z"
        fill="black" />
    <path
        d="M2734.64 1420.23H2739.65C2739.14 1422.99 2737.98 1425.19 2736.16 1426.82C2734.36 1428.45 2732.09 1429.27 2729.35 1429.27C2726.09 1429.27 2723.42 1428.19 2721.36 1426.03C2719.32 1423.84 2718.3 1420.76 2718.3 1416.78C2718.3 1412.74 2719.3 1409.56 2721.29 1407.24C2723.28 1404.91 2725.99 1403.74 2729.42 1403.74C2732.33 1403.74 2734.69 1404.56 2736.52 1406.19C2738.36 1407.82 2739.41 1409.89 2739.65 1412.38H2734.64C2734.31 1411.06 2733.66 1410.02 2732.7 1409.25C2731.74 1408.46 2730.66 1408.06 2729.46 1408.06C2727.44 1408.06 2725.92 1408.81 2724.89 1410.3C2723.88 1411.76 2723.38 1413.82 2723.38 1416.49C2723.38 1419.18 2723.87 1421.25 2724.85 1422.72C2725.84 1424.18 2727.29 1424.91 2729.21 1424.91C2732.11 1424.91 2733.92 1423.35 2734.64 1420.23ZM2745.67 1419.04H2740.85L2741.35 1404.54H2756.07V1408.5H2745.53L2745.31 1414.9C2746.37 1413.78 2747.95 1413.21 2750.06 1413.21C2752.08 1413.21 2753.73 1413.88 2755.03 1415.23C2756.33 1416.57 2756.97 1418.41 2756.97 1420.74C2756.97 1423.3 2756.21 1425.37 2754.67 1426.93C2753.16 1428.49 2751.18 1429.27 2748.73 1429.27C2746.55 1429.27 2744.7 1428.62 2743.19 1427.32C2741.67 1426 2740.87 1424.32 2740.77 1422.28H2745.45C2745.55 1423.27 2745.89 1424.05 2746.46 1424.62C2747.04 1425.18 2747.79 1425.45 2748.73 1425.45C2751.11 1425.45 2752.29 1423.95 2752.29 1420.95C2752.29 1418.31 2751.2 1416.99 2749.02 1416.99C2747.46 1416.99 2746.34 1417.68 2745.67 1419.04ZM2767.03 1419.58V1411.16L2762.13 1419.58H2767.03ZM2771.6 1428.44H2766.92V1423.22H2757.63V1419.15L2766.34 1404.54H2771.6V1419.58H2774.3V1423.22H2771.6V1428.44ZM2782.5 1428.44H2777.82V1411.92H2772.92V1408.68C2774.92 1408.68 2776.33 1408.35 2777.17 1407.7C2778.04 1407.03 2778.54 1405.98 2778.68 1404.54H2782.5V1428.44Z"
        fill="black" />
    <path
        d="M2340.91 1420.23H2345.91C2345.41 1422.99 2344.24 1425.19 2342.42 1426.82C2340.62 1428.45 2338.35 1429.27 2335.61 1429.27C2332.35 1429.27 2329.69 1428.19 2327.62 1426.03C2325.58 1423.84 2324.56 1420.76 2324.56 1416.78C2324.56 1412.74 2325.56 1409.56 2327.55 1407.24C2329.54 1404.91 2332.25 1403.74 2335.69 1403.74C2338.59 1403.74 2340.95 1404.56 2342.78 1406.19C2344.63 1407.82 2345.67 1409.89 2345.91 1412.38H2340.91C2340.57 1411.06 2339.92 1410.02 2338.96 1409.25C2338 1408.46 2336.92 1408.06 2335.72 1408.06C2333.71 1408.06 2332.18 1408.81 2331.15 1410.3C2330.14 1411.76 2329.64 1413.82 2329.64 1416.49C2329.64 1419.18 2330.13 1421.25 2331.11 1422.72C2332.1 1424.18 2333.55 1424.91 2335.47 1424.91C2338.37 1424.91 2340.19 1423.35 2340.91 1420.23ZM2351.93 1419.04H2347.11L2347.61 1404.54H2362.34V1408.5H2351.79L2351.57 1414.9C2352.63 1413.78 2354.21 1413.21 2356.32 1413.21C2358.34 1413.21 2360 1413.88 2361.29 1415.23C2362.59 1416.57 2363.24 1418.41 2363.24 1420.74C2363.24 1423.3 2362.47 1425.37 2360.93 1426.93C2359.42 1428.49 2357.44 1429.27 2354.99 1429.27C2352.81 1429.27 2350.96 1428.62 2349.45 1427.32C2347.94 1426 2347.13 1424.32 2347.04 1422.28H2351.72C2351.81 1423.27 2352.15 1424.05 2352.72 1424.62C2353.3 1425.18 2354.06 1425.45 2354.99 1425.45C2357.37 1425.45 2358.56 1423.95 2358.56 1420.95C2358.56 1418.31 2357.46 1416.99 2355.28 1416.99C2353.72 1416.99 2352.6 1417.68 2351.93 1419.04ZM2380.17 1428.44H2363.89C2363.92 1426.04 2364.4 1423.98 2365.33 1422.25C2366.29 1420.52 2368.21 1418.62 2371.09 1416.56C2372.82 1415.31 2373.99 1414.3 2374.59 1413.54C2375.21 1412.77 2375.52 1411.88 2375.52 1410.87C2375.52 1408.78 2374.42 1407.74 2372.21 1407.74C2371.08 1407.74 2370.22 1408.06 2369.62 1408.71C2369.02 1409.36 2368.72 1410.45 2368.72 1411.99H2364.22C2364.22 1409.42 2364.9 1407.4 2366.27 1405.94C2367.64 1404.48 2369.55 1403.74 2371.99 1403.74C2374.49 1403.74 2376.46 1404.34 2377.9 1405.54C2379.36 1406.72 2380.09 1408.45 2380.09 1410.73C2380.09 1412.5 2379.6 1414.04 2378.62 1415.34C2377.63 1416.63 2375.82 1418.22 2373.18 1420.09C2372.25 1420.76 2371.47 1421.49 2370.84 1422.28C2370.24 1423.08 2369.92 1423.77 2369.87 1424.37H2380.17V1428.44ZM2389.05 1416.52C2390.11 1416.52 2390.96 1416.12 2391.61 1415.3C2392.28 1414.48 2392.62 1413.43 2392.62 1412.13C2392.62 1410.74 2392.29 1409.62 2391.64 1408.78C2391 1407.94 2390.11 1407.52 2388.98 1407.52C2387.92 1407.52 2387.1 1407.96 2386.5 1408.82C2385.92 1409.66 2385.63 1410.74 2385.63 1412.06C2385.63 1413.43 2385.94 1414.52 2386.57 1415.34C2387.19 1416.13 2388.02 1416.52 2389.05 1416.52ZM2381.46 1423.29H2386.1C2386.22 1424.78 2387.06 1425.52 2388.62 1425.52C2389.89 1425.52 2390.85 1424.91 2391.5 1423.69C2392.15 1422.46 2392.54 1420.56 2392.69 1417.96C2391.42 1419.45 2389.78 1420.2 2387.79 1420.2C2385.85 1420.2 2384.23 1419.49 2382.93 1418.07C2381.66 1416.63 2381.02 1414.7 2381.02 1412.28C2381.02 1409.8 2381.76 1407.76 2383.22 1406.16C2384.68 1404.55 2386.58 1403.74 2388.91 1403.74C2394.5 1403.74 2397.3 1407.74 2397.3 1415.73C2397.3 1420.46 2396.56 1423.9 2395.1 1426.06C2393.66 1428.2 2391.43 1429.27 2388.4 1429.27C2386.46 1429.27 2384.88 1428.75 2383.65 1427.72C2382.43 1426.69 2381.7 1425.21 2381.46 1423.29Z"
        fill="black" />
    <path
        d="M2202.27 1420.23H2207.28C2206.77 1422.99 2205.61 1425.19 2203.79 1426.82C2201.99 1428.45 2199.72 1429.27 2196.98 1429.27C2193.72 1429.27 2191.05 1428.19 2188.99 1426.03C2186.95 1423.85 2185.93 1420.76 2185.93 1416.78C2185.93 1412.75 2186.93 1409.57 2188.92 1407.24C2190.91 1404.91 2193.62 1403.75 2197.05 1403.75C2199.96 1403.75 2202.32 1404.56 2204.15 1406.19C2205.99 1407.83 2207.04 1409.89 2207.28 1412.39H2202.27C2201.94 1411.07 2201.29 1410.02 2200.33 1409.25C2199.37 1408.46 2198.29 1408.07 2197.09 1408.07C2195.07 1408.07 2193.55 1408.81 2192.52 1410.3C2191.51 1411.76 2191.01 1413.83 2191.01 1416.49C2191.01 1419.18 2191.5 1421.25 2192.48 1422.72C2193.47 1424.18 2194.92 1424.91 2196.84 1424.91C2199.74 1424.91 2201.55 1423.35 2202.27 1420.23ZM2213.3 1419.05H2208.48L2208.98 1404.54H2223.7V1408.5H2213.16L2212.94 1414.91C2214 1413.78 2215.58 1413.21 2217.69 1413.21C2219.71 1413.21 2221.36 1413.89 2222.66 1415.23C2223.96 1416.57 2224.6 1418.41 2224.6 1420.74C2224.6 1423.31 2223.84 1425.37 2222.3 1426.93C2220.79 1428.49 2218.81 1429.27 2216.36 1429.27C2214.18 1429.27 2212.33 1428.62 2210.82 1427.33C2209.3 1426.01 2208.5 1424.33 2208.4 1422.29H2213.08C2213.18 1423.27 2213.52 1424.05 2214.09 1424.63C2214.67 1425.18 2215.42 1425.45 2216.36 1425.45C2218.74 1425.45 2219.92 1423.95 2219.92 1420.95C2219.92 1418.31 2218.83 1416.99 2216.65 1416.99C2215.09 1416.99 2213.97 1417.68 2213.3 1419.05ZM2241.53 1428.44H2225.26C2225.28 1426.04 2225.76 1423.98 2226.7 1422.25C2227.66 1420.52 2229.58 1418.63 2232.46 1416.56C2234.19 1415.31 2235.35 1414.31 2235.95 1413.54C2236.58 1412.77 2236.89 1411.88 2236.89 1410.87C2236.89 1408.79 2235.78 1407.74 2233.58 1407.74C2232.45 1407.74 2231.58 1408.07 2230.98 1408.71C2230.38 1409.36 2230.08 1410.45 2230.08 1411.99H2225.58C2225.58 1409.42 2226.27 1407.41 2227.64 1405.94C2229 1404.48 2230.91 1403.75 2233.36 1403.75C2235.86 1403.75 2237.82 1404.35 2239.26 1405.55C2240.73 1406.72 2241.46 1408.45 2241.46 1410.73C2241.46 1412.51 2240.97 1414.04 2239.98 1415.34C2239 1416.63 2237.19 1418.22 2234.55 1420.09C2233.61 1420.76 2232.83 1421.49 2232.21 1422.29C2231.61 1423.08 2231.28 1423.77 2231.24 1424.37H2241.53V1428.44ZM2250.42 1425.42C2252.73 1425.42 2253.88 1424.1 2253.88 1421.46C2253.88 1420.31 2253.59 1419.39 2253.02 1418.72C2252.44 1418.05 2251.58 1417.71 2250.42 1417.71C2248.17 1417.71 2247.04 1418.96 2247.04 1421.46C2247.04 1424.1 2248.17 1425.42 2250.42 1425.42ZM2248.26 1413.14C2248.77 1413.72 2249.49 1414.01 2250.42 1414.01C2251.36 1414.01 2252.08 1413.72 2252.58 1413.14C2253.09 1412.54 2253.34 1411.76 2253.34 1410.8C2253.34 1409.79 2253.09 1409 2252.58 1408.43C2252.1 1407.85 2251.38 1407.56 2250.42 1407.56C2249.46 1407.56 2248.73 1407.85 2248.23 1408.43C2247.75 1409 2247.51 1409.79 2247.51 1410.8C2247.51 1411.76 2247.76 1412.54 2248.26 1413.14ZM2255.14 1415.37C2256.22 1415.85 2257.08 1416.66 2257.73 1417.79C2258.38 1418.89 2258.7 1420.11 2258.7 1421.46C2258.7 1423.81 2258 1425.71 2256.58 1427.15C2255.19 1428.56 2253.15 1429.27 2250.46 1429.27C2247.82 1429.27 2245.77 1428.56 2244.3 1427.15C2242.86 1425.71 2242.14 1423.88 2242.14 1421.67C2242.14 1418.82 2243.39 1416.79 2245.89 1415.59C2244.95 1415.11 2244.27 1414.4 2243.84 1413.47C2243.4 1412.51 2243.19 1411.46 2243.19 1410.33C2243.19 1408.44 2243.87 1406.87 2245.24 1405.62C2246.63 1404.37 2248.37 1403.75 2250.46 1403.75C2252.74 1403.75 2254.5 1404.35 2255.75 1405.55C2257 1406.75 2257.62 1408.29 2257.62 1410.19C2257.62 1412.81 2256.8 1414.53 2255.14 1415.37Z"
        fill="black" />
    <path
        d="M2071.35 1420.23H2076.36C2075.85 1422.99 2074.69 1425.19 2072.87 1426.82C2071.07 1428.45 2068.8 1429.27 2066.06 1429.27C2062.8 1429.27 2060.13 1428.19 2058.07 1426.03C2056.03 1423.84 2055.01 1420.76 2055.01 1416.78C2055.01 1412.74 2056.01 1409.56 2058 1407.24C2059.99 1404.91 2062.7 1403.74 2066.13 1403.74C2069.04 1403.74 2071.4 1404.56 2073.23 1406.19C2075.07 1407.82 2076.12 1409.89 2076.36 1412.38H2071.35C2071.02 1411.06 2070.37 1410.02 2069.41 1409.25C2068.45 1408.46 2067.37 1408.06 2066.17 1408.06C2064.15 1408.06 2062.63 1408.81 2061.6 1410.3C2060.59 1411.76 2060.09 1413.82 2060.09 1416.49C2060.09 1419.18 2060.58 1421.25 2061.56 1422.72C2062.55 1424.18 2064 1424.91 2065.92 1424.91C2068.82 1424.91 2070.63 1423.35 2071.35 1420.23ZM2082.38 1419.04H2077.56L2078.06 1404.54H2092.78V1408.5H2082.24L2082.02 1414.9C2083.08 1413.78 2084.66 1413.21 2086.77 1413.21C2088.79 1413.21 2090.44 1413.88 2091.74 1415.23C2093.04 1416.57 2093.68 1418.41 2093.68 1420.74C2093.68 1423.3 2092.92 1425.37 2091.38 1426.93C2089.87 1428.49 2087.89 1429.27 2085.44 1429.27C2083.26 1429.27 2081.41 1428.62 2079.9 1427.32C2078.38 1426 2077.58 1424.32 2077.48 1422.28H2082.16C2082.26 1423.27 2082.6 1424.05 2083.17 1424.62C2083.75 1425.18 2084.5 1425.45 2085.44 1425.45C2087.82 1425.45 2089 1423.95 2089 1420.95C2089 1418.31 2087.91 1416.99 2085.73 1416.99C2084.17 1416.99 2083.05 1417.68 2082.38 1419.04ZM2110.61 1428.44H2094.34C2094.37 1426.04 2094.85 1423.98 2095.78 1422.25C2096.74 1420.52 2098.66 1418.62 2101.54 1416.56C2103.27 1415.31 2104.43 1414.3 2105.03 1413.54C2105.66 1412.77 2105.97 1411.88 2105.97 1410.87C2105.97 1408.78 2104.87 1407.74 2102.66 1407.74C2101.53 1407.74 2100.67 1408.06 2100.07 1408.71C2099.47 1409.36 2099.17 1410.45 2099.17 1411.99H2094.67C2094.67 1409.42 2095.35 1407.4 2096.72 1405.94C2098.09 1404.48 2099.99 1403.74 2102.44 1403.74C2104.94 1403.74 2106.91 1404.34 2108.35 1405.54C2109.81 1406.72 2110.54 1408.45 2110.54 1410.73C2110.54 1412.5 2110.05 1414.04 2109.07 1415.34C2108.08 1416.63 2106.27 1418.22 2103.63 1420.09C2102.69 1420.76 2101.91 1421.49 2101.29 1422.28C2100.69 1423.08 2100.37 1423.77 2100.32 1424.37H2110.61V1428.44ZM2119.18 1428.44H2114.35C2114.62 1424.94 2115.46 1421.48 2116.87 1418.07C2118.31 1414.64 2120.27 1411.51 2122.74 1408.68H2111.08V1404.54H2127.82V1408.14C2125.18 1411.06 2123.12 1414.28 2121.66 1417.78C2120.2 1421.26 2119.37 1424.82 2119.18 1428.44Z"
        fill="black" />
    <path
        d="M1913.06 1420.23H1918.07C1917.56 1422.99 1916.4 1425.19 1914.58 1426.82C1912.78 1428.45 1910.51 1429.27 1907.77 1429.27C1904.51 1429.27 1901.84 1428.19 1899.78 1426.03C1897.74 1423.85 1896.72 1420.76 1896.72 1416.78C1896.72 1412.75 1897.72 1409.57 1899.71 1407.24C1901.7 1404.91 1904.41 1403.75 1907.84 1403.75C1910.75 1403.75 1913.11 1404.56 1914.94 1406.19C1916.78 1407.83 1917.83 1409.89 1918.07 1412.39H1913.06C1912.73 1411.07 1912.08 1410.02 1911.12 1409.25C1910.16 1408.46 1909.08 1408.07 1907.88 1408.07C1905.86 1408.07 1904.34 1408.81 1903.31 1410.3C1902.3 1411.76 1901.8 1413.83 1901.8 1416.49C1901.8 1419.18 1902.29 1421.25 1903.27 1422.72C1904.26 1424.18 1905.71 1424.91 1907.63 1424.91C1910.53 1424.91 1912.34 1423.35 1913.06 1420.23ZM1924.09 1419.05H1919.27L1919.77 1404.54H1934.49V1408.5H1923.95L1923.73 1414.91C1924.79 1413.78 1926.37 1413.21 1928.48 1413.21C1930.5 1413.21 1932.15 1413.89 1933.45 1415.23C1934.75 1416.57 1935.39 1418.41 1935.39 1420.74C1935.39 1423.31 1934.63 1425.37 1933.09 1426.93C1931.58 1428.49 1929.6 1429.27 1927.15 1429.27C1924.97 1429.27 1923.12 1428.62 1921.61 1427.33C1920.09 1426.01 1919.29 1424.33 1919.19 1422.29H1923.87C1923.97 1423.27 1924.31 1424.05 1924.88 1424.63C1925.46 1425.18 1926.21 1425.45 1927.15 1425.45C1929.53 1425.45 1930.71 1423.95 1930.71 1420.95C1930.71 1418.31 1929.62 1416.99 1927.44 1416.99C1925.88 1416.99 1924.76 1417.68 1924.09 1419.05ZM1952.32 1428.44H1936.05C1936.08 1426.04 1936.56 1423.98 1937.49 1422.25C1938.45 1420.52 1940.37 1418.63 1943.25 1416.56C1944.98 1415.31 1946.14 1414.31 1946.74 1413.54C1947.37 1412.77 1947.68 1411.88 1947.68 1410.87C1947.68 1408.79 1946.58 1407.74 1944.37 1407.74C1943.24 1407.74 1942.38 1408.07 1941.78 1408.71C1941.18 1409.36 1940.88 1410.45 1940.88 1411.99H1936.38C1936.38 1409.42 1937.06 1407.41 1938.43 1405.94C1939.8 1404.48 1941.7 1403.75 1944.15 1403.75C1946.65 1403.75 1948.62 1404.35 1950.06 1405.55C1951.52 1406.72 1952.25 1408.45 1952.25 1410.73C1952.25 1412.51 1951.76 1414.04 1950.78 1415.34C1949.79 1416.63 1947.98 1418.22 1945.34 1420.09C1944.4 1420.76 1943.62 1421.49 1943 1422.29C1942.4 1423.08 1942.08 1423.77 1942.03 1424.37H1952.32V1428.44ZM1961.5 1425.49C1962.55 1425.49 1963.37 1425.07 1963.95 1424.23C1964.55 1423.37 1964.85 1422.27 1964.85 1420.95C1964.85 1419.59 1964.53 1418.51 1963.91 1417.71C1963.29 1416.9 1962.46 1416.49 1961.43 1416.49C1960.37 1416.49 1959.51 1416.9 1958.83 1417.71C1958.19 1418.53 1957.86 1419.59 1957.86 1420.88C1957.86 1422.27 1958.19 1423.39 1958.83 1424.23C1959.48 1425.07 1960.37 1425.49 1961.5 1425.49ZM1969.02 1409.72H1964.38C1964.26 1408.23 1963.42 1407.49 1961.86 1407.49C1960.59 1407.49 1959.63 1408.1 1958.98 1409.33C1958.33 1410.55 1957.93 1412.46 1957.79 1415.05C1959.06 1413.56 1960.69 1412.82 1962.69 1412.82C1964.63 1412.82 1966.24 1413.54 1967.51 1414.98C1968.81 1416.39 1969.45 1418.31 1969.45 1420.74C1969.45 1423.21 1968.72 1425.25 1967.26 1426.86C1965.79 1428.47 1963.9 1429.27 1961.57 1429.27C1955.98 1429.27 1953.18 1425.27 1953.18 1417.28C1953.18 1412.55 1953.9 1409.12 1955.34 1406.99C1956.81 1404.83 1959.05 1403.75 1962.07 1403.75C1964.02 1403.75 1965.6 1404.26 1966.83 1405.29C1968.05 1406.33 1968.78 1407.8 1969.02 1409.72Z"
        fill="black" />
    <path
        d="M1781.9 1420.23H1786.9C1786.4 1422.99 1785.24 1425.19 1783.41 1426.82C1781.61 1428.45 1779.34 1429.27 1776.61 1429.27C1773.34 1429.27 1770.68 1428.19 1768.62 1426.03C1766.58 1423.85 1765.56 1420.76 1765.56 1416.78C1765.56 1412.75 1766.55 1409.57 1768.54 1407.24C1770.54 1404.91 1773.25 1403.75 1776.68 1403.75C1779.58 1403.75 1781.95 1404.56 1783.77 1406.19C1785.62 1407.83 1786.66 1409.89 1786.9 1412.39H1781.9C1781.56 1411.07 1780.92 1410.02 1779.96 1409.25C1779 1408.46 1777.92 1408.07 1776.72 1408.07C1774.7 1408.07 1773.18 1408.81 1772.14 1410.3C1771.14 1411.76 1770.63 1413.83 1770.63 1416.49C1770.63 1419.18 1771.12 1421.25 1772.11 1422.72C1773.09 1424.18 1774.54 1424.91 1776.46 1424.91C1779.37 1424.91 1781.18 1423.35 1781.9 1420.23ZM1792.93 1419.05H1788.1L1788.61 1404.54H1803.33V1408.5H1792.78L1792.57 1414.91C1793.62 1413.78 1795.21 1413.21 1797.32 1413.21C1799.33 1413.21 1800.99 1413.89 1802.29 1415.23C1803.58 1416.57 1804.23 1418.41 1804.23 1420.74C1804.23 1423.31 1803.46 1425.37 1801.93 1426.93C1800.41 1428.49 1798.43 1429.27 1795.99 1429.27C1793.8 1429.27 1791.95 1428.62 1790.44 1427.33C1788.93 1426.01 1788.13 1424.33 1788.03 1422.29H1792.71C1792.81 1423.27 1793.14 1424.05 1793.72 1424.63C1794.29 1425.18 1795.05 1425.45 1795.99 1425.45C1798.36 1425.45 1799.55 1423.95 1799.55 1420.95C1799.55 1418.31 1798.46 1416.99 1796.27 1416.99C1794.71 1416.99 1793.6 1417.68 1792.93 1419.05ZM1821.16 1428.44H1804.89C1804.91 1426.04 1805.39 1423.98 1806.33 1422.25C1807.29 1420.52 1809.21 1418.63 1812.09 1416.56C1813.81 1415.31 1814.98 1414.31 1815.58 1413.54C1816.2 1412.77 1816.51 1411.88 1816.51 1410.87C1816.51 1408.79 1815.41 1407.74 1813.2 1407.74C1812.07 1407.74 1811.21 1408.07 1810.61 1408.71C1810.01 1409.36 1809.71 1410.45 1809.71 1411.99H1805.21C1805.21 1409.42 1805.89 1407.41 1807.26 1405.94C1808.63 1404.48 1810.54 1403.75 1812.99 1403.75C1815.48 1403.75 1817.45 1404.35 1818.89 1405.55C1820.35 1406.72 1821.09 1408.45 1821.09 1410.73C1821.09 1412.51 1820.59 1414.04 1819.61 1415.34C1818.63 1416.63 1816.81 1418.22 1814.17 1420.09C1813.24 1420.76 1812.46 1421.49 1811.83 1422.29C1811.23 1423.08 1810.91 1423.77 1810.86 1424.37H1821.16V1428.44ZM1827.31 1419.05H1822.49L1822.99 1404.54H1837.71V1408.5H1827.17L1826.95 1414.91C1828.01 1413.78 1829.59 1413.21 1831.7 1413.21C1833.72 1413.21 1835.37 1413.89 1836.67 1415.23C1837.97 1416.57 1838.61 1418.41 1838.61 1420.74C1838.61 1423.31 1837.85 1425.37 1836.31 1426.93C1834.8 1428.49 1832.82 1429.27 1830.37 1429.27C1828.19 1429.27 1826.34 1428.62 1824.83 1427.33C1823.31 1426.01 1822.51 1424.33 1822.41 1422.29H1827.09C1827.19 1423.27 1827.53 1424.05 1828.1 1424.63C1828.68 1425.18 1829.43 1425.45 1830.37 1425.45C1832.75 1425.45 1833.93 1423.95 1833.93 1420.95C1833.93 1418.31 1832.84 1416.99 1830.66 1416.99C1829.1 1416.99 1827.98 1417.68 1827.31 1419.05Z"
        fill="black" />
    <path
        d="M1628.34 1420.23H1633.35C1632.84 1422.99 1631.68 1425.19 1629.86 1426.82C1628.06 1428.45 1625.79 1429.27 1623.05 1429.27C1619.79 1429.27 1617.12 1428.19 1615.06 1426.03C1613.02 1423.85 1612 1420.76 1612 1416.78C1612 1412.75 1613 1409.57 1614.99 1407.24C1616.98 1404.91 1619.69 1403.75 1623.12 1403.75C1626.03 1403.75 1628.39 1404.56 1630.22 1406.19C1632.06 1407.83 1633.11 1409.89 1633.35 1412.39H1628.34C1628.01 1411.07 1627.36 1410.02 1626.4 1409.25C1625.44 1408.46 1624.36 1408.07 1623.16 1408.07C1621.14 1408.07 1619.62 1408.81 1618.59 1410.3C1617.58 1411.76 1617.08 1413.83 1617.08 1416.49C1617.08 1419.18 1617.57 1421.25 1618.55 1422.72C1619.54 1424.18 1620.99 1424.91 1622.91 1424.91C1625.81 1424.91 1627.62 1423.35 1628.34 1420.23ZM1639.37 1419.05H1634.55L1635.05 1404.54H1649.77V1408.5H1639.23L1639.01 1414.91C1640.07 1413.78 1641.65 1413.21 1643.76 1413.21C1645.78 1413.21 1647.43 1413.89 1648.73 1415.23C1650.03 1416.57 1650.67 1418.41 1650.67 1420.74C1650.67 1423.31 1649.91 1425.37 1648.37 1426.93C1646.86 1428.49 1644.88 1429.27 1642.43 1429.27C1640.25 1429.27 1638.4 1428.62 1636.89 1427.33C1635.37 1426.01 1634.57 1424.33 1634.47 1422.29H1639.15C1639.25 1423.27 1639.59 1424.05 1640.16 1424.63C1640.74 1425.18 1641.49 1425.45 1642.43 1425.45C1644.81 1425.45 1645.99 1423.95 1645.99 1420.95C1645.99 1418.31 1644.9 1416.99 1642.72 1416.99C1641.16 1416.99 1640.04 1417.68 1639.37 1419.05ZM1667.6 1428.44H1651.33C1651.35 1426.04 1651.83 1423.98 1652.77 1422.25C1653.73 1420.52 1655.65 1418.63 1658.53 1416.56C1660.26 1415.31 1661.42 1414.31 1662.02 1413.54C1662.65 1412.77 1662.96 1411.88 1662.96 1410.87C1662.96 1408.79 1661.85 1407.74 1659.65 1407.74C1658.52 1407.74 1657.65 1408.07 1657.05 1408.71C1656.45 1409.36 1656.15 1410.45 1656.15 1411.99H1651.65C1651.65 1409.42 1652.34 1407.41 1653.71 1405.94C1655.07 1404.48 1656.98 1403.75 1659.43 1403.75C1661.93 1403.75 1663.89 1404.35 1665.33 1405.55C1666.8 1406.72 1667.53 1408.45 1667.53 1410.73C1667.53 1412.51 1667.04 1414.04 1666.05 1415.34C1665.07 1416.63 1663.26 1418.22 1660.62 1420.09C1659.68 1420.76 1658.9 1421.49 1658.28 1422.29C1657.68 1423.08 1657.35 1423.77 1657.31 1424.37H1667.6V1428.44ZM1677.46 1419.59V1411.16L1672.56 1419.59H1677.46ZM1682.03 1428.44H1677.35V1423.22H1668.06V1419.15L1676.78 1404.54H1682.03V1419.59H1684.73V1423.22H1682.03V1428.44Z"
        fill="black" />
    <path
        d="M1486.59 1420.23H1491.6C1491.09 1422.99 1489.93 1425.19 1488.1 1426.82C1486.3 1428.45 1484.04 1429.27 1481.3 1429.27C1478.04 1429.27 1475.37 1428.19 1473.31 1426.03C1471.27 1423.85 1470.25 1420.76 1470.25 1416.78C1470.25 1412.75 1471.24 1409.57 1473.24 1407.24C1475.23 1404.91 1477.94 1403.75 1481.37 1403.75C1484.28 1403.75 1486.64 1404.56 1488.46 1406.19C1490.31 1407.83 1491.36 1409.89 1491.6 1412.39H1486.59C1486.26 1411.07 1485.61 1410.02 1484.65 1409.25C1483.69 1408.46 1482.61 1408.07 1481.41 1408.07C1479.39 1408.07 1477.87 1408.81 1476.84 1410.3C1475.83 1411.76 1475.32 1413.83 1475.32 1416.49C1475.32 1419.18 1475.82 1421.25 1476.8 1422.72C1477.78 1424.18 1479.24 1424.91 1481.16 1424.91C1484.06 1424.91 1485.87 1423.35 1486.59 1420.23ZM1497.62 1419.05H1492.79L1493.3 1404.54H1508.02V1408.5H1497.47L1497.26 1414.91C1498.31 1413.78 1499.9 1413.21 1502.01 1413.21C1504.03 1413.21 1505.68 1413.89 1506.98 1415.23C1508.27 1416.57 1508.92 1418.41 1508.92 1420.74C1508.92 1423.31 1508.15 1425.37 1506.62 1426.93C1505.11 1428.49 1503.13 1429.27 1500.68 1429.27C1498.49 1429.27 1496.65 1428.62 1495.13 1427.33C1493.62 1426.01 1492.82 1424.33 1492.72 1422.29H1497.4C1497.5 1423.27 1497.83 1424.05 1498.41 1424.63C1498.99 1425.18 1499.74 1425.45 1500.68 1425.45C1503.05 1425.45 1504.24 1423.95 1504.24 1420.95C1504.24 1418.31 1503.15 1416.99 1500.97 1416.99C1499.41 1416.99 1498.29 1417.68 1497.62 1419.05ZM1525.85 1428.44H1509.58C1509.6 1426.04 1510.08 1423.98 1511.02 1422.25C1511.98 1420.52 1513.9 1418.63 1516.78 1416.56C1518.51 1415.31 1519.67 1414.31 1520.27 1413.54C1520.9 1412.77 1521.21 1411.88 1521.21 1410.87C1521.21 1408.79 1520.1 1407.74 1517.9 1407.74C1516.77 1407.74 1515.9 1408.07 1515.3 1408.71C1514.7 1409.36 1514.4 1410.45 1514.4 1411.99H1509.9C1509.9 1409.42 1510.59 1407.41 1511.96 1405.94C1513.32 1404.48 1515.23 1403.75 1517.68 1403.75C1520.18 1403.75 1522.14 1404.35 1523.58 1405.55C1525.05 1406.72 1525.78 1408.45 1525.78 1410.73C1525.78 1412.51 1525.29 1414.04 1524.3 1415.34C1523.32 1416.63 1521.51 1418.22 1518.87 1420.09C1517.93 1420.76 1517.15 1421.49 1516.53 1422.29C1515.93 1423.08 1515.6 1423.77 1515.56 1424.37H1525.85V1428.44ZM1532.79 1417.71V1414.44C1534.64 1414.44 1535.91 1414.15 1536.61 1413.57C1537.31 1412.97 1537.65 1412.17 1537.65 1411.16C1537.65 1408.71 1536.62 1407.49 1534.56 1407.49C1533.62 1407.49 1532.85 1407.84 1532.25 1408.53C1531.68 1409.23 1531.39 1410.19 1531.39 1411.41H1527.03C1527.03 1409.13 1527.74 1407.29 1529.16 1405.87C1530.6 1404.45 1532.46 1403.75 1534.74 1403.75C1536.83 1403.75 1538.58 1404.36 1539.99 1405.58C1541.43 1406.81 1542.15 1408.37 1542.15 1410.26C1542.15 1411.39 1541.91 1412.43 1541.43 1413.39C1540.95 1414.35 1540.26 1415.1 1539.35 1415.63C1541.72 1416.61 1542.91 1418.58 1542.91 1421.53C1542.91 1423.91 1542.13 1425.79 1540.57 1427.18C1539.03 1428.57 1537.01 1429.27 1534.49 1429.27C1532.01 1429.27 1530.08 1428.57 1528.69 1427.18C1527.32 1425.79 1526.64 1423.87 1526.64 1421.42H1531.14C1531.14 1424.09 1532.33 1425.42 1534.7 1425.42C1535.71 1425.42 1536.53 1425.07 1537.15 1424.37C1537.8 1423.65 1538.12 1422.68 1538.12 1421.46C1538.12 1420.07 1537.73 1419.09 1536.93 1418.54C1536.14 1417.99 1534.76 1417.71 1532.79 1417.71Z"
        fill="black" />
    <path
        d="M1349.31 1420.23H1354.31C1353.81 1422.99 1352.64 1425.19 1350.82 1426.82C1349.02 1428.45 1346.75 1429.27 1344.02 1429.27C1340.75 1429.27 1338.09 1428.19 1336.02 1426.03C1333.98 1423.85 1332.96 1420.76 1332.96 1416.78C1332.96 1412.75 1333.96 1409.57 1335.95 1407.24C1337.94 1404.91 1340.66 1403.75 1344.09 1403.75C1346.99 1403.75 1349.36 1404.56 1351.18 1406.19C1353.03 1407.83 1354.07 1409.89 1354.31 1412.39H1349.31C1348.97 1411.07 1348.32 1410.02 1347.36 1409.25C1346.4 1408.46 1345.32 1408.07 1344.12 1408.07C1342.11 1408.07 1340.58 1408.81 1339.55 1410.3C1338.54 1411.76 1338.04 1413.83 1338.04 1416.49C1338.04 1419.18 1338.53 1421.25 1339.52 1422.72C1340.5 1424.18 1341.95 1424.91 1343.87 1424.91C1346.78 1424.91 1348.59 1423.35 1349.31 1420.23ZM1360.33 1419.05H1355.51L1356.01 1404.54H1370.74V1408.5H1360.19L1359.97 1414.91C1361.03 1413.78 1362.61 1413.21 1364.73 1413.21C1366.74 1413.21 1368.4 1413.89 1369.69 1415.23C1370.99 1416.57 1371.64 1418.41 1371.64 1420.74C1371.64 1423.31 1370.87 1425.37 1369.33 1426.93C1367.82 1428.49 1365.84 1429.27 1363.39 1429.27C1361.21 1429.27 1359.36 1428.62 1357.85 1427.33C1356.34 1426.01 1355.53 1424.33 1355.44 1422.29H1360.12C1360.21 1423.27 1360.55 1424.05 1361.13 1424.63C1361.7 1425.18 1362.46 1425.45 1363.39 1425.45C1365.77 1425.45 1366.96 1423.95 1366.96 1420.95C1366.96 1418.31 1365.87 1416.99 1363.68 1416.99C1362.12 1416.99 1361.01 1417.68 1360.33 1419.05ZM1388.57 1428.44H1372.3C1372.32 1426.04 1372.8 1423.98 1373.74 1422.25C1374.7 1420.52 1376.62 1418.63 1379.5 1416.56C1381.22 1415.31 1382.39 1414.31 1382.99 1413.54C1383.61 1412.77 1383.92 1411.88 1383.92 1410.87C1383.92 1408.79 1382.82 1407.74 1380.61 1407.74C1379.48 1407.74 1378.62 1408.07 1378.02 1408.71C1377.42 1409.36 1377.12 1410.45 1377.12 1411.99H1372.62C1372.62 1409.42 1373.3 1407.41 1374.67 1405.94C1376.04 1404.48 1377.95 1403.75 1380.4 1403.75C1382.89 1403.75 1384.86 1404.35 1386.3 1405.55C1387.76 1406.72 1388.5 1408.45 1388.5 1410.73C1388.5 1412.51 1388 1414.04 1387.02 1415.34C1386.04 1416.63 1384.22 1418.22 1381.58 1420.09C1380.65 1420.76 1379.87 1421.49 1379.24 1422.29C1378.64 1423.08 1378.32 1423.77 1378.27 1424.37H1388.57V1428.44ZM1405.69 1428.44H1389.42C1389.44 1426.04 1389.92 1423.98 1390.86 1422.25C1391.82 1420.52 1393.74 1418.63 1396.62 1416.56C1398.34 1415.31 1399.51 1414.31 1400.11 1413.54C1400.73 1412.77 1401.04 1411.88 1401.04 1410.87C1401.04 1408.79 1399.94 1407.74 1397.73 1407.74C1396.6 1407.74 1395.74 1408.07 1395.14 1408.71C1394.54 1409.36 1394.24 1410.45 1394.24 1411.99H1389.74C1389.74 1409.42 1390.42 1407.41 1391.79 1405.94C1393.16 1404.48 1395.07 1403.75 1397.52 1403.75C1400.01 1403.75 1401.98 1404.35 1403.42 1405.55C1404.88 1406.72 1405.62 1408.45 1405.62 1410.73C1405.62 1412.51 1405.12 1414.04 1404.14 1415.34C1403.16 1416.63 1401.34 1418.22 1398.7 1420.09C1397.77 1420.76 1396.99 1421.49 1396.36 1422.29C1395.76 1423.08 1395.44 1423.77 1395.39 1424.37H1405.69V1428.44Z"
        fill="black" />
    <path
        d="M1215.96 1420.23H1220.96C1220.46 1422.99 1219.29 1425.19 1217.47 1426.82C1215.67 1428.45 1213.4 1429.27 1210.67 1429.27C1207.4 1429.27 1204.74 1428.19 1202.67 1426.03C1200.63 1423.85 1199.61 1420.76 1199.61 1416.78C1199.61 1412.75 1200.61 1409.57 1202.6 1407.24C1204.59 1404.91 1207.31 1403.75 1210.74 1403.75C1213.64 1403.75 1216.01 1404.56 1217.83 1406.19C1219.68 1407.83 1220.72 1409.89 1220.96 1412.39H1215.96C1215.62 1411.07 1214.97 1410.02 1214.01 1409.25C1213.05 1408.46 1211.97 1408.07 1210.77 1408.07C1208.76 1408.07 1207.23 1408.81 1206.2 1410.3C1205.19 1411.76 1204.69 1413.83 1204.69 1416.49C1204.69 1419.18 1205.18 1421.25 1206.17 1422.72C1207.15 1424.18 1208.6 1424.91 1210.52 1424.91C1213.43 1424.91 1215.24 1423.35 1215.96 1420.23ZM1226.98 1419.05H1222.16L1222.66 1404.54H1237.39V1408.5H1226.84L1226.62 1414.91C1227.68 1413.78 1229.26 1413.21 1231.38 1413.21C1233.39 1413.21 1235.05 1413.89 1236.34 1415.23C1237.64 1416.57 1238.29 1418.41 1238.29 1420.74C1238.29 1423.31 1237.52 1425.37 1235.98 1426.93C1234.47 1428.49 1232.49 1429.27 1230.04 1429.27C1227.86 1429.27 1226.01 1428.62 1224.5 1427.33C1222.99 1426.01 1222.18 1424.33 1222.09 1422.29H1226.77C1226.86 1423.27 1227.2 1424.05 1227.78 1424.63C1228.35 1425.18 1229.11 1425.45 1230.04 1425.45C1232.42 1425.45 1233.61 1423.95 1233.61 1420.95C1233.61 1418.31 1232.52 1416.99 1230.33 1416.99C1228.77 1416.99 1227.66 1417.68 1226.98 1419.05ZM1255.22 1428.44H1238.94C1238.97 1426.04 1239.45 1423.98 1240.38 1422.25C1241.34 1420.52 1243.26 1418.63 1246.14 1416.56C1247.87 1415.31 1249.04 1414.31 1249.64 1413.54C1250.26 1412.77 1250.57 1411.88 1250.57 1410.87C1250.57 1408.79 1249.47 1407.74 1247.26 1407.74C1246.13 1407.74 1245.27 1408.07 1244.67 1408.71C1244.07 1409.36 1243.77 1410.45 1243.77 1411.99H1239.27C1239.27 1409.42 1239.95 1407.41 1241.32 1405.94C1242.69 1404.48 1244.6 1403.75 1247.04 1403.75C1249.54 1403.75 1251.51 1404.35 1252.95 1405.55C1254.41 1406.72 1255.14 1408.45 1255.14 1410.73C1255.14 1412.51 1254.65 1414.04 1253.67 1415.34C1252.68 1416.63 1250.87 1418.22 1248.23 1420.09C1247.3 1420.76 1246.52 1421.49 1245.89 1422.29C1245.29 1423.08 1244.97 1423.77 1244.92 1424.37H1255.22V1428.44ZM1265.25 1428.44H1260.57V1411.92H1255.68V1408.68C1257.67 1408.68 1259.09 1408.35 1259.93 1407.71C1260.79 1407.03 1261.29 1405.98 1261.44 1404.54H1265.25V1428.44Z"
        fill="black" />
    <path
        d="M1083.61 1420.23H1088.61C1088.11 1422.99 1086.94 1425.19 1085.12 1426.82C1083.32 1428.45 1081.05 1429.27 1078.32 1429.27C1075.05 1429.27 1072.39 1428.19 1070.32 1426.03C1068.28 1423.85 1067.26 1420.76 1067.26 1416.78C1067.26 1412.75 1068.26 1409.57 1070.25 1407.24C1072.24 1404.91 1074.96 1403.75 1078.39 1403.75C1081.29 1403.75 1083.66 1404.56 1085.48 1406.19C1087.33 1407.83 1088.37 1409.89 1088.61 1412.39H1083.61C1083.27 1411.07 1082.62 1410.02 1081.66 1409.25C1080.7 1408.46 1079.62 1408.07 1078.42 1408.07C1076.41 1408.07 1074.88 1408.81 1073.85 1410.3C1072.84 1411.76 1072.34 1413.83 1072.34 1416.49C1072.34 1419.18 1072.83 1421.25 1073.82 1422.72C1074.8 1424.18 1076.25 1424.91 1078.17 1424.91C1081.08 1424.91 1082.89 1423.35 1083.61 1420.23ZM1094.63 1419.05H1089.81L1090.31 1404.54H1105.04V1408.5H1094.49L1094.27 1414.91C1095.33 1413.78 1096.91 1413.21 1099.03 1413.21C1101.04 1413.21 1102.7 1413.89 1103.99 1415.23C1105.29 1416.57 1105.94 1418.41 1105.94 1420.74C1105.94 1423.31 1105.17 1425.37 1103.63 1426.93C1102.12 1428.49 1100.14 1429.27 1097.69 1429.27C1095.51 1429.27 1093.66 1428.62 1092.15 1427.33C1090.64 1426.01 1089.83 1424.33 1089.74 1422.29H1094.42C1094.51 1423.27 1094.85 1424.05 1095.43 1424.63C1096 1425.18 1096.76 1425.45 1097.69 1425.45C1100.07 1425.45 1101.26 1423.95 1101.26 1420.95C1101.26 1418.31 1100.17 1416.99 1097.98 1416.99C1096.42 1416.99 1095.31 1417.68 1094.63 1419.05ZM1122.87 1428.44H1106.59C1106.62 1426.04 1107.1 1423.98 1108.03 1422.25C1108.99 1420.52 1110.91 1418.63 1113.79 1416.56C1115.52 1415.31 1116.69 1414.31 1117.29 1413.54C1117.91 1412.77 1118.22 1411.88 1118.22 1410.87C1118.22 1408.79 1117.12 1407.74 1114.91 1407.74C1113.78 1407.74 1112.92 1408.07 1112.32 1408.71C1111.72 1409.36 1111.42 1410.45 1111.42 1411.99H1106.92C1106.92 1409.42 1107.6 1407.41 1108.97 1405.94C1110.34 1404.48 1112.25 1403.75 1114.69 1403.75C1117.19 1403.75 1119.16 1404.35 1120.6 1405.55C1122.06 1406.72 1122.79 1408.45 1122.79 1410.73C1122.79 1412.51 1122.3 1414.04 1121.32 1415.34C1120.33 1416.63 1118.52 1418.22 1115.88 1420.09C1114.95 1420.76 1114.17 1421.49 1113.54 1422.29C1112.94 1423.08 1112.62 1423.77 1112.57 1424.37H1122.87V1428.44ZM1132.08 1425.49C1133.23 1425.49 1134.08 1424.79 1134.63 1423.4C1135.18 1422.01 1135.46 1419.72 1135.46 1416.53C1135.46 1413.29 1135.18 1410.97 1134.63 1409.58C1134.08 1408.19 1133.23 1407.49 1132.08 1407.49C1130.9 1407.49 1130.04 1408.19 1129.48 1409.58C1128.93 1410.95 1128.66 1413.24 1128.66 1416.45C1128.66 1419.69 1128.93 1422.01 1129.48 1423.4C1130.04 1424.79 1130.9 1425.49 1132.08 1425.49ZM1131.93 1429.27C1126.51 1429.27 1123.8 1424.97 1123.8 1416.38C1123.8 1407.96 1126.51 1403.75 1131.93 1403.75C1137.45 1403.75 1140.21 1407.93 1140.21 1416.31C1140.21 1420.65 1139.49 1423.91 1138.05 1426.07C1136.61 1428.2 1134.57 1429.27 1131.93 1429.27Z"
        fill="black" />
    <rect x="371.012" y="484.915" width="79.4917" height="77.5276" rx="3.5" fill="black" stroke="white"
        stroke-width="3" />
    <path
        d="M399.261 498.636C399.261 501.619 396.843 504.037 393.86 504.037C390.877 504.037 388.459 501.619 388.459 498.636C388.459 495.653 390.877 493.235 393.86 493.235C396.843 493.235 399.261 495.653 399.261 498.636Z"
        fill="white" />
    <path
        d="M383.549 506.961C384.04 504.997 393.86 505.49 393.86 505.49C393.86 505.49 403.681 504.997 404.282 506.623C404.282 506.623 404.546 529.24 404.282 529.485C404.282 529.485 402.793 531.97 401.305 529.485V510.599H399.319V552.845C398.823 555.827 395.349 555.827 395.349 552.845V528.566H392.387V552.627C392.387 555.573 388.95 555.573 388.459 552.627V510.89H386.495V529.548C385.022 532.004 383.549 529.548 383.549 529.548C383.287 529.306 383.058 508.926 383.549 506.961Z"
        fill="white" />
    <path
        d="M393.86 505.488V505.49M393.86 505.49C393.86 505.49 384.04 504.997 383.549 506.961C383.058 508.926 383.287 529.306 383.549 529.548C383.549 529.548 385.022 532.004 386.495 529.548V510.89H388.459V552.627C388.95 555.573 392.387 555.573 392.387 552.627V528.566H395.349V552.845C395.349 555.827 398.823 555.827 399.319 552.845V510.599H401.305V529.485C402.793 531.97 404.282 529.485 404.282 529.485C404.546 529.24 404.282 506.623 404.282 506.623C403.681 504.997 393.86 505.49 393.86 505.49ZM399.261 498.636C399.261 501.619 396.843 504.037 393.86 504.037C390.877 504.037 388.459 501.619 388.459 498.636C388.459 495.653 390.877 493.235 393.86 493.235C396.843 493.235 399.261 495.653 399.261 498.636Z"
        stroke="white" />
    <path
        d="M417.632 522.205L420.087 537.918H430.399L437.273 550.193L442.183 547.247C445.718 544.105 440.383 544.301 437.273 544.792L431.872 535.463H424.015V532.517C427.943 532.517 430.399 532.517 431.381 532.026C431.675 531.878 431.544 530.389 430.89 530.062H422.542L422.051 524.169L423.033 523.678C427.452 522.696 425.979 516.313 421.56 516.804C418.025 517.197 417.468 520.568 417.632 522.205Z"
        fill="white" stroke="white" />
    <path
        d="M416.895 533.499C413.813 535.319 411.74 538.72 411.74 542.615C411.74 548.428 416.356 553.14 422.051 553.14C424.373 553.14 426.516 552.356 428.239 551.035C429.654 549.949 430.787 548.501 431.505 546.825"
        stroke="white" stroke-width="4" />
    <rect x="544.104" y="656.542" width="79.4917" height="77.5276" rx="3.5" fill="black" stroke="white"
        stroke-width="3" />
    <path
        d="M572.353 670.264C572.353 673.247 569.935 675.665 566.952 675.665C563.969 675.665 561.551 673.247 561.551 670.264C561.551 667.281 563.969 664.862 566.952 664.862C569.935 664.862 572.353 667.281 572.353 670.264Z"
        fill="white" />
    <path
        d="M566.952 675.665C569.935 675.665 572.353 673.247 572.353 670.264C572.353 667.281 569.935 664.862 566.952 664.862C563.969 664.862 561.551 667.281 561.551 670.264C561.551 673.247 563.969 675.665 566.952 675.665Z"
        fill="white" />
    <path
        d="M556.64 678.589C557.131 676.625 566.952 677.118 566.952 677.118C566.952 677.118 576.621 676.676 577.117 678.648C577.612 680.621 583.122 697.167 582.858 697.41C582.858 697.41 581.372 699.876 579.885 697.41L574.144 682.594H572.162L579.885 703.821H572.162V724.512C571.667 727.471 568.199 727.471 568.199 724.512V703.821H565.479V724.254C565.479 727.2 562.042 727.2 561.551 724.254V703.653H553.897L561.551 682.517H559.587L553.897 697.27C552.424 699.725 550.951 697.27 550.951 697.27C550.689 697.027 556.149 680.553 556.64 678.589Z"
        fill="white" />
    <path
        d="M566.952 677.116V677.118M566.952 677.118C566.952 677.118 557.131 676.625 556.64 678.589C556.149 680.553 550.689 697.027 550.951 697.27C550.951 697.27 552.424 699.725 553.897 697.27L559.587 682.517H561.551L553.897 703.653H561.551V724.254C562.042 727.2 565.479 727.2 565.479 724.254V703.821H568.199V724.512C568.199 727.471 571.667 727.471 572.162 724.512V703.821H579.885L572.162 682.594H574.144L579.885 697.41C581.372 699.876 582.858 697.41 582.858 697.41C583.122 697.167 577.612 680.621 577.117 678.648C576.621 676.676 566.952 677.118 566.952 677.118ZM572.353 670.264C572.353 673.247 569.935 675.665 566.952 675.665C563.969 675.665 561.551 673.247 561.551 670.264C561.551 667.281 563.969 664.862 566.952 664.862C569.935 664.862 572.353 667.281 572.353 670.264Z"
        stroke="white" />
    <path
        d="M590.723 693.833L593.179 709.545H603.49L610.364 721.821L615.275 718.875C618.81 715.732 613.474 715.929 610.364 716.42L604.963 707.09H597.107V704.144C601.035 704.144 603.49 704.144 604.472 703.653C604.767 703.506 604.636 702.016 603.981 701.689H595.634L595.143 695.797L596.125 695.306C600.544 694.324 599.071 687.94 594.652 688.431C591.116 688.824 590.56 692.196 590.723 693.833Z"
        fill="white" stroke="white" />
    <path
        d="M589.987 705.126C586.905 706.946 584.832 710.347 584.832 714.243C584.832 720.055 589.448 724.767 595.143 724.767C597.465 724.767 599.607 723.984 601.331 722.662C602.746 721.577 603.879 720.128 604.596 718.452"
        stroke="white" stroke-width="4" />
    <rect x="2989.18" y="285.457" width="78.5709" height="76.6288" rx="3.5" fill="black" stroke="white"
        stroke-width="3" />
    <path
        d="M3017.1 299.009C3017.1 301.959 3014.71 304.35 3011.76 304.35C3008.81 304.35 3006.42 301.959 3006.42 299.009C3006.42 296.059 3008.81 293.668 3011.76 293.668C3014.71 293.668 3017.1 296.059 3017.1 299.009Z"
        fill="white" />
    <path
        d="M3001.56 307.241C3002.05 305.299 3011.76 305.787 3011.76 305.787C3011.76 305.787 3021.47 305.299 3022.06 306.906C3022.06 306.906 3022.33 329.271 3022.06 329.514C3022.06 329.514 3020.59 331.971 3019.12 329.514V310.838H3017.16V352.613C3016.67 355.562 3013.23 355.562 3013.23 352.613V328.605H3010.3V352.397C3010.3 355.31 3006.9 355.31 3006.42 352.397V311.126H3004.47V329.576C3003.02 332.004 3001.56 329.576 3001.56 329.576C3001.3 329.336 3001.08 309.183 3001.56 307.241Z"
        fill="white" />
    <path
        d="M3011.76 305.785V305.787M3011.76 305.787C3011.76 305.787 3002.05 305.299 3001.56 307.241C3001.08 309.183 3001.3 329.336 3001.56 329.576C3001.56 329.576 3003.02 332.004 3004.47 329.576V311.126H3006.42V352.397C3006.9 355.31 3010.3 355.31 3010.3 352.397V328.605H3013.23V352.613C3013.23 355.562 3016.67 355.562 3017.16 352.613V310.838H3019.12V329.514C3020.59 331.971 3022.06 329.514 3022.06 329.514C3022.33 329.271 3022.06 306.906 3022.06 306.906C3021.47 305.299 3011.76 305.787 3011.76 305.787ZM3017.1 299.009C3017.1 301.959 3014.71 304.35 3011.76 304.35C3008.81 304.35 3006.42 301.959 3006.42 299.009C3006.42 296.059 3008.81 293.668 3011.76 293.668C3014.71 293.668 3017.1 296.059 3017.1 299.009Z"
        stroke="white" />
    <path
        d="M3035.26 322.315L3037.69 337.852H3047.89L3054.69 349.991L3059.54 347.077C3063.04 343.97 3057.76 344.164 3054.69 344.65L3049.34 335.424H3041.58V332.511C3045.46 332.511 3047.89 332.511 3048.86 332.026C3049.15 331.88 3049.02 330.407 3048.37 330.083H3040.12L3039.63 324.257L3040.61 323.771C3044.98 322.8 3043.52 316.488 3039.15 316.974C3035.65 317.362 3035.1 320.696 3035.26 322.315Z"
        fill="white" stroke="white" />
    <path
        d="M3034.54 333.482C3031.49 335.282 3029.44 338.645 3029.44 342.497C3029.44 348.244 3034 352.904 3039.63 352.904C3041.93 352.904 3044.05 352.129 3045.75 350.822C3047.15 349.749 3048.27 348.317 3048.98 346.66"
        stroke="white" stroke-width="4" />
    <rect x="2989.18" y="410.462" width="78.5709" height="76.6288" rx="3.5" fill="black" stroke="white"
        stroke-width="3" />
    <path
        d="M3017.1 424.014C3017.1 426.963 3014.71 429.355 3011.76 429.355C3008.81 429.355 3006.42 426.963 3006.42 424.014C3006.42 421.064 3008.81 418.673 3011.76 418.673C3014.71 418.673 3017.1 421.064 3017.1 424.014Z"
        fill="white" />
    <path
        d="M3011.76 429.355C3014.71 429.355 3017.1 426.963 3017.1 424.014C3017.1 421.064 3014.71 418.673 3011.76 418.673C3008.81 418.673 3006.42 421.064 3006.42 424.014C3006.42 426.963 3008.81 429.355 3011.76 429.355Z"
        fill="white" />
    <path
        d="M3001.56 432.246C3002.05 430.304 3011.76 430.791 3011.76 430.791C3011.76 430.791 3021.32 430.354 3021.81 432.305C3022.3 434.255 3027.75 450.617 3027.49 450.858C3027.49 450.858 3026.02 453.296 3024.55 450.858L3018.87 436.206H3016.91L3024.55 457.197H3016.91V477.656C3016.42 480.582 3012.99 480.582 3012.99 477.656V457.197H3010.3V477.401C3010.3 480.315 3006.9 480.315 3006.42 477.401V457.03H2998.85L3006.42 436.13H3004.47L2998.85 450.718C2997.39 453.146 2995.94 450.718 2995.94 450.718C2995.68 450.478 3001.08 434.188 3001.56 432.246Z"
        fill="white" />
    <path
        d="M3011.76 430.789V430.791M3011.76 430.791C3011.76 430.791 3002.05 430.304 3001.56 432.246C3001.08 434.188 2995.68 450.478 2995.94 450.718C2995.94 450.718 2997.39 453.146 2998.85 450.718L3004.47 436.13H3006.42L2998.85 457.03H3006.42V477.401C3006.9 480.315 3010.3 480.315 3010.3 477.401V457.197H3012.99V477.656C3012.99 480.582 3016.42 480.582 3016.91 477.656V457.197H3024.55L3016.91 436.206H3018.87L3024.55 450.858C3026.02 453.296 3027.49 450.858 3027.49 450.858C3027.75 450.617 3022.3 434.255 3021.81 432.305C3021.32 430.354 3011.76 430.791 3011.76 430.791ZM3017.1 424.014C3017.1 426.963 3014.71 429.355 3011.76 429.355C3008.81 429.355 3006.42 426.963 3006.42 424.014C3006.42 421.064 3008.81 418.673 3011.76 418.673C3014.71 418.673 3017.1 421.064 3017.1 424.014Z"
        stroke="white" />
    <path
        d="M3035.26 447.32L3037.69 462.857H3047.89L3054.69 474.996L3059.54 472.082C3063.04 468.975 3057.76 469.169 3054.69 469.655L3049.34 460.429H3041.58V457.516C3045.46 457.516 3047.89 457.516 3048.86 457.031C3049.15 456.885 3049.02 455.412 3048.37 455.088H3040.12L3039.63 449.262L3040.61 448.776C3044.98 447.805 3043.52 441.493 3039.15 441.979C3035.65 442.367 3035.1 445.701 3035.26 447.32Z"
        fill="white" stroke="white" />
    <path
        d="M3034.54 458.487C3031.49 460.286 3029.44 463.65 3029.44 467.502C3029.44 473.249 3034 477.909 3039.63 477.909C3041.93 477.909 3044.05 477.134 3045.75 475.827C3047.15 474.754 3048.27 473.322 3048.98 471.665"
        stroke="white" stroke-width="4" />
    <rect x="3306.53" y="301.026" width="75.9135" height="74.0346" rx="3.5" fill="black" stroke="white"
        stroke-width="3" />
    <path
        d="M3312.74 316.427C3312.74 314.218 3314.53 312.427 3316.74 312.427H3340.59C3342.8 312.427 3344.59 314.218 3344.59 316.427V334.683C3344.59 335.235 3344.14 335.683 3343.59 335.683H3313.74C3313.19 335.683 3312.74 335.235 3312.74 334.683V316.427Z"
        fill="white" />
    <path
        d="M3340.8 340.461C3340.8 341.91 3335.37 343.085 3328.66 343.085C3321.96 343.085 3316.52 341.91 3316.52 340.461C3316.52 339.012 3321.96 337.837 3328.66 337.837C3335.37 337.837 3340.8 339.012 3340.8 340.461Z"
        fill="white" />
    <path
        d="M3319.63 365.335H3328.59L3337.54 365.335C3337.69 356.918 3336.64 353.356 3332.66 356.332C3331.77 357.002 3330.05 357.382 3328.59 357.357C3327.12 357.382 3325.41 357.002 3324.51 356.332C3320.53 353.356 3319.48 356.918 3319.63 365.335Z"
        fill="white" />
    <path
        d="M3328.57 344.961C3336.39 344.961 3342.73 343.493 3342.73 341.682C3342.73 361.092 3314.41 361.128 3314.41 341.682C3314.41 343.493 3320.75 344.961 3328.57 344.961Z"
        fill="white" />
    <path d="M3341.11 316.439H3316.21" stroke="black" />
    <ellipse cx="3318.4" cy="319.501" rx="2.93102" ry="1.2192" transform="rotate(34.0796 3318.4 319.501)"
        fill="black" />
    <path
        d="M3366.37 342.435L3364.29 355.743H3355.56L3349.74 366.141L3345.58 363.645C3342.58 360.984 3347.1 361.15 3349.74 361.566L3354.31 353.664H3360.97V351.168C3357.64 351.168 3355.56 351.168 3354.73 350.753C3354.48 350.628 3354.59 349.366 3355.14 349.089H3362.21L3362.63 344.098L3361.8 343.682C3358.05 342.85 3359.3 337.444 3363.04 337.86C3366.04 338.192 3366.51 341.048 3366.37 342.435Z"
        fill="white" stroke="white" />
    <path
        d="M3367 352C3369.61 353.542 3371.36 356.422 3371.36 359.722C3371.36 364.645 3367.45 368.636 3362.63 368.636C3360.66 368.636 3358.85 367.973 3357.39 366.853C3356.19 365.934 3355.23 364.707 3354.62 363.288"
        stroke="white" stroke-width="4" />
    <path
        d="M3373.6 318.597C3373.6 325.533 3368.6 331.155 3362.43 331.155C3356.27 331.155 3351.27 325.533 3351.27 318.597C3351.27 316.505 3351.73 314.532 3352.53 312.798L3372.34 312.798C3373.14 314.532 3373.6 316.505 3373.6 318.597Z"
        fill="white" />
    <rect x="3349.24" y="316.039" width="8.43763" height="3.66444" rx="1.83222" fill="white" stroke="black"
        stroke-width="0.5" />
    <rect x="3367.22" y="316.039" width="8.40698" height="3.66444" rx="1.83222" fill="white" stroke="black"
        stroke-width="0.5" />
    <path
        d="M3354.32 322.932C3357.76 323.129 3358.9 324.339 3359.13 327.826C3359.73 323.748 3358.7 322.655 3354.32 322.932Z"
        fill="black" />
    <path
        d="M3370.55 322.932C3367.1 323.129 3365.97 324.339 3365.73 327.826C3365.14 323.748 3366.16 322.655 3370.55 322.932Z"
        fill="black" />
</svg>