<svg width="3497" height="1559" viewBox="0 0 3497 1559" fill="none" xmlns="http://www.w3.org/2000/svg">
    <path d="M731.075 1332.81L703.535 1303.62L768.891 1238.27H858.498V1550.66H731.075V1332.81Z" fill="#76CCF1" />
    <path d="M3362.15 376.313V694.87H3110.59V370.558H3171.43V379.601H3217.46L3225.69 376.313H3362.15Z" fill="#76CCF1" />
    <path d="M3372.43 1544.44H2606.64L2606.64 1151.29L2979.23 779.321H3372.43V1544.44Z" fill="#76CCF1" />
    <path d="M1223.68 777.015V884.249H1367.03V777.015H1223.68Z" fill="#76CCF1" />
    <path d="M1427.82 699.185V522.392V521.484H1742.05V699.185H1427.82Z" fill="#76CCF1" />
    <path d="M2607.11 1150.37V1544.55H2485.33V1201.15H2553.58L2584.88 1168.21L2607.11 1150.37Z" stroke="black" />
    <path
        d="M3373.59 779.113V1545.92H2607.22M2372.96 1503.44H2386.54L2386.54 1545.92H2607.22M3405.45 768.664V779.113H2978.58L2949.55 808.277M2607.22 1545.92V1152.15L2632.52 1126.74M2658.53 1100.61L2920.52 837.441M2331.14 1503.44H1820.57M1781.85 1503.44H1017.89M977.057 1503.44H963.588V1551.72H729.558V1438.92M729.558 1326.11V1438.92M3405.45 723.437V702.528H3363.14V681.908M3363.14 575.018V375.672L3226 375.672V359.838M729.558 1438.92H635.694L603.834 1406.45M521.665 1322.72L512.536 1313.42L409.282 1419.16H0.0786133M545.635 1347.15L550.506 1352.11M574.096 1376.15L579.604 1381.76M3222.8 282.105V316.605H3004.45V623.762H2890.05L2700.74 813.081M2645.37 868.449L2594.95 918.863H2295.83H2206.37H2110.88H2044.72H1996.78V817.951H1987.99M1425.73 779.265V520.489H1470.89M1829.38 817.951H1744.67V520.489H1694.2M1918.07 817.951H1905.4M1498.71 520.489H1675.01M1468.02 1176.58H1433.06V1077.97H1545.02M1514.3 1176.58H1545.02M1571.69 1176.58H1545.02M1611.9 1176.58H1648.08M1669.09 1176.58H1648.08M1713.15 1176.58H1752.15V1077.97H1648.08M1545.02 1077.97V1176.58M1545.02 1077.97H1648.08M1648.08 1176.58V1077.97"
        stroke="black" stroke-width="13" />
    <rect x="536.543" y="0.5" width="500" height="500" fill="black" />
    <path
        d="M723.08 182.729H743.93C739.73 205.379 724.13 220.379 701.03 220.379C674.93 220.379 654.98 202.529 654.98 168.329C654.98 134.579 672.83 114.029 701.33 114.029C726.23 114.029 741.98 129.929 743.93 150.029H723.08C720.23 138.779 711.38 132.029 701.48 132.029C684.23 132.029 676.13 145.379 676.13 167.129C676.13 189.179 684.23 202.229 700.43 202.229C712.73 202.229 720.23 195.179 723.08 182.729ZM795.272 134.579H768.422V161.129H794.522C805.622 161.129 809.822 155.579 809.822 147.929C809.822 140.129 805.622 134.579 795.272 134.579ZM826.622 216.929H806.222V191.279C806.222 181.679 802.622 177.929 790.622 177.929H768.422V216.929H748.172V117.329H798.722C817.172 117.329 829.322 129.629 829.322 146.129C829.322 156.779 824.072 165.779 814.472 169.229C823.322 172.079 826.622 177.029 826.622 188.729V216.929ZM918.937 216.929H893.587L874.537 182.729L854.437 216.929H830.137L862.387 166.079L831.937 117.329H856.537L874.537 149.579L892.687 117.329H916.837L886.537 165.179L918.937 216.929ZM804.851 396.929H785.351V328.079H764.951V314.579C782.051 314.579 787.751 308.879 788.951 297.329H804.851V396.929Z"
        fill="white" />
    <path
        d="M485.78 1433.39L520.147 1399.02L501.744 1395.61L558.892 1369.81L533.099 1426.96L529.681 1408.56L495.314 1442.93L485.78 1433.39Z"
        fill="#FF0000" />
    <path
        d="M3496.72 750.99L3448.12 750.99L3458.71 766.42L3400.07 744.248L3458.72 722.076L3448.12 737.506L3496.72 737.506V750.99Z"
        fill="#FF0000" />
    <path
        d="M3358.08 696.199H3303.64M3222.74 696.199H3109.08M3289.94 696.199H3303.64M2965.01 626.493V641.204M2965.01 676.483V696.199H3109.08M520.988 1313.79L617.739 1216.59M1009.67 822.819L1016.05 816.404M988.521 844.065L617.739 1216.59M1039.02 793.332L1056.01 776.265H1078.71M1427.21 776.265H1367.28M1111.68 776.265H1119.25M1150.73 776.265H1222.71M1429.12 699.75H1457.81M1476.16 699.75H1457.81M1514.19 699.75H1586.91M1603.92 699.75H1586.91M1641.28 699.75H1712.67M1741.36 699.75H1712.67M1586.91 699.75V521.947M1457.81 699.75V523.615M1712.67 699.75V521.947M1429.12 761.98H1490.51M1537.59 862.915H1586.91L1587.76 809.061M1498.75 862.915H1490.51V761.98M1490.51 761.98H1588.5L1587.76 809.061M1587.76 809.061H1541.12M1222.71 776.265V839.848M1222.71 776.265H1350.9M1222.71 873.32V884.002H1350.9M1367.28 776.265V884.002H1350.9M1367.28 776.265H1350.9M1350.9 776.265V884.002M617.739 1216.59L623.835 1222.68M730.562 1330.3L703.87 1303.61M645.491 1244.73L649.207 1248.44M670.212 1270.84L674.077 1274.71M698.752 1298.49L703.87 1303.61M703.87 1303.61L769.255 1238.59H787.372M819.169 1238.59H787.372M851.641 1238.59H858.692V1279.97M858.692 1552.44V1347.27M858.692 1279.97H977.67M858.692 1279.97V1347.27M1019.3 1279.97H1029.13V1499.03M1772.84 1499.68V1314.32H1828.25V1499.68M2315.61 1498.4V1278.43H2329.09M2368.33 1278.43H2485.22M2485.22 1278.43V1253.46M2485.22 1278.43V1343.14M2485.22 1506.71V1343.14M2485.22 1223.28V1213.44M2606.92 1147.5L2553.54 1199.96H2485.22V1213.44M1701.43 1280.77H1308.37V1362.31H1701.43M1388.24 990.976H1460.88M1388.24 1070.32H1473.62M775.228 1123.28L980.879 917.632L1006.55 943.383L968.784 981.805M910.59 1314.71V1425.55M957.432 1345.17V1427.59M2433.77 1315.59V1424.84M2387.14 1343.14V1498.4M2485.22 1213.44H2604.03M2485.22 1343.14H2500.93M2535.18 1343.14H2604.03M3109.08 696.199V640.337M3109.08 640.337H3054.06V500.586M3109.08 640.337V456.466M3229.66 564.751H3217.72V379.148H3170.66V370.443H3109.08V456.466M3263.19 564.751H3358.94M3109.08 456.466H3054.06V374.693M858.692 1347.27H840.989M808.745 1347.27H735.413M735.413 1347.27V1292.18L787.372 1238.59M735.413 1347.27V1548.6M3303.64 696.199V724.282M3303.64 768.768V777.444"
        stroke="black" stroke-width="6" />
    <path
        d="M909.605 1383.31L859.105 1383.31M909.605 1383.31L909.105 1316.81L859.605 1316.81L859.605 1392.12M909.605 1383.31L909.605 1392.12M909.105 1373.31L859.105 1373.31M909.105 1364.31L859.605 1364.31M909.105 1354.81L859.605 1354.81M909.605 1345.31L859.105 1345.31M909.105 1335.31L859.105 1335.31M909.105 1326.31L859.605 1326.31M906.605 1383.31L892.353 1392.12M878.1 1400.93L859.605 1400.93M878.1 1400.93L859.605 1412.42M878.1 1400.93L892.353 1392.12M878.1 1400.93L909.605 1400.93M859.605 1412.42L859.605 1419.13L909.605 1419.71V1410.32M859.605 1412.42L859.605 1410.32M892.353 1392.12L859.605 1392.12M892.353 1392.12L909.605 1392.12M859.605 1392.12L859.605 1410.32M909.605 1392.12L909.605 1400.93M909.605 1400.93V1410.32M909.605 1410.32L859.605 1410.32"
        stroke="black" stroke-width="2" />
    <path
        d="M1446.05 989.348L1446.05 1071.15L1436.6 1071.15M1456.79 1070.34L1456.79 989.348M1466.45 1070.34L1466.45 1043.21M1466.45 990.158L1466.45 1043.21M1427.14 990.158L1427.14 1020.12L1427.14 1071.15M1417.06 990.158L1407.6 990.158L1406.98 1071.15L1417.06 1071.15M1417.06 990.158L1417.06 1071.15M1417.06 990.158L1433.82 990.158M1436.6 1071.15L1436.6 1043.21L1436.6 990.158L1433.82 990.158M1436.6 1071.15L1427.14 1071.15M1427.14 1071.15L1417.06 1071.15M1433.82 990.158L1466.45 1043.21"
        stroke="black" stroke-width="2" />
    <path
        d="M957.526 1409.97L909.583 1409.97M957.526 1409.97L957.049 1346.5L910.105 1346.5L910.105 1419.26L957.526 1419.26L957.526 1409.97ZM957.457 1400.76L910.013 1400.76M957.391 1391.93L910.105 1391.93M957.32 1382.59L910.105 1382.59M957.253 1373.57L909.309 1373.57M957.182 1364.21L909.738 1364.21M957.121 1356L910.105 1356"
        stroke="black" stroke-width="2" />
    <path
        d="M1624.02 1360.61L1624.02 1280.8M1624.02 1360.61L1698.36 1359.81L1698.36 1281.67L1613.14 1281.67L1613.14 1360.61L1624.02 1360.61ZM1634.8 1360.49L1634.8 1281.51M1645.15 1360.38L1645.15 1281.67M1656.09 1360.26L1656.09 1281.67M1666.66 1360.15L1666.66 1280.34M1677.63 1360.03L1677.63 1281.06M1687.23 1359.93L1687.23 1281.67"
        stroke="black" stroke-width="2" />
    <path
        d="M1419.67 1360.61L1419.67 1280.8M1419.67 1360.61L1491.9 1359.81L1491.9 1281.67L1409.1 1281.67L1409.1 1360.61L1419.67 1360.61ZM1430.15 1360.49L1430.15 1281.51M1440.2 1360.38L1440.2 1281.67M1450.83 1360.26L1450.83 1281.67M1461.1 1360.15L1461.1 1280.34M1471.75 1360.03L1471.75 1281.06M1481.08 1359.93L1481.08 1281.67"
        stroke="black" stroke-width="2" />
    <path
        d="M1327.35 1360.61L1327.35 1280.8M1327.35 1360.61L1399.57 1359.81L1399.57 1281.67L1316.78 1281.67L1316.78 1360.61L1327.35 1360.61ZM1337.82 1360.49L1337.82 1281.51M1347.88 1360.38L1347.88 1281.67M1358.51 1360.26L1358.51 1281.67M1368.77 1360.15L1368.77 1280.34M1379.43 1360.03L1379.43 1281.06M1388.76 1359.93L1388.76 1281.67"
        stroke="black" stroke-width="2" />
    <path
        d="M1528.96 1360.61L1528.96 1280.8M1528.96 1360.61L1603.31 1359.81L1603.31 1281.67L1518.08 1281.67M1528.96 1360.61L1518.08 1360.61M1539.74 1360.49L1539.74 1281.51M1550.09 1360.38L1550.09 1281.67M1561.03 1360.26L1561.03 1281.67M1571.6 1360.15L1571.6 1280.34M1582.57 1360.03L1582.57 1281.06M1592.18 1359.93L1592.18 1281.67"
        stroke="black" stroke-width="2" />
    <path d="M753.108 1083.77L783.667 1114.77M923.363 912.21L952.831 941.677" stroke="black" stroke-width="2" />
    <path d="M1005.22 944.514L1045.38 982.494H1228.95V886.071" stroke="black" stroke-width="2" />
    <path d="M998.473 954.958L1040.8 994.936H1240.81V885.798" stroke="black" stroke-width="2" />
    <path d="M990.722 961.67L1037.09 1005.85H1251.43V885.934" stroke="black" stroke-width="2" />
    <path d="M983.002 970.082L1033.16 1017.86H1262.52V885.662" stroke="black" stroke-width="2" />
    <path
        d="M1541.56 764.327V812.059M1550.14 763.297V807.586M1559.07 807.586V762.267M1567.99 763.297V807.586M1574.17 807.586V763.297M1548.08 811.363V861.146M1556.32 861.146V811.363M1565.07 811.363V861.146M1573.31 861.146V811.363"
        stroke="black" stroke-width="2" />
    <path
        d="M2433.47 1382.15L2483.97 1382.15M2433.47 1382.15L2433.97 1315.65L2483.47 1315.65L2483.47 1390.96M2433.47 1382.15L2433.47 1390.96M2433.97 1372.15L2483.97 1372.15M2433.97 1363.15L2483.47 1363.15M2433.97 1353.65L2483.47 1353.65M2433.47 1344.15L2483.97 1344.15M2433.97 1334.15L2483.97 1334.15M2433.97 1325.15L2483.47 1325.15M2483.47 1399.77L2433.47 1399.77M2433.47 1390.96L2433.47 1399.77M2433.47 1390.96L2481.03 1390.96M2483.47 1390.96L2483.47 1409.16M2483.47 1390.96L2481.03 1390.96M2433.47 1399.77L2433.47 1409.16M2433.47 1409.16L2433.47 1418.55L2436.12 1418.52M2433.47 1409.16L2483.47 1409.16M2483.47 1409.16L2483.47 1411.26L2483.47 1417.97L2436.12 1418.52M2481.03 1390.96L2436.12 1418.52M2433.47 1424.78L2483.47 1424.78"
        stroke="black" stroke-width="2" />
    <path
        d="M2385.55 1409.58L2433.5 1409.58M2385.55 1409.58L2386.03 1343.11L2432.97 1343.11L2432.97 1418.87L2385.55 1418.87L2385.55 1409.58ZM2385.62 1399.38L2433.06 1399.38M2385.69 1390.54L2432.97 1390.54M2385.76 1381.2L2432.97 1381.2M2385.83 1371.18L2433.77 1371.18M2385.9 1361.82L2433.34 1361.82M2385.96 1352.61L2432.97 1352.61M2385.62 1425.37L2432.97 1425.37"
        stroke="black" stroke-width="2" />
    <path
        d="M3055.16 617.037L3109.41 617.037M3055.16 617.037L3055.7 554.612L3108.82 554.612L3108.82 625.324L3055.16 625.324L3055.16 617.037ZM3055.24 608.832L3108.92 608.832M3055.31 600.995L3108.82 600.995M3055.39 593.655L3108.82 593.655M3055.47 585.636L3109.72 585.636M3055.55 578.273L3109.23 578.273M3055.62 570.072L3108.82 570.072M3055.24 631.828L3108.82 631.828M3055.7 562.572L3108.82 562.572M3055.55 538.949L3108.67 538.949M3055.7 547.166L3108.82 547.166M3055.55 531.246L3108.67 531.246M3055.7 523.604L3108.82 523.604M3055.7 515.516L3108.82 515.516M3055.7 507.685L3108.82 507.685M3051.6 500.833L3104.72 500.833"
        stroke="black" stroke-width="2" />
    <path
        d="M3109.41 423.457L3055.16 423.457L3055.16 433.744L3108.82 433.744M3055.24 414.253L3108.92 414.253M3055.31 404.416L3108.82 404.416M3055.39 395.076L3108.82 395.076M3055.47 385.057L3109.72 385.057M3051.65 374.694L3109.23 374.694M3055.24 443.248L3108.82 443.248"
        stroke="black" stroke-width="2" />
    <path
        d="M3150.44 371.022L3150.44 319.497M3142.24 371.022L3142.24 319.984M3133.4 371.022L3133.4 320.088M3125.06 371.022L3125.06 320.088M3116.04 368.952L3116.04 319.187M3159.73 371.022L3159.73 320.088"
        stroke="black" stroke-width="2" />
    <path
        d="M1772.5 1450.75L1828.13 1450.75M1772.58 1440.91L1828.02 1440.91M1772.66 1431.57L1828.02 1431.57M1772.74 1421.55L1828.96 1421.55M1772.82 1411.19L1828.45 1411.19M1772.9 1400.99L1828.02 1400.99M1772.98 1391.49L1828.02 1391.49"
        stroke="black" stroke-width="2" />
    <path
        d="M3001.12 435.173L3055.37 435.173M3001.2 424.968L3054.88 424.968M3001.12 445.459L3054.78 445.459M3001.2 452.963L3054.78 452.963"
        stroke="black" stroke-width="2" />
    <circle cx="1117.08" cy="969.56" r="15.3668" stroke="black" stroke-width="8" />
    <circle cx="1158.18" cy="895.95" r="15.3668" stroke="black" stroke-width="8" />
    <circle cx="911.123" cy="1019.35" r="15.3668" stroke="black" stroke-width="8" />
    <circle cx="911.123" cy="1183.95" r="10.5911" stroke="black" stroke-width="8" />
    <circle cx="1116.32" cy="1183.95" r="10.5911" stroke="black" stroke-width="8" />
    <circle cx="1320.9" cy="1183.95" r="10.5911" stroke="black" stroke-width="8" />
    <circle cx="1839.55" cy="1183.95" r="10.5911" stroke="black" stroke-width="8" />
    <circle cx="2040.54" cy="1183.95" r="10.5911" stroke="black" stroke-width="8" />
    <circle cx="2239.54" cy="1183.95" r="10.5911" stroke="black" stroke-width="8" />
    <circle cx="2488.47" cy="1183.95" r="10.5911" stroke="black" stroke-width="8" />
    <circle cx="2442.08" cy="968.838" r="10.5911" stroke="black" stroke-width="8" />
    <circle cx="2616.86" cy="968.838" r="10.5911" stroke="black" stroke-width="8" />
    <circle cx="1322.47" cy="968.853" r="15.3668" stroke="black" stroke-width="8" />
    <circle cx="1444.4" cy="895.189" r="15.3668" stroke="black" stroke-width="8" />
    <circle cx="1526.19" cy="967.209" r="15.3668" stroke="black" stroke-width="8" />
    <circle cx="1727.28" cy="894.992" r="15.3668" stroke="black" stroke-width="8" />
    <circle cx="1742.65" cy="966.976" r="15.3668" stroke="black" stroke-width="8" />
    <circle cx="1837.45" cy="966.976" r="15.3668" stroke="black" stroke-width="8" />
    <circle cx="2035.77" cy="966.976" r="15.3668" stroke="black" stroke-width="8" />
    <circle cx="2238.03" cy="966.976" r="15.3668" stroke="black" stroke-width="8" />
    <circle cx="2851.56" cy="732.176" r="15.3668" stroke="black" stroke-width="8" />
    <path d="M3219.87 560.562L3357.91 379.936M3357.91 562.031L3217.82 379.936" stroke="black" stroke-width="2" />
    <path fill-rule="evenodd" clip-rule="evenodd"
        d="M1441.69 1085.58C1441.69 1084.32 1442.72 1083.29 1443.99 1083.29H1532.3C1533.56 1083.29 1534.59 1084.32 1534.59 1085.58V1173.89C1534.59 1175.16 1533.56 1176.18 1532.3 1176.18H1443.99C1442.72 1176.18 1441.69 1175.16 1441.69 1173.89V1085.58ZM1455.46 1091.32C1455.46 1090.68 1455.97 1090.17 1456.6 1090.17H1463.49C1464.12 1090.17 1464.63 1090.68 1464.63 1091.32V1168.16C1464.63 1168.79 1464.12 1169.3 1463.49 1169.3H1456.6C1455.97 1169.3 1455.46 1168.79 1455.46 1168.16V1091.32ZM1513.95 1090.17C1513.31 1090.17 1512.8 1090.68 1512.8 1091.32V1168.16C1512.8 1168.79 1513.31 1169.3 1513.95 1169.3H1520.83C1521.46 1169.3 1521.97 1168.79 1521.97 1168.16V1091.32C1521.97 1090.68 1521.46 1090.17 1520.83 1090.17H1513.95Z"
        fill="black" />
    <path fill-rule="evenodd" clip-rule="evenodd"
        d="M1443.99 1085.01C1443.67 1085.01 1443.42 1085.27 1443.42 1085.58V1173.89C1443.42 1174.21 1443.67 1174.46 1443.99 1174.46H1532.3C1532.61 1174.46 1532.87 1174.21 1532.87 1173.89V1085.58C1532.87 1085.27 1532.61 1085.01 1532.3 1085.01H1443.99ZM1453.74 1091.32C1453.74 1089.73 1455.02 1088.45 1456.6 1088.45H1463.49C1465.07 1088.45 1466.35 1089.73 1466.35 1091.32V1168.16C1466.35 1169.74 1465.07 1171.02 1463.49 1171.02H1456.6C1455.02 1171.02 1453.74 1169.74 1453.74 1168.16V1091.32ZM1511.08 1091.32C1511.08 1089.73 1512.36 1088.45 1513.95 1088.45H1520.83C1522.41 1088.45 1523.7 1089.73 1523.7 1091.32V1168.16C1523.7 1169.74 1522.41 1171.02 1520.83 1171.02H1513.95C1512.36 1171.02 1511.08 1169.74 1511.08 1168.16V1091.32ZM1443.99 1083.29C1442.72 1083.29 1441.69 1084.32 1441.69 1085.58V1173.89C1441.69 1175.16 1442.72 1176.18 1443.99 1176.18H1532.3C1533.56 1176.18 1534.59 1175.16 1534.59 1173.89V1085.58C1534.59 1084.32 1533.56 1083.29 1532.3 1083.29H1443.99ZM1456.6 1090.17C1455.97 1090.17 1455.46 1090.68 1455.46 1091.32V1168.16C1455.46 1168.79 1455.97 1169.3 1456.6 1169.3H1463.49C1464.12 1169.3 1464.63 1168.79 1464.63 1168.16V1091.32C1464.63 1090.68 1464.12 1090.17 1463.49 1090.17H1456.6ZM1512.8 1091.32C1512.8 1090.68 1513.31 1090.17 1513.95 1090.17H1520.83C1521.46 1090.17 1521.97 1090.68 1521.97 1091.32V1168.16C1521.97 1168.79 1521.46 1169.3 1520.83 1169.3H1513.95C1513.31 1169.3 1512.8 1168.79 1512.8 1168.16V1091.32Z"
        fill="white" />
    <path
        d="M1468.1 1111.98C1468.1 1110.72 1469.12 1109.69 1470.39 1109.69H1504.29C1505.56 1109.69 1506.58 1110.72 1506.58 1111.98V1149C1506.58 1150.27 1505.56 1151.3 1504.29 1151.3H1470.39C1469.12 1151.3 1468.1 1150.27 1468.1 1149V1111.98Z"
        fill="black" />
    <path fill-rule="evenodd" clip-rule="evenodd"
        d="M1504.29 1111.98H1470.39V1149H1504.29V1111.98ZM1470.39 1109.69C1469.12 1109.69 1468.1 1110.72 1468.1 1111.98V1149C1468.1 1150.27 1469.12 1151.3 1470.39 1151.3H1504.29C1505.56 1151.3 1506.58 1150.27 1506.58 1149V1111.98C1506.58 1110.72 1505.56 1109.69 1504.29 1109.69H1470.39Z"
        fill="white" />
    <path
        d="M1488.22 1123.08L1481.21 1135.16H1488.22V1123.08ZM1488.07 1147.86V1140.37H1474.75V1134.54L1487.24 1113.59H1494.78V1135.16H1498.65V1140.37H1494.78V1147.86H1488.07Z"
        fill="white" />
    <path
        d="M1482.76 1095.02L1487.65 1088.18L1492.54 1095.02V1098.93L1489.61 1096V1103.82H1485.7V1096L1482.76 1098.93V1095.02Z"
        fill="white" />
    <path
        d="M1482.76 1164.45L1487.65 1171.29L1492.54 1164.45V1160.54L1489.61 1163.47V1155.65H1485.7V1163.47L1482.76 1160.54V1164.45Z"
        fill="white" />
    <path fill-rule="evenodd" clip-rule="evenodd"
        d="M1550.86 1085.58C1550.86 1084.32 1551.88 1083.29 1553.15 1083.29H1641.46C1642.73 1083.29 1643.75 1084.32 1643.75 1085.58V1173.89C1643.75 1175.16 1642.73 1176.18 1641.46 1176.18H1553.15C1551.88 1176.18 1550.86 1175.16 1550.86 1173.89V1085.58ZM1564.62 1091.32C1564.62 1090.68 1565.13 1090.17 1565.77 1090.17H1572.65C1573.28 1090.17 1573.79 1090.68 1573.79 1091.32V1168.16C1573.79 1168.79 1573.28 1169.3 1572.65 1169.3H1565.77C1565.13 1169.3 1564.62 1168.79 1564.62 1168.16V1091.32ZM1623.11 1090.17C1622.48 1090.17 1621.96 1090.68 1621.96 1091.32V1168.16C1621.96 1168.79 1622.48 1169.3 1623.11 1169.3H1629.99C1630.62 1169.3 1631.14 1168.79 1631.14 1168.16V1091.32C1631.14 1090.68 1630.62 1090.17 1629.99 1090.17H1623.11Z"
        fill="black" />
    <path fill-rule="evenodd" clip-rule="evenodd"
        d="M1553.15 1085.01C1552.83 1085.01 1552.58 1085.27 1552.58 1085.58V1173.89C1552.58 1174.21 1552.83 1174.46 1553.15 1174.46H1641.46C1641.77 1174.46 1642.03 1174.21 1642.03 1173.89V1085.58C1642.03 1085.27 1641.77 1085.01 1641.46 1085.01H1553.15ZM1562.9 1091.32C1562.9 1089.73 1564.18 1088.45 1565.77 1088.45H1572.65C1574.23 1088.45 1575.51 1089.73 1575.51 1091.32V1168.16C1575.51 1169.74 1574.23 1171.02 1572.65 1171.02H1565.77C1564.18 1171.02 1562.9 1169.74 1562.9 1168.16V1091.32ZM1620.24 1091.32C1620.24 1089.73 1621.53 1088.45 1623.11 1088.45H1629.99C1631.57 1088.45 1632.86 1089.73 1632.86 1091.32V1168.16C1632.86 1169.74 1631.57 1171.02 1629.99 1171.02H1623.11C1621.53 1171.02 1620.24 1169.74 1620.24 1168.16V1091.32ZM1553.15 1083.29C1551.88 1083.29 1550.86 1084.32 1550.86 1085.58V1173.89C1550.86 1175.16 1551.88 1176.18 1553.15 1176.18H1641.46C1642.73 1176.18 1643.75 1175.16 1643.75 1173.89V1085.58C1643.75 1084.32 1642.73 1083.29 1641.46 1083.29H1553.15ZM1565.77 1090.17C1565.13 1090.17 1564.62 1090.68 1564.62 1091.32V1168.16C1564.62 1168.79 1565.13 1169.3 1565.77 1169.3H1572.65C1573.28 1169.3 1573.79 1168.79 1573.79 1168.16V1091.32C1573.79 1090.68 1573.28 1090.17 1572.65 1090.17H1565.77ZM1621.96 1091.32C1621.96 1090.68 1622.48 1090.17 1623.11 1090.17H1629.99C1630.62 1090.17 1631.14 1090.68 1631.14 1091.32V1168.16C1631.14 1168.79 1630.62 1169.3 1629.99 1169.3H1623.11C1622.48 1169.3 1621.96 1168.79 1621.96 1168.16V1091.32Z"
        fill="white" />
    <path
        d="M1577.26 1111.98C1577.26 1110.72 1578.29 1109.69 1579.55 1109.69H1613.45C1614.72 1109.69 1615.74 1110.72 1615.74 1111.98V1149C1615.74 1150.27 1614.72 1151.3 1613.45 1151.3H1579.55C1578.29 1151.3 1577.26 1150.27 1577.26 1149V1111.98Z"
        fill="black" />
    <path fill-rule="evenodd" clip-rule="evenodd"
        d="M1613.45 1111.98H1579.55V1149H1613.45V1111.98ZM1579.55 1109.69C1578.29 1109.69 1577.26 1110.72 1577.26 1111.98V1149C1577.26 1150.27 1578.29 1151.3 1579.55 1151.3H1613.45C1614.72 1151.3 1615.74 1150.27 1615.74 1149V1111.98C1615.74 1110.72 1614.72 1109.69 1613.45 1109.69H1579.55Z"
        fill="white" />
    <path
        d="M1592.56 1133.1H1586.15L1586.82 1113.6H1606.38V1118.93H1592.37L1592.08 1127.54C1593.48 1126.02 1595.59 1125.26 1598.39 1125.26C1601.07 1125.26 1603.27 1126.17 1604.99 1127.97C1606.71 1129.78 1607.57 1132.25 1607.57 1135.38C1607.57 1138.83 1606.55 1141.61 1604.51 1143.7C1602.5 1145.8 1599.87 1146.85 1596.62 1146.85C1593.72 1146.85 1591.27 1145.98 1589.26 1144.24C1587.25 1142.46 1586.19 1140.2 1586.06 1137.46H1592.27C1592.4 1138.78 1592.85 1139.83 1593.61 1140.61C1594.38 1141.35 1595.38 1141.72 1596.62 1141.72C1599.78 1141.72 1601.36 1139.7 1601.36 1135.67C1601.36 1132.12 1599.91 1130.35 1597.01 1130.35C1594.93 1130.35 1593.45 1131.27 1592.56 1133.1Z"
        fill="white" />
    <path
        d="M1591.93 1095.02L1596.82 1088.18L1601.7 1095.02V1098.93L1598.77 1096V1103.82H1594.86V1096L1591.93 1098.93V1095.02Z"
        fill="white" />
    <path
        d="M1591.93 1164.45L1596.82 1171.29L1601.7 1164.45V1160.54L1598.77 1163.47V1155.65H1594.86V1163.47L1591.93 1160.54V1164.45Z"
        fill="white" />
    <path fill-rule="evenodd" clip-rule="evenodd"
        d="M1651.92 1085.58C1651.92 1084.32 1652.94 1083.29 1654.21 1083.29H1742.52C1743.78 1083.29 1744.81 1084.32 1744.81 1085.58V1173.89C1744.81 1175.16 1743.78 1176.18 1742.52 1176.18H1654.21C1652.94 1176.18 1651.92 1175.16 1651.92 1173.89V1085.58ZM1665.68 1091.32C1665.68 1090.68 1666.19 1090.17 1666.83 1090.17H1673.71C1674.34 1090.17 1674.85 1090.68 1674.85 1091.32V1168.16C1674.85 1168.79 1674.34 1169.3 1673.71 1169.3H1666.83C1666.19 1169.3 1665.68 1168.79 1665.68 1168.16V1091.32ZM1724.17 1090.17C1723.53 1090.17 1723.02 1090.68 1723.02 1091.32V1168.16C1723.02 1168.79 1723.53 1169.3 1724.17 1169.3H1731.05C1731.68 1169.3 1732.2 1168.79 1732.2 1168.16V1091.32C1732.2 1090.68 1731.68 1090.17 1731.05 1090.17H1724.17Z"
        fill="black" />
    <path fill-rule="evenodd" clip-rule="evenodd"
        d="M1654.21 1085.01C1653.89 1085.01 1653.64 1085.27 1653.64 1085.58V1173.89C1653.64 1174.21 1653.89 1174.46 1654.21 1174.46H1742.52C1742.83 1174.46 1743.09 1174.21 1743.09 1173.89V1085.58C1743.09 1085.27 1742.83 1085.01 1742.52 1085.01H1654.21ZM1663.96 1091.32C1663.96 1089.73 1665.24 1088.45 1666.83 1088.45H1673.71C1675.29 1088.45 1676.57 1089.73 1676.57 1091.32V1168.16C1676.57 1169.74 1675.29 1171.02 1673.71 1171.02H1666.83C1665.24 1171.02 1663.96 1169.74 1663.96 1168.16V1091.32ZM1721.3 1091.32C1721.3 1089.73 1722.58 1088.45 1724.17 1088.45H1731.05C1732.63 1088.45 1733.92 1089.73 1733.92 1091.32V1168.16C1733.92 1169.74 1732.63 1171.02 1731.05 1171.02H1724.17C1722.58 1171.02 1721.3 1169.74 1721.3 1168.16V1091.32ZM1654.21 1083.29C1652.94 1083.29 1651.92 1084.32 1651.92 1085.58V1173.89C1651.92 1175.16 1652.94 1176.18 1654.21 1176.18H1742.52C1743.78 1176.18 1744.81 1175.16 1744.81 1173.89V1085.58C1744.81 1084.32 1743.78 1083.29 1742.52 1083.29H1654.21ZM1666.83 1090.17C1666.19 1090.17 1665.68 1090.68 1665.68 1091.32V1168.16C1665.68 1168.79 1666.19 1169.3 1666.83 1169.3H1673.71C1674.34 1169.3 1674.85 1168.79 1674.85 1168.16V1091.32C1674.85 1090.68 1674.34 1090.17 1673.71 1090.17H1666.83ZM1723.02 1091.32C1723.02 1090.68 1723.53 1090.17 1724.17 1090.17H1731.05C1731.68 1090.17 1732.2 1090.68 1732.2 1091.32V1168.16C1732.2 1168.79 1731.68 1169.3 1731.05 1169.3H1724.17C1723.53 1169.3 1723.02 1168.79 1723.02 1168.16V1091.32Z"
        fill="white" />
    <path
        d="M1678.32 1111.98C1678.32 1110.72 1679.34 1109.69 1680.61 1109.69H1714.51C1715.78 1109.69 1716.8 1110.72 1716.8 1111.98V1149C1716.8 1150.27 1715.78 1151.3 1714.51 1151.3H1680.61C1679.34 1151.3 1678.32 1150.27 1678.32 1149V1111.98Z"
        fill="black" />
    <path fill-rule="evenodd" clip-rule="evenodd"
        d="M1714.51 1111.98H1680.61V1149H1714.51V1111.98ZM1680.61 1109.69C1679.34 1109.69 1678.32 1110.72 1678.32 1111.98V1149C1678.32 1150.27 1679.34 1151.3 1680.61 1151.3H1714.51C1715.78 1151.3 1716.8 1150.27 1716.8 1149V1111.98C1716.8 1110.72 1715.78 1109.69 1714.51 1109.69H1680.61Z"
        fill="white" />
    <path
        d="M1698.11 1142.76C1699.51 1142.76 1700.59 1142.19 1701.35 1141.07C1702.14 1139.91 1702.54 1138.45 1702.54 1136.68C1702.54 1134.84 1702.13 1133.39 1701.3 1132.33C1700.48 1131.24 1699.38 1130.69 1698.02 1130.69C1696.62 1130.69 1695.48 1131.24 1694.59 1132.33C1693.73 1133.43 1693.31 1134.84 1693.31 1136.58C1693.31 1138.45 1693.73 1139.94 1694.59 1141.07C1695.45 1142.19 1696.62 1142.76 1698.11 1142.76ZM1708.06 1121.61H1701.92C1701.76 1119.62 1700.65 1118.62 1698.59 1118.62C1696.91 1118.62 1695.64 1119.44 1694.78 1121.08C1693.92 1122.73 1693.4 1125.28 1693.21 1128.76C1694.89 1126.76 1697.05 1125.77 1699.68 1125.77C1702.25 1125.77 1704.38 1126.73 1706.06 1128.66C1707.77 1130.56 1708.63 1133.14 1708.63 1136.39C1708.63 1139.7 1707.66 1142.44 1705.73 1144.59C1703.79 1146.75 1701.29 1147.83 1698.21 1147.83C1690.81 1147.83 1687.12 1142.47 1687.12 1131.75C1687.12 1125.41 1688.07 1120.81 1689.97 1117.95C1691.91 1115.05 1694.88 1113.6 1698.87 1113.6C1701.44 1113.6 1703.54 1114.29 1705.16 1115.68C1706.77 1117.06 1707.74 1119.04 1708.06 1121.61Z"
        fill="white" />
    <path
        d="M1692.99 1095.02L1697.87 1088.18L1702.76 1095.02V1098.93L1699.83 1096V1103.82H1695.92V1096L1692.99 1098.93V1095.02Z"
        fill="white" />
    <path
        d="M1692.99 1164.45L1697.87 1171.29L1702.76 1164.45V1160.54L1699.83 1163.47V1155.65H1695.92V1163.47L1692.99 1160.54V1164.45Z"
        fill="white" />
    <rect x="1318.28" y="1279.12" width="73.7348" height="73.1788" rx="2.5" fill="#959595" stroke="black"
        stroke-width="3" />
    <path
        d="M1325.68 1334.05V1341.56H1384.89V1290.4H1369.88V1298.19H1360.71V1307.36H1352.37V1315.98H1342.08V1325.44H1334.57V1334.05H1325.68Z"
        fill="black" stroke="black" stroke-width="2" />
    <path
        d="M1367.66 1334.89H1364.04V1322.13H1360.26V1319.62C1363.43 1319.62 1364.49 1318.57 1364.71 1316.43H1367.66V1334.89Z"
        fill="#959595" />
    <rect x="1445.9" y="984.075" width="73.7348" height="73.1788" rx="2.5" fill="#959595" stroke="black"
        stroke-width="3" />
    <path
        d="M1453.29 1039.01V1046.52H1512.51V995.364H1497.5V1003.15H1488.33V1012.32H1479.98V1020.94H1469.7V1030.4H1462.19V1039.01H1453.29Z"
        fill="black" stroke="black" stroke-width="2" />
    <path
        d="M1499.38 1039.85H1487.22C1487.24 1038.05 1487.59 1036.51 1488.29 1035.22C1489.01 1033.93 1490.45 1032.51 1492.6 1030.97C1493.89 1030.03 1494.76 1029.28 1495.21 1028.71C1495.68 1028.13 1495.91 1027.47 1495.91 1026.72C1495.91 1025.16 1495.08 1024.37 1493.43 1024.37C1492.59 1024.37 1491.94 1024.62 1491.5 1025.1C1491.05 1025.59 1490.82 1026.4 1490.82 1027.55H1487.46C1487.46 1025.63 1487.97 1024.12 1488.99 1023.03C1490.02 1021.93 1491.44 1021.39 1493.27 1021.39C1495.14 1021.39 1496.61 1021.84 1497.69 1022.73C1498.78 1023.61 1499.33 1024.9 1499.33 1026.61C1499.33 1027.94 1498.96 1029.08 1498.22 1030.05C1497.49 1031.02 1496.13 1032.21 1494.16 1033.61C1493.46 1034.11 1492.88 1034.65 1492.41 1035.25C1491.96 1035.84 1491.72 1036.36 1491.68 1036.81H1499.38V1039.85Z"
        fill="#959595" />
    <rect x="858.084" y="1426.18" width="113.689" height="112.844" rx="2.5" fill="#125900" stroke="white"
        stroke-width="3" />
    <path
        d="M870.113 1510.51V1521.92H960.167V1444.13H937.336V1455.97H923.384V1469.92H910.701V1483.03H895.057V1497.4H883.642V1510.51H870.113Z"
        fill="white" stroke="white" stroke-width="2" />
    <path d="M941.733 1499.94H929.388V1511.78H923.511V1483.7H943.509V1488.61H929.388V1494.99H941.733V1499.94Z"
        fill="#125900" />
    <rect x="1575.25" y="754.763" width="109.796" height="108.978" rx="2.5" fill="#125900" stroke="white"
        stroke-width="3" />
    <path
        d="M1586.82 836.226V847.26H1673.87V772.063H1651.8V783.506H1638.32V796.992H1626.06V809.661H1610.94V823.556H1599.9V836.226H1586.82Z"
        fill="white" stroke="white" stroke-width="2" />
    <path
        d="M1659.04 837.452H1638.44V810.315H1658.38V815.056H1643.96V820.859H1657.24V825.641H1643.96V832.629H1659.04V837.452Z"
        fill="#125900" />
    <rect x="1763.9" y="1318.19" width="68.1855" height="67.6697" rx="2.5" fill="#125900" stroke="white"
        stroke-width="3" />
    <path
        d="M1770.65 1369.05V1376.01H1825.59V1328.56H1811.66V1335.78H1803.15V1344.29H1795.41V1352.29H1785.87V1361.06H1778.9V1369.05H1770.65Z"
        fill="white" stroke="white" stroke-width="2" />
    <path
        d="M1816.22 1369.82H1803.22V1352.7H1815.81V1355.69H1806.71V1359.35H1815.09V1362.37H1806.71V1366.78H1816.22V1369.82Z"
        fill="#125900" />
    <rect x="2387.05" y="1425.97" width="112.938" height="112.098" rx="2.5" fill="#125900" stroke="white"
        stroke-width="3" />
    <path
        d="M2398.99 1509.74V1521.08H2488.47V1443.79H2465.78V1455.55H2451.92V1469.41H2439.32V1482.44H2423.78V1496.72H2412.44V1509.74H2398.99Z"
        fill="white" stroke="white" stroke-width="2" />
    <path
        d="M2457.72 1506.25H2462.55C2465.07 1506.25 2466.9 1505.47 2468.05 1503.9C2469.23 1502.33 2469.82 1499.95 2469.82 1496.76C2469.82 1493.6 2469.22 1491.34 2468.01 1490C2466.83 1488.62 2464.85 1487.94 2462.05 1487.94H2457.72V1506.25ZM2463.73 1511H2452.05V1483.11H2462.84C2466.68 1483.11 2469.79 1484.34 2472.17 1486.8C2474.58 1489.27 2475.78 1492.59 2475.78 1496.76C2475.78 1501.02 2474.68 1504.46 2472.46 1507.09C2470.25 1509.7 2467.34 1511 2463.73 1511Z"
        fill="#125900" />
    <rect x="3087.11" y="461.429" width="109.359" height="108.545" rx="2.5" fill="#125900" stroke="white"
        stroke-width="3" />
    <path
        d="M3098.64 542.57V553.562H3185.35V478.655H3163.37V490.054H3149.93V503.488H3137.72V516.109H3122.66V529.95H3111.67V542.57H3098.64Z"
        fill="white" stroke="white" stroke-width="2" />
    <path
        d="M3168.21 534.509H3173.87C3173.3 537.63 3171.98 540.114 3169.92 541.959C3167.89 543.805 3165.32 544.728 3162.23 544.728C3158.54 544.728 3155.52 543.506 3153.19 541.064C3150.88 538.594 3149.73 535.106 3149.73 530.601C3149.73 526.042 3150.86 522.446 3153.11 519.813C3155.36 517.181 3158.43 515.864 3162.31 515.864C3165.59 515.864 3168.27 516.787 3170.33 518.633C3172.42 520.478 3173.6 522.812 3173.87 525.635H3168.21C3167.83 524.142 3167.1 522.961 3166.01 522.093C3164.93 521.197 3163.71 520.749 3162.35 520.749C3160.07 520.749 3158.35 521.591 3157.18 523.273C3156.04 524.929 3155.47 527.263 3155.47 530.276C3155.47 533.315 3156.03 535.663 3157.14 537.318C3158.25 538.974 3159.89 539.802 3162.06 539.802C3165.35 539.802 3167.4 538.038 3168.21 534.509Z"
        fill="#125900" />
    <rect x="1612" y="579.031" width="75.6789" height="73.8056" rx="3.5" fill="black" stroke="white" stroke-width="3" />
    <path
        d="M1638.87 592.049C1638.87 594.894 1636.57 597.201 1633.72 597.201C1630.88 597.201 1628.57 594.894 1628.57 592.049C1628.57 589.204 1630.88 586.898 1633.72 586.898C1636.57 586.898 1638.87 589.204 1638.87 592.049Z"
        fill="white" />
    <path
        d="M1623.89 599.99C1624.35 598.116 1633.72 598.587 1633.72 598.587C1633.72 598.587 1643.09 598.116 1643.66 599.667C1643.66 599.667 1643.91 621.238 1643.66 621.473C1643.66 621.473 1642.24 623.843 1640.82 621.473V603.459H1638.93V643.753C1638.45 646.597 1635.14 646.597 1635.14 643.753V620.596H1632.32V643.544C1632.32 646.354 1629.04 646.354 1628.57 643.544V603.736H1626.7V621.533C1625.29 623.874 1623.89 621.533 1623.89 621.533C1623.64 621.301 1623.42 601.863 1623.89 599.99Z"
        fill="white" />
    <path
        d="M1633.72 598.585V598.587M1633.72 598.587C1633.72 598.587 1624.35 598.116 1623.89 599.99C1623.42 601.863 1623.64 621.301 1623.89 621.533C1623.89 621.533 1625.29 623.874 1626.7 621.533V603.736H1628.57V643.544C1629.04 646.354 1632.32 646.354 1632.32 643.544V620.596H1635.14V643.753C1635.14 646.597 1638.45 646.597 1638.93 643.753V603.459H1640.82V621.473C1642.24 623.843 1643.66 621.473 1643.66 621.473C1643.91 621.238 1643.66 599.667 1643.66 599.667C1643.09 598.116 1633.72 598.587 1633.72 598.587ZM1638.87 592.049C1638.87 594.894 1636.57 597.201 1633.72 597.201C1630.88 597.201 1628.57 594.894 1628.57 592.049C1628.57 589.204 1630.88 586.898 1633.72 586.898C1636.57 586.898 1638.87 589.204 1638.87 592.049Z"
        stroke="white" />
    <path
        d="M1656.39 614.529L1658.73 629.515H1668.57L1675.13 641.223L1679.81 638.413C1683.18 635.416 1678.09 635.604 1675.13 636.072L1669.97 627.174H1662.48V624.364C1666.23 624.364 1668.57 624.364 1669.51 623.895C1669.79 623.755 1669.66 622.334 1669.04 622.022H1661.08L1660.61 616.402L1661.54 615.934C1665.76 614.997 1664.35 608.909 1660.14 609.377C1656.77 609.752 1656.24 612.968 1656.39 614.529Z"
        fill="white" stroke="white" />
    <path
        d="M1655.69 625.3C1652.75 627.036 1650.77 630.28 1650.77 633.995C1650.77 639.539 1655.18 644.033 1660.61 644.033C1662.82 644.033 1664.87 643.286 1666.51 642.026C1667.86 640.991 1668.94 639.609 1669.62 638.011"
        stroke="white" stroke-width="4" />
    <rect x="1481.26" y="578.563" width="75.6789" height="73.8056" rx="3.5" fill="black" stroke="white"
        stroke-width="3" />
    <path
        d="M1508.13 591.581C1508.13 594.426 1505.83 596.732 1502.98 596.732C1500.13 596.732 1497.83 594.426 1497.83 591.581C1497.83 588.736 1500.13 586.429 1502.98 586.429C1505.83 586.429 1508.13 588.736 1508.13 591.581Z"
        fill="white" />
    <path
        d="M1502.98 596.732C1505.83 596.732 1508.13 594.426 1508.13 591.581C1508.13 588.736 1505.83 586.429 1502.98 586.429C1500.13 586.429 1497.83 588.736 1497.83 591.581C1497.83 594.426 1500.13 596.732 1502.98 596.732Z"
        fill="white" />
    <path
        d="M1493.15 599.521C1493.61 597.648 1502.98 598.118 1502.98 598.118C1502.98 598.118 1512.2 597.697 1512.68 599.578C1513.15 601.46 1518.4 617.241 1518.15 617.473C1518.15 617.473 1516.73 619.825 1515.32 617.473L1509.84 603.341H1507.95L1515.32 623.588H1507.95V643.322C1507.48 646.144 1504.17 646.144 1504.17 643.322V623.588H1501.57V643.076C1501.57 645.886 1498.3 645.886 1497.83 643.076V623.427H1490.53L1497.83 603.268H1495.96L1490.53 617.339C1489.12 619.68 1487.72 617.339 1487.72 617.339C1487.47 617.107 1492.68 601.395 1493.15 599.521Z"
        fill="white" />
    <path
        d="M1502.98 598.116V598.118M1502.98 598.118C1502.98 598.118 1493.61 597.648 1493.15 599.521C1492.68 601.395 1487.47 617.107 1487.72 617.339C1487.72 617.339 1489.12 619.68 1490.53 617.339L1495.96 603.268H1497.83L1490.53 623.427H1497.83V643.076C1498.3 645.886 1501.57 645.886 1501.57 643.076V623.588H1504.17V643.322C1504.17 646.144 1507.48 646.144 1507.95 643.322V623.588H1515.32L1507.95 603.341H1509.84L1515.32 617.473C1516.73 619.825 1518.15 617.473 1518.15 617.473C1518.4 617.241 1513.15 601.46 1512.68 599.578C1512.2 597.697 1502.98 598.118 1502.98 598.118ZM1508.13 591.581C1508.13 594.426 1505.83 596.732 1502.98 596.732C1500.13 596.732 1497.83 594.426 1497.83 591.581C1497.83 588.736 1500.13 586.429 1502.98 586.429C1505.83 586.429 1508.13 588.736 1508.13 591.581Z"
        stroke="white" />
    <path
        d="M1525.65 614.06L1527.99 629.047H1537.83L1544.39 640.755L1549.07 637.945C1552.44 634.948 1547.35 635.135 1544.39 635.604L1539.23 626.705H1531.74V623.895C1535.49 623.895 1537.83 623.895 1538.77 623.427C1539.05 623.286 1538.92 621.866 1538.3 621.554H1530.34L1529.87 615.934L1530.8 615.465C1535.02 614.529 1533.61 608.441 1529.4 608.909C1526.03 609.284 1525.5 612.499 1525.65 614.06Z"
        fill="white" stroke="white" />
    <path
        d="M1524.95 624.832C1522.01 626.568 1520.03 629.812 1520.03 633.527C1520.03 639.071 1524.44 643.565 1529.87 643.565C1532.08 643.565 1534.13 642.818 1535.77 641.557C1537.12 640.522 1538.2 639.141 1538.88 637.542"
        stroke="white" stroke-width="4" />
    <rect x="1248.54" y="786.981" width="85.8611" height="83.7454" rx="3.5" fill="black" stroke="white"
        stroke-width="3" />
    <path
        d="M1255.72 804.008C1255.72 801.799 1257.51 800.008 1259.72 800.008H1287.58C1289.79 800.008 1291.58 801.799 1291.58 804.008V825.195C1291.58 825.748 1291.13 826.195 1290.58 826.195H1256.72C1256.16 826.195 1255.72 825.748 1255.72 825.195V804.008Z"
        fill="white" />
    <path
        d="M1287.32 831.576C1287.32 833.208 1281.2 834.531 1273.65 834.531C1266.1 834.531 1259.98 833.208 1259.98 831.576C1259.98 829.944 1266.1 828.621 1273.65 828.621C1281.2 828.621 1287.32 829.944 1287.32 831.576Z"
        fill="white" />
    <path
        d="M1263.48 859.586H1273.56L1283.64 859.586C1283.82 850.107 1282.63 846.096 1278.15 849.448C1277.14 850.202 1275.21 850.63 1273.56 850.602C1271.91 850.63 1269.98 850.202 1268.97 849.448C1264.5 846.096 1263.31 850.107 1263.48 859.586Z"
        fill="white" />
    <path
        d="M1273.54 836.643C1282.34 836.643 1289.48 834.99 1289.48 832.951C1289.48 854.808 1257.59 854.848 1257.59 832.951C1257.59 834.99 1264.73 836.643 1273.54 836.643Z"
        fill="white" />
    <path d="M1287.66 804.526H1259.62" stroke="black" />
    <ellipse cx="1262.09" cy="807.973" rx="3.3005" ry="1.37289" transform="rotate(34.0796 1262.09 807.973)"
        fill="black" />
    <path
        d="M1316.11 833.798L1313.77 848.785H1303.93L1297.38 860.493L1292.69 857.683C1289.32 854.686 1294.41 854.873 1297.38 855.341L1302.53 846.443H1310.02V843.633C1306.28 843.633 1303.93 843.633 1303 843.165C1302.72 843.024 1302.84 841.604 1303.47 841.291H1311.43L1311.9 835.671L1310.96 835.203C1306.74 834.266 1308.15 828.178 1312.36 828.647C1315.74 829.021 1316.27 832.237 1316.11 833.798Z"
        fill="white" stroke="white" />
    <path
        d="M1316.81 844.57C1319.75 846.305 1321.73 849.549 1321.73 853.265C1321.73 858.809 1317.33 863.303 1311.9 863.303C1309.68 863.303 1307.64 862.556 1305.99 861.295C1304.64 860.26 1303.56 858.878 1302.88 857.28"
        stroke="white" stroke-width="4" />
    <path
        d="M1324.25 806.955C1324.25 814.765 1318.62 821.097 1311.68 821.097C1304.73 821.097 1299.11 814.765 1299.11 806.955C1299.11 804.6 1299.62 802.379 1300.52 800.425L1322.83 800.425C1323.73 802.379 1324.25 804.6 1324.25 806.955Z"
        fill="white" />
    <rect x="1296.86" y="804.107" width="9.43823" height="4.06334" rx="2.03167" fill="white" stroke="black"
        stroke-width="0.5" />
    <rect x="1317.09" y="804.107" width="9.40372" height="4.06334" rx="2.03167" fill="white" stroke="black"
        stroke-width="0.5" />
    <path
        d="M1302.54 811.837C1306.42 812.059 1307.7 813.421 1307.96 817.348C1308.63 812.756 1307.47 811.525 1302.54 811.837Z"
        fill="black" />
    <path
        d="M1320.81 811.837C1316.94 812.059 1315.66 813.421 1315.39 817.348C1314.73 812.756 1315.88 811.525 1320.81 811.837Z"
        fill="black" />
    <rect x="2958.07" y="1084.5" width="177" height="173" rx="3" fill="black" stroke="white" stroke-width="4" />
    <path
        d="M3014.08 1177.91H3022.98C3022.08 1182.82 3020.01 1186.72 3016.77 1189.62C3013.57 1192.52 3009.54 1193.97 3004.67 1193.97C2998.87 1193.97 2994.14 1192.05 2990.47 1188.21C2986.84 1184.33 2985.03 1178.85 2985.03 1171.77C2985.03 1164.6 2986.8 1158.94 2990.34 1154.81C2993.88 1150.67 2998.7 1148.6 3004.8 1148.6C3009.97 1148.6 3014.17 1150.05 3017.41 1152.95C3020.7 1155.85 3022.55 1159.52 3022.98 1163.96H3014.08C3013.49 1161.61 3012.33 1159.75 3010.63 1158.39C3008.92 1156.98 3007 1156.28 3004.87 1156.28C3001.28 1156.28 2998.57 1157.6 2996.74 1160.25C2994.95 1162.85 2994.05 1166.52 2994.05 1171.25C2994.05 1176.03 2994.93 1179.72 2996.67 1182.33C2998.42 1184.93 3001.01 1186.23 3004.42 1186.23C3009.58 1186.23 3012.8 1183.46 3014.08 1177.91ZM3040.6 1192.5H3032.28V1163.13H3023.57V1157.37C3027.11 1157.37 3029.63 1156.79 3031.12 1155.64C3032.66 1154.44 3033.56 1152.57 3033.81 1150.01H3040.6V1192.5ZM3059.21 1176.76V1161.78L3050.51 1176.76H3059.21ZM3067.34 1192.5H3059.02V1183.22H3042.51V1175.99L3058 1150.01H3067.34V1176.76H3072.14V1183.22H3067.34V1192.5ZM3088.5 1187.25C3090.55 1187.25 3092.06 1186.02 3093.04 1183.54C3094.03 1181.07 3094.52 1176.99 3094.52 1171.32C3094.52 1165.56 3094.03 1161.44 3093.04 1158.97C3092.06 1156.49 3090.55 1155.25 3088.5 1155.25C3086.41 1155.25 3084.87 1156.49 3083.89 1158.97C3082.91 1161.4 3082.42 1165.47 3082.42 1171.19C3082.42 1176.95 3082.91 1181.07 3083.89 1183.54C3084.87 1186.02 3086.41 1187.25 3088.5 1187.25ZM3088.24 1193.97C3078.6 1193.97 3073.78 1186.34 3073.78 1171.06C3073.78 1156.09 3078.6 1148.6 3088.24 1148.6C3098.06 1148.6 3102.96 1156.04 3102.96 1170.93C3102.96 1178.66 3101.68 1184.44 3099.12 1188.28C3096.56 1192.07 3092.94 1193.97 3088.24 1193.97Z"
        fill="white" />
</svg>