<svg width="3460" height="1564" viewBox="0 0 3460 1564" fill="none" xmlns="http://www.w3.org/2000/svg">
    <path d="M296.051 509.694L395 414.36L666.736 678.039L557.802 783.826L479.038 702.622L296.051 509.694Z"
        fill="#76CCF1" />
    <path d="M19.8474 1118.83V580.134H250.399L333.965 655.493L307.851 679.369V1118.83H19.8474Z" fill="#76CCF1" />
    <path d="M308.616 1118.83V1551.9H24.5632V1118.83H308.616Z" fill="#76CCF1" />
    <path d="M455.583 1182.26V1555.32H308.597V1182.26H455.583Z" fill="#76CCF1" />
    <path d="M781.638 1182.26H455.583V1551.9H781.638V1182.26Z" fill="#76CCF1" />
    <path d="M812.744 1182.81L917.708 1279.56V1553.98H782.393V1182.81H812.744Z" fill="#76CCF1" />
    <path d="M1202.1 1293H1030.11V1553.51H1202.1V1293Z" fill="#76CCF1" />
    <path d="M1377.28 1293H1205.29V1553.51H1377.28V1293Z" fill="#76CCF1" />
    <path d="M1557.78 1293H1382.64V1553.51H1557.78V1293Z" fill="#76CCF1" />
    <path d="M1736.11 1293H1560.97V1553.51H1736.11V1293Z" fill="#76CCF1" />
    <path d="M1914.44 1293H1739.3V1553.51H1914.44V1293Z" fill="#76CCF1" />
    <path d="M2095.85 1293H1914.71V1553.51H2095.85V1293Z" fill="#76CCF1" />
    <path d="M2271.41 1293H2096.12V1553.51H2271.41V1293Z" fill="#76CCF1" />
    <path d="M2453.01 1293H2271.68V1553.51H2453.01V1293Z" fill="#76CCF1" />
    <path d="M2679.62 1175.43V1553.87H2567.85V1272.62L2672.94 1170.57L2679.62 1175.43Z" fill="#76CCF1" />
    <path d="M2925.64 1365.56V1553.87H2680.23V1365.56H2925.64Z" fill="#76CCF1" />
    <path d="M2682.05 1365.56H2925.64V1173L2682.05 1171.78V1365.56Z" fill="#76CCF1" />
    <path d="M3186.39 1425.38H2927.53V1554.96H3453.18V799.714H3186.39V1425.38Z" fill="#76CCF1" />
    <path d="M2988.76 1425.17V1188.95H3186.5V1425.17H2988.76Z" fill="#76CCF1" />
    <path d="M2988.76 1190.75V955.869H3185.16V1190.75H2988.76Z" fill="#76CCF1" />
    <path d="M3293.51 796.69V691.739H3443.66V796.69H3293.51Z" fill="#76CCF1" />
    <path d="M3293.51 691.739V584.106H3439.06V691.739H3293.51Z" fill="#76CCF1" />
    <path d="M3442.89 394.504H3293.51V584.872H3442.89V394.504Z" fill="#76CCF1" />
    <path d="M3441.75 246.27H3293.13V393.355H3441.75V246.27Z" fill="#76CCF1" />
    <path d="M2961.8 254.696H3194.3V515.543H2961.8V254.696Z" fill="#76CCF1" />
    <path d="M3077.86 514.777V646.157L2963.33 644.242V514.777H3077.86Z" fill="#76CCF1" stroke="black" />
    <path d="M665.382 682.296L560.987 782.598L781.036 1002.65L886.455 898.252L665.382 682.296Z" fill="#76CCF1" />
    <path
        d="M677.009 688.491L780.947 998.423M870.306 879.435L559.433 783.963M913.574 934.931L1489.23 1171.5M1155.78 1179.96L1820.8 932.11M1883.35 932.11L2240.78 1028.99M1883.35 1092.95L2491.45 935.872M3432.05 395.667L3292.43 575.877M3292.43 395.667L3442.33 579.665M2959.07 645.147L3079.75 515.807M2959.07 515.807L3079.75 645.147M832.803 1205.8L791.132 1252.88M791.132 1205.8L832.803 1249.64"
        stroke="black" stroke-width="2" />
    <path
        d="M127.555 522.43V572.43M139.182 522.925V572.43M149.416 522.925V571.935M160.558 522.43V572.43M172.184 522.925V572.43M182.841 522.925V571.935M193.983 522.925V571.935M164.757 523.919L123.441 573.689"
        stroke="black" stroke-width="2" />
    <path
        d="M137.483 517.586H125.983V463.716H137.483M137.483 517.586V463.716M137.483 517.586H149.483M137.483 463.716H149.483M149.483 463.716V517.586M149.483 463.716H159.983M149.483 517.586H159.983M159.983 517.586V463.716M159.983 517.586H171.983M159.983 463.716H171.983M171.983 517.586V463.716M171.983 517.586H182.983M171.983 463.716H182.983M182.983 517.586V463.716M182.983 517.586H193.983V463.716H182.983"
        stroke="black" stroke-width="2" />
    <path
        d="M3099.98 595.932L3190.15 595.932M3190.15 630.902L3098.58 630.902M3098.58 621.865L3190.15 621.865M3190.15 587.404L3101.85 587.404M3190.15 579.269L3101.85 579.269M3190.15 570.895L3098.58 570.895M3190.15 561.521L3099.98 561.521M3077.35 638.544L3190.15 638.544M3099.98 613.287L3190.15 613.287M3099.98 604.722L3190.15 604.722"
        stroke="black" stroke-width="2" />
    <path
        d="M2560.7 1436.06L2510.26 1436.06M2510.26 1427.06L2560.7 1427.06M2560.7 1417.56L2510.26 1417.56M2560.7 1407.56L2510.26 1407.56M2560.7 1397.56L2510.26 1397.56M2560.7 1389.56L2510.26 1389.56"
        stroke="black" stroke-width="2" />
    <path
        d="M2509.38 1424.73L2458.88 1424.73M2508.88 1415.73L2458.88 1415.73M2508.88 1405.73L2459.38 1405.73M2508.88 1397.23L2459.38 1397.23M2509.38 1386.73L2458.88 1386.73M2508.88 1377.73L2458.88 1377.73M2508.88 1367.73L2459.38 1367.73M2508.88 1358.23L2459.38 1358.23M2510.76 1434.48L2458.88 1434.48M2471.09 1448.56L2510.76 1422.5"
        stroke="black" stroke-width="2" />
    <path
        d="M973.206 1413.38L921.721 1413.38M973.206 1404.38L922.236 1404.38M973.206 1394.88L922.236 1394.88M973.721 1385.38L921.721 1385.38M973.206 1375.38L921.721 1375.38M973.206 1366.38L922.236 1366.38M973.206 1356.88L922.236 1356.88M973.206 1423.57L921.721 1423.57M973.206 1432.28L921.721 1432.28M973.721 1420.43L937.817 1445.58"
        stroke="black" stroke-width="2" />
    <path
        d="M973.721 1423.7L973.721 1432.7L1024.93 1432.7L1024.93 1423.7M973.721 1423.7L1024.93 1423.7M973.721 1423.7L973.721 1413.2M1024.93 1423.7L1024.93 1413.2M1024.93 1413.2L973.721 1413.2M1024.93 1413.2L1024.93 1404.2M973.721 1413.2L973.721 1404.2M1024.93 1404.2L973.721 1404.2M1024.93 1404.2L1024.93 1395.2M973.721 1404.2L973.721 1395.2M1024.93 1395.2L973.721 1395.2M1024.93 1395.2L1024.93 1385.2L973.721 1385.2L973.721 1395.2"
        stroke="black" stroke-width="2" />
    <path
        d="M2239.64 1175.71V1095.58M2273.69 1175.71V1095.58M2212.19 1175.71V1095.58M2230.65 1175.71V1095.58M2249.74 1175.71V1095.58M2262.68 1175.71V1095.58M2362.94 1175.71V1095.58M2319.83 1175.71V1095.58M2330.1 1175.71V1095.58M2340.76 1175.71V1095.58M2352.22 1175.71V1095.58M2194.42 1175.71V1095.58M2394.93 1175.71V1095.58M2374.8 1175.71V1095.58M2384.86 1175.71V1095.58M2221.64 1175.71V1097.8M2221.64 1095.58V1097.8M2203.58 1175.71V1095.58M2221.64 1097.8L2258.94 1174.2"
        stroke="black" stroke-width="2" />
    <path
        d="M332.131 212.934V349.468L395.768 411.836M888.504 894.745L395.768 411.836M395.768 411.836L294.085 512.157M294.085 512.157L404.384 624.764M294.085 512.157L240.088 458.161H7.02783V576.306H19.95M255.78 576.306H19.95M19.95 576.306V1556.59H783.179M3444.19 799.085H3453.12V1556.59H2678.47M3444.19 799.085V241.617H3289.42M3444.19 799.085H3278.85M3242.46 799.085H3052.89L3025.56 826.766M2944.95 907.382L2906.65 945.684M2699.86 1143.26L2678.47 1164.33M2590.41 1251.08L2678.47 1164.33M2678.47 1164.33V1556.59M2678.47 1556.59H2566.44M2566.44 1556.59V1296.45H2545.2M2566.44 1556.59H2453.17M2508.17 1296.45H2453.17V1556.59M2453.17 1556.59H1029.78M1530.81 1192.38H1497.43V1095.49H1605.31M1776.3 1192.38H1814.16V1095.49H1705.05M1732.33 1192.38H1705.05M1673.71 1192.38H1705.05M1634.62 1192.38H1605.31M1576 1192.38H1605.31M1605.31 1192.38V1095.49M1605.31 1095.49H1705.05M1705.05 1192.38V1095.49M1491.9 1181.63V1092.26H1817.62V1188.41M133.293 518.609H195M783.179 1556.59V1184.31M783.179 1556.59H916.589M916.589 1556.59V1277.97H931.295M916.589 1556.59H1029.78M965.164 1293.12H1029.78V1556.59M3175.46 710.098H3192.73V433.442"
        stroke="black" stroke-width="13" />
    <path
        d="M429.426 659.675L536.564 553.197M457.476 567.882L400.342 625.016L386.068 610.374L369.39 625.016M511.962 638.237L462.487 687.711L558.355 782.099M843.276 1062.62L781.462 1001.76M558.355 782.099L667.321 679.659M558.355 782.099L781.462 1001.76M781.462 1001.76L881.215 902.607M893.424 890.472L881.215 902.607M881.215 902.607L1156.32 1179.82H1491.67M1820.58 1089.56V931.146H909.537M308.789 1074.14V683.633M308.789 1111.17V1118.97M308.789 1128.77V1118.97M308.789 1162.6V1182.76M308.789 1556.35V1182.76M342.02 649.044L334.185 655.922M334.185 655.922L308.789 678.217V683.633M334.185 655.922L252.534 575.84M308.789 683.633H279.598M245.301 683.633H25.0483M308.789 1118.97H24.5632M308.789 1182.76H357.263M407.729 1182.76H455.204M731.831 1182.76H455.204M768.092 1182.76H812.576L832.808 1201.36M914.255 1276.22L905.076 1267.78M891.651 1255.44L885.772 1250.04M455.204 1182.76V1554.18M885.772 1250.04H832.808M885.772 1250.04L832.808 1201.36M788.319 1250.04H832.808M832.808 1250.04V1205.12M832.808 1201.36V1205.12M832.808 1205.12H788.319M914.255 1356.82H901.962M872.183 1356.82H787.987M974.143 1353.54V1447.95M1035.49 1293.43H1162.51M1194.27 1293.43H1202.55M1207.85 1293.43H1202.55M1242.11 1293.43H1380.14M1520.21 1293.43H1380.14M1552 1293.43H1558.29M1565.39 1293.43H1558.29M1596.86 1293.43H1738.72M1875.01 1293.43H1738.72M1907.48 1293.43H1913.7M1921.87 1293.43H1913.7M1955.35 1293.43H2096.49M2234.17 1293.43H2096.49M2264.3 1293.43H2273.17M2278.36 1293.43H2273.17M2314.51 1293.43H2449.23M1202.55 1553.46V1293.43M1380.14 1293.43V1553.46M1558.29 1553.46V1293.43M1738.72 1553.46V1293.43M1913.7 1553.46V1293.43M2096.49 1553.46V1293.43M2273.17 1553.46V1293.43M2493.54 931.146H1883.21V1092.5H2183.24M2493.54 931.146H2666.36L2713.57 884.822M2493.54 931.146V1092.5H2183.24M2183.24 1092.5V1177.06H2412.32M3140.43 712.279H2889.45L2739.17 859.902M3194.88 434.342V387.719M3194.88 345.474V253.549H2961.76V364.069M2961.76 514.715V646.159H3078.69V514.715M2961.76 514.715H3078.69M2961.76 514.715V364.069M3190.25 514.715H3078.69M2961.76 364.069H3140.19M3140.19 364.069V469.453H3117.33M3140.19 364.069V296.175H3121.88M3292.92 795.584V734.157M3292.92 699.233V691.307M3292.92 683.382V691.307M3292.92 651.925V584.196M3292.92 387.719V394.869M3292.92 345.474V235.166M3292.92 394.869H3439.53M3292.92 394.869V584.196M3292.92 584.196H3440.93M3292.92 691.307H3443.06M3131.87 558.344V641.81M3187.07 803.891V952.774M2973.25 1425.08H2988.33M2934.92 1425.08H2926.43M2926.43 1552.67V1425.08M2926.43 1408.92V1425.08M2926.43 1376.34V1365.16M2926.43 1356.35V1365.16M2926.43 1326.23V1170.71H2704.29M2683.29 1170.71H2704.29M2704.29 1170.71V1145.78H2696.33M2926.43 1365.16H2682.47M2988.33 1425.08H3187.07V1188.99M2988.33 1425.08V1228.44M2988.33 1195.72V1188.99M2988.33 1182.26V1188.99M2988.33 1146.53V952.774H3187.07M3187.07 952.774V1188.99M2988.33 1188.99H3187.07M2674.2 1353.17H2609.04M2576.38 1353.17H2567.55M2510.2 1354.27V1445.44"
        stroke="black" stroke-width="7" />
    <path fill-rule="evenodd" clip-rule="evenodd"
        d="M1503.19 1104.23C1503.19 1103.09 1504.11 1102.16 1505.26 1102.16H1585.02C1586.16 1102.16 1587.09 1103.09 1587.09 1104.23V1184C1587.09 1185.14 1586.16 1186.07 1585.02 1186.07H1505.26C1504.11 1186.07 1503.19 1185.14 1503.19 1184V1104.23ZM1515.62 1109.41C1515.62 1108.84 1516.08 1108.38 1516.65 1108.38H1522.87C1523.44 1108.38 1523.9 1108.84 1523.9 1109.41V1178.82C1523.9 1179.39 1523.44 1179.85 1522.87 1179.85H1516.65C1516.08 1179.85 1515.62 1179.39 1515.62 1178.82V1109.41ZM1568.45 1108.38C1567.87 1108.38 1567.41 1108.84 1567.41 1109.41V1178.82C1567.41 1179.39 1567.87 1179.85 1568.45 1179.85H1574.66C1575.23 1179.85 1575.7 1179.39 1575.7 1178.82V1109.41C1575.7 1108.84 1575.23 1108.38 1574.66 1108.38H1568.45Z"
        fill="black" />
    <path fill-rule="evenodd" clip-rule="evenodd"
        d="M1505.26 1103.71C1504.97 1103.71 1504.74 1103.95 1504.74 1104.23V1184C1504.74 1184.28 1504.97 1184.51 1505.26 1184.51H1585.02C1585.31 1184.51 1585.54 1184.28 1585.54 1184V1104.23C1585.54 1103.95 1585.31 1103.71 1585.02 1103.71H1505.26ZM1514.06 1109.41C1514.06 1107.98 1515.22 1106.82 1516.65 1106.82H1522.87C1524.3 1106.82 1525.46 1107.98 1525.46 1109.41V1178.82C1525.46 1180.25 1524.3 1181.41 1522.87 1181.41H1516.65C1515.22 1181.41 1514.06 1180.25 1514.06 1178.82V1109.41ZM1565.86 1109.41C1565.86 1107.98 1567.02 1106.82 1568.45 1106.82H1574.66C1576.09 1106.82 1577.25 1107.98 1577.25 1109.41V1178.82C1577.25 1180.25 1576.09 1181.41 1574.66 1181.41H1568.45C1567.02 1181.41 1565.86 1180.25 1565.86 1178.82V1109.41ZM1505.26 1102.16C1504.11 1102.16 1503.19 1103.09 1503.19 1104.23V1184C1503.19 1185.14 1504.11 1186.07 1505.26 1186.07H1585.02C1586.16 1186.07 1587.09 1185.14 1587.09 1184V1104.23C1587.09 1103.09 1586.16 1102.16 1585.02 1102.16H1505.26ZM1516.65 1108.38C1516.08 1108.38 1515.62 1108.84 1515.62 1109.41V1178.82C1515.62 1179.39 1516.08 1179.85 1516.65 1179.85H1522.87C1523.44 1179.85 1523.9 1179.39 1523.9 1178.82V1109.41C1523.9 1108.84 1523.44 1108.38 1522.87 1108.38H1516.65ZM1567.41 1109.41C1567.41 1108.84 1567.87 1108.38 1568.45 1108.38H1574.66C1575.23 1108.38 1575.7 1108.84 1575.7 1109.41V1178.82C1575.7 1179.39 1575.23 1179.85 1574.66 1179.85H1568.45C1567.87 1179.85 1567.41 1179.39 1567.41 1178.82V1109.41Z"
        fill="white" />
    <path
        d="M1527.03 1128.08C1527.03 1126.94 1527.96 1126.01 1529.1 1126.01H1559.72C1560.87 1126.01 1561.79 1126.94 1561.79 1128.08V1161.52C1561.79 1162.66 1560.87 1163.59 1559.72 1163.59H1529.1C1527.96 1163.59 1527.03 1162.66 1527.03 1161.52V1128.08Z"
        fill="black" />
    <path fill-rule="evenodd" clip-rule="evenodd"
        d="M1559.72 1128.08H1529.1V1161.52H1559.72L1559.72 1128.08ZM1529.1 1126.01C1527.96 1126.01 1527.03 1126.94 1527.03 1128.08V1161.52C1527.03 1162.66 1527.96 1163.59 1529.1 1163.59H1559.72C1560.87 1163.59 1561.79 1162.66 1561.79 1161.52V1128.08C1561.79 1126.94 1560.87 1126.01 1559.72 1126.01H1529.1Z"
        fill="white" />
    <path
        d="M1545.21 1138.11L1538.87 1149.01H1545.21V1138.11ZM1545.07 1160.48V1153.72H1533.05V1148.45L1544.33 1129.53H1551.13V1149.01H1554.63V1153.72H1551.13V1160.48H1545.07Z"
        fill="white" />
    <path
        d="M1540.28 1112.76L1544.7 1106.58L1549.11 1112.76V1116.29L1546.46 1113.64V1120.71H1542.93V1113.64L1540.28 1116.29V1112.76Z"
        fill="white" />
    <path
        d="M1540.28 1175.47L1544.7 1181.65L1549.11 1175.47V1171.94L1546.46 1174.59V1167.52H1542.93V1174.59L1540.28 1171.94V1175.47Z"
        fill="white" />
    <path fill-rule="evenodd" clip-rule="evenodd"
        d="M1613.39 1104.23C1613.39 1103.09 1614.32 1102.16 1615.46 1102.16H1695.23C1696.37 1102.16 1697.3 1103.09 1697.3 1104.23V1184C1697.3 1185.14 1696.37 1186.07 1695.23 1186.07H1615.46C1614.32 1186.07 1613.39 1185.14 1613.39 1184V1104.23ZM1625.82 1109.41C1625.82 1108.84 1626.29 1108.38 1626.86 1108.38H1633.07C1633.65 1108.38 1634.11 1108.84 1634.11 1109.41V1178.82C1634.11 1179.39 1633.65 1179.85 1633.07 1179.85H1626.86C1626.29 1179.85 1625.82 1179.39 1625.82 1178.82V1109.41ZM1678.65 1108.38C1678.08 1108.38 1677.62 1108.84 1677.62 1109.41V1178.82C1677.62 1179.39 1678.08 1179.85 1678.65 1179.85H1684.87C1685.44 1179.85 1685.9 1179.39 1685.9 1178.82V1109.41C1685.9 1108.84 1685.44 1108.38 1684.87 1108.38H1678.65Z"
        fill="black" />
    <path fill-rule="evenodd" clip-rule="evenodd"
        d="M1615.46 1103.71C1615.18 1103.71 1614.95 1103.95 1614.95 1104.23V1184C1614.95 1184.28 1615.18 1184.51 1615.46 1184.51H1695.23C1695.51 1184.51 1695.74 1184.28 1695.74 1184V1104.23C1695.74 1103.95 1695.51 1103.71 1695.23 1103.71H1615.46ZM1624.27 1109.41C1624.27 1107.98 1625.43 1106.82 1626.86 1106.82H1633.07C1634.5 1106.82 1635.66 1107.98 1635.66 1109.41V1178.82C1635.66 1180.25 1634.5 1181.41 1633.07 1181.41H1626.86C1625.43 1181.41 1624.27 1180.25 1624.27 1178.82V1109.41ZM1676.06 1109.41C1676.06 1107.98 1677.22 1106.82 1678.65 1106.82H1684.87C1686.3 1106.82 1687.46 1107.98 1687.46 1109.41V1178.82C1687.46 1180.25 1686.3 1181.41 1684.87 1181.41H1678.65C1677.22 1181.41 1676.06 1180.25 1676.06 1178.82V1109.41ZM1615.46 1102.16C1614.32 1102.16 1613.39 1103.09 1613.39 1104.23V1184C1613.39 1185.14 1614.32 1186.07 1615.46 1186.07H1695.23C1696.37 1186.07 1697.3 1185.14 1697.3 1184V1104.23C1697.3 1103.09 1696.37 1102.16 1695.23 1102.16H1615.46ZM1626.86 1108.38C1626.29 1108.38 1625.82 1108.84 1625.82 1109.41V1178.82C1625.82 1179.39 1626.29 1179.85 1626.86 1179.85H1633.07C1633.65 1179.85 1634.11 1179.39 1634.11 1178.82V1109.41C1634.11 1108.84 1633.65 1108.38 1633.07 1108.38H1626.86ZM1677.62 1109.41C1677.62 1108.84 1678.08 1108.38 1678.65 1108.38H1684.87C1685.44 1108.38 1685.9 1108.84 1685.9 1109.41V1178.82C1685.9 1179.39 1685.44 1179.85 1684.87 1179.85H1678.65C1678.08 1179.85 1677.62 1179.39 1677.62 1178.82V1109.41Z"
        fill="white" />
    <path
        d="M1637.24 1128.08C1637.24 1126.94 1638.17 1126.01 1639.31 1126.01H1669.93C1671.07 1126.01 1672 1126.94 1672 1128.08V1161.52C1672 1162.66 1671.07 1163.59 1669.93 1163.59H1639.31C1638.17 1163.59 1637.24 1162.66 1637.24 1161.52V1128.08Z"
        fill="black" />
    <path fill-rule="evenodd" clip-rule="evenodd"
        d="M1669.93 1128.08H1639.31V1161.52H1669.93L1669.93 1128.08ZM1639.31 1126.01C1638.17 1126.01 1637.24 1126.94 1637.24 1128.08V1161.52C1637.24 1162.66 1638.17 1163.59 1639.31 1163.59H1669.93C1671.07 1163.59 1672 1162.66 1672 1161.52V1128.08C1672 1126.94 1671.07 1126.01 1669.93 1126.01H1639.31Z"
        fill="white" />
    <path
        d="M1651.06 1147.16H1645.27L1645.88 1129.54H1663.54V1134.35H1650.89L1650.63 1142.13C1651.9 1140.76 1653.8 1140.08 1656.33 1140.08C1658.75 1140.08 1660.73 1140.89 1662.29 1142.52C1663.84 1144.15 1664.62 1146.38 1664.62 1149.21C1664.62 1152.33 1663.7 1154.83 1661.86 1156.73C1660.04 1158.62 1657.67 1159.57 1654.73 1159.57C1652.11 1159.57 1649.89 1158.78 1648.08 1157.21C1646.27 1155.61 1645.3 1153.57 1645.19 1151.09H1650.8C1650.92 1152.29 1651.32 1153.23 1652.01 1153.93C1652.7 1154.6 1653.61 1154.94 1654.73 1154.94C1657.58 1154.94 1659.01 1153.12 1659.01 1149.47C1659.01 1146.27 1657.7 1144.66 1655.08 1144.66C1653.2 1144.66 1651.87 1145.5 1651.06 1147.16Z"
        fill="white" />
    <path
        d="M1650.49 1112.76L1654.9 1106.58L1659.32 1112.76V1116.29L1656.67 1113.64V1120.71H1653.14V1113.64L1650.49 1116.29V1112.76Z"
        fill="white" />
    <path
        d="M1650.49 1175.47L1654.9 1181.65L1659.32 1175.47V1171.94L1656.67 1174.59V1167.52H1653.14V1174.59L1650.49 1171.94V1175.47Z"
        fill="white" />
    <path fill-rule="evenodd" clip-rule="evenodd"
        d="M1713.01 1104.23C1713.01 1103.09 1713.94 1102.16 1715.09 1102.16H1794.85C1795.99 1102.16 1796.92 1103.09 1796.92 1104.23V1184C1796.92 1185.14 1795.99 1186.07 1794.85 1186.07H1715.09C1713.94 1186.07 1713.01 1185.14 1713.01 1184V1104.23ZM1725.44 1109.41C1725.44 1108.84 1725.91 1108.38 1726.48 1108.38H1732.7C1733.27 1108.38 1733.73 1108.84 1733.73 1109.41V1178.82C1733.73 1179.39 1733.27 1179.85 1732.7 1179.85H1726.48C1725.91 1179.85 1725.44 1179.39 1725.44 1178.82V1109.41ZM1778.27 1108.38C1777.7 1108.38 1777.24 1108.84 1777.24 1109.41V1178.82C1777.24 1179.39 1777.7 1179.85 1778.27 1179.85H1784.49C1785.06 1179.85 1785.53 1179.39 1785.53 1178.82V1109.41C1785.53 1108.84 1785.06 1108.38 1784.49 1108.38H1778.27Z"
        fill="black" />
    <path fill-rule="evenodd" clip-rule="evenodd"
        d="M1715.09 1103.71C1714.8 1103.71 1714.57 1103.95 1714.57 1104.23V1184C1714.57 1184.28 1714.8 1184.51 1715.09 1184.51H1794.85C1795.14 1184.51 1795.37 1184.28 1795.37 1184V1104.23C1795.37 1103.95 1795.14 1103.71 1794.85 1103.71H1715.09ZM1723.89 1109.41C1723.89 1107.98 1725.05 1106.82 1726.48 1106.82H1732.7C1734.13 1106.82 1735.29 1107.98 1735.29 1109.41V1178.82C1735.29 1180.25 1734.13 1181.41 1732.7 1181.41H1726.48C1725.05 1181.41 1723.89 1180.25 1723.89 1178.82V1109.41ZM1775.69 1109.41C1775.69 1107.98 1776.84 1106.82 1778.27 1106.82H1784.49C1785.92 1106.82 1787.08 1107.98 1787.08 1109.41V1178.82C1787.08 1180.25 1785.92 1181.41 1784.49 1181.41H1778.27C1776.84 1181.41 1775.69 1180.25 1775.69 1178.82V1109.41ZM1715.09 1102.16C1713.94 1102.16 1713.01 1103.09 1713.01 1104.23V1184C1713.01 1185.14 1713.94 1186.07 1715.09 1186.07H1794.85C1795.99 1186.07 1796.92 1185.14 1796.92 1184V1104.23C1796.92 1103.09 1795.99 1102.16 1794.85 1102.16H1715.09ZM1726.48 1108.38C1725.91 1108.38 1725.44 1108.84 1725.44 1109.41V1178.82C1725.44 1179.39 1725.91 1179.85 1726.48 1179.85H1732.7C1733.27 1179.85 1733.73 1179.39 1733.73 1178.82V1109.41C1733.73 1108.84 1733.27 1108.38 1732.7 1108.38H1726.48ZM1777.24 1109.41C1777.24 1108.84 1777.7 1108.38 1778.27 1108.38H1784.49C1785.06 1108.38 1785.53 1108.84 1785.53 1109.41V1178.82C1785.53 1179.39 1785.06 1179.85 1784.49 1179.85H1778.27C1777.7 1179.85 1777.24 1179.39 1777.24 1178.82V1109.41Z"
        fill="white" />
    <path
        d="M1736.86 1128.08C1736.86 1126.94 1737.79 1126.01 1738.93 1126.01H1769.55C1770.7 1126.01 1771.62 1126.94 1771.62 1128.08V1161.52C1771.62 1162.66 1770.7 1163.59 1769.55 1163.59H1738.93C1737.79 1163.59 1736.86 1162.66 1736.86 1161.52V1128.08Z"
        fill="black" />
    <path fill-rule="evenodd" clip-rule="evenodd"
        d="M1769.55 1128.08H1738.93V1161.52H1769.55L1769.55 1128.08ZM1738.93 1126.01C1737.79 1126.01 1736.86 1126.94 1736.86 1128.08V1161.52C1736.86 1162.66 1737.79 1163.59 1738.93 1163.59H1769.55C1770.7 1163.59 1771.62 1162.66 1771.62 1161.52V1128.08C1771.62 1126.94 1770.7 1126.01 1769.55 1126.01H1738.93Z"
        fill="white" />
    <path
        d="M1754.74 1155.88C1756 1155.88 1756.98 1155.37 1757.66 1154.35C1758.38 1153.3 1758.74 1151.98 1758.74 1150.38C1758.74 1148.72 1758.37 1147.42 1757.62 1146.46C1756.88 1145.47 1755.89 1144.98 1754.65 1144.98C1753.39 1144.98 1752.36 1145.47 1751.56 1146.46C1750.79 1147.45 1750.4 1148.72 1750.4 1150.29C1750.4 1151.98 1750.79 1153.33 1751.56 1154.35C1752.33 1155.37 1753.39 1155.88 1754.74 1155.88ZM1763.73 1136.78H1758.18C1758.04 1134.98 1757.03 1134.08 1755.17 1134.08C1753.65 1134.08 1752.51 1134.82 1751.73 1136.3C1750.96 1137.78 1750.48 1140.09 1750.31 1143.23C1751.83 1141.43 1753.78 1140.53 1756.16 1140.53C1758.48 1140.53 1760.4 1141.4 1761.92 1143.14C1763.47 1144.86 1764.24 1147.18 1764.24 1150.12C1764.24 1153.11 1763.37 1155.58 1761.62 1157.53C1759.87 1159.48 1757.61 1160.45 1754.83 1160.45C1748.15 1160.45 1744.81 1155.61 1744.81 1145.93C1744.81 1140.21 1745.67 1136.05 1747.39 1133.46C1749.14 1130.85 1751.82 1129.54 1755.43 1129.54C1757.75 1129.54 1759.64 1130.17 1761.1 1131.42C1762.56 1132.67 1763.44 1134.45 1763.73 1136.78Z"
        fill="white" />
    <path
        d="M1750.11 1112.76L1754.53 1106.58L1758.94 1112.76V1116.29L1756.29 1113.64V1120.71H1752.76V1113.64L1750.11 1116.29V1112.76Z"
        fill="white" />
    <path
        d="M1750.11 1175.47L1754.53 1181.65L1758.94 1175.47V1171.94L1756.29 1174.59V1167.52H1752.76V1174.59L1750.11 1171.94V1175.47Z"
        fill="white" />
    <circle cx="406.296" cy="1014.54" r="15.3668" stroke="black" stroke-width="8" />
    <circle cx="1178.78" cy="975.103" r="15.3668" stroke="black" stroke-width="8" />
    <circle cx="962.704" cy="1034.59" r="15.3668" stroke="black" stroke-width="8" />
    <circle cx="406.296" cy="796.901" r="15.3668" stroke="black" stroke-width="8" />
    <circle cx="677.642" cy="1197.16" r="10.5911" stroke="black" stroke-width="8" />
    <circle cx="962.704" cy="1197.16" r="10.5911" stroke="black" stroke-width="8" />
    <circle cx="1168.19" cy="1197.16" r="10.5911" stroke="black" stroke-width="8" />
    <circle cx="1378.28" cy="1197.16" r="10.5911" stroke="black" stroke-width="8" />
    <circle cx="1899.63" cy="1197.16" r="10.5911" stroke="black" stroke-width="8" />
    <circle cx="2100.44" cy="1197.16" r="10.5911" stroke="black" stroke-width="8" />
    <circle cx="2306.72" cy="1197.16" r="10.5911" stroke="black" stroke-width="8" />
    <circle cx="2560.34" cy="1192.16" r="10.5911" stroke="black" stroke-width="8" />
    <circle cx="408.296" cy="1365.04" r="15.3668" stroke="black" stroke-width="8" />
    <circle cx="1385.06" cy="975.103" r="15.3668" stroke="black" stroke-width="8" />
    <circle cx="1588.28" cy="975.103" r="15.3668" stroke="black" stroke-width="8" />
    <circle cx="2510.16" cy="984.806" r="15.3668" stroke="black" stroke-width="8" />
    <circle cx="1902.63" cy="984.806" r="15.3668" stroke="black" stroke-width="8" />
    <circle cx="2100.44" cy="984.806" r="15.3668" stroke="black" stroke-width="8" />
    <circle cx="1803.16" cy="984.806" r="15.3668" stroke="black" stroke-width="8" />
    <circle cx="2303.94" cy="984.806" r="15.3668" stroke="black" stroke-width="8" />
    <circle cx="2689.62" cy="984.806" r="15.3668" stroke="black" stroke-width="8" />
    <circle cx="2928.43" cy="748.147" r="15.3668" stroke="black" stroke-width="8" />
    <rect x="2990.17" y="523.691" width="110.231" height="109.396" rx="7.5" fill="#125900" stroke="white"
        stroke-width="5" />
    <path
        d="M3001.03 605.944V617.216H3089.96V540.396H3067.41V552.086H3053.64V565.864H3041.11V578.806H3025.66V593.001H3014.39V605.944H3001.03Z"
        fill="white" stroke="white" stroke-width="2" />
    <path
        d="M3076.25 603.716H3083.2C3082.5 607.55 3080.88 610.6 3078.35 612.866C3075.85 615.133 3072.7 616.266 3068.9 616.266C3064.37 616.266 3060.67 614.766 3057.8 611.766C3054.97 608.733 3053.55 604.45 3053.55 598.916C3053.55 593.316 3054.93 588.9 3057.7 585.666C3060.47 582.433 3064.23 580.816 3069 580.816C3073.03 580.816 3076.32 581.95 3078.85 584.216C3081.42 586.483 3082.87 589.35 3083.2 592.816H3076.25C3075.78 590.983 3074.88 589.533 3073.55 588.466C3072.22 587.366 3070.72 586.816 3069.05 586.816C3066.25 586.816 3064.13 587.85 3062.7 589.916C3061.3 591.95 3060.6 594.816 3060.6 598.516C3060.6 602.25 3061.28 605.133 3062.65 607.166C3064.02 609.2 3066.03 610.216 3068.7 610.216C3072.73 610.216 3075.25 608.05 3076.25 603.716Z"
        fill="#125900" />
    <rect x="9.52783" y="458.085" width="119" height="118.101" rx="7.5" fill="#125900" stroke="white"
        stroke-width="5" />
    <path
        d="M21.4047 546.788V558.919H117.1V476.252H92.8394V488.832H78.0134V503.658H64.5351V517.586H47.9119V532.861H35.7815V546.788H21.4047Z"
        fill="white" stroke="white" stroke-width="2" />
    <path
        d="M107.115 553.006H98.6649L88.8149 538.056L85.1149 541.706V553.006H78.2649V519.806H85.1149V533.306L97.8149 519.806H106.815L93.7149 532.906L107.115 553.006Z"
        fill="#125900" />
    <rect x="2455.51" y="1440.85" width="119.244" height="118.344" rx="7.5" fill="#125900" stroke="white"
        stroke-width="5" />
    <path
        d="M2467.41 1529.74V1541.89H2563.3V1459.06H2538.99V1471.66H2524.13V1486.52H2510.63V1500.47H2493.97V1515.78H2481.82V1529.74H2467.41Z"
        fill="white" stroke="white" stroke-width="2" />
    <path
        d="M2531.13 1530.22H2536.88C2539.88 1530.22 2542.07 1529.29 2543.43 1527.42C2544.83 1525.55 2545.53 1522.72 2545.53 1518.92C2545.53 1515.15 2544.82 1512.47 2543.38 1510.87C2541.98 1509.24 2539.62 1508.42 2536.28 1508.42H2531.13V1530.22ZM2538.28 1535.87H2524.38V1502.67H2537.23C2541.8 1502.67 2545.5 1504.14 2548.33 1507.07C2551.2 1510 2552.63 1513.95 2552.63 1518.92C2552.63 1523.99 2551.32 1528.09 2548.68 1531.22C2546.05 1534.32 2542.58 1535.87 2538.28 1535.87Z"
        fill="#125900" />
    <rect x="915.589" y="1443.72" width="115.412" height="114.539" rx="7.5" fill="#125900" stroke="white"
        stroke-width="5" />
    <path
        d="M927.05 1529.78V1541.56H1019.98V1461.28H996.418V1473.5H982.021V1487.9H968.933V1501.42H952.79V1516.26H941.011V1529.78H927.05Z"
        fill="white" stroke="white" stroke-width="2" />
    <path d="M1003.85 1523.21H989.248V1537.21H982.298V1504.01H1005.95V1509.81H989.248V1517.36H1003.85V1523.21Z"
        fill="#125900" />
    <rect x="360.605" y="477.892" width="79.4917" height="77.5276" rx="3.5" fill="black" stroke="white"
        stroke-width="3" />
    <path
        d="M388.854 491.614C388.854 494.597 386.436 497.015 383.453 497.015C380.47 497.015 378.052 494.597 378.052 491.614C378.052 488.631 380.47 486.213 383.453 486.213C386.436 486.213 388.854 488.631 388.854 491.614Z"
        fill="white" />
    <path
        d="M373.142 499.939C373.633 497.975 383.453 498.468 383.453 498.468C383.453 498.468 393.274 497.975 393.875 499.601C393.875 499.601 394.14 522.218 393.875 522.463C393.875 522.463 392.386 524.948 390.898 522.463V503.577H388.912V545.823C388.416 548.805 384.942 548.805 384.942 545.823V521.544H381.98V545.604C381.98 548.55 378.543 548.55 378.052 545.604V503.867H376.088V522.526C374.615 524.981 373.142 522.526 373.142 522.526C372.88 522.284 372.651 501.903 373.142 499.939Z"
        fill="white" />
    <path
        d="M383.453 498.466V498.468M383.453 498.468C383.453 498.468 373.633 497.975 373.142 499.939C372.651 501.903 372.88 522.284 373.142 522.526C373.142 522.526 374.615 524.981 376.088 522.526V503.867H378.052V545.604C378.543 548.55 381.98 548.55 381.98 545.604V521.544H384.942V545.823C384.942 548.805 388.416 548.805 388.912 545.823V503.577H390.898V522.463C392.386 524.948 393.875 522.463 393.875 522.463C394.14 522.218 393.875 499.601 393.875 499.601C393.274 497.975 383.453 498.468 383.453 498.468ZM388.854 491.614C388.854 494.597 386.436 497.015 383.453 497.015C380.47 497.015 378.052 494.597 378.052 491.614C378.052 488.631 380.47 486.213 383.453 486.213C386.436 486.213 388.854 488.631 388.854 491.614Z"
        stroke="white" />
    <path
        d="M407.225 515.183L409.68 530.896H419.991L426.866 543.171L431.776 540.225C435.311 537.083 429.976 537.279 426.866 537.77L421.464 528.441H413.608V525.494C417.536 525.494 419.991 525.494 420.973 525.003C421.268 524.856 421.137 523.367 420.482 523.039H412.135L411.644 517.147L412.626 516.656C417.045 515.674 415.572 509.291 411.153 509.782C407.618 510.175 407.061 513.546 407.225 515.183Z"
        fill="white" stroke="white" />
    <path
        d="M406.488 526.477C403.406 528.296 401.333 531.697 401.333 535.593C401.333 541.405 405.949 546.117 411.644 546.117C413.966 546.117 416.108 545.334 417.832 544.013C419.247 542.927 420.38 541.479 421.097 539.803"
        stroke="white" stroke-width="4" />
    <rect x="527.112" y="644.4" width="79.4917" height="77.5276" rx="3.5" fill="black" stroke="white"
        stroke-width="3" />
    <path
        d="M555.362 658.121C555.362 661.104 552.943 663.522 549.96 663.522C546.977 663.522 544.559 661.104 544.559 658.121C544.559 655.138 546.977 652.72 549.96 652.72C552.943 652.72 555.362 655.138 555.362 658.121Z"
        fill="white" />
    <path
        d="M549.96 663.522C552.943 663.522 555.362 661.104 555.362 658.121C555.362 655.138 552.943 652.72 549.96 652.72C546.977 652.72 544.559 655.138 544.559 658.121C544.559 661.104 546.977 663.522 549.96 663.522Z"
        fill="white" />
    <path
        d="M539.649 666.447C540.14 664.482 549.96 664.976 549.96 664.976C549.96 664.976 559.63 664.534 560.125 666.506C560.621 668.479 566.13 685.024 565.867 685.268C565.867 685.268 564.38 687.734 562.894 685.268L557.153 670.451H555.171L562.894 691.679H555.171V712.37C554.675 715.328 551.207 715.328 551.207 712.37V691.679H548.487V712.112C548.487 715.058 545.05 715.058 544.559 712.112V691.511H536.905L544.559 670.375H542.595L536.905 685.127C535.432 687.582 533.959 685.127 533.959 685.127C533.698 684.885 539.158 668.411 539.649 666.447Z"
        fill="white" />
    <path
        d="M549.96 664.974V664.976M549.96 664.976C549.96 664.976 540.14 664.482 539.649 666.447C539.158 668.411 533.698 684.885 533.959 685.127C533.959 685.127 535.432 687.582 536.905 685.127L542.595 670.375H544.559L536.905 691.511H544.559V712.112C545.05 715.058 548.487 715.058 548.487 712.112V691.679H551.207V712.37C551.207 715.328 554.675 715.328 555.171 712.37V691.679H562.894L555.171 670.451H557.153L562.894 685.268C564.38 687.734 565.867 685.268 565.867 685.268C566.13 685.024 560.621 668.479 560.125 666.506C559.63 664.534 549.96 664.976 549.96 664.976ZM555.362 658.121C555.362 661.104 552.943 663.522 549.96 663.522C546.977 663.522 544.559 661.104 544.559 658.121C544.559 655.138 546.977 652.72 549.96 652.72C552.943 652.72 555.362 655.138 555.362 658.121Z"
        stroke="white" />
    <path
        d="M573.732 681.69L576.187 697.403H586.499L593.373 709.679L598.283 706.732C601.818 703.59 596.483 703.786 593.373 704.277L587.972 694.948H580.115V692.002C584.043 692.002 586.499 692.002 587.481 691.511C587.775 691.363 587.644 689.874 586.99 689.547H578.642L578.151 683.654L579.133 683.163C583.552 682.181 582.079 675.798 577.66 676.289C574.125 676.682 573.568 680.054 573.732 681.69Z"
        fill="white" stroke="white" />
    <path
        d="M572.996 692.984C569.913 694.804 567.84 698.205 567.84 702.1C567.84 707.913 572.456 712.625 578.151 712.625C580.473 712.625 582.616 711.842 584.339 710.52C585.755 709.435 586.887 707.986 587.605 706.31"
        stroke="white" stroke-width="4" />
    <rect x="3001.26" y="269.658" width="78.5709" height="76.6288" rx="3.5" fill="black" stroke="white"
        stroke-width="3" />
    <path
        d="M3029.17 283.21C3029.17 286.159 3026.78 288.551 3023.83 288.551C3020.88 288.551 3018.49 286.159 3018.49 283.21C3018.49 280.26 3020.88 277.869 3023.83 277.869C3026.78 277.869 3029.17 280.26 3029.17 283.21Z"
        fill="white" />
    <path
        d="M3013.64 291.442C3014.12 289.5 3023.83 289.987 3023.83 289.987C3023.83 289.987 3033.54 289.5 3034.14 291.107C3034.14 291.107 3034.4 313.472 3034.14 313.715C3034.14 313.715 3032.67 316.172 3031.2 313.715V295.039H3029.23V336.813C3028.74 339.762 3025.31 339.762 3025.31 336.813V312.806H3022.38V336.597C3022.38 339.511 3018.98 339.511 3018.49 336.597V295.326H3016.55V313.777C3015.09 316.205 3013.64 313.777 3013.64 313.777C3013.38 313.537 3013.15 293.384 3013.64 291.442Z"
        fill="white" />
    <path
        d="M3023.83 289.985V289.987M3023.83 289.987C3023.83 289.987 3014.12 289.5 3013.64 291.442C3013.15 293.384 3013.38 313.537 3013.64 313.777C3013.64 313.777 3015.09 316.205 3016.55 313.777V295.326H3018.49V336.597C3018.98 339.511 3022.38 339.511 3022.38 336.597V312.806H3025.31V336.813C3025.31 339.762 3028.74 339.762 3029.23 336.813V295.039H3031.2V313.715C3032.67 316.172 3034.14 313.715 3034.14 313.715C3034.4 313.472 3034.14 291.107 3034.14 291.107C3033.54 289.5 3023.83 289.987 3023.83 289.987ZM3029.17 283.21C3029.17 286.159 3026.78 288.551 3023.83 288.551C3020.88 288.551 3018.49 286.159 3018.49 283.21C3018.49 280.26 3020.88 277.869 3023.83 277.869C3026.78 277.869 3029.17 280.26 3029.17 283.21Z"
        stroke="white" />
    <path
        d="M3047.34 306.515L3049.77 322.053H3059.96L3066.76 334.191L3071.62 331.278C3075.11 328.171 3069.84 328.365 3066.76 328.85L3061.42 319.625H3053.65V316.712C3057.54 316.712 3059.96 316.712 3060.94 316.226C3061.23 316.081 3061.1 314.608 3060.45 314.284H3052.2L3051.71 308.458L3052.68 307.972C3057.05 307.001 3055.59 300.689 3051.22 301.175C3047.73 301.563 3047.18 304.897 3047.34 306.515Z"
        fill="white" stroke="white" />
    <path
        d="M3046.61 317.683C3043.56 319.482 3041.51 322.846 3041.51 326.698C3041.51 332.445 3046.08 337.105 3051.71 337.105C3054.01 337.105 3056.12 336.33 3057.83 335.023C3059.23 333.95 3060.35 332.518 3061.06 330.86"
        stroke="white" stroke-width="4" />
    <rect x="3002.23" y="395.673" width="78.5709" height="76.6288" rx="3.5" fill="black" stroke="white"
        stroke-width="3" />
    <path
        d="M3030.15 409.224C3030.15 412.174 3027.75 414.565 3024.8 414.565C3021.86 414.565 3019.46 412.174 3019.46 409.224C3019.46 406.275 3021.86 403.883 3024.8 403.883C3027.75 403.883 3030.15 406.275 3030.15 409.224Z"
        fill="white" />
    <path
        d="M3024.8 414.565C3027.75 414.565 3030.15 412.174 3030.15 409.224C3030.15 406.275 3027.75 403.883 3024.8 403.883C3021.86 403.883 3019.46 406.275 3019.46 409.224C3019.46 412.174 3021.86 414.565 3024.8 414.565Z"
        fill="white" />
    <path
        d="M3014.61 417.457C3015.09 415.514 3024.8 416.002 3024.8 416.002C3024.8 416.002 3034.37 415.565 3034.86 417.516C3035.35 419.466 3040.79 435.827 3040.53 436.068C3040.53 436.068 3039.06 438.506 3037.59 436.068L3031.92 421.417H3029.96L3037.59 442.408H3029.96V462.867C3029.47 465.793 3026.04 465.793 3026.04 462.867V442.408H3023.35V462.612C3023.35 465.525 3019.95 465.525 3019.46 462.612V442.241H3011.9L3019.46 421.341H3017.52L3011.9 435.929C3010.44 438.357 3008.98 435.929 3008.98 435.929C3008.72 435.689 3014.12 419.399 3014.61 417.457Z"
        fill="white" />
    <path
        d="M3024.8 416V416.002M3024.8 416.002C3024.8 416.002 3015.09 415.514 3014.61 417.457C3014.12 419.399 3008.72 435.689 3008.98 435.929C3008.98 435.929 3010.44 438.357 3011.9 435.929L3017.52 421.341H3019.46L3011.9 442.241H3019.46V462.612C3019.95 465.525 3023.35 465.525 3023.35 462.612V442.408H3026.04V462.867C3026.04 465.793 3029.47 465.793 3029.96 462.867V442.408H3037.59L3029.96 421.417H3031.92L3037.59 436.068C3039.06 438.506 3040.53 436.068 3040.53 436.068C3040.79 435.827 3035.35 419.466 3034.86 417.516C3034.37 415.565 3024.8 416.002 3024.8 416.002ZM3030.15 409.224C3030.15 412.174 3027.75 414.565 3024.8 414.565C3021.86 414.565 3019.46 412.174 3019.46 409.224C3019.46 406.275 3021.86 403.883 3024.8 403.883C3027.75 403.883 3030.15 406.275 3030.15 409.224Z"
        stroke="white" />
    <path
        d="M3048.31 432.53L3050.74 448.068H3060.94L3067.73 460.206L3072.59 457.293C3076.08 454.186 3070.81 454.38 3067.73 454.865L3062.39 445.64H3054.62V442.727C3058.51 442.727 3060.94 442.727 3061.91 442.241C3062.2 442.095 3062.07 440.623 3061.42 440.299H3053.17L3052.68 434.473L3053.65 433.987C3058.02 433.016 3056.57 426.704 3052.2 427.189C3048.7 427.578 3048.15 430.912 3048.31 432.53Z"
        fill="white" stroke="white" />
    <path
        d="M3047.58 443.698C3044.54 445.497 3042.48 448.86 3042.48 452.712C3042.48 458.46 3047.05 463.119 3052.68 463.119C3054.98 463.119 3057.1 462.345 3058.8 461.038C3060.2 459.965 3061.32 458.533 3062.03 456.875"
        stroke="white" stroke-width="4" />
    <rect x="3330.13" y="276.757" width="90.8451" height="88.6107" rx="3.5" fill="black" stroke="white"
        stroke-width="3" />
    <path
        d="M3334.61 298.376C3334.61 296.167 3336.4 294.376 3338.61 294.376H3364.8C3367.01 294.376 3368.8 296.167 3368.8 298.376V316.4C3368.8 316.952 3368.36 317.4 3367.8 317.4H3335.61C3335.06 317.4 3334.61 316.952 3334.61 316.4V298.376Z"
        fill="white" />
    <path
        d="M3364.74 322.13C3364.74 323.565 3358.9 324.728 3351.71 324.728C3344.51 324.728 3338.67 323.565 3338.67 322.13C3338.67 320.695 3344.51 319.532 3351.71 319.532C3358.9 319.532 3364.74 320.695 3364.74 322.13Z"
        fill="white" />
    <path
        d="M3342.01 346.755H3351.62L3361.24 346.755C3361.4 338.422 3360.27 334.896 3356 337.843C3355.04 338.506 3353.2 338.882 3351.62 338.857C3350.05 338.882 3348.21 338.506 3347.25 337.843C3342.98 334.896 3341.85 338.422 3342.01 346.755Z"
        fill="white" />
    <path
        d="M3351.6 326.585C3360 326.585 3366.8 325.132 3366.8 323.339C3366.8 342.554 3336.4 342.59 3336.4 323.339C3336.4 325.132 3343.21 326.585 3351.6 326.585Z"
        fill="white" />
    <path d="M3365.06 298.349H3338.33" stroke="black" />
    <ellipse cx="3.07183" cy="1.23989" rx="3.07183" ry="1.23989"
        transform="matrix(0.848431 0.529307 -0.591526 0.806286 3338.82 298.754)" fill="black" />
    <path
        d="M3381.86 305.211L3385.16 326.329H3399.02L3408.25 342.827L3414.85 338.867C3419.61 334.644 3412.43 334.908 3408.25 335.568L3401 323.029H3390.44V319.069C3395.72 319.069 3399.02 319.069 3400.34 318.41C3400.73 318.211 3400.56 316.21 3399.68 315.77H3388.46L3387.8 307.851L3389.12 307.191C3395.06 305.871 3393.08 297.292 3387.14 297.952C3382.39 298.48 3381.64 303.011 3381.86 305.211Z"
        fill="white" stroke="white" />
    <path
        d="M3380.87 320.389C3376.73 322.835 3373.94 327.406 3373.94 332.642C3373.94 340.454 3380.14 346.786 3387.8 346.786C3390.92 346.786 3393.8 345.734 3396.11 343.957C3398.02 342.499 3399.54 340.552 3400.5 338.3"
        stroke="white" stroke-width="4" />
    <rect x="613.062" y="0.437988" width="501" height="504" fill="black" />
    <path
        d="M800.098 183.238H820.948C818.848 194.738 813.998 203.888 806.398 210.688C798.898 217.488 789.448 220.888 778.048 220.888C764.448 220.888 753.348 216.388 744.748 207.388C736.248 198.288 731.998 185.438 731.998 168.838C731.998 152.038 736.148 138.788 744.448 129.088C752.748 119.388 764.048 114.538 778.348 114.538C790.448 114.538 800.298 117.938 807.898 124.738C815.598 131.538 819.948 140.138 820.948 150.538H800.098C798.698 145.038 795.998 140.688 791.998 137.488C787.998 134.188 783.498 132.538 778.498 132.538C770.098 132.538 763.748 135.638 759.448 141.838C755.248 147.938 753.148 156.538 753.148 167.638C753.148 178.838 755.198 187.488 759.298 193.588C763.398 199.688 769.448 202.738 777.448 202.738C789.548 202.738 797.098 196.238 800.098 183.238ZM872.29 135.088H845.44V161.638H871.54C881.74 161.638 886.84 157.238 886.84 148.438C886.84 139.538 881.99 135.088 872.29 135.088ZM903.64 217.438H883.24V191.788C883.24 186.888 882.09 183.438 879.79 181.438C877.59 179.438 873.54 178.438 867.64 178.438H845.44V217.438H825.19V117.838H875.74C884.84 117.838 892.19 120.538 897.79 125.938C903.49 131.338 906.34 138.238 906.34 146.638C906.34 152.038 905.04 156.838 902.44 161.038C899.84 165.138 896.19 168.038 891.49 169.738C895.99 171.138 899.14 173.288 900.94 176.188C902.74 179.088 903.64 183.438 903.64 189.238V217.438ZM995.955 217.438H970.605L951.555 183.238L931.455 217.438H907.155L939.405 166.588L908.955 117.838H933.555L951.555 150.088L969.705 117.838H993.855L963.555 165.688L995.955 217.438ZM867.643 360.538V325.438L847.243 360.538H867.643ZM886.693 397.438H867.193V375.688H828.493V358.738L864.793 297.838H886.693V360.538H897.943V375.688H886.693V397.438Z"
        fill="white" />
    <rect x="2241.52" y="1009.06" width="109.207" height="108.394" rx="8.5" fill="#959595" stroke="black"
        stroke-width="3" />
    <path
        d="M2253.03 1090.09V1101.07H2339.62V1026.26H2317.67V1037.65H2304.26V1051.06H2292.06V1063.67H2277.02V1077.49H2266.04V1090.09H2253.03Z"
        fill="black" stroke="black" stroke-width="2" />
    <path
        d="M2310.92 1079.2V1075.5C2313.01 1075.5 2314.45 1075.17 2315.23 1074.52C2316.02 1073.84 2316.41 1072.94 2316.41 1071.8C2316.41 1069.03 2315.25 1067.65 2312.91 1067.65C2311.86 1067.65 2310.99 1068.04 2310.31 1068.83C2309.66 1069.62 2309.34 1070.7 2309.34 1072.08H2304.42C2304.42 1069.51 2305.22 1067.42 2306.82 1065.82C2308.44 1064.22 2310.54 1063.42 2313.12 1063.42C2315.48 1063.42 2317.45 1064.11 2319.05 1065.5C2320.68 1066.88 2321.49 1068.64 2321.49 1070.78C2321.49 1072.05 2321.22 1073.23 2320.68 1074.32C2320.14 1075.4 2319.35 1076.24 2318.32 1076.84C2321.01 1077.95 2322.35 1080.17 2322.35 1083.51C2322.35 1086.19 2321.47 1088.32 2319.7 1089.89C2317.97 1091.46 2315.68 1092.25 2312.83 1092.25C2310.04 1092.25 2307.86 1091.46 2306.29 1089.89C2304.74 1088.32 2303.97 1086.15 2303.97 1083.38H2309.05C2309.05 1086.39 2310.39 1087.9 2313.08 1087.9C2314.22 1087.9 2315.14 1087.5 2315.84 1086.72C2316.57 1085.9 2316.94 1084.81 2316.94 1083.42C2316.94 1081.85 2316.49 1080.75 2315.6 1080.13C2314.7 1079.51 2313.15 1079.2 2310.92 1079.2Z"
        fill="#959595" />
    <path
        d="M3342.56 733.572H3347.56C3347.06 736.332 3345.89 738.528 3344.07 740.16C3342.27 741.792 3340 742.608 3337.26 742.608C3334 742.608 3331.34 741.528 3329.27 739.368C3327.23 737.184 3326.21 734.1 3326.21 730.116C3326.21 726.084 3327.21 722.904 3329.2 720.576C3331.19 718.248 3333.9 717.084 3337.34 717.084C3340.24 717.084 3342.6 717.9 3344.43 719.532C3346.28 721.164 3347.32 723.228 3347.56 725.724H3342.56C3342.22 724.404 3341.57 723.36 3340.61 722.592C3339.65 721.8 3338.57 721.404 3337.37 721.404C3335.36 721.404 3333.83 722.148 3332.8 723.636C3331.79 725.1 3331.29 727.164 3331.29 729.828C3331.29 732.516 3331.78 734.592 3332.76 736.056C3333.75 737.52 3335.2 738.252 3337.12 738.252C3340.02 738.252 3341.84 736.692 3342.56 733.572ZM3357.29 732.924V724.5L3352.39 732.924H3357.29ZM3361.86 741.78H3357.18V736.56H3347.89V732.492L3356.61 717.876H3361.86V732.924H3364.56V736.56H3361.86V741.78ZM3374.41 732.924V724.5L3369.52 732.924H3374.41ZM3378.98 741.78H3374.3V736.56H3365.02V732.492L3373.73 717.876H3378.98V732.924H3381.68V736.56H3378.98V741.78ZM3387.82 732.384H3383L3383.5 717.876H3398.23V721.836H3387.68L3387.46 728.244C3388.52 727.116 3390.1 726.552 3392.22 726.552C3394.23 726.552 3395.89 727.224 3397.18 728.568C3398.48 729.912 3399.13 731.748 3399.13 734.076C3399.13 736.644 3398.36 738.708 3396.82 740.268C3395.31 741.828 3393.33 742.608 3390.88 742.608C3388.7 742.608 3386.85 741.96 3385.34 740.664C3383.83 739.344 3383.02 737.664 3382.93 735.624H3387.61C3387.7 736.608 3388.04 737.388 3388.62 737.964C3389.19 738.516 3389.95 738.792 3390.88 738.792C3393.26 738.792 3394.45 737.292 3394.45 734.292C3394.45 731.652 3393.36 730.332 3391.17 730.332C3389.61 730.332 3388.5 731.016 3387.82 732.384Z"
        fill="black" />
    <path
        d="M3306.49 1281.19H3311.49C3310.99 1283.95 3309.82 1286.15 3308 1287.78C3306.2 1289.41 3303.93 1290.23 3301.19 1290.23C3297.93 1290.23 3295.27 1289.15 3293.2 1286.99C3291.16 1284.8 3290.14 1281.72 3290.14 1277.73C3290.14 1273.7 3291.14 1270.52 3293.13 1268.19C3295.12 1265.87 3297.83 1264.7 3301.27 1264.7C3304.17 1264.7 3306.53 1265.52 3308.36 1267.15C3310.21 1268.78 3311.25 1270.85 3311.49 1273.34H3306.49C3306.15 1272.02 3305.5 1270.98 3304.54 1270.21C3303.58 1269.42 3302.5 1269.02 3301.3 1269.02C3299.29 1269.02 3297.76 1269.77 3296.73 1271.25C3295.72 1272.72 3295.22 1274.78 3295.22 1277.45C3295.22 1280.13 3295.71 1282.21 3296.69 1283.67C3297.68 1285.14 3299.13 1285.87 3301.05 1285.87C3303.95 1285.87 3305.77 1284.31 3306.49 1281.19ZM3321.22 1280.54V1272.12L3316.32 1280.54H3321.22ZM3325.79 1289.4H3321.11V1284.18H3311.82V1280.11L3320.54 1265.49H3325.79V1280.54H3328.49V1284.18H3325.79V1289.4ZM3338.34 1280.54V1272.12L3333.45 1280.54H3338.34ZM3342.91 1289.4H3338.23V1284.18H3328.95V1280.11L3337.66 1265.49H3342.91V1280.54H3345.61V1284.18H3342.91V1289.4ZM3362.34 1289.4H3346.07C3346.09 1287 3346.57 1284.93 3347.51 1283.21C3348.47 1281.48 3350.39 1279.58 3353.27 1277.52C3354.99 1276.27 3356.16 1275.26 3356.76 1274.49C3357.38 1273.73 3357.69 1272.84 3357.69 1271.83C3357.69 1269.74 3356.59 1268.7 3354.38 1268.7C3353.25 1268.7 3352.39 1269.02 3351.79 1269.67C3351.19 1270.32 3350.89 1271.41 3350.89 1272.95H3346.39C3346.39 1270.38 3347.07 1268.36 3348.44 1266.9C3349.81 1265.43 3351.72 1264.7 3354.17 1264.7C3356.66 1264.7 3358.63 1265.3 3360.07 1266.5C3361.53 1267.68 3362.27 1269.41 3362.27 1271.69C3362.27 1273.46 3361.77 1275 3360.79 1276.29C3359.81 1277.59 3357.99 1279.17 3355.35 1281.05C3354.42 1281.72 3353.64 1282.45 3353.01 1283.24C3352.41 1284.03 3352.09 1284.73 3352.04 1285.33H3362.34V1289.4Z"
        fill="black" />
    <path
        d="M3067.8 1290.19H3072.8C3072.3 1292.95 3071.13 1295.15 3069.31 1296.78C3067.51 1298.41 3065.24 1299.23 3062.5 1299.23C3059.24 1299.23 3056.58 1298.15 3054.51 1295.99C3052.47 1293.8 3051.45 1290.72 3051.45 1286.73C3051.45 1282.7 3052.45 1279.52 3054.44 1277.19C3056.43 1274.87 3059.14 1273.7 3062.58 1273.7C3065.48 1273.7 3067.84 1274.52 3069.67 1276.15C3071.52 1277.78 3072.56 1279.85 3072.8 1282.34H3067.8C3067.46 1281.02 3066.81 1279.98 3065.85 1279.21C3064.89 1278.42 3063.81 1278.02 3062.61 1278.02C3060.6 1278.02 3059.07 1278.77 3058.04 1280.25C3057.03 1281.72 3056.53 1283.78 3056.53 1286.45C3056.53 1289.13 3057.02 1291.21 3058 1292.67C3058.99 1294.14 3060.44 1294.87 3062.36 1294.87C3065.26 1294.87 3067.08 1293.31 3067.8 1290.19ZM3082.53 1289.54V1281.12L3077.63 1289.54H3082.53ZM3087.1 1298.4H3082.42V1293.18H3073.13V1289.11L3081.85 1274.49H3087.1V1289.54H3089.8V1293.18H3087.1V1298.4ZM3099.65 1289.54V1281.12L3094.75 1289.54H3099.65ZM3104.22 1298.4H3099.54V1293.18H3090.25V1289.11L3098.97 1274.49H3104.22V1289.54H3106.92V1293.18H3104.22V1298.4ZM3113.86 1287.67V1284.39C3115.7 1284.39 3116.98 1284.11 3117.67 1283.53C3118.37 1282.93 3118.72 1282.13 3118.72 1281.12C3118.72 1278.67 3117.68 1277.45 3115.62 1277.45C3114.68 1277.45 3113.92 1277.79 3113.32 1278.49C3112.74 1279.19 3112.45 1280.15 3112.45 1281.37H3108.1C3108.1 1279.09 3108.8 1277.24 3110.22 1275.83C3111.66 1274.41 3113.52 1273.7 3115.8 1273.7C3117.89 1273.7 3119.64 1274.31 3121.06 1275.54C3122.5 1276.76 3123.22 1278.32 3123.22 1280.22C3123.22 1281.35 3122.98 1282.39 3122.5 1283.35C3122.02 1284.31 3121.32 1285.05 3120.41 1285.58C3122.78 1286.57 3123.97 1288.53 3123.97 1291.49C3123.97 1293.86 3123.19 1295.75 3121.63 1297.14C3120.1 1298.53 3118.07 1299.23 3115.55 1299.23C3113.08 1299.23 3111.14 1298.53 3109.75 1297.14C3108.38 1295.75 3107.7 1293.83 3107.7 1291.38H3112.2C3112.2 1294.04 3113.39 1295.37 3115.76 1295.37C3116.77 1295.37 3117.59 1295.03 3118.21 1294.33C3118.86 1293.61 3119.18 1292.64 3119.18 1291.41C3119.18 1290.02 3118.79 1289.05 3118 1288.5C3117.2 1287.95 3115.82 1287.67 3113.86 1287.67Z"
        fill="black" />
    <path
        d="M3067.85 1065.1H3072.85C3072.35 1067.86 3071.18 1070.06 3069.36 1071.69C3067.56 1073.32 3065.29 1074.14 3062.56 1074.14C3059.29 1074.14 3056.63 1073.06 3054.56 1070.9C3052.52 1068.71 3051.5 1065.63 3051.5 1061.64C3051.5 1057.61 3052.5 1054.43 3054.49 1052.1C3056.48 1049.78 3059.2 1048.61 3062.63 1048.61C3065.53 1048.61 3067.9 1049.43 3069.72 1051.06C3071.57 1052.69 3072.61 1054.76 3072.85 1057.25H3067.85C3067.51 1055.93 3066.86 1054.89 3065.9 1054.12C3064.94 1053.33 3063.86 1052.93 3062.66 1052.93C3060.65 1052.93 3059.12 1053.68 3058.09 1055.16C3057.08 1056.63 3056.58 1058.69 3056.58 1061.36C3056.58 1064.04 3057.07 1066.12 3058.06 1067.58C3059.04 1069.05 3060.49 1069.78 3062.41 1069.78C3065.32 1069.78 3067.13 1068.22 3067.85 1065.1ZM3082.58 1064.45V1056.03L3077.69 1064.45H3082.58ZM3087.15 1073.31H3082.47V1068.09H3073.19V1064.02L3081.9 1049.4H3087.15V1064.45H3089.85V1068.09H3087.15V1073.31ZM3099.7 1064.45V1056.03L3094.81 1064.45H3099.7ZM3104.28 1073.31H3099.6V1068.09H3090.31V1064.02L3099.02 1049.4H3104.28V1064.45H3106.98V1068.09H3104.28V1073.31ZM3116.82 1064.45V1056.03L3111.93 1064.45H3116.82ZM3121.4 1073.31H3116.72V1068.09H3107.43V1064.02L3116.14 1049.4H3121.4V1064.45H3124.1V1068.09H3121.4V1073.31Z"
        fill="black" />
    <path
        d="M2768.26 1459.85H2773.26C2772.76 1462.61 2771.6 1464.81 2769.77 1466.44C2767.97 1468.07 2765.7 1468.89 2762.97 1468.89C2759.7 1468.89 2757.04 1467.81 2754.98 1465.65C2752.94 1463.46 2751.92 1460.38 2751.92 1456.4C2751.92 1452.36 2752.91 1449.18 2754.9 1446.86C2756.9 1444.53 2759.61 1443.36 2763.04 1443.36C2765.94 1443.36 2768.31 1444.18 2770.13 1445.81C2771.98 1447.44 2773.02 1449.51 2773.26 1452H2768.26C2767.92 1450.68 2767.28 1449.64 2766.32 1448.87C2765.36 1448.08 2764.28 1447.68 2763.08 1447.68C2761.06 1447.68 2759.54 1448.43 2758.5 1449.92C2757.5 1451.38 2756.99 1453.44 2756.99 1456.11C2756.99 1458.8 2757.48 1460.87 2758.47 1462.34C2759.45 1463.8 2760.9 1464.53 2762.82 1464.53C2765.73 1464.53 2767.54 1462.97 2768.26 1459.85ZM2782.99 1459.2V1450.78L2778.1 1459.2H2782.99ZM2787.57 1468.06H2782.89V1462.84H2773.6V1458.77L2782.31 1444.16H2787.57V1459.2H2790.27V1462.84H2787.57V1468.06ZM2800.11 1459.2V1450.78L2795.22 1459.2H2800.11ZM2804.69 1468.06H2800.01V1462.84H2790.72V1458.77L2799.43 1444.16H2804.69V1459.2H2807.39V1462.84H2804.69V1468.06ZM2816.59 1465.11C2817.74 1465.11 2818.59 1464.41 2819.14 1463.02C2819.7 1461.63 2819.97 1459.34 2819.97 1456.14C2819.97 1452.9 2819.7 1450.59 2819.14 1449.2C2818.59 1447.8 2817.74 1447.11 2816.59 1447.11C2815.41 1447.11 2814.55 1447.8 2814 1449.2C2813.44 1450.56 2813.17 1452.86 2813.17 1456.07C2813.17 1459.31 2813.44 1461.63 2814 1463.02C2814.55 1464.41 2815.41 1465.11 2816.59 1465.11ZM2816.44 1468.89C2811.02 1468.89 2808.31 1464.59 2808.31 1456C2808.31 1447.58 2811.02 1443.36 2816.44 1443.36C2821.96 1443.36 2824.72 1447.55 2824.72 1455.93C2824.72 1460.27 2824 1463.52 2822.56 1465.68C2821.12 1467.82 2819.08 1468.89 2816.44 1468.89Z"
        fill="black" />
    <path
        d="M2772.67 1272.19H2777.68C2777.17 1274.95 2776.01 1277.15 2774.18 1278.78C2772.38 1280.41 2770.12 1281.23 2767.38 1281.23C2764.12 1281.23 2761.45 1280.15 2759.39 1277.99C2757.35 1275.8 2756.33 1272.72 2756.33 1268.73C2756.33 1264.7 2757.32 1261.52 2759.32 1259.19C2761.31 1256.87 2764.02 1255.7 2767.45 1255.7C2770.36 1255.7 2772.72 1256.52 2774.54 1258.15C2776.39 1259.78 2777.44 1261.85 2777.68 1264.34H2772.67C2772.34 1263.02 2771.69 1261.98 2770.73 1261.21C2769.77 1260.42 2768.69 1260.02 2767.49 1260.02C2765.47 1260.02 2763.95 1260.77 2762.92 1262.25C2761.91 1263.72 2761.4 1265.78 2761.4 1268.45C2761.4 1271.13 2761.9 1273.21 2762.88 1274.67C2763.86 1276.14 2765.32 1276.87 2767.24 1276.87C2770.14 1276.87 2771.95 1275.31 2772.67 1272.19ZM2787.41 1271.54V1263.12L2782.51 1271.54H2787.41ZM2791.98 1280.4H2787.3V1275.18H2778.01V1271.11L2786.72 1256.49H2791.98V1271.54H2794.68V1275.18H2791.98V1280.4ZM2804.53 1271.54V1263.12L2799.63 1271.54H2804.53ZM2809.1 1280.4H2804.42V1275.18H2795.13V1271.11L2803.84 1256.49H2809.1V1271.54H2811.8V1275.18H2809.1V1280.4ZM2820 1280.4H2815.32V1263.87H2810.42V1260.63C2812.42 1260.63 2813.83 1260.31 2814.67 1259.66C2815.54 1258.99 2816.04 1257.93 2816.18 1256.49H2820V1280.4Z"
        fill="black" />
    <path
        d="M2338.72 1413.14H2343.72C2343.22 1415.9 2342.06 1418.1 2340.23 1419.73C2338.43 1421.36 2336.16 1422.18 2333.43 1422.18C2330.16 1422.18 2327.5 1421.1 2325.44 1418.94C2323.4 1416.76 2322.38 1413.67 2322.38 1409.69C2322.38 1405.66 2323.37 1402.48 2325.36 1400.15C2327.36 1397.82 2330.07 1396.66 2333.5 1396.66C2336.4 1396.66 2338.77 1397.47 2340.59 1399.1C2342.44 1400.74 2343.48 1402.8 2343.72 1405.3H2338.72C2338.38 1403.98 2337.74 1402.93 2336.78 1402.16C2335.82 1401.37 2334.74 1400.98 2333.54 1400.98C2331.52 1400.98 2330 1401.72 2328.96 1403.21C2327.96 1404.67 2327.45 1406.74 2327.45 1409.4C2327.45 1412.09 2327.94 1414.16 2328.93 1415.63C2329.91 1417.09 2331.36 1417.82 2333.28 1417.82C2336.19 1417.82 2338 1416.26 2338.72 1413.14ZM2353.45 1412.5V1404.07L2348.56 1412.5H2353.45ZM2358.03 1421.35H2353.35V1416.13H2344.06V1412.06L2352.77 1397.45H2358.03V1412.5H2360.73V1416.13H2358.03V1421.35ZM2377.45 1421.35H2361.18C2361.2 1418.95 2361.68 1416.89 2362.62 1415.16C2363.58 1413.43 2365.5 1411.54 2368.38 1409.47C2370.11 1408.22 2371.27 1407.22 2371.87 1406.45C2372.5 1405.68 2372.81 1404.79 2372.81 1403.78C2372.81 1401.7 2371.7 1400.65 2369.5 1400.65C2368.37 1400.65 2367.5 1400.98 2366.9 1401.62C2366.3 1402.27 2366 1403.36 2366 1404.9H2361.5C2361.5 1402.33 2362.19 1400.32 2363.56 1398.85C2364.92 1397.39 2366.83 1396.66 2369.28 1396.66C2371.78 1396.66 2373.74 1397.26 2375.18 1398.46C2376.65 1399.63 2377.38 1401.36 2377.38 1403.64C2377.38 1405.42 2376.89 1406.95 2375.9 1408.25C2374.92 1409.54 2373.11 1411.13 2370.47 1413C2369.53 1413.67 2368.75 1414.4 2368.13 1415.2C2367.53 1415.99 2367.2 1416.68 2367.16 1417.28H2377.45V1421.35ZM2386.01 1421.35H2381.19C2381.45 1417.85 2382.29 1414.39 2383.71 1410.98C2385.15 1407.55 2387.11 1404.42 2389.58 1401.59H2377.91V1397.45H2394.65V1401.05C2392.01 1403.98 2389.96 1407.19 2388.5 1410.7C2387.03 1414.18 2386.21 1417.73 2386.01 1421.35Z"
        fill="black" />
    <path
        d="M2169.39 1413.14H2174.39C2173.89 1415.9 2172.72 1418.1 2170.9 1419.73C2169.1 1421.36 2166.83 1422.18 2164.09 1422.18C2160.83 1422.18 2158.17 1421.1 2156.1 1418.94C2154.06 1416.76 2153.04 1413.67 2153.04 1409.69C2153.04 1405.66 2154.04 1402.48 2156.03 1400.15C2158.02 1397.82 2160.73 1396.66 2164.17 1396.66C2167.07 1396.66 2169.43 1397.47 2171.26 1399.1C2173.11 1400.74 2174.15 1402.8 2174.39 1405.3H2169.39C2169.05 1403.98 2168.4 1402.93 2167.44 1402.16C2166.48 1401.37 2165.4 1400.98 2164.2 1400.98C2162.19 1400.98 2160.66 1401.72 2159.63 1403.21C2158.62 1404.67 2158.12 1406.74 2158.12 1409.4C2158.12 1412.09 2158.61 1414.16 2159.59 1415.63C2160.58 1417.09 2162.03 1417.82 2163.95 1417.82C2166.85 1417.82 2168.67 1416.26 2169.39 1413.14ZM2184.12 1412.5V1404.07L2179.22 1412.5H2184.12ZM2188.69 1421.35H2184.01V1416.13H2174.72V1412.06L2183.44 1397.45H2188.69V1412.5H2191.39V1416.13H2188.69V1421.35ZM2208.12 1421.35H2191.84C2191.87 1418.95 2192.35 1416.89 2193.28 1415.16C2194.24 1413.43 2196.16 1411.54 2199.04 1409.47C2200.77 1408.22 2201.94 1407.22 2202.54 1406.45C2203.16 1405.68 2203.47 1404.79 2203.47 1403.78C2203.47 1401.7 2202.37 1400.65 2200.16 1400.65C2199.03 1400.65 2198.17 1400.98 2197.57 1401.62C2196.97 1402.27 2196.67 1403.36 2196.67 1404.9H2192.17C2192.17 1402.33 2192.85 1400.32 2194.22 1398.85C2195.59 1397.39 2197.5 1396.66 2199.94 1396.66C2202.44 1396.66 2204.41 1397.26 2205.85 1398.46C2207.31 1399.63 2208.04 1401.36 2208.04 1403.64C2208.04 1405.42 2207.55 1406.95 2206.57 1408.25C2205.58 1409.54 2203.77 1411.13 2201.13 1413C2200.2 1413.67 2199.42 1414.4 2198.79 1415.2C2198.19 1415.99 2197.87 1416.68 2197.82 1417.28H2208.12V1421.35ZM2217.29 1418.4C2218.35 1418.4 2219.16 1417.98 2219.74 1417.14C2220.34 1416.28 2220.64 1415.18 2220.64 1413.86C2220.64 1412.5 2220.33 1411.42 2219.7 1410.62C2219.08 1409.81 2218.25 1409.4 2217.22 1409.4C2216.16 1409.4 2215.3 1409.81 2214.63 1410.62C2213.98 1411.44 2213.66 1412.5 2213.66 1413.79C2213.66 1415.18 2213.98 1416.3 2214.63 1417.14C2215.28 1417.98 2216.16 1418.4 2217.29 1418.4ZM2224.82 1402.63H2220.17C2220.05 1401.14 2219.21 1400.4 2217.65 1400.4C2216.38 1400.4 2215.42 1401.01 2214.77 1402.24C2214.12 1403.46 2213.73 1405.37 2213.58 1407.96C2214.86 1406.47 2216.49 1405.73 2218.48 1405.73C2220.42 1405.73 2222.03 1406.45 2223.3 1407.89C2224.6 1409.3 2225.25 1411.22 2225.25 1413.65C2225.25 1416.12 2224.52 1418.16 2223.05 1419.77C2221.59 1421.38 2219.69 1422.18 2217.36 1422.18C2211.77 1422.18 2208.98 1418.18 2208.98 1410.19C2208.98 1405.46 2209.7 1402.03 2211.14 1399.9C2212.6 1397.74 2214.84 1396.66 2217.87 1396.66C2219.81 1396.66 2221.4 1397.17 2222.62 1398.2C2223.84 1399.24 2224.58 1400.71 2224.82 1402.63Z"
        fill="black" />
    <path
        d="M1986.13 1413.14H1991.13C1990.63 1415.9 1989.46 1418.1 1987.64 1419.73C1985.84 1421.36 1983.57 1422.18 1980.84 1422.18C1977.57 1422.18 1974.91 1421.1 1972.84 1418.94C1970.8 1416.76 1969.78 1413.67 1969.78 1409.69C1969.78 1405.66 1970.78 1402.48 1972.77 1400.15C1974.76 1397.82 1977.48 1396.66 1980.91 1396.66C1983.81 1396.66 1986.18 1397.47 1988 1399.1C1989.85 1400.74 1990.89 1402.8 1991.13 1405.3H1986.13C1985.79 1403.98 1985.14 1402.93 1984.18 1402.16C1983.22 1401.37 1982.14 1400.98 1980.94 1400.98C1978.93 1400.98 1977.4 1401.72 1976.37 1403.21C1975.36 1404.67 1974.86 1406.74 1974.86 1409.4C1974.86 1412.09 1975.35 1414.16 1976.34 1415.63C1977.32 1417.09 1978.77 1417.82 1980.69 1417.82C1983.6 1417.82 1985.41 1416.26 1986.13 1413.14ZM2000.86 1412.5V1404.07L1995.97 1412.5H2000.86ZM2005.43 1421.35H2000.75V1416.13H1991.47V1412.06L2000.18 1397.45H2005.43V1412.5H2008.13V1416.13H2005.43V1421.35ZM2024.86 1421.35H2008.59C2008.61 1418.95 2009.09 1416.89 2010.03 1415.16C2010.99 1413.43 2012.91 1411.54 2015.79 1409.47C2017.52 1408.22 2018.68 1407.22 2019.28 1406.45C2019.9 1405.68 2020.22 1404.79 2020.22 1403.78C2020.22 1401.7 2019.11 1400.65 2016.9 1400.65C2015.78 1400.65 2014.91 1400.98 2014.31 1401.62C2013.71 1402.27 2013.41 1403.36 2013.41 1404.9H2008.91C2008.91 1402.33 2009.6 1400.32 2010.96 1398.85C2012.33 1397.39 2014.24 1396.66 2016.69 1396.66C2019.18 1396.66 2021.15 1397.26 2022.59 1398.46C2024.06 1399.63 2024.79 1401.36 2024.79 1403.64C2024.79 1405.42 2024.3 1406.95 2023.31 1408.25C2022.33 1409.54 2020.52 1411.13 2017.88 1413C2016.94 1413.67 2016.16 1414.4 2015.54 1415.2C2014.94 1415.99 2014.61 1416.68 2014.56 1417.28H2024.86V1421.35ZM2031.01 1411.96H2026.19L2026.69 1397.45H2041.41V1401.41H2030.87L2030.65 1407.82C2031.71 1406.69 2033.29 1406.12 2035.4 1406.12C2037.42 1406.12 2039.07 1406.8 2040.37 1408.14C2041.67 1409.48 2042.31 1411.32 2042.31 1413.65C2042.31 1416.22 2041.55 1418.28 2040.01 1419.84C2038.5 1421.4 2036.52 1422.18 2034.07 1422.18C2031.89 1422.18 2030.04 1421.53 2028.53 1420.24C2027.01 1418.92 2026.21 1417.24 2026.11 1415.2H2030.79C2030.89 1416.18 2031.23 1416.96 2031.8 1417.54C2032.38 1418.09 2033.13 1418.36 2034.07 1418.36C2036.45 1418.36 2037.63 1416.86 2037.63 1413.86C2037.63 1411.22 2036.54 1409.9 2034.36 1409.9C2032.8 1409.9 2031.68 1410.59 2031.01 1411.96Z"
        fill="black" />
    <path
        d="M1802.64 1411.66H1807.64C1807.14 1414.42 1805.97 1416.62 1804.15 1418.25C1802.35 1419.88 1800.08 1420.7 1797.34 1420.7C1794.08 1420.7 1791.42 1419.62 1789.35 1417.46C1787.31 1415.27 1786.29 1412.19 1786.29 1408.21C1786.29 1404.17 1787.29 1400.99 1789.28 1398.67C1791.27 1396.34 1793.98 1395.17 1797.42 1395.17C1800.32 1395.17 1802.68 1395.99 1804.51 1397.62C1806.36 1399.25 1807.4 1401.32 1807.64 1403.81H1802.64C1802.3 1402.49 1801.65 1401.45 1800.69 1400.68C1799.73 1399.89 1798.65 1399.49 1797.45 1399.49C1795.44 1399.49 1793.91 1400.24 1792.88 1401.73C1791.87 1403.19 1791.37 1405.25 1791.37 1407.92C1791.37 1410.61 1791.86 1412.68 1792.84 1414.15C1793.83 1415.61 1795.28 1416.34 1797.2 1416.34C1800.1 1416.34 1801.92 1414.78 1802.64 1411.66ZM1817.37 1411.01V1402.59L1812.47 1411.01H1817.37ZM1821.94 1419.87H1817.26V1414.65H1807.97V1410.58L1816.69 1395.97H1821.94V1411.01H1824.64V1414.65H1821.94V1419.87ZM1841.37 1419.87H1825.09C1825.12 1417.47 1825.6 1415.41 1826.53 1413.68C1827.49 1411.95 1829.41 1410.05 1832.29 1407.99C1834.02 1406.74 1835.19 1405.73 1835.79 1404.97C1836.41 1404.2 1836.72 1403.31 1836.72 1402.3C1836.72 1400.21 1835.62 1399.17 1833.41 1399.17C1832.28 1399.17 1831.42 1399.49 1830.82 1400.14C1830.22 1400.79 1829.92 1401.88 1829.92 1403.42H1825.42C1825.42 1400.85 1826.1 1398.83 1827.47 1397.37C1828.84 1395.91 1830.75 1395.17 1833.19 1395.17C1835.69 1395.17 1837.66 1395.77 1839.1 1396.97C1840.56 1398.15 1841.29 1399.88 1841.29 1402.16C1841.29 1403.93 1840.8 1405.47 1839.82 1406.77C1838.83 1408.06 1837.02 1409.65 1834.38 1411.52C1833.45 1412.19 1832.67 1412.92 1832.04 1413.71C1831.44 1414.51 1831.12 1415.2 1831.07 1415.8H1841.37V1419.87ZM1851.22 1411.01V1402.59L1846.33 1411.01H1851.22ZM1855.8 1419.87H1851.12V1414.65H1841.83V1410.58L1850.54 1395.97H1855.8V1411.01H1858.5V1414.65H1855.8V1419.87Z"
        fill="black" />
    <path
        d="M1626.68 1411.66H1631.68C1631.18 1414.42 1630.01 1416.62 1628.19 1418.25C1626.39 1419.88 1624.12 1420.7 1621.38 1420.7C1618.12 1420.7 1615.46 1419.62 1613.39 1417.46C1611.35 1415.27 1610.33 1412.19 1610.33 1408.21C1610.33 1404.17 1611.33 1400.99 1613.32 1398.67C1615.31 1396.34 1618.02 1395.17 1621.46 1395.17C1624.36 1395.17 1626.72 1395.99 1628.55 1397.62C1630.4 1399.25 1631.44 1401.32 1631.68 1403.81H1626.68C1626.34 1402.49 1625.69 1401.45 1624.73 1400.68C1623.77 1399.89 1622.69 1399.49 1621.49 1399.49C1619.48 1399.49 1617.95 1400.24 1616.92 1401.73C1615.91 1403.19 1615.41 1405.25 1615.41 1407.92C1615.41 1410.61 1615.9 1412.68 1616.88 1414.15C1617.87 1415.61 1619.32 1416.34 1621.24 1416.34C1624.14 1416.34 1625.96 1414.78 1626.68 1411.66ZM1641.41 1411.01V1402.59L1636.51 1411.01H1641.41ZM1645.98 1419.87H1641.3V1414.65H1632.01V1410.58L1640.73 1395.97H1645.98V1411.01H1648.68V1414.65H1645.98V1419.87ZM1665.41 1419.87H1649.14C1649.16 1417.47 1649.64 1415.41 1650.58 1413.68C1651.54 1411.95 1653.46 1410.05 1656.34 1407.99C1658.06 1406.74 1659.23 1405.73 1659.83 1404.97C1660.45 1404.2 1660.76 1403.31 1660.76 1402.3C1660.76 1400.21 1659.66 1399.17 1657.45 1399.17C1656.32 1399.17 1655.46 1399.49 1654.86 1400.14C1654.26 1400.79 1653.96 1401.88 1653.96 1403.42H1649.46C1649.46 1400.85 1650.14 1398.83 1651.51 1397.37C1652.88 1395.91 1654.79 1395.17 1657.24 1395.17C1659.73 1395.17 1661.7 1395.77 1663.14 1396.97C1664.6 1398.15 1665.34 1399.88 1665.34 1402.16C1665.34 1403.93 1664.84 1405.47 1663.86 1406.77C1662.88 1408.06 1661.06 1409.65 1658.42 1411.52C1657.49 1412.19 1656.71 1412.92 1656.08 1413.71C1655.48 1414.51 1655.16 1415.2 1655.11 1415.8H1665.41V1419.87ZM1672.35 1409.14V1405.87C1674.2 1405.87 1675.47 1405.58 1676.17 1405C1676.86 1404.4 1677.21 1403.6 1677.21 1402.59C1677.21 1400.14 1676.18 1398.92 1674.11 1398.92C1673.18 1398.92 1672.41 1399.27 1671.81 1399.96C1671.23 1400.66 1670.95 1401.62 1670.95 1402.84H1666.59C1666.59 1400.56 1667.3 1398.71 1668.71 1397.3C1670.15 1395.88 1672.01 1395.17 1674.29 1395.17C1676.38 1395.17 1678.13 1395.79 1679.55 1397.01C1680.99 1398.23 1681.71 1399.79 1681.71 1401.69C1681.71 1402.82 1681.47 1403.86 1680.99 1404.82C1680.51 1405.78 1679.81 1406.53 1678.9 1407.05C1681.28 1408.04 1682.47 1410.01 1682.47 1412.96C1682.47 1415.33 1681.69 1417.22 1680.13 1418.61C1678.59 1420 1676.56 1420.7 1674.04 1420.7C1671.57 1420.7 1669.64 1420 1668.25 1418.61C1666.88 1417.22 1666.19 1415.3 1666.19 1412.85H1670.69C1670.69 1415.51 1671.88 1416.85 1674.26 1416.85C1675.27 1416.85 1676.08 1416.5 1676.71 1415.8C1677.35 1415.08 1677.68 1414.11 1677.68 1412.89C1677.68 1411.49 1677.28 1410.52 1676.49 1409.97C1675.7 1409.42 1674.32 1409.14 1672.35 1409.14Z"
        fill="black" />
    <path
        d="M1450.82 1410.66H1455.83C1455.32 1413.42 1454.16 1415.62 1452.34 1417.25C1450.54 1418.88 1448.27 1419.7 1445.53 1419.7C1442.27 1419.7 1439.6 1418.62 1437.54 1416.46C1435.5 1414.27 1434.48 1411.19 1434.48 1407.21C1434.48 1403.17 1435.48 1399.99 1437.47 1397.67C1439.46 1395.34 1442.17 1394.17 1445.6 1394.17C1448.51 1394.17 1450.87 1394.99 1452.7 1396.62C1454.54 1398.25 1455.59 1400.32 1455.83 1402.81H1450.82C1450.49 1401.49 1449.84 1400.45 1448.88 1399.68C1447.92 1398.89 1446.84 1398.49 1445.64 1398.49C1443.62 1398.49 1442.1 1399.24 1441.07 1400.73C1440.06 1402.19 1439.56 1404.25 1439.56 1406.92C1439.56 1409.61 1440.05 1411.68 1441.03 1413.15C1442.02 1414.61 1443.47 1415.34 1445.39 1415.34C1448.29 1415.34 1450.1 1413.78 1450.82 1410.66ZM1465.56 1410.01V1401.59L1460.66 1410.01H1465.56ZM1470.13 1418.87H1465.45V1413.65H1456.16V1409.58L1464.87 1394.97H1470.13V1410.01H1472.83V1413.65H1470.13V1418.87ZM1489.55 1418.87H1473.28C1473.31 1416.47 1473.79 1414.41 1474.72 1412.68C1475.68 1410.95 1477.6 1409.05 1480.48 1406.99C1482.21 1405.74 1483.37 1404.73 1483.97 1403.97C1484.6 1403.2 1484.91 1402.31 1484.91 1401.3C1484.91 1399.21 1483.81 1398.17 1481.6 1398.17C1480.47 1398.17 1479.61 1398.49 1479.01 1399.14C1478.41 1399.79 1478.11 1400.88 1478.11 1402.42H1473.61C1473.61 1399.85 1474.29 1397.83 1475.66 1396.37C1477.03 1394.91 1478.93 1394.17 1481.38 1394.17C1483.88 1394.17 1485.85 1394.77 1487.29 1395.97C1488.75 1397.15 1489.48 1398.88 1489.48 1401.16C1489.48 1402.93 1488.99 1404.47 1488.01 1405.77C1487.02 1407.06 1485.21 1408.65 1482.57 1410.52C1481.63 1411.19 1480.85 1411.92 1480.23 1412.71C1479.63 1413.51 1479.31 1414.2 1479.26 1414.8H1489.55V1418.87ZM1506.68 1418.87H1490.4C1490.43 1416.47 1490.91 1414.41 1491.84 1412.68C1492.8 1410.95 1494.72 1409.05 1497.6 1406.99C1499.33 1405.74 1500.5 1404.73 1501.1 1403.97C1501.72 1403.2 1502.03 1402.31 1502.03 1401.3C1502.03 1399.21 1500.93 1398.17 1498.72 1398.17C1497.59 1398.17 1496.73 1398.49 1496.13 1399.14C1495.53 1399.79 1495.23 1400.88 1495.23 1402.42H1490.73C1490.73 1399.85 1491.41 1397.83 1492.78 1396.37C1494.15 1394.91 1496.06 1394.17 1498.5 1394.17C1501 1394.17 1502.97 1394.77 1504.41 1395.97C1505.87 1397.15 1506.6 1398.88 1506.6 1401.16C1506.6 1402.93 1506.11 1404.47 1505.13 1405.77C1504.14 1407.06 1502.33 1408.65 1499.69 1410.52C1498.76 1411.19 1497.98 1411.92 1497.35 1412.71C1496.75 1413.51 1496.43 1414.2 1496.38 1414.8H1506.68V1418.87Z"
        fill="black" />
    <path
        d="M1274.11 1410.66H1279.12C1278.61 1413.42 1277.45 1415.62 1275.63 1417.25C1273.83 1418.88 1271.56 1419.7 1268.82 1419.7C1265.56 1419.7 1262.89 1418.62 1260.83 1416.46C1258.79 1414.27 1257.77 1411.19 1257.77 1407.21C1257.77 1403.17 1258.77 1399.99 1260.76 1397.67C1262.75 1395.34 1265.46 1394.17 1268.89 1394.17C1271.8 1394.17 1274.16 1394.99 1275.99 1396.62C1277.83 1398.25 1278.88 1400.32 1279.12 1402.81H1274.11C1273.78 1401.49 1273.13 1400.45 1272.17 1399.68C1271.21 1398.89 1270.13 1398.49 1268.93 1398.49C1266.91 1398.49 1265.39 1399.24 1264.36 1400.73C1263.35 1402.19 1262.85 1404.25 1262.85 1406.92C1262.85 1409.61 1263.34 1411.68 1264.32 1413.15C1265.31 1414.61 1266.76 1415.34 1268.68 1415.34C1271.58 1415.34 1273.39 1413.78 1274.11 1410.66ZM1288.85 1410.01V1401.59L1283.95 1410.01H1288.85ZM1293.42 1418.87H1288.74V1413.65H1279.45V1409.58L1288.16 1394.97H1293.42V1410.01H1296.12V1413.65H1293.42V1418.87ZM1312.85 1418.87H1296.57C1296.6 1416.47 1297.08 1414.41 1298.01 1412.68C1298.97 1410.95 1300.89 1409.05 1303.77 1406.99C1305.5 1405.74 1306.67 1404.73 1307.27 1403.97C1307.89 1403.2 1308.2 1402.31 1308.2 1401.3C1308.2 1399.21 1307.1 1398.17 1304.89 1398.17C1303.76 1398.17 1302.9 1398.49 1302.3 1399.14C1301.7 1399.79 1301.4 1400.88 1301.4 1402.42H1296.9C1296.9 1399.85 1297.58 1397.83 1298.95 1396.37C1300.32 1394.91 1302.23 1394.17 1304.67 1394.17C1307.17 1394.17 1309.14 1394.77 1310.58 1395.97C1312.04 1397.15 1312.77 1398.88 1312.77 1401.16C1312.77 1402.93 1312.28 1404.47 1311.3 1405.77C1310.31 1407.06 1308.5 1408.65 1305.86 1410.52C1304.93 1411.19 1304.15 1411.92 1303.52 1412.71C1302.92 1413.51 1302.6 1414.2 1302.55 1414.8H1312.85V1418.87ZM1322.88 1418.87H1318.2V1402.35H1313.31V1399.11C1315.3 1399.11 1316.72 1398.78 1317.56 1398.13C1318.42 1397.46 1318.92 1396.41 1319.07 1394.97H1322.88V1418.87Z"
        fill="black" />
    <path
        d="M1089.85 1410.66H1094.85C1094.35 1413.42 1093.18 1415.62 1091.36 1417.25C1089.56 1418.88 1087.29 1419.7 1084.56 1419.7C1081.29 1419.7 1078.63 1418.62 1076.56 1416.46C1074.52 1414.27 1073.5 1411.19 1073.5 1407.21C1073.5 1403.17 1074.5 1399.99 1076.49 1397.67C1078.48 1395.34 1081.2 1394.17 1084.63 1394.17C1087.53 1394.17 1089.9 1394.99 1091.72 1396.62C1093.57 1398.25 1094.61 1400.32 1094.85 1402.81H1089.85C1089.51 1401.49 1088.86 1400.45 1087.9 1399.68C1086.94 1398.89 1085.86 1398.49 1084.66 1398.49C1082.65 1398.49 1081.12 1399.24 1080.09 1400.73C1079.08 1402.19 1078.58 1404.25 1078.58 1406.92C1078.58 1409.61 1079.07 1411.68 1080.06 1413.15C1081.04 1414.61 1082.49 1415.34 1084.41 1415.34C1087.32 1415.34 1089.13 1413.78 1089.85 1410.66ZM1104.58 1410.01V1401.59L1099.69 1410.01H1104.58ZM1109.15 1418.87H1104.47V1413.65H1095.19V1409.58L1103.9 1394.97H1109.15V1410.01H1111.85V1413.65H1109.15V1418.87ZM1128.58 1418.87H1112.31C1112.33 1416.47 1112.81 1414.41 1113.75 1412.68C1114.71 1410.95 1116.63 1409.05 1119.51 1406.99C1121.24 1405.74 1122.4 1404.73 1123 1403.97C1123.62 1403.2 1123.94 1402.31 1123.94 1401.3C1123.94 1399.21 1122.83 1398.17 1120.62 1398.17C1119.5 1398.17 1118.63 1398.49 1118.03 1399.14C1117.43 1399.79 1117.13 1400.88 1117.13 1402.42H1112.63C1112.63 1399.85 1113.32 1397.83 1114.68 1396.37C1116.05 1394.91 1117.96 1394.17 1120.41 1394.17C1122.9 1394.17 1124.87 1394.77 1126.31 1395.97C1127.78 1397.15 1128.51 1398.88 1128.51 1401.16C1128.51 1402.93 1128.02 1404.47 1127.03 1405.77C1126.05 1407.06 1124.24 1408.65 1121.6 1410.52C1120.66 1411.19 1119.88 1411.92 1119.26 1412.71C1118.66 1413.51 1118.33 1414.2 1118.28 1414.8H1128.58V1418.87ZM1137.79 1415.92C1138.94 1415.92 1139.79 1415.22 1140.35 1413.83C1140.9 1412.44 1141.17 1410.15 1141.17 1406.95C1141.17 1403.71 1140.9 1401.4 1140.35 1400.01C1139.79 1398.61 1138.94 1397.92 1137.79 1397.92C1136.61 1397.92 1135.75 1398.61 1135.2 1400.01C1134.65 1401.37 1134.37 1403.67 1134.37 1406.88C1134.37 1410.12 1134.65 1412.44 1135.2 1413.83C1135.75 1415.22 1136.61 1415.92 1137.79 1415.92ZM1137.65 1419.7C1132.22 1419.7 1129.51 1415.4 1129.51 1406.81C1129.51 1398.39 1132.22 1394.17 1137.65 1394.17C1143.17 1394.17 1145.93 1398.36 1145.93 1406.74C1145.93 1411.08 1145.21 1414.33 1143.77 1416.49C1142.33 1418.63 1140.29 1419.7 1137.65 1419.7Z"
        fill="black" />
    <path
        d="M372.618 1295.88H377.622C377.118 1298.64 375.954 1300.83 374.13 1302.47C372.33 1304.1 370.062 1304.91 367.326 1304.91C364.062 1304.91 361.398 1303.83 359.334 1301.67C357.294 1299.49 356.274 1296.41 356.274 1292.42C356.274 1288.39 357.27 1285.21 359.262 1282.88C361.254 1280.55 363.966 1279.39 367.398 1279.39C370.302 1279.39 372.666 1280.21 374.49 1281.84C376.338 1283.47 377.382 1285.53 377.622 1288.03H372.618C372.282 1286.71 371.634 1285.67 370.674 1284.9C369.714 1284.11 368.634 1283.71 367.434 1283.71C365.418 1283.71 363.894 1284.45 362.862 1285.94C361.854 1287.41 361.35 1289.47 361.35 1292.13C361.35 1294.82 361.842 1296.9 362.826 1298.36C363.81 1299.83 365.262 1300.56 367.182 1300.56C370.086 1300.56 371.898 1299 372.618 1295.88ZM387.353 1295.23V1286.81L382.457 1295.23H387.353ZM391.925 1304.09H387.245V1298.87H377.957V1294.8L386.669 1280.18H391.925V1295.23H394.625V1298.87H391.925V1304.09ZM403.826 1301.13C404.978 1301.13 405.83 1300.44 406.382 1299.05C406.934 1297.65 407.21 1295.36 407.21 1292.17C407.21 1288.93 406.934 1286.61 406.382 1285.22C405.83 1283.83 404.978 1283.13 403.826 1283.13C402.65 1283.13 401.786 1283.83 401.234 1285.22C400.682 1286.59 400.406 1288.88 400.406 1292.1C400.406 1295.34 400.682 1297.65 401.234 1299.05C401.786 1300.44 402.65 1301.13 403.826 1301.13ZM403.682 1304.91C398.258 1304.91 395.546 1300.62 395.546 1292.03C395.546 1283.6 398.258 1279.39 403.682 1279.39C409.202 1279.39 411.962 1283.58 411.962 1291.95C411.962 1296.3 411.242 1299.55 409.802 1301.71C408.362 1303.85 406.322 1304.91 403.682 1304.91ZM421.15 1292.17C422.206 1292.17 423.058 1291.76 423.706 1290.95C424.378 1290.13 424.714 1289.07 424.714 1287.78C424.714 1286.39 424.39 1285.27 423.742 1284.43C423.094 1283.59 422.206 1283.17 421.078 1283.17C420.022 1283.17 419.194 1283.6 418.594 1284.47C418.018 1285.31 417.73 1286.39 417.73 1287.71C417.73 1289.07 418.042 1290.17 418.666 1290.98C419.29 1291.77 420.118 1292.17 421.15 1292.17ZM413.554 1298.94H418.198C418.318 1300.43 419.158 1301.17 420.718 1301.17C421.99 1301.17 422.95 1300.56 423.598 1299.33C424.246 1298.11 424.642 1296.2 424.786 1293.61C423.514 1295.1 421.882 1295.84 419.89 1295.84C417.946 1295.84 416.326 1295.13 415.03 1293.72C413.758 1292.28 413.122 1290.35 413.122 1287.92C413.122 1285.45 413.854 1283.41 415.318 1281.8C416.782 1280.19 418.678 1279.39 421.006 1279.39C426.598 1279.39 429.394 1283.39 429.394 1291.38C429.394 1296.11 428.662 1299.55 427.198 1301.71C425.758 1303.85 423.526 1304.91 420.502 1304.91C418.558 1304.91 416.974 1304.4 415.75 1303.37C414.526 1302.33 413.794 1300.86 413.554 1298.94Z"
        fill="black" />
    <path
        d="M102.842 626.692H107.846C107.342 629.452 106.178 631.648 104.354 633.28C102.554 634.912 100.286 635.728 97.5495 635.728C94.2855 635.728 91.6215 634.648 89.5575 632.488C87.5175 630.304 86.4975 627.22 86.4975 623.236C86.4975 619.204 87.4935 616.024 89.4855 613.696C91.4775 611.368 94.1895 610.204 97.6215 610.204C100.526 610.204 102.89 611.02 104.714 612.652C106.562 614.284 107.606 616.348 107.846 618.844H102.842C102.506 617.524 101.858 616.48 100.898 615.712C99.9375 614.92 98.8575 614.524 97.6575 614.524C95.6415 614.524 94.1175 615.268 93.0855 616.756C92.0775 618.22 91.5735 620.284 91.5735 622.948C91.5735 625.636 92.0655 627.712 93.0495 629.176C94.0335 630.64 95.4855 631.372 97.4055 631.372C100.31 631.372 102.122 629.812 102.842 626.692ZM117.576 626.044V617.62L112.68 626.044H117.576ZM122.148 634.9H117.468V629.68H108.18V625.612L116.892 610.996H122.148V626.044H124.848V629.68H122.148V634.9ZM134.049 631.948C135.201 631.948 136.053 631.252 136.605 629.86C137.157 628.468 137.433 626.176 137.433 622.984C137.433 619.744 137.157 617.428 136.605 616.036C136.053 614.644 135.201 613.948 134.049 613.948C132.873 613.948 132.009 614.644 131.457 616.036C130.905 617.404 130.629 619.696 130.629 622.912C130.629 626.152 130.905 628.468 131.457 629.86C132.009 631.252 132.873 631.948 134.049 631.948ZM133.905 635.728C128.481 635.728 125.769 631.432 125.769 622.84C125.769 614.416 128.481 610.204 133.905 610.204C139.425 610.204 142.185 614.392 142.185 622.768C142.185 627.112 141.465 630.364 140.025 632.524C138.585 634.66 136.545 635.728 133.905 635.728ZM150.1 634.9H145.276C145.54 631.396 146.38 627.94 147.796 624.532C149.236 621.1 151.192 617.968 153.664 615.136H142V610.996H158.74V614.596C156.1 617.524 154.048 620.74 152.584 624.244C151.12 627.724 150.292 631.276 150.1 634.9ZM167.437 625.864L164.449 616.36H164.413L161.353 625.864H167.437ZM175.825 634.9H170.389L168.877 629.968H160.057L158.365 634.9H153.073L161.605 610.996H167.401L175.825 634.9Z"
        fill="black" />
    <path
        d="M3338.05 623.969H3343.05C3342.55 626.729 3341.38 628.925 3339.56 630.557C3337.76 632.189 3335.49 633.005 3332.76 633.005C3329.49 633.005 3326.83 631.925 3324.76 629.765C3322.72 627.581 3321.7 624.497 3321.7 620.513C3321.7 616.481 3322.7 613.301 3324.69 610.973C3326.68 608.645 3329.4 607.481 3332.83 607.481C3335.73 607.481 3338.1 608.297 3339.92 609.929C3341.77 611.561 3342.81 613.625 3343.05 616.121H3338.05C3337.71 614.801 3337.06 613.757 3336.1 612.989C3335.14 612.197 3334.06 611.801 3332.86 611.801C3330.85 611.801 3329.32 612.545 3328.29 614.033C3327.28 615.497 3326.78 617.561 3326.78 620.225C3326.78 622.913 3327.27 624.989 3328.26 626.453C3329.24 627.917 3330.69 628.649 3332.61 628.649C3335.52 628.649 3337.33 627.089 3338.05 623.969ZM3352.78 623.321V614.897L3347.89 623.321H3352.78ZM3357.35 632.177H3352.67V626.957H3343.39V622.889L3352.1 608.273H3357.35V623.321H3360.05V626.957H3357.35V632.177ZM3369.9 623.321V614.897L3365.01 623.321H3369.9ZM3374.47 632.177H3369.79V626.957H3360.51V622.889L3369.22 608.273H3374.47V623.321H3377.17V626.957H3374.47V632.177ZM3386.34 629.225C3387.4 629.225 3388.21 628.805 3388.79 627.965C3389.39 627.101 3389.69 626.009 3389.69 624.689C3389.69 623.321 3389.38 622.241 3388.75 621.449C3388.13 620.633 3387.3 620.225 3386.27 620.225C3385.21 620.225 3384.35 620.633 3383.68 621.449C3383.03 622.265 3382.7 623.321 3382.7 624.617C3382.7 626.009 3383.03 627.125 3383.68 627.965C3384.32 628.805 3385.21 629.225 3386.34 629.225ZM3393.86 613.457H3389.22C3389.1 611.969 3388.26 611.225 3386.7 611.225C3385.43 611.225 3384.47 611.837 3383.82 613.061C3383.17 614.285 3382.78 616.193 3382.63 618.785C3383.9 617.297 3385.54 616.553 3387.53 616.553C3389.47 616.553 3391.08 617.273 3392.35 618.713C3393.65 620.129 3394.3 622.049 3394.3 624.473C3394.3 626.945 3393.56 628.985 3392.1 630.593C3390.64 632.201 3388.74 633.005 3386.41 633.005C3380.82 633.005 3378.02 629.009 3378.02 621.017C3378.02 616.289 3378.74 612.857 3380.18 610.721C3381.65 608.561 3383.89 607.481 3386.92 607.481C3388.86 607.481 3390.44 607.997 3391.67 609.029C3392.89 610.061 3393.62 611.537 3393.86 613.457Z"
        fill="black" />
    <rect x="549.177" y="1271.09" width="153.652" height="150.168" rx="3" fill="black" stroke="white"
        stroke-width="4" />
    <path
        d="M597.709 1352.19H605.458C604.677 1356.46 602.875 1359.86 600.051 1362.39C597.263 1364.91 593.752 1366.18 589.515 1366.18C584.461 1366.18 580.336 1364.51 577.14 1361.16C573.981 1357.78 572.401 1353 572.401 1346.83C572.401 1340.59 573.944 1335.67 577.028 1332.06C580.113 1328.46 584.312 1326.66 589.626 1326.66C594.123 1326.66 597.784 1327.92 600.608 1330.45C603.47 1332.97 605.086 1336.17 605.458 1340.03H597.709C597.189 1337.99 596.186 1336.37 594.699 1335.18C593.213 1333.96 591.54 1333.34 589.682 1333.34C586.561 1333.34 584.201 1334.5 582.603 1336.8C581.042 1339.07 580.261 1342.26 580.261 1346.39C580.261 1350.55 581.023 1353.77 582.547 1356.03C584.071 1358.3 586.319 1359.43 589.292 1359.43C593.789 1359.43 596.595 1357.02 597.709 1352.19Z"
        fill="white" />
    <path
        d="M620.525 1351.18V1338.14L612.943 1351.18H620.525ZM627.604 1364.9H620.357V1356.81H605.975V1350.51L619.465 1327.88H627.604V1351.18H631.785V1356.81H627.604V1364.9Z"
        fill="white" />
    <path
        d="M644.484 1364.9H637.237V1339.31H629.656V1334.29C632.74 1334.29 634.933 1333.79 636.234 1332.79C637.572 1331.75 638.352 1330.11 638.575 1327.88H644.484V1364.9Z"
        fill="white" />
    <path
        d="M659.696 1360.32C661.48 1360.32 662.799 1359.25 663.654 1357.09C664.509 1354.94 664.936 1351.39 664.936 1346.44C664.936 1341.43 664.509 1337.84 663.654 1335.69C662.799 1333.53 661.48 1332.45 659.696 1332.45C657.875 1332.45 656.538 1333.53 655.683 1335.69C654.828 1337.8 654.401 1341.35 654.401 1346.33C654.401 1351.35 654.828 1354.94 655.683 1357.09C656.538 1359.25 657.875 1360.32 659.696 1360.32ZM659.473 1366.18C651.075 1366.18 646.875 1359.53 646.875 1346.22C646.875 1333.18 651.075 1326.66 659.473 1326.66C668.021 1326.66 672.295 1333.14 672.295 1346.11C672.295 1352.84 671.18 1357.87 668.95 1361.22C666.72 1364.52 663.561 1366.18 659.473 1366.18Z"
        fill="white" />
    <rect x="80.833" y="805.992" width="153.652" height="150.168" rx="3" fill="black" stroke="white" stroke-width="4" />
    <path
        d="M129.365 887.093H137.114C136.333 891.367 134.531 894.767 131.707 897.294C128.919 899.822 125.408 901.085 121.171 901.085C116.117 901.085 111.992 899.413 108.796 896.068C105.637 892.686 104.057 887.911 104.057 881.742C104.057 875.498 105.6 870.574 108.684 866.969C111.769 863.365 115.968 861.562 121.282 861.562C125.779 861.562 129.44 862.826 132.264 865.353C135.126 867.88 136.742 871.076 137.114 874.941H129.365C128.845 872.897 127.842 871.28 126.355 870.091C124.869 868.865 123.196 868.252 121.338 868.252C118.216 868.252 115.857 869.404 114.259 871.708C112.698 873.975 111.917 877.171 111.917 881.296C111.917 885.458 112.679 888.673 114.203 890.94C115.727 893.207 117.975 894.34 120.948 894.34C125.445 894.34 128.25 891.924 129.365 887.093Z"
        fill="white" />
    <path
        d="M152.181 886.09V873.046L144.599 886.09H152.181ZM159.26 899.803H152.013V891.72H137.631V885.421L151.121 862.789H159.26V886.09H163.441V891.72H159.26V899.803Z"
        fill="white" />
    <path
        d="M177.688 895.232C179.472 895.232 180.792 894.154 181.646 891.999C182.501 889.843 182.928 886.294 182.928 881.352C182.928 876.335 182.501 872.748 181.646 870.593C180.792 868.437 179.472 867.36 177.688 867.36C175.867 867.36 174.53 868.437 173.675 870.593C172.82 872.711 172.393 876.26 172.393 881.24C172.393 886.257 172.82 889.843 173.675 891.999C174.53 894.154 175.867 895.232 177.688 895.232ZM177.465 901.085C169.067 901.085 164.867 894.433 164.867 881.129C164.867 868.084 169.067 861.562 177.465 861.562C186.013 861.562 190.287 868.047 190.287 881.017C190.287 887.744 189.172 892.779 186.942 896.124C184.712 899.431 181.553 901.085 177.465 901.085Z"
        fill="white" />
    <path
        d="M202.543 899.803H195.073C195.482 894.377 196.783 889.026 198.975 883.749C201.205 878.434 204.234 873.584 208.062 869.199H190.001V862.789H215.922V868.363C211.834 872.897 208.656 877.877 206.389 883.303C204.122 888.691 202.84 894.191 202.543 899.803Z"
        fill="white" />
    <rect x="80.833" y="1266.7" width="153.652" height="150.168" rx="3" fill="black" stroke="white" stroke-width="4" />
    <path
        d="M129.365 1347.8H137.114C136.333 1352.08 134.531 1355.48 131.707 1358C128.919 1360.53 125.408 1361.79 121.171 1361.79C116.117 1361.79 111.992 1360.12 108.796 1356.78C105.637 1353.4 104.057 1348.62 104.057 1342.45C104.057 1336.21 105.6 1331.28 108.684 1327.68C111.769 1324.07 115.968 1322.27 121.282 1322.27C125.779 1322.27 129.44 1323.54 132.264 1326.06C135.126 1328.59 136.742 1331.79 137.114 1335.65H129.365C128.845 1333.61 127.842 1331.99 126.355 1330.8C124.869 1329.57 123.196 1328.96 121.338 1328.96C118.216 1328.96 115.857 1330.11 114.259 1332.42C112.698 1334.68 111.917 1337.88 111.917 1342.01C111.917 1346.17 112.679 1349.38 114.203 1351.65C115.727 1353.92 117.975 1355.05 120.948 1355.05C125.445 1355.05 128.25 1352.63 129.365 1347.8Z"
        fill="white" />
    <path
        d="M152.181 1346.8V1333.75L144.599 1346.8H152.181ZM159.26 1360.51H152.013V1352.43H137.631V1346.13L151.121 1323.5H159.26V1346.8H163.441V1352.43H159.26V1360.51Z"
        fill="white" />
    <path
        d="M177.688 1355.94C179.472 1355.94 180.792 1354.86 181.646 1352.71C182.501 1350.55 182.928 1347 182.928 1342.06C182.928 1337.04 182.501 1333.46 181.646 1331.3C180.792 1329.15 179.472 1328.07 177.688 1328.07C175.867 1328.07 174.53 1329.15 173.675 1331.3C172.82 1333.42 172.393 1336.97 172.393 1341.95C172.393 1346.97 172.82 1350.55 173.675 1352.71C174.53 1354.86 175.867 1355.94 177.688 1355.94ZM177.465 1361.79C169.067 1361.79 164.867 1355.14 164.867 1341.84C164.867 1328.79 169.067 1322.27 177.465 1322.27C186.013 1322.27 190.287 1328.76 190.287 1341.73C190.287 1348.45 189.172 1353.49 186.942 1356.83C184.712 1360.14 181.553 1361.79 177.465 1361.79Z"
        fill="white" />
    <path
        d="M204.905 1355.83C208.472 1355.83 210.256 1353.79 210.256 1349.7C210.256 1347.91 209.81 1346.5 208.918 1345.46C208.026 1344.42 206.689 1343.9 204.905 1343.9C201.411 1343.9 199.665 1345.83 199.665 1349.7C199.665 1353.79 201.411 1355.83 204.905 1355.83ZM201.56 1336.82C202.341 1337.71 203.455 1338.16 204.905 1338.16C206.354 1338.16 207.469 1337.71 208.249 1336.82C209.03 1335.89 209.42 1334.68 209.42 1333.2C209.42 1331.64 209.03 1330.41 208.249 1329.52C207.506 1328.63 206.391 1328.18 204.905 1328.18C203.418 1328.18 202.285 1328.63 201.504 1329.52C200.761 1330.41 200.389 1331.64 200.389 1333.2C200.389 1334.68 200.78 1335.89 201.56 1336.82ZM212.207 1340.28C213.88 1341.02 215.218 1342.27 216.221 1344.01C217.224 1345.72 217.726 1347.62 217.726 1349.7C217.726 1353.34 216.63 1356.28 214.437 1358.51C212.282 1360.7 209.123 1361.79 204.961 1361.79C200.873 1361.79 197.695 1360.7 195.428 1358.51C193.198 1356.28 192.084 1353.45 192.084 1350.03C192.084 1345.61 194.016 1342.47 197.881 1340.61C196.432 1339.87 195.372 1338.77 194.704 1337.32C194.035 1335.84 193.7 1334.22 193.7 1332.47C193.7 1329.54 194.759 1327.1 196.878 1325.17C199.033 1323.24 201.727 1322.27 204.961 1322.27C208.491 1322.27 211.222 1323.2 213.155 1325.06C215.087 1326.92 216.054 1329.31 216.054 1332.25C216.054 1336.3 214.772 1338.98 212.207 1340.28Z"
        fill="white" />
</svg>