<svg width="3482" height="1643" viewBox="0 0 3482 1643" fill="none" xmlns="http://www.w3.org/2000/svg">
    <path
        d="M74 667.5V556.5H229L629.5 964.5L573 1021V1107H638.5L762 1240.5H839.5V1306.5H974V1414L965 1416V1635.5H92V1089H5.5V970.5H100.5V667.5H74Z"
        fill="#76CCF1" stroke="white" stroke-width="2" />
    <path d="M1030.5 1631.5V1261H1446V1348H1518.5V1631.5H1030.5Z" fill="#76CCF1" stroke="#76CCF1" />
    <path d="M1552.5 1469.5H1519V1632.5H1879.5V1483H1702V1362H1552.5V1469.5Z" fill="#76CCF1" stroke="#76CCF1" />
    <path d="M1962.39 1351.38V1262L2533 1266.49V1633H1946V1351.38H1962.39Z" fill="#76CCF1" stroke="#76CCF1" />
    <path d="M2716 1313H2593V1636.5H2716V1313Z" fill="#76CCF1" stroke="#76CCF1" />
    <path d="M3141 893V806.5H3219.5V420.5H3474.5V1632H2717V1260L3083 893H3141Z" fill="#76CCF1" stroke="#76CCF1" />
    <path d="M986 715V25H1839V715H986Z" fill="#E7D4BC" />
    <path
        d="M351.5 608.5L403 563L508.5 660M508.5 660L570 596L739.5 764.5M508.5 660L674.5 831L739.5 764.5M739.5 764.5L795.5 712H983.75M983.75 712H1172M983.75 712V23M704 952.5V908M704 952.5L679.5 928.78M704 952.5V1055.5L781.5 1135.5H888.5L921 1099H1793.5M704 908L679.5 928.78M704 908L795.5 815.042M679.5 928.78L295.5 557H72V669H97M953.936 970.5C966.49 956.256 979.425 941.919 993 928.78M953.936 970.5L993 999H1246M953.936 970.5C922.993 1005.61 891.429 1040.98 860 1055.5C838.5 1065.43 809.5 1060.93 795.5 1048.5C781.5 1036.07 777 1027 777 1008.5C777 976.271 791.5 966.5 829.5 928.78L870 888.066M1246 999L1238.5 985L1251.5 975.5H1285L1298 985L1277.5 1020H1258L1246 999ZM97 669H175.5M97 669V851.5M795.5 815.042L829.5 780.5H977L870 888.066M795.5 815.042L870 888.066M3434.5 672H3475.5M3475.5 672V488.5M3475.5 672V894.5M3475.5 488.5V419.5H3221M3475.5 488.5H3434.5M3322 518V484M3322 675V644.5M3475.5 894.5H3082.5L3032 942M3475.5 894.5V1107.5M2999.5 975L2945.5 1026.5M2902.5 1069L2861 1107.5M2861 1107.5L2801.5 1167M2861 1107.5H3267.5M3475.5 1107.5V1633.5H2715.5M3475.5 1107.5H3318M639 1111.5L766.5 1244M217.5 669H330M97 851.5V974H7V1091.5H91.5V1633.5H842.5M97 851.5H330M2738.5 1239.5L2715.5 1258.5V1633.5M2715.5 1633.5H965M903.5 925L1076 756H1215.5V719H1251.5L1242.5 702M1242.5 702L1263 736.5H1285L1293 719.25M1242.5 702L1258 690H1285L1301 702L1293 719.25M1293 719.25H1401.5M1534 719.25H1492M2982.5 30.5V717L2809.5 891.5L2790 874M2790 874L2765.5 852M2790 874L2710 950.5M2687 929L2731.5 971.5L2694.5 1004.5H2424M2424 1004.5L2433.5 988L2420.5 977H2388L2374 988L2394.5 1022.5H2415.5L2424 1004.5ZM542 5.5L404 138.5V439.5L552.5 580.5L641.5 483.5M567.931 14.727L667.574 111.658M2690.5 148.5V24M2694.5 469H2658V399H2731V469H2694.5ZM2694.5 469V681.5M1401.5 719.25V661H1492V719.25M1401.5 719.25H1492M1576.5 720.75L1585.5 702L1571.5 692H1539.5L1525 702L1545 739.5H1567.5L1576.5 720.75ZM1576.5 720.75H1815.27M1815.27 720.75L1825 739H1847.5L1865.5 701.5L1851.5 691.5H1835.5M1815.27 720.75L1805 701.5L1819.5 691.5H1835.5M1835.5 691.5V130.5M1835.5 24V130.5M1835.5 130.5L1950.5 24M1793.5 1099H2738.5L3082.5 762V419.5H3221M1793.5 1099V863H1597.5V963H1739V1034.5M3221 803.5V419.5M842.5 1633.5V1378M842.5 1633.5H965M965 1633.5V1412M1714.5 1362.5H1828.5M479.5 1101H516V1042.5M1240.5 139L1255 129H1287L1301 139L1283 176.5H1260.5L1240.5 139ZM2661 113.5V183.5H2729.5V113.5H2661ZM2731 681.5V751.5H2694.5H2658V681.5H2731ZM1525 985L1538.5 975.5H1571.5L1584 985L1565 1021.5H1543L1525 985ZM2142.5 598H2170.5V629.5H2142.5V598ZM1807 985L1820.5 975.5H1853.5L1866 985L1847 1021.5H1825L1807 985ZM2090 985L2103.5 975.5H2136.5L2149 985L2130 1021.5H2108L2090 985ZM2090 419.5L2103.5 410H2136.5L2149 419.5L2130 456H2108L2090 419.5ZM2376 419.5L2389.5 410H2422.5L2435 419.5L2416 456H2394L2376 419.5ZM2149 721.5L2135.5 731H2102.5L2090 721.5L2109 685H2131L2149 721.5ZM2149 159.5L2135.5 169H2102.5L2090 159.5L2109 123H2131L2149 159.5ZM2435 721.5L2421.5 731H2388.5L2376 721.5L2395 685H2417L2435 721.5ZM2435 159.5L2421.5 169H2388.5L2376 159.5L2395 123H2417L2435 159.5ZM1300.12 441.653L1286.62 451.153H1253.62L1241.12 441.653L1260.12 405.153H1282.12L1300.12 441.653Z"
        stroke="black" stroke-width="13" />
    <path
        d="M1553 1455.5V1480M1553 1537V1480M227 557L630.25 965.25M630.25 965.25L636 960M630.25 965.25L624.5 970.5M95 1105.5H230.5M230.5 1105.5H236M230.5 1105.5V1041H394.5M278.5 1105.5H357.5M394.5 1041V973.5M394.5 1041H552.5M394.5 905V867M100.5 1087V973.5M1601 914.5H1738V962M3048 803.5H3086.5M3086.5 803.5H3099.5M3086.5 803.5V756.5M3086.5 746H3162V419M3134 803.5H3226M839.5 1299V1306.5M839.5 1306.5V1378.5M839.5 1306.5H927.5M764.5 1240.5H839.5V1262.5M965 1306.5H972.75M972.75 1306.5H980M972.75 1306.5V1415M552.5 1041H573.5M552.5 1041L573.5 1022.02M573.5 1041V1022.02M573.5 1041V1063.5M573.5 1022.02L578.5 1017.5M573.5 1098V1107.5H643M1032.5 1508.5V1260.5H1449V1306.5M1449 1340V1346.5H1517V1630M1554 1415V1363.5H1573M1553 1480H1699.5M1880 1480H1699.5M1880 1542V1369M1699.5 1480V1628M1492.5 1113V1101.5M1492.5 1150.5V1173H1540.5M1823 1277H1862V1173H1540.5M1774.5 1277H1719.5M1576 1277H1540.5V1173M1622.5 1277H1677.5M1945.5 1627.5V1352H1961V1342M1961 1301.5V1261H2488.5M2586.5 1313.5H2592.5M2649 1313.5H2592.5M2592.5 1313.5V1441.5M2592.5 1630V1441.5M2534 1233.5V1266M2534 1266H2523.5M2534 1266V1312.5M2534 1312.5V1629M2534 1312.5H2543M2592.5 1441.5H2658.5M2699.5 1441.5H2713M3141 887.5V873.5M2958.5 1021.5H3316.5M3316.5 1112.5V939.5M3316.5 906V894"
        stroke="black" stroke-width="7" />
    <path
        d="M971 1472.93H1031L1030.41 1406H971.594V1490L998.624 1481.74M1030.41 1462.87H971M1030.41 1453.81H971.594M1030.41 1444.25H971.594M1031 1434.68H971M1030.41 1424.62H971M1030.41 1415.56H971.594M1027.44 1472.93L998.624 1481.74M998.624 1481.74H971"
        stroke="black" stroke-width="2" />
    <path
        d="M2533 1476.93H2593L2592.41 1410H2533.59V1494L2560.62 1485.74M2592.41 1466.87H2533M2592.41 1457.81H2533.59M2592.41 1448.25H2533.59M2593 1438.68H2533M2592.41 1428.62H2533M2592.41 1419.56H2533.59M2589.44 1476.93L2560.62 1485.74M2560.62 1485.74H2533"
        stroke="black" stroke-width="2" />
    <path
        d="M3218 685.646H3166L3166.51 747H3217.49V670L3194.06 677.573M3166.51 694.872H3218M3166.51 703.176H3217.49M3166.51 711.941H3217.49M3166 720.706H3218M3166.51 729.932H3218M3166.51 738.235H3217.49M3169.09 685.646L3194.06 677.573M3194.06 677.573H3218"
        stroke="black" stroke-width="2" />
    <path
        d="M1734.08 1454V1382M1734.08 1454L1805 1453.29V1382H1715.5V1428L1734.08 1454ZM1744.75 1453.29V1382M1754.35 1453.29V1382M1764.48 1453.29V1382M1774.61 1454V1382M1785.27 1453.29V1382M1794.87 1453.29V1382M1724 1439.89L1724.75 1382"
        stroke="black" stroke-width="2" />
    <path
        d="M559.711 820.997L523.986 856.69L571.342 903.38L606.359 868.393L547.371 809.353L537.079 831.24M531.408 863.411L566.779 828.071M537.769 869.778L572.786 834.791M544.484 876.498L579.501 841.512M550.845 883.572L586.569 847.879M558.266 890.293L593.637 854.953M564.628 896.659L599.645 861.673M526.109 854.57L537.079 831.24M537.079 831.24L553.526 814.807"
        stroke="black" stroke-width="2" />
    <path
        d="M562.597 721.608L518.605 765.561L568.436 814.565L611.557 771.481L549.564 709.435L535.844 735.339M526.468 772.561L570.025 729.042M533.153 779.252L576.274 736.168M540.21 786.314L583.331 743.231M546.83 793.812L590.823 749.858M554.694 800.811L598.251 757.293M561.379 807.502L604.5 764.419M521.218 762.95L535.844 735.339M535.844 735.339L556.097 715.103"
        stroke="black" stroke-width="2" />
    <path
        d="M871.996 885.154L910.062 923.702L956.727 876.867L919.414 839.082L860.377 897.382L883.332 909.013M916.759 916.335L879.07 878.168M923.126 910.048L885.814 872.263M929.846 903.412L892.534 865.627M936.943 897.157L898.877 858.609M943.64 889.79L905.951 851.624M950.006 883.503L912.694 845.718M907.801 921.412L883.332 909.013M883.332 909.013L865.807 891.266"
        stroke="black" stroke-width="2" />
    <path
        d="M1617.92 1170V1105L1547 1105.64V1169.36H1636L1627.25 1140.07M1607.25 1105.64V1170M1597.65 1105.64V1169.36M1587.52 1105.64V1169.36M1577.39 1105V1170M1566.73 1105.64V1170M1557.13 1105.64V1169.36M1617.92 1108.86L1627.25 1140.07M1627.25 1140.07V1170"
        stroke="black" stroke-width="2" />
    <rect x="329" y="1340" width="177" height="173" rx="3" fill="black" stroke="white" stroke-width="4" />
    <path
        d="M385.016 1433.41H393.912C392.12 1443.07 385.464 1449.47 375.608 1449.47C364.472 1449.47 355.96 1441.86 355.96 1427.26C355.96 1412.86 363.576 1404.1 375.736 1404.1C386.36 1404.1 393.08 1410.88 393.912 1419.46H385.016C383.8 1414.66 380.024 1411.78 375.8 1411.78C368.44 1411.78 364.984 1417.47 364.984 1426.75C364.984 1436.16 368.44 1441.73 375.352 1441.73C380.6 1441.73 383.8 1438.72 385.016 1433.41ZM410.058 1442.75C414.09 1442.75 416.074 1438.4 416.074 1426.82C416.074 1415.04 414.09 1410.75 410.058 1410.75C406.026 1410.75 403.978 1414.98 403.978 1426.69C403.978 1438.53 406.026 1442.75 410.058 1442.75ZM409.802 1449.47C400.65 1449.47 395.338 1442.56 395.338 1426.56C395.338 1410.62 400.65 1404.1 409.802 1404.1C418.954 1404.1 424.522 1410.62 424.522 1426.43C424.522 1442.24 418.954 1449.47 409.802 1449.47ZM442.905 1448H434.585V1418.62H425.881V1412.86C433.177 1412.86 435.609 1410.43 436.121 1405.5H442.905V1448ZM460.371 1442.75C464.403 1442.75 466.387 1438.4 466.387 1426.82C466.387 1415.04 464.403 1410.75 460.371 1410.75C456.339 1410.75 454.291 1414.98 454.291 1426.69C454.291 1438.53 456.339 1442.75 460.371 1442.75ZM460.115 1449.47C450.963 1449.47 445.651 1442.56 445.651 1426.56C445.651 1410.62 450.963 1404.1 460.115 1404.1C469.267 1404.1 474.835 1410.62 474.835 1426.43C474.835 1442.24 469.267 1449.47 460.115 1449.47Z"
        fill="white" />
    <rect x="1187" y="1340" width="177" height="173" rx="3" fill="black" stroke="white" stroke-width="4" />
    <path
        d="M1243.02 1433.41H1251.91C1250.12 1443.07 1243.46 1449.47 1233.61 1449.47C1222.47 1449.47 1213.96 1441.86 1213.96 1427.26C1213.96 1412.86 1221.58 1404.1 1233.74 1404.1C1244.36 1404.1 1251.08 1410.88 1251.91 1419.46H1243.02C1241.8 1414.66 1238.02 1411.78 1233.8 1411.78C1226.44 1411.78 1222.98 1417.47 1222.98 1426.75C1222.98 1436.16 1226.44 1441.73 1233.35 1441.73C1238.6 1441.73 1241.8 1438.72 1243.02 1433.41ZM1268.06 1442.75C1272.09 1442.75 1274.07 1438.4 1274.07 1426.82C1274.07 1415.04 1272.09 1410.75 1268.06 1410.75C1264.03 1410.75 1261.98 1414.98 1261.98 1426.69C1261.98 1438.53 1264.03 1442.75 1268.06 1442.75ZM1267.8 1449.47C1258.65 1449.47 1253.34 1442.56 1253.34 1426.56C1253.34 1410.62 1258.65 1404.1 1267.8 1404.1C1276.95 1404.1 1282.52 1410.62 1282.52 1426.43C1282.52 1442.24 1276.95 1449.47 1267.8 1449.47ZM1312.81 1448H1283.88C1283.95 1440.13 1285.8 1434.69 1296.68 1426.88C1302.76 1422.53 1304.55 1420.35 1304.55 1416.77C1304.55 1412.48 1301.93 1411.2 1298.67 1411.2C1294.89 1411.2 1292.46 1413.06 1292.46 1418.75H1284.46C1284.46 1409.6 1289.58 1404.1 1298.28 1404.1C1306.86 1404.1 1312.68 1408.13 1312.68 1416.51C1312.68 1422.98 1309.48 1426.69 1300.39 1433.15C1297.13 1435.52 1294.7 1438.59 1294.51 1440.77H1312.81V1448ZM1329.18 1442.75C1333.22 1442.75 1335.2 1438.4 1335.2 1426.82C1335.2 1415.04 1333.22 1410.75 1329.18 1410.75C1325.15 1410.75 1323.1 1414.98 1323.1 1426.69C1323.1 1438.53 1325.15 1442.75 1329.18 1442.75ZM1328.93 1449.47C1319.78 1449.47 1314.46 1442.56 1314.46 1426.56C1314.46 1410.62 1319.78 1404.1 1328.93 1404.1C1338.08 1404.1 1343.65 1410.62 1343.65 1426.43C1343.65 1442.24 1338.08 1449.47 1328.93 1449.47Z"
        fill="white" />
    <rect x="2158" y="1340" width="177" height="173" rx="3" fill="black" stroke="white" stroke-width="4" />
    <path
        d="M2214.02 1433.41H2222.91C2221.12 1443.07 2214.46 1449.47 2204.61 1449.47C2193.47 1449.47 2184.96 1441.86 2184.96 1427.26C2184.96 1412.86 2192.58 1404.1 2204.74 1404.1C2215.36 1404.1 2222.08 1410.88 2222.91 1419.46H2214.02C2212.8 1414.66 2209.02 1411.78 2204.8 1411.78C2197.44 1411.78 2193.98 1417.47 2193.98 1426.75C2193.98 1436.16 2197.44 1441.73 2204.35 1441.73C2209.6 1441.73 2212.8 1438.72 2214.02 1433.41ZM2239.06 1442.75C2243.09 1442.75 2245.07 1438.4 2245.07 1426.82C2245.07 1415.04 2243.09 1410.75 2239.06 1410.75C2235.03 1410.75 2232.98 1414.98 2232.98 1426.69C2232.98 1438.53 2235.03 1442.75 2239.06 1442.75ZM2238.8 1449.47C2229.65 1449.47 2224.34 1442.56 2224.34 1426.56C2224.34 1410.62 2229.65 1404.1 2238.8 1404.1C2247.95 1404.1 2253.52 1410.62 2253.52 1426.43C2253.52 1442.24 2247.95 1449.47 2238.8 1449.47ZM2266.4 1428.93V1423.1C2273.57 1423.1 2275.04 1420.42 2275.04 1417.28C2275.04 1413.06 2273.38 1410.75 2269.54 1410.75C2266.34 1410.75 2263.91 1413.31 2263.91 1417.73H2256.16C2256.16 1409.6 2261.79 1404.1 2269.86 1404.1C2277.22 1404.1 2283.04 1408.83 2283.04 1415.68C2283.04 1419.52 2281.38 1423.3 2278.05 1425.22C2282.08 1426.88 2284.39 1430.34 2284.39 1435.71C2284.39 1444.22 2278.31 1449.47 2269.41 1449.47C2260.58 1449.47 2255.46 1444.16 2255.46 1435.52H2263.46C2263.46 1440.45 2265.63 1442.62 2269.79 1442.62C2273.25 1442.62 2275.87 1440.06 2275.87 1435.58C2275.87 1430.59 2273.31 1428.93 2266.4 1428.93ZM2301.06 1442.75C2305.09 1442.75 2307.07 1438.4 2307.07 1426.82C2307.07 1415.04 2305.09 1410.75 2301.06 1410.75C2297.03 1410.75 2294.98 1414.98 2294.98 1426.69C2294.98 1438.53 2297.03 1442.75 2301.06 1442.75ZM2300.8 1449.47C2291.65 1449.47 2286.34 1442.56 2286.34 1426.56C2286.34 1410.62 2291.65 1404.1 2300.8 1404.1C2309.95 1404.1 2315.52 1410.62 2315.52 1426.43C2315.52 1442.24 2309.95 1449.47 2300.8 1449.47Z"
        fill="white" />
    <rect x="3110" y="1348" width="177" height="173" rx="3" fill="black" stroke="white" stroke-width="4" />
    <path
        d="M3166.02 1441.41H3174.91C3173.12 1451.07 3166.46 1457.47 3156.61 1457.47C3145.47 1457.47 3136.96 1449.86 3136.96 1435.26C3136.96 1420.86 3144.58 1412.1 3156.74 1412.1C3167.36 1412.1 3174.08 1418.88 3174.91 1427.46H3166.02C3164.8 1422.66 3161.02 1419.78 3156.8 1419.78C3149.44 1419.78 3145.98 1425.47 3145.98 1434.75C3145.98 1444.16 3149.44 1449.73 3156.35 1449.73C3161.6 1449.73 3164.8 1446.72 3166.02 1441.41ZM3191.06 1450.75C3195.09 1450.75 3197.07 1446.4 3197.07 1434.82C3197.07 1423.04 3195.09 1418.75 3191.06 1418.75C3187.03 1418.75 3184.98 1422.98 3184.98 1434.69C3184.98 1446.53 3187.03 1450.75 3191.06 1450.75ZM3190.8 1457.47C3181.65 1457.47 3176.34 1450.56 3176.34 1434.56C3176.34 1418.62 3181.65 1412.1 3190.8 1412.1C3199.95 1412.1 3205.52 1418.62 3205.52 1434.43C3205.52 1450.24 3199.95 1457.47 3190.8 1457.47ZM3223.59 1440.26V1425.28L3214.88 1440.26H3223.59ZM3231.71 1456H3223.39V1446.72H3206.88V1439.49L3222.37 1413.5H3231.71V1440.26H3236.51V1446.72H3231.71V1456ZM3252.87 1450.75C3256.9 1450.75 3258.89 1446.4 3258.89 1434.82C3258.89 1423.04 3256.9 1418.75 3252.87 1418.75C3248.84 1418.75 3246.79 1422.98 3246.79 1434.69C3246.79 1446.53 3248.84 1450.75 3252.87 1450.75ZM3252.61 1457.47C3243.46 1457.47 3238.15 1450.56 3238.15 1434.56C3238.15 1418.62 3243.46 1412.1 3252.61 1412.1C3261.77 1412.1 3267.33 1418.62 3267.33 1434.43C3267.33 1450.24 3261.77 1457.47 3252.61 1457.47Z"
        fill="white" />
    <rect x="334.5" y="732.5" width="133" height="132" rx="7.5" fill="#125900" stroke="white" stroke-width="5" />
    <path d="M348 831.5V845H454.5V753H427.5V767H411V783.5H396V799H377.5V816H364V831.5H348Z" fill="white" stroke="white"
        stroke-width="2" />
    <path d="M440 833H431.55L421.7 818.05L418 821.7V833H411.15V799.8H418V813.3L430.7 799.8H439.7L426.6 812.9L440 833Z"
        fill="#125900" />
    <rect x="476.5" y="590.5" width="133" height="132" rx="7.5" fill="#125900" stroke="white" stroke-width="5" />
    <path d="M490 689.5V703H596.5V611H569.5V625H553V641.5H538V657H519.5V674H506V689.5H490Z" fill="white" stroke="white"
        stroke-width="2" />
    <path
        d="M566.4 681.4V657.8H573.35V682.05C573.35 688.1 569.6 692.15 562.45 692.15C556.05 692.15 552.2 688.65 552.2 681.85V678.45H558.5V681.5C558.5 684.85 559.6 686.5 562.45 686.5C565.65 686.5 566.4 685.05 566.4 681.4Z"
        fill="#125900" />
    <rect x="785.5" y="906.5" width="133" height="132" rx="7.5" fill="#125900" stroke="white" stroke-width="5" />
    <path d="M799 1005.5V1019H905.5V927H878.5V941H862V957.5H847V973H828.5V990H815V1005.5H799Z" fill="white"
        stroke="white" stroke-width="2" />
    <path
        d="M875.4 997.4V973.8H882.35V998.05C882.35 1004.1 878.6 1008.15 871.45 1008.15C865.05 1008.15 861.2 1004.65 861.2 997.85V994.45H867.5V997.5C867.5 1000.85 868.6 1002.5 871.45 1002.5C874.65 1002.5 875.4 1001.05 875.4 997.4Z"
        fill="#125900" />
    <rect x="973.5" y="1508.5" width="133" height="132" rx="7.5" fill="#125900" stroke="white" stroke-width="5" />
    <path d="M987 1607.5V1621H1093.5V1529H1066.5V1543H1050V1559.5H1035V1575H1016.5V1592H1003V1607.5H987Z" fill="white"
        stroke="white" stroke-width="2" />
    <path d="M1071.7 1595H1057.1V1609H1050.15V1575.8H1073.8V1581.6H1057.1V1589.15H1071.7V1595Z" fill="#125900" />
    <rect x="1638.5" y="1038.5" width="133" height="132" rx="7.5" fill="#125900" stroke="white" stroke-width="5" />
    <path d="M1652 1137.5V1151H1758.5V1059H1731.5V1073H1715V1089.5H1700V1105H1681.5V1122H1668V1137.5H1652Z" fill="white"
        stroke="white" stroke-width="2" />
    <path d="M1740.35 1139H1715.15V1105.8H1739.55V1111.6H1721.9V1118.7H1738.15V1124.55H1721.9V1133.1H1740.35V1139Z"
        fill="#125900" />
    <rect x="2466.5" y="1508.5" width="133" height="132" rx="7.5" fill="#125900" stroke="white" stroke-width="5" />
    <path d="M2480 1607.5V1621H2586.5V1529H2559.5V1543H2543V1559.5H2528V1575H2509.5V1592H2496V1607.5H2480Z" fill="white"
        stroke="white" stroke-width="2" />
    <path
        d="M2549.9 1603.35H2555.65C2561.7 1603.35 2564.3 1599.55 2564.3 1592.05C2564.3 1584.55 2561.7 1581.55 2555.05 1581.55H2549.9V1603.35ZM2557.05 1609H2543.15V1575.8H2556C2565 1575.8 2571.4 1581.95 2571.4 1592.05C2571.4 1602.15 2565.65 1609 2557.05 1609Z"
        fill="#125900" />
    <rect x="3125.5" y="442.5" width="133" height="132" rx="7.5" fill="#125900" stroke="white" stroke-width="5" />
    <path d="M3139 541.5V555H3245.5V463H3218.5V477H3202V493.5H3187V509H3168.5V526H3155V541.5H3139Z" fill="white"
        stroke="white" stroke-width="2" />
    <path
        d="M3224.45 531.6H3231.4C3230 539.15 3224.8 544.15 3217.1 544.15C3208.4 544.15 3201.75 538.2 3201.75 526.8C3201.75 515.55 3207.7 508.7 3217.2 508.7C3225.5 508.7 3230.75 514 3231.4 520.7H3224.45C3223.5 516.95 3220.55 514.7 3217.25 514.7C3211.5 514.7 3208.8 519.15 3208.8 526.4C3208.8 533.75 3211.5 538.1 3216.9 538.1C3221 538.1 3223.5 535.75 3224.45 531.6Z"
        fill="#125900" />
    <rect x="1579.5" y="1354.5" width="133" height="132" rx="7.5" fill="#959595" stroke="black" stroke-width="5" />
    <path d="M1593 1453.5V1467H1699.5V1375H1672.5V1389H1656V1405.5H1641V1421H1622.5V1438H1609V1453.5H1593Z" fill="black"
        stroke="black" stroke-width="2" />
    <path d="M1668.5 1455H1662V1432.05H1655.2V1427.55C1660.9 1427.55 1662.8 1425.65 1663.2 1421.8H1668.5V1455Z"
        fill="#959595" />
    <rect x="636.356" y="95.3221" width="500" height="500" fill="black" />
    <path
        d="M822.892 277.551H843.742C839.542 300.201 823.942 315.201 800.842 315.201C774.742 315.201 754.792 297.351 754.792 263.151C754.792 229.401 772.642 208.851 801.142 208.851C826.042 208.851 841.792 224.751 843.742 244.851H822.892C820.042 233.601 811.192 226.851 801.292 226.851C784.042 226.851 775.942 240.201 775.942 261.951C775.942 284.001 784.042 297.051 800.242 297.051C812.542 297.051 820.042 290.001 822.892 277.551ZM895.084 229.401H868.234V255.951H894.334C905.434 255.951 909.634 250.401 909.634 242.751C909.634 234.951 905.434 229.401 895.084 229.401ZM926.434 311.751H906.034V286.101C906.034 276.501 902.434 272.751 890.434 272.751H868.234V311.751H847.984V212.151H898.534C916.984 212.151 929.134 224.451 929.134 240.951C929.134 251.601 923.884 260.601 914.284 264.051C923.134 266.901 926.434 271.851 926.434 283.551V311.751ZM1018.75 311.751H993.399L974.349 277.551L954.249 311.751H929.949L962.199 260.901L931.749 212.151H956.349L974.349 244.401L992.499 212.151H1016.65L986.349 260.001L1018.75 311.751ZM886.638 479.451C896.088 479.451 900.738 469.251 900.738 442.101C900.738 414.501 896.088 404.451 886.638 404.451C877.188 404.451 872.388 414.351 872.388 441.801C872.388 469.551 877.188 479.451 886.638 479.451ZM886.038 495.201C864.588 495.201 852.138 479.001 852.138 441.501C852.138 404.151 864.588 388.851 886.038 388.851C907.488 388.851 920.538 404.151 920.538 441.201C920.538 478.251 907.488 495.201 886.038 495.201Z"
        fill="white" />
    <path
        d="M262.615 1077.88H268.175C267.055 1083.92 262.895 1087.92 256.735 1087.92C249.775 1087.92 244.455 1083.16 244.455 1074.04C244.455 1065.04 249.215 1059.56 256.815 1059.56C263.455 1059.56 267.655 1063.8 268.175 1069.16H262.615C261.855 1066.16 259.495 1064.36 256.855 1064.36C252.255 1064.36 250.095 1067.92 250.095 1073.72C250.095 1079.6 252.255 1083.08 256.575 1083.08C259.855 1083.08 261.855 1081.2 262.615 1077.88ZM278.267 1083.72C280.787 1083.72 282.027 1081 282.027 1073.76C282.027 1066.4 280.787 1063.72 278.267 1063.72C275.747 1063.72 274.467 1066.36 274.467 1073.68C274.467 1081.08 275.747 1083.72 278.267 1083.72ZM278.107 1087.92C272.387 1087.92 269.067 1083.6 269.067 1073.6C269.067 1063.64 272.387 1059.56 278.107 1059.56C283.827 1059.56 287.307 1063.64 287.307 1073.52C287.307 1083.4 283.827 1087.92 278.107 1087.92ZM298.796 1087H293.596V1068.64H288.156V1065.04C292.716 1065.04 294.236 1063.52 294.556 1060.44H298.796V1087ZM309.712 1083.72C312.232 1083.72 313.472 1081 313.472 1073.76C313.472 1066.4 312.232 1063.72 309.712 1063.72C307.192 1063.72 305.912 1066.36 305.912 1073.68C305.912 1081.08 307.192 1083.72 309.712 1083.72ZM309.552 1087.92C303.832 1087.92 300.512 1083.6 300.512 1073.6C300.512 1063.64 303.832 1059.56 309.552 1059.56C315.272 1059.56 318.752 1063.64 318.752 1073.52C318.752 1083.4 315.272 1087.92 309.552 1087.92ZM335.521 1076.96L332.201 1066.4H332.161L328.761 1076.96H335.521ZM344.841 1087H338.801L337.121 1081.52H327.321L325.441 1087H319.561L329.041 1060.44H335.481L344.841 1087Z"
        fill="black" />
    <path
        d="M549.88 1132.02V1126.46C555.92 1127.58 559.92 1131.74 559.92 1137.9C559.92 1144.86 555.16 1150.18 546.04 1150.18C537.04 1150.18 531.56 1145.42 531.56 1137.82C531.56 1131.18 535.8 1126.98 541.16 1126.46V1132.02C538.16 1132.78 536.36 1135.14 536.36 1137.78C536.36 1142.38 539.92 1144.54 545.72 1144.54C551.6 1144.54 555.08 1142.38 555.08 1138.06C555.08 1134.78 553.2 1132.78 549.88 1132.02ZM555.72 1116.37C555.72 1113.85 553 1112.61 545.76 1112.61C538.4 1112.61 535.72 1113.85 535.72 1116.37C535.72 1118.89 538.36 1120.17 545.68 1120.17C553.08 1120.17 555.72 1118.89 555.72 1116.37ZM559.92 1116.53C559.92 1122.25 555.6 1125.57 545.6 1125.57C535.64 1125.57 531.56 1122.25 531.56 1116.53C531.56 1110.81 535.64 1107.33 545.52 1107.33C555.4 1107.33 559.92 1110.81 559.92 1116.53ZM559 1095.84V1101.04H540.64V1106.48H537.04C537.04 1101.92 535.52 1100.4 532.44 1100.08V1095.84H559ZM555.72 1084.92C555.72 1082.4 553 1081.16 545.76 1081.16C538.4 1081.16 535.72 1082.4 535.72 1084.92C535.72 1087.44 538.36 1088.72 545.68 1088.72C553.08 1088.72 555.72 1087.44 555.72 1084.92ZM559.92 1085.08C559.92 1090.8 555.6 1094.12 545.6 1094.12C535.64 1094.12 531.56 1090.8 531.56 1085.08C531.56 1079.36 535.64 1075.88 545.52 1075.88C555.4 1075.88 559.92 1079.36 559.92 1085.08ZM554.48 1068.91V1061.87C554.48 1059.31 552.84 1057.79 550.68 1057.79C548.36 1057.79 547.32 1059.31 547.32 1061.79V1068.91H554.48ZM537.04 1062.23V1068.91H542.8V1061.91C542.8 1059.71 541.8 1058.55 539.92 1058.55C537.88 1058.55 537.04 1059.63 537.04 1062.23ZM559 1062.31V1074.27H532.44V1061.19C532.44 1055.99 535.24 1053.19 539.68 1053.19C541.96 1053.19 543.88 1054.59 544.64 1056.43C545.48 1054.19 547.28 1052.39 551.08 1052.39C555.92 1052.39 559 1055.63 559 1062.31Z"
        fill="black" />
    <path
        d="M3137.84 967.6H3144.79C3143.39 975.15 3138.19 980.15 3130.49 980.15C3121.79 980.15 3115.14 974.2 3115.14 962.8C3115.14 951.55 3121.09 944.7 3130.59 944.7C3138.89 944.7 3144.14 950 3144.79 956.7H3137.84C3136.89 952.95 3133.94 950.7 3130.64 950.7C3124.89 950.7 3122.19 955.15 3122.19 962.4C3122.19 969.75 3124.89 974.1 3130.29 974.1C3134.39 974.1 3136.89 971.75 3137.84 967.6ZM3157.41 974.9C3160.56 974.9 3162.11 971.5 3162.11 962.45C3162.11 953.25 3160.56 949.9 3157.41 949.9C3154.26 949.9 3152.66 953.2 3152.66 962.35C3152.66 971.6 3154.26 974.9 3157.41 974.9ZM3157.21 980.15C3150.06 980.15 3145.91 974.75 3145.91 962.25C3145.91 949.8 3150.06 944.7 3157.21 944.7C3164.36 944.7 3168.71 949.8 3168.71 962.15C3168.71 974.5 3164.36 980.15 3157.21 980.15ZM3182.82 966.7V955L3176.02 966.7H3182.82ZM3189.17 979H3182.67V971.75H3169.77V966.1L3181.87 945.8H3189.17V966.7H3192.92V971.75H3189.17V979ZM3204.31 979H3197.81V956.05H3191.01V951.55C3196.71 951.55 3198.61 949.65 3199.01 945.8H3204.31V979Z"
        fill="black" />
    <path
        d="M3120.09 1062.74H3126.34C3125.08 1069.53 3120.4 1074.04 3113.47 1074.04C3105.64 1074.04 3099.66 1068.68 3099.66 1058.42C3099.66 1048.29 3105.01 1042.13 3113.56 1042.13C3121.03 1042.13 3125.76 1046.9 3126.34 1052.93H3120.09C3119.23 1049.55 3116.58 1047.53 3113.61 1047.53C3108.43 1047.53 3106 1051.53 3106 1058.06C3106 1064.67 3108.43 1068.59 3113.29 1068.59C3116.98 1068.59 3119.23 1066.47 3120.09 1062.74ZM3137.69 1069.31C3140.53 1069.31 3141.92 1066.25 3141.92 1058.1C3141.92 1049.82 3140.53 1046.81 3137.69 1046.81C3134.86 1046.81 3133.42 1049.78 3133.42 1058.01C3133.42 1066.34 3134.86 1069.31 3137.69 1069.31ZM3137.51 1074.04C3131.08 1074.04 3127.34 1069.17 3127.34 1057.92C3127.34 1046.72 3131.08 1042.13 3137.51 1042.13C3143.95 1042.13 3147.86 1046.72 3147.86 1057.83C3147.86 1068.95 3143.95 1074.04 3137.51 1074.04ZM3160.57 1061.93V1051.4L3154.45 1061.93H3160.57ZM3166.28 1073H3160.43V1066.47H3148.82V1061.39L3159.71 1043.12H3166.28V1061.93H3169.66V1066.47H3166.28V1073ZM3181.16 1069.31C3183.99 1069.31 3185.39 1066.25 3185.39 1058.1C3185.39 1049.82 3183.99 1046.81 3181.16 1046.81C3178.32 1046.81 3176.88 1049.78 3176.88 1058.01C3176.88 1066.34 3178.32 1069.31 3181.16 1069.31ZM3180.98 1074.04C3174.54 1074.04 3170.81 1069.17 3170.81 1057.92C3170.81 1046.72 3174.54 1042.13 3180.98 1042.13C3187.41 1042.13 3191.33 1046.72 3191.33 1057.83C3191.33 1068.95 3187.41 1074.04 3180.98 1074.04ZM3210.19 1061.7L3206.46 1049.82H3206.41L3202.59 1061.7H3210.19ZM3220.68 1073H3213.88L3211.99 1066.83H3200.97L3198.85 1073H3192.24L3202.9 1043.12H3210.15L3220.68 1073Z"
        fill="black" />
    <path
        d="M3354.6 1010.74H3360.86C3359.6 1017.53 3354.92 1022.04 3347.99 1022.04C3340.16 1022.04 3334.17 1016.68 3334.17 1006.42C3334.17 996.295 3339.53 990.13 3348.08 990.13C3355.55 990.13 3360.27 994.9 3360.86 1000.93H3354.6C3353.75 997.555 3351.09 995.53 3348.12 995.53C3342.95 995.53 3340.52 999.535 3340.52 1006.06C3340.52 1012.67 3342.95 1016.59 3347.81 1016.59C3351.5 1016.59 3353.75 1014.47 3354.6 1010.74ZM3372.21 1017.31C3375.04 1017.31 3376.44 1014.25 3376.44 1006.1C3376.44 997.825 3375.04 994.81 3372.21 994.81C3369.37 994.81 3367.93 997.78 3367.93 1006.01C3367.93 1014.34 3369.37 1017.31 3372.21 1017.31ZM3372.03 1022.04C3365.59 1022.04 3361.86 1017.17 3361.86 1005.92C3361.86 994.72 3365.59 990.13 3372.03 990.13C3378.46 990.13 3382.38 994.72 3382.38 1005.83C3382.38 1016.95 3378.46 1022.04 3372.03 1022.04ZM3395.08 1009.93V999.4L3388.96 1009.93H3395.08ZM3400.8 1021H3394.95V1014.47H3383.34V1009.39L3394.23 991.12H3400.8V1009.93H3404.17V1014.47H3400.8V1021ZM3414.42 1021H3408.57V1000.34H3402.45V996.295C3407.58 996.295 3409.29 994.585 3409.65 991.12H3414.42V1021ZM3433.68 1009.7L3429.94 997.825H3429.9L3426.07 1009.7H3433.68ZM3444.16 1021H3437.37L3435.48 1014.83H3424.45L3422.34 1021H3415.72L3426.39 991.12H3433.63L3444.16 1021Z"
        fill="black" />
    <rect x="1578.5" y="1508.5" width="81" height="79" rx="3.5" fill="black" stroke="white" stroke-width="3" />
    <path
        d="M1607.29 1522.5C1607.29 1525.54 1604.83 1528 1601.79 1528C1598.76 1528 1596.29 1525.54 1596.29 1522.5C1596.29 1519.46 1598.76 1517 1601.79 1517C1604.83 1517 1607.29 1519.46 1607.29 1522.5Z"
        fill="white" />
    <path
        d="M1591.29 1530.98C1591.79 1528.98 1601.79 1529.48 1601.79 1529.48C1601.79 1529.48 1611.79 1528.98 1612.41 1530.63C1612.41 1530.63 1612.68 1553.66 1612.41 1553.91C1612.41 1553.91 1610.89 1556.44 1609.37 1553.91V1534.68H1607.35V1577.7C1606.85 1580.74 1603.31 1580.74 1603.31 1577.7V1552.98H1600.29V1577.48C1600.29 1580.48 1596.79 1580.48 1596.29 1577.48V1534.98H1594.29V1553.98C1592.79 1556.48 1591.29 1553.98 1591.29 1553.98C1591.03 1553.73 1590.79 1532.98 1591.29 1530.98Z"
        fill="white" />
    <path
        d="M1601.79 1529.48V1529.48M1601.79 1529.48C1601.79 1529.48 1591.79 1528.98 1591.29 1530.98C1590.79 1532.98 1591.03 1553.73 1591.29 1553.98C1591.29 1553.98 1592.79 1556.48 1594.29 1553.98V1534.98H1596.29V1577.48C1596.79 1580.48 1600.29 1580.48 1600.29 1577.48V1552.98H1603.31V1577.7C1603.31 1580.74 1606.85 1580.74 1607.35 1577.7V1534.68H1609.37V1553.91C1610.89 1556.44 1612.41 1553.91 1612.41 1553.91C1612.68 1553.66 1612.41 1530.63 1612.41 1530.63C1611.79 1528.98 1601.79 1529.48 1601.79 1529.48ZM1607.29 1522.5C1607.29 1525.54 1604.83 1528 1601.79 1528C1598.76 1528 1596.29 1525.54 1596.29 1522.5C1596.29 1519.46 1598.76 1517 1601.79 1517C1604.83 1517 1607.29 1519.46 1607.29 1522.5Z"
        stroke="white" />
    <path
        d="M1626 1546.5L1628.5 1562.5H1639L1646 1575L1651 1572C1654.6 1568.8 1649.17 1569 1646 1569.5L1640.5 1560H1632.5V1557C1636.5 1557 1639 1557 1640 1556.5C1640.3 1556.35 1640.17 1554.83 1639.5 1554.5H1631L1630.5 1548.5L1631.5 1548C1636 1547 1634.5 1540.5 1630 1541C1626.4 1541.4 1625.83 1544.83 1626 1546.5Z"
        fill="white" stroke="white" />
    <path
        d="M1625.25 1558C1622.11 1559.85 1620 1563.32 1620 1567.28C1620 1573.2 1624.7 1578 1630.5 1578C1632.86 1578 1635.05 1577.2 1636.8 1575.86C1638.24 1574.75 1639.4 1573.28 1640.13 1571.57"
        stroke="white" stroke-width="4" />
    <rect x="1732.5" y="1508.5" width="81" height="79" rx="3.5" fill="black" stroke="white" stroke-width="3" />
    <path
        d="M1761.29 1522.5C1761.29 1525.54 1758.83 1528 1755.79 1528C1752.76 1528 1750.29 1525.54 1750.29 1522.5C1750.29 1519.46 1752.76 1517 1755.79 1517C1758.83 1517 1761.29 1519.46 1761.29 1522.5Z"
        fill="white" />
    <path
        d="M1755.79 1528C1758.83 1528 1761.29 1525.54 1761.29 1522.5C1761.29 1519.46 1758.83 1517 1755.79 1517C1752.76 1517 1750.29 1519.46 1750.29 1522.5C1750.29 1525.54 1752.76 1528 1755.79 1528Z"
        fill="white" />
    <path
        d="M1745.29 1530.98C1745.79 1528.98 1755.79 1529.48 1755.79 1529.48C1755.79 1529.48 1765.64 1529.03 1766.14 1531.04C1766.65 1533.05 1772.26 1549.9 1771.99 1550.14C1771.99 1550.14 1770.48 1552.65 1768.96 1550.14L1763.12 1535.06H1761.1L1768.96 1556.67H1761.1V1577.74C1760.59 1580.75 1757.06 1580.75 1757.06 1577.74V1556.67H1754.29V1577.48C1754.29 1580.48 1750.79 1580.48 1750.29 1577.48V1556.5H1742.5L1750.29 1534.98H1748.29L1742.5 1550C1741 1552.5 1739.5 1550 1739.5 1550C1739.23 1549.75 1744.79 1532.98 1745.29 1530.98Z"
        fill="white" />
    <path
        d="M1755.79 1529.48V1529.48M1755.79 1529.48C1755.79 1529.48 1745.79 1528.98 1745.29 1530.98C1744.79 1532.98 1739.23 1549.75 1739.5 1550C1739.5 1550 1741 1552.5 1742.5 1550L1748.29 1534.98H1750.29L1742.5 1556.5H1750.29V1577.48C1750.79 1580.48 1754.29 1580.48 1754.29 1577.48V1556.67H1757.06V1577.74C1757.06 1580.75 1760.59 1580.75 1761.1 1577.74V1556.67H1768.96L1761.1 1535.06H1763.12L1768.96 1550.14C1770.48 1552.65 1771.99 1550.14 1771.99 1550.14C1772.26 1549.9 1766.65 1533.05 1766.14 1531.04C1765.64 1529.03 1755.79 1529.48 1755.79 1529.48ZM1761.29 1522.5C1761.29 1525.54 1758.83 1528 1755.79 1528C1752.76 1528 1750.29 1525.54 1750.29 1522.5C1750.29 1519.46 1752.76 1517 1755.79 1517C1758.83 1517 1761.29 1519.46 1761.29 1522.5Z"
        stroke="white" />
    <path
        d="M1780 1546.5L1782.5 1562.5H1793L1800 1575L1805 1572C1808.6 1568.8 1803.17 1569 1800 1569.5L1794.5 1560H1786.5V1557C1790.5 1557 1793 1557 1794 1556.5C1794.3 1556.35 1794.17 1554.83 1793.5 1554.5H1785L1784.5 1548.5L1785.5 1548C1790 1547 1788.5 1540.5 1784 1541C1780.4 1541.4 1779.83 1544.83 1780 1546.5Z"
        fill="white" stroke="white" />
    <path
        d="M1779.25 1558C1776.11 1559.85 1774 1563.32 1774 1567.28C1774 1573.2 1778.7 1578 1784.5 1578C1786.86 1578 1789.05 1577.2 1790.8 1575.86C1792.24 1574.75 1793.4 1573.28 1794.13 1571.57"
        stroke="white" stroke-width="4" />
    <path fill-rule="evenodd" clip-rule="evenodd"
        d="M1551 1179.35C1551 1178.05 1552.05 1177 1553.35 1177H1643.65C1644.95 1177 1646 1178.05 1646 1179.35V1269.65C1646 1270.95 1644.95 1272 1643.65 1272H1553.35C1552.05 1272 1551 1270.95 1551 1269.65V1179.35ZM1565.07 1185.21C1565.07 1184.56 1565.6 1184.04 1566.25 1184.04H1573.28C1573.93 1184.04 1574.46 1184.56 1574.46 1185.21V1263.79C1574.46 1264.44 1573.93 1264.96 1573.28 1264.96H1566.25C1565.6 1264.96 1565.07 1264.44 1565.07 1263.79V1185.21ZM1624.89 1184.04C1624.24 1184.04 1623.72 1184.56 1623.72 1185.21V1263.79C1623.72 1264.44 1624.24 1264.96 1624.89 1264.96H1631.93C1632.57 1264.96 1633.1 1264.44 1633.1 1263.79V1185.21C1633.1 1184.56 1632.57 1184.04 1631.93 1184.04H1624.89Z"
        fill="black" />
    <path fill-rule="evenodd" clip-rule="evenodd"
        d="M1553.35 1178.76C1553.02 1178.76 1552.76 1179.02 1552.76 1179.35V1269.65C1552.76 1269.98 1553.02 1270.24 1553.35 1270.24H1643.65C1643.98 1270.24 1644.24 1269.98 1644.24 1269.65V1179.35C1644.24 1179.02 1643.98 1178.76 1643.65 1178.76H1553.35ZM1563.31 1185.21C1563.31 1183.59 1564.63 1182.28 1566.25 1182.28H1573.28C1574.9 1182.28 1576.22 1183.59 1576.22 1185.21V1263.79C1576.22 1265.41 1574.9 1266.72 1573.28 1266.72H1566.25C1564.63 1266.72 1563.31 1265.41 1563.31 1263.79V1185.21ZM1621.96 1185.21C1621.96 1183.59 1623.27 1182.28 1624.89 1182.28H1631.93C1633.55 1182.28 1634.86 1183.59 1634.86 1185.21V1263.79C1634.86 1265.41 1633.55 1266.72 1631.93 1266.72H1624.89C1623.27 1266.72 1621.96 1265.41 1621.96 1263.79V1185.21ZM1553.35 1177C1552.05 1177 1551 1178.05 1551 1179.35V1269.65C1551 1270.95 1552.05 1272 1553.35 1272H1643.65C1644.95 1272 1646 1270.95 1646 1269.65V1179.35C1646 1178.05 1644.95 1177 1643.65 1177H1553.35ZM1566.25 1184.04C1565.6 1184.04 1565.07 1184.56 1565.07 1185.21V1263.79C1565.07 1264.44 1565.6 1264.96 1566.25 1264.96H1573.28C1573.93 1264.96 1574.46 1264.44 1574.46 1263.79V1185.21C1574.46 1184.56 1573.93 1184.04 1573.28 1184.04H1566.25ZM1623.72 1185.21C1623.72 1184.56 1624.24 1184.04 1624.89 1184.04H1631.93C1632.57 1184.04 1633.1 1184.56 1633.1 1185.21V1263.79C1633.1 1264.44 1632.57 1264.96 1631.93 1264.96H1624.89C1624.24 1264.96 1623.72 1264.44 1623.72 1263.79V1185.21Z"
        fill="white" />
    <path
        d="M1578 1206.35C1578 1205.05 1579.05 1204 1580.35 1204H1615.01C1616.31 1204 1617.36 1205.05 1617.36 1206.35V1244.2C1617.36 1245.5 1616.31 1246.55 1615.01 1246.55H1580.35C1579.05 1246.55 1578 1245.5 1578 1244.2V1206.35Z"
        fill="black" />
    <path fill-rule="evenodd" clip-rule="evenodd"
        d="M1615.01 1206.35H1580.35V1244.2H1615.01L1615.01 1206.35ZM1580.35 1204C1579.05 1204 1578 1205.05 1578 1206.35V1244.2C1578 1245.5 1579.05 1246.55 1580.35 1246.55H1615.01C1616.31 1246.55 1617.36 1245.5 1617.36 1244.2V1206.35C1617.36 1205.05 1616.31 1204 1615.01 1204H1580.35Z"
        fill="white" />
    <path
        d="M1598.58 1217.7L1591.41 1230.05H1598.58V1217.7ZM1598.42 1243.03V1235.38H1584.81V1229.41L1597.58 1207.99H1605.29V1230.05H1609.24V1235.38H1605.29V1243.03H1598.42Z"
        fill="white" />
    <path d="M1593 1189L1598 1182L1603 1189V1193L1600 1190V1198H1596V1190L1593 1193V1189Z" fill="white" />
    <path d="M1593 1260L1598 1267L1603 1260V1256L1600 1259V1251H1596V1259L1593 1256V1260Z" fill="white" />
    <path fill-rule="evenodd" clip-rule="evenodd"
        d="M1652 1179.35C1652 1178.05 1653.05 1177 1654.35 1177H1744.65C1745.95 1177 1747 1178.05 1747 1179.35V1269.65C1747 1270.95 1745.95 1272 1744.65 1272H1654.35C1653.05 1272 1652 1270.95 1652 1269.65V1179.35ZM1666.07 1185.21C1666.07 1184.56 1666.6 1184.04 1667.25 1184.04H1674.28C1674.93 1184.04 1675.46 1184.56 1675.46 1185.21V1263.79C1675.46 1264.44 1674.93 1264.96 1674.28 1264.96H1667.25C1666.6 1264.96 1666.07 1264.44 1666.07 1263.79V1185.21ZM1725.89 1184.04C1725.24 1184.04 1724.72 1184.56 1724.72 1185.21V1263.79C1724.72 1264.44 1725.24 1264.96 1725.89 1264.96H1732.93C1733.57 1264.96 1734.1 1264.44 1734.1 1263.79V1185.21C1734.1 1184.56 1733.57 1184.04 1732.93 1184.04H1725.89Z"
        fill="black" />
    <path fill-rule="evenodd" clip-rule="evenodd"
        d="M1654.35 1178.76C1654.02 1178.76 1653.76 1179.02 1653.76 1179.35V1269.65C1653.76 1269.98 1654.02 1270.24 1654.35 1270.24H1744.65C1744.98 1270.24 1745.24 1269.98 1745.24 1269.65V1179.35C1745.24 1179.02 1744.98 1178.76 1744.65 1178.76H1654.35ZM1664.31 1185.21C1664.31 1183.59 1665.63 1182.28 1667.25 1182.28H1674.28C1675.9 1182.28 1677.22 1183.59 1677.22 1185.21V1263.79C1677.22 1265.41 1675.9 1266.72 1674.28 1266.72H1667.25C1665.63 1266.72 1664.31 1265.41 1664.31 1263.79V1185.21ZM1722.96 1185.21C1722.96 1183.59 1724.27 1182.28 1725.89 1182.28H1732.93C1734.55 1182.28 1735.86 1183.59 1735.86 1185.21V1263.79C1735.86 1265.41 1734.55 1266.72 1732.93 1266.72H1725.89C1724.27 1266.72 1722.96 1265.41 1722.96 1263.79V1185.21ZM1654.35 1177C1653.05 1177 1652 1178.05 1652 1179.35V1269.65C1652 1270.95 1653.05 1272 1654.35 1272H1744.65C1745.95 1272 1747 1270.95 1747 1269.65V1179.35C1747 1178.05 1745.95 1177 1744.65 1177H1654.35ZM1667.25 1184.04C1666.6 1184.04 1666.07 1184.56 1666.07 1185.21V1263.79C1666.07 1264.44 1666.6 1264.96 1667.25 1264.96H1674.28C1674.93 1264.96 1675.46 1264.44 1675.46 1263.79V1185.21C1675.46 1184.56 1674.93 1184.04 1674.28 1184.04H1667.25ZM1724.72 1185.21C1724.72 1184.56 1725.24 1184.04 1725.89 1184.04H1732.93C1733.57 1184.04 1734.1 1184.56 1734.1 1185.21V1263.79C1734.1 1264.44 1733.57 1264.96 1732.93 1264.96H1725.89C1725.24 1264.96 1724.72 1264.44 1724.72 1263.79V1185.21Z"
        fill="white" />
    <path
        d="M1679 1206.35C1679 1205.05 1680.05 1204 1681.35 1204H1716.01C1717.31 1204 1718.36 1205.05 1718.36 1206.35V1244.2C1718.36 1245.5 1717.31 1246.55 1716.01 1246.55H1681.35C1680.05 1246.55 1679 1245.5 1679 1244.2V1206.35Z"
        fill="black" />
    <path fill-rule="evenodd" clip-rule="evenodd"
        d="M1716.01 1206.35H1681.35V1244.2H1716.01L1716.01 1206.35ZM1681.35 1204C1680.05 1204 1679 1205.05 1679 1206.35V1244.2C1679 1245.5 1680.05 1246.55 1681.35 1246.55H1716.01C1717.31 1246.55 1718.36 1245.5 1718.36 1244.2V1206.35C1718.36 1205.05 1717.31 1204 1716.01 1204H1681.35Z"
        fill="white" />
    <path
        d="M1694.65 1227.94H1688.1L1688.78 1208H1708.78V1213.44H1694.45L1694.16 1222.25C1695.59 1220.7 1697.75 1219.93 1700.61 1219.93C1703.35 1219.93 1705.6 1220.85 1707.36 1222.7C1709.12 1224.55 1710 1227.07 1710 1230.27C1710 1233.8 1708.96 1236.64 1706.87 1238.78C1704.82 1240.93 1702.13 1242 1698.8 1242C1695.84 1242 1693.33 1241.11 1691.28 1239.33C1689.22 1237.51 1688.13 1235.2 1688 1232.4H1694.36C1694.49 1233.75 1694.94 1234.82 1695.72 1235.62C1696.51 1236.37 1697.53 1236.75 1698.8 1236.75C1702.03 1236.75 1703.64 1234.69 1703.64 1230.57C1703.64 1226.94 1702.16 1225.12 1699.2 1225.12C1697.08 1225.12 1695.56 1226.06 1694.65 1227.94Z"
        fill="white" />
    <path d="M1694 1189L1699 1182L1704 1189V1193L1701 1190V1198H1697V1190L1694 1193V1189Z" fill="white" />
    <path d="M1694 1260L1699 1267L1704 1260V1256L1701 1259V1251H1697V1259L1694 1256V1260Z" fill="white" />
    <path fill-rule="evenodd" clip-rule="evenodd"
        d="M1758 1179.35C1758 1178.05 1759.05 1177 1760.35 1177H1850.65C1851.95 1177 1853 1178.05 1853 1179.35V1269.65C1853 1270.95 1851.95 1272 1850.65 1272H1760.35C1759.05 1272 1758 1270.95 1758 1269.65V1179.35ZM1772.07 1185.21C1772.07 1184.56 1772.6 1184.04 1773.25 1184.04H1780.28C1780.93 1184.04 1781.46 1184.56 1781.46 1185.21V1263.79C1781.46 1264.44 1780.93 1264.96 1780.28 1264.96H1773.25C1772.6 1264.96 1772.07 1264.44 1772.07 1263.79V1185.21ZM1831.89 1184.04C1831.24 1184.04 1830.72 1184.56 1830.72 1185.21V1263.79C1830.72 1264.44 1831.24 1264.96 1831.89 1264.96H1838.93C1839.57 1264.96 1840.1 1264.44 1840.1 1263.79V1185.21C1840.1 1184.56 1839.57 1184.04 1838.93 1184.04H1831.89Z"
        fill="black" />
    <path fill-rule="evenodd" clip-rule="evenodd"
        d="M1760.35 1178.76C1760.02 1178.76 1759.76 1179.02 1759.76 1179.35V1269.65C1759.76 1269.98 1760.02 1270.24 1760.35 1270.24H1850.65C1850.98 1270.24 1851.24 1269.98 1851.24 1269.65V1179.35C1851.24 1179.02 1850.98 1178.76 1850.65 1178.76H1760.35ZM1770.31 1185.21C1770.31 1183.59 1771.63 1182.28 1773.25 1182.28H1780.28C1781.9 1182.28 1783.22 1183.59 1783.22 1185.21V1263.79C1783.22 1265.41 1781.9 1266.72 1780.28 1266.72H1773.25C1771.63 1266.72 1770.31 1265.41 1770.31 1263.79V1185.21ZM1828.96 1185.21C1828.96 1183.59 1830.27 1182.28 1831.89 1182.28H1838.93C1840.55 1182.28 1841.86 1183.59 1841.86 1185.21V1263.79C1841.86 1265.41 1840.55 1266.72 1838.93 1266.72H1831.89C1830.27 1266.72 1828.96 1265.41 1828.96 1263.79V1185.21ZM1760.35 1177C1759.05 1177 1758 1178.05 1758 1179.35V1269.65C1758 1270.95 1759.05 1272 1760.35 1272H1850.65C1851.95 1272 1853 1270.95 1853 1269.65V1179.35C1853 1178.05 1851.95 1177 1850.65 1177H1760.35ZM1773.25 1184.04C1772.6 1184.04 1772.07 1184.56 1772.07 1185.21V1263.79C1772.07 1264.44 1772.6 1264.96 1773.25 1264.96H1780.28C1780.93 1264.96 1781.46 1264.44 1781.46 1263.79V1185.21C1781.46 1184.56 1780.93 1184.04 1780.28 1184.04H1773.25ZM1830.72 1185.21C1830.72 1184.56 1831.24 1184.04 1831.89 1184.04H1838.93C1839.57 1184.04 1840.1 1184.56 1840.1 1185.21V1263.79C1840.1 1264.44 1839.57 1264.96 1838.93 1264.96H1831.89C1831.24 1264.96 1830.72 1264.44 1830.72 1263.79V1185.21Z"
        fill="white" />
    <path
        d="M1785 1206.35C1785 1205.05 1786.05 1204 1787.35 1204H1822.01C1823.31 1204 1824.36 1205.05 1824.36 1206.35V1244.2C1824.36 1245.5 1823.31 1246.55 1822.01 1246.55H1787.35C1786.05 1246.55 1785 1245.5 1785 1244.2V1206.35Z"
        fill="black" />
    <path fill-rule="evenodd" clip-rule="evenodd"
        d="M1822.01 1206.35H1787.35V1244.2H1822.01L1822.01 1206.35ZM1787.35 1204C1786.05 1204 1785 1205.05 1785 1206.35V1244.2C1785 1245.5 1786.05 1246.55 1787.35 1246.55H1822.01C1823.31 1246.55 1824.36 1245.5 1824.36 1244.2V1206.35C1824.36 1205.05 1823.31 1204 1822.01 1204H1787.35Z"
        fill="white" />
    <path
        d="M1805.24 1237.82C1806.67 1237.82 1807.77 1237.24 1808.55 1236.09C1809.36 1234.9 1809.77 1233.41 1809.77 1231.6C1809.77 1229.72 1809.35 1228.24 1808.5 1227.15C1807.66 1226.03 1806.54 1225.48 1805.15 1225.48C1803.72 1225.48 1802.55 1226.03 1801.64 1227.15C1800.77 1228.27 1800.33 1229.72 1800.33 1231.5C1800.33 1233.41 1800.77 1234.94 1801.64 1236.09C1802.52 1237.24 1803.72 1237.82 1805.24 1237.82ZM1815.42 1216.19H1809.14C1808.97 1214.15 1807.84 1213.13 1805.73 1213.13C1804.01 1213.13 1802.71 1213.97 1801.84 1215.65C1800.96 1217.33 1800.42 1219.95 1800.23 1223.5C1801.95 1221.46 1804.16 1220.44 1806.85 1220.44C1809.48 1220.44 1811.65 1221.43 1813.37 1223.4C1815.12 1225.34 1816 1227.98 1816 1231.3C1816 1234.69 1815.01 1237.49 1813.03 1239.69C1811.05 1241.9 1808.49 1243 1805.34 1243C1797.78 1243 1794 1237.52 1794 1226.56C1794 1220.08 1794.97 1215.37 1796.92 1212.44C1798.9 1209.48 1801.93 1208 1806.02 1208C1808.65 1208 1810.79 1208.71 1812.45 1210.12C1814.1 1211.54 1815.09 1213.56 1815.42 1216.19Z"
        fill="white" />
    <path d="M1800 1189L1805 1182L1810 1189V1193L1807 1190V1198H1803V1190L1800 1193V1189Z" fill="white" />
    <path d="M1800 1260L1805 1267L1810 1260V1256L1807 1259V1251H1803V1259L1800 1256V1260Z" fill="white" />
</svg>