<svg width="3463" height="1551" viewBox="0 0 3463 1551" fill="none" xmlns="http://www.w3.org/2000/svg">
    <path d="M3297.56 242.009H3443.38L3444.58 386.154H3297.56V242.009Z" fill="#76CCF1" />
    <path d="M3198.52 253.324V509.999H2973.78V253.324H3198.52Z" fill="#76CCF1" />
    <path d="M243.481 632.098V567.882H26.8232V1543.16H797.698V1181.33V1125.89L296.844 632.098H243.481Z"
        fill="#76CCF1" />
    <path d="M306.651 501.701L411.145 400.542L683.066 674.432L575.568 781.902L306.651 501.701Z" fill="#76CCF1" />
    <path d="M1034.15 1544.28V1260.86L1582.24 1260.2V1544.28H1034.15Z" fill="#76CCF1" />
    <path d="M1903.3 1544.17V1263.4H2455.25V1544.17H1903.3Z" fill="#76CCF1" />
    <path d="M2687.24 1544.17V1153.96L3060.28 792.131L3297.56 789.479L3456.42 792.131V1544.17H2687.24Z"
        fill="#76CCF1" />
    <path d="M3297.56 790.827H3447.96L3446.13 571.312H3297.56V790.827Z" fill="#76CCF1" />
    <path d="M2569.2 1267.68L2685.24 1156.16V1544.21H2569.2V1267.68Z" fill="#76CCF1" />
    <path d="M893.39 885.419L782.585 995.891L576.281 781.934L683.426 671.794L893.39 885.419Z" fill="#76CCF1" />
    <path d="M921.396 1255.36V1544.2H797.338V1179.87H847.036L921.396 1255.36Z" fill="#76CCF1" />
    <path d="M3443.9 388.043L3447.73 570.671H3297.67V388.043H3443.9Z" fill="#76CCF1" />
    <path
        d="M783.752 994.787L685.455 673.715M892.614 885.926L581.646 786.251M1143.41 1135.8L1604.12 918.079M1493.88 1163.36L934.872 917.62M1898.92 1079.72L2502.54 918.863M2457.63 1127.79L1898.92 921.981M3296.05 570.399L3441.2 386.981M3296.05 386.981L3441.2 570.399"
        stroke="black" stroke-width="2" />
    <path
        d="M136.619 512.352V562.352M148.684 512.847V562.352M159.304 512.847V561.857M170.865 512.352V562.352M182.93 512.847V562.352M193.989 512.847V561.857M205.55 512.847V561.857M175.222 513.841L132.35 563.61"
        stroke="black" stroke-width="2" />
    <path
        d="M149.05 505.826H137.55V451.956H149.05M149.05 505.826V451.956M149.05 505.826H161.05M149.05 451.956H161.05M161.05 451.956V505.826M161.05 451.956H171.55M161.05 505.826H171.55M171.55 505.826V451.956M171.55 505.826H183.55M171.55 451.956H183.55M183.55 505.826V451.956M183.55 505.826H194.55M183.55 451.956H194.55M194.55 505.826V451.956M194.55 505.826H205.55V451.956H194.55"
        stroke="black" stroke-width="2" />
    <path
        d="M3107.4 590.978L3194.49 590.978M3194.49 625.948L3106.04 625.948M3106.04 616.911L3194.49 616.911M3194.49 582.45L3109.2 582.45M3194.49 574.315L3109.2 574.315M3194.49 565.941L3106.04 565.941M3194.49 556.567L3107.4 556.567M3085.53 633.59L3194.49 633.59M3107.4 608.333L3194.49 608.333M3107.4 599.768L3194.49 599.768"
        stroke="black" stroke-width="2" />
    <path
        d="M2565.04 1421.1L2514.6 1421.1M2514.6 1412.1L2565.04 1412.1M2565.04 1402.6L2514.6 1402.6M2565.04 1392.6L2514.6 1392.6M2565.04 1382.6L2514.6 1382.6M2565.04 1374.6L2514.6 1374.6"
        stroke="black" stroke-width="2" />
    <path
        d="M2513.72 1411.77L2463.22 1411.77M2513.22 1402.77L2463.22 1402.77M2513.22 1392.77L2463.72 1392.77M2513.22 1384.27L2463.72 1384.27M2513.72 1373.77L2463.22 1373.77M2513.22 1364.77L2463.22 1364.77M2513.22 1354.77L2463.72 1354.77M2513.22 1345.27L2463.72 1345.27M2515.1 1421.52L2463.22 1421.52M2475.43 1435.61L2515.1 1409.55"
        stroke="black" stroke-width="2" />
    <path
        d="M2237.57 1100.27L2237.57 1159.15M2230.69 1081.76L2230.57 1159.22M2221.19 1081.74L2221.07 1159.2M2211.69 1080.95L2211.57 1159.97M2201.69 1081.71L2201.57 1159.96M2192.69 1081.7L2192.57 1159.16M2183.19 1081.69L2183.07 1159.15M2226.4 1079.52L2257.15 1137.3"
        stroke="black" stroke-width="2" />
    <path
        d="M977.549 1398.43L926.064 1398.43M977.549 1389.43L926.579 1389.43M977.549 1379.93L926.579 1379.93M978.064 1370.43L926.064 1370.43M977.549 1360.43L926.064 1360.43M977.549 1351.43L926.579 1351.43M977.549 1341.93L926.579 1341.93M977.549 1408.62L926.064 1408.62M977.549 1417.33L926.064 1417.33M978.064 1405.48L942.16 1430.63"
        stroke="black" stroke-width="2" />
    <path
        d="M978.064 1408.75L978.064 1417.75L1029.27 1417.75L1029.27 1408.75M978.064 1408.75L1029.27 1408.75M978.064 1408.75L978.064 1398.25M1029.27 1408.75L1029.27 1398.25M1029.27 1398.25L978.064 1398.25M1029.27 1398.25L1029.27 1389.25M978.064 1398.25L978.064 1389.25M1029.27 1389.25L978.064 1389.25M1029.27 1389.25L1029.27 1380.25M978.064 1389.25L978.064 1380.25M1029.27 1380.25L978.064 1380.25M1029.27 1380.25L1029.27 1370.25L978.064 1370.25L978.064 1380.25"
        stroke="black" stroke-width="2" />
    <path
        d="M1463.3 1065.3V990.463M1472.3 990.463V1065.3M1482.8 1065.3V990.463M1491.8 1065.3V990.463M1499.8 1065.3V990.463M1509.8 1065.3V990.463M1519.09 1065.3V990.463M1528.09 990.463V1065.3M1538.59 1065.3V990.463M1555.81 1065.3V990.463M1565.86 1065.3V990.463M1574.84 1065.3V990.463M1720.9 1065.3V990.463M1546.59 1065.3V990.463M1584.34 1065.3V990.463M1695.22 1065.3V990.463M1703.18 1065.3V990.463M1711.91 1065.3V990.463M1729.89 1065.3V990.463M1738.11 1065.3V990.463M1790.47 1065.3V990.463M1747.36 1065.3V990.463M1755.63 1065.3V990.463M1764.29 1065.3V990.463M1772.76 1065.3V990.463M1781.81 1065.3V990.463M1816.46 1065.3V990.463M1799.33 1065.3V990.463M1808.39 1065.3V990.463"
        stroke="black" stroke-width="2" />
    <path
        d="M2972.9 363.243V252.832H3199.82V294.743M2972.9 363.243H3145.9M2972.9 363.243V511.098M3145.9 363.243V296.685H3129.4M3145.9 363.243V466.598H3122.9M2972.9 511.098H3199.82V385.515M2972.9 511.098V634.627H3091.4M3199.82 294.743H3221.9M3199.82 294.743V344.759M3137.37 554.015V636.055"
        stroke="black" stroke-width="6" />
    <path d="M2684.59 1340.06L2612.6 1340.06M2579.75 1340.06L2567.54 1340.06M2514.4 1342.24L2514.4 1436.74"
        stroke="black" stroke-width="6" />
    <path
        d="M1276.72 1259.41H1071.87M1038.92 1259.41H1045.84M1583.25 1545.19V1382.62M1340.39 1259.41L1583.25 1259.41V1345.36"
        stroke="black" stroke-width="6" />
    <path d="M1902.95 1540.61V1383.68M2144.75 1263.09H1902.95V1347.32M2456.46 1263.09H2446.41M2418.57 1263.09H2207.6"
        stroke="black" stroke-width="6" />
    <path d="M2502.68 917.875H2675.22L2758.52 839.133" stroke="black" stroke-width="6" />
    <path d="M2785.14 811.863L2896.6 702.665H3146.08" stroke="black" stroke-width="6" />
    <path d="M2258.91 1079.99H1898.21L1896.9 917.875H2501.04V1082.78L2414.96 1169.63H2160.4V1158.81H2254.55"
        stroke="black" stroke-width="6" />
    <path
        d="M521.426 628.711L472.297 677.068L575.797 780.568M575.797 780.568L682.668 672.117M575.797 780.568L782.797 996.569L788.797 990.569M788.797 990.569L850.797 1052.57M788.797 990.569L894.297 885.068M894.297 885.068L1173.3 1164.07H1495.3V1066.15M894.297 885.068L406.788 394.512M1495.3 1066.15H1833.76M1495.3 1066.15H1459.73M927.115 917.887H1828.13V990.46H1459.73"
        stroke="black" stroke-width="6" />
    <path d="M550.621 539.404L438.802 648.627" stroke="black" stroke-width="6" />
    <path d="M3296.93 240.935V293.176M3296.93 293.176H3281.93M3296.93 293.176V335.387" stroke="black"
        stroke-width="6" />
    <path
        d="M3441.93 386.971H3296.93V372.406V570.744M3296.93 570.744H3441.93M3296.93 570.744V585.167M3296.93 793.342V617.076"
        stroke="black" stroke-width="6" />
    <path d="M409.052 615.583L468.552 556.083" stroke="black" stroke-width="6" />
    <path d="M309.402 510.184L300.025 519.338M274.127 545.236L250.796 568.567M243.601 571.791V631.707H250.796"
        stroke="black" stroke-width="6" />
    <path
        d="M284.556 631.1H297.206L797.886 1126.47V1142.41M797.886 1172.77V1180.61M797.886 1192.75V1180.61M797.886 1180.61H846.968M846.968 1180.61L894.233 1226.94M846.968 1180.61V1226.94M898.073 1230.7L894.233 1226.94M918.313 1252.21L926.788 1260.68M894.233 1226.94H846.968M797.886 1226.94H846.968"
        stroke="black" stroke-width="6" />
    <path d="M800.739 1334.29H876.672M905.125 1334.29H917.867M978.423 1338.38V1429.48" stroke="black"
        stroke-width="6" />
    <path d="M3176.83 701.333H3196.33V429.833" stroke="black" stroke-width="13" />
    <path
        d="M25.5776 567.93H6.57764V448.071H253.578L306.372 501.674M25.5776 567.93H253.578M25.5776 567.93V1077.83V1544.32H795.875M795.875 1544.32V1190.23M795.875 1544.32H921.629M2459.24 1544.32V1266.56H2513.74M2459.24 1544.32H2568.6M2459.24 1544.32H1033.65M2568.6 1544.32V1266.56H2549.6M2568.6 1544.32H2687.43M2687.43 1544.32V1154.6M2687.43 1544.32H3455.67V790.601H3450.17M2687.43 1154.6L2596.85 1239.44M2687.43 1154.6L2711.25 1132.16M3450.17 790.601H3290.36H3058.83L3034.2 812.495M3450.17 790.601L3443.9 241.985H3290.35M306.372 501.674L414.562 613.759M306.372 501.674L411.778 398.723M921.629 1544.32V1263.5H935.578M921.629 1544.32H1033.65M1033.65 1544.32V1260.44H968.078M2738.07 1103.69L2988.76 854.642M206.554 507.962H123.978"
        stroke="black" stroke-width="13" />
    <path
        d="M1534.23 1170.33H1501.23V1076.99H1609.9M1609.9 1076.99V1170.33M1609.9 1076.99H1711.73M1609.9 1170.33H1581.73M1609.9 1170.33H1637.73M1711.73 1076.99V1170.33M1711.73 1076.99L1820.23 1076.99V1170.33H1782.23M1711.73 1170.33H1682.23M1711.73 1170.33H1737.23"
        stroke="black" stroke-width="13" />
    <circle cx="423.204" cy="1340.7" r="13.5" stroke="black" stroke-width="8" />
    <circle cx="426.249" cy="783.525" r="13.5" stroke="black" stroke-width="8" />
    <circle cx="977.078" cy="1177.82" r="12.25" stroke="black" stroke-width="8" />
    <circle cx="694.601" cy="1177.82" r="12.25" stroke="black" stroke-width="8" />
    <circle cx="1182.58" cy="963.542" r="13.5" stroke="black" stroke-width="8" />
    <circle cx="1388.08" cy="963.542" r="13.5" stroke="black" stroke-width="8" />
    <circle cx="2566.22" cy="1180.9" r="11" stroke="black" stroke-width="8" />
    <circle cx="2315.94" cy="1180.9" r="11" stroke="black" stroke-width="8" />
    <circle cx="2113.51" cy="1180.9" r="11" stroke="black" stroke-width="8" />
    <circle cx="1912.25" cy="1177.82" r="11" stroke="black" stroke-width="8" />
    <circle cx="1388.39" cy="1177.82" r="11" stroke="black" stroke-width="8" />
    <circle cx="1182.58" cy="1177.82" r="11" stroke="black" stroke-width="8" />
    <circle cx="975.578" cy="1015.51" r="13.5" stroke="black" stroke-width="8" />
    <rect x="2244.47" y="1078.26" width="93.2119" height="92.5147" rx="8.5" fill="#959595" stroke="black"
        stroke-width="3" />
    <path
        d="M2254.13 1147.52V1156.93H2328.38V1092.79H2309.55V1102.55H2298.05V1114.06H2287.59V1124.86H2274.69V1136.72H2265.28V1147.52H2254.13Z"
        fill="black" stroke="black" stroke-width="2" />
    <path
        d="M2303.77 1138.18V1135.01C2305.56 1135.01 2306.79 1134.73 2307.46 1134.17C2308.14 1133.59 2308.47 1132.81 2308.47 1131.84C2308.47 1129.46 2307.47 1128.28 2305.47 1128.28C2304.57 1128.28 2303.82 1128.62 2303.24 1129.29C2302.69 1129.96 2302.41 1130.89 2302.41 1132.08H2298.19C2298.19 1129.87 2298.87 1128.08 2300.25 1126.71C2301.64 1125.34 2303.44 1124.65 2305.65 1124.65C2307.67 1124.65 2309.37 1125.25 2310.74 1126.43C2312.13 1127.62 2312.83 1129.13 2312.83 1130.96C2312.83 1132.06 2312.6 1133.07 2312.13 1134C2311.67 1134.93 2310.99 1135.65 2310.11 1136.16C2312.41 1137.11 2313.56 1139.02 2313.56 1141.87C2313.56 1144.18 2312.81 1146 2311.3 1147.35C2309.81 1148.7 2307.85 1149.37 2305.4 1149.37C2303.01 1149.37 2301.14 1148.7 2299.79 1147.35C2298.47 1146 2297.81 1144.14 2297.81 1141.77H2302.16C2302.16 1144.35 2303.31 1145.64 2305.61 1145.64C2306.59 1145.64 2307.38 1145.3 2307.98 1144.63C2308.61 1143.93 2308.93 1142.99 2308.93 1141.8C2308.93 1140.46 2308.54 1139.52 2307.78 1138.98C2307.01 1138.45 2305.67 1138.18 2303.77 1138.18Z"
        fill="#959595" />
    <rect x="1594.95" y="969.459" width="93.2119" height="92.5147" rx="8.5" fill="#959595" stroke="black"
        stroke-width="3" />
    <path
        d="M1604.61 1038.72V1048.14H1678.86V983.995H1660.03V993.755H1648.53V1005.26H1638.07V1016.07H1625.18V1027.92H1615.76V1038.72H1604.61Z"
        fill="black" stroke="black" stroke-width="2" />
    <path
        d="M1663.73 1039.77H1647.97C1648 1037.45 1648.46 1035.45 1649.37 1033.77C1650.3 1032.1 1652.16 1030.26 1654.94 1028.27C1656.62 1027.06 1657.75 1026.08 1658.33 1025.34C1658.93 1024.59 1659.23 1023.73 1659.23 1022.76C1659.23 1020.74 1658.16 1019.73 1656.03 1019.73C1654.93 1019.73 1654.1 1020.04 1653.52 1020.67C1652.93 1021.29 1652.64 1022.35 1652.64 1023.84H1648.29C1648.29 1021.35 1648.95 1019.4 1650.27 1017.98C1651.6 1016.56 1653.45 1015.86 1655.82 1015.86C1658.23 1015.86 1660.14 1016.44 1661.53 1017.6C1662.95 1018.74 1663.66 1020.41 1663.66 1022.62C1663.66 1024.34 1663.18 1025.83 1662.23 1027.08C1661.28 1028.34 1659.52 1029.87 1656.97 1031.68C1656.06 1032.33 1655.31 1033.04 1654.7 1033.81C1654.12 1034.58 1653.81 1035.25 1653.76 1035.83H1663.73V1039.77Z"
        fill="#959595" />
    <mask id="path-59-inside-1_1_17" fill="white">
        <path fill-rule="evenodd" clip-rule="evenodd"
            d="M1512.78 1087.09C1512.78 1085.99 1513.67 1085.09 1514.78 1085.09H1591.78C1592.88 1085.09 1593.78 1085.99 1593.78 1087.09V1164.09C1593.78 1165.2 1592.88 1166.09 1591.78 1166.09H1514.78C1513.67 1166.09 1512.78 1165.2 1512.78 1164.09V1087.09ZM1524.78 1092.09C1524.78 1091.54 1525.23 1091.09 1525.78 1091.09H1531.78C1532.33 1091.09 1532.78 1091.54 1532.78 1092.09V1159.09C1532.78 1159.65 1532.33 1160.09 1531.78 1160.09H1525.78C1525.23 1160.09 1524.78 1159.65 1524.78 1159.09V1092.09ZM1575.78 1091.09C1575.23 1091.09 1574.78 1091.54 1574.78 1092.09V1159.09C1574.78 1159.65 1575.23 1160.09 1575.78 1160.09H1581.78C1582.33 1160.09 1582.78 1159.65 1582.78 1159.09V1092.09C1582.78 1091.54 1582.33 1091.09 1581.78 1091.09H1575.78Z" />
    </mask>
    <path fill-rule="evenodd" clip-rule="evenodd"
        d="M1512.78 1087.09C1512.78 1085.99 1513.67 1085.09 1514.78 1085.09H1591.78C1592.88 1085.09 1593.78 1085.99 1593.78 1087.09V1164.09C1593.78 1165.2 1592.88 1166.09 1591.78 1166.09H1514.78C1513.67 1166.09 1512.78 1165.2 1512.78 1164.09V1087.09ZM1524.78 1092.09C1524.78 1091.54 1525.23 1091.09 1525.78 1091.09H1531.78C1532.33 1091.09 1532.78 1091.54 1532.78 1092.09V1159.09C1532.78 1159.65 1532.33 1160.09 1531.78 1160.09H1525.78C1525.23 1160.09 1524.78 1159.65 1524.78 1159.09V1092.09ZM1575.78 1091.09C1575.23 1091.09 1574.78 1091.54 1574.78 1092.09V1159.09C1574.78 1159.65 1575.23 1160.09 1575.78 1160.09H1581.78C1582.33 1160.09 1582.78 1159.65 1582.78 1159.09V1092.09C1582.78 1091.54 1582.33 1091.09 1581.78 1091.09H1575.78Z"
        fill="black" />
    <path
        d="M1514.78 1083.59C1512.85 1083.59 1511.28 1085.16 1511.28 1087.09H1514.28C1514.28 1086.82 1514.5 1086.59 1514.78 1086.59V1083.59ZM1591.78 1083.59H1514.78V1086.59H1591.78V1083.59ZM1595.28 1087.09C1595.28 1085.16 1593.71 1083.59 1591.78 1083.59V1086.59C1592.05 1086.59 1592.28 1086.82 1592.28 1087.09H1595.28ZM1595.28 1164.09V1087.09H1592.28V1164.09H1595.28ZM1591.78 1167.59C1593.71 1167.59 1595.28 1166.03 1595.28 1164.09H1592.28C1592.28 1164.37 1592.05 1164.59 1591.78 1164.59V1167.59ZM1514.78 1167.59H1591.78V1164.59H1514.78V1167.59ZM1511.28 1164.09C1511.28 1166.03 1512.85 1167.59 1514.78 1167.59V1164.59C1514.5 1164.59 1514.28 1164.37 1514.28 1164.09H1511.28ZM1511.28 1087.09V1164.09H1514.28V1087.09H1511.28ZM1525.78 1089.59C1524.4 1089.59 1523.28 1090.71 1523.28 1092.09H1526.28C1526.28 1092.37 1526.05 1092.59 1525.78 1092.59V1089.59ZM1531.78 1089.59H1525.78V1092.59H1531.78V1089.59ZM1534.28 1092.09C1534.28 1090.71 1533.16 1089.59 1531.78 1089.59V1092.59C1531.5 1092.59 1531.28 1092.37 1531.28 1092.09H1534.28ZM1534.28 1159.09V1092.09H1531.28V1159.09H1534.28ZM1531.78 1161.59C1533.16 1161.59 1534.28 1160.47 1534.28 1159.09H1531.28C1531.28 1158.82 1531.5 1158.59 1531.78 1158.59V1161.59ZM1525.78 1161.59H1531.78V1158.59H1525.78V1161.59ZM1523.28 1159.09C1523.28 1160.47 1524.4 1161.59 1525.78 1161.59V1158.59C1526.05 1158.59 1526.28 1158.82 1526.28 1159.09H1523.28ZM1523.28 1092.09V1159.09H1526.28V1092.09H1523.28ZM1576.28 1092.09C1576.28 1092.37 1576.05 1092.59 1575.78 1092.59V1089.59C1574.4 1089.59 1573.28 1090.71 1573.28 1092.09H1576.28ZM1576.28 1159.09V1092.09H1573.28V1159.09H1576.28ZM1575.78 1158.59C1576.05 1158.59 1576.28 1158.82 1576.28 1159.09H1573.28C1573.28 1160.47 1574.4 1161.59 1575.78 1161.59V1158.59ZM1581.78 1158.59H1575.78V1161.59H1581.78V1158.59ZM1581.28 1159.09C1581.28 1158.82 1581.5 1158.59 1581.78 1158.59V1161.59C1583.16 1161.59 1584.28 1160.47 1584.28 1159.09H1581.28ZM1581.28 1092.09V1159.09H1584.28V1092.09H1581.28ZM1581.78 1092.59C1581.5 1092.59 1581.28 1092.37 1581.28 1092.09H1584.28C1584.28 1090.71 1583.16 1089.59 1581.78 1089.59V1092.59ZM1575.78 1092.59H1581.78V1089.59H1575.78V1092.59Z"
        fill="white" mask="url(#path-59-inside-1_1_17)" />
    <rect x="1536.78" y="1109.82" width="31.5581" height="34.2791" rx="1" fill="black" stroke="white"
        stroke-width="2" />
    <path
        d="M1553.33 1120.49L1547.21 1131.02H1553.33V1120.49ZM1553.19 1142.09V1135.57H1541.58V1130.48L1552.47 1112.21H1559.04V1131.02H1562.42V1135.57H1559.04V1142.09H1553.19Z"
        fill="white" />
    <mask id="path-63-inside-2_1_17" fill="white">
        <path fill-rule="evenodd" clip-rule="evenodd"
            d="M1618.78 1087.09C1618.78 1085.99 1619.67 1085.09 1620.78 1085.09H1697.78C1698.88 1085.09 1699.78 1085.99 1699.78 1087.09V1164.09C1699.78 1165.2 1698.88 1166.09 1697.78 1166.09H1620.78C1619.67 1166.09 1618.78 1165.2 1618.78 1164.09V1087.09ZM1628.78 1093.09C1628.78 1091.99 1629.67 1091.09 1630.78 1091.09H1636.78C1637.88 1091.09 1638.78 1091.99 1638.78 1093.09V1158.09C1638.78 1159.2 1637.88 1160.09 1636.78 1160.09H1630.78C1629.67 1160.09 1628.78 1159.2 1628.78 1158.09V1093.09ZM1680.78 1091.09C1679.67 1091.09 1678.78 1091.99 1678.78 1093.09V1158.09C1678.78 1159.2 1679.67 1160.09 1680.78 1160.09H1686.78C1687.88 1160.09 1688.78 1159.2 1688.78 1158.09V1093.09C1688.78 1091.99 1687.88 1091.09 1686.78 1091.09H1680.78Z" />
    </mask>
    <path fill-rule="evenodd" clip-rule="evenodd"
        d="M1618.78 1087.09C1618.78 1085.99 1619.67 1085.09 1620.78 1085.09H1697.78C1698.88 1085.09 1699.78 1085.99 1699.78 1087.09V1164.09C1699.78 1165.2 1698.88 1166.09 1697.78 1166.09H1620.78C1619.67 1166.09 1618.78 1165.2 1618.78 1164.09V1087.09ZM1628.78 1093.09C1628.78 1091.99 1629.67 1091.09 1630.78 1091.09H1636.78C1637.88 1091.09 1638.78 1091.99 1638.78 1093.09V1158.09C1638.78 1159.2 1637.88 1160.09 1636.78 1160.09H1630.78C1629.67 1160.09 1628.78 1159.2 1628.78 1158.09V1093.09ZM1680.78 1091.09C1679.67 1091.09 1678.78 1091.99 1678.78 1093.09V1158.09C1678.78 1159.2 1679.67 1160.09 1680.78 1160.09H1686.78C1687.88 1160.09 1688.78 1159.2 1688.78 1158.09V1093.09C1688.78 1091.99 1687.88 1091.09 1686.78 1091.09H1680.78Z"
        fill="black" />
    <path
        d="M1620.78 1083.09C1618.57 1083.09 1616.78 1084.89 1616.78 1087.09H1620.78V1087.09V1083.09ZM1697.78 1083.09H1620.78V1087.09H1697.78V1083.09ZM1701.78 1087.09C1701.78 1084.89 1699.99 1083.09 1697.78 1083.09V1087.09H1701.78ZM1701.78 1164.09V1087.09H1697.78V1164.09H1701.78ZM1697.78 1168.09C1699.99 1168.09 1701.78 1166.3 1701.78 1164.09H1697.78V1168.09ZM1620.78 1168.09H1697.78V1164.09H1620.78V1168.09ZM1616.78 1164.09C1616.78 1166.3 1618.57 1168.09 1620.78 1168.09V1164.09H1620.78H1616.78ZM1616.78 1087.09V1164.09H1620.78V1087.09H1616.78ZM1630.78 1089.09C1628.57 1089.09 1626.78 1090.89 1626.78 1093.09H1630.78V1093.09V1089.09ZM1636.78 1089.09H1630.78V1093.09H1636.78V1089.09ZM1640.78 1093.09C1640.78 1090.89 1638.99 1089.09 1636.78 1089.09V1093.09H1640.78ZM1640.78 1158.09V1093.09H1636.78V1158.09H1640.78ZM1636.78 1162.09C1638.99 1162.09 1640.78 1160.3 1640.78 1158.09H1636.78V1162.09ZM1630.78 1162.09H1636.78V1158.09H1630.78V1162.09ZM1626.78 1158.09C1626.78 1160.3 1628.57 1162.09 1630.78 1162.09V1158.09H1626.78ZM1626.78 1093.09V1158.09H1630.78V1093.09H1626.78ZM1680.78 1093.09V1093.09V1089.09C1678.57 1089.09 1676.78 1090.89 1676.78 1093.09H1680.78ZM1680.78 1158.09V1093.09H1676.78V1158.09H1680.78ZM1680.78 1158.09H1676.78C1676.78 1160.3 1678.57 1162.09 1680.78 1162.09V1158.09ZM1686.78 1158.09H1680.78V1162.09H1686.78V1158.09ZM1686.78 1158.09V1162.09C1688.99 1162.09 1690.78 1160.3 1690.78 1158.09H1686.78ZM1686.78 1093.09V1158.09H1690.78V1093.09H1686.78ZM1686.78 1093.09H1690.78C1690.78 1090.89 1688.99 1089.09 1686.78 1089.09V1093.09ZM1680.78 1093.09H1686.78V1089.09H1680.78V1093.09Z"
        fill="white" mask="url(#path-63-inside-2_1_17)" />
    <rect x="1642.78" y="1109.82" width="31.5581" height="34.2791" rx="1" fill="black" stroke="white"
        stroke-width="2" />
    <path
        d="M1648.33 1130.35L1648.96 1112.21H1667.37V1117.16H1654.18L1653.91 1125.17C1654.69 1124.33 1655.59 1123.78 1656.61 1123.51C1657.66 1123.21 1658.74 1123.06 1659.85 1123.06C1661.05 1123.06 1662.18 1123.27 1663.23 1123.69C1664.31 1124.11 1665.22 1124.72 1665.97 1125.53C1666.75 1126.31 1667.37 1127.29 1667.82 1128.46C1668.27 1129.63 1668.49 1130.96 1668.49 1132.46C1668.49 1134.08 1668.24 1135.55 1667.73 1136.87C1667.22 1138.16 1666.51 1139.27 1665.61 1140.2C1664.71 1141.13 1663.63 1141.85 1662.37 1142.36C1661.11 1142.87 1659.72 1143.13 1658.19 1143.13C1656.84 1143.13 1655.56 1142.9 1654.36 1142.45C1653.19 1142.03 1652.16 1141.45 1651.26 1140.7C1650.36 1139.92 1649.64 1139 1649.1 1137.95C1648.59 1136.87 1648.3 1135.69 1648.24 1134.4H1654.09C1654.21 1135.66 1654.63 1136.63 1655.35 1137.32C1656.07 1138.01 1657.02 1138.36 1658.19 1138.36C1659.81 1138.36 1660.95 1137.85 1661.61 1136.83C1662.3 1135.81 1662.64 1134.44 1662.64 1132.73C1662.64 1131.17 1662.3 1129.96 1661.61 1129.09C1660.95 1128.22 1659.93 1127.78 1658.55 1127.78C1657.5 1127.78 1656.64 1128.01 1655.98 1128.46C1655.32 1128.88 1654.78 1129.51 1654.36 1130.35H1648.33Z"
        fill="white" />
    <mask id="path-67-inside-3_1_17" fill="white">
        <path fill-rule="evenodd" clip-rule="evenodd"
            d="M1721.78 1087.09C1721.78 1085.99 1722.67 1085.09 1723.78 1085.09H1800.78C1801.88 1085.09 1802.78 1085.99 1802.78 1087.09V1164.09C1802.78 1165.2 1801.88 1166.09 1800.78 1166.09H1723.78C1722.67 1166.09 1721.78 1165.2 1721.78 1164.09V1087.09ZM1731.78 1093.09C1731.78 1091.99 1732.67 1091.09 1733.78 1091.09H1739.78C1740.88 1091.09 1741.78 1091.99 1741.78 1093.09V1158.09C1741.78 1159.2 1740.88 1160.09 1739.78 1160.09H1733.78C1732.67 1160.09 1731.78 1159.2 1731.78 1158.09V1093.09ZM1783.78 1091.09C1782.67 1091.09 1781.78 1091.99 1781.78 1093.09V1158.09C1781.78 1159.2 1782.67 1160.09 1783.78 1160.09H1789.78C1790.88 1160.09 1791.78 1159.2 1791.78 1158.09V1093.09C1791.78 1091.99 1790.88 1091.09 1789.78 1091.09H1783.78Z" />
    </mask>
    <path fill-rule="evenodd" clip-rule="evenodd"
        d="M1721.78 1087.09C1721.78 1085.99 1722.67 1085.09 1723.78 1085.09H1800.78C1801.88 1085.09 1802.78 1085.99 1802.78 1087.09V1164.09C1802.78 1165.2 1801.88 1166.09 1800.78 1166.09H1723.78C1722.67 1166.09 1721.78 1165.2 1721.78 1164.09V1087.09ZM1731.78 1093.09C1731.78 1091.99 1732.67 1091.09 1733.78 1091.09H1739.78C1740.88 1091.09 1741.78 1091.99 1741.78 1093.09V1158.09C1741.78 1159.2 1740.88 1160.09 1739.78 1160.09H1733.78C1732.67 1160.09 1731.78 1159.2 1731.78 1158.09V1093.09ZM1783.78 1091.09C1782.67 1091.09 1781.78 1091.99 1781.78 1093.09V1158.09C1781.78 1159.2 1782.67 1160.09 1783.78 1160.09H1789.78C1790.88 1160.09 1791.78 1159.2 1791.78 1158.09V1093.09C1791.78 1091.99 1790.88 1091.09 1789.78 1091.09H1783.78Z"
        fill="black" />
    <path
        d="M1723.78 1083.09C1721.57 1083.09 1719.78 1084.89 1719.78 1087.09H1723.78V1087.09V1083.09ZM1800.78 1083.09H1723.78V1087.09H1800.78V1083.09ZM1804.78 1087.09C1804.78 1084.89 1802.99 1083.09 1800.78 1083.09V1087.09H1804.78ZM1804.78 1164.09V1087.09H1800.78V1164.09H1804.78ZM1800.78 1168.09C1802.99 1168.09 1804.78 1166.3 1804.78 1164.09H1800.78V1168.09ZM1723.78 1168.09H1800.78V1164.09H1723.78V1168.09ZM1719.78 1164.09C1719.78 1166.3 1721.57 1168.09 1723.78 1168.09V1164.09H1723.78H1719.78ZM1719.78 1087.09V1164.09H1723.78V1087.09H1719.78ZM1733.78 1089.09C1731.57 1089.09 1729.78 1090.89 1729.78 1093.09H1733.78V1093.09V1089.09ZM1739.78 1089.09H1733.78V1093.09H1739.78V1089.09ZM1743.78 1093.09C1743.78 1090.89 1741.99 1089.09 1739.78 1089.09V1093.09H1743.78ZM1743.78 1158.09V1093.09H1739.78V1158.09H1743.78ZM1739.78 1162.09C1741.99 1162.09 1743.78 1160.3 1743.78 1158.09H1739.78V1162.09ZM1733.78 1162.09H1739.78V1158.09H1733.78V1162.09ZM1729.78 1158.09C1729.78 1160.3 1731.57 1162.09 1733.78 1162.09V1158.09H1729.78ZM1729.78 1093.09V1158.09H1733.78V1093.09H1729.78ZM1783.78 1093.09V1093.09V1089.09C1781.57 1089.09 1779.78 1090.89 1779.78 1093.09H1783.78ZM1783.78 1158.09V1093.09H1779.78V1158.09H1783.78ZM1783.78 1158.09H1779.78C1779.78 1160.3 1781.57 1162.09 1783.78 1162.09V1158.09ZM1789.78 1158.09H1783.78V1162.09H1789.78V1158.09ZM1789.78 1158.09V1162.09C1791.99 1162.09 1793.78 1160.3 1793.78 1158.09H1789.78ZM1789.78 1093.09V1158.09H1793.78V1093.09H1789.78ZM1789.78 1093.09H1793.78C1793.78 1090.89 1791.99 1089.09 1789.78 1089.09V1093.09ZM1783.78 1093.09H1789.78V1089.09H1783.78V1093.09Z"
        fill="white" mask="url(#path-67-inside-3_1_17)" />
    <rect x="1745.78" y="1109.82" width="31.5581" height="34.2791" rx="1" fill="black" stroke="white"
        stroke-width="2" />
    <path
        d="M1761.21 1138.4C1761.87 1138.4 1762.45 1138.27 1762.96 1138C1763.5 1137.7 1763.95 1137.29 1764.31 1136.78C1764.67 1136.27 1764.94 1135.67 1765.12 1134.98C1765.3 1134.29 1765.39 1133.54 1765.39 1132.73C1765.39 1131.02 1765 1129.67 1764.22 1128.68C1763.44 1127.66 1762.41 1127.15 1761.12 1127.15C1759.8 1127.15 1758.72 1127.66 1757.88 1128.68C1757.07 1129.67 1756.66 1130.99 1756.66 1132.64C1756.66 1134.35 1757.05 1135.75 1757.83 1136.83C1758.64 1137.88 1759.77 1138.4 1761.21 1138.4ZM1764.81 1118.69C1764.66 1116.83 1763.61 1115.9 1761.66 1115.9C1760.04 1115.9 1758.82 1116.68 1758.01 1118.24C1757.23 1119.77 1756.75 1122.14 1756.57 1125.35C1757.26 1124.54 1758.07 1123.88 1759 1123.37C1759.96 1122.83 1761.19 1122.56 1762.69 1122.56C1763.86 1122.56 1764.96 1122.79 1765.98 1123.24C1767.03 1123.69 1767.93 1124.35 1768.68 1125.22C1769.46 1126.06 1770.06 1127.09 1770.48 1128.32C1770.93 1129.52 1771.15 1130.9 1771.15 1132.46C1771.15 1133.99 1770.91 1135.42 1770.43 1136.74C1769.95 1138.03 1769.28 1139.15 1768.41 1140.11C1767.57 1141.04 1766.53 1141.78 1765.3 1142.32C1764.1 1142.86 1762.77 1143.13 1761.3 1143.13C1757.76 1143.13 1755.12 1141.87 1753.38 1139.35C1751.67 1136.83 1750.81 1133.09 1750.81 1128.14C1750.81 1125.14 1751.04 1122.58 1751.49 1120.45C1751.97 1118.32 1752.66 1116.58 1753.56 1115.23C1754.49 1113.85 1755.64 1112.84 1757.02 1112.21C1758.43 1111.55 1760.07 1111.22 1761.93 1111.22C1764.36 1111.22 1766.32 1111.87 1767.82 1113.16C1769.35 1114.42 1770.28 1116.26 1770.61 1118.69H1764.81Z"
        fill="white" />
    <rect x="3000.82" y="517.963" width="110.231" height="109.396" rx="7.5" fill="#125900" stroke="white"
        stroke-width="5" />
    <path
        d="M3011.68 600.216V611.489H3100.61V534.668H3078.07V546.358H3064.29V560.136H3051.76V573.078H3036.32V587.274H3025.04V600.216H3011.68Z"
        fill="white" stroke="white" stroke-width="2" />
    <path
        d="M3086.9 597.988H3093.85C3093.15 601.822 3091.54 604.872 3089 607.138C3086.5 609.405 3083.35 610.538 3079.55 610.538C3075.02 610.538 3071.32 609.038 3068.45 606.038C3065.62 603.005 3064.2 598.722 3064.2 593.188C3064.2 587.588 3065.59 583.172 3068.35 579.938C3071.12 576.705 3074.89 575.088 3079.65 575.088C3083.69 575.088 3086.97 576.222 3089.5 578.488C3092.07 580.755 3093.52 583.622 3093.85 587.088H3086.9C3086.44 585.255 3085.54 583.805 3084.2 582.738C3082.87 581.638 3081.37 581.088 3079.7 581.088C3076.9 581.088 3074.79 582.122 3073.35 584.188C3071.95 586.222 3071.25 589.088 3071.25 592.788C3071.25 596.522 3071.94 599.405 3073.3 601.438C3074.67 603.472 3076.69 604.488 3079.35 604.488C3083.39 604.488 3085.9 602.322 3086.9 597.988Z"
        fill="#125900" />
    <rect x="9.07764" y="451.133" width="119" height="118.101" rx="7.5" fill="#125900" stroke="white"
        stroke-width="5" />
    <path
        d="M20.9545 539.836V551.966H116.65V469.3H92.3893V481.88H77.5632V496.706H64.0849V510.633H47.4617V525.908H35.3313V539.836H20.9545Z"
        fill="white" stroke="white" stroke-width="2" />
    <path
        d="M106.665 546.053H98.2147L88.3647 531.103L84.6647 534.753V546.053H77.8147V512.853H84.6647V526.353L97.3647 512.853H106.365L93.2647 525.953L106.665 546.053Z"
        fill="#125900" />
    <rect x="2454.96" y="1429.33" width="119.244" height="118.344" rx="7.5" fill="#125900" stroke="white"
        stroke-width="5" />
    <path
        d="M2466.86 1518.22V1530.37H2562.75V1447.54H2538.44V1460.14H2523.58V1475H2510.08V1488.95H2493.42V1504.26H2481.27V1518.22H2466.86Z"
        fill="white" stroke="white" stroke-width="2" />
    <path
        d="M2530.58 1518.7H2536.33C2539.33 1518.7 2541.52 1517.77 2542.88 1515.9C2544.28 1514.03 2544.98 1511.2 2544.98 1507.4C2544.98 1503.63 2544.27 1500.95 2542.83 1499.35C2541.43 1497.72 2539.07 1496.9 2535.73 1496.9H2530.58V1518.7ZM2537.73 1524.35H2523.83V1491.15H2536.68C2541.25 1491.15 2544.95 1492.62 2547.78 1495.55C2550.65 1498.48 2552.08 1502.43 2552.08 1507.4C2552.08 1512.47 2550.77 1516.57 2548.13 1519.7C2545.5 1522.8 2542.03 1524.35 2537.73 1524.35Z"
        fill="#125900" />
    <rect x="927.578" y="1427.28" width="115.412" height="114.539" rx="7.5" fill="#125900" stroke="white"
        stroke-width="5" />
    <path
        d="M939.038 1513.35V1525.13H1031.96V1444.85H1008.41V1457.07H994.009V1471.46H980.921V1484.99H964.779V1499.82H952.999V1513.35H939.038Z"
        fill="white" stroke="white" stroke-width="2" />
    <path d="M1015.84 1506.77H1001.24V1520.77H994.286V1487.57H1017.94V1493.37H1001.24V1500.92H1015.84V1506.77Z"
        fill="#125900" />
    <path
        d="M3344.02 673.466H3350.52C3349.87 677.051 3348.36 679.904 3345.99 682.024C3343.65 684.144 3340.7 685.205 3337.15 685.205C3332.91 685.205 3329.45 683.802 3326.76 680.996C3324.11 678.158 3322.79 674.152 3322.79 668.976C3322.79 663.738 3324.08 659.607 3326.67 656.583C3329.26 653.559 3332.78 652.047 3337.24 652.047C3341.01 652.047 3344.08 653.107 3346.45 655.227C3348.85 657.347 3350.21 660.028 3350.52 663.271H3344.02C3343.59 661.556 3342.74 660.2 3341.5 659.202C3340.25 658.173 3338.85 657.659 3337.29 657.659C3334.67 657.659 3332.69 658.625 3331.35 660.558C3330.04 662.46 3329.38 665.141 3329.38 668.602C3329.38 672.094 3330.02 674.791 3331.3 676.693C3332.58 678.595 3334.47 679.546 3336.96 679.546C3340.73 679.546 3343.09 677.519 3344.02 673.466Z"
        fill="black" />
    <path
        d="M3372.1 684.129H3350.96C3350.99 681.011 3351.61 678.33 3352.83 676.085C3354.07 673.84 3356.57 671.377 3360.31 668.696C3362.55 667.074 3364.07 665.765 3364.85 664.767C3365.66 663.77 3366.06 662.616 3366.06 661.307C3366.06 658.594 3364.63 657.238 3361.76 657.238C3360.29 657.238 3359.17 657.659 3358.39 658.5C3357.61 659.342 3357.22 660.761 3357.22 662.756H3351.38C3351.38 659.42 3352.27 656.801 3354.04 654.899C3355.82 652.998 3358.3 652.047 3361.48 652.047C3364.72 652.047 3367.28 652.826 3369.15 654.385C3371.05 655.913 3372 658.158 3372 661.119C3372 663.427 3371.36 665.422 3370.08 667.106C3368.81 668.789 3366.45 670.847 3363.02 673.279C3361.81 674.152 3360.79 675.103 3359.98 676.132C3359.2 677.161 3358.78 678.065 3358.72 678.844H3372.1V684.129Z"
        fill="black" />
    <path
        d="M3384.9 672.624V661.681L3378.54 672.624H3384.9ZM3390.84 684.129H3384.76V677.348H3372.7V672.063L3384.01 653.076H3390.84V672.624H3394.35V677.348H3390.84V684.129Z"
        fill="black" />
    <path
        d="M3416.08 684.129H3394.94C3394.97 681.011 3395.59 678.33 3396.81 676.085C3398.06 673.84 3400.55 671.377 3404.29 668.696C3406.54 667.074 3408.05 665.765 3408.83 664.767C3409.64 663.77 3410.04 662.616 3410.04 661.307C3410.04 658.594 3408.61 657.238 3405.74 657.238C3404.28 657.238 3403.15 657.659 3402.37 658.5C3401.59 659.342 3401.2 660.761 3401.2 662.756H3395.36C3395.36 659.42 3396.25 656.801 3398.02 654.899C3399.8 652.998 3402.28 652.047 3405.46 652.047C3408.7 652.047 3411.26 652.826 3413.13 654.385C3415.03 655.913 3415.98 658.158 3415.98 661.119C3415.98 663.427 3415.34 665.422 3414.07 667.106C3412.79 668.789 3410.43 670.847 3407 673.279C3405.79 674.152 3404.77 675.103 3403.96 676.132C3403.18 677.161 3402.76 678.065 3402.7 678.844H3416.08V684.129Z"
        fill="black" />
    <rect x="357.983" y="451.844" width="102.138" height="99.6342" rx="3.5" fill="black" stroke="white"
        stroke-width="3" />
    <path
        d="M394.4 469.744C394.4 473.546 391.318 476.628 387.516 476.628C383.714 476.628 380.632 473.546 380.632 469.744C380.632 465.942 383.714 462.86 387.516 462.86C391.318 462.86 394.4 465.942 394.4 469.744Z"
        fill="white" />
    <path
        d="M374.374 480.355C375 477.852 387.516 478.48 387.516 478.48C387.516 478.48 400.032 477.852 400.799 479.923C400.799 479.923 401.136 508.749 400.799 509.062C400.799 509.062 398.902 512.23 397.004 509.062V484.991H394.474V538.835C393.841 542.635 389.414 542.635 389.414 538.835V507.891H385.638V538.556C385.638 542.311 381.258 542.311 380.632 538.556V485.362H378.129V509.143C376.251 512.272 374.374 509.143 374.374 509.143C374.041 508.833 373.748 482.858 374.374 480.355Z"
        fill="white" />
    <path
        d="M387.516 478.478V478.48M387.516 478.48C387.516 478.48 375 477.852 374.374 480.355C373.748 482.858 374.041 508.833 374.374 509.143C374.374 509.143 376.251 512.272 378.129 509.143V485.362H380.632V538.556C381.258 542.311 385.638 542.311 385.638 538.556V507.891H389.414V538.835C389.414 542.635 393.841 542.635 394.474 538.835V484.991H397.004V509.062C398.902 512.23 400.799 509.062 400.799 509.062C401.136 508.749 400.799 479.923 400.799 479.923C400.032 477.852 387.516 478.48 387.516 478.48ZM394.4 469.744C394.4 473.546 391.318 476.628 387.516 476.628C383.714 476.628 380.632 473.546 380.632 469.744C380.632 465.942 383.714 462.86 387.516 462.86C391.318 462.86 394.4 465.942 394.4 469.744Z"
        stroke="white" />
    <path
        d="M417.813 499.783L420.942 519.81H434.085L442.846 535.455L449.104 531.7C453.61 527.695 446.81 527.945 442.846 528.571L435.962 516.681H425.949V512.926C430.956 512.926 434.085 512.926 435.336 512.3C435.712 512.112 435.545 510.214 434.71 509.797H424.071L423.446 502.287L424.697 501.661C430.33 500.409 428.452 492.274 422.82 492.899C418.314 493.4 417.605 497.697 417.813 499.783Z"
        fill="white" stroke="white" />
    <path
        d="M416.875 514.177C412.946 516.497 410.304 520.831 410.304 525.796C410.304 533.205 416.188 539.21 423.446 539.21C426.405 539.21 429.136 538.212 431.332 536.527C433.136 535.144 434.58 533.298 435.494 531.162"
        stroke="white" stroke-width="4" />
    <rect x="530.992" y="624.21" width="100.668" height="98.2001" rx="3.5" fill="black" stroke="white"
        stroke-width="3" />
    <path
        d="M566.879 641.84C566.879 645.588 563.84 648.627 560.091 648.627C556.342 648.627 553.303 645.588 553.303 641.84C553.303 638.091 556.342 635.052 560.091 635.052C563.84 635.052 566.879 638.091 566.879 641.84Z"
        fill="white" />
    <path
        d="M560.091 648.627C563.84 648.627 566.879 645.588 566.879 641.84C566.879 638.091 563.84 635.052 560.091 635.052C556.342 635.052 553.303 638.091 553.303 641.84C553.303 645.588 556.342 648.627 560.091 648.627Z"
        fill="white" />
    <path
        d="M547.133 652.302C547.75 649.834 560.091 650.453 560.091 650.453C560.091 650.453 572.243 649.898 572.866 652.377C573.488 654.856 580.412 675.649 580.081 675.956C580.081 675.956 578.213 679.054 576.345 675.956L569.13 657.335H566.639L576.345 684.012H566.639V710.014C566.017 713.733 561.658 713.733 561.658 710.014V684.012H558.24V709.69C558.24 713.392 553.92 713.392 553.303 709.69V683.801H543.685L553.303 657.239H550.835L543.685 675.779C541.834 678.864 539.982 675.779 539.982 675.779C539.654 675.474 546.516 654.77 547.133 652.302Z"
        fill="white" />
    <path
        d="M560.091 650.451V650.453M560.091 650.453C560.091 650.453 547.75 649.834 547.133 652.302C546.516 654.77 539.654 675.474 539.982 675.779C539.982 675.779 541.834 678.864 543.685 675.779L550.835 657.239H553.303L543.685 683.801H553.303V709.69C553.92 713.392 558.24 713.392 558.24 709.69V684.012H561.658V710.014C561.658 713.733 566.017 713.733 566.639 710.014V684.012H576.345L566.639 657.335H569.13L576.345 675.956C578.213 679.054 580.081 675.956 580.081 675.956C580.412 675.649 573.488 654.856 572.866 652.377C572.243 649.898 560.091 650.453 560.091 650.453ZM566.879 641.84C566.879 645.588 563.84 648.627 560.091 648.627C556.342 648.627 553.303 645.588 553.303 641.84C553.303 638.091 556.342 635.052 560.091 635.052C563.84 635.052 566.879 638.091 566.879 641.84Z"
        stroke="white" />
    <path
        d="M589.965 671.459L593.051 691.206H606.009L614.648 706.632L620.819 702.93C625.262 698.981 618.556 699.228 614.648 699.845L607.86 688.12H597.987V684.418C602.924 684.418 606.009 684.418 607.243 683.801C607.614 683.615 607.449 681.744 606.626 681.332H596.136L595.519 673.928L596.753 673.31C602.307 672.076 600.456 664.054 594.902 664.671C590.459 665.165 589.76 669.402 589.965 671.459Z"
        fill="white" stroke="white" />
    <path
        d="M589.04 685.652C585.167 687.939 582.561 692.213 582.561 697.109C582.561 704.413 588.362 710.335 595.519 710.335C598.437 710.335 601.129 709.351 603.295 707.69C605.074 706.326 606.498 704.505 607.399 702.399"
        stroke="white" stroke-width="4" />
    <rect x="2999.82" y="258.243" width="98.5217" height="96.1045" rx="3.5" fill="black" stroke="white"
        stroke-width="3" />
    <path
        d="M3034.94 275.477C3034.94 279.148 3031.96 282.124 3028.29 282.124C3024.62 282.124 3021.64 279.148 3021.64 275.477C3021.64 271.805 3024.62 268.829 3028.29 268.829C3031.96 268.829 3034.94 271.805 3034.94 275.477Z"
        fill="white" />
    <path
        d="M3015.6 285.722C3016.2 283.305 3028.29 283.912 3028.29 283.912C3028.29 283.912 3040.38 283.305 3041.12 285.306C3041.12 285.306 3041.44 313.14 3041.12 313.443C3041.12 313.443 3039.28 316.501 3037.45 313.443V290.199H3035.01V342.191C3034.4 345.861 3030.12 345.861 3030.12 342.191V312.312H3026.48V341.922C3026.48 345.548 3022.25 345.548 3021.64 341.922V290.557H3019.23V313.52C3017.41 316.542 3015.6 313.52 3015.6 313.52C3015.28 313.222 3015 288.14 3015.6 285.722Z"
        fill="white" />
    <path
        d="M3028.29 283.91V283.912M3028.29 283.912C3028.29 283.912 3016.2 283.305 3015.6 285.722C3015 288.14 3015.28 313.222 3015.6 313.52C3015.6 313.52 3017.41 316.542 3019.23 313.52V290.557H3021.64V341.922C3022.25 345.548 3026.48 345.548 3026.48 341.922V312.312H3030.12V342.191C3030.12 345.861 3034.4 345.861 3035.01 342.191V290.199H3037.45V313.443C3039.28 316.501 3041.12 313.443 3041.12 313.443C3041.44 313.14 3041.12 285.306 3041.12 285.306C3040.38 283.305 3028.29 283.912 3028.29 283.912ZM3034.94 275.477C3034.94 279.148 3031.96 282.124 3028.29 282.124C3024.62 282.124 3021.64 279.148 3021.64 275.477C3021.64 271.805 3024.62 268.829 3028.29 268.829C3031.96 268.829 3034.94 271.805 3034.94 275.477Z"
        stroke="white" />
    <path
        d="M3057.55 304.483L3060.57 323.82H3073.26L3081.72 338.928L3087.76 335.302C3092.11 331.434 3085.54 331.676 3081.72 332.28L3075.07 320.799H3065.4V317.173C3070.24 317.173 3073.26 317.173 3074.47 316.569C3074.83 316.387 3074.67 314.554 3073.86 314.151H3063.59L3062.98 306.9L3064.19 306.296C3069.63 305.087 3067.82 297.231 3062.38 297.835C3058.03 298.319 3057.34 302.468 3057.55 304.483Z"
        fill="white" stroke="white" />
    <path
        d="M3056.64 318.382C3052.85 320.621 3050.29 324.807 3050.29 329.601C3050.29 336.754 3055.98 342.553 3062.98 342.553C3065.84 342.553 3068.48 341.59 3070.6 339.963C3072.34 338.627 3073.74 336.845 3074.62 334.782"
        stroke="white" stroke-width="4" />
    <rect x="2999.82" y="379.547" width="100.162" height="97.7055" rx="3.5" fill="black" stroke="white"
        stroke-width="3" />
    <path
        d="M3035.53 397.083C3035.53 400.814 3032.5 403.838 3028.77 403.838C3025.04 403.838 3022.02 400.814 3022.02 397.083C3022.02 393.353 3025.04 390.328 3028.77 390.328C3032.5 390.328 3035.53 393.353 3035.53 397.083Z"
        fill="white" />
    <path
        d="M3028.77 403.838C3032.5 403.838 3035.53 400.814 3035.53 397.083C3035.53 393.353 3032.5 390.328 3028.77 390.328C3025.04 390.328 3022.02 393.353 3022.02 397.083C3022.02 400.814 3025.04 403.838 3028.77 403.838Z"
        fill="white" />
    <path
        d="M3015.88 407.495C3016.49 405.038 3028.77 405.655 3028.77 405.655C3028.77 405.655 3040.87 405.102 3041.49 407.569C3042.11 410.036 3049 430.728 3048.67 431.032C3048.67 431.032 3046.81 434.116 3044.95 431.032L3037.77 412.503H3035.29L3044.95 439.05H3035.29V464.925C3034.67 468.625 3030.33 468.625 3030.33 464.925V439.05H3026.93V464.602C3026.93 468.286 3022.63 468.286 3022.02 464.602V438.839H3012.45L3022.02 412.407H3019.56L3012.45 430.856C3010.61 433.927 3008.76 430.856 3008.76 430.856C3008.44 430.553 3015.26 409.951 3015.88 407.495Z"
        fill="white" />
    <path
        d="M3028.77 405.652V405.655M3028.77 405.655C3028.77 405.655 3016.49 405.038 3015.88 407.495C3015.26 409.951 3008.44 430.553 3008.76 430.856C3008.76 430.856 3010.61 433.927 3012.45 430.856L3019.56 412.407H3022.02L3012.45 438.839H3022.02V464.602C3022.63 468.286 3026.93 468.286 3026.93 464.602V439.05H3030.33V464.925C3030.33 468.625 3034.67 468.625 3035.29 464.925V439.05H3044.95L3035.29 412.503H3037.77L3044.95 431.032C3046.81 434.116 3048.67 431.032 3048.67 431.032C3049 430.728 3042.11 410.036 3041.49 407.569C3040.87 405.102 3028.77 405.655 3028.77 405.655ZM3035.53 397.083C3035.53 400.814 3032.5 403.838 3028.77 403.838C3025.04 403.838 3022.02 400.814 3022.02 397.083C3022.02 393.353 3025.04 390.328 3028.77 390.328C3032.5 390.328 3035.53 393.353 3035.53 397.083Z"
        stroke="white" />
    <path
        d="M3058.5 426.558L3061.57 446.208H3074.47L3083.06 461.559L3089.2 457.875C3093.63 453.945 3086.95 454.191 3083.06 454.805L3076.31 443.138H3066.48V439.453C3071.4 439.453 3074.47 439.453 3075.7 438.839C3076.06 438.655 3075.9 436.792 3075.08 436.383H3064.64L3064.03 429.014L3065.26 428.4C3070.78 427.172 3068.94 419.189 3063.41 419.803C3058.99 420.295 3058.3 424.511 3058.5 426.558Z"
        fill="white" stroke="white" />
    <path
        d="M3057.58 440.681C3053.73 442.957 3051.13 447.21 3051.13 452.082C3051.13 459.351 3056.91 465.244 3064.03 465.244C3066.93 465.244 3069.61 464.264 3071.77 462.611C3073.54 461.254 3074.95 459.443 3075.85 457.347"
        stroke="white" stroke-width="4" />
    <rect x="3323.42" y="272.128" width="90.8451" height="88.6107" rx="3.5" fill="black" stroke="white"
        stroke-width="3" />
    <path
        d="M3327.9 293.748C3327.9 291.539 3329.69 289.748 3331.9 289.748H3358.09C3360.3 289.748 3362.09 291.539 3362.09 293.748V311.771C3362.09 312.324 3361.64 312.771 3361.09 312.771H3328.9C3328.35 312.771 3327.9 312.324 3327.9 311.771V293.748Z"
        fill="white" />
    <path
        d="M3358.03 317.501C3358.03 318.936 3352.19 320.099 3345 320.099C3337.8 320.099 3331.96 318.936 3331.96 317.501C3331.96 316.067 3337.8 314.904 3345 314.904C3352.19 314.904 3358.03 316.067 3358.03 317.501Z"
        fill="white" />
    <path
        d="M3335.3 342.127H3344.91L3354.53 342.127C3354.69 333.794 3353.56 330.267 3349.29 333.214C3348.33 333.877 3346.49 334.254 3344.91 334.229C3343.34 334.254 3341.5 333.877 3340.54 333.214C3336.27 330.267 3335.14 333.794 3335.3 342.127Z"
        fill="white" />
    <path
        d="M3344.89 321.956C3353.29 321.956 3360.09 320.503 3360.09 318.711C3360.09 337.926 3329.69 337.962 3329.69 318.711C3329.69 320.503 3336.49 321.956 3344.89 321.956Z"
        fill="white" />
    <path d="M3358.35 293.72H3331.62" stroke="black" />
    <ellipse cx="3.07183" cy="1.23989" rx="3.07183" ry="1.23989"
        transform="matrix(0.848431 0.529307 -0.591526 0.806286 3332.11 294.125)" fill="black" />
    <path
        d="M3375.15 300.582L3378.45 321.7H3392.3L3401.54 338.199L3408.14 334.239C3412.89 330.015 3405.72 330.279 3401.54 330.939L3394.28 318.401H3383.73V314.441C3389 314.441 3392.3 314.441 3393.62 313.781C3394.02 313.583 3393.84 311.581 3392.96 311.141H3381.75L3381.09 303.222L3382.41 302.562C3388.34 301.242 3386.36 292.663 3380.43 293.323C3375.67 293.851 3374.93 298.383 3375.15 300.582Z"
        fill="white" stroke="white" />
    <path
        d="M3374.16 315.761C3370.01 318.207 3367.23 322.778 3367.23 328.013C3367.23 335.825 3373.43 342.158 3381.09 342.158C3384.21 342.158 3387.09 341.105 3389.4 339.329C3391.3 337.87 3392.83 335.924 3393.79 333.671"
        stroke="white" stroke-width="4" />
    <rect x="618.937" y="0.250122" width="501" height="504" fill="black" />
    <path
        d="M805.973 183.05H826.823C824.723 194.55 819.873 203.7 812.273 210.5C804.773 217.3 795.323 220.7 783.923 220.7C770.323 220.7 759.223 216.2 750.623 207.2C742.123 198.1 737.873 185.25 737.873 168.65C737.873 151.85 742.023 138.6 750.323 128.9C758.623 119.2 769.923 114.35 784.223 114.35C796.323 114.35 806.173 117.75 813.773 124.55C821.473 131.35 825.823 139.95 826.823 150.35H805.973C804.573 144.85 801.873 140.5 797.873 137.3C793.873 134 789.373 132.35 784.373 132.35C775.973 132.35 769.623 135.45 765.323 141.65C761.123 147.75 759.023 156.35 759.023 167.45C759.023 178.65 761.073 187.3 765.173 193.4C769.273 199.5 775.323 202.55 783.323 202.55C795.423 202.55 802.973 196.05 805.973 183.05ZM878.166 134.9H851.316V161.45H877.416C887.616 161.45 892.716 157.05 892.716 148.25C892.716 139.35 887.866 134.9 878.166 134.9ZM909.516 217.25H889.116V191.6C889.116 186.7 887.966 183.25 885.666 181.25C883.466 179.25 879.416 178.25 873.516 178.25H851.316V217.25H831.066V117.65H881.616C890.716 117.65 898.066 120.35 903.666 125.75C909.366 131.15 912.216 138.05 912.216 146.45C912.216 151.85 910.916 156.65 908.316 160.85C905.716 164.95 902.066 167.85 897.366 169.55C901.866 170.95 905.016 173.1 906.816 176C908.616 178.9 909.516 183.25 909.516 189.05V217.25ZM1001.83 217.25H976.48L957.43 183.05L937.33 217.25H913.03L945.28 166.4L914.83 117.65H939.43L957.43 149.9L975.58 117.65H999.73L969.43 165.5L1001.83 217.25ZM902.974 397.25H835.174C835.274 387.25 837.274 378.65 841.174 371.45C845.174 364.25 853.174 356.35 865.174 347.75C872.374 342.55 877.224 338.35 879.724 335.15C882.324 331.95 883.624 328.25 883.624 324.05C883.624 315.35 879.024 311 869.824 311C865.124 311 861.524 312.35 859.024 315.05C856.524 317.75 855.274 322.3 855.274 328.7H836.524C836.524 318 839.374 309.6 845.074 303.5C850.774 297.4 858.724 294.35 868.924 294.35C879.324 294.35 887.524 296.85 893.524 301.85C899.624 306.75 902.674 313.95 902.674 323.45C902.674 330.85 900.624 337.25 896.524 342.65C892.424 348.05 884.874 354.65 873.874 362.45C869.974 365.25 866.724 368.3 864.124 371.6C861.624 374.9 860.274 377.8 860.074 380.3H902.974V397.25Z"
        fill="white" />
    <rect x="149.636" y="1107.95" width="162.021" height="158.352" rx="3" fill="black" stroke="white"
        stroke-width="4" />
    <path
        d="M200.851 1193.46H209.011C208.189 1197.96 206.291 1201.54 203.317 1204.2C200.382 1206.86 196.683 1208.19 192.222 1208.19C186.899 1208.19 182.555 1206.43 179.19 1202.91C175.863 1199.35 174.2 1194.32 174.2 1187.82C174.2 1181.25 175.824 1176.06 179.072 1172.27C182.32 1168.47 186.743 1166.57 192.339 1166.57C197.075 1166.57 200.929 1167.9 203.904 1170.57C206.917 1173.23 208.62 1176.59 209.011 1180.66H200.851C200.303 1178.51 199.247 1176.81 197.681 1175.56C196.116 1174.26 194.355 1173.62 192.398 1173.62C189.11 1173.62 186.625 1174.83 184.942 1177.26C183.299 1179.65 182.477 1183.01 182.477 1187.36C182.477 1191.74 183.279 1195.12 184.884 1197.51C186.488 1199.9 188.856 1201.09 191.987 1201.09C196.722 1201.09 199.677 1198.55 200.851 1193.46Z"
        fill="white" />
    <path
        d="M236.09 1206.84H209.556C209.595 1202.93 210.378 1199.57 211.904 1196.75C213.469 1193.93 216.6 1190.84 221.297 1187.47C224.114 1185.44 226.012 1183.79 226.991 1182.54C228.008 1181.29 228.517 1179.84 228.517 1178.2C228.517 1174.79 226.717 1173.09 223.116 1173.09C221.277 1173.09 219.868 1173.62 218.89 1174.68C217.911 1175.73 217.422 1177.51 217.422 1180.02H210.084C210.084 1175.83 211.2 1172.54 213.43 1170.15C215.661 1167.77 218.772 1166.57 222.764 1166.57C226.834 1166.57 230.043 1167.55 232.392 1169.51C234.779 1171.43 235.972 1174.24 235.972 1177.96C235.972 1180.86 235.17 1183.36 233.566 1185.48C231.961 1187.59 229.006 1190.17 224.701 1193.23C223.175 1194.32 221.903 1195.51 220.886 1196.81C219.907 1198.1 219.379 1199.23 219.301 1200.21H236.09V1206.84Z"
        fill="white" />
    <path
        d="M252.459 1206.84H244.828V1179.9H236.844V1174.62C240.092 1174.62 242.401 1174.09 243.771 1173.03C245.18 1171.94 246.002 1170.21 246.236 1167.87H252.459V1206.84Z"
        fill="white" />
    <path
        d="M268.479 1202.03C270.358 1202.03 271.747 1200.9 272.647 1198.63C273.547 1196.36 273.997 1192.62 273.997 1187.41C273.997 1182.13 273.547 1178.35 272.647 1176.08C271.747 1173.81 270.358 1172.68 268.479 1172.68C266.561 1172.68 265.153 1173.81 264.252 1176.08C263.352 1178.31 262.902 1182.05 262.902 1187.3C262.902 1192.58 263.352 1196.36 264.252 1198.63C265.153 1200.9 266.561 1202.03 268.479 1202.03ZM268.244 1208.19C259.4 1208.19 254.977 1201.19 254.977 1187.18C254.977 1173.44 259.4 1166.57 268.244 1166.57C277.246 1166.57 281.746 1173.4 281.746 1187.06C281.746 1194.15 280.572 1199.45 278.224 1202.97C275.876 1206.45 272.549 1208.19 268.244 1208.19Z"
        fill="white" />
    <rect x="1219.19" y="1302.71" width="162.021" height="158.352" rx="3" fill="black" stroke="white"
        stroke-width="4" />
    <path
        d="M1270.4 1388.22H1278.56C1277.74 1392.72 1275.84 1396.3 1272.87 1398.96C1269.94 1401.62 1266.24 1402.96 1261.78 1402.96C1256.45 1402.96 1252.11 1401.19 1248.74 1397.67C1245.42 1394.11 1243.75 1389.08 1243.75 1382.58C1243.75 1376.01 1245.38 1370.82 1248.63 1367.03C1251.87 1363.23 1256.3 1361.33 1261.89 1361.33C1266.63 1361.33 1270.48 1362.66 1273.46 1365.33C1276.47 1367.99 1278.17 1371.35 1278.56 1375.42H1270.4C1269.86 1373.27 1268.8 1371.57 1267.23 1370.32C1265.67 1369.02 1263.91 1368.38 1261.95 1368.38C1258.66 1368.38 1256.18 1369.59 1254.5 1372.02C1252.85 1374.41 1252.03 1377.77 1252.03 1382.12C1252.03 1386.5 1252.83 1389.88 1254.44 1392.27C1256.04 1394.66 1258.41 1395.85 1261.54 1395.85C1266.28 1395.85 1269.23 1393.31 1270.4 1388.22Z"
        fill="white" />
    <path
        d="M1305.64 1401.6H1279.11C1279.15 1397.69 1279.93 1394.33 1281.46 1391.51C1283.02 1388.69 1286.15 1385.6 1290.85 1382.23C1293.67 1380.2 1295.57 1378.55 1296.54 1377.3C1297.56 1376.05 1298.07 1374.6 1298.07 1372.96C1298.07 1369.55 1296.27 1367.85 1292.67 1367.85C1290.83 1367.85 1289.42 1368.38 1288.44 1369.44C1287.47 1370.49 1286.98 1372.27 1286.98 1374.78H1279.64C1279.64 1370.59 1280.75 1367.3 1282.98 1364.92C1285.21 1362.53 1288.33 1361.33 1292.32 1361.33C1296.39 1361.33 1299.6 1362.31 1301.95 1364.27C1304.33 1366.19 1305.53 1369 1305.53 1372.72C1305.53 1375.62 1304.72 1378.12 1303.12 1380.24C1301.51 1382.35 1298.56 1384.93 1294.26 1387.99C1292.73 1389.08 1291.46 1390.28 1290.44 1391.57C1289.46 1392.86 1288.93 1393.99 1288.85 1394.97H1305.64V1401.6Z"
        fill="white" />
    <path
        d="M1333.56 1401.6H1307.03C1307.07 1397.69 1307.85 1394.33 1309.38 1391.51C1310.94 1388.69 1314.07 1385.6 1318.77 1382.23C1321.59 1380.2 1323.48 1378.55 1324.46 1377.3C1325.48 1376.05 1325.99 1374.6 1325.99 1372.96C1325.99 1369.55 1324.19 1367.85 1320.59 1367.85C1318.75 1367.85 1317.34 1368.38 1316.36 1369.44C1315.38 1370.49 1314.89 1372.27 1314.89 1374.78H1307.56C1307.56 1370.59 1308.67 1367.3 1310.9 1364.92C1313.13 1362.53 1316.24 1361.33 1320.24 1361.33C1324.31 1361.33 1327.52 1362.31 1329.86 1364.27C1332.25 1366.19 1333.44 1369 1333.44 1372.72C1333.44 1375.62 1332.64 1378.12 1331.04 1380.24C1329.43 1382.35 1326.48 1384.93 1322.17 1387.99C1320.65 1389.08 1319.38 1390.28 1318.36 1391.57C1317.38 1392.86 1316.85 1393.99 1316.77 1394.97H1333.56V1401.6Z"
        fill="white" />
    <path
        d="M1348.58 1396.79C1350.46 1396.79 1351.85 1395.66 1352.75 1393.39C1353.65 1391.12 1354.1 1387.38 1354.1 1382.17C1354.1 1376.89 1353.65 1373.11 1352.75 1370.84C1351.85 1368.57 1350.46 1367.44 1348.58 1367.44C1346.66 1367.44 1345.25 1368.57 1344.35 1370.84C1343.45 1373.07 1343 1376.81 1343 1382.06C1343 1387.34 1343.45 1391.12 1344.35 1393.39C1345.25 1395.66 1346.66 1396.79 1348.58 1396.79ZM1348.35 1402.96C1339.5 1402.96 1335.08 1395.95 1335.08 1381.94C1335.08 1368.2 1339.5 1361.33 1348.35 1361.33C1357.35 1361.33 1361.85 1368.16 1361.85 1381.82C1361.85 1388.91 1360.67 1394.21 1358.33 1397.73C1355.98 1401.21 1352.65 1402.96 1348.35 1402.96Z"
        fill="white" />
    <rect x="1658.23" y="1302.71" width="162.021" height="158.352" rx="3" fill="black" stroke="white"
        stroke-width="4" />
    <path
        d="M1709.44 1388.22H1717.6C1716.78 1392.72 1714.88 1396.3 1711.91 1398.96C1708.97 1401.62 1705.27 1402.96 1700.81 1402.96C1695.49 1402.96 1691.14 1401.19 1687.78 1397.67C1684.45 1394.11 1682.79 1389.08 1682.79 1382.58C1682.79 1376.01 1684.41 1370.82 1687.66 1367.03C1690.91 1363.23 1695.33 1361.33 1700.93 1361.33C1705.66 1361.33 1709.52 1362.66 1712.49 1365.33C1715.51 1367.99 1717.21 1371.35 1717.6 1375.42H1709.44C1708.89 1373.27 1707.84 1371.57 1706.27 1370.32C1704.7 1369.02 1702.94 1368.38 1700.99 1368.38C1697.7 1368.38 1695.21 1369.59 1693.53 1372.02C1691.89 1374.41 1691.07 1377.77 1691.07 1382.12C1691.07 1386.5 1691.87 1389.88 1693.47 1392.27C1695.08 1394.66 1697.45 1395.85 1700.58 1395.85C1705.31 1395.85 1708.27 1393.31 1709.44 1388.22Z"
        fill="white" />
    <path
        d="M1744.68 1401.6H1718.15C1718.18 1397.69 1718.97 1394.33 1720.49 1391.51C1722.06 1388.69 1725.19 1385.6 1729.89 1382.23C1732.7 1380.2 1734.6 1378.55 1735.58 1377.3C1736.6 1376.05 1737.11 1374.6 1737.11 1372.96C1737.11 1369.55 1735.31 1367.85 1731.71 1367.85C1729.87 1367.85 1728.46 1368.38 1727.48 1369.44C1726.5 1370.49 1726.01 1372.27 1726.01 1374.78H1718.67C1718.67 1370.59 1719.79 1367.3 1722.02 1364.92C1724.25 1362.53 1727.36 1361.33 1731.35 1361.33C1735.42 1361.33 1738.63 1362.31 1740.98 1364.27C1743.37 1366.19 1744.56 1369 1744.56 1372.72C1744.56 1375.62 1743.76 1378.12 1742.15 1380.24C1740.55 1382.35 1737.6 1384.93 1733.29 1387.99C1731.76 1389.08 1730.49 1390.28 1729.47 1391.57C1728.5 1392.86 1727.97 1393.99 1727.89 1394.97H1744.68V1401.6Z"
        fill="white" />
    <path
        d="M1772.6 1401.6H1746.06C1746.1 1397.69 1746.89 1394.33 1748.41 1391.51C1749.98 1388.69 1753.11 1385.6 1757.8 1382.23C1760.62 1380.2 1762.52 1378.55 1763.5 1377.3C1764.52 1376.05 1765.02 1374.6 1765.02 1372.96C1765.02 1369.55 1763.22 1367.85 1759.62 1367.85C1757.78 1367.85 1756.38 1368.38 1755.4 1369.44C1754.42 1370.49 1753.93 1372.27 1753.93 1374.78H1746.59C1746.59 1370.59 1747.71 1367.3 1749.94 1364.92C1752.17 1362.53 1755.28 1361.33 1759.27 1361.33C1763.34 1361.33 1766.55 1362.31 1768.9 1364.27C1771.29 1366.19 1772.48 1369 1772.48 1372.72C1772.48 1375.62 1771.68 1378.12 1770.07 1380.24C1768.47 1382.35 1765.51 1384.93 1761.21 1387.99C1759.68 1389.08 1758.41 1390.28 1757.39 1391.57C1756.42 1392.86 1755.89 1393.99 1755.81 1394.97H1772.6V1401.6Z"
        fill="white" />
    <path
        d="M1783.92 1384.11V1378.77C1786.93 1378.77 1789.01 1378.3 1790.14 1377.36C1791.28 1376.38 1791.84 1375.07 1791.84 1373.43C1791.84 1369.44 1790.16 1367.44 1786.79 1367.44C1785.27 1367.44 1784.02 1368.01 1783.04 1369.14C1782.1 1370.28 1781.63 1371.84 1781.63 1373.84H1774.53C1774.53 1370.12 1775.68 1367.11 1777.99 1364.8C1780.34 1362.49 1783.37 1361.33 1787.09 1361.33C1790.49 1361.33 1793.35 1362.33 1795.66 1364.33C1798.01 1366.32 1799.18 1368.87 1799.18 1371.96C1799.18 1373.8 1798.79 1375.5 1798.01 1377.07C1797.22 1378.63 1796.09 1379.85 1794.6 1380.71C1798.48 1382.31 1800.41 1385.52 1800.41 1390.33C1800.41 1394.21 1799.14 1397.28 1796.6 1399.55C1794.09 1401.82 1790.79 1402.96 1786.68 1402.96C1782.65 1402.96 1779.5 1401.82 1777.23 1399.55C1775 1397.28 1773.88 1394.15 1773.88 1390.16H1781.22C1781.22 1394.5 1783.16 1396.67 1787.03 1396.67C1788.67 1396.67 1790 1396.11 1791.02 1394.97C1792.08 1393.8 1792.61 1392.21 1792.61 1390.22C1792.61 1387.95 1791.96 1386.36 1790.67 1385.46C1789.38 1384.56 1787.13 1384.11 1783.92 1384.11Z"
        fill="white" />
    <rect x="2108.2" y="1302.71" width="162.021" height="158.352" rx="3" fill="black" stroke="white" stroke-width="4" />
    <path
        d="M2159.42 1388.22H2167.58C2166.76 1392.72 2164.86 1396.3 2161.88 1398.96C2158.95 1401.62 2155.25 1402.96 2150.79 1402.96C2145.47 1402.96 2141.12 1401.19 2137.76 1397.67C2134.43 1394.11 2132.77 1389.08 2132.77 1382.58C2132.77 1376.01 2134.39 1370.82 2137.64 1367.03C2140.89 1363.23 2145.31 1361.33 2150.91 1361.33C2155.64 1361.33 2159.5 1362.66 2162.47 1365.33C2165.48 1367.99 2167.19 1371.35 2167.58 1375.42H2159.42C2158.87 1373.27 2157.81 1371.57 2156.25 1370.32C2154.68 1369.02 2152.92 1368.38 2150.96 1368.38C2147.68 1368.38 2145.19 1369.59 2143.51 1372.02C2141.87 1374.41 2141.04 1377.77 2141.04 1382.12C2141.04 1386.5 2141.85 1389.88 2143.45 1392.27C2145.06 1394.66 2147.42 1395.85 2150.55 1395.85C2155.29 1395.85 2158.24 1393.31 2159.42 1388.22Z"
        fill="white" />
    <path
        d="M2194.66 1401.6H2168.12C2168.16 1397.69 2168.94 1394.33 2170.47 1391.51C2172.04 1388.69 2175.17 1385.6 2179.86 1382.23C2182.68 1380.2 2184.58 1378.55 2185.56 1377.3C2186.58 1376.05 2187.08 1374.6 2187.08 1372.96C2187.08 1369.55 2185.28 1367.85 2181.68 1367.85C2179.84 1367.85 2178.44 1368.38 2177.46 1369.44C2176.48 1370.49 2175.99 1372.27 2175.99 1374.78H2168.65C2168.65 1370.59 2169.77 1367.3 2172 1364.92C2174.23 1362.53 2177.34 1361.33 2181.33 1361.33C2185.4 1361.33 2188.61 1362.31 2190.96 1364.27C2193.35 1366.19 2194.54 1369 2194.54 1372.72C2194.54 1375.62 2193.74 1378.12 2192.13 1380.24C2190.53 1382.35 2187.57 1384.93 2183.27 1387.99C2181.74 1389.08 2180.47 1390.28 2179.45 1391.57C2178.47 1392.86 2177.95 1393.99 2177.87 1394.97H2194.66V1401.6Z"
        fill="white" />
    <path
        d="M2205.98 1384.11V1378.77C2208.99 1378.77 2211.07 1378.3 2212.2 1377.36C2213.34 1376.38 2213.9 1375.07 2213.9 1373.43C2213.9 1369.44 2212.22 1367.44 2208.85 1367.44C2207.33 1367.44 2206.08 1368.01 2205.1 1369.14C2204.16 1370.28 2203.69 1371.84 2203.69 1373.84H2196.58C2196.58 1370.12 2197.74 1367.11 2200.05 1364.8C2202.4 1362.49 2205.43 1361.33 2209.15 1361.33C2212.55 1361.33 2215.41 1362.33 2217.72 1364.33C2220.07 1366.32 2221.24 1368.87 2221.24 1371.96C2221.24 1373.8 2220.85 1375.5 2220.07 1377.07C2219.28 1378.63 2218.15 1379.85 2216.66 1380.71C2220.54 1382.31 2222.47 1385.52 2222.47 1390.33C2222.47 1394.21 2221.2 1397.28 2218.66 1399.55C2216.15 1401.82 2212.85 1402.96 2208.74 1402.96C2204.71 1402.96 2201.56 1401.82 2199.29 1399.55C2197.05 1397.28 2195.94 1394.15 2195.94 1390.16H2203.28C2203.28 1394.5 2205.21 1396.67 2209.09 1396.67C2210.73 1396.67 2212.06 1396.11 2213.08 1394.97C2214.14 1393.8 2214.67 1392.21 2214.67 1390.22C2214.67 1387.95 2214.02 1386.36 2212.73 1385.46C2211.44 1384.56 2209.19 1384.11 2205.98 1384.11Z"
        fill="white" />
    <path
        d="M2237.77 1396.79C2239.64 1396.79 2241.03 1395.66 2241.93 1393.39C2242.83 1391.12 2243.28 1387.38 2243.28 1382.17C2243.28 1376.89 2242.83 1373.11 2241.93 1370.84C2241.03 1368.57 2239.64 1367.44 2237.77 1367.44C2235.85 1367.44 2234.44 1368.57 2233.54 1370.84C2232.64 1373.07 2232.19 1376.81 2232.19 1382.06C2232.19 1387.34 2232.64 1391.12 2233.54 1393.39C2234.44 1395.66 2235.85 1396.79 2237.77 1396.79ZM2237.53 1402.96C2228.69 1402.96 2224.26 1395.95 2224.26 1381.94C2224.26 1368.2 2228.69 1361.33 2237.53 1361.33C2246.53 1361.33 2251.03 1368.16 2251.03 1381.82C2251.03 1388.91 2249.86 1394.21 2247.51 1397.73C2245.16 1401.21 2241.84 1402.96 2237.53 1402.96Z"
        fill="white" />
    <rect x="3057.88" y="1108.21" width="162.021" height="158.352" rx="3" fill="black" stroke="white"
        stroke-width="4" />
    <path
        d="M3109.09 1193.72H3117.25C3116.43 1198.22 3114.53 1201.8 3111.56 1204.46C3108.62 1207.12 3104.93 1208.46 3100.46 1208.46C3095.14 1208.46 3090.8 1206.69 3087.43 1203.17C3084.11 1199.61 3082.44 1194.58 3082.44 1188.08C3082.44 1181.51 3084.07 1176.32 3087.31 1172.53C3090.56 1168.73 3094.99 1166.83 3100.58 1166.83C3105.32 1166.83 3109.17 1168.16 3112.15 1170.83C3115.16 1173.49 3116.86 1176.85 3117.25 1180.92H3109.09C3108.55 1178.77 3107.49 1177.07 3105.92 1175.82C3104.36 1174.52 3102.6 1173.88 3100.64 1173.88C3097.35 1173.88 3094.87 1175.09 3093.19 1177.52C3091.54 1179.91 3090.72 1183.27 3090.72 1187.62C3090.72 1192 3091.52 1195.38 3093.13 1197.77C3094.73 1200.16 3097.1 1201.35 3100.23 1201.35C3104.96 1201.35 3107.92 1198.81 3109.09 1193.72Z"
        fill="white" />
    <path
        d="M3144.33 1207.1H3117.8C3117.84 1203.19 3118.62 1199.83 3120.15 1197.01C3121.71 1194.19 3124.84 1191.1 3129.54 1187.73C3132.36 1185.7 3134.25 1184.05 3135.23 1182.8C3136.25 1181.55 3136.76 1180.1 3136.76 1178.46C3136.76 1175.05 3134.96 1173.35 3131.36 1173.35C3129.52 1173.35 3128.11 1173.88 3127.13 1174.94C3126.15 1175.99 3125.66 1177.77 3125.66 1180.28H3118.33C3118.33 1176.09 3119.44 1172.8 3121.67 1170.42C3123.9 1168.03 3127.01 1166.83 3131.01 1166.83C3135.08 1166.83 3138.29 1167.81 3140.63 1169.77C3143.02 1171.69 3144.22 1174.5 3144.22 1178.22C3144.22 1181.12 3143.41 1183.62 3141.81 1185.74C3140.2 1187.85 3137.25 1190.43 3132.94 1193.49C3131.42 1194.58 3130.15 1195.78 3129.13 1197.07C3128.15 1198.36 3127.62 1199.49 3127.54 1200.47H3144.33V1207.1Z"
        fill="white" />
    <path
        d="M3160.41 1192.66V1178.93L3152.42 1192.66H3160.41ZM3167.86 1207.1H3160.23V1198.59H3145.09V1191.96L3159.29 1168.13H3167.86V1192.66H3172.27V1198.59H3167.86V1207.1Z"
        fill="white" />
    <path
        d="M3187.27 1202.29C3189.15 1202.29 3190.54 1201.16 3191.44 1198.89C3192.34 1196.62 3192.79 1192.88 3192.79 1187.67C3192.79 1182.39 3192.34 1178.61 3191.44 1176.34C3190.54 1174.07 3189.15 1172.94 3187.27 1172.94C3185.35 1172.94 3183.94 1174.07 3183.04 1176.34C3182.14 1178.57 3181.69 1182.31 3181.69 1187.56C3181.69 1192.84 3182.14 1196.62 3183.04 1198.89C3183.94 1201.16 3185.35 1202.29 3187.27 1202.29ZM3187.04 1208.46C3178.19 1208.46 3173.77 1201.45 3173.77 1187.44C3173.77 1173.7 3178.19 1166.83 3187.04 1166.83C3196.04 1166.83 3200.54 1173.66 3200.54 1187.32C3200.54 1194.41 3199.36 1199.71 3197.01 1203.23C3194.67 1206.71 3191.34 1208.46 3187.04 1208.46Z"
        fill="white" />
</svg>