<svg width="228" height="228" viewBox="0 0 228 228" fill="none" xmlns="http://www.w3.org/2000/svg">
<rect width="228" height="228" fill="white"/>
<g filter="url(#filter0_f_576_255)">
<path d="M67.9012 55.6675C68.1583 57.4186 68.9294 59.8324 70.2147 62.9088C71.3286 65.5118 71.8856 67.7363 71.8856 69.4874C71.8856 74.2203 68.4153 76.8707 61.7319 76.2081C57.619 75.7821 54.9627 73.8417 53.6774 70.9073C53.2918 70.0554 53.1205 69.2035 53.1205 68.3042C53.1205 67.5943 53.4632 66.2691 54.1058 64.3286C54.877 62.0095 55.3911 59.2645 55.7339 56.3774C55.9052 54.7209 55.9909 53.3484 55.9909 52.3071C55.9909 49.2781 55.0912 47.3376 53.3347 46.5331C52.7777 46.2964 52.1779 46.1544 51.4924 46.0598C48.9219 45.6811 47.4652 46.675 47.1225 48.9941C47.0368 49.5621 46.994 50.1774 46.994 50.84C46.994 51.9758 47.1225 53.3484 47.251 54.8629C47.5938 57.8446 48.2364 61.1576 49.3075 64.6599C49.693 65.8905 49.8644 66.8844 49.8644 67.5943C49.8644 69.9607 48.7505 71.4752 46.4798 71.9485C45.066 72.1852 43.3952 71.9485 41.4672 71.1913C41.3816 71.1913 41.3387 71.1439 41.253 71.0966C34.5267 68.2569 31.0993 63.8553 31.0993 59.8324C31.0993 58.2232 31.6991 56.5667 32.9415 54.6263C34.0983 52.8278 34.8266 51.1713 35.1265 49.7987C35.812 46.4384 36.1976 42.2735 36.1976 37.3986C36.1976 34.6536 36.0262 32.0032 35.5978 29.6841C35.3836 28.5482 34.6981 26.7024 33.5413 24.2886C32.9415 22.9634 32.6416 22.0168 32.6416 21.3542C32.6416 19.6977 34.2697 18.6565 37.5685 18.0412C38.7681 17.8046 40.0106 17.7099 41.2959 17.7099C45.2374 17.7099 47.9365 18.5618 49.2646 20.2183C49.6502 20.8336 49.9073 21.4489 49.9501 22.0168C49.9501 22.7268 49.436 24.2886 48.4506 26.5131C47.2939 29.1161 46.7369 31.2932 46.7369 33.1391C46.7369 36.0734 47.9793 37.8719 50.5071 38.5818C50.8498 38.6765 51.1925 38.7238 51.4924 38.7712C54.4486 38.6292 56.1623 36.878 56.248 33.9436C56.3337 32.0505 55.5625 29.3528 54.2344 26.1818C53.4204 24.194 53.0348 22.8687 53.0348 22.1115C53.0348 20.171 54.6628 18.8931 57.9617 18.1832C59.1613 17.9466 60.4037 17.8046 61.689 17.8046C65.6305 17.8046 68.2868 18.7038 69.6578 20.455C70.0862 21.0229 70.3432 21.6855 70.3861 22.3955C70.3861 23.2 69.9148 24.8092 68.9294 27.081C68.1154 29.0215 67.6013 30.678 67.3871 32.0032C67.0872 33.9436 66.9587 36.594 66.9587 39.9544C66.9587 46.4384 67.2586 51.5972 67.8584 55.5728L67.9012 55.6675ZM44.8947 20.2657C44.0806 20.2657 43.6522 20.6443 43.6094 21.2596C43.6094 21.8748 44.0378 22.3481 44.8947 22.6794C45.1517 22.7741 45.4088 22.8687 45.623 22.8687C46.3942 22.8687 46.8654 22.4901 46.9083 21.8748C46.9083 21.2596 46.4798 20.739 45.623 20.455C45.3659 20.3603 45.1089 20.313 44.8947 20.313V20.2657ZM65.3306 20.597C64.5166 20.597 64.0025 21.0229 64.0025 21.6855C64.0025 22.3481 64.4309 22.8687 65.2878 23.2C65.5449 23.2947 65.8019 23.3894 66.0161 23.3894C66.8301 23.3894 67.3443 22.9634 67.3443 22.3008C67.3443 21.6382 66.9158 21.1176 66.059 20.7863C65.8019 20.6916 65.5449 20.597 65.3306 20.6443V20.597Z" stroke="#C499F7"/>
<path d="M107.531 44.8766C108.602 48.3789 110.273 50.7926 112.586 52.0232C114.086 52.8278 114.985 53.3484 115.2 53.585C115.971 54.3423 116.356 55.5728 116.356 57.2293C116.356 60.353 114.985 62.8614 112.243 64.7546C111.001 65.6065 109.116 66.6004 106.631 67.6416C101.876 69.6294 98.9194 69.9134 97.6341 68.5409C96.9914 67.7836 96.6915 66.6004 96.6915 64.9912C96.6915 64.4706 96.6915 63.524 96.7344 62.1515C96.7772 60.353 96.8629 59.0278 96.8629 58.2706C96.8629 55.2415 96.306 53.585 95.1492 53.2537C94.7208 53.1591 94.2067 53.1591 93.6925 53.2537C91.122 53.9636 89.7939 57.182 89.7939 62.7194C89.7939 63.0507 89.7939 63.6187 89.7939 64.2813C89.7939 64.9439 89.8367 65.5118 89.8367 65.8431C89.8367 69.9134 88.5514 72.8951 86.0237 74.7409C84.8241 75.5928 83.1961 75.8768 81.2681 76.0661C77.3695 76.4447 75.0131 75.2615 74.1563 72.8004C73.8135 71.8065 73.6421 70.718 73.6421 69.3928C73.6421 67.263 74.1991 65.7011 75.313 64.6599C75.4844 64.5179 75.8271 64.2813 76.2555 63.95C78.0121 62.6248 79.2974 61.0156 80.1542 59.1698C80.4113 58.6019 80.6255 58.0812 80.8397 57.5606C82.7248 52.6384 84.5242 46.8644 86.1094 39.7651C87.0948 35.4582 87.566 32.3345 87.566 30.4887C87.566 28.8795 87.1376 27.081 86.2807 24.9512C85.7238 23.626 85.4667 22.4901 85.4667 21.6382C85.4667 19.8397 87.3947 18.5145 91.2505 17.8519C92.4501 17.6153 93.6497 17.5206 94.8493 17.5206C98.748 17.5206 101.618 18.2779 103.504 19.6504C104.189 20.171 104.617 20.7863 104.789 21.4489C104.789 21.6855 104.832 21.9695 104.832 22.3955C104.832 31.2932 105.731 38.8658 107.531 44.7346V44.8766ZM92.2787 44.072C92.2787 45.6338 92.8785 46.4384 93.7354 46.2491C94.8065 46.0124 95.4063 44.7346 95.4063 42.7941C95.4063 38.4872 94.7636 36.0734 94.0353 36.1208C93.4355 36.1208 92.8785 37.6353 92.5358 40.333C92.4073 41.5162 92.2787 42.8414 92.3216 44.1193L92.2787 44.072ZM99.4335 20.2183C98.6195 20.2657 98.1053 20.6443 98.1053 21.2596C98.1053 21.8748 98.5338 22.3008 99.3906 22.5848C99.6477 22.6794 99.9047 22.7268 100.119 22.6794C100.933 22.6321 101.361 22.2061 101.404 21.6382C101.404 21.0229 100.976 20.5496 100.119 20.2657C99.9047 20.2657 99.6905 20.2183 99.4335 20.2183Z" stroke="#C499F7"/>
<path d="M147.76 22.5848C147.76 24.5726 147.203 26.1818 146.046 27.4596C145.361 28.1222 144.633 28.5009 143.861 28.5482C143.647 28.5482 143.39 28.5482 143.133 28.4535C142.448 28.3115 141.762 27.6963 141.034 26.5604C140.22 25.3298 139.449 24.5726 138.763 24.3359C138.335 24.2413 137.949 24.1939 137.478 24.2413C135.721 24.4306 134.222 25.7558 133.022 28.5009C132.08 30.678 131.566 32.9971 131.566 35.3635C131.566 39.2445 132.722 41.4216 134.993 41.8475C135.721 41.9895 136.535 41.9422 137.435 41.7055C138.72 41.3742 140.091 40.2384 141.505 38.4399C142.833 36.736 143.69 35.9314 144.118 35.6475C144.932 35.0795 145.746 34.7956 146.603 34.7482C148.488 34.7009 149.859 35.6948 150.716 37.7299C151.145 38.8185 151.402 39.9544 151.402 41.2323C151.402 46.9117 148.788 50.6033 143.519 52.5438C141.805 53.2064 139.791 54.2003 137.435 55.0522C129.638 57.8446 124.111 57.5606 120.855 53.0171C119.055 50.5087 118.156 47.0537 118.156 42.7468C118.156 36.7834 119.741 30.9619 122.74 25.9924C125.91 20.7863 129.895 18.0886 134.736 17.3313C135.636 17.0947 136.578 17 137.521 17C138.035 17 139.663 17.1893 142.362 17.4733C143.133 17.5679 143.776 17.6153 144.29 17.6153C144.504 17.6153 144.761 17.6153 145.018 17.7099C146.346 18.0412 147.203 19.1771 147.589 21.1649C147.717 21.6382 147.76 22.1588 147.76 22.6321V22.5848ZM141.676 18.8458C141.077 18.8458 140.734 19.0825 140.734 19.4138C140.734 19.7924 141.119 20.1237 141.933 20.3603C142.276 20.455 142.576 20.5023 142.876 20.5023C143.476 20.5023 143.819 20.2657 143.819 19.9817C143.819 19.6031 143.39 19.2718 142.619 18.9878C142.276 18.8931 141.976 18.7985 141.676 18.8458Z" stroke="#C499F7"/>
<path d="M169.567 26.939C169.567 27.9802 169.91 28.5955 170.51 28.6428C171.238 28.6902 172.566 27.8383 174.451 25.9924C174.537 25.8978 174.58 25.8505 174.622 25.8031C175.394 25.0459 176.251 23.8626 177.107 22.2061C177.536 21.4016 178.05 20.7863 178.564 20.3603C180.963 18.4672 184.391 17.4733 188.761 17.5206C191.631 17.5206 193.173 18.1359 193.131 19.0825C193.131 19.6031 192.702 20.2657 191.974 20.9283C191.503 21.4016 189.746 22.4428 186.747 23.8626C184.819 24.8566 183.234 25.7085 182.034 26.4184C179.549 27.9329 178.264 29.1161 178.264 29.9207C178.264 30.252 178.735 30.7253 179.635 31.2932C181.477 32.4765 182.591 33.281 182.891 33.5177C185.076 35.1269 187.304 38.3452 189.617 43.5987C189.875 44.2613 190.217 45.0185 190.56 45.8705C191.074 47.1483 192.102 48.5682 193.559 50.2247C194.844 51.6919 195.658 53.0171 196.001 53.9637C196.301 54.8156 196.515 55.7621 196.515 56.756C196.515 60.069 194.759 60.8736 191.203 59.7377C190.089 59.3591 188.761 58.8385 187.133 58.1286C182.377 56.0934 179.335 54.6263 178.093 52.9224C177.45 52.0232 177.15 50.9819 177.15 49.7987C177.15 44.4033 176.508 40.2384 175.265 37.3513C174.58 35.7421 173.68 34.8429 172.695 34.7482C171.623 34.6062 170.809 35.1269 170.21 36.2627C169.91 36.8307 169.781 37.446 169.781 38.1559C169.781 39.1498 169.91 40.049 170.124 40.8536C170.51 42.2735 171.067 44.072 171.752 46.1071C172.438 48.2369 172.737 49.7041 172.737 50.414C172.737 52.4965 170.253 53.0171 165.24 52.6385C164.854 52.6385 164.469 52.5911 164.083 52.5438C157.4 52.0232 154.015 50.6506 153.972 47.5743C153.972 46.3437 154.615 44.7819 155.815 42.9361C156.928 41.2323 157.614 39.9071 157.914 38.8658C158.771 35.9788 159.199 33.1864 159.199 30.5833C159.199 28.6902 158.942 26.8444 158.428 25.0932C158.214 24.3359 157.528 23.2 156.371 21.6855C155.772 20.8336 155.472 20.2183 155.472 19.7924C155.472 18.7038 157.057 17.9939 160.227 17.6153C161.47 17.426 162.798 17.3786 164.126 17.3786C167.982 17.3786 170.638 17.8519 172.052 18.8931C172.48 19.2718 172.737 19.6504 172.78 20.029C172.78 20.455 172.266 21.4016 171.281 22.7741C170.124 24.3359 169.524 25.7558 169.567 26.8917V26.939Z" stroke="#C499F7"/>
<path d="M62.4602 118.236C62.4602 126.045 63.06 133.239 64.2596 138.445C64.6023 140.007 65.6734 142.326 67.4728 145.261C68.9723 147.722 69.7435 149.851 69.7435 151.65C69.7006 156.335 64.8594 159.459 55.5625 157.329C46.1799 155.152 41.4244 149.331 41.3816 144.456C41.3816 142.515 42.2384 140.528 43.9521 138.493C45.4945 136.647 46.4798 134.896 46.9083 133.428C47.7223 130.399 48.1507 125.525 48.1507 119.182C48.1507 114.213 47.808 109.575 47.0796 105.221C46.6512 103.138 45.88 101.813 44.809 101.245C43.0096 100.298 40.5247 101.008 37.5685 102.617C37.5257 102.617 37.4829 102.665 37.3972 102.712C36.0262 103.801 34.8695 103.99 33.7984 103.375C33.4556 103.185 33.0701 102.901 32.7273 102.57C30.628 100.677 29.4284 97.5533 29.0857 93.625C29.0428 93.0098 29 92.3945 29 91.8265C29 87.7563 30.0711 85.2005 32.256 83.6387C33.6699 82.6921 35.0408 82.5501 36.4546 83.3547C51.4496 92.7258 58.9471 93.483 73.942 92.4891C75.87 92.3472 77.6694 94.0983 79.2974 97.5533C80.754 100.582 81.4824 103.706 81.4824 107.114C81.4824 111.231 80.5827 113.929 78.7404 115.207C78.3977 115.396 78.0121 115.538 77.6694 115.633C76.2127 115.917 74.7989 115.112 73.4708 113.124C73.2994 112.888 73.1709 112.651 72.9995 112.414C71.7571 110.616 70.2147 109.054 68.4153 107.729C67.2586 106.877 66.316 106.451 65.5449 106.404C63.5312 106.782 62.503 110.758 62.503 118.236H62.4602ZM71.7142 94.8556C70.8574 94.9029 70.3432 95.3762 70.3004 96.0861C70.3004 96.9854 70.8574 97.79 72.0141 98.3106C72.4854 98.5472 72.9567 98.6892 73.3422 98.6419C74.1991 98.5472 74.7132 98.0266 74.756 97.364C74.756 96.4647 74.1991 95.7548 73.0423 95.1869C72.5711 94.9502 72.0998 94.8082 71.7142 94.8556Z" stroke="#C499F7"/>
<path d="M134.05 107.492C134.393 109.291 135.507 111.515 137.306 114.308C138.849 116.674 139.663 119.04 139.663 121.218C139.62 127.039 134.779 132.056 125.396 136.883C119.655 139.818 115.842 140.244 114.086 138.067C113.572 137.451 113.315 136.599 113.315 135.558C113.315 134.706 113.786 132.813 114.728 129.879C115.842 126.329 116.571 122.637 116.999 118.993C117.256 116.911 117.385 115.207 117.385 114.024C117.385 110.521 116.142 109.196 113.657 109.953C112.886 110.237 112.029 110.663 111.087 111.231C107.488 113.361 105.431 115.964 104.917 119.182C104.832 119.94 104.746 120.697 104.746 121.502C104.746 122.874 104.917 124.389 105.132 125.95C105.603 129.169 106.503 132.293 108.002 135.274C108.516 136.315 108.773 137.309 108.773 138.161C108.773 140.906 107.188 143.888 104.018 146.917C102.047 148.763 99.6905 150.372 96.9914 151.65C96.8629 151.697 96.8201 151.745 96.6915 151.792C87.2233 156.288 82.4677 154.774 82.4249 149.757C82.4249 147.769 83.2818 145.024 84.9955 141.332C86.5806 137.877 87.6089 134.896 88.0373 132.813C89.0227 127.749 89.5368 122.022 89.5368 115.538C89.5368 111.847 89.2797 108.486 88.6799 105.599C88.38 104.227 87.3947 102.239 85.8095 99.5411C84.9955 98.0739 84.567 96.6541 84.567 95.6602C84.567 93.2464 86.8806 90.9746 91.5076 88.1349C93.1784 87.141 94.8921 86.1944 96.7344 85.3899C102.304 82.8814 106.031 82.0295 107.959 82.9761C108.516 83.402 108.859 83.97 108.902 84.6326C108.902 85.4845 108.173 87.6616 106.802 91.1166C105.174 95.1395 104.403 98.3106 104.403 100.535C104.403 104.085 106.16 105.079 109.716 103.517C110.187 103.327 110.658 103.043 111.13 102.807C115.285 99.8724 117.684 96.4647 117.813 93.0571C117.899 90.9746 116.87 88.5609 115.028 86.0525C113.871 84.4906 113.315 83.2601 113.315 82.4081C113.315 80.231 115.628 77.5333 120.255 74.4569C121.926 73.3684 123.64 72.3745 125.482 71.5226C131.009 68.9195 134.736 68.1622 136.707 69.0141C137.349 69.2981 137.692 69.8187 137.735 70.4813C137.735 71.2859 137.049 73.1317 135.721 76.0188C134.565 78.4799 133.836 80.5623 133.536 82.1242C133.108 84.3013 132.894 87.2357 132.894 90.8326C132.894 97.7426 133.322 103.327 134.136 107.492H134.05ZM101.704 86.1944C100.59 86.7624 99.9476 87.567 99.9047 88.3242C99.9047 89.0815 100.505 89.4128 101.704 89.1761C102.047 89.1288 102.432 88.9868 102.732 88.8448C103.846 88.2296 104.489 87.4723 104.532 86.6677C104.532 85.9105 103.932 85.6265 102.732 85.8631C102.39 85.9105 102.004 86.0051 101.704 86.1944ZM130.366 71.9012C129.166 72.4691 128.524 73.2264 128.481 73.9363C128.481 74.5989 129.081 74.8356 130.28 74.5989C130.623 74.5516 131.009 74.4096 131.308 74.2676C132.508 73.6997 133.151 72.9898 133.194 72.2798C133.194 71.6172 132.594 71.3806 131.394 71.5699C131.051 71.6172 130.666 71.7119 130.366 71.9012Z" stroke="#C499F7"/>
<path d="M149.045 100.677C150.245 94.8082 150.845 89.5074 150.845 84.112C150.845 81.1303 150.588 78.5745 150.074 76.4921C149.774 75.1669 148.788 73.3211 147.203 71.002C146.389 69.7714 145.961 68.8248 145.961 68.1149C145.961 65.6065 150.074 63.382 158.214 63.2874C169.096 63.1927 174.537 63.95 185.419 69.2035C187.347 70.15 189.146 72.5638 190.774 76.7287C192.188 80.2784 192.873 83.6387 192.873 86.4784C192.873 90.2174 191.931 91.5426 190.089 90.738C189.789 90.596 189.446 90.454 189.146 90.2174C187.732 89.2235 186.361 87.425 184.948 84.9639C183.277 82.0295 181.991 80.1837 181.135 79.2371C179.378 77.2967 177.236 75.9241 174.751 75.2142C171.495 74.2676 168.839 75.0249 166.868 77.1073C165.883 78.1486 165.368 79.2371 165.368 80.3257C165.368 81.8402 166.268 82.7868 168.11 83.3074C168.41 83.4021 168.753 83.4967 169.053 83.544C170.253 83.7334 171.709 83.402 173.509 82.6448C174.451 82.2662 175.137 82.1715 175.608 82.3135C176.893 82.7394 177.836 84.254 178.393 86.857C178.607 87.8983 178.693 88.9395 178.693 89.9807C178.693 93.1044 178.007 94.9029 176.679 95.4709C176.336 95.6128 175.951 95.5655 175.608 95.4709C175.137 95.3289 174.237 94.4296 172.866 93.1517C171.495 91.8265 170.167 91.0693 169.053 90.9273C167.039 90.6433 165.968 91.4952 165.925 93.0571C165.925 94.8556 166.825 97.364 168.667 100.014C169.91 101.624 171.067 102.617 172.095 102.901C175.179 103.706 178.007 103.043 180.363 100.961C180.62 100.772 180.963 100.44 181.392 99.9671C183.105 98.4526 184.562 98.4526 185.762 98.8312C186.276 99.0205 186.833 99.3045 187.39 99.7304C191.374 102.617 193.688 107.35 194.244 113.219C194.33 114.166 194.416 115.065 194.416 115.964C194.416 121.36 193.131 125.288 190.603 128.506C188.289 131.393 185.762 132.434 183.105 131.251C172.994 126.471 167.896 125.856 157.785 126.187C148.317 126.424 143.561 124.909 143.519 119.135C143.519 116.816 144.376 113.598 146.089 109.575C147.674 105.836 148.703 102.949 149.131 100.819L149.045 100.677ZM183.191 69.8187C182.377 69.4874 181.906 69.6294 181.863 70.15C181.863 70.8126 182.42 71.6646 183.577 72.6111C184.048 73.0371 184.476 73.3684 184.905 73.5577C185.719 73.9363 186.19 73.8417 186.233 73.3211C186.233 72.6585 185.676 71.7119 184.519 70.718C184.048 70.292 183.619 69.9607 183.191 69.8187Z" stroke="#C499F7"/>
<path d="M76.7268 196.612C77.0267 197.795 77.9264 199.452 79.4688 201.582C80.754 203.38 81.4395 204.895 81.4395 206.078C81.3967 209.296 77.3695 210.905 69.5292 210.905C64.7308 210.905 61.5605 210.006 60.1038 208.066C59.6754 207.498 59.4612 206.93 59.4612 206.267C59.4612 205.747 59.8896 204.753 60.6179 203.333C61.5176 201.582 62.1603 199.641 62.503 197.559C62.7172 196.375 62.8458 195.382 62.8458 194.624C62.8458 192.447 61.8175 191.027 59.7182 190.412C59.0756 190.223 58.3473 190.128 57.5761 190.033C54.5771 189.702 52.8634 190.365 52.435 192.211C52.3493 192.637 52.3065 193.157 52.3065 193.678C52.3065 194.577 52.435 195.666 52.6492 196.801C53.0348 199.121 53.806 201.629 55.0484 204.09C55.4768 204.989 55.691 205.699 55.691 206.22C55.691 207.971 54.3629 209.249 51.7067 210.148C50.0358 210.669 48.1079 210.953 45.8372 210.953H45.5801C37.6971 210.953 33.6699 208.728 33.6699 204.421C33.6699 202.717 34.3982 200.635 35.812 198.316C37.1401 196.186 37.997 194.482 38.3397 193.157C39.1537 189.844 39.5822 185.963 39.5822 181.325C39.5822 178.722 39.3679 176.166 38.8538 173.752C38.5968 172.569 37.7828 170.581 36.4546 167.552C35.7692 165.943 35.4264 164.76 35.4264 164.05C35.4264 162.346 37.3543 162.441 41.2102 163.624C42.5811 164.05 44.0378 164.571 45.5801 165.186C50.2072 166.984 53.3347 168.31 54.9627 169.919C55.434 170.487 55.7339 171.007 55.7339 171.481C55.7339 172.049 55.1341 173.137 53.9773 174.699C52.6492 176.497 51.9637 178.154 51.9637 179.621C51.9637 181.94 53.4204 183.597 56.3765 184.307C56.7621 184.401 57.1477 184.449 57.5333 184.543C61.0035 184.638 63.0171 183.36 63.1457 181.278C63.2314 179.905 62.3745 177.87 60.7893 175.362C59.8468 173.8 59.3755 172.711 59.3755 172.143C59.3755 170.676 61.3034 170.013 65.1593 169.729C66.5302 169.635 67.9869 169.587 69.5292 169.587C74.1134 169.587 77.2409 169.919 78.9118 171.102C79.4259 171.481 79.7258 171.954 79.7686 172.474C79.7686 173.09 79.2117 174.368 78.0549 176.071C77.1124 177.586 76.4698 178.817 76.2127 179.81C75.87 181.23 75.6986 183.171 75.6986 185.585C75.6986 190.223 76.0413 193.867 76.7268 196.612ZM49.693 168.736C48.7505 168.499 48.2364 168.641 48.1935 169.114C48.1935 169.635 48.7077 170.203 49.693 170.723C49.9929 170.913 50.2928 171.007 50.5499 171.102C51.4924 171.339 52.0066 171.102 52.0494 170.676C52.0494 170.203 51.5353 169.682 50.5499 169.162C50.25 169.02 49.9501 168.878 49.693 168.783V168.736ZM73.6421 171.528C72.6568 171.575 72.0998 171.907 72.0998 172.38C72.0998 172.853 72.6139 173.232 73.5993 173.468C73.8992 173.516 74.1991 173.563 74.4562 173.563C75.4415 173.516 75.9985 173.137 75.9985 172.664C75.9985 172.191 75.4844 171.812 74.499 171.623C74.1991 171.575 73.8992 171.528 73.6421 171.528Z" stroke="#C499F7"/>
<path d="M89.751 177.823C89.494 176.829 88.6799 175.504 87.3518 173.894C86.6663 173.042 86.3236 172.333 86.3236 171.765C86.3236 170.108 88.2515 168.262 92.1074 166.085C93.4783 165.328 94.9778 164.571 96.5202 163.908C101.104 161.92 104.232 161.258 105.817 162.157C106.374 162.441 106.674 162.914 106.674 163.577C106.674 164.239 106.117 165.754 105.046 168.026C104.06 170.108 103.418 171.765 103.161 173.09C102.775 174.983 102.561 177.349 102.561 180.189C102.561 184.638 103.032 189.04 103.932 193.488C104.018 193.82 104.746 195.145 106.16 197.559C107.702 200.256 108.516 202.67 108.516 204.516C108.473 208.776 104.446 211 96.6487 211C88.8513 211 84.8241 209.391 84.7813 206.172C84.7813 204.705 85.8523 202.386 87.9516 198.742C88.7656 197.275 89.2369 196.281 89.3654 195.808C90.0938 192.542 90.4793 188.945 90.4793 185.159C90.4793 182.272 90.2223 179.81 89.7082 177.87L89.751 177.823ZM100.633 164.429C99.6905 164.855 99.1764 165.423 99.1336 165.99C99.1336 166.558 99.6477 166.748 100.633 166.606C100.933 166.606 101.233 166.511 101.49 166.369C102.39 165.99 102.904 165.423 102.904 164.807C102.904 164.192 102.39 163.955 101.404 164.097C101.147 164.145 100.89 164.239 100.633 164.381V164.429Z" stroke="#C499F7"/>
<path d="M116.314 189.56C117.299 184.827 117.813 179.858 117.813 174.746C117.813 171.954 117.599 169.54 117.17 167.6C116.913 166.369 116.099 164.76 114.771 162.914C114.086 161.92 113.743 161.068 113.743 160.406C113.743 158.465 115.671 156.193 119.527 153.685C120.898 152.786 122.397 151.981 123.94 151.271C128.481 149.189 131.608 148.716 133.322 149.851C133.836 150.325 134.136 150.94 134.179 151.65C134.179 152.36 133.622 154.064 132.551 156.667C131.566 159.081 130.88 161.068 130.58 162.677C130.237 164.618 130.066 167.505 130.066 171.339C130.066 178.533 130.537 183.36 131.48 185.537C132.337 187.478 133.751 188.424 135.507 188.14C138.12 187.714 140.434 185.537 142.405 182.414C142.619 182.13 142.919 181.609 143.262 180.946C144.675 178.627 145.918 177.207 146.903 176.687C147.332 176.497 147.803 176.403 148.274 176.355C151.616 176.261 153.544 178.911 154.015 184.307C154.101 185.159 154.144 186.058 154.144 186.957C154.144 192.447 153.073 197.748 150.973 202.859C149.045 207.45 146.946 209.864 144.718 209.911C136.235 209.911 132.037 210.006 123.554 210.053C115.671 210.053 111.644 207.829 111.644 203.427C111.644 201.676 112.372 199.31 113.786 196.281C115.114 193.488 115.971 191.169 116.314 189.465V189.56Z" stroke="#C499F7"/>
<path d="M161.17 184.165C162.155 178.627 162.669 172.853 162.669 166.795C162.669 163.435 162.455 160.5 162.027 157.945C161.77 156.383 160.956 154.016 159.628 151.082C158.942 149.52 158.599 148.337 158.599 147.532C158.599 145.166 160.527 143.509 164.383 142.989C165.754 142.799 167.254 142.847 168.796 143.083C173.337 143.746 176.465 145.639 178.178 148.053C178.693 148.952 178.992 149.804 179.035 150.561C179.035 151.319 178.478 152.691 177.407 154.726C176.422 156.619 175.736 158.371 175.436 159.885C175.094 161.731 174.922 164.76 174.922 168.925C174.922 176.639 175.394 181.988 176.336 184.591C177.193 186.957 178.607 188.33 180.363 188.566C182.977 188.945 185.29 187.856 187.261 185.49C187.475 185.253 187.775 184.875 188.118 184.401C189.532 182.697 190.774 181.846 191.76 181.704C192.188 181.704 192.659 181.704 193.131 181.893C196.472 182.981 198.4 185.916 198.871 190.317C198.957 191.027 199 191.737 199 192.447C199 196.754 197.929 200.635 195.83 204.516C193.902 208.066 191.802 210.053 189.575 210.101C181.092 210.053 176.893 210.006 168.41 210.006C160.527 209.911 156.5 206.882 156.5 200.966C156.5 198.6 157.228 195.571 158.642 192.021C159.97 188.756 160.827 186.152 161.17 184.165Z" stroke="#C499F7"/>
</g>
<path d="M67.9012 55.6675C68.1583 57.4186 68.9294 59.8324 70.2147 62.9088C71.3286 65.5118 71.8856 67.7363 71.8856 69.4874C71.8856 74.2203 68.4153 76.8707 61.7319 76.2081C57.619 75.7821 54.9627 73.8417 53.6774 70.9073C53.2918 70.0554 53.1205 69.2035 53.1205 68.3042C53.1205 67.5943 53.4632 66.2691 54.1058 64.3286C54.877 62.0095 55.3911 59.2645 55.7339 56.3774C55.9052 54.7209 55.9909 53.3484 55.9909 52.3071C55.9909 49.2781 55.0912 47.3376 53.3347 46.5331C52.7777 46.2964 52.1779 46.1544 51.4924 46.0598C48.9219 45.6811 47.4652 46.675 47.1225 48.9941C47.0368 49.5621 46.994 50.1774 46.994 50.84C46.994 51.9758 47.1225 53.3484 47.251 54.8629C47.5938 57.8446 48.2364 61.1576 49.3075 64.6599C49.693 65.8905 49.8644 66.8844 49.8644 67.5943C49.8644 69.9607 48.7505 71.4752 46.4798 71.9485C45.066 72.1852 43.3952 71.9485 41.4672 71.1913C41.3816 71.1913 41.3387 71.1439 41.253 71.0966C34.5267 68.2569 31.0993 63.8553 31.0993 59.8324C31.0993 58.2232 31.6991 56.5667 32.9415 54.6263C34.0983 52.8278 34.8266 51.1713 35.1265 49.7987C35.812 46.4384 36.1976 42.2735 36.1976 37.3986C36.1976 34.6536 36.0262 32.0032 35.5978 29.6841C35.3836 28.5482 34.6981 26.7024 33.5413 24.2886C32.9415 22.9634 32.6416 22.0168 32.6416 21.3542C32.6416 19.6977 34.2697 18.6565 37.5685 18.0412C38.7681 17.8046 40.0106 17.7099 41.2959 17.7099C45.2374 17.7099 47.9365 18.5618 49.2646 20.2183C49.6502 20.8336 49.9073 21.4489 49.9501 22.0168C49.9501 22.7268 49.436 24.2886 48.4506 26.5131C47.2939 29.1161 46.7369 31.2932 46.7369 33.1391C46.7369 36.0734 47.9793 37.8719 50.5071 38.5818C50.8498 38.6765 51.1925 38.7238 51.4924 38.7712C54.4486 38.6292 56.1623 36.878 56.248 33.9436C56.3337 32.0505 55.5625 29.3528 54.2344 26.1818C53.4204 24.194 53.0348 22.8687 53.0348 22.1115C53.0348 20.171 54.6628 18.8931 57.9617 18.1832C59.1613 17.9466 60.4037 17.8046 61.689 17.8046C65.6305 17.8046 68.2868 18.7038 69.6578 20.455C70.0862 21.0229 70.3432 21.6855 70.3861 22.3955C70.3861 23.2 69.9148 24.8092 68.9294 27.081C68.1154 29.0215 67.6013 30.678 67.3871 32.0032C67.0872 33.9436 66.9587 36.594 66.9587 39.9544C66.9587 46.4384 67.2586 51.5972 67.8584 55.5728L67.9012 55.6675ZM44.8947 20.2657C44.0806 20.2657 43.6522 20.6443 43.6094 21.2596C43.6094 21.8748 44.0378 22.3481 44.8947 22.6794C45.1517 22.7741 45.4088 22.8687 45.623 22.8687C46.3942 22.8687 46.8654 22.4901 46.9083 21.8748C46.9083 21.2596 46.4798 20.739 45.623 20.455C45.3659 20.3603 45.1089 20.313 44.8947 20.313V20.2657ZM65.3306 20.597C64.5166 20.597 64.0025 21.0229 64.0025 21.6855C64.0025 22.3481 64.431 22.8687 65.2878 23.2C65.5449 23.2947 65.8019 23.3894 66.0161 23.3894C66.8301 23.3894 67.3443 22.9634 67.3443 22.3008C67.3443 21.6382 66.9158 21.1176 66.059 20.7863C65.8019 20.6916 65.5449 20.597 65.3306 20.6443V20.597Z" fill="#482C69"/>
<path d="M107.531 44.8766C108.602 48.3789 110.273 50.7926 112.586 52.0232C114.086 52.8278 114.985 53.3484 115.2 53.585C115.971 54.3423 116.356 55.5728 116.356 57.2293C116.356 60.353 114.985 62.8614 112.243 64.7546C111.001 65.6065 109.116 66.6004 106.631 67.6416C101.876 69.6294 98.9194 69.9134 97.6341 68.5409C96.9914 67.7836 96.6915 66.6004 96.6915 64.9912C96.6915 64.4706 96.6915 63.524 96.7344 62.1515C96.7772 60.353 96.8629 59.0278 96.8629 58.2706C96.8629 55.2415 96.306 53.585 95.1492 53.2537C94.7208 53.1591 94.2067 53.1591 93.6925 53.2537C91.122 53.9636 89.7939 57.182 89.7939 62.7194C89.7939 63.0507 89.7939 63.6187 89.7939 64.2813C89.7939 64.9439 89.8367 65.5118 89.8367 65.8431C89.8367 69.9134 88.5514 72.8951 86.0237 74.7409C84.8241 75.5928 83.1961 75.8768 81.2681 76.0661C77.3695 76.4447 75.0131 75.2615 74.1563 72.8004C73.8135 71.8065 73.6421 70.718 73.6421 69.3928C73.6421 67.263 74.1991 65.7011 75.313 64.6599C75.4844 64.5179 75.8271 64.2813 76.2556 63.95C78.0121 62.6248 79.2974 61.0156 80.1542 59.1698C80.4113 58.6019 80.6255 58.0812 80.8397 57.5606C82.7248 52.6384 84.5242 46.8644 86.1094 39.7651C87.0948 35.4582 87.566 32.3345 87.566 30.4887C87.566 28.8795 87.1376 27.081 86.2807 24.9512C85.7238 23.626 85.4667 22.4901 85.4667 21.6382C85.4667 19.8397 87.3947 18.5145 91.2505 17.8519C92.4501 17.6153 93.6497 17.5206 94.8493 17.5206C98.748 17.5206 101.618 18.2779 103.504 19.6504C104.189 20.171 104.617 20.7863 104.789 21.4489C104.789 21.6855 104.832 21.9695 104.832 22.3955C104.832 31.2932 105.731 38.8658 107.531 44.7346V44.8766ZM92.2787 44.072C92.2787 45.6338 92.8785 46.4384 93.7354 46.2491C94.8065 46.0124 95.4063 44.7346 95.4063 42.7941C95.4063 38.4872 94.7636 36.0734 94.0353 36.1208C93.4355 36.1208 92.8785 37.6353 92.5358 40.333C92.4073 41.5162 92.2787 42.8414 92.3216 44.1193L92.2787 44.072ZM99.4335 20.2183C98.6195 20.2657 98.1053 20.6443 98.1053 21.2596C98.1053 21.8748 98.5338 22.3008 99.3906 22.5848C99.6477 22.6794 99.9047 22.7268 100.119 22.6794C100.933 22.6321 101.361 22.2061 101.404 21.6382C101.404 21.0229 100.976 20.5496 100.119 20.2657C99.9047 20.2657 99.6905 20.2183 99.4335 20.2183Z" fill="#482C69"/>
<path d="M147.76 22.5848C147.76 24.5726 147.203 26.1818 146.046 27.4596C145.361 28.1222 144.633 28.5009 143.861 28.5482C143.647 28.5482 143.39 28.5482 143.133 28.4535C142.448 28.3115 141.762 27.6963 141.034 26.5604C140.22 25.3298 139.449 24.5726 138.763 24.3359C138.335 24.2413 137.949 24.1939 137.478 24.2413C135.721 24.4306 134.222 25.7558 133.022 28.5009C132.08 30.678 131.566 32.9971 131.566 35.3635C131.566 39.2445 132.722 41.4216 134.993 41.8475C135.721 41.9895 136.535 41.9422 137.435 41.7055C138.72 41.3742 140.091 40.2384 141.505 38.4399C142.833 36.736 143.69 35.9314 144.118 35.6475C144.932 35.0795 145.746 34.7956 146.603 34.7482C148.488 34.7009 149.859 35.6948 150.716 37.7299C151.145 38.8185 151.402 39.9544 151.402 41.2323C151.402 46.9117 148.788 50.6033 143.519 52.5438C141.805 53.2064 139.791 54.2003 137.435 55.0522C129.638 57.8446 124.111 57.5606 120.855 53.0171C119.055 50.5087 118.156 47.0537 118.156 42.7468C118.156 36.7834 119.741 30.9619 122.74 25.9924C125.91 20.7863 129.895 18.0886 134.736 17.3313C135.636 17.0947 136.578 17 137.521 17C138.035 17 139.663 17.1893 142.362 17.4733C143.133 17.5679 143.776 17.6153 144.29 17.6153C144.504 17.6153 144.761 17.6153 145.018 17.7099C146.346 18.0412 147.203 19.1771 147.589 21.1649C147.717 21.6382 147.76 22.1588 147.76 22.6321V22.5848ZM141.676 18.8458C141.077 18.8458 140.734 19.0825 140.734 19.4138C140.734 19.7924 141.119 20.1237 141.934 20.3603C142.276 20.455 142.576 20.5023 142.876 20.5023C143.476 20.5023 143.819 20.2657 143.819 19.9817C143.819 19.6031 143.39 19.2718 142.619 18.9878C142.276 18.8931 141.976 18.7985 141.676 18.8458Z" fill="#482C69"/>
<path d="M169.567 26.939C169.567 27.9802 169.91 28.5955 170.51 28.6428C171.238 28.6902 172.566 27.8383 174.451 25.9924C174.537 25.8978 174.58 25.8505 174.622 25.8031C175.394 25.0459 176.251 23.8626 177.107 22.2061C177.536 21.4016 178.05 20.7863 178.564 20.3603C180.963 18.4672 184.391 17.4733 188.761 17.5206C191.631 17.5206 193.173 18.1359 193.131 19.0825C193.131 19.6031 192.702 20.2657 191.974 20.9283C191.503 21.4016 189.746 22.4428 186.747 23.8626C184.819 24.8566 183.234 25.7085 182.034 26.4184C179.549 27.9329 178.264 29.1161 178.264 29.9207C178.264 30.252 178.735 30.7253 179.635 31.2932C181.477 32.4765 182.591 33.281 182.891 33.5177C185.076 35.1269 187.304 38.3452 189.617 43.5987C189.875 44.2613 190.217 45.0185 190.56 45.8705C191.074 47.1483 192.102 48.5682 193.559 50.2247C194.844 51.6919 195.658 53.0171 196.001 53.9637C196.301 54.8156 196.515 55.7621 196.515 56.756C196.515 60.069 194.759 60.8736 191.203 59.7377C190.089 59.3591 188.761 58.8385 187.133 58.1286C182.377 56.0934 179.335 54.6263 178.093 52.9224C177.45 52.0232 177.15 50.9819 177.15 49.7987C177.15 44.4033 176.508 40.2384 175.265 37.3513C174.58 35.7421 173.68 34.8429 172.695 34.7482C171.624 34.6062 170.809 35.1269 170.21 36.2627C169.91 36.8307 169.781 37.446 169.781 38.1559C169.781 39.1498 169.91 40.049 170.124 40.8536C170.51 42.2735 171.067 44.072 171.752 46.1071C172.438 48.2369 172.737 49.7041 172.737 50.414C172.737 52.4965 170.253 53.0171 165.24 52.6385C164.854 52.6385 164.469 52.5911 164.083 52.5438C157.4 52.0232 154.015 50.6506 153.972 47.5743C153.972 46.3437 154.615 44.7819 155.815 42.9361C156.928 41.2323 157.614 39.9071 157.914 38.8658C158.771 35.9788 159.199 33.1864 159.199 30.5833C159.199 28.6902 158.942 26.8444 158.428 25.0932C158.214 24.3359 157.528 23.2 156.371 21.6855C155.772 20.8336 155.472 20.2183 155.472 19.7924C155.472 18.7038 157.057 17.9939 160.227 17.6153C161.47 17.426 162.798 17.3786 164.126 17.3786C167.982 17.3786 170.638 17.8519 172.052 18.8931C172.48 19.2718 172.737 19.6504 172.78 20.029C172.78 20.455 172.266 21.4016 171.281 22.7741C170.124 24.3359 169.524 25.7558 169.567 26.8917V26.939Z" fill="#482C69"/>
<path d="M62.4602 118.236C62.4602 126.045 63.06 133.239 64.2596 138.445C64.6023 140.007 65.6734 142.326 67.4728 145.261C68.9723 147.722 69.7435 149.851 69.7435 151.65C69.7006 156.335 64.8594 159.459 55.5625 157.329C46.1799 155.152 41.4244 149.331 41.3816 144.456C41.3816 142.515 42.2384 140.528 43.9521 138.493C45.4945 136.647 46.4798 134.896 46.9083 133.428C47.7223 130.399 48.1507 125.525 48.1507 119.182C48.1507 114.213 47.808 109.575 47.0796 105.221C46.6512 103.138 45.88 101.813 44.809 101.245C43.0096 100.298 40.5247 101.008 37.5685 102.617C37.5257 102.617 37.4829 102.665 37.3972 102.712C36.0262 103.801 34.8695 103.99 33.7984 103.375C33.4556 103.185 33.0701 102.901 32.7273 102.57C30.628 100.677 29.4284 97.5533 29.0857 93.625C29.0428 93.0098 29 92.3945 29 91.8265C29 87.7563 30.0711 85.2005 32.256 83.6387C33.6699 82.6921 35.0408 82.5501 36.4546 83.3547C51.4496 92.7258 58.9471 93.483 73.942 92.4891C75.87 92.3472 77.6694 94.0983 79.2974 97.5533C80.754 100.582 81.4824 103.706 81.4824 107.114C81.4824 111.231 80.5827 113.929 78.7404 115.207C78.3977 115.396 78.0121 115.538 77.6694 115.633C76.2127 115.917 74.7989 115.112 73.4708 113.124C73.2994 112.888 73.1709 112.651 72.9995 112.414C71.7571 110.616 70.2147 109.054 68.4153 107.729C67.2586 106.877 66.316 106.451 65.5449 106.404C63.5313 106.782 62.503 110.758 62.503 118.236H62.4602ZM71.7142 94.8556C70.8574 94.9029 70.3432 95.3762 70.3004 96.0861C70.3004 96.9854 70.8574 97.79 72.0141 98.3106C72.4854 98.5472 72.9567 98.6892 73.3422 98.6419C74.1991 98.5472 74.7132 98.0266 74.7561 97.364C74.7561 96.4647 74.1991 95.7548 73.0423 95.1869C72.5711 94.9502 72.0998 94.8082 71.7142 94.8556Z" fill="#482C69"/>
<path d="M134.05 107.492C134.393 109.291 135.507 111.515 137.306 114.308C138.849 116.674 139.663 119.041 139.663 121.218C139.62 127.039 134.779 132.056 125.396 136.883C119.655 139.818 115.842 140.244 114.086 138.067C113.572 137.451 113.315 136.599 113.315 135.558C113.315 134.706 113.786 132.813 114.728 129.879C115.842 126.329 116.571 122.637 116.999 118.993C117.256 116.911 117.385 115.207 117.385 114.024C117.385 110.521 116.142 109.196 113.657 109.953C112.886 110.237 112.029 110.663 111.087 111.231C107.488 113.361 105.431 115.964 104.917 119.182C104.832 119.94 104.746 120.697 104.746 121.502C104.746 122.874 104.917 124.389 105.132 125.95C105.603 129.169 106.503 132.293 108.002 135.274C108.516 136.315 108.773 137.309 108.773 138.161C108.773 140.906 107.188 143.888 104.018 146.917C102.047 148.763 99.6905 150.372 96.9914 151.65C96.8629 151.697 96.8201 151.745 96.6915 151.792C87.2233 156.288 82.4678 154.774 82.4249 149.757C82.4249 147.769 83.2818 145.024 84.9955 141.332C86.5806 137.877 87.6089 134.896 88.0373 132.813C89.0227 127.749 89.5368 122.022 89.5368 115.538C89.5368 111.847 89.2797 108.486 88.6799 105.599C88.38 104.227 87.3947 102.239 85.8095 99.5411C84.9955 98.0739 84.567 96.6541 84.567 95.6602C84.567 93.2464 86.8806 90.9746 91.5076 88.1349C93.1784 87.141 94.8921 86.1944 96.7344 85.3898C102.304 82.8814 106.031 82.0295 107.959 82.9761C108.516 83.402 108.859 83.97 108.902 84.6326C108.902 85.4845 108.173 87.6616 106.802 91.1166C105.174 95.1395 104.403 98.3106 104.403 100.535C104.403 104.085 106.16 105.079 109.716 103.517C110.187 103.327 110.658 103.043 111.13 102.807C115.285 99.8724 117.684 96.4647 117.813 93.0571C117.899 90.9746 116.87 88.5609 115.028 86.0525C113.871 84.4906 113.315 83.2601 113.315 82.4081C113.315 80.231 115.628 77.5333 120.255 74.4569C121.926 73.3684 123.64 72.3745 125.482 71.5226C131.009 68.9195 134.736 68.1622 136.707 69.0141C137.349 69.2981 137.692 69.8187 137.735 70.4813C137.735 71.2859 137.049 73.1317 135.721 76.0188C134.565 78.4799 133.836 80.5623 133.536 82.1242C133.108 84.3013 132.894 87.2357 132.894 90.8326C132.894 97.7426 133.322 103.327 134.136 107.492H134.05ZM101.704 86.1944C100.59 86.7624 99.9476 87.567 99.9047 88.3242C99.9047 89.0815 100.505 89.4128 101.704 89.1761C102.047 89.1288 102.432 88.9868 102.732 88.8448C103.846 88.2296 104.489 87.4723 104.532 86.6677C104.532 85.9105 103.932 85.6265 102.732 85.8631C102.39 85.9105 102.004 86.0051 101.704 86.1944ZM130.366 71.9012C129.166 72.4691 128.524 73.2264 128.481 73.9363C128.481 74.5989 129.081 74.8356 130.28 74.5989C130.623 74.5516 131.009 74.4096 131.308 74.2676C132.508 73.6997 133.151 72.9898 133.194 72.2798C133.194 71.6172 132.594 71.3806 131.394 71.5699C131.051 71.6172 130.666 71.7119 130.366 71.9012Z" fill="#482C69"/>
<path d="M149.045 100.677C150.245 94.8082 150.845 89.5074 150.845 84.112C150.845 81.1303 150.588 78.5745 150.074 76.4921C149.774 75.1669 148.788 73.3211 147.203 71.002C146.389 69.7714 145.961 68.8248 145.961 68.1149C145.961 65.6065 150.074 63.382 158.214 63.2874C169.096 63.1927 174.537 63.95 185.419 69.2035C187.347 70.15 189.146 72.5638 190.774 76.7287C192.188 80.2784 192.873 83.6387 192.873 86.4784C192.873 90.2174 191.931 91.5426 190.089 90.738C189.789 90.596 189.446 90.454 189.146 90.2174C187.732 89.2235 186.361 87.425 184.948 84.9639C183.277 82.0295 181.991 80.1837 181.135 79.2371C179.378 77.2967 177.236 75.9241 174.751 75.2142C171.495 74.2676 168.839 75.0249 166.868 77.1073C165.883 78.1486 165.368 79.2371 165.368 80.3257C165.368 81.8402 166.268 82.7868 168.11 83.3074C168.41 83.4021 168.753 83.4967 169.053 83.544C170.253 83.7334 171.709 83.402 173.509 82.6448C174.451 82.2662 175.137 82.1715 175.608 82.3135C176.893 82.7394 177.836 84.254 178.393 86.857C178.607 87.8983 178.693 88.9395 178.693 89.9807C178.693 93.1044 178.007 94.9029 176.679 95.4708C176.336 95.6128 175.951 95.5655 175.608 95.4708C175.137 95.3289 174.237 94.4296 172.866 93.1517C171.495 91.8265 170.167 91.0693 169.053 90.9273C167.039 90.6433 165.968 91.4952 165.925 93.0571C165.925 94.8556 166.825 97.364 168.667 100.014C169.91 101.624 171.067 102.617 172.095 102.901C175.179 103.706 178.007 103.043 180.363 100.961C180.62 100.772 180.963 100.44 181.392 99.9671C183.105 98.4526 184.562 98.4526 185.762 98.8312C186.276 99.0205 186.833 99.3045 187.39 99.7304C191.374 102.617 193.688 107.35 194.244 113.219C194.33 114.166 194.416 115.065 194.416 115.964C194.416 121.36 193.131 125.288 190.603 128.506C188.289 131.393 185.762 132.434 183.105 131.251C172.994 126.471 167.896 125.856 157.785 126.187C148.317 126.424 143.561 124.909 143.519 119.135C143.519 116.816 144.376 113.598 146.089 109.575C147.674 105.836 148.703 102.949 149.131 100.819L149.045 100.677ZM183.191 69.8187C182.377 69.4874 181.906 69.6294 181.863 70.15C181.863 70.8126 182.42 71.6646 183.577 72.6111C184.048 73.0371 184.476 73.3684 184.905 73.5577C185.719 73.9363 186.19 73.8417 186.233 73.3211C186.233 72.6585 185.676 71.7119 184.519 70.718C184.048 70.292 183.619 69.9607 183.191 69.8187Z" fill="#482C69"/>
<path d="M76.7268 196.612C77.0267 197.795 77.9264 199.452 79.4688 201.582C80.754 203.38 81.4395 204.895 81.4395 206.078C81.3967 209.296 77.3695 210.905 69.5292 210.905C64.7309 210.905 61.5605 210.006 60.1038 208.066C59.6754 207.498 59.4612 206.93 59.4612 206.267C59.4612 205.747 59.8896 204.753 60.6179 203.333C61.5176 201.582 62.1603 199.641 62.503 197.559C62.7172 196.375 62.8458 195.382 62.8458 194.624C62.8458 192.447 61.8175 191.027 59.7182 190.412C59.0756 190.223 58.3473 190.128 57.5761 190.033C54.5771 189.702 52.8634 190.365 52.435 192.211C52.3493 192.636 52.3065 193.157 52.3065 193.678C52.3065 194.577 52.435 195.666 52.6492 196.801C53.0348 199.121 53.806 201.629 55.0484 204.09C55.4768 204.989 55.691 205.699 55.691 206.22C55.691 207.971 54.3629 209.249 51.7067 210.148C50.0358 210.669 48.1079 210.953 45.8372 210.953H45.5801C37.6971 210.953 33.6699 208.728 33.6699 204.421C33.6699 202.717 34.3982 200.635 35.812 198.316C37.1401 196.186 37.997 194.482 38.3397 193.157C39.1537 189.844 39.5822 185.963 39.5822 181.325C39.5822 178.722 39.3679 176.166 38.8538 173.752C38.5968 172.569 37.7828 170.581 36.4546 167.552C35.7692 165.943 35.4264 164.76 35.4264 164.05C35.4264 162.346 37.3543 162.441 41.2102 163.624C42.5812 164.05 44.0378 164.571 45.5801 165.186C50.2072 166.984 53.3347 168.31 54.9627 169.919C55.434 170.487 55.7339 171.007 55.7339 171.481C55.7339 172.049 55.1341 173.137 53.9773 174.699C52.6492 176.497 51.9637 178.154 51.9637 179.621C51.9637 181.94 53.4204 183.597 56.3765 184.307C56.7621 184.401 57.1477 184.449 57.5333 184.543C61.0035 184.638 63.0171 183.36 63.1457 181.278C63.2314 179.905 62.3745 177.87 60.7893 175.362C59.8468 173.8 59.3755 172.711 59.3755 172.143C59.3755 170.676 61.3034 170.013 65.1593 169.729C66.5302 169.635 67.9869 169.587 69.5292 169.587C74.1134 169.587 77.2409 169.919 78.9118 171.102C79.4259 171.481 79.7258 171.954 79.7687 172.474C79.7687 173.09 79.2117 174.368 78.0549 176.071C77.1124 177.586 76.4698 178.817 76.2127 179.81C75.87 181.23 75.6986 183.171 75.6986 185.585C75.6986 190.223 76.0413 193.867 76.7268 196.612ZM49.693 168.736C48.7505 168.499 48.2364 168.641 48.1936 169.114C48.1936 169.635 48.7077 170.203 49.693 170.723C49.9929 170.913 50.2928 171.007 50.5499 171.102C51.4924 171.339 52.0066 171.102 52.0494 170.676C52.0494 170.203 51.5353 169.682 50.5499 169.162C50.25 169.02 49.9501 168.878 49.693 168.783V168.736ZM73.6421 171.528C72.6568 171.575 72.0998 171.907 72.0998 172.38C72.0998 172.853 72.6139 173.232 73.5993 173.468C73.8992 173.516 74.1991 173.563 74.4562 173.563C75.4415 173.516 75.9985 173.137 75.9985 172.664C75.9985 172.191 75.4844 171.812 74.499 171.623C74.1991 171.575 73.8992 171.528 73.6421 171.528Z" fill="#482C69"/>
<path d="M89.751 177.823C89.494 176.829 88.6799 175.504 87.3518 173.894C86.6663 173.042 86.3236 172.333 86.3236 171.765C86.3236 170.108 88.2515 168.262 92.1074 166.085C93.4783 165.328 94.9778 164.571 96.5202 163.908C101.104 161.92 104.232 161.258 105.817 162.157C106.374 162.441 106.674 162.914 106.674 163.577C106.674 164.239 106.117 165.754 105.046 168.026C104.06 170.108 103.418 171.765 103.161 173.09C102.775 174.983 102.561 177.349 102.561 180.189C102.561 184.638 103.032 189.04 103.932 193.488C104.018 193.82 104.746 195.145 106.16 197.559C107.702 200.256 108.516 202.67 108.516 204.516C108.473 208.776 104.446 211 96.6487 211C88.8513 211 84.8241 209.391 84.7813 206.172C84.7813 204.705 85.8523 202.386 87.9516 198.742C88.7656 197.275 89.2369 196.281 89.3654 195.808C90.0938 192.542 90.4793 188.945 90.4793 185.159C90.4793 182.272 90.2223 179.81 89.7082 177.87L89.751 177.823ZM100.633 164.429C99.6905 164.855 99.1764 165.423 99.1336 165.99C99.1336 166.558 99.6477 166.748 100.633 166.606C100.933 166.606 101.233 166.511 101.49 166.369C102.39 165.99 102.904 165.423 102.904 164.807C102.904 164.192 102.39 163.955 101.404 164.097C101.147 164.145 100.89 164.239 100.633 164.381V164.429Z" fill="#482C69"/>
<path d="M116.314 189.56C117.299 184.827 117.813 179.858 117.813 174.746C117.813 171.954 117.599 169.54 117.17 167.6C116.913 166.369 116.099 164.76 114.771 162.914C114.086 161.92 113.743 161.068 113.743 160.406C113.743 158.465 115.671 156.193 119.527 153.685C120.898 152.786 122.397 151.981 123.94 151.271C128.481 149.189 131.608 148.716 133.322 149.851C133.836 150.325 134.136 150.94 134.179 151.65C134.179 152.36 133.622 154.064 132.551 156.667C131.566 159.081 130.88 161.068 130.58 162.677C130.237 164.618 130.066 167.505 130.066 171.339C130.066 178.533 130.537 183.36 131.48 185.537C132.337 187.478 133.751 188.424 135.507 188.14C138.12 187.714 140.434 185.537 142.405 182.414C142.619 182.13 142.919 181.609 143.262 180.946C144.675 178.627 145.918 177.207 146.903 176.687C147.332 176.497 147.803 176.403 148.274 176.355C151.616 176.261 153.544 178.911 154.015 184.307C154.101 185.159 154.144 186.058 154.144 186.957C154.144 192.447 153.073 197.748 150.973 202.859C149.045 207.45 146.946 209.864 144.718 209.911C136.235 209.911 132.037 210.006 123.554 210.053C115.671 210.053 111.644 207.829 111.644 203.427C111.644 201.676 112.372 199.31 113.786 196.281C115.114 193.488 115.971 191.169 116.314 189.465V189.56Z" fill="#482C69"/>
<path d="M161.17 184.165C162.155 178.627 162.669 172.853 162.669 166.795C162.669 163.435 162.455 160.5 162.027 157.945C161.77 156.383 160.956 154.016 159.628 151.082C158.942 149.52 158.599 148.337 158.599 147.532C158.599 145.166 160.527 143.509 164.383 142.989C165.754 142.799 167.254 142.847 168.796 143.083C173.337 143.746 176.465 145.639 178.178 148.053C178.693 148.952 178.992 149.804 179.035 150.561C179.035 151.319 178.478 152.691 177.407 154.726C176.422 156.619 175.736 158.371 175.437 159.885C175.094 161.731 174.922 164.76 174.922 168.925C174.922 176.639 175.394 181.988 176.336 184.591C177.193 186.957 178.607 188.33 180.363 188.566C182.977 188.945 185.29 187.856 187.261 185.49C187.475 185.253 187.775 184.875 188.118 184.401C189.532 182.697 190.774 181.846 191.76 181.704C192.188 181.704 192.659 181.704 193.131 181.893C196.472 182.981 198.4 185.916 198.871 190.317C198.957 191.027 199 191.737 199 192.447C199 196.754 197.929 200.635 195.83 204.516C193.902 208.066 191.802 210.053 189.575 210.101C181.092 210.053 176.893 210.006 168.41 210.006C160.527 209.911 156.5 206.882 156.5 200.966C156.5 198.6 157.228 195.571 158.642 192.021C159.97 188.756 160.827 186.152 161.17 184.165Z" fill="#482C69"/>
<defs>
<filter id="filter0_f_576_255" x="28.4" y="16.4" width="171.2" height="195.2" filterUnits="userSpaceOnUse" color-interpolation-filters="sRGB">
<feFlood flood-opacity="0" result="BackgroundImageFix"/>
<feBlend mode="normal" in="SourceGraphic" in2="BackgroundImageFix" result="shape"/>
<feGaussianBlur stdDeviation="0.05" result="effect1_foregroundBlur_576_255"/>
</filter>
</defs>
</svg>
