<?xml version="1.0" encoding="utf-8"?>
<svg version="1.1" id="Layer_2_00000108309175700244007200000014824714045985531314_"
	 xmlns="http://www.w3.org/2000/svg" xmlns:xlink="http://www.w3.org/1999/xlink" x="0px" y="0px" viewBox="0 0 39.7 41"
	 style="enable-background:new 0 0 39.7 41;" xml:space="preserve">
<style type="text/css">
	.st0{fill:#C11F25;}
</style>
<g id="Layer_6">
	<g>
		<path class="st0" d="M9.1,8.2c0.1,0.4,0.2,0.9,0.5,1.5c0.3,0.6,0.4,1,0.4,1.4c0,1-0.8,1.6-2.4,1.4c-1-0.1-1.6-0.5-1.9-1.1
			c-0.1-0.2-0.1-0.4-0.1-0.6c0-0.1,0.1-0.4,0.2-0.8c0.2-0.5,0.3-1.1,0.4-1.7c0-0.3,0.1-0.6,0.1-0.9c0-0.6-0.2-1-0.6-1.2
			C5.6,6.2,5.4,6.2,5.3,6.1c-0.6-0.1-0.9,0.1-1,0.6c0,0.1,0,0.2,0,0.4c0,0.2,0,0.5,0.1,0.8c0.1,0.6,0.2,1.3,0.5,2.1
			c0.1,0.3,0.1,0.5,0.1,0.6c0,0.5-0.3,0.8-0.8,0.9c-0.3,0.1-0.7,0-1.2-0.2c0,0,0,0,0,0C1.3,10.8,0.5,9.9,0.5,9
			c0-0.3,0.1-0.7,0.4-1.1c0.3-0.4,0.4-0.7,0.5-1c0.2-0.7,0.2-1.6,0.2-2.6c0-0.6,0-1.1-0.1-1.6c0-0.2-0.2-0.6-0.5-1.1
			C0.9,1.3,0.9,1.1,0.9,0.9c0-0.4,0.4-0.6,1.1-0.7c0.3,0,0.6-0.1,0.9-0.1c0.9,0,1.5,0.2,1.9,0.5c0.1,0.1,0.2,0.3,0.2,0.4
			c0,0.1-0.1,0.5-0.3,0.9C4.3,2.6,4.2,3,4.2,3.4c0,0.6,0.3,1,0.9,1.2c0.1,0,0.2,0,0.2,0c0.7,0,1.1-0.4,1.1-1c0-0.4-0.2-1-0.5-1.6
			C5.7,1.5,5.6,1.2,5.6,1.1c0-0.4,0.4-0.7,1.2-0.8c0.3,0,0.6-0.1,0.9-0.1c0.9,0,1.5,0.2,1.9,0.6C9.6,0.8,9.7,1,9.7,1.1
			c0,0.2-0.1,0.5-0.3,1C9.1,2.5,9,2.9,9,3.2c-0.1,0.4-0.1,1-0.1,1.7C8.9,6.2,8.9,7.3,9.1,8.2L9.1,8.2z M3.7,0.7
			c-0.2,0-0.3,0.1-0.3,0.2c0,0.1,0.1,0.2,0.3,0.3c0.1,0,0.1,0,0.2,0c0.2,0,0.3-0.1,0.3-0.2c0-0.1-0.1-0.2-0.3-0.3
			C3.8,0.7,3.8,0.7,3.7,0.7L3.7,0.7z M8.5,0.8C8.3,0.8,8.2,0.9,8.2,1s0.1,0.2,0.3,0.3c0.1,0,0.1,0,0.2,0C8.8,1.3,9,1.3,9,1.1
			S8.9,0.9,8.7,0.8C8.6,0.8,8.5,0.8,8.5,0.8L8.5,0.8z"/>
		<path class="st0" d="M18.3,5.9c0.2,0.7,0.6,1.2,1.2,1.5c0.4,0.2,0.6,0.3,0.6,0.3c0.2,0.2,0.3,0.4,0.3,0.8c0,0.7-0.3,1.2-1,1.6
			c-0.3,0.2-0.7,0.4-1.3,0.6c-1.1,0.4-1.8,0.5-2.1,0.2c-0.1-0.2-0.2-0.4-0.2-0.8c0-0.1,0-0.3,0-0.6c0-0.4,0-0.7,0-0.8
			c0-0.6-0.1-1-0.4-1.1c-0.1,0-0.2,0-0.3,0c-0.6,0.2-0.9,0.8-0.9,2c0,0.1,0,0.2,0,0.3s0,0.3,0,0.3c0,0.9-0.3,1.5-0.9,1.9
			c-0.3,0.2-0.7,0.2-1.1,0.3c-0.9,0.1-1.5-0.2-1.7-0.7c-0.1-0.2-0.1-0.4-0.1-0.7c0-0.4,0.1-0.8,0.4-1c0,0,0.1-0.1,0.2-0.1
			c0.4-0.3,0.7-0.6,0.9-1c0.1-0.1,0.1-0.2,0.2-0.3c0.4-1,0.9-2.3,1.2-3.8c0.2-0.9,0.3-1.6,0.3-2c0-0.3-0.1-0.7-0.3-1.2
			c-0.1-0.3-0.2-0.5-0.2-0.7c0-0.4,0.4-0.7,1.4-0.8c0.3,0,0.6-0.1,0.8-0.1c0.9,0,1.6,0.2,2,0.4c0.2,0.1,0.3,0.2,0.3,0.4
			c0,0.1,0,0.1,0,0.2C17.7,3,17.9,4.6,18.3,5.9L18.3,5.9z M14.8,5.7c0,0.3,0.1,0.5,0.3,0.5c0.2-0.1,0.4-0.3,0.4-0.7
			c0-0.9-0.1-1.4-0.3-1.4c-0.1,0-0.3,0.3-0.4,0.9C14.8,5.2,14.8,5.5,14.8,5.7L14.8,5.7z M16.5,0.7c-0.2,0-0.3,0.1-0.3,0.2
			s0.1,0.2,0.3,0.3c0.1,0,0.1,0,0.2,0c0.2,0,0.3-0.1,0.3-0.2c0-0.1-0.1-0.2-0.3-0.3C16.6,0.7,16.5,0.7,16.5,0.7z"/>
		<path class="st0" d="M27.7,1.2c0,0.4-0.1,0.8-0.4,1c-0.2,0.1-0.3,0.2-0.5,0.2c0,0-0.1,0-0.2,0c-0.2,0-0.3-0.2-0.5-0.4
			c-0.2-0.3-0.4-0.4-0.5-0.5c-0.1,0-0.2,0-0.3,0c-0.4,0-0.8,0.3-1,0.9c-0.2,0.5-0.3,1-0.3,1.5c0,0.8,0.3,1.3,0.8,1.4
			c0.2,0,0.4,0,0.6,0c0.3-0.1,0.6-0.3,1-0.7c0.3-0.4,0.5-0.5,0.6-0.6c0.2-0.1,0.4-0.2,0.6-0.2c0.4,0,0.8,0.2,1,0.6
			c0.1,0.2,0.2,0.5,0.2,0.7c0,1.2-0.6,2-1.8,2.4c-0.4,0.1-0.9,0.3-1.4,0.5c-1.8,0.6-3.1,0.5-3.9-0.4c-0.4-0.5-0.6-1.3-0.6-2.2
			c0-1.3,0.4-2.5,1.1-3.5c0.7-1.1,1.7-1.7,2.8-1.8C24.9,0,25.1,0,25.3,0c0.1,0,0.5,0,1.1,0.1c0.2,0,0.3,0,0.5,0c0,0,0.1,0,0.2,0
			c0.3,0.1,0.5,0.3,0.6,0.7C27.7,1,27.7,1.1,27.7,1.2L27.7,1.2z M26.3,0.4c-0.1,0-0.2,0.1-0.2,0.1c0,0.1,0.1,0.2,0.3,0.2
			c0.1,0,0.1,0,0.2,0c0.1,0,0.2-0.1,0.2-0.1c0-0.1-0.1-0.2-0.3-0.2C26.4,0.4,26.4,0.4,26.3,0.4z"/>
		<path class="st0" d="M32.8,2.1c0,0.2,0.1,0.3,0.2,0.4c0.2,0,0.5-0.2,0.9-0.6c0,0,0,0,0,0c0.2-0.2,0.4-0.4,0.6-0.8
			c0.1-0.2,0.2-0.3,0.3-0.4c0.6-0.4,1.4-0.6,2.4-0.6c0.7,0,1,0.1,1,0.3c0,0.1-0.1,0.3-0.3,0.4c-0.1,0.1-0.5,0.3-1.2,0.6
			C36.4,1.7,36,1.8,35.7,2c-0.6,0.3-0.9,0.6-0.9,0.7c0,0.1,0.1,0.2,0.3,0.3c0.4,0.2,0.7,0.4,0.8,0.5c0.5,0.3,1,1,1.6,2.1
			c0.1,0.1,0.1,0.3,0.2,0.5c0.1,0.3,0.4,0.6,0.7,0.9c0.3,0.3,0.5,0.6,0.6,0.8c0.1,0.2,0.1,0.4,0.1,0.6c0,0.7-0.4,0.9-1.2,0.6
			c-0.3-0.1-0.6-0.2-1-0.3c-1.1-0.4-1.8-0.7-2.1-1.1c-0.2-0.2-0.2-0.4-0.2-0.7c0-1.1-0.2-2-0.4-2.6C34,4,33.8,3.8,33.5,3.8
			c-0.2,0-0.4,0.1-0.6,0.3c-0.1,0.1-0.1,0.2-0.1,0.4c0,0.2,0,0.4,0.1,0.6c0.1,0.3,0.2,0.7,0.4,1.1c0.2,0.4,0.2,0.8,0.2,0.9
			c0,0.4-0.6,0.6-1.8,0.5c-0.1,0-0.2,0-0.3,0c-1.6-0.1-2.4-0.4-2.4-1c0-0.3,0.1-0.6,0.4-1c0.3-0.4,0.4-0.6,0.5-0.9
			c0.2-0.6,0.3-1.2,0.3-1.8c0-0.4-0.1-0.8-0.2-1.2c0-0.2-0.2-0.4-0.5-0.7c-0.1-0.2-0.2-0.3-0.2-0.4c0-0.2,0.4-0.4,1.1-0.5
			c0.3,0,0.6,0,0.9,0c0.9,0,1.5,0.1,1.9,0.3c0.1,0.1,0.2,0.2,0.2,0.2c0,0.1-0.1,0.3-0.3,0.6C33,1.6,32.8,1.9,32.8,2.1L32.8,2.1z"/>
		<path class="st0" d="M7.8,21.4c0,1.6,0.1,3.2,0.4,4.3C8.3,26,8.6,26.5,9,27.1c0.4,0.5,0.5,1,0.5,1.4c0,1-1.1,1.6-3.3,1.2
			C4,29.2,2.9,28,2.9,26.9c0-0.4,0.2-0.8,0.6-1.3c0.4-0.4,0.6-0.8,0.7-1.1c0.2-0.6,0.3-1.7,0.3-3c0-1-0.1-2-0.2-3
			c-0.1-0.4-0.3-0.7-0.5-0.8c-0.4-0.2-1,0-1.7,0.3c0,0,0,0,0,0c-0.3,0.2-0.6,0.3-0.8,0.1c-0.1,0-0.2-0.1-0.2-0.2
			C0.4,17.7,0.1,17,0,16.2c0-0.1,0-0.3,0-0.4c0-0.9,0.2-1.4,0.8-1.7c0.3-0.2,0.6-0.2,1-0.1c3.5,2,5.2,2.1,8.8,1.9
			c0.4,0,0.9,0.3,1.2,1.1c0.3,0.6,0.5,1.3,0.5,2c0,0.9-0.2,1.4-0.6,1.7c-0.1,0-0.2,0.1-0.2,0.1c-0.3,0.1-0.7-0.1-1-0.5
			c0,0-0.1-0.1-0.1-0.1c-0.3-0.4-0.6-0.7-1.1-1c-0.3-0.2-0.5-0.3-0.7-0.3C8.1,19,7.8,19.8,7.8,21.4L7.8,21.4z M10,16.4
			c-0.2,0-0.3,0.1-0.3,0.3c0,0.2,0.1,0.4,0.4,0.5c0.1,0,0.2,0.1,0.3,0.1c0.2,0,0.3-0.1,0.3-0.3c0-0.2-0.1-0.3-0.4-0.5
			C10.2,16.5,10.1,16.4,10,16.4z"/>
		<path class="st0" d="M24.5,19.1c0.1,0.4,0.3,0.9,0.8,1.4c0.4,0.5,0.5,1,0.5,1.5c0,1.2-1.1,2.3-3.3,3.3c-1.3,0.6-2.2,0.7-2.6,0.2
			c-0.1-0.1-0.2-0.3-0.2-0.5c0-0.2,0.1-0.6,0.3-1.2c0.3-0.8,0.4-1.5,0.5-2.3c0.1-0.4,0.1-0.8,0.1-1c0-0.7-0.3-1-0.9-0.9
			c-0.2,0.1-0.4,0.1-0.6,0.3c-0.8,0.5-1.3,1-1.4,1.7c0,0.2,0,0.3,0,0.5c0,0.3,0,0.6,0.1,0.9c0.1,0.7,0.3,1.3,0.7,2
			c0.1,0.2,0.2,0.4,0.2,0.6c0,0.6-0.4,1.2-1.1,1.9c-0.5,0.4-1,0.7-1.6,1c0,0,0,0-0.1,0c-2.2,1-3.3,0.6-3.3-0.4c0-0.4,0.2-1,0.6-1.8
			c0.4-0.7,0.6-1.4,0.7-1.8c0.2-1.1,0.4-2.3,0.4-3.6c0-0.8-0.1-1.5-0.2-2.1c-0.1-0.3-0.3-0.7-0.7-1.3c-0.2-0.3-0.3-0.6-0.3-0.8
			c0-0.5,0.5-1,1.6-1.6c0.4-0.2,0.8-0.4,1.2-0.6c1.3-0.5,2.2-0.7,2.6-0.5c0.1,0.1,0.2,0.2,0.2,0.4c0,0.2-0.2,0.6-0.5,1.4
			c-0.4,0.8-0.6,1.5-0.6,2c0,0.8,0.4,1,1.2,0.6c0.1,0,0.2-0.1,0.3-0.1c1-0.6,1.5-1.3,1.6-2.1c0-0.4-0.2-0.9-0.6-1.5
			c-0.3-0.3-0.4-0.6-0.4-0.8c0-0.5,0.5-1,1.6-1.7c0.4-0.2,0.8-0.4,1.2-0.6c1.3-0.6,2.2-0.7,2.6-0.5c0.1,0.1,0.2,0.2,0.2,0.3
			c0,0.2-0.2,0.6-0.5,1.2c-0.3,0.5-0.4,1-0.5,1.3c-0.1,0.5-0.1,1.1-0.1,1.8C24.3,17.1,24.4,18.2,24.5,19.1L24.5,19.1z M17,14.6
			c-0.3,0.1-0.4,0.3-0.4,0.4c0,0.2,0.1,0.2,0.4,0.2c0.1,0,0.2,0,0.2-0.1c0.3-0.1,0.4-0.3,0.4-0.5c0-0.2-0.1-0.2-0.4-0.2
			C17.1,14.6,17,14.6,17,14.6z M23.7,11.6c-0.3,0.1-0.4,0.3-0.4,0.4c0,0.1,0.1,0.2,0.4,0.1c0.1,0,0.2,0,0.2-0.1
			c0.3-0.1,0.4-0.3,0.4-0.4c0-0.1-0.1-0.2-0.4-0.1C23.8,11.5,23.7,11.6,23.7,11.6z"/>
		<path class="st0" d="M28,17.7c0.3-1.2,0.4-2.4,0.4-3.5c0-0.6-0.1-1.2-0.2-1.6c-0.1-0.3-0.3-0.7-0.7-1.2c-0.2-0.3-0.3-0.5-0.3-0.6
			c0-0.5,1-1,2.9-1c2.5,0,3.8,0.1,6.4,1.2c0.5,0.2,0.9,0.7,1.2,1.6c0.3,0.8,0.5,1.5,0.5,2.1c0,0.8-0.2,1.1-0.7,0.9
			c-0.1,0-0.2-0.1-0.2-0.1c-0.3-0.2-0.7-0.6-1-1.1c-0.4-0.6-0.7-1-0.9-1.2c-0.4-0.4-0.9-0.7-1.5-0.9c-0.8-0.2-1.4,0-1.8,0.4
			c-0.2,0.2-0.4,0.4-0.4,0.7c0,0.3,0.2,0.5,0.6,0.6c0.1,0,0.2,0,0.2,0.1c0.3,0,0.6,0,1-0.2c0.2-0.1,0.4-0.1,0.5-0.1
			c0.3,0.1,0.5,0.4,0.7,1c0,0.2,0.1,0.4,0.1,0.7c0,0.7-0.2,1-0.5,1.2c-0.1,0-0.2,0-0.2,0c-0.1,0-0.3-0.2-0.6-0.5
			c-0.3-0.3-0.6-0.4-0.9-0.5c-0.5-0.1-0.7,0.1-0.7,0.4c0,0.4,0.2,0.9,0.6,1.5c0.3,0.3,0.6,0.5,0.8,0.6c0.7,0.2,1.4,0,1.9-0.4
			c0.1,0,0.1-0.1,0.2-0.2c0.4-0.3,0.7-0.3,1-0.2c0.1,0,0.2,0.1,0.4,0.2c0.9,0.6,1.5,1.6,1.6,2.9c0,0.2,0,0.4,0,0.6
			c0,1.1-0.3,2-0.9,2.6c-0.5,0.6-1.1,0.8-1.8,0.6c-2.4-1-3.5-1.1-5.9-1.1c-2.2,0-3.3-0.3-3.3-1.5c0-0.5,0.2-1.2,0.6-2
			C27.7,18.8,28,18.2,28,17.7L28,17.7z M36,11.2c-0.2-0.1-0.3,0-0.3,0.1c0,0.1,0.1,0.3,0.4,0.5c0.1,0.1,0.2,0.2,0.3,0.2
			c0.2,0.1,0.3,0.1,0.3-0.1c0-0.1-0.1-0.3-0.4-0.6C36.2,11.3,36.1,11.2,36,11.2z"/>
		<path class="st0" d="M11.1,38c0.1,0.2,0.3,0.6,0.6,1c0.3,0.4,0.5,0.7,0.5,1c0,0.7-0.9,1-2.8,1c-1.1,0-1.9-0.2-2.2-0.6
			c-0.1-0.1-0.2-0.2-0.2-0.4c0-0.1,0.1-0.3,0.3-0.6c0.2-0.4,0.4-0.8,0.4-1.2c0.1-0.2,0.1-0.5,0.1-0.6c0-0.5-0.2-0.8-0.7-0.9
			c-0.2,0-0.3-0.1-0.5-0.1C6,36.5,5.6,36.6,5.5,37c0,0.1,0,0.2,0,0.3c0,0.2,0,0.4,0.1,0.7c0.1,0.5,0.3,1,0.6,1.5
			c0.1,0.2,0.2,0.3,0.2,0.5c0,0.4-0.3,0.6-0.9,0.8C4.9,40.9,4.5,41,3.9,41H3.9c-1.8,0-2.8-0.5-2.8-1.4c0-0.4,0.2-0.8,0.5-1.3
			c0.3-0.5,0.5-0.8,0.6-1.1c0.2-0.7,0.3-1.5,0.3-2.5c0-0.5,0-1.1-0.2-1.6c-0.1-0.2-0.2-0.7-0.6-1.3c-0.2-0.3-0.2-0.6-0.2-0.7
			c0-0.4,0.5-0.3,1.4-0.1c0.3,0.1,0.7,0.2,1,0.3c1.1,0.4,1.8,0.7,2.2,1c0.1,0.1,0.2,0.2,0.2,0.3c0,0.1-0.1,0.3-0.4,0.7
			c-0.3,0.4-0.5,0.7-0.5,1c0,0.5,0.3,0.8,1,1c0.1,0,0.2,0,0.3,0c0.8,0,1.3-0.2,1.3-0.7c0-0.3-0.2-0.7-0.6-1.2
			c-0.2-0.3-0.3-0.6-0.3-0.7c0-0.3,0.4-0.5,1.4-0.5c0.3,0,0.7,0,1,0c1.1,0,1.8,0.1,2.2,0.3c0.1,0.1,0.2,0.2,0.2,0.3
			c0,0.1-0.1,0.4-0.4,0.8c-0.2,0.3-0.4,0.6-0.4,0.8c-0.1,0.3-0.1,0.7-0.1,1.2C10.9,36.6,11,37.4,11.1,38L11.1,38z M4.8,32.1
			c-0.2,0-0.3,0-0.3,0.1c0,0.1,0.1,0.2,0.3,0.3c0.1,0,0.1,0.1,0.2,0.1c0.2,0,0.3,0,0.3-0.1c0-0.1-0.1-0.2-0.3-0.3
			C5,32.1,4.9,32.1,4.8,32.1L4.8,32.1z M10.4,32.7c-0.2,0-0.4,0.1-0.4,0.2s0.1,0.2,0.4,0.2c0.1,0,0.1,0,0.2,0c0.2,0,0.4-0.1,0.4-0.2
			s-0.1-0.2-0.4-0.2C10.6,32.7,10.5,32.7,10.4,32.7z"/>
		<path class="st0" d="M14.2,34c-0.1-0.2-0.2-0.5-0.6-0.8c-0.2-0.2-0.2-0.3-0.2-0.5c0-0.3,0.4-0.7,1.4-1.2c0.3-0.2,0.7-0.3,1-0.5
			c1.1-0.4,1.8-0.6,2.2-0.4c0.1,0.1,0.2,0.2,0.2,0.3s-0.1,0.5-0.4,0.9c-0.2,0.4-0.4,0.8-0.4,1.1c-0.1,0.4-0.1,0.9-0.1,1.5
			c0,0.9,0.1,1.9,0.3,2.8c0,0.1,0.2,0.3,0.5,0.9c0.4,0.6,0.5,1.1,0.5,1.5c0,0.9-1,1.4-2.8,1.4S13,40.6,13,40c0-0.3,0.2-0.8,0.7-1.6
			c0.2-0.3,0.3-0.5,0.3-0.6c0.2-0.7,0.3-1.5,0.3-2.2C14.4,34.9,14.3,34.4,14.2,34L14.2,34z M16.7,31.1c-0.2,0.1-0.3,0.2-0.4,0.3
			c0,0.1,0.1,0.2,0.4,0.1c0.1,0,0.1,0,0.2,0c0.2-0.1,0.3-0.2,0.3-0.3s-0.1-0.2-0.4-0.1C16.9,31.1,16.8,31.1,16.7,31.1L16.7,31.1z"/>
		<path class="st0" d="M20.4,36.5c0.2-1,0.4-2,0.4-3.1c0-0.6,0-1.1-0.1-1.5c-0.1-0.3-0.2-0.6-0.6-1c-0.2-0.2-0.2-0.4-0.2-0.5
			c0-0.4,0.5-0.9,1.4-1.4c0.3-0.2,0.7-0.4,1-0.5c1.1-0.4,1.8-0.5,2.2-0.3c0.1,0.1,0.2,0.2,0.2,0.4c0,0.1-0.1,0.5-0.4,1.1
			c-0.2,0.5-0.4,0.9-0.5,1.3c-0.1,0.4-0.1,1-0.1,1.8c0,1.5,0.1,2.5,0.3,3c0.2,0.4,0.5,0.6,0.9,0.5c0.6-0.1,1.1-0.5,1.6-1.2
			c0-0.1,0.1-0.2,0.2-0.3c0.3-0.5,0.6-0.8,0.9-0.9c0.1,0,0.2-0.1,0.3-0.1c0.8,0,1.2,0.5,1.3,1.7c0,0.2,0,0.4,0,0.6
			c0,1.2-0.2,2.3-0.7,3.4c-0.5,1-0.9,1.5-1.5,1.5c-2,0-3,0-4.9,0c-1.8,0-2.8-0.5-2.8-1.4c0-0.4,0.2-0.9,0.5-1.5
			C20.1,37.3,20.3,36.8,20.4,36.5L20.4,36.5z"/>
		<path class="st0" d="M30.9,35.3c0.2-1.2,0.4-2.4,0.4-3.7c0-0.7,0-1.3-0.1-1.9c-0.1-0.3-0.2-0.8-0.6-1.5c-0.2-0.3-0.2-0.6-0.2-0.8
			c0-0.5,0.5-0.9,1.4-1c0.3,0,0.7,0,1,0c1.1,0.1,1.8,0.5,2.2,1c0.1,0.2,0.2,0.4,0.2,0.5c0,0.2-0.1,0.5-0.4,0.9
			c-0.2,0.4-0.4,0.8-0.5,1.1c-0.1,0.4-0.1,1-0.1,1.9c0,1.6,0.1,2.8,0.3,3.3c0.2,0.5,0.5,0.8,0.9,0.8c0.6,0.1,1.2-0.2,1.6-0.7
			c0,0,0.1-0.1,0.2-0.2c0.3-0.4,0.6-0.5,0.8-0.6c0.1,0,0.2,0,0.3,0c0.8,0.2,1.2,0.8,1.3,1.8c0,0.2,0,0.3,0,0.5
			c0,0.9-0.2,1.7-0.7,2.5c-0.5,0.8-0.9,1.2-1.5,1.2c-2,0-3,0-4.9,0c-1.8,0-2.8-0.7-2.8-1.9c0-0.5,0.2-1.1,0.5-1.9
			C30.6,36.3,30.8,35.7,30.9,35.3z"/>
	</g>
</g>
</svg>
