<svg width="400" height="400" viewBox="0 0 400 400" fill="none" xmlns="http://www.w3.org/2000/svg"><rect width="400" height="400" rx="60" fill="white"/><path d="M119.79 108.086C120.535 111.066 121.28 114.79 123.515 119.26C125.75 123.73 126.495 126.71 126.495 129.689C126.495 137.139 120.535 141.609 108.616 140.119C101.167 139.374 96.697 136.394 94.4621 131.924C93.7172 130.434 93.7172 128.944 93.7172 127.455C93.7172 126.71 94.4621 124.475 95.2071 121.495C96.697 117.77 97.4419 113.301 98.1869 108.831C98.1869 106.596 98.9318 104.361 98.9318 102.126C98.9318 97.6566 97.4419 94.6768 94.4621 93.1869C93.7172 93.1869 92.2273 93.1869 91.4823 92.4419C87.0126 91.697 84.7778 93.1869 84.0328 96.9116C84.0328 97.6566 84.0328 98.4015 84.0328 99.8914C84.0328 101.381 84.0328 103.616 84.7778 105.851C85.5227 110.321 86.2677 115.535 88.5025 121.495C89.2475 123.73 89.2475 125.22 89.2475 125.965C89.2475 129.689 87.0126 131.924 83.2879 132.669C81.053 133.414 78.0732 132.669 74.3485 131.179C61.6843 127.455 55.7247 120.75 55.7247 114.045C55.7247 111.811 56.4697 108.831 58.7045 105.851C60.9394 102.871 61.6843 100.636 62.4293 98.4015C63.9192 93.1869 63.9192 86.4823 63.9192 79.0328C63.9192 74.5631 63.9192 70.8384 63.1742 67.1136C63.1742 65.6237 61.6843 62.6439 59.4495 58.9192C58.7045 56.6844 58.7045 55.1945 58.7045 53.7046C58.7045 50.7248 61.6843 49.2349 66.899 48.4899C69.1338 48.4899 71.3687 47.745 73.6035 47.745C80.3081 47.745 84.7778 49.2349 87.7576 51.4697C88.5025 52.2147 89.2475 53.7046 89.2475 54.4495C89.2475 55.1945 88.5025 58.1743 87.0126 61.154C84.0328 66.3687 83.2879 69.3485 83.2879 72.3283C83.2879 76.798 85.5227 79.7778 89.9924 81.2677C90.7374 81.2677 91.4823 81.2677 91.4823 81.2677C96.697 81.2677 99.6768 78.2879 99.6768 73.8182C99.6768 70.8384 98.1869 66.3687 95.952 61.899C94.4621 58.1743 93.7172 55.9394 93.7172 55.1945C93.7172 52.2147 96.697 49.9798 102.657 49.2349C104.891 49.2349 107.126 48.4899 109.361 48.4899C116.066 48.4899 120.535 49.9798 123.515 52.9596C123.515 52.9596 124.26 54.4495 124.26 55.1945C124.26 56.6844 123.515 58.9192 122.025 62.6439C119.79 65.6237 119.045 68.6035 119.045 70.8384C118.301 73.8182 118.301 78.2879 118.301 83.5025C118.301 93.1869 118.301 101.381 119.79 108.086ZM79.5631 52.2147C78.0732 52.2147 77.3283 52.9596 77.3283 53.7046C77.3283 54.4495 78.0732 55.1945 79.5631 55.9394C80.3081 55.9394 80.3081 55.9394 81.053 55.9394C82.5429 55.9394 83.2879 55.1945 83.2879 54.4495C83.2879 53.7046 82.5429 52.9596 81.053 52.2147C80.3081 52.2147 80.3081 52.2147 79.5631 52.2147ZM115.321 52.9596C113.831 52.9596 113.086 53.7046 113.086 54.4495C113.086 55.1945 113.831 55.9394 115.321 56.6844C116.066 56.6844 116.066 56.6844 116.811 56.6844C117.556 56.6844 119.045 56.6844 119.045 55.1945C119.045 53.7046 118.301 53.7046 116.811 52.9596C116.066 52.9596 115.321 52.9596 115.321 52.9596Z" fill="#C11F25"/><path d="M188.326 90.952C189.816 96.1667 192.795 99.8914 197.265 102.126C200.245 103.616 201.735 104.361 201.735 104.361C203.225 105.851 203.97 107.341 203.97 110.321C203.97 115.535 201.735 119.26 196.52 122.24C194.285 123.73 191.306 125.22 186.836 126.71C178.641 129.689 173.427 130.434 171.192 128.2C170.447 126.71 169.702 125.22 169.702 122.24C169.702 121.495 169.702 120.005 169.702 117.77C169.702 114.79 169.702 112.556 169.702 111.811C169.702 107.341 168.957 104.361 166.722 103.616C165.977 103.616 165.232 103.616 164.487 103.616C160.018 105.106 157.783 109.576 157.783 118.515C157.783 119.26 157.783 120.005 157.783 120.75C157.783 121.495 157.783 122.985 157.783 122.985C157.783 129.689 155.548 134.159 151.078 137.139C148.843 138.629 145.864 138.629 142.884 139.374C136.179 140.119 131.71 137.884 130.22 134.159C129.475 132.669 129.475 131.179 129.475 128.944C129.475 125.965 130.22 122.985 132.455 121.495C132.455 121.495 133.199 120.75 133.944 120.75C136.924 118.515 139.159 116.28 140.649 113.301C141.394 112.556 141.394 111.811 142.139 111.066C145.119 103.616 148.843 93.9318 151.078 82.7576C152.568 76.053 153.313 70.8384 153.313 67.8586C153.313 65.6237 152.568 62.6439 151.078 58.9192C150.333 56.6843 149.588 55.1944 149.588 53.7045C149.588 50.7247 152.568 48.4899 160.018 47.7449C162.252 47.7449 164.487 47 165.977 47C172.682 47 177.896 48.4899 180.876 49.9798C182.366 50.7247 183.111 51.4697 183.111 52.9596C183.111 53.7045 183.111 53.7045 183.111 54.4495C183.856 69.3485 185.346 81.2677 188.326 90.952ZM162.252 89.4621C162.252 91.697 162.997 93.1869 164.487 93.1869C165.977 92.4419 167.467 90.952 167.467 87.9722C167.467 81.2677 166.722 77.5429 165.232 77.5429C164.487 77.5429 162.997 79.7778 162.252 84.2475C162.252 85.7374 162.252 87.9722 162.252 89.4621ZM174.917 52.2146C173.427 52.2146 172.682 52.9596 172.682 53.7045C172.682 54.4495 173.427 55.1944 174.917 55.9394C175.662 55.9394 175.662 55.9394 176.407 55.9394C177.896 55.9394 178.641 55.1944 178.641 54.4495C178.641 53.7045 177.896 52.9596 176.407 52.2146C175.662 52.2146 174.917 52.2146 174.917 52.2146Z" fill="#C11F25"/><path d="M258.351 55.9394C258.351 58.9192 257.606 61.899 255.371 63.3889C253.881 64.1338 253.136 64.8788 251.646 64.8788C251.646 64.8788 250.902 64.8788 250.157 64.8788C248.667 64.8788 247.922 63.3889 246.432 61.899C244.942 59.6641 243.452 58.9192 242.707 58.1742C241.962 58.1742 241.217 58.1742 240.472 58.1742C237.492 58.1742 234.513 60.4091 233.023 64.8788C231.533 68.6035 230.788 72.3283 230.788 76.053C230.788 82.0126 233.023 85.7374 236.747 86.4823C238.237 86.4823 239.727 86.4823 241.217 86.4823C243.452 85.7374 245.687 84.2475 248.667 81.2677C250.902 78.2879 252.391 77.5429 253.136 76.798C254.626 76.053 256.116 75.3081 257.606 75.3081C260.586 75.3081 263.566 76.798 265.056 79.7778C265.801 81.2677 266.545 83.5025 266.545 84.9924C266.545 93.9318 262.076 99.8914 253.136 102.871C250.157 103.616 246.432 105.106 242.707 106.596C229.298 111.066 219.614 110.321 213.654 103.616C210.674 99.8914 209.184 93.9318 209.184 87.2273C209.184 77.5429 212.164 68.6035 217.379 61.154C222.593 52.9596 230.043 48.4899 238.237 47.7449C237.492 47 238.982 47 240.472 47C241.217 47 244.197 47 248.667 47.7449C250.157 47.7449 250.902 47.7449 252.391 47.7449C252.391 47.7449 253.136 47.7449 253.881 47.7449C256.116 48.4899 257.606 49.9798 258.351 52.9596C258.351 54.4495 258.351 55.1944 258.351 55.9394ZM247.922 49.9798C247.177 49.9798 246.432 50.7247 246.432 50.7247C246.432 51.4697 247.177 52.2146 248.667 52.2146C249.412 52.2146 249.412 52.2146 250.157 52.2146C250.902 52.2146 251.646 51.4697 251.646 51.4697C251.646 50.7247 250.902 49.9798 249.412 49.9798C248.667 49.9798 248.667 49.9798 247.922 49.9798Z" fill="#C11F25"/><path d="M296.343 62.6439C296.343 64.1338 297.088 64.8788 297.833 65.6237C299.323 65.6237 301.558 64.1338 304.538 61.154C306.028 59.6641 307.518 58.1743 309.008 55.1945C309.753 53.7046 310.497 52.9596 311.242 52.2147C315.712 49.2349 321.672 47.745 329.121 47.745C334.336 47.745 336.571 48.4899 336.571 49.9798C336.571 50.7248 335.826 52.2147 334.336 52.9596C333.591 53.7046 330.611 55.1945 325.396 57.4293C323.162 59.6641 320.182 60.4091 317.947 61.899C313.477 64.1338 311.242 66.3687 311.242 67.1136C311.242 67.8586 311.987 68.6035 313.477 69.3485C316.457 70.8384 318.692 72.3283 319.437 73.0732C323.162 75.3081 326.886 80.5227 331.356 88.7172C332.101 89.4621 332.101 90.952 332.846 92.4419C333.591 94.6768 335.826 96.9116 338.061 99.1465C340.295 101.381 341.785 103.616 342.53 105.106C343.275 106.596 343.275 108.086 343.275 109.576C343.275 114.79 340.295 116.28 334.336 114.045C332.101 113.301 329.866 112.556 326.886 111.811C318.692 108.831 313.477 106.596 311.242 103.616C309.753 102.126 309.753 100.636 309.753 98.4015C309.753 90.2071 308.263 83.5025 306.773 79.0328C305.283 76.798 303.793 75.3081 301.558 75.3081C300.068 75.3081 298.578 76.053 297.088 77.5429C296.343 78.2879 296.343 79.0328 296.343 80.5227C296.343 82.0126 296.343 83.5025 297.088 84.9924C297.833 87.2273 298.578 90.2071 300.068 93.1869C301.558 96.1667 301.558 99.1465 301.558 99.8914C301.558 102.871 297.088 104.361 288.149 103.616C287.404 103.616 286.659 103.616 285.914 103.616C273.995 102.871 268.035 100.636 268.035 96.1667C268.035 93.9318 268.78 91.697 271.015 88.7172C273.25 85.7374 273.995 84.2475 274.74 82.0126C276.23 77.5429 276.975 73.0732 276.975 68.6035C276.975 65.6237 276.23 62.6439 275.485 59.6642C275.485 58.1743 273.995 56.6844 271.76 54.4495C271.015 52.9596 270.27 52.2147 270.27 51.4697C270.27 49.9798 273.25 48.4899 278.465 47.745C280.699 47.745 282.934 47.745 285.169 47.745C291.874 47.745 296.343 48.4899 299.323 49.9798C300.068 50.7248 300.813 51.4697 300.813 51.4697C300.813 52.2147 300.068 53.7046 298.578 55.9394C297.833 58.9192 296.343 61.154 296.343 62.6439Z" fill="#C11F25"/><path d="M110.106 206.419C110.106 218.338 110.851 230.258 113.086 238.452C113.831 240.687 116.066 244.412 119.045 248.881C122.025 252.606 122.77 256.331 122.77 259.311C122.77 266.76 114.576 271.23 98.1869 268.25C81.798 264.525 73.6035 255.586 73.6035 247.391C73.6035 244.412 75.0934 241.432 78.0732 237.707C81.053 234.727 82.5429 231.747 83.2879 229.513C84.7778 225.043 85.5227 216.848 85.5227 207.164C85.5227 199.715 84.7778 192.265 84.0328 184.816C83.2879 181.836 81.798 179.601 80.3081 178.856C77.3283 177.366 72.8586 178.856 67.6439 181.091C65.4091 182.581 63.1742 183.326 61.6843 181.836C60.9394 181.836 60.1944 181.091 60.1944 180.346C54.9798 178.856 52.7449 173.641 52 167.682C52 166.937 52 165.447 52 164.702C52 157.997 53.4899 154.273 57.9596 152.038C60.1944 150.548 62.4293 150.548 65.4091 151.293C91.4823 166.192 104.146 166.937 130.965 165.447C133.944 165.447 137.669 167.682 139.904 173.641C142.139 178.111 143.629 183.326 143.629 188.54C143.629 195.245 142.139 198.97 139.159 201.205C138.414 201.205 137.669 201.95 137.669 201.95C135.434 202.694 132.455 201.205 130.22 198.225L129.475 197.48C127.24 194.5 125.005 192.265 121.28 190.03C119.045 188.54 117.556 187.795 116.066 187.795C112.341 188.54 110.106 194.5 110.106 206.419ZM126.495 169.172C125.005 169.172 124.26 169.917 124.26 171.407C124.26 172.896 125.005 174.386 127.24 175.131C127.985 175.131 128.73 175.876 129.475 175.876C130.965 175.876 131.71 175.131 131.71 173.641C131.71 172.152 130.965 171.407 128.73 169.917C127.985 169.917 127.24 169.172 126.495 169.172Z" fill="#C11F25"/><path d="M234.513 189.285C235.258 192.265 236.748 195.99 240.472 199.715C243.452 203.439 244.197 207.164 244.197 210.889C244.197 219.828 236.003 228.023 219.614 235.472C209.929 239.942 203.225 240.687 200.245 236.962C199.5 236.217 198.755 234.727 198.755 233.237C198.755 231.747 199.5 228.768 200.99 224.298C203.225 218.338 203.97 213.124 204.715 207.164C205.46 204.184 205.46 201.205 205.46 199.715C205.46 194.5 203.225 192.265 198.755 193.01C197.265 193.755 195.775 193.755 194.285 195.245C188.326 198.97 184.601 202.694 183.856 207.909C183.856 209.399 183.856 210.144 183.856 211.634C183.856 213.869 183.856 216.104 184.601 218.338C185.346 223.553 186.836 228.023 189.816 233.237C190.561 234.727 191.306 236.217 191.306 237.707C191.306 242.177 188.326 246.646 183.111 251.861C179.386 254.841 175.662 257.076 171.192 259.311C171.192 259.311 171.192 259.311 170.447 259.311C154.058 266.76 145.864 263.78 145.864 256.331C145.864 253.351 147.354 248.881 150.333 242.922C153.313 237.707 154.803 232.492 155.548 229.513C157.038 221.318 158.528 212.379 158.528 202.694C158.528 196.735 157.783 191.52 157.038 187.051C156.293 184.816 154.803 181.836 151.823 177.366C150.333 175.131 149.588 172.896 149.588 171.407C149.588 167.682 153.313 163.957 161.508 159.487C164.487 157.997 167.467 156.508 170.447 155.018C180.131 151.293 186.836 149.803 189.816 151.293C190.561 152.038 191.306 152.783 191.306 154.273C191.306 155.763 189.816 158.742 187.581 164.702C184.601 170.662 183.111 175.876 183.111 179.601C183.111 185.561 186.091 187.051 192.051 184.071C192.796 184.071 193.54 183.326 194.285 183.326C201.735 178.856 205.46 173.641 206.205 167.682C206.205 164.702 204.715 160.977 201.735 156.508C199.5 154.273 198.755 152.038 198.755 150.548C198.755 146.823 202.48 143.099 210.674 137.884C213.654 136.394 216.634 134.904 219.614 133.414C229.298 128.944 236.003 128.2 238.982 129.689C239.727 130.434 240.472 131.179 240.472 131.924C240.472 133.414 238.982 136.394 236.748 140.864C234.513 144.588 233.768 148.313 233.023 150.548C232.278 154.273 232.278 158.742 232.278 163.957C233.023 174.386 233.768 182.581 234.513 189.285ZM178.641 155.763C176.407 156.508 175.662 157.997 175.662 158.742C175.662 160.232 176.407 160.232 178.641 160.232C179.386 160.232 180.131 160.232 180.131 159.487C182.366 158.742 183.111 157.253 183.111 155.763C183.111 154.273 182.366 154.273 180.131 154.273C179.386 155.763 178.641 155.763 178.641 155.763ZM228.553 133.414C226.318 134.159 225.573 135.649 225.573 136.394C225.573 137.139 226.318 137.884 228.553 137.139C229.298 137.139 230.043 137.139 230.043 136.394C232.278 135.649 233.023 134.159 233.023 133.414C233.023 132.669 232.278 131.924 230.043 132.669C229.298 132.669 228.553 133.414 228.553 133.414Z" fill="#C11F25"/><path d="M260.586 178.856C262.821 169.917 263.566 160.977 263.566 152.783C263.566 148.313 262.821 143.843 262.076 140.864C261.331 138.629 259.841 135.649 256.861 131.924C255.371 129.689 254.626 128.2 254.626 127.455C254.626 123.73 262.076 120.005 276.23 120.005C294.854 120.005 304.538 120.75 323.907 128.944C327.631 130.434 330.611 134.159 332.846 140.864C335.081 146.823 336.571 152.038 336.571 156.508C336.571 162.467 335.081 164.702 331.356 163.212C330.611 163.212 329.866 162.467 329.866 162.467C327.631 160.977 324.652 157.997 322.417 154.273C319.437 149.803 317.202 146.823 315.712 145.333C312.732 142.354 309.008 140.119 304.538 138.629C298.578 137.139 294.109 138.629 291.129 141.609C289.639 143.098 288.149 144.588 288.149 146.823C288.149 149.058 289.639 150.548 292.619 151.293C293.364 151.293 294.109 151.293 294.109 152.038C296.343 152.038 298.578 152.038 301.558 150.548C303.048 149.803 304.538 149.803 305.283 149.803C307.518 150.548 309.008 152.783 310.497 157.253C310.497 158.742 311.242 160.232 311.242 162.467C311.242 167.682 309.753 169.917 307.518 171.407C306.773 171.407 306.028 171.407 306.028 171.407C305.283 171.407 303.793 169.917 301.558 167.682C299.323 165.447 297.088 164.702 294.854 163.957C291.129 163.212 289.639 164.702 289.639 166.937C289.639 169.917 291.129 173.641 294.109 178.111C296.343 180.346 298.578 181.836 300.068 182.581C305.283 184.071 310.497 182.581 314.222 179.601C314.967 179.601 314.967 178.856 315.712 178.111C318.692 175.876 320.927 175.876 323.162 176.621C323.907 176.621 324.651 177.366 326.141 178.111C332.846 182.581 337.316 190.03 338.061 199.715C338.061 201.205 338.061 202.694 338.061 204.184C338.061 212.379 335.826 219.083 331.356 223.553C327.631 228.023 323.162 229.513 317.947 228.023C300.068 220.573 291.874 219.828 273.995 219.828C257.606 219.828 249.412 217.593 249.412 208.654C249.412 204.929 250.902 199.715 253.881 193.755C258.351 187.051 260.586 182.581 260.586 178.856ZM320.182 130.434C318.692 129.689 317.947 130.434 317.947 131.179C317.947 131.924 318.692 133.414 320.927 134.904C321.672 135.649 322.417 136.394 323.162 136.394C324.652 137.139 325.396 137.139 325.396 135.649C325.396 134.904 324.652 133.414 322.417 131.179C321.672 131.179 320.927 130.434 320.182 130.434Z" fill="#C11F25"/><path d="M134.689 330.081C135.434 331.571 136.924 334.551 139.159 337.53C141.394 340.51 142.884 342.745 142.884 344.98C142.884 350.194 136.179 352.429 122.025 352.429C113.831 352.429 107.871 350.939 105.636 347.96C104.891 347.215 104.147 346.47 104.147 344.98C104.147 344.235 104.891 342.745 106.381 340.51C107.871 337.53 109.361 334.551 109.361 331.571C110.106 330.081 110.106 327.846 110.106 327.101C110.106 323.376 108.616 321.141 104.891 320.396C103.402 320.396 102.657 319.652 101.167 319.652C96.697 318.907 93.7172 319.652 92.9723 322.631C92.9723 323.376 92.9723 324.121 92.9723 324.866C92.9723 326.356 92.9723 327.846 93.7172 330.081C94.4622 333.806 95.9521 337.53 98.1869 341.255C98.9319 342.745 99.6768 343.49 99.6768 344.98C99.6768 347.96 97.442 349.45 92.9723 350.939C88.5026 351.684 85.5228 352.429 81.0531 352.429C67.644 352.429 60.1945 348.705 60.1945 342C60.1945 339.02 61.6844 336.04 63.9192 332.316C66.1541 328.591 67.644 326.356 68.3889 324.121C69.8788 318.907 70.6238 312.947 70.6238 305.497C70.6238 301.773 70.6238 297.303 69.1339 293.578C68.3889 292.088 67.644 288.364 64.6642 283.894C63.1743 281.659 63.1743 279.424 63.1743 278.679C63.1743 275.7 66.899 276.444 73.6036 277.934C75.8384 278.679 78.8182 279.424 81.0531 280.169C89.2475 283.149 94.4622 285.384 97.442 287.619C98.1869 288.364 98.9319 289.109 98.9319 289.854C98.9319 290.598 98.1869 292.088 95.9521 295.068C93.7172 298.048 92.2273 300.283 92.2273 302.518C92.2273 306.242 94.4622 308.477 99.6768 309.967C100.422 309.967 101.167 309.967 101.912 309.967C107.871 309.967 111.596 308.477 111.596 304.753C111.596 302.518 110.106 299.538 107.126 295.813C105.636 293.578 104.891 291.343 104.891 290.599C104.891 288.364 107.871 286.874 115.321 286.874C117.556 286.874 120.535 286.874 122.77 286.874C130.965 286.874 136.179 287.619 139.159 289.109C139.904 289.854 140.649 290.599 140.649 291.343C140.649 292.088 139.904 294.323 137.669 297.303C136.179 299.538 134.689 301.773 134.689 303.263C133.944 305.498 133.944 308.477 133.944 312.202C133.2 319.652 133.944 325.611 134.689 330.081ZM87.7576 286.129C86.2677 286.129 85.5228 286.129 85.5228 286.874C85.5228 287.619 86.2677 288.364 87.7576 289.109C88.5026 289.109 88.5026 289.854 89.2475 289.854C90.7374 289.854 91.4824 289.854 91.4824 289.109C91.4824 288.364 90.7374 287.619 89.2475 286.874C89.2475 286.129 88.5026 286.129 87.7576 286.129ZM129.475 290.599C127.985 290.599 126.495 291.343 126.495 292.088C126.495 292.833 127.24 293.578 129.475 293.578C130.22 293.578 130.22 293.578 130.965 293.578C132.455 293.578 133.944 292.833 133.944 292.088C133.944 291.343 133.2 290.599 130.965 290.599C130.965 290.599 130.22 290.599 129.475 290.599Z" fill="#C11F25"/><path d="M157.783 300.283C157.038 298.793 156.293 296.558 153.313 294.323C151.823 292.833 151.823 292.088 151.823 290.598C151.823 288.364 154.803 285.384 162.253 281.659C164.487 280.169 167.467 279.424 169.702 277.934C177.896 274.955 183.111 273.465 186.091 274.955C186.836 275.699 187.581 276.444 187.581 277.189C187.581 277.934 186.836 280.914 184.601 283.894C183.111 286.874 181.621 289.854 181.621 292.088C180.876 295.068 180.876 298.793 180.876 303.263C180.876 309.967 181.621 317.417 183.111 324.121C183.111 324.866 184.601 326.356 186.836 330.826C189.816 335.295 190.561 339.02 190.561 342C190.561 348.705 183.111 352.429 169.702 352.429C156.293 352.429 148.843 349.449 148.843 344.98C148.843 342.745 150.333 339.02 154.058 333.061C155.548 330.826 156.293 329.336 156.293 328.591C157.783 323.376 158.528 317.417 158.528 312.202C159.273 306.987 158.528 303.263 157.783 300.283ZM176.407 278.679C174.917 279.424 174.172 280.169 173.427 280.914C173.427 281.659 174.172 282.404 176.407 281.659C177.152 281.659 177.152 281.659 177.896 281.659C179.386 280.914 180.131 280.169 180.131 279.424C180.131 278.679 179.386 277.934 177.152 278.679C177.896 278.679 177.152 278.679 176.407 278.679Z" fill="#C11F25"/><path d="M203.97 318.907C205.459 311.457 206.949 304.008 206.949 295.813C206.949 291.343 206.949 287.619 206.204 284.639C205.46 282.404 204.715 280.169 201.735 277.189C200.245 275.7 200.245 274.21 200.245 273.465C200.245 270.485 203.97 266.76 210.674 263.035C212.909 261.545 215.889 260.056 218.124 259.311C226.318 256.331 231.533 255.586 234.513 257.076C235.257 257.821 236.002 258.566 236.002 260.056C236.002 260.801 235.257 263.78 233.023 268.25C231.533 271.975 230.043 274.955 229.298 277.934C228.553 280.914 228.553 285.384 228.553 291.343C228.553 302.518 229.298 309.967 230.788 313.692C232.278 316.672 234.513 318.162 237.492 317.417C241.962 316.672 245.687 313.692 249.412 308.477C249.412 307.732 250.156 306.987 250.901 306.242C253.136 302.518 255.371 300.283 257.606 299.538C258.351 299.538 259.096 298.793 259.841 298.793C265.8 298.793 268.78 302.518 269.525 311.457C269.525 312.947 269.525 314.437 269.525 315.927C269.525 324.866 268.035 333.061 264.311 341.255C260.586 348.705 257.606 352.429 253.136 352.429C238.237 352.429 230.788 352.429 216.634 352.429C203.225 352.429 195.775 348.705 195.775 342C195.775 339.02 197.265 335.295 199.5 330.826C201.735 324.866 203.225 321.141 203.97 318.907Z" fill="#C11F25"/><path d="M282.189 309.967C283.679 301.028 285.169 292.088 285.169 282.404C285.169 277.189 285.169 272.72 284.424 268.25C283.679 266.015 282.934 262.29 279.955 257.076C278.465 254.841 278.465 252.606 278.465 251.116C278.465 247.391 282.189 244.412 288.894 243.667C291.129 243.667 294.109 243.667 296.344 243.667C304.538 244.412 309.753 247.391 312.732 251.116C313.477 252.606 314.222 254.096 314.222 254.841C314.222 256.331 313.477 258.566 311.243 261.545C309.753 264.525 308.263 267.505 307.518 269.74C306.773 272.72 306.773 277.189 306.773 283.894C306.773 295.813 307.518 304.753 309.008 308.477C310.498 312.202 312.732 314.437 315.712 314.437C320.182 315.182 324.652 312.947 327.631 309.222C327.631 309.222 328.376 308.477 329.121 307.732C331.356 304.753 333.591 304.008 335.081 303.263C335.826 303.263 336.571 303.263 337.316 303.263C343.275 304.753 346.255 309.222 347 316.672C347 318.162 347 318.907 347 320.397C347 327.101 345.51 333.061 341.785 339.02C338.061 344.98 335.081 347.96 330.611 347.96C315.712 347.96 308.263 347.96 294.109 347.96C280.7 347.96 273.25 342.745 273.25 333.806C273.25 330.081 274.74 325.611 276.975 319.652C279.955 317.417 281.445 312.947 282.189 309.967Z" fill="#C11F25"/></svg>
