<svg xmlns="http://www.w3.org/2000/svg" fill="none" viewBox="0 0 268 260"><circle cx="139.5" cy="111.5" r="105.5" fill="#F9FBFE"/><path fill="#362118" d="M131.304 66.235c-4.763-.609-8.206-3.759-8.364-7.24-.182-3.999 4.003-7.683 6.337-7.238 3.502.664 3.326 10.707 3.295 11.924"/><path fill="#362118" d="M232.948 66.235c4.763-.609 8.207-3.759 8.364-7.24.183-3.999-4.002-7.683-6.336-7.238-3.502.664-3.326 10.707-3.295 11.924"/><path fill="#C0D0EB" d="M120.749 70.849c5.965-13.178 27.979-43.632 58.333-44.463 33.503-.914 65.204 34.577 57.52 47.211-14.129 23.23-126.502 20.772-115.853-2.748Z"/><path fill="#5570B4" d="M103.578 108.288c-7.795 5.454-7.387 12.581-7.68 14.089-.928 4.734.197 5.095-.526 9.987-1.416 9.58-6.04 12.786-7.233 18.792-2.448 12.298 28.254 36.093 42.906 33.555 7.597-1.316.253-7.662 10.416-8.821 3.833-.435 2.897-2.171 14.321.837 11.075 2.919 16.073 8.459 18.299 7.533 11.949-4.976 18.508-47.254 5.446-58.181-11.273-9.425-21.544-3.548-34.329-11.59-3.734-2.35-8.447-9.231-14.734-11.337-12.197-4.083-19.26-.201-26.886 5.136Z"/><path fill="#5570B4" d="M138.967 113.958c-2.485-3.496-2.04-8.91-3.953-12.909-.841-1.757-2.155-3.197-3.713-3.904-2.29-1.04-5.041-.361-6.821 1.686-1.784 2.048-2.513 5.365-1.812 8.231"/><path fill="#5570B4" d="M177.001 131.41c6.742-9.92 17.236-8.122 35.188-17.798 3.036-1.637 12.565-9.944 17.934-14.574 8.958-7.72 8.757-1.714 12.407-1.29 4.832.558 9.715 7.902 10.201 15.132.989 14.74-12.673 25.324-27.51 42.927-8.544 10.136-6.025 16.143-12.364 21.618-10.352 8.941-29.355 9.871-36.05 1.585-1.339-1.656-2.139-3.623-1.969-20.423.164-16.242.287-24.416 2.163-27.177Z"/><path fill="#34457D" d="M172.863 126.289h9.375v15.896l-7.165 14.048h-2.21"/><path stroke="#404E7E" stroke-miterlimit="10" stroke-width="12" d="M93.47 142.287c5.04 6.445 12.3 10.932 19.727 14.666 15.771 7.925 33.043 13.06 50.708 15.077"/><path fill="#B0794E" d="M211.305 117.676c-16.54 6.896-20.363 2.891-28.832 7.718-1.898 1.081-5.849.052-10.386-.627-8.315-1.242-10.664-4.157-19.359-6.729-11.523-3.41-16.651-12.363-21.603-19.704-6.151-9.12 1.008-19.28 3.311-24.793.797-1.908 13.306-33.93 44.272-34.02 25.574-.074 40.037 21.911 43.672 28.134 1.672 2.863 10.182 21.896 2.93 35.775-2.809 5.377-3.959 10.055-14.005 14.246Z"/><path fill="#B0794E" d="M156.097 118.643a25.72 25.72 0 0 0-6.624-2.202c-1.755-.324-3.622-.5-5.072-1.726-1.014-.859-1.731-2.162-2.788-2.941-.68-.5-1.487-.762-2.084-1.399-.559-.596-.874-1.46-1.424-2.069-.56-.617-1.32-.923-1.892-1.525-.578-.606-.927-1.461-1.441-2.147-.411-.549-.927-.982-1.322-1.544-.949-1.343-1.098-3.347-.544-4.975a6.43 6.43 0 0 1 3.081-3.592c1.345-.71 2.847-.91 4.318-.849"/><path fill="#B0794E" d="M204.326 119.637c1.097-.259 2.191-.519 3.289-.775.726-.173 1.455-.343 2.163-.614.86-.328 1.676-.797 2.485-1.267 1.048-.605 2.099-1.21 3.147-1.816.529-.305 1.069-.617 1.49-1.102.396-.457.668-1.041 1.051-1.513 1.165-1.443 3.214-1.687 4.16-3.333.365-.633.516-1.408.887-2.035.625-1.056 1.756-1.525 2.55-2.412 1.166-1.297 1.484-3.357 1.289-5.225"/><path fill="#1F1514" d="M163.638 85.389c.824-4.408-.318-8.32-2.552-8.736-2.233-.417-4.712 2.819-5.536 7.226-.824 4.408.319 8.32 2.552 8.736 2.234.417 4.712-2.818 5.536-7.226Z"/><path fill="#1F1514" d="M201.065 92.609c2.234-.417 3.376-4.328 2.552-8.736-.823-4.408-3.302-7.643-5.536-7.226-2.233.417-3.376 4.328-2.552 8.735.824 4.408 3.303 7.644 5.536 7.227Z"/><path fill="#746155" d="M197.785 119.903c-3.236 5.741-12.379 6.238-16.988 6.386-4.358.139-14.113.022-18.252-6.009-2.93-4.268-2.065-8.317-1.508-9.611 2.497-5.8 9.526-10.852 18.11-10.87 10.354-.026 16.042 7.291 16.858 8.381 1.066 1.417 4.63 6.67 1.78 11.723Z"/><path fill="#1F1514" d="M176.42 124.372c2.662-5.494 3.839-2.246 5.323 0Z"/><path fill="#1F1514" d="M172.727 105.144c1.193-2.202 4.911-2.313 6.599-2.363 1.595-.046 5.576-.166 7.084 2.159 1.067 1.646.276 3.555.068 4.052-.924 2.227-3.505 4.16-6.648 4.154-3.793-.007-5.864-2.826-6.164-3.246-.386-.55-1.99-2.817-.939-4.756Z"/><path fill="#5B362B" d="M201.766 175.415c13.131 5.661 21.412 15.213 20.092 22.236-2.176 11.587-30.647 17.13-36.499 8.755-3.897-5.581 1.435-18.511 13.316-30.373"/><path fill="#936566" d="M183.418 208.679c.09-.031.229-.084.393-.148.618-.244 3.882-2.937 5.029-5.85.324-.821.154-2.433-1.283-2.896-1.205-.39-2.893.849-3.301 2.921"/><path fill="#453128" d="M158.177 178.123c26.456-40.101 29.287-55.413 41.11-55.28 6.349.071 11.675 4.555 13.601 6.176 8.689 7.314 9.823 17.842 10.2 20.074 2.732 16.14-6.33 27.866-18.237 41.637-7.069 8.174-21.637 16.676-39.54 19.771-3.718.642-8.03-.34-11.359-2.98-1.944-1.541-3.533-3.564-4.429-5.927-2.631-6.948 2.565-14.243 8.654-23.471Z"/><path fill="#5B362B" d="M122.566 182.113c.368-1.553 4.083-2.754 11.508-5.154 5.647-1.825 8.469-2.736 10.438-2.875 8.745-.612 20.475 4.796 21.328 12.662.439 4.03-2.26 8.449-5.873 10.5-2.408 1.368-5.681 1.939-13.291-.309-10.639-3.144-25.198-10.231-24.11-14.824Z"/><path fill="#936566" d="M142.543 174.044c.665-.028 2.513-.013 3.586 1.321 2.315 2.885-1.274 9.049-2.118 8.892-.503-.093.208-2.412-1.035-4.926-.9-1.816-2.396-2.878-3.681-3.527"/><path fill="#936566" d="M152.073 172.512c.664-.028 2.513-.012 3.585 1.322 2.315 2.884-1.273 9.048-2.117 8.891-.504-.093.207-2.412-1.036-4.926-.899-1.816-2.395-2.878-3.681-3.527"/><path fill="#936566" d="M161.188 175.906c.603-.046 2.269-.077 3.205 1.21 2.019 2.78-1.387 8.941-2.142 8.811-.454-.08.251-2.381-.81-4.82-.763-1.764-2.089-2.774-3.236-3.376"/><path fill="#B0794E" d="M99.501 130.171a15.26 15.26 0 0 0 1.379 5.865c.627 1.362 1.62 2.736 3.057 2.968.321.052.655.043.967.139.479.145.857.513 1.218.868l5.048 4.981c.29.287.596.584.976.717.322.114.671.101.999.2 1.122.331 1.663 1.798 2.788 2.11.498.139 1.057.027 1.511.284.857.478.891 1.989 1.827 2.26.442.13.912-.095 1.373-.052.868.08 1.378 1.025 2.098 1.535 1.255.883 2.931.336 4.448.309 4.569-.087 8.374 4.768 12.902 4.15 1.728-.234 3.453-1.269 4.584-.661 5.913-.991 11.471-4.126 15.489-8.736 1.267-1.452 2.436-3.212 2.377-5.17-.077-2.542-2.142-4.472-4.043-6.075-1.845-1.556-3.706-3.122-5.83-4.231-2.173-1.133-4.556-1.751-6.914-2.359-1.385-.359-2.767-.714-4.151-1.072-1.02-.262-2.044-.528-3.011-.951-.816-.358-1.583-.825-2.396-1.183-1.656-.732-3.461-.997-5.205-1.467-4.089-1.102-7.882-3.375-10.846-6.501-1.379-1.451-2.705-3.168-4.606-3.675-.772-.207-1.585-.191-2.37-.346-1.333-.262-2.572-1.003-3.929-1.022-1.277-.018-2.467.612-3.598 1.223-1.997 1.084-4.08 2.242-5.326 4.191-1.344 2.103-1.496 4.765-1.6 7.285l-.168 3.941c-.074 1.708-.133 3.493.557 5.046 1.091 2.465 3.724 3.697 6.141 4.719"/><path fill="#B0794E" d="M115.63 141.089c-1.499 1.331-3.706 1.809-5.619 1.216-1.651-.509-2.986-1.711-4.522-2.498-1.237-.633-2.646-1.022-3.623-2.014-.853-.864-1.249-2.066-1.799-3.147-.556-1.096-1.314-2.242-1.063-3.446.132-.633.534-1.177 1.001-1.625 1.651-1.593 4.219-2.14 6.392-1.402 1.196.408 2.241 1.152 3.363 1.727"/><path fill="#B0794E" d="M111.587 143.661a7.246 7.246 0 0 1-3.144-1.492c-.364-.299-.704-.639-1.122-.861-.336-.179-.717-.278-1.047-.473-.501-.293-.857-.778-1.286-1.17-.64-.581-1.441-.948-2.164-1.421-.726-.469-1.416-1.102-1.626-1.939-.062-.244-.077-.504.016-.738.117-.297.386-.504.661-.664a4.41 4.41 0 0 1 1.577-.547"/><path fill="#B0794E" d="M245.816 116.997c-3.552-2.517-8.423-2.199-12.552-.816a28.479 28.479 0 0 0-6.084 2.876c-.942.59-1.851 1.235-2.825 1.772-1.137.627-2.358 1.1-3.471 1.767-1.391.834-2.587 1.949-3.749 3.079-2.556 2.492-5.15 5.441-5.273 9.008-.065 1.822.537 3.601 1.282 5.266 1.104 2.471 2.594 4.852 4.776 6.454 2.182 1.603 5.159 2.304 7.669 1.285.593-.241 1.159-.574 1.789-.682.424-.071.866-.04 1.274-.173 1.153-.374 1.666-1.909 2.85-2.178.315-.071.646-.04.961-.117.405-.099.745-.367 1.063-.633a36.721 36.721 0 0 0 4.445-4.373c.291-.337.578-.686.757-1.093.195-.442.26-.939.501-1.359.489-.843 1.558-1.155 2.219-1.875.279-.302.476-.67.668-1.031l1.688-3.153c1.499-2.798 3.023-5.683 3.378-8.833.152-1.331.074-2.727-.507-3.934-.581-1.208-1.737-2.196-3.072-2.31"/><path fill="#5B362B" d="M137.582 150.434c.028-5.362 10.281-11.232 17.662-11.461 0 0 8.788-.293 13.545 7.295 3.625 5.784-4.04 15.188-8.717 16.006-5.956 1.041-5.091 1.319-12.599-4.753-2.51-2.035-9.922-.901-9.891-7.087Z"/><path fill="#362118" d="M165.098 152.756c-.714.059-2.164 3.354-2.85 6.059-.587 2.313-.949 5.501-.293 5.541.735.046 2.84-3.87 3.44-7.425.309-1.843.321-4.224-.297-4.175Z"/><path fill="#362118" d="M168.495 151.894c-.766-.244-2.318 1.887-3.054 3.839-.63 1.671-1.017 4.154-.312 4.457.791.339 3.048-2.036 3.688-4.726.333-1.399.343-3.36-.322-3.57Z"/><path fill="#362118" d="M160.539 155.387c-.884.09-1.951 3.552-2.198 6.375-.21 2.411.139 6.087.894 5.734 1.74-.812 2.686-4.11 2.627-7.81-.028-1.915-.557-4.376-1.323-4.299Z"/><path fill="#362118" d="M156.239 156.474c-.952.105-1.514 2.977-1.289 5.297.192 1.982 1.07 4.685 1.985 4.669 1.026-.018 2.219-3.459 1.508-6.485-.374-1.572-1.381-3.57-2.204-3.481Z"/><path fill="#362118" d="M151.192 158.253c-.473.553-.832 1.353-.612 1.9.454.781 1.221.605 1.966 1.241 1.366 1.167 1.554 2.143 2.04 2.075.751-.105 1.82-2.671.72-4.336-1.073-1.627-3.307-1.822-4.114-.88Z"/><path fill="#5B362B" d="M215.422 129.375c-4.788.559-8.33 6.158-8.435 11.09-.12 5.593 4.13 12.523 10.877 12.581 6.763.059 11.663-6.828 11.1-11.942-.287-2.61-1.96-4.444-3.552-6.186-1.839-2.01-5.539-6.062-9.99-5.543Z"/><path fill="#362118" d="M208.795 137.694c1.067.371 1.274 3.74.51 6.282-.435 1.455-1.539 3.823-2.497 3.62-1.073-.229-1.966-3.676-1.082-6.421.6-1.862 2.145-3.802 3.069-3.481Z"/><path fill="#362118" d="M212.931 142.803c-.699-.828-3.891 1.188-6.003 3.631-1.205 1.396-3.038 4.068-2.531 4.895.565.927 4.061-.451 6.318-3.147 1.533-1.831 2.822-4.66 2.216-5.379Z"/><path fill="#362118" d="M216.374 145.465c-.333-.942-4.021 1.161-6.868 3.773-1.626 1.492-4.305 4.37-4.148 5.303.176 1.044 3.904-.34 6.983-3.227 2.086-1.961 4.324-5.037 4.033-5.849Z"/><path fill="#362118" d="M218.714 147.883c-.497-.738-3.913-.05-6.036 2.977-.674.96-.801 1.377-2.38 3.595 0 0-.557.778-1.157 2.103-.12.265-.374.843-.42 1.63-.028.442-.062.708.053.735 1.4.356 3.196-2.872 6.361-5.571 2.983-2.551 4.284-4.425 3.579-5.469Z"/><path fill="#362118" d="M223.205 149.56c.489-1.254-4.834.778-7.501 3.258-1.524 1.414-4.399 5.546-3.255 5.222 1.295-.37 3.833-1.173 6.689-3.922 1.938-1.868 3.496-3.085 4.067-4.558Z"/><path fill="#936566" d="M221.283 204.195c.031-.09.077-.229.13-.402.194-.636.12-4.864-1.444-7.575-.442-.766-1.808-1.637-3.066-.803-1.057.698-1.138 2.791.232 4.4"/><path fill="#936566" d="M205.018 212.03c.056-.075.145-.195.247-.34.384-.544 1.636-4.58.996-7.647-.18-.864-1.209-2.118-2.662-1.72-1.221.334-1.953 2.295-1.156 4.253"/><path fill="#936566" d="M215.092 208.753c.031-.09.077-.229.129-.402.195-.636.124-4.864-1.443-7.575-.442-.766-1.808-1.637-3.066-.806-1.057.698-1.141 2.792.228 4.401"/><path fill="#936566" d="M193.3 212.203c.068-.065.176-.167.303-.294.47-.472 2.386-4.24 2.275-7.368-.031-.884-.831-2.292-2.334-2.147-1.261.124-2.315 1.933-1.857 3.996"/><path fill="#1F1514" d="M167.212 116.845c.597 0 .597-.926 0-.926-.596 0-.596.926 0 .926Z"/><path fill="#1F1514" d="M168.869 121.577c.597 0 .597-.927 0-.927-.596 0-.596.927 0 .927Z"/><path fill="#1F1514" d="M192.073 116.135c.597 0 .597-.926 0-.926-.596 0-.6.926 0 .926Z"/><path fill="#1F1514" d="M190.651 121.814c.597 0 .597-.926 0-.926-.596 0-.596.926 0 .926Z"/><path fill="#1F1514" d="M195.152 120.156c.596 0 .596-.926 0-.926-.597 0-.6.926 0 .926Z"/><path fill="#1F1514" d="M163.661 118.501c.596 0 .596-.927 0-.927-.597 0-.597.927 0 .927Z"/><path stroke="#1F1514" stroke-miterlimit="10" d="M194.385 110.295c1.663-1.776 17.084-11.847 24.017-9.462"/><path stroke="#1F1514" stroke-miterlimit="10" d="M196.669 111.879c2.084-1.297 25.288-9.116 31.522-5.046"/><path stroke="#1F1514" stroke-miterlimit="10" d="M196.731 113.223c2.105-.92 29.154-5.349 34.87-2.591"/><path stroke="#1F1514" stroke-miterlimit="10" d="M166.109 108.865c-1.663-1.775-17.084-11.846-24.017-9.462"/><path stroke="#1F1514" stroke-miterlimit="10" d="M164.811 110.354c-2.056-1.303-24.917-9.213-31.031-5.173"/><path stroke="#1F1514" stroke-miterlimit="10" d="M164.811 112.244c-2.238-.961-31.031-5.485-37.135-2.542"/><path fill="#fff" d="M161.602 82.667c.956 0 1.731-.477 1.731-1.065 0-.589-.775-1.066-1.731-1.066-.956 0-1.731.477-1.731 1.066 0 .588.775 1.065 1.731 1.065Z"/><path fill="#fff" d="M200.515 82.745c.956 0 1.731-.478 1.731-1.066 0-.588-.775-1.065-1.731-1.065-.956 0-1.731.477-1.731 1.065s.775 1.066 1.731 1.066Z"/><path fill="#fff" d="M183.251 106.178c.688 0 1.246-.225 1.246-.503s-.558-.503-1.246-.503-1.245.225-1.245.503.557.503 1.245.503Z"/><path fill="#C0D0EB" d="M129.768 66.247c-1.861-2.094-5.035-2.23-7.839-2.211-1.57.009-3.301.083-4.444 1.155-.739.691-1.144 1.735-2.016 2.251-.766.451-1.836.457-2.336 1.19-.208.299-.272.67-.402 1.012-.813 2.137-4.053 2.928-4.201 5.207-.028.41.056.84-.105 1.22-.241.571-.937.806-1.298 1.315-.597.844-.062 2.054-.414 3.027-.294.8-1.138 1.29-1.469 2.078-.377.893-.006 1.952-.318 2.87-.182.534-.578.969-.788 1.494-.183.454-.214.954-.232 1.445a36.979 36.979 0 0 0 .899 9.67c.078.34.161.685.334.988.21.368.541.658.742 1.032.621 1.164-.151 2.825.73 3.81.309.346.794.556.961.992.148.386-.013.812-.053 1.223-.077.769.266 1.51.622 2.196.395.762.816 1.51 1.264 2.242.664 1.087 1.771 1.843 3.035 2.019.983.136 1.963.217 2.955.155.968-.062 1.07-.176 2.019-.374.343-.071 2.284-.849 2.624-.92 1.759-.368 2.775-.114 4.466-.723.248-.089.501-.188.686-.374.436-.438.35-1.189.718-1.683.516-.698 1.678-.611 2.213-1.297.525-.673.151-1.708.541-2.467.343-.667 1.162-.93 1.678-1.473.974-1.029.668-2.805 1.583-3.885.346-.411.837-.677 1.193-1.078.408-.463.602-1.066.785-1.652 1.236-3.978.97-7.295 1.823-11.372.279-1.328 1.157-2.72.971-4.064-.216-1.584-.334-3.712-1.128-5.099-.473-.824-.952-1.655-1.614-2.337-.275-.284-.593-.556-.729-.93-.118-.318-.087-.67-.111-1.01-.065-.954-.563-1.816-1.048-2.64-.9-1.55-1.892-3.172-2.297-3.002Z"/><path fill="#C0D0EB" d="M235.721 65.428c-.662.445-1.4.754-2.195.85-2.398.284-4.154 1.803-6.077 3.19-1.391 1.004-1.496 2.915-2.154 3.808-2.235 3.02-.396 3.866-2.584 8.41-.213.444-.343.947-.278 1.435.058.439.3.828.426 1.251.439 1.455-.51 2.93-.769 4.429-.309 1.79.386 3.588 1.066 5.275l2.179 5.392c.186.46.374.92.655 1.328.486.698 1.246 1.235 1.481 2.05.096.334.096.689.136 1.035.229 1.93 1.737 3.425 3.156 4.756 1.443 1.356 3.094 2.795 5.075 2.795.628 0 1.243-.149 1.849-.294l8.033-1.942c.532-.13 1.076-.263 1.518-.581.522-.377.844-.966 1.31-1.408.745-.704 1.84-1.019 2.439-1.85.727-1.007.513-2.483 1.261-3.471.424-.559 1.113-.899 1.45-1.514.51-.93.031-2.115.334-3.131.161-.54.531-.988.834-1.46 1.299-2.03 1.385-4.772.22-6.878-.136-.248-.291-.488-.405-.745-.148-.333-.229-.692-.312-1.05-1.657-7.13-4.516-14.237-9.774-19.332-1.341-1.3-2.896-2.49-4.726-2.876-1.644-.36-3.326-.021-4.148.528Z"/><path fill="#C0D0EB" d="M133.969 84.187c1.644-2.823 2.766-3.86 1.842-6.995-.284-.964-.479-2.854-2.031-4.72-.55-.66-1.613-3.578-2.095-4.292-.616-.908-.059-.12-1.153-.123-1.095-.004-2.158.376-3.156.837-.906.416-1.796.917-2.461 1.661-.964 1.078-1.35 2.548-1.57 3.978-.207 1.328-.294 2.705.046 4.005.285 1.09.86 2.085 1.506 3.008.844 1.205 1.842 2.326 3.091 3.1 1.249.77 2.779 1.168 5.981-.46Z"/><path fill="#C0D0EB" d="M231.264 72.547a6.505 6.505 0 0 0-2.445-1.173c-2.013-.467-1.227-1.662-2.863-4.145-.324-.494-1.817-1-2.055-1.544-.26-.593-.683-1.1-1.1-1.597l-3.391-4.045c-1.697-2.026-3.397-4.052-5.218-5.97a64.19 64.19 0 0 0-8.132-7.218c-.795-.592-1.62-1.173-2.553-1.507-1.206-.429-2.523-.42-3.771-.697-1.907-.43-3.601-1.52-5.478-2.07-1.431-.42-2.936-.515-4.426-.605-5.332-.33-8.12-.976-13.523-1.297-1.728-.102-4.386.497-5.947 1.248-.828.398-2.216.775-2.881 1.12-2.494 1.298-2.729 1.542-4.732 2.314-1.759.72-3.514 1.442-5.27 2.162-2.077.917-4.294 1.658-6.216 2.909-1.629 1.059-3.008 2.455-4.362 3.845-3.502 3.594-6.976 7.263-9.73 11.454-1.477 2.248-2.769 4.673-4.723 6.526-1.953 1.853-4.797 3.066-7.363 2.245-1.332-3.77-.571-8.036 1.234-11.606 1.805-3.57 4.565-6.553 7.39-9.388 11.375-11.42 25.232-21.61 41.259-23.403 11.816-1.322 23.908 2.158 33.911 8.582 10.002 6.424 18.005 15.652 24.051 25.883.831 1.405 1.656 2.959 1.468 4.583-.173 1.417-.937 5.059-3.134 3.394Z"/><path fill="#404E7E" d="M95.094 141.441c.006.012.009.024.015.037-.006-.016-.015-.031-.021-.047.003.006.003.013.006.019l-.016-.037.01.018a.548.548 0 0 1-.047-.117v-.006a13.94 13.94 0 0 1-.615-.853c-.275-.457-.624-1.062-.748-1.581-.683 1.328-1.298 2.804-1.96 4.145-.015.027.019.077.022.108.003.031-.025.024-.006.049.56.744 1.416 1.266 1.987 1.745l1.42-3.391a.667.667 0 0 1-.047-.089Z"/><path fill="#404E7E" d="M91.75 143.198c-.026-.025-.05-.068-.069-.099-.003-.003-.003-.006-.003-.012 0-.007.111-.226.114-.232.047-.074-.021.065.01-.015"/><path fill="#404E7E" d="m91.935 143.331.13.182c.04.055.08.111.12.163.148.189.321.359.495.525a1.2 1.2 0 0 0-.316-.685.534.534 0 0 0-.43-.185Z"/><path fill="#B4BBCA" d="M77.738 90.963c-9.36 0-16.95-2.81-16.95-6.278 0-3.467 7.59-6.278 16.95-6.278s16.95 2.811 16.95 6.278c0 3.467-7.59 6.278-16.95 6.278Z"/><path fill="#C2CFEA" fill-rule="evenodd" d="M108.366 65.187c3.748-5.198 6.661-11.582 2.838-14.903-4.52-3.93-10.672-.967-15.487 5.374-1.243 1.638-2.913 3.459-4.614 5.323a216.16 216.16 0 0 0-2.63 2.913l.27-.132c2.906-1.381 6.71-3.195 8.864-6.026 4.243-5.594 8.801-6.705 11.324-4.514 2.524 2.19-1.858 11.092-9.184 13.377-5.687 1.777-11.431 2.63-14.156.835-2.203 3.051-3.252 5.776-1.255 7.508 4.105 3.566 9.856.402 19.033-5.26 1.909-1.18 3.66-2.65 5.003-4.514l-.006.019Z" clip-rule="evenodd"/><path fill="#C2CFEA" d="M90.293 81.232c0 1.909-5.763 4.08-12.869 4.08s-12.869-2.171-12.869-4.08c0-1.908 5.763-3.452 12.87-3.452 7.105 0 12.868 1.544 12.868 3.452Z"/><path fill="#C2CFEA" d="M77.117 55.808C77.117 70.372 79.904 85 73.663 85s-17.1-5.336-19.467-20.716C50.431 39.8 51.058 35.72 61.73 42.312c5.311 3.277 15.387-1.068 15.387 13.496Z"/><path fill="#C2CFEA" d="M71.46 53.297c0 14.564 3.485 31.69 9.724 31.69 6.24 0 17.1-5.337 19.467-20.716 3.767-24.483 3.139-28.563-7.533-21.972-5.31 3.277-21.658-3.566-21.658 10.998Z"/><path fill="#57392D" d="M77.424 53.925C63.383 53.925 52 49.288 52 43.567c0-5.72 11.383-10.358 25.424-10.358s25.424 4.637 25.424 10.358c0 5.72-11.382 10.358-25.424 10.358Z"/><path fill="#A77C55" d="M101.907 44.823c0 5.028-10.02 9.102-23.541 9.102-13.522 0-25.738-4.074-25.738-9.102 0-5.029 12.216-9.73 25.738-9.73s23.541 4.701 23.541 9.73Z"/><path fill="#fff" d="M74.762 52.211c2.38-.79 3.81-1.632 2.894-4.727-.916-3.095 2.637-3.333-2.29-3.314-4.602 2.555-4.653.514-3.711 4.4.703 2.92.722 4.438 3.101 3.641h.006Z"/><path fill="#fff" d="M78.66 51.257c-2.454.446-2.391-1.105-2.868-4.319-.47-3.208-5.405-.69-.998-3.057 5.172.056 4.331-1.312 5.116 2.618.584 2.95 1.205 4.312-1.25 4.758Z"/><path fill="#fff" d="M72.549 51.703c-.289-.996 1.227-2.31 3.385-2.935 2.158-.625 4.141-.324 4.43.672.288.995-1.228 2.31-3.386 2.934-2.158.625-4.141.325-4.43-.671Z"/><path fill="#F2EDEC" d="M71.15 46.48c-.287-.996 1.33-2.337 3.612-2.995 2.282-.657 4.365-.383 4.652.613.287.996-1.33 2.337-3.612 2.994-2.282.658-4.365.384-4.652-.612Z"/><path fill="#fff" d="M61.875 48.37c2.423.131 3.998-.12 4.168-3.233.17-3.114 3.478-2.072-1.01-3.798-5.017.671-4.401-1.187-4.803 2.649-.301 2.875-.778 4.25 1.645 4.381Z"/><path fill="#fff" d="M65.735 48.89c-2.379-.47-1.82-1.845-1.218-4.909.61-3.063-4.701-2.536.082-3.107 4.696 1.89 4.376.352 3.817 4.168-.42 2.863-.295 4.313-2.674 3.842l-.007.007Z"/><path fill="#fff" d="M63.772 49.298c-2.166-.223-3.84-1.211-3.737-2.208.103-.997 1.942-1.624 4.108-1.402 2.165.223 3.838 1.212 3.736 2.208-.103.997-1.942 1.624-4.108 1.402Z"/><path fill="#F2EDEC" d="M64.399 44.116c-2.29-.235-4.063-1.234-3.96-2.23.102-.998 2.041-1.615 4.331-1.38 2.29.236 4.063 1.235 3.961 2.232-.102.996-2.042 1.614-4.332 1.378Z"/><path fill="#fff" d="M95.158 45.193c-1.84 1.582-3.239 2.348-5.273-.013-2.034-2.366-4.018.484-1.52-3.628 4.383-2.53 2.757-3.628 5.418-.835 1.997 2.097 3.215 2.894 1.375 4.476Z"/><path fill="#fff" d="M92.421 47.968c1.595-1.827.314-2.574-2.034-4.627-2.347-2.053 2.172-4.884-1.958-2.41-2.568 4.362-3.246 2.95-.471 5.63 2.078 2.01 2.869 3.233 4.463 1.407Z"/><path fill="#fff" d="M90.123 48.49c-.69-.727.031-2.53 1.61-4.03 1.58-1.499 3.419-2.125 4.109-1.398.69.726-.031 2.53-1.61 4.03-1.58 1.499-3.419 2.125-4.109 1.398Z"/><path fill="#F2EDEC" d="M86.293 44.918c-.69-.727.105-2.6 1.774-4.186 1.67-1.584 3.583-2.28 4.273-1.554.69.727-.105 2.601-1.775 4.186s-3.582 2.28-4.272 1.554Z"/><path fill="#A77C55" d="M96.012 50.146c.797 1.111.942 2.473.916 3.804-.025 1.651-.125 3.308-.194 4.96-.138 3.408-.27 6.81-.408 10.22-.038 1.004-1.607 1.01-1.57 0 .126-3.202.258-6.404.383-9.6l.189-4.645c.056-1.362.163-2.787-.672-3.948-.59-.822.772-1.607 1.356-.791Z"/><path fill="#A77C55" d="M96.382 67.328c.1.232.195.458.258.703.056.232.094.47.119.71.044.439.006.89-.094 1.317a1.105 1.105 0 0 1-.515.722c-.446.264-1.004.057-1.262-.364-.282-.464-.288-1.073-.194-1.588.031-.182.207-.377.358-.47a.81.81 0 0 1 .602-.082c.189.056.37.182.471.357.107.195.12.39.082.603 0 .025-.013.056-.013.082l.025-.207a1.92 1.92 0 0 0 0 .464l-.025-.207c.019.125.05.245.094.358l-.081-.189s.031.057.05.088l-.126-.157s.025.032.044.044l-.157-.125.025.019-.188-.082s.038.013.056.013l-.207-.026h.026c-.07.007-.139.02-.208.025h.025a2.28 2.28 0 0 0-.188.07.1.1 0 0 0 .044-.026l-.157.126s.025-.025.038-.044l-.126.157s.032-.05.044-.075l-.081.188c.05-.132.069-.276.087-.414l-.025.207a3.45 3.45 0 0 0 0-.885l.025.207a3.593 3.593 0 0 0-.238-.892l.082.189-.02-.038c-.087-.2-.137-.383-.08-.603a.815.815 0 0 1 .357-.47c.182-.094.402-.145.603-.082.182.056.389.176.47.358v.019Z"/><path fill="#57392D" d="M95.547 67.723c-.018.528-.226 1.01-.194 1.526.012.17.063.408.125.57.013.038.082.158.126.227-.038-.044.031.05 0 0l.044.044c.006.006.056.05.019.019-.044-.038.025.012.031.019a.396.396 0 0 1 .138.54.391.391 0 0 1-.54.137c-.464-.282-.646-.866-.709-1.374a2.954 2.954 0 0 1 .038-.88c.05-.294.132-.552.138-.822a.395.395 0 0 1 .389-.389c.213 0 .402.182.39.39l.005-.007Z"/><path fill="#fff" d="M97.35 43.56c-.591 2.788-2.945 4.496-5.456 5.45-2.511.954-5.317 1.06-7.929 1.174-2.956.125-5.92 0-8.876-.132-2.618-.12-5.236-.27-7.816-.754-3.025-.565-5.788-1.776-8.173-3.722-1.582-1.287-.986-4.011.634-4.928 5.066-2.869 11.143-2.75 16.786-2.611a126.442 126.442 0 0 1 13.258 1.01c1.946.251 3.855.703 4.916 2.549 1.142 1.984.514 4.57-1.482 5.719-1.412.816-3.327.822-4.896 1.017a83.176 83.176 0 0 1-8.833.609 83.22 83.22 0 0 1-8.845-.34 92.533 92.533 0 0 1-4.928-.596c-1.362-.194-2.787-.351-3.936-1.18-1.695-1.224-2.48-3.233-1.908-5.28.52-1.87 1.94-3.132 3.691-3.829 1.394-.558 2.95-.627 4.432-.778a87.92 87.92 0 0 1 4.438-.352 87.807 87.807 0 0 1 8.908-.037c1.482.069 2.963.176 4.445.314 1.481.138 3.182.2 4.664.596 1.946.515 3.465 2.178 3.446 4.256-.019 2.248-1.65 3.88-3.647 4.614-1.2.44-2.517.66-3.78.873-1.619.282-3.263.49-4.902.609a42.026 42.026 0 0 1-8.475-.251c-2.806-.364-5.712-.76-8.248-2.06-2.788-1.424-4.878-4.846-3.183-7.884.916-1.639 2.944-2.153 4.67-2.423a27.003 27.003 0 0 1 4.721-.314c2.932.05 5.87.245 8.801.458 2.932.214 6.146.458 9.19.898 1.482.213 2.85.64 4.2 1.312 1.758.873 2.072 3.635.634 4.928-2.712 2.435-6.698 2.963-10.213 3.076-3.214.1-6.51-.364-9.567-1.356a30.46 30.46 0 0 1-4.715-1.984c-1.506-.79-3.126-1.701-4.319-2.869-.979-.954-1.444-2.153-1.262-3.515.22-1.626 1.457-2.693 2.926-3.246 1.739-.653 3.71-.86 5.55-1.042 3.414-.339 6.999-.307 10.42-.025 2.046.17 3.955.546 5.844 1.369.992.427 1.928 1.086 2.405 2.09.74 1.544.496 3.22-.66 4.501-1.236 1.369-3.34 1.852-5.084 2.172-1.745.32-3.654.496-5.487.37-3.409-.238-7.69-1.067-10.038-3.797-1.6-1.858-2.147-4.476-.772-6.648 1.187-1.877 3.264-2.618 5.367-2.863 1.96-.226 3.98.07 5.92.34 1.055.144 2.09.275 3.076.69 1.488.627 2.561 2.021 2.524 3.685-.038 1.506-.973 2.504-2.304 3.025-2.963 1.162-6.886.584-8.594-2.366-.747-1.287-.992-2.982-.578-4.42.509-1.745 1.69-2.912 3.378-3.528 1.243-.452 2.938.29 3.547 1.444.665 1.256.502 2.762-.49 3.804a1.7 1.7 0 0 0 .39-.703c.043-.175-.013-.64.037-.226-.019-.188-.157-.596-.007-.213l-.156-.358c.138.22.144.239.006.056-.201-.326.107.07.157.139.232.307-.396-.239-.063-.032.314.201.622.402.942.597 1.412.835 2.046 2.862 1.123 4.293-.922 1.432-2.78 2.022-4.294 1.124-1.512-.898-2.856-1.933-3.546-3.578-.804-1.902-.465-4.037.973-5.537 1.017 1.752 2.034 3.497 3.05 5.248l.44-.188c-.207.132-.182.113.056-.057.101-.094.509-.577.446-.464-.175.295.176-.735.088-.233-.075.446.038-.288.019-.338.019.044.012.364 0 .426-.07.308-.12-.797-.013-.238.082.402-.069-.157-.125-.27.251.465-.396-.42-.15-.144.169.188.25.094.05.069-.17-.126-.183-.145-.038-.057.207.113.125.088-.245-.082.031-.018.377.114.427.126.552.157-.408.025-.044-.012.138-.02.32-.013.464-.007.37.019-.602.15-.025 0 .377-.094.747-.2 1.111-.345l-2.303 3.026 1.136 1.983c.42.151.514.189.288.113-.138-.012-.3-.075-.439-.106-.452-.094-.91-.163-1.368-.233-.095-.012-.616-.081-.082-.012-.2-.025-.408-.05-.609-.07-.508-.056-1.023-.1-1.532-.131a24.014 24.014 0 0 0-2.228-.031c-.458.018.138.113.226-.038-.013.019-.408.082-.396.075-.125.032-.257.076-.383.1-.596.126.534-.338.038-.03 0 0-.295.194-.32.188.27.037.49-.452.22-.145l.263-.358c-.125.22-.132.201-.012-.056l.081-.207c-.062.25-.075.245-.037-.032l.025-.213c0 .352-.02.27-.063-.239.1.477-.013-.238-.113-.188-.019.013.232.352.213.352-.257-.32-.313-.396-.157-.22.076.081.151.157.233.232.326.34.006-.138-.113-.063 0 0 .326.226.376.258.132.081.264.157.396.232.044.025.71.358.232.132-.508-.239.308.107.346.12.169.062.345.118.52.175.434.138.88.264 1.325.37.358.088.716.157 1.073.22.183.031.365.063.54.088-.665-.094-.05-.013.12 0a18.047 18.047 0 0 0 3.703-.032c.616-.056.107-.012-.018 0 .182-.03.364-.056.54-.094.86-.157 1.676-.44 2.523-.652.477-.12-.596.401-.044 0-.96.696-1.795 1.933-.22 3.465.145.144.503.245.076.119-.553-.163-.132-.063 0-.013-.823-.3-1.651-.477-2.505-.652-.521-.113.753.062-.12-.013a32.748 32.748 0 0 0-1.657-.12c-.891-.043-1.782-.05-2.674-.068-1.971-.032-3.942-.05-5.907.1-.49.038-.973.088-1.463.145-.49.056.459-.088-.037.006-.29.056-.578.094-.867.15-.483.095-.96.201-1.43.327-.177.044-.346.113-.522.144-.22.076-.132.032.276-.119.647-.854.854-1.048.634-.578l.427-1.581c-.879-1.432-1.048-1.884-.52-1.344l-.27-.2c.219.194.476.35.721.52.414.289.841.565 1.274.829.904.546 1.846 1.017 2.806 1.463.61.282-.502-.183.183.075.238.088.47.182.709.27a25.806 25.806 0 0 0 4.526 1.193c.094.012.923.131.458.075-.464-.057.37.038.465.044a25.844 25.844 0 0 0 4.683.025c.182-.019.584 0 .753-.075-.376.05-.445.062-.207.031l.377-.056c.502-.082.998-.176 1.488-.29.49-.112.973-.257 1.45-.42-.71.245.1-.063.263-.157a5.19 5.19 0 0 0 .314-.194c-.301.244-.32.257-.056.025l.634 4.928c-.772-.383.596.144-.226-.107-.258-.082-.502-.17-.76-.239a15.175 15.175 0 0 0-1.576-.314c.766.126-.119-.012-.232-.025-.282-.031-.558-.062-.841-.088-.609-.062-1.224-.125-1.833-.182a221.73 221.73 0 0 0-7.351-.577c-2.455-.15-4.809-.314-7.207-.289-.577 0-1.155.025-1.726.075-.088.007-1.023.132-.308.02-.282.043-.565.093-.847.156-.189.038-.37.088-.559.132-.213.057-.929.42-.226.006 0 0 1.463-1.494.898-2.046.025.125.056.245.094.364-.207-.458-.239-.54-.082-.245.314.553-.52-.452-.025-.038.553.459-.063.07-.031.02-.025.05.79.47.891.527.628.357-.659-.214.025.018.201.07.396.145.597.201.571.176 1.155.308 1.732.434 1.049.232 2.11.426 3.17.57-.709-.093.258.026.327.032a40.903 40.903 0 0 0 2.92.22c2.34.094 4.695 0 7.011-.308-.584.076-.075.007.038-.012.288-.05.577-.088.866-.138.578-.1 1.155-.214 1.726-.34.534-.119 1.068-.282 1.601-.389l.226-.069c-.376.182-.414.189-.1.032-.364.326-.565.615-.616 1.11-.075.729.302 1.564.967 1.922.666.358.22.119-.031.044-.703-.207.772.081-.188-.032l-.917-.113a90.21 90.21 0 0 0-11.042-.584 90.299 90.299 0 0 0-9.197.565c-.12.013-1.136.088-.282.026-.251.018-.515.081-.76.138-.163.037-.326.088-.49.131-.696.176.415-.326-.163.101.697-.521-.175.414.364-.377-.163.302-.15.233.05-.194-.087.339-.081.257 0-.245l-.081-.446c.157.502 0 .276-.446-.678l-.314-.22c.295.164.239.151-.17-.03.095.175.88.213 1.08.25.603.1 1.206.188 1.815.27-.672-.094.326.038.377.044.401.05.81.094 1.211.138 2.43.264 4.871.414 7.313.459a83.89 83.89 0 0 0 7.326-.189 84.803 84.803 0 0 0 4.257-.414c.05 0 1.048-.138.376-.044.578-.082 1.149-.195 1.72-.283l.1-.025c-.916.32-1.418.998-1.506 2.04-.013.54.163.986.521 1.338a1.2 1.2 0 0 0 .565.345c-.107-.12-.596-.132-.747-.157.747.132-.496-.057-.634-.075a140.96 140.96 0 0 0-3.955-.415 129.275 129.275 0 0 0-8.242-.464c-2.587-.063-5.192-.107-7.772.113-.27.025-.54.056-.81.081-.76.07.446-.087-.238.032-.615.106-1.23.22-1.84.37-.609.15-1.192.352-1.776.559-.81.282.533-.302-.232.1-.314.17-.634.32-.948.496l.634-4.928c.464.377-.352-.22.144.107.207.132.402.27.615.395.42.258 1.017.691 1.507.779-.013 0-.534-.201-.188-.088.113.038.226.088.345.126.232.081.464.157.697.232.508.157 1.03.289 1.55.408.49.107.98.195 1.47.276.106.019.263.07.37.057-.02 0-.584-.07-.214-.032.295.032.584.07.879.1 1.086.107 2.172.17 3.258.227 2.561.125 5.129.245 7.69.238 1.274 0 2.549-.044 3.817-.138.659-.05 1.318-.126 1.977-.188.37-.038-.012 0-.075.012l.402-.056c.238-.038.477-.082.709-.132.483-.1.96-.226 1.425-.39.1-.03.195-.075.295-.106.383-.126-.515.276-.176.075.207-.119.427-.213.634-.332.113-.07.226-.145.34-.214.42-.263-.189.082-.17.132.05.132.533-.854.282-.232-.213.52.063-.302.17-.314-.088.006-.145.615-.132.307 0-.138.094-.345.126-.477.338-1.607 2.316-2.693 3.86-2.19 1.701.552 2.555 2.134 2.191 3.86v.013Z"/><path fill="#57392D" d="M77.292 30.227a30.766 30.766 0 0 0-13.453 8.45l-.175-.653c1.117.465 2.266-.245 3.277-.69.941-.415 1.883-.823 2.837-1.212a118.53 118.53 0 0 1 6.133-2.342c1.124-.395 3.177-1.481 4.307-.527 1.374 1.155-.578 2.473-1.47 3.007a95.347 95.347 0 0 0-5.505 3.54c-.32.22-1.745.974-1.073 1.495.25.194 1.08-.113 1.35-.182.941-.233 1.864-.553 2.774-.892 1.814-.684 3.59-1.488 5.474-1.971.91-.232 3.748-1.155 3.534.634-.113.91-.991 1.588-1.588 2.19l-1.268 1.288c-.358.364-1.092.866-1.243 1.356-.289.954.427.734.76.634.295-.088.584-.226.866-.345.559-.233 1.118-.465 1.67-.697l3.622-1.513c.34-.144.584.307.446.577-.364.697-.741 1.394-1.099 2.103-.188.37-.515.936.22.98.446.025.854-.415 1.136-.685.37-.345.923.208.553.553-.722.684-2.028 1.456-2.788.351-.276-.395-.175-.834.013-1.243.39-.834.854-1.638 1.28-2.454l.446.577c-1.023.427-2.046.854-3.063 1.281-1.017.427-2.116 1.023-3.208 1.312-1.494.395-2.254-.904-1.337-2.103.634-.835 1.488-1.557 2.222-2.304.377-.376.779-.747 1.13-1.149.126-.15.308-.326.364-.527.182-.659-.377-.414-.772-.37-1.971.22-3.842.979-5.669 1.707-.904.358-1.814.722-2.737 1.03-.866.288-1.877.665-2.793.671-.528 0-1.061-.175-1.25-.715-.225-.647.264-1.23.735-1.614 1.739-1.406 3.742-2.573 5.65-3.728.49-.302 2.875-1.407 2.122-2.16-.603-.602-2.097.145-2.744.37-2.354.81-4.676 1.69-6.974 2.637-1.243.515-2.473 1.074-3.71 1.607-.904.39-1.864.697-2.819.295-.27-.113-.389-.42-.175-.653a31.448 31.448 0 0 1 13.798-8.65c.483-.15.69.609.207.76l-.013-.026Z"/><path fill="#fff" d="M99.603 43.667c.941-3.892.891-1.845-3.71-4.4-4.928-.019-1.375.22-2.292 3.314-.916 3.095.515 3.937 2.894 4.727 2.38.791 2.392-.728 3.102-3.64h.006Z"/><path fill="#fff" d="M91.354 41.602c.778-3.93-.056-2.561 5.116-2.617 4.407 2.366-.52-.157-.998 3.057-.47 3.207-.408 4.758-2.869 4.319-2.454-.446-1.84-1.808-1.249-4.759Z"/><path fill="#fff" d="M94.275 47.473c-2.158-.625-3.673-1.938-3.385-2.934.288-.996 2.271-1.296 4.43-.672 2.157.625 3.673 1.94 3.385 2.935-.289.996-2.272 1.296-4.43.671Z"/><path fill="#F2EDEC" d="M95.46 42.195c-2.281-.658-3.898-1.999-3.611-2.995.287-.996 2.37-1.27 4.651-.613 2.282.658 3.9 1.999 3.613 2.995-.288.996-2.37 1.27-4.652.613Z"/><path fill="#fff" d="M85.446 50.431c-1.699-1.361-2.569-3.099-1.942-3.88.626-.782 2.512-.313 4.21 1.048 1.7 1.362 2.57 3.1 1.943 3.881-.626.782-2.511.313-4.21-1.049Z"/><path fill="#fff" d="M91.693 49.129c2.41-3.013 1.544-1.262-1.563-5.254-4.413-1.921-1.318-.34-3.39 1.996-2.065 2.335-1.117 3.622.703 5.23 1.82 1.606 2.442.294 4.25-1.966v-.006Z"/><path fill="#fff" d="M85.114 44.15c2.279-3.113.98-2.246 5.644-.294 3.007 3.76-.408-.34-2.122 2.266-1.714 2.605-2.285 3.974-4.313 2.643-2.027-1.337-.923-2.279.791-4.614Z"/><path fill="#fff" d="M72.825 48.126c-.03-1.002 1.71-1.866 3.887-1.93 2.176-.065 3.965.694 3.994 1.696.03 1.001-1.71 1.866-3.886 1.93-2.177.065-3.965-.695-3.995-1.696Z"/><path fill="#fff" d="M80.864 45.005c.05-3.861.572-2.38-4.331-3.635-4.665 1.193.527-.025.332 3.089-.2 3.113-.57 4.55 1.852 4.701 2.423.157 2.11-1.268 2.147-4.162v.007Z"/><path fill="#fff" d="M72.61 45.023c-.108-3.854-.472-1.933 4.406-3.258 4.683 1.124 1.262.521 1.507 3.635.245 3.114-1.287 3.566-3.704 3.754-2.417.188-2.128-1.237-2.21-4.13Z"/><path fill="#fff" d="M64.142 48.635c-.855-.522-.629-2.452.505-4.31 1.135-1.859 2.748-2.942 3.603-2.42.855.522.629 2.452-.506 4.31-1.134 1.859-2.747 2.942-3.602 2.42Z"/><path fill="#fff" d="M65.911 40.19c-3.202-2.147-1.682-1.777-5.405 1.645-1.55 4.557.27-.459 2.769 1.412 2.498 1.864 3.496 2.963 4.953 1.017 1.45-1.946.087-2.46-2.31-4.074h-.007Z"/><path fill="#fff" d="M61.423 47.114c-3.29-2.015-1.877-.66-.32-5.474 3.496-3.308 1.123-.772 3.866.722 2.737 1.494 2.285 3.026 1.124 5.154s-2.197 1.105-4.664-.402h-.006Z"/><path fill="#F2EDEC" d="M72.545 42.918c-.03-1.002 1.812-1.869 4.113-1.937 2.3-.069 4.19.688 4.22 1.69.03 1.001-1.812 1.868-4.113 1.937-2.3.068-4.19-.689-4.22-1.69Z"/><path fill="#F2EDEC" d="M59.622 46.026c-.855-.522-.577-2.538.623-4.503 1.2-1.965 2.865-3.135 3.72-2.613.855.523.576 2.539-.623 4.504-1.2 1.965-2.865 3.134-3.72 2.612Z"/><path fill="#F2EDEC" d="M88.632 46.296c-1.797-1.44-2.745-3.24-2.119-4.022.627-.782 2.591-.249 4.388 1.19 1.796 1.44 2.745 3.24 2.118 4.023-.626.782-2.59.249-4.387-1.19Z"/><path fill="#fff" d="M63.149 41.163c-2.505-3.12-.917-1.833-5.75.245-3.026 3.885-.666 1.218 1.224 3.841 1.89 2.618 3.434 1.997 5.512.597 2.084-1.4.89-2.342-.986-4.683Z"/><path fill="#fff" d="M56.476 46.43c-2.63-3.02-2.06-1.52 1.06-5.644 4.57-2.04-.445.32 1.809 2.655 2.253 2.336 3.515 3.233 1.663 4.91-1.852 1.67-2.555.345-4.526-1.921h-.006Z"/><path fill="#fff" d="M58.514 48.596c-.612-.837.363-2.59 2.177-3.916s3.78-1.722 4.392-.885c.611.837-.363 2.59-2.177 3.916-1.814 1.325-3.78 1.722-4.392.885Z"/><path fill="#F2EDEC" d="M54.867 44.566c-.613-.836.444-2.652 2.36-4.055 1.915-1.404 3.965-1.864 4.577-1.028.613.836-.443 2.652-2.36 4.056-1.915 1.403-3.964 1.863-4.577 1.027Z"/><path fill="#fff" d="M71.234 45.287c-.778-3.923.032-2.046-5.216-2.435-4.476 2.052-1.155.778-.684 3.973.47 3.195 2.121 3.352 4.614 3.076 2.492-.282 1.87-1.663 1.28-4.608l.006-.006Z"/><path fill="#fff" d="M62.879 46.882c-.942-3.892-1.13-2.298 3.54-4.52 4.998.295-.54.081.377 3.189.923 3.113 1.626 4.495-.785 5.122-2.416.628-2.429-.872-3.132-3.791Z"/><path fill="#fff" d="M63.692 49.742c-.157-1.025 1.517-2.13 3.737-2.47 2.221-.34 4.149.215 4.305 1.24.157 1.024-1.516 2.13-3.737 2.47-2.22.34-4.148-.215-4.305-1.24Z"/><path fill="#F2EDEC" d="M62.317 44.49c-.158-1.025 1.617-2.149 3.964-2.51 2.347-.363 4.378.174 4.536 1.199.158 1.024-1.617 2.148-3.964 2.51-2.347.362-4.378-.175-4.536-1.2Z"/><path fill="#fff" d="M92.227 36.549c2.416-3.19 1.556-1.337-1.639-5.518-4.507-1.99-1.343-.352-3.421 2.122-2.078 2.473-1.099 3.816.766 5.492 1.864 1.677 2.486.29 4.3-2.103l-.006.007Z"/><path fill="#fff" d="M85.49 31.351c2.286-3.29.968-2.367 5.732-.352 3.095 3.93-.42-.351-2.134 2.405-1.72 2.756-2.279 4.2-4.357 2.812-2.071-1.387-.96-2.392.754-4.859l.006-.006Z"/><path fill="#fff" d="M85.823 37.91c-1.728-1.436-2.591-3.246-1.93-4.043.663-.798 2.601-.28 4.33 1.155 1.727 1.436 2.591 3.246 1.929 4.044-.663.797-2.6.28-4.329-1.156Z"/><path fill="#F2EDEC" d="M89.021 33.543c-1.828-1.515-2.774-3.39-2.113-4.189.662-.798 2.68-.217 4.509 1.299 1.828 1.515 2.774 3.39 2.113 4.189-.662.798-2.68.217-4.509-1.299Z"/><path fill="#C4BCC8" d="M48.556 154.281c-12.891 0-23.341-3.871-23.341-8.645 0-4.775 10.45-8.645 23.34-8.645 12.892 0 23.342 3.87 23.342 8.645 0 4.774-10.45 8.645-23.341 8.645Z"/><path fill="#E9D9EA" fill-rule="evenodd" d="M6.377 118.785c-5.16-7.158-9.163-15.95-3.907-20.523 6.224-5.412 14.696-1.332 21.327 7.4 1.712 2.256 4.011 4.763 6.354 7.331a297.456 297.456 0 0 1 3.622 4.011c-.12-.061-.25-.121-.372-.182-4.002-1.902-9.241-4.4-12.206-8.299-5.844-7.702-12.12-9.233-15.596-6.216-3.475 3.018 2.56 15.276 12.648 18.423 7.832 2.446 15.742 3.622 19.503 1.15 3.034 4.201 4.478 7.953 1.729 10.339-5.654 4.91-13.573.553-26.212-7.245-2.628-1.625-5.04-3.648-6.89-6.215v.026Z" clip-rule="evenodd"/><path fill="#E9D9EA" d="M31.266 140.881c0 2.628 7.936 5.619 17.722 5.619 9.786 0 17.722-2.991 17.722-5.619 0-2.628-7.936-4.755-17.722-4.755-9.786 0-17.722 2.127-17.722 4.755Z"/><path fill="#E9D9EA" d="M49.412 105.869c0 20.056-3.839 40.199 4.754 40.199 8.594 0 23.55-7.348 26.808-28.528 5.187-33.715 4.323-39.335-10.374-30.257-7.313 4.512-21.188-1.47-21.188 18.586Z"/><path fill="#E9D9EA" d="M57.2 102.411c0 20.056-4.797 43.64-13.39 43.64s-23.549-7.348-26.808-28.529c-5.187-33.715-4.322-39.334 10.374-30.257 7.314 4.513 29.825-4.91 29.825 15.146Z"/><path fill="#57392D" d="M48.988 103.276c-19.336 0-35.012-6.387-35.012-14.264 0-7.878 15.676-14.264 35.012-14.264C68.325 74.748 84 81.133 84 89.011c0 7.877-15.675 14.264-35.012 14.264Z"/><path fill="#A77C55" d="M15.273 90.74c0 6.925 13.797 12.536 32.418 12.536s35.444-5.61 35.444-12.535-16.823-13.4-35.444-13.4c-18.62 0-32.418 6.475-32.418 13.4Z"/><path fill="#fff" d="M29.892 86.833c.017.095.242.744.216.787.06-.07-.441-.752-.165-.433.07.087.147.234.2.338.328.613-.563-.519-.027-.06.087.077.216.18.286.276.259.354-.848-.536-.139-.095.164.103 1.332.925 1.47.812.026-.017-.83-.31-.363-.164.138.043.268.104.406.147.32.112.649.207.977.303a22.13 22.13 0 0 0 1.686.371c.164.026 1.046.156.674.104-.458-.06.225.026.26.026.276.035.553.06.838.087a72.76 72.76 0 0 0 5.464.32c3.587.069 7.175-.079 10.754-.251 1.478-.07 2.948-.139 4.417-.251a65.67 65.67 0 0 0 2.248-.216c.156-.017.363-.017.519-.06-.026.008-.796.12-.294.034.398-.07.795-.121 1.193-.199 1.565-.285 3.077-.709 4.582-1.228.285-.095.648-.069-.104.061.199-.035.432-.19.605-.277.354-.164.7-.346 1.037-.536.337-.19.675-.397 1.003-.613.138-.096.277-.2.415-.286.528-.32-.77.64.07-.043l.872 6.786c-.32-.181-.648-.363-.976-.527-.13-.06-1.245-.545-.312-.164a19.728 19.728 0 0 0-2.083-.71 28.944 28.944 0 0 0-3.069-.674 11.43 11.43 0 0 0-.553-.086c.536.07.544.078.043.009-3.095-.286-6.181-.337-9.285-.312-6.751.07-13.46.571-20.16 1.358-1.33.155.752-.225-.38.052-.294.069-1.09.466-.285 0 .735-.433 1.089-1.323 1.098-2.153l-.89-2.1-1.185-.71c.12-.112 1.885.338 2.092.372 1.366.199-.856-.095.519.07a115.415 115.415 0 0 0 11.74.873c3.362.077 6.734 0 10.088-.225 1.539-.104 3.078-.234 4.608-.398.838-.086 1.668-.19 2.507-.294-.925.121.45-.069.519-.078.484-.069.968-.147 1.452-.225.285-.043 1.556-.112 1.694-.38l-.484.199c.398-.242.337-.199-.181.147l-.683 1.193c.12-.458.103-.346-.035.354l.087.605c-.139-.44-.096-.363.138.243-.39-.822.665.561-.017-.018 1.011.865-.649-.181.484.277a6.665 6.665 0 0 0-1.003-.294c-.337-.078-.7-.164-1.046-.19 1.175.086-.216-.018-.39-.035a124.74 124.74 0 0 0-7.59-.622c-6.76-.346-13.555-.13-20.28.648l-1.263.156c-1.322.164.71-.242-.259.043-.346.104-1.003.458-.043-.06.804-.433 1.288-1.47 1.357-2.352.043-.536-.156-1.132-.527-1.521l-.355-.303c.424.216.38.199-.138-.043.104.138.778.225.951.268.519.13 1.046.25 1.573.363.787.173 1.582.328 2.378.467.328.06.665.112.994.164.207.035 1.09.156.25.043 1.73.225 3.476.372 5.222.432 1.478.052 2.957.052 4.435 0a56.525 56.525 0 0 0 3.613-.259c.165-.017 1.807-.216.856-.086a53.68 53.68 0 0 0 4.366-.787c.709-.156 1.418-.311 2.11-.519a12.938 12.938 0 0 0 1.365-.467c-.536.234-.657.277-.363.147.208-.112.432-.216.64-.328.164-.095.328-.19.484-.294.38-.268.311-.207-.208.181.01.018.562-.561.571-.561-.398.544-.467.622-.216.25.216-.406.173-.294-.112.337l.077-.25c.096-.459.078-.337-.043.354.078.9.519 1.634 1.34 2.205.57.242.597.276.07.095-.77-.173-1.53-.38-2.318-.502.986.156-.302-.017-.423-.026a32.36 32.36 0 0 0-1.582-.086 60.17 60.17 0 0 0-2.792 0c-1.799.043-3.597.138-5.395.233a296.256 296.256 0 0 0-16.711 1.358c-1.227.13.89-.19-.32.051-.483.096-.968.173-1.443.286-.354.086-.709.181-1.063.294-.234.077-.459.155-.692.242.467-.2.476-.19.035.017l.873-6.786c.7.622-.562-.225.207.155.113.052 1.262.606.71.39-.554-.217.5.155.622.19.328.103.665.19 1.002.268.735.172 1.479.32 2.222.44.26.044 1.262.312.233.044.329.086.71.078 1.038.103 1.392.122 2.783.156 4.184.113.7-.026 1.392-.07 2.092-.13.337-.034.709-.034 1.038-.112-1.098.242.164-.035.406-.07a35.573 35.573 0 0 0 6.233-1.642c.328-.121.648-.25.977-.372 1.089-.415-.804.38.25-.103 1.271-.58 2.516-1.202 3.718-1.92a31.992 31.992 0 0 0 1.763-1.132c.337-.234.657-.475.994-.709.26-.199.19-.138-.224.173.726-.743.492-.13-.718 1.85l.588 2.179-.095-.225c.268.579.683.95 1.227 1.124.398.345.078.043-.198-.035a29.417 29.417 0 0 0-1.773-.432c-.527-.113-1.054-.2-1.59-.294-.856-.147-.234-.043-.052-.017a50.18 50.18 0 0 0-1.21-.139c-2.43-.233-4.876-.268-7.314-.25-2.438.017-4.703.025-7.037.216-.32.025-1.643.216-.735.06-.562.095-1.115.19-1.66.329-.544.138-1.08.302-1.616.475-.173.052-.735.337-.017-.017-.424.207-.804.614-.234 0l.06-2.222c.623-1.193.502-2.049-.354-2.55.726.536-.242-.173-.242-.06 0 .112 1.53.475 1.625.5a25.54 25.54 0 0 0 1.66.39c.25.052.493.086.744.138.942.182-.692-.034.345.052 1.038.086 2.006.156 3.026.147.57 0 1.133-.035 1.703-.078.311-.026.631-.06.942-.086-.63.06-.242.034.165-.035 1.054-.181 2.1-.423 3.13-.735.544-.164 1.071-.371 1.607-.553.683-.225-.89.51-.017 0 .225-.13.467-.242.683-.38.199-.121.518-.26.657-.433-.06.078-.683.657-.156.087.06-.07.38-.433.415-.433-.372.044-.406.692-.164.173.32-.682-.06.19-.087.277.312-.864-.026.795-.017.208.009-.588.139.855.017.32-.103-.32-.043-.174.182.449-.19-.294-.173-.277.052.043.302.614-.303-.112.25.26.632.432-.207-.044-.31-.13-.39-.303.795.156.293.138-.242 0-.562-.147-.795-.207-.173-.043-.795-.113-.112-.035.76.087-.251 0-.407-.008a19.486 19.486 0 0 0-1.59.008c-.71.026-1.41.07-2.118.13l-.848.078c-.147.017-1.305.155-.899.095.502-.07-.371.06-.475.069-.415.069-.839.138-1.254.216-.25.043-.501.104-.76.147-.139.026-.268.07-.398.112 1.245-.337 1.936-1.314 2.092-2.93l-3.173-4.167c.45.173.9.328 1.375.432.942.216.026-.086-.035.026.017-.026.58.017.64.026.925.06-.527.181-.06.043.086-.026.726-.216.743-.199-.156-.112-.735.45-.208.035-.31.242-.415.475-.12.06.293-.415-.545.761-.26.303.216-.354-.26 1.029-.112.268.12-.614-.052.355-.026.45-.044-.139-.009-.459.008-.597.087-.519.078.968.052.458-.034-.63-.017-.026.147.303-.25-.502.19.26.285.346.58.397.727.51.441.337-.285-.173-.112-.104.51.199l4.202-7.228c1.98 2.075 2.446 5.006 1.34 7.625-.951 2.257-2.827 3.709-4.885 4.928-1.945 1.15-4.823.501-5.913-1.548-1.089-2.048-.527-4.685 1.548-5.913.389-.233.778-.466 1.158-.717.432-.277.139-.19-.069.06.087-.104.657-.804.337-.302-.155.216-.173.225-.06.043.112-.208.103-.164-.035.121-.043.795.078-.605-.078.25-.13.71-.173-.432-.017.303.095.484.19.882.562 1.271-1.28-1.34-1.72-3.614-.674-5.239.985-1.521 3.043-2.654 4.884-1.988 2.265.821 3.916 2.395 4.616 4.746.597 2.014.286 4.383-.76 6.19-2.352 4.054-7.755 4.85-11.835 3.259-1.842-.718-3.121-2.11-3.173-4.167-.086-3.778 3.285-5.334 6.458-5.844 2.671-.432 5.446-.813 8.16-.743 2.17.06 4.479.484 6.32 1.703 2.568 1.711 3.96 4.78 3.242 7.832-1.228 5.16-6.977 7.443-11.645 8.334-4.953.942-10.192.804-14.999-.804-1.357-.459-2.593-1.03-3.613-2.05-1.625-1.624-2.118-4.261-1.003-6.301 1.4-2.55 4.504-3.614 7.21-4.184 4.798-1.003 9.967-.908 14.852-.761 2.68.078 5.36.328 7.996.821 3.017.562 6.181 1.487 7.236 4.729 1.184 3.674-2.29 6.086-4.902 7.78-1.876 1.21-3.855 2.196-5.904 3.06a39.775 39.775 0 0 1-14.904 3.13c-2.593.035-5.196-.233-7.737-.7-2.922-.536-5.654-1.53-7.893-3.545-1.98-1.78-1.547-5.584.873-6.786 3.847-1.91 8.11-2.144 12.32-2.533 4.21-.389 8.151-.683 12.24-.899 4.09-.216 8.343-.475 12.492.19 2.42.39 5.092 1.08 6.432 3.337 1.34 2.257.977 5.023-.268 7.123-1.92 3.242-5.662 4.686-9.164 5.481a63.064 63.064 0 0 1-12.336 1.556c-4.14.104-8.308-.259-12.397-.968S26.261 92.15 26.34 86.617c.043-2.905 2.092-5.239 4.893-5.887 2.092-.484 4.348-.605 6.492-.804 4.072-.39 8.16-.562 12.258-.545 4.098.017 8.178.25 12.25.692 2.196.233 4.366.406 6.406 1.27 2.222.934 3.994 2.819 4.6 5.188.708 2.792-.39 5.472-2.672 7.132-1.625 1.193-3.7 1.383-5.628 1.66-4.27.605-8.559 1.037-12.872 1.192-4.063.147-8.135.078-12.19-.207a111.016 111.016 0 0 1-5.86-.57c-2.214-.269-4.738-.312-6.744-1.401-2.8-1.522-3.579-5.187-2.04-7.876 1.46-2.55 4.098-3.164 6.769-3.51 4.037-.527 8.092-.898 12.155-1.14a172.58 172.58 0 0 1 12.137-.295c3.838.044 7.763.286 11.48 1.314a24.649 24.649 0 0 1 5.602 2.326c2.23 1.262 3.052 5.014.874 6.786-5.879 4.79-13.14 5.732-20.489 6.095-4.02.199-8.048.389-12.068.311-3.795-.078-7.841-.233-11.498-1.297-3.873-1.124-7.728-3.674-8.619-7.875-.467-2.205.649-4.78 3.017-5.317 2.17-.492 4.815.657 5.317 3.017l-.017-.043Z"/><path fill="#57392D" d="M49.464 69.725a43.463 43.463 0 0 1 19.001 11.913c.303.328.13.743-.242.899-1.141.475-2.3.233-3.415-.208-1.418-.562-2.792-1.236-4.193-1.833a162.132 162.132 0 0 0-8.67-3.388c-1.358-.493-2.732-1.038-4.124-1.418-.51-.138-1.167-.294-1.686-.087-1.331.528.294 1.747.865 2.11 2.541 1.608 5.126 3.13 7.616 4.824.942.648 4.746 3.043 2.265 4.365-.787.424-1.824.121-2.628-.069-1.366-.32-2.689-.778-3.994-1.27-2.61-.986-5.161-2.162-7.884-2.802a16.804 16.804 0 0 0-1.971-.354c-.13-.017-.994-.173-1.08-.078-.269.303.12.804.284 1.029.89 1.227 2.17 2.265 3.242 3.345.822.83 2.265 1.91 2.23 3.242-.025.943-.847 1.496-1.728 1.47-1.453-.043-3.078-1.063-4.392-1.608-1.66-.692-3.328-1.392-4.988-2.084l.614-.795c.562 1.08 1.167 2.153 1.694 3.25.285.597.493 1.237.087 1.833-1.046 1.53-2.845.459-3.839-.484-.51-.475.26-1.245.761-.76.398.371.95.976 1.565.942 1.011-.06.562-.839.302-1.349-.484-.968-1.002-1.928-1.513-2.896-.19-.372.139-.994.614-.795 1.41.588 2.819 1.175 4.219 1.763 1.4.588 2.714 1.263 4.115 1.712.467.147 1.617.57 1.193-.821-.104-.337-.597-.735-.83-.977-.484-.493-.968-.986-1.461-1.478-.925-.943-2.023-1.833-2.792-2.914-.45-.63-.83-1.53-.38-2.265.5-.83 1.789-.415 2.576-.31 2.645.362 5.135 1.348 7.598 2.325 1.245.492 2.499.994 3.77 1.417.579.19 1.158.372 1.746.528.432.112 1.772.64 2.213.337.968-.648-1.09-1.79-1.478-2.058-.562-.389-1.124-.778-1.695-1.158a122.848 122.848 0 0 0-3.786-2.447c-1.133-.708-2.386-1.313-3.45-2.126-.7-.528-1.374-1.271-1.253-2.213.26-2.04 2.836-1.59 4.184-1.15a152.998 152.998 0 0 1 9.63 3.562c1.444.579 2.87 1.184 4.297 1.806 1.565.683 3.536 2.006 5.265 1.28l-.242.899A42.369 42.369 0 0 0 49.17 70.745c-.666-.208-.38-1.245.285-1.046l.009.026Z"/><path fill="#fff" d="M22.716 94.294c3.277-1.09 5.248-2.248 3.986-6.51-1.263-4.262 3.63-4.59-3.156-4.565-6.328 3.519-6.397.71-5.109 6.06.968 4.02.994 6.112 4.27 5.015h.01Z"/><path fill="#fff" d="M28.085 92.988c-3.38.614-3.294-1.521-3.951-5.947-.648-4.418-7.443-.951-1.375-4.21 7.124.077 5.965-1.807 7.046 3.604.804 4.064 1.66 5.94-1.72 6.553Z"/><path fill="#fff" d="M19.672 93.594c-.397-1.37 1.69-3.18 4.662-4.04 2.971-.861 5.702-.447 6.1.924.396 1.371-1.69 3.18-4.663 4.041-2.971.86-5.702.447-6.1-.925Z"/><path fill="#F2EDEC" d="M17.741 86.403c-.395-1.372 1.832-3.218 4.974-4.124 3.143-.906 6.011-.528 6.407.844.395 1.371-1.832 3.218-4.975 4.124-3.142.906-6.01.528-6.406-.844Z"/><path fill="#fff" d="M32.15 100.033c-.863-1.077.334-3.47 2.675-5.345 2.34-1.874 4.936-2.521 5.798-1.444.863 1.076-.334 3.47-2.674 5.344-2.34 1.875-4.937 2.521-5.8 1.445Z"/><path fill="#fff" d="M35.19 99.507c2.508-2.214 3.813-3.977.97-7.202-2.845-3.216 1.417-5.394-4.67-2.749-4.27 5.507-5.463 3.087-2.152 7.236 2.49 3.112 3.346 4.928 5.853 2.706v.008Z"/><path fill="#fff" d="M39.479 96.29c-2.793 1.842-3.57-.051-5.94-3.639-2.36-3.587-7.062 2.058-2.921-3.12 6.432-2.69 4.633-3.882 7.771.406 2.352 3.216 3.882 4.52 1.09 6.354Z"/><path fill="#fff" d="M49.82 97.768c-2.996-.09-5.393-1.28-5.352-2.659.041-1.379 2.504-2.425 5.5-2.336 2.998.089 5.394 1.28 5.353 2.658-.04 1.38-2.503 2.426-5.5 2.337Z"/><path fill="#fff" d="M47.216 96.844c3.337-.216 2.827-2.187 2.55-6.475-.276-4.288 6.882-2.61.458-4.253-6.751 1.72-6.034-.312-5.965 5.005.052 3.985-.38 5.939 2.957 5.732v-.01Z"/><path fill="#fff" d="M52.576 96.835c-3.328-.26-5.438-.881-5.1-5.17.336-4.287-4.375-3.457 2.074-5.005 6.726 1.824 6.224-.821 6.069 4.487-.113 3.985.285 5.948-3.043 5.688Z"/><path fill="#fff" d="M62.322 92.775c-1.563-2.56-1.874-5.217-.697-5.936 1.178-.719 3.4.773 4.962 3.332 1.562 2.56 1.873 5.217.695 5.936-1.177.719-3.398-.773-4.96-3.332Z"/><path fill="#fff" d="M61.662 90.1c1.996 2.68 3.371 1.168 6.82-1.4 3.441-2.567 5.948 4.34 3.813-1.945-5.135-4.711-3.035-5.221-7.444-2.265-3.31 2.222-5.186 2.93-3.18 5.61h-.01Z"/><path fill="#fff" d="M64.6 94.579c-1.598-2.93-2.23-5.04 1.548-7.097 3.77-2.058.51-5.55 5.326-.995 2.144 6.63 4.089 4.764-.441 7.539-3.398 2.083-4.824 3.492-6.424.553h-.008Z"/><path fill="#F2EDEC" d="M49.904 90.58c-3.169-.093-5.704-1.288-5.664-2.667.041-1.38 2.643-2.421 5.812-2.327 3.17.094 5.705 1.288 5.664 2.668-.041 1.379-2.643 2.42-5.812 2.326Z"/><path fill="#F2EDEC" d="M68.38 88.919c-1.65-2.706-2.035-5.483-.857-6.201 1.177-.72 3.471.892 5.123 3.597 1.651 2.707 2.036 5.483.858 6.202-1.178.719-3.472-.892-5.123-3.598Z"/><path fill="#F2EDEC" d="M27.52 94.547c-.863-1.077.443-3.557 2.917-5.54 2.474-1.981 5.18-2.715 6.042-1.638.863 1.076-.443 3.556-2.917 5.538-2.475 1.983-5.18 2.717-6.042 1.64Z"/><path fill="#fff" d="M67.29 92.28c2.87 1.927 4.987 2.783 7.59-.822 2.602-3.605 5.852.06 1.685-5.29-6.656-2.862-4.469-4.634-7.918-.338-2.585 3.225-4.228 4.522-1.358 6.45Z"/><path fill="#fff" d="M71.603 95.72c-2.55-2.3-.812-3.536 2.291-6.76 3.104-3.216-3.804-6.467 2.49-3.657 4.296 5.688 5.083 3.614 1.46 7.772-2.714 3.12-3.682 4.945-6.232 2.645h-.009Z"/><path fill="#fff" d="M68.984 94.83c-2.498-1.825-3.84-4.24-2.998-5.392.842-1.153 3.55-.607 6.048 1.218 2.498 1.826 3.84 4.24 2.998 5.393-.843 1.152-3.55.607-6.048-1.219Z"/><path fill="#F2EDEC" d="M73.743 89.088c-2.638-1.933-4.093-4.433-3.249-5.585.844-1.151 3.666-.518 6.305 1.415 2.638 1.933 4.092 4.433 3.249 5.585-.844 1.152-3.667.518-6.305-1.415Z"/><path fill="#fff" d="M59.276 97.855c3.432.39 5.705.165 6.354-4.236.648-4.4 5.221-2.645-.943-5.472-7.227.536-6.103-2.049-7.184 3.354-.804 4.055-1.668 5.965 1.764 6.346l.009.008Z"/><path fill="#fff" d="M64.705 98.919c-3.329-.865-2.352-2.767-1.081-7.055 1.27-4.288-6.354-3.985.519-4.391 6.431 3.06 6.18.864 4.875 6.224-.977 4.02-.994 6.086-4.313 5.222Z"/><path fill="#fff" d="M61.965 99.345c-3.058-.468-5.362-1.991-5.146-3.403.215-1.41 2.87-2.175 5.928-1.707 3.058.468 5.362 1.991 5.146 3.402-.216 1.411-2.87 2.176-5.928 1.708Z"/><path fill="#F2EDEC" d="M63.54 92.052c-3.233-.499-5.677-2.047-5.459-3.458.218-1.41 3.014-2.15 6.247-1.651 3.232.498 5.676 2.046 5.458 3.457-.218 1.41-3.014 2.15-6.247 1.652Z"/><path fill="#fff" d="M34.525 82.364c2.568-2.309 3.916-4.159 1.055-7.565-2.862-3.406 1.487-5.662-4.712-2.922-4.4 5.758-5.584 3.208-2.256 7.6 2.498 3.293 3.354 5.203 5.922 2.895l-.009-.008Z"/><path fill="#fff" d="M38.917 79.01c-2.853 1.91-3.631-.078-6-3.874-2.368-3.795-7.2 2.11-2.939-3.31 6.561-2.775 4.746-4.046 7.893.484 2.36 3.397 3.899 4.78 1.037 6.69l.009.01Z"/><path fill="#fff" d="M31.467 82.926c-.912-1.098.277-3.59 2.657-5.568 2.38-1.977 5.048-2.69 5.96-1.591.913 1.098-.277 3.59-2.657 5.568-2.38 1.977-5.048 2.69-5.96 1.591Z"/><path fill="#F2EDEC" d="M26.813 77.113c-.911-1.099.392-3.682 2.91-5.769 2.518-2.086 5.298-2.887 6.209-1.788.91 1.1-.392 3.682-2.91 5.769-2.518 2.087-5.298 2.888-6.21 1.788Z"/><path fill="#A77C55" d="M25.258 99.29c-1.15 1.6-.994 3.562-.925 5.438l.26 6.397c.172 4.409.354 8.818.527 13.218.051 1.392-2.11 1.392-2.162 0-.19-4.694-.371-9.379-.562-14.074-.086-2.221-.207-4.434-.259-6.656-.043-1.885.121-3.838 1.262-5.412.804-1.115 2.68-.043 1.867 1.09h-.008Z"/><path fill="#A77C55" d="m24.748 122.951-.026.052.112-.259a4.69 4.69 0 0 0-.328 1.228l.034-.286a4.791 4.791 0 0 0 0 1.219l-.034-.285c.026.19.052.389.12.571l-.112-.26s.035.069.06.104l-.172-.216s.035.043.052.06l-.216-.173s.034.026.06.035l-.259-.112h.034c-.095 0-.19-.018-.285-.026h.035c-.095.017-.19.026-.285.043.026 0 .051 0 .077-.017l-.259.112.035-.026-.216.173.06-.061-.173.217s.043-.078.07-.121l-.113.259c.06-.164.104-.329.13-.493l-.035.285a2.627 2.627 0 0 0 0-.639l.034.285s-.008-.078-.017-.112c-.052-.294-.043-.571.113-.83.13-.225.389-.441.648-.493.527-.121 1.228.156 1.331.752.13.718.104 1.513-.26 2.17-.336.596-1.14.882-1.745.519a1.526 1.526 0 0 1-.71-.995 5.413 5.413 0 0 1-.129-1.789 6.68 6.68 0 0 1 .164-1.003 6.5 6.5 0 0 1 .355-.968c.104-.234.415-.432.648-.493.26-.069.605-.043.83.113.225.155.432.371.493.648l.034.285c0 .199-.051.381-.146.545l-.01-.018Z"/><path fill="#57392D" d="M25.12 122.407c.017.363.112.717.19 1.098.078.415.112.821.06 1.236-.086.7-.337 1.504-.977 1.893a.563.563 0 0 1-.743-.19.558.558 0 0 1 .19-.743c.026-.018.043-.026.06-.044-.034.026-.06.052-.017 0 .026-.026.121-.138.06-.052.079-.103.148-.224.191-.345-.026.052 0 0 0-.018.009-.034.026-.069.035-.103.026-.07.043-.147.06-.225.017-.078.035-.156.043-.234-.008.052 0-.017 0-.034 0-.052.009-.104.009-.156.043-.709-.242-1.374-.268-2.1-.009-.294.26-.536.536-.536.303 0 .527.25.536.536l.035.017Z"/></svg>
