<svg width="65" height="39" viewBox="0 0 65 39" fill="none" xmlns="http://www.w3.org/2000/svg">
<g clip-path="url(#clip0_1_211)">
<path d="M42.2305 1.37646H42.1657V3.01512H42.2954V1.37646H42.2305Z" fill="#C11F25"/>
<path d="M45.5389 22.4168H38.9221V39.0655H45.5389V22.4168Z" fill="#C11F25"/>
<path d="M45.5389 14.879H38.9221V21.5647H45.5389V14.879Z" fill="#C11F25"/>
<path d="M37.6896 21.5647H46.7715L46.3174 22.3512H38.2086L37.6896 21.5647Z" fill="#84010B"/>
<path d="M38.6627 15.9277C38.7924 15.9277 38.7924 15.8622 38.7924 15.7967C38.7924 15.6656 38.7275 15.6656 38.6627 15.6656C38.5978 15.6656 38.5329 15.7311 38.5329 15.7967C38.4681 15.7967 38.5329 15.9277 38.6627 15.9277Z" fill="#C11F25"/>
<path d="M45.7984 15.9277C45.9281 15.9277 45.9282 15.8622 45.9282 15.7967C45.9282 15.6656 45.8633 15.6656 45.7984 15.6656C45.7335 15.6656 45.6687 15.7311 45.6687 15.7967C45.6687 15.7967 45.7335 15.9277 45.7984 15.9277Z" fill="#C11F25"/>
<path d="M42.2305 2.94958L45.5389 14.879H38.9221L42.2305 2.94958Z" fill="#84010B"/>
<path d="M42.5549 2.5563H41.8413V4.19496H42.5549V2.5563Z" fill="#84010B"/>
<path d="M46.2525 17.4353H45.3443V21.5647H46.2525V17.4353Z" fill="#F6BFBF"/>
<path d="M39.1168 17.4353H38.2086V21.5647H39.1168V17.4353Z" fill="#F6BFBF"/>
<path d="M40.3493 26.7428C40.4791 26.7428 40.5439 25.9563 40.5439 25.0386C40.5439 24.0555 40.4142 23.3344 40.3493 23.3344C40.2196 23.3344 40.1547 24.121 40.1547 25.0386C40.0898 25.9563 40.2196 26.7428 40.3493 26.7428Z" fill="#EEE4D4"/>
<path d="M41.5818 26.7428C41.7116 26.7428 41.7764 25.9563 41.7764 25.0386C41.7764 24.0555 41.6467 23.3344 41.5818 23.3344C41.517 23.3344 41.3872 24.121 41.3872 25.0386C41.3223 25.9563 41.4521 26.7428 41.5818 26.7428Z" fill="#EEE4D4"/>
<path d="M43.982 26.7428C44.1118 26.7428 44.1766 25.9563 44.1766 25.0386C44.1766 24.0555 44.0469 23.3344 43.982 23.3344C43.9172 23.3344 43.7874 24.121 43.7874 25.0386C43.7874 25.9563 43.8523 26.7428 43.982 26.7428Z" fill="#EEE4D4"/>
<path d="M42.8144 26.7428C42.9441 26.7428 43.009 25.9563 43.009 25.0386C43.009 24.0555 42.8792 23.3344 42.8144 23.3344C42.7495 23.3344 42.6198 24.121 42.6198 25.0386C42.5549 25.9563 42.6846 26.7428 42.8144 26.7428Z" fill="#EEE4D4"/>
<path d="M44.3064 0H42.1657V1.37647H44.3064V0Z" fill="#C11F25"/>
<path d="M38.6627 15.6L38.2086 17.5664H39.1816L38.6627 15.6Z" fill="#84010B"/>
<path d="M45.7984 15.6L45.3443 17.5664H46.3174L45.7984 15.6Z" fill="#84010B"/>
<path d="M42.2305 21.0403C43.7225 21.0403 44.9551 19.795 44.9551 18.2874C44.9551 16.7798 43.7225 15.5345 42.2305 15.5345C40.7385 15.5345 39.506 16.7798 39.506 18.2874C39.506 19.8605 40.7385 21.0403 42.2305 21.0403Z" fill="#F6BFBF"/>
<path d="M42.2306 20.6471C43.528 20.6471 44.6308 19.5328 44.6308 18.2874C44.6308 16.9765 43.528 15.9277 42.2306 15.9277C40.9331 15.9277 39.8304 17.042 39.8304 18.2874C39.8952 19.5983 40.998 20.6471 42.2306 20.6471Z" fill="#EEE4D4"/>
<path d="M42.2305 18.6151C42.3603 18.6151 42.49 18.484 42.49 18.3529C42.49 18.2219 42.3603 18.0908 42.2305 18.0908C42.1008 18.0908 42.0359 18.2219 42.0359 18.3529C41.9711 18.4185 42.1008 18.6151 42.2305 18.6151Z" fill="#C11F25"/>
<path d="M42.2305 18.3529L41.1277 19.1395" stroke="#C11F25" stroke-width="0.758"/>
<path d="M42.2305 18.3529L43.5279 19.4672" stroke="#C11F25" stroke-width="0.758"/>
<path d="M35.6786 39V20.9093C35.6786 15.7966 32.0459 12.716 26.8563 12.716C23.483 12.716 20.3692 14.4202 19.3962 16.7143V4.06387H12.6497V39H19.3962V24.3177C19.3962 20.9093 21.2774 18.0908 24.6507 18.0908C27.6996 18.0908 28.997 19.2706 28.997 23.1378V39H35.6786Z" fill="#84010B"/>
<path d="M55.4641 39V4.06387H48.7176V39H55.4641ZM65 39V4.06387H58.2535V39H65Z" fill="#84010B"/>
<path d="M10.5739 31.0034H5.12475C3.56786 31.0034 2.65968 32.2487 2.65968 34.084C2.65968 35.2639 3.17864 36.3782 3.82735 36.7059H0V39.0655H10.5739V36.7059H6.16267C5.12475 36.7059 4.28144 36.0504 4.28144 34.8706C4.28144 33.7563 4.67066 33.363 5.77345 33.363H10.5739V31.0034ZM7.65469 24.5798C8.56287 24.5798 9.34132 25.4975 9.34132 26.6773C9.34132 27.4639 9.08184 27.7916 8.498 27.7916C7.8493 27.7916 7.52495 27.3328 7.33034 26.0218C7.2006 25.1697 7.07086 24.7109 6.87625 24.5143L7.65469 24.5798ZM10.5739 22.2202H5.64371C3.6976 22.2202 2.59481 23.2034 2.59481 26.0218C2.59481 28.9059 3.6976 29.8891 5.31936 29.9546V27.7916C4.60579 27.6605 4.21657 27.2672 4.21657 26.1529C4.21657 25.2353 4.54092 24.6454 4.99501 24.6454C5.51397 24.6454 5.77345 24.9731 5.83832 26.1529C6.0978 28.5126 6.35729 30.2168 8.56287 30.2168C9.79541 30.2168 10.6387 29.2992 10.6387 27.2672C10.6387 26.0874 10.2495 25.1697 9.73054 24.5798C9.92515 24.5798 10.1846 24.5143 10.4441 24.4487L10.5739 22.2202ZM7.78443 15.5345C8.56287 15.6655 9.08184 16.321 9.08184 17.2387C9.08184 18.1563 8.30339 18.9429 6.61677 18.9429C4.93014 18.9429 4.34631 18.1563 4.34631 17.1076C4.34631 16.2555 4.8004 15.5345 5.64371 15.4034V13.1092C3.82735 13.2403 2.65968 14.8134 2.65968 17.1076C2.65968 19.5983 3.82734 21.3025 6.61677 21.3025C9.40619 21.3025 10.7685 19.5983 10.7685 17.2387C10.7685 15.0756 9.6008 13.3714 7.78443 13.1748V15.5345ZM10.5739 4.3916L5.64371 7.34118L2.85429 4.32605V7.21008L5.83832 10.1597H0V12.4538H10.5739V10.0941H8.10878L7.07086 8.97983L10.5739 7.01344V4.3916Z" fill="#C11F25"/>
<path d="M23.6128 7.73445C23.6128 8.19328 23.483 8.45546 23.0289 8.45546C22.6397 8.45546 22.4451 8.19328 22.4451 7.73445V6.29244H24.521V5.63697H22.4451V4.71933H21.5369V7.86555C21.5369 8.6521 21.991 9.30756 23.0289 9.30756C24.1317 9.30756 24.521 8.6521 24.521 7.86555V6.88235H23.6128V7.73445ZM28.3483 9.11092V6.62017C28.3483 5.89916 27.8293 5.50588 27.0509 5.50588C26.5968 5.50588 26.0778 5.70252 25.9481 6.03025V4.32605H24.975V9.11092H25.9481V7.07899C25.9481 6.62017 26.2076 6.22689 26.7265 6.22689C27.1806 6.22689 27.3752 6.35798 27.3752 6.9479V9.11092H28.3483ZM29.7754 7.07899C29.8403 6.62017 30.1647 6.29244 30.5539 6.29244C30.9431 6.29244 31.3323 6.55462 31.3323 7.07899H29.7754ZM32.3054 7.60336C32.3054 6.16134 31.7216 5.57143 30.5539 5.57143C29.3862 5.57143 28.7375 6.29244 28.7375 7.34118C28.7375 8.58655 29.3862 9.24202 30.6188 9.24202C31.3972 9.24202 32.0459 8.84874 32.3054 8.12773H31.2675C31.2026 8.32437 30.8782 8.52101 30.6188 8.52101C30.1647 8.52101 29.8403 8.19328 29.7754 7.66891H32.3054V7.60336Z" fill="#C11F25"/>
</g>
<defs>
<clipPath id="clip0_1_211">
<rect width="65" height="39" fill="white"/>
</clipPath>
</defs>
</svg>
