<svg width="62" height="40" viewBox="0 0 62 40" fill="none" xmlns="http://www.w3.org/2000/svg">
<g filter="url(#filter0_f_117_2766)">
<path d="M29.0592 35V23.1662C29.0592 19.8357 26.6279 17.8161 23.1079 17.8161C20.8217 17.8161 18.717 18.9499 18.0638 20.438V12.1472H13.5278V35H18.0638V25.3983C18.0638 23.1662 19.3339 21.3238 21.5838 21.3238C23.6522 21.3238 24.5231 22.1032 24.5231 24.6188V35H29.0592Z" fill="#7500FF" stroke="#7500FF"/>
<path d="M42.377 35V12.1472H37.8409V35H42.377ZM48.8 35V12.1472H44.264V35H48.8Z" fill="#7500FF" stroke="#7500FF"/>
<path d="M44.6 34.88V33.0433C44.3744 34.015 44.1429 34.4304 43.4 34.88H44.6Z" fill="#7500FF" stroke="#7500FF"/>
<path d="M48.4 34.88V33.0433C48.6256 34.015 48.8571 34.4304 49.6 34.88H48.4Z" fill="#7500FF" stroke="#7500FF"/>
<path d="M44.6 12.26V14.0967C44.3744 13.125 44.1429 12.7097 43.4 12.26H44.6Z" fill="#7500FF" stroke="#7500FF"/>
<path d="M48.4 12.26V14.0967C48.6256 13.125 48.8571 12.7097 49.6 12.26H48.4Z" fill="#7500FF" stroke="#7500FF"/>
<path d="M12.1125 29.7561H8.44739C7.39503 29.7561 6.77813 30.571 6.77813 31.7757C6.77813 32.5551 7.14101 33.2638 7.57647 33.4763H5V34.9999H12.1125V33.4763H9.13687C8.44739 33.4763 7.86678 33.0512 7.86678 32.2717C7.86678 31.5631 8.1208 31.2796 8.88285 31.2796H12.1125V29.7561ZM10.1529 25.5399C10.7698 25.5399 11.2779 26.1422 11.2779 26.9217C11.2779 27.4177 11.0964 27.6657 10.6973 27.6657C10.2618 27.6657 10.0441 27.3823 9.89892 26.4965C9.79006 25.9296 9.71748 25.6462 9.60862 25.5044L10.1529 25.5399ZM12.1125 24.0163H8.81027C7.50389 24.0163 6.74184 24.6541 6.74184 26.4965C6.74184 28.3743 7.50389 29.0121 8.59254 29.0475V27.6303C8.1208 27.5594 7.83049 27.276 7.83049 26.5674C7.83049 25.965 8.04822 25.5753 8.37481 25.5753C8.7377 25.5753 8.88285 25.7879 8.95543 26.5674C9.13687 28.1263 9.31831 29.2247 10.8061 29.2247C11.6408 29.2247 12.2214 28.6223 12.2214 27.276C12.2214 26.4965 11.9674 25.8942 11.6045 25.5044C11.7496 25.5044 11.9311 25.469 12.0762 25.3981V24.0163H12.1125ZM10.2255 19.6584C10.7698 19.7292 11.0964 20.1898 11.0964 20.7922C11.0964 21.3945 10.5521 21.9259 9.42717 21.9259C8.30224 21.9259 7.90307 21.3945 7.90307 20.7213C7.90307 20.1544 8.22966 19.6938 8.77398 19.6229V18.064C7.54018 18.1703 6.77813 19.1978 6.77813 20.6859C6.77813 22.3157 7.57647 23.414 9.46346 23.414C11.3505 23.414 12.2577 22.3157 12.2577 20.7567C12.2577 19.3395 11.4593 18.2411 10.2255 18.0994V19.6584ZM12.1125 12.3596L8.81027 14.2729L6.92328 12.3242V14.202L8.91914 16.1153H5V17.6388H12.1125V16.0799H10.4432L9.75377 15.3358L12.1125 14.0603V12.3596Z" fill="#7500FF" stroke="#7500FF"/>
<path d="M22.6153 14.375C22.6153 14.6584 22.5064 14.8356 22.2161 14.8356C21.9621 14.8356 21.8169 14.6584 21.8169 14.375V13.4183H23.1959V12.9932H21.8169V12.3908H21.2V14.4458C21.2 14.9418 21.4903 15.367 22.2161 15.367C22.9419 15.367 23.2322 14.9418 23.2322 14.4458V13.8081H22.6153V14.375ZM25.8086 15.2607V13.6309C25.8086 13.1703 25.4457 12.8869 24.9377 12.8869C24.6111 12.8869 24.2845 13.0286 24.1757 13.2412V12.1428H23.5225V15.2607H24.1757V13.9498C24.1757 13.6309 24.3571 13.3829 24.6837 13.3829C24.974 13.3829 25.1191 13.4892 25.1191 13.8435V15.2607H25.8086ZM26.7521 13.9144C26.7884 13.5955 27.0061 13.4183 27.2602 13.4183C27.5142 13.4183 27.7682 13.5955 27.7682 13.9144H26.7521ZM28.4577 14.2687C28.4577 13.3475 28.0585 12.9223 27.2602 12.9223C26.4618 12.9223 26.0264 13.3829 26.0264 14.0915C26.0264 14.9064 26.4618 15.3316 27.2964 15.3316C27.8408 15.3316 28.2399 15.0836 28.4214 14.5875H27.7319C27.6956 14.7293 27.4779 14.8356 27.2964 14.8356C26.9699 14.8356 26.7521 14.623 26.7158 14.2687H28.4577Z" fill="#7500FF" stroke="#7500FF"/>
<path d="M38.2 34.88V33.0433C37.9744 34.015 37.7428 34.4304 37 34.88H38.2Z" fill="#7500FF" stroke="#7500FF"/>
<path d="M42 34.88V33.0433C42.2256 34.015 42.4572 34.4304 43.2 34.88H42Z" fill="#7500FF" stroke="#7500FF"/>
<path d="M38.2 12.26V14.0967C37.9744 13.125 37.7428 12.7097 37 12.26H38.2Z" fill="#7500FF" stroke="#7500FF"/>
<path d="M42 12.26V14.0967C42.2256 13.125 42.4572 12.7097 43.2 12.26H42Z" fill="#7500FF" stroke="#7500FF"/>
<g filter="url(#filter1_f_117_2766)">
<g filter="url(#filter2_f_117_2766)">
<path fill-rule="evenodd" clip-rule="evenodd" d="M35.7544 34.9287H31.0749L31.0749 23.4602V23.3857L30.5805 23.3857L30.2 22.8218H30.5835L30.5426 20.0394L30.8315 18.8971C30.7911 18.8734 30.7708 18.826 30.7708 18.7986C30.7708 18.7234 30.8089 18.6858 30.885 18.6858C30.9611 18.6858 30.9991 18.7234 30.9991 18.7986C30.9991 18.8528 30.9793 18.8875 30.9398 18.9026L31.0749 19.4365L31.0749 18.197L33.178 10.7522H33.1673V9.62423H33.3603V8.26529L33.4342 5H37.8V8.36733H33.4342L33.4336 9.62423H33.6619V10.7522H33.6528L35.7544 18.197V19.4397L35.8916 18.8974C35.8509 18.8738 35.8305 18.8261 35.8305 18.7986C35.8305 18.7234 35.8685 18.6858 35.9446 18.6858C36.0207 18.6858 36.0588 18.7234 36.0588 18.7986C36.0588 18.8526 36.0392 18.8872 35.9999 18.9025L36.2875 20.0394L36.2495 22.8216L36.2717 22.8218H36.6296L36.2872 23.3857L35.7544 23.3857V23.4464V34.9287ZM33.4342 22.4458C34.4994 22.4458 35.3745 21.581 35.3745 20.5282C35.3745 19.4754 34.4994 18.6106 33.4342 18.6106C32.3689 18.6106 31.4939 19.4754 31.4939 20.5282C31.4939 21.6186 32.3689 22.4458 33.4342 22.4458ZM32.0641 26.3936C32.1402 26.3936 32.2163 25.8673 32.2163 25.1905C32.2163 24.5137 32.1402 23.9873 32.0641 23.9873C31.988 23.9873 31.9119 24.5137 31.9119 25.1905C31.9119 25.8673 31.988 26.3936 32.0641 26.3936ZM33.0915 25.1905C33.0915 25.8673 33.0155 26.3936 32.9394 26.3936C32.8633 26.3936 32.7872 25.8673 32.7872 25.1905C32.7872 24.5137 32.8633 23.9873 32.9394 23.9873C33.0155 23.9873 33.0915 24.5137 33.0915 25.1905ZM34.6513 26.3936C34.7274 26.3936 34.8034 25.8673 34.8034 25.1905C34.8034 24.5137 34.7274 23.9873 34.6513 23.9873C34.5752 23.9873 34.4991 24.5137 34.4991 25.1905C34.4991 25.8673 34.5752 26.3936 34.6513 26.3936ZM33.9668 25.1905C33.9668 25.8673 33.8907 26.3936 33.8146 26.3936C33.7385 26.3936 33.6624 25.8673 33.6624 25.1905C33.6624 24.5137 33.7385 23.9873 33.8146 23.9873C33.8907 23.9873 33.9668 24.5137 33.9668 25.1905Z" fill="#7500FF"/>
<path d="M33.3603 9.62423H33.1673V10.7522H33.178L31.0749 18.197L31.0749 19.4365L30.9398 18.9026C30.9793 18.8875 30.9991 18.8528 30.9991 18.7986C30.9991 18.7234 30.9611 18.6858 30.885 18.6858C30.8089 18.6858 30.7708 18.7234 30.7708 18.7986C30.7708 18.826 30.7911 18.8734 30.8315 18.8971L30.5426 20.0394L30.5835 22.8218H30.2L30.5805 23.3857L31.0749 23.3857V23.4602L31.0749 34.9287H35.7544V23.4464V23.3857L36.2872 23.3857L36.6296 22.8218H36.2717L36.2495 22.8216L36.2875 20.0394L35.9999 18.9025C36.0392 18.8872 36.0588 18.8526 36.0588 18.7986C36.0588 18.7234 36.0207 18.6858 35.9446 18.6858C35.8685 18.6858 35.8305 18.7234 35.8305 18.7986C35.8305 18.8261 35.8509 18.8738 35.8916 18.8974L35.7544 19.4397V18.197L33.6528 10.7522H33.6619V9.62423H33.4336M33.3603 9.62423V8.26529L33.4342 5H37.8V8.36733H33.4342L33.4336 9.62423M33.3603 9.62423L33.3603 9.62734M33.4336 9.62423V9.62611M35.3745 20.5282C35.3745 21.581 34.4994 22.4458 33.4342 22.4458C32.3689 22.4458 31.4939 21.6186 31.4939 20.5282C31.4939 19.4754 32.3689 18.6106 33.4342 18.6106C34.4994 18.6106 35.3745 19.4754 35.3745 20.5282ZM32.2163 25.1905C32.2163 25.8673 32.1402 26.3936 32.0641 26.3936C31.988 26.3936 31.9119 25.8673 31.9119 25.1905C31.9119 24.5137 31.988 23.9873 32.0641 23.9873C32.1402 23.9873 32.2163 24.5137 32.2163 25.1905ZM32.9394 26.3936C33.0155 26.3936 33.0915 25.8673 33.0915 25.1905C33.0915 24.5137 33.0155 23.9873 32.9394 23.9873C32.8633 23.9873 32.7872 24.5137 32.7872 25.1905C32.7872 25.8673 32.8633 26.3936 32.9394 26.3936ZM34.8034 25.1905C34.8034 25.8673 34.7274 26.3936 34.6513 26.3936C34.5752 26.3936 34.4991 25.8673 34.4991 25.1905C34.4991 24.5137 34.5752 23.9873 34.6513 23.9873C34.7274 23.9873 34.8034 24.5137 34.8034 25.1905ZM33.8146 26.3936C33.8907 26.3936 33.9668 25.8673 33.9668 25.1905C33.9668 24.5137 33.8907 23.9873 33.8146 23.9873C33.7385 23.9873 33.6624 24.5137 33.6624 25.1905C33.6624 25.8673 33.7385 26.3936 33.8146 26.3936Z" stroke="#7500FF"/>
</g>
</g>
<path d="M51 34.88V33.0433C50.7744 34.015 50.5428 34.4304 49.8 34.88H51Z" fill="#7500FF" stroke="#7500FF"/>
<path d="M54.8 34.88V33.0433C55.0256 34.015 55.2572 34.4304 56 34.88H54.8Z" fill="#7500FF" stroke="#7500FF"/>
<path d="M51 12.26V14.0967C50.7744 13.125 50.5428 12.7097 49.8 12.26H51Z" fill="#7500FF" stroke="#7500FF"/>
<path d="M54.8 12.26V14.0967C55.0256 13.125 55.2572 12.7097 56 12.26H54.8Z" fill="#7500FF" stroke="#7500FF"/>
<path d="M55.1361 34.9956V12.1428H50.6V34.9956H55.1361Z" fill="#7500FF" stroke="#7500FF"/>
<path d="M35.6764 18.2804L35.6621 22.8712L31.0001 22.8561L31.0143 18.2653L35.6764 18.2804ZM33.3628 18.9447C32.4531 18.9418 31.6926 19.6862 31.6898 20.5819C31.687 21.4777 32.4429 22.2269 33.3526 22.2299C34.2622 22.2327 35.0229 21.4884 35.0257 20.5927C35.0284 19.6971 34.2724 18.9478 33.3628 18.9447Z" fill="#7500FF"/>
<path d="M33.319 20.8109C33.4327 20.8113 33.5087 20.7369 33.5091 20.6249C33.5094 20.5129 33.4339 20.438 33.3202 20.4376C33.2065 20.4373 33.1682 20.5491 33.168 20.6238C33.1678 20.6984 33.2432 20.8106 33.319 20.8109Z" fill="#7500FF"/>
<path d="M33.3199 20.624L32.56 21.1442L33.3199 20.624Z" fill="#7500FF"/>
<path d="M33.3199 20.624L32.56 21.1442" stroke="#7500FF"/>
<path d="M33.3198 20.6252L34.2271 21.4121L33.3198 20.6252Z" fill="#7500FF"/>
<path d="M33.3198 20.6252L34.2271 21.4121" stroke="#7500FF"/>
<path d="M36.2032 6.94814C36.2714 6.93275 36.3092 6.82323 36.2878 6.70351C36.2663 6.58379 36.1936 6.49922 36.1254 6.51461C36.0572 6.53 36.0193 6.63953 36.0408 6.75925C36.0623 6.87896 36.135 6.96353 36.2032 6.94814Z" fill="#7500FF"/>
<path d="M35.3199 6.76979C35.3381 6.64951 35.2973 6.5411 35.2287 6.52764C35.1602 6.51419 35.0898 6.60078 35.0716 6.72106C35.0534 6.84134 35.0942 6.94975 35.1628 6.96321C35.2313 6.97667 35.3017 6.89007 35.3199 6.76979Z" fill="#7500FF"/>
<path fill-rule="evenodd" clip-rule="evenodd" d="M35.4216 7.063C35.5182 7.01126 35.6201 6.99304 35.6859 6.99211L35.688 6.99208L35.6901 6.99229C35.9362 7.01752 36.0824 7.15096 36.1496 7.298C36.1828 7.37061 36.1964 7.44622 36.1929 7.51223C36.1896 7.57683 36.1691 7.63918 36.1267 7.67501C36.073 7.72036 35.9887 7.75243 35.9104 7.77451C35.8306 7.79702 35.7507 7.81087 35.7009 7.81679L35.699 7.81701L35.6971 7.81704C35.604 7.81836 35.4544 7.79383 35.3387 7.7258C35.2806 7.69164 35.2274 7.64437 35.1962 7.57976C35.1642 7.51339 35.158 7.43424 35.1858 7.34434C35.2295 7.20274 35.3245 7.11496 35.4216 7.063ZM35.457 7.14697C35.373 7.19196 35.2978 7.26392 35.2635 7.37513C35.2425 7.44325 35.2488 7.49478 35.2684 7.53546C35.2889 7.5779 35.3266 7.61406 35.3766 7.64342C35.4762 7.70199 35.6101 7.72497 35.6939 7.72415C35.7406 7.7185 35.8157 7.7054 35.8903 7.68436C35.9674 7.66259 36.0377 7.63398 36.0772 7.60056C36.0931 7.58716 36.1082 7.55597 36.1108 7.50647C36.1133 7.45837 36.1034 7.3993 36.0765 7.3404C36.0237 7.22478 35.9045 7.10822 35.685 7.08505C35.6292 7.0862 35.5404 7.10232 35.457 7.14697Z" fill="#7500FF"/>
<path fill-rule="evenodd" clip-rule="evenodd" d="M35.3723 7.32478L34.9206 7.16906L34.9444 7.0802L35.3962 7.23592L35.3723 7.32478Z" fill="#7500FF"/>
<path fill-rule="evenodd" clip-rule="evenodd" d="M35.3205 7.43664L34.8492 7.40728L34.8535 7.31451L35.3248 7.34387L35.3205 7.43664Z" fill="#7500FF"/>
<path fill-rule="evenodd" clip-rule="evenodd" d="M35.3386 7.5653L34.8694 7.62167L34.8604 7.52927L35.3296 7.4729L35.3386 7.5653Z" fill="#7500FF"/>
<path fill-rule="evenodd" clip-rule="evenodd" d="M35.9745 7.33071L36.4337 7.20925L36.4147 7.11878L35.9555 7.24024L35.9745 7.33071Z" fill="#7500FF"/>
<path fill-rule="evenodd" clip-rule="evenodd" d="M36.013 7.45102L36.4833 7.40836L36.4765 7.31574L36.0061 7.3584L36.013 7.45102Z" fill="#7500FF"/>
<path fill-rule="evenodd" clip-rule="evenodd" d="M35.987 7.60454L36.4575 7.64763L36.4639 7.55502L35.9934 7.51193L35.987 7.60454Z" fill="#7500FF"/>
<path d="M35.5098 7.19346C35.5378 7.13311 35.6273 7.12882 35.6679 7.1269C35.7063 7.1251 35.8021 7.12046 35.8393 7.18326C35.8656 7.22771 35.8472 7.27993 35.8424 7.29354C35.821 7.35447 35.7596 7.40798 35.6838 7.40888C35.5925 7.41001 35.5416 7.33395 35.5342 7.32262C35.5247 7.30787 35.4852 7.24662 35.5098 7.19355L35.5098 7.19346Z" fill="#7500FF"/>
<path d="M35.2553 6.64661C35.2556 6.67227 35.2375 6.69332 35.2148 6.69365C35.192 6.69397 35.1733 6.67343 35.173 6.64777C35.1726 6.62212 35.1908 6.60106 35.2135 6.60074C35.2362 6.60042 35.2549 6.62095 35.2553 6.64661Z" fill="#7500FF"/>
<path d="M36.1696 6.63355C36.1699 6.6592 36.1518 6.68026 36.1291 6.68058C36.1063 6.6809 36.0876 6.66037 36.0873 6.63471C36.087 6.60906 36.1051 6.588 36.1278 6.58768C36.1505 6.58735 36.1692 6.60789 36.1696 6.63355Z" fill="#7500FF"/>
<path fill-rule="evenodd" clip-rule="evenodd" d="M34.4747 6.09638C34.4195 6.17449 34.3728 6.25114 34.3348 6.32187C34.2713 6.28578 34.2437 6.17917 34.2389 6.15432C34.2331 6.12415 34.2591 6.06327 34.2906 6.01442C34.3221 5.96557 34.3489 5.96519 34.3972 5.97056C34.4358 5.97485 34.4644 6.05231 34.4738 6.09049C34.4741 6.0924 34.4744 6.09436 34.4747 6.09638ZM36.8373 6.0742C36.8954 6.15804 36.9446 6.24059 36.9844 6.31634C37.0419 6.27512 37.065 6.17469 37.069 6.15064C37.0739 6.12031 37.0463 6.06019 37.0135 6.01225C36.9807 5.96431 36.9539 5.96468 36.9057 5.97142C36.8729 5.97601 36.8489 6.03351 36.8373 6.0742Z" fill="#7500FF"/>
<path fill-rule="evenodd" clip-rule="evenodd" d="M35.6134 5.43584C35.9686 5.40264 36.2714 5.56736 36.5071 5.78987C36.7431 6.01262 36.9093 6.29122 36.9897 6.47872L36.9979 6.49782L37.0166 6.49912C37.0918 6.50434 37.2932 6.61916 37.3545 7.09827L37.3557 7.1083L37.3614 7.11613C37.3744 7.13384 37.4015 7.20317 37.3464 7.2973L37.3383 7.31109L37.3423 7.32702C37.348 7.34972 37.3477 7.39931 37.3096 7.42657L37.2934 7.43812L37.2948 7.45968C37.2956 7.47122 37.2937 7.49142 37.2854 7.50992C37.2776 7.52722 37.2642 7.54312 37.2399 7.55034L37.2256 7.55457L37.2193 7.56953C37.2125 7.58544 37.1757 7.63488 37.0934 7.63605L37.0865 7.63614L37.0803 7.63942C37.0476 7.65663 36.9953 7.67525 36.946 7.67595C36.897 7.67664 36.8582 7.66009 36.8375 7.61677L36.8336 7.60858L36.8267 7.60353C36.8163 7.59598 36.7989 7.5794 36.7843 7.55635C36.7697 7.53343 36.7592 7.5064 36.7588 7.47723L36.7586 7.46073L36.7474 7.45008C36.7366 7.43982 36.7197 7.41905 36.707 7.39267C36.6943 7.36634 36.6874 7.33754 36.6917 7.30936L36.6942 7.29244L36.6842 7.27947C36.6668 7.25687 36.6437 7.21606 36.6328 7.1698C36.6221 7.12423 36.6236 7.07661 36.6502 7.0341L36.66 7.01842L36.6539 7.00044C36.6476 6.98155 36.6402 6.94921 36.6397 6.91638C36.6392 6.8829 36.6457 6.85556 36.6604 6.83857L36.671 6.82623L36.6692 6.80911C36.6675 6.79374 36.6676 6.7675 36.6734 6.74213C36.6793 6.71656 36.6898 6.69684 36.7054 6.68627L36.7192 6.67692L36.7207 6.65883C36.7219 6.6446 36.7267 6.62124 36.7366 6.60065C36.7465 6.58011 36.7593 6.56658 36.7752 6.56221L36.8148 6.55127L36.7958 6.51037C36.6897 6.28242 36.4774 5.97841 36.1831 5.80773C35.8864 5.63569 35.5089 5.6008 35.0809 5.90908L35.0803 5.90952L35.0797 5.90999C34.976 5.9924 34.7407 6.23273 34.6216 6.54256L34.611 6.57016L34.6332 6.58698C34.6417 6.59343 34.6546 6.60671 34.6634 6.62339C34.6719 6.63958 34.6751 6.65593 34.6704 6.67239L34.6636 6.69682L34.6818 6.71225C34.698 6.72605 34.7227 6.75471 34.7398 6.79314C34.7567 6.83099 34.7656 6.87669 34.7538 6.92703L34.7524 6.93325L34.7529 6.93965C34.7581 7.00098 34.7596 7.09742 34.7476 7.18608C34.7416 7.2304 34.7325 7.27135 34.7195 7.30454C34.7063 7.33801 34.6905 7.36059 34.6727 7.37263L34.6586 7.38227L34.6574 7.40093C34.6561 7.42065 34.6507 7.45073 34.6393 7.47535C34.6279 7.50004 34.6141 7.51259 34.5976 7.51407L34.5632 7.51715L34.5686 7.55565C34.5698 7.56452 34.5693 7.57878 34.5646 7.59041C34.5607 7.6 34.5537 7.60897 34.5372 7.61208L34.5148 7.61629L34.511 7.64151C34.509 7.65454 34.4885 7.70731 34.4 7.7044L34.3921 7.70414L34.385 7.70803C34.3412 7.73218 34.2767 7.75183 34.2231 7.73932C34.1972 7.73329 34.1744 7.71997 34.1566 7.69635C34.1386 7.67248 34.1236 7.63531 34.1179 7.57766L34.1164 7.56228L34.1055 7.55287C34.0959 7.5446 34.0825 7.52884 34.0749 7.5106C34.0676 7.49335 34.0665 7.47702 34.0746 7.46076L34.0852 7.43958L34.0717 7.4205C34.0587 7.40195 34.0405 7.36734 34.0311 7.32702C34.0216 7.28697 34.0214 7.24457 34.0394 7.20633L34.0477 7.1886L34.0388 7.1712C34.0327 7.15934 34.0255 7.13806 34.0248 7.11595C34.0243 7.09499 34.0295 7.07517 34.0459 7.05926L34.0612 7.04452L34.056 7.02259C34.0532 7.01075 34.0514 6.99106 34.0549 6.97313C34.0582 6.95625 34.0653 6.94397 34.079 6.93732L34.1057 6.92426L34.0966 6.89293C34.0933 6.88145 34.0906 6.8619 34.0939 6.84356C34.0968 6.82662 34.1043 6.81211 34.1211 6.80305L34.1418 6.79191L34.139 6.76621C34.1376 6.75306 34.139 6.73004 34.1485 6.70854C34.1574 6.68837 34.1738 6.66854 34.205 6.65878L34.2253 6.65244L34.2281 6.62887C34.2301 6.6124 34.2363 6.58733 34.2475 6.56738C34.2585 6.54775 34.2711 6.53802 34.2863 6.5378L34.3066 6.53752L34.315 6.51671C34.3815 6.35165 34.5271 6.09743 34.7462 5.87635C34.9651 5.65553 35.256 5.46925 35.6134 5.43584Z" fill="#7500FF"/>
<path fill-rule="evenodd" clip-rule="evenodd" d="M36.7123 7.56021C36.7182 7.57426 36.7251 7.58705 36.7324 7.59845C36.7494 7.6252 36.7693 7.64593 36.7852 7.65892C36.7898 7.66749 36.7947 7.67531 36.8001 7.68244C36.653 7.86319 36.2959 8.09546 35.682 8.07815C35.0913 8.0615 34.7634 7.81096 34.6266 7.61009C34.6299 7.59937 34.6318 7.58861 34.6326 7.57848C34.6632 7.56491 34.6835 7.53632 34.6961 7.50891C34.7015 7.49728 34.7059 7.48516 34.7093 7.47317C34.788 7.62085 35.0667 7.90591 35.685 7.92334C36.2998 7.94067 36.6129 7.69528 36.7123 7.56021Z" fill="#7500FF"/>
</g>
<path d="M29.0592 35V23.1662C29.0592 19.8357 26.6279 17.8161 23.1079 17.8161C20.8217 17.8161 18.717 18.9499 18.0638 20.438V12.1472H13.5278V35H18.0638V25.3983C18.0638 23.1662 19.3339 21.3238 21.5838 21.3238C23.6522 21.3238 24.5231 22.1032 24.5231 24.6188V35H29.0592Z" fill="white" fill-opacity="0.99"/>
<path d="M17.5639 12.6472V20.4382L18.5219 20.6394C18.7899 20.0289 19.38 19.4457 20.2065 19.0115C21.0272 18.5804 22.0448 18.3162 23.1078 18.3162C24.775 18.3162 26.1366 18.7941 27.0737 19.6179C28.0033 20.4353 28.5589 21.6308 28.559 23.1658V34.4998H25.0229V24.6189C25.0229 23.3286 24.8056 22.3395 24.1948 21.6863C23.574 21.0225 22.6603 20.824 21.5834 20.824C20.308 20.8241 19.285 21.3528 18.5912 22.2097C17.9065 23.0558 17.5639 24.1925 17.5639 25.3982V34.4998H14.0278V12.6472H17.5639Z" stroke="white" stroke-opacity="0.99"/>
<path d="M42.377 35V12.1472H37.8409V35H42.377ZM48.8 35V12.1472H44.264V35H48.8Z" fill="white" fill-opacity="0.99"/>
<path d="M48.2999 12.6472V34.4998H44.7638V12.6472H48.2999ZM41.8771 12.6472V34.4998H38.3409V12.6472H41.8771Z" stroke="white" stroke-opacity="0.99"/>
<path d="M44.6 34.5V32.6633C44.3744 33.635 44.1429 34.0504 43.4 34.5H44.6Z" fill="white" fill-opacity="0.99" stroke="white" stroke-opacity="0.99"/>
<path d="M48.4 34.5V32.6633C48.6256 33.635 48.8571 34.0504 49.6 34.5H48.4Z" fill="white" fill-opacity="0.99" stroke="white" stroke-opacity="0.99"/>
<path d="M44.75 12.64V14.4767C44.5244 13.505 44.2928 13.0897 43.55 12.64H44.75Z" fill="white" fill-opacity="0.99" stroke="white" stroke-opacity="0.99"/>
<path d="M48.3 12.64V14.4767C48.5256 13.505 48.7572 13.0897 49.5 12.64H48.3Z" fill="white" fill-opacity="0.99" stroke="white" stroke-opacity="0.99"/>
<path d="M12.1125 29.7561H8.44739C7.39503 29.7561 6.77813 30.571 6.77813 31.7757C6.77813 32.5551 7.14101 33.2638 7.57647 33.4763H5V34.9999H12.1125V33.4763H9.13687C8.44739 33.4763 7.86678 33.0512 7.86678 32.2717C7.86678 31.5631 8.1208 31.2796 8.88285 31.2796H12.1125V29.7561ZM10.1529 25.5399C10.7698 25.5399 11.2779 26.1422 11.2779 26.9217C11.2779 27.4177 11.0964 27.6657 10.6973 27.6657C10.2618 27.6657 10.0441 27.3823 9.89892 26.4965C9.79006 25.9296 9.71748 25.6462 9.60862 25.5044L10.1529 25.5399ZM12.1125 24.0163H8.81027C7.50389 24.0163 6.74184 24.6541 6.74184 26.4965C6.74184 28.3743 7.50389 29.0121 8.59254 29.0475V27.6303C8.1208 27.5594 7.83049 27.276 7.83049 26.5674C7.83049 25.965 8.04822 25.5753 8.37481 25.5753C8.7377 25.5753 8.88285 25.7879 8.95543 26.5674C9.13687 28.1263 9.31831 29.2247 10.8061 29.2247C11.6408 29.2247 12.2214 28.6223 12.2214 27.276C12.2214 26.4965 11.9674 25.8942 11.6045 25.5044C11.7496 25.5044 11.9311 25.469 12.0762 25.3981V24.0163H12.1125ZM10.2255 19.6584C10.7698 19.7292 11.0964 20.1898 11.0964 20.7922C11.0964 21.3945 10.5521 21.9259 9.42717 21.9259C8.30224 21.9259 7.90307 21.3945 7.90307 20.7213C7.90307 20.1544 8.22966 19.6938 8.77398 19.6229V18.064C7.54018 18.1703 6.77813 19.1978 6.77813 20.6859C6.77813 22.3157 7.57647 23.414 9.46346 23.414C11.3505 23.414 12.2577 22.3157 12.2577 20.7567C12.2577 19.3395 11.4593 18.2411 10.2255 18.0994V19.6584ZM12.1125 12.3596L8.81027 14.2729L6.92328 12.3242V14.202L8.91914 16.1153H5V17.6388H12.1125V16.0799H10.4432L9.75377 15.3358L12.1125 14.0603V12.3596Z" fill="white" fill-opacity="0.99"/>
<path d="M7.72266 33.3389C7.78029 33.4113 7.84302 33.4803 7.91309 33.542C8.25101 33.8394 8.6927 33.9765 9.13672 33.9766H11.6123V34.5H5.5V33.9766H7.57617L7.72266 33.3389ZM8.44727 30.2559H11.6123V30.7793H8.88281C8.46212 30.7793 8.0369 30.8534 7.73438 31.1572C7.43199 31.4611 7.36721 31.8802 7.36719 32.2715C7.36719 32.3083 7.37011 32.3448 7.37207 32.3809C7.3145 32.1971 7.27832 31.9904 7.27832 31.7754C7.27837 31.2529 7.41244 30.8697 7.60742 30.6279C7.79243 30.3986 8.06289 30.2559 8.44727 30.2559ZM9.54102 27.1836C9.60171 27.3806 9.67791 27.5552 9.7793 27.7002C9.885 27.8513 10.0211 27.9751 10.1924 28.0576C10.3607 28.1387 10.5344 28.166 10.6973 28.166C11.0074 28.166 11.32 28.063 11.5342 27.7842C11.6233 27.6681 11.6803 27.5375 11.7178 27.4023C11.7007 27.9373 11.577 28.2627 11.4326 28.4473C11.2911 28.6281 11.0917 28.7246 10.8057 28.7246C10.4949 28.7246 10.2941 28.6672 10.1582 28.5918C10.0263 28.5185 9.92101 28.4084 9.83105 28.2422C9.69307 27.9871 9.61044 27.6405 9.54102 27.1836ZM8.81055 24.5166H11.5762V25.0049H10.4561L10.5361 25.0908C10.4247 25.061 10.3075 25.0435 10.1846 25.041H10.1855L9.64062 25.0059L8.54004 24.9336L8.67969 25.1162C8.61177 25.0969 8.54525 25.0844 8.48145 25.0791L8.375 25.0752C7.97712 25.0752 7.69654 25.3234 7.54199 25.6035C7.39242 25.8747 7.33008 26.2151 7.33008 26.5674C7.33008 26.9818 7.41445 27.356 7.64062 27.6455C7.76895 27.8097 7.92567 27.9219 8.09277 27.999V28.4561C7.90882 28.3893 7.76151 28.288 7.64551 28.1465C7.42295 27.8749 7.24219 27.3798 7.24219 26.4961C7.24224 25.6294 7.42344 25.1578 7.65625 24.9014C7.87859 24.6565 8.23255 24.5166 8.81055 24.5166ZM8.27441 19.249C7.70506 19.5094 7.40332 20.1056 7.40332 20.7217C7.4034 21.1574 7.53517 21.6105 7.9082 21.9473C8.27322 22.2768 8.79348 22.4257 9.42676 22.4258C10.0626 22.4258 10.5967 22.276 10.9844 21.9844C11.3813 21.6857 11.5967 21.2566 11.5967 20.792C11.5966 20.1547 11.2991 19.5485 10.7256 19.2852V18.7646C11.3424 19.0783 11.7578 19.787 11.7578 20.7568C11.7578 21.4411 11.5597 21.9664 11.2119 22.3193C10.8661 22.6701 10.3096 22.914 9.46387 22.9141C8.61844 22.9141 8.09855 22.6706 7.7832 22.3242C7.46018 21.9694 7.27832 21.4262 7.27832 20.6855C7.27837 20.0235 7.44751 19.5082 7.71191 19.1582C7.86193 18.9597 8.05006 18.8054 8.27441 18.7021V19.249ZM11.6123 13.7617L9.51562 14.8965L8.94922 15.2031L9.38672 15.6758L10.0762 16.4199L10.2246 16.5801H11.6123V17.1387H5.5V16.6152H10.1631L9.26562 15.7539L7.42285 13.9873V13.5586L8.45117 14.6211L8.72266 14.9014L9.06055 14.7051L11.6123 13.2266V13.7617Z" stroke="white" stroke-opacity="0.99"/>
<mask id="path-51-inside-1_117_2766" fill="white">
<path d="M22.6153 14.375C22.6153 14.6584 22.5064 14.8356 22.2161 14.8356C21.9621 14.8356 21.8169 14.6584 21.8169 14.375V13.4183H23.1959V12.9932H21.8169V12.3908H21.2V14.4458C21.2 14.9418 21.4903 15.367 22.2161 15.367C22.9419 15.367 23.2322 14.9418 23.2322 14.4458V13.8081H22.6153V14.375ZM25.8086 15.2607V13.6309C25.8086 13.1703 25.4457 12.8869 24.9377 12.8869C24.6111 12.8869 24.2845 13.0286 24.1757 13.2412V12.1428H23.5225V15.2607H24.1757V13.9498C24.1757 13.6309 24.3571 13.3829 24.6837 13.3829C24.974 13.3829 25.1191 13.4892 25.1191 13.8435V15.2607H25.8086ZM26.7521 13.9144C26.7884 13.5955 27.0061 13.4183 27.2602 13.4183C27.5142 13.4183 27.7682 13.5955 27.7682 13.9144H26.7521ZM28.4577 14.2687C28.4577 13.3475 28.0585 12.9223 27.2602 12.9223C26.4618 12.9223 26.0264 13.3829 26.0264 14.0915C26.0264 14.9064 26.4618 15.3316 27.2964 15.3316C27.8408 15.3316 28.2399 15.0836 28.4214 14.5875H27.7319C27.6956 14.7293 27.4779 14.8356 27.2964 14.8356C26.9699 14.8356 26.7521 14.623 26.7158 14.2687H28.4577Z"/>
</mask>
<path d="M22.6153 14.375C22.6153 14.6584 22.5064 14.8356 22.2161 14.8356C21.9621 14.8356 21.8169 14.6584 21.8169 14.375V13.4183H23.1959V12.9932H21.8169V12.3908H21.2V14.4458C21.2 14.9418 21.4903 15.367 22.2161 15.367C22.9419 15.367 23.2322 14.9418 23.2322 14.4458V13.8081H22.6153V14.375ZM25.8086 15.2607V13.6309C25.8086 13.1703 25.4457 12.8869 24.9377 12.8869C24.6111 12.8869 24.2845 13.0286 24.1757 13.2412V12.1428H23.5225V15.2607H24.1757V13.9498C24.1757 13.6309 24.3571 13.3829 24.6837 13.3829C24.974 13.3829 25.1191 13.4892 25.1191 13.8435V15.2607H25.8086ZM26.7521 13.9144C26.7884 13.5955 27.0061 13.4183 27.2602 13.4183C27.5142 13.4183 27.7682 13.5955 27.7682 13.9144H26.7521ZM28.4577 14.2687C28.4577 13.3475 28.0585 12.9223 27.2602 12.9223C26.4618 12.9223 26.0264 13.3829 26.0264 14.0915C26.0264 14.9064 26.4618 15.3316 27.2964 15.3316C27.8408 15.3316 28.2399 15.0836 28.4214 14.5875H27.7319C27.6956 14.7293 27.4779 14.8356 27.2964 14.8356C26.9699 14.8356 26.7521 14.623 26.7158 14.2687H28.4577Z" fill="white" fill-opacity="0.99"/>
<path d="M21.8169 13.4183V12.4183H20.8169V13.4183H21.8169ZM23.1959 13.4183V14.4183H24.1959V13.4183H23.1959ZM23.1959 12.9932H24.1959V11.9932H23.1959V12.9932ZM21.8169 12.9932H20.8169V13.9932H21.8169V12.9932ZM21.8169 12.3908H22.8169V11.3908H21.8169V12.3908ZM21.2 12.3908V11.3908H20.2V12.3908H21.2ZM23.2322 13.8081H24.2322V12.8081H23.2322V13.8081ZM22.6153 13.8081V12.8081H21.6153V13.8081H22.6153ZM25.8086 15.2607V16.2607H26.8086V15.2607H25.8086ZM24.1757 13.2412H23.1757L25.0657 13.697L24.1757 13.2412ZM24.1757 12.1428H25.1757V11.1428H24.1757V12.1428ZM23.5225 12.1428V11.1428H22.5225V12.1428H23.5225ZM23.5225 15.2607H22.5225V16.2607H23.5225V15.2607ZM24.1757 15.2607V16.2607H25.1757V15.2607H24.1757ZM25.1191 15.2607H24.1191V16.2607H25.1191V15.2607ZM26.7521 13.9144L25.7585 13.8013L25.6319 14.9144H26.7521V13.9144ZM27.7682 13.9144V14.9144H28.7682V13.9144H27.7682ZM28.4577 14.2687V15.2687H29.4577V14.2687H28.4577ZM28.4214 14.5875L29.3605 14.9311L29.852 13.5875H28.4214V14.5875ZM27.7319 14.5875V13.5875H26.9557L26.7632 14.3395L27.7319 14.5875ZM26.7158 14.2687V13.2687H25.6082L25.721 14.3706L26.7158 14.2687ZM22.6153 14.375H21.6153C21.6153 14.4178 21.6019 14.2648 21.7424 14.0885C21.8188 13.9925 21.9172 13.9212 22.0198 13.8789C22.1155 13.8395 22.1892 13.8356 22.2161 13.8356V14.8356V15.8356C22.5747 15.8356 23.0032 15.7156 23.3067 15.3346C23.5742 14.9989 23.6153 14.6156 23.6153 14.375H22.6153ZM22.2161 14.8356V13.8356C22.3378 13.8356 22.5331 13.8881 22.6819 14.0624C22.8125 14.2154 22.8169 14.3569 22.8169 14.375H21.8169H20.8169C20.8169 14.6764 20.8939 15.0483 21.1606 15.3607C21.4454 15.6945 21.8404 15.8356 22.2161 15.8356V14.8356ZM21.8169 14.375H22.8169V13.4183H21.8169H20.8169V14.375H21.8169ZM21.8169 13.4183V14.4183H23.1959V13.4183V12.4183H21.8169V13.4183ZM23.1959 13.4183H24.1959V12.9932H23.1959H22.1959V13.4183H23.1959ZM23.1959 12.9932V11.9932H21.8169V12.9932V13.9932H23.1959V12.9932ZM21.8169 12.9932H22.8169V12.3908H21.8169H20.8169V12.9932H21.8169ZM21.8169 12.3908V11.3908H21.2V12.3908V13.3908H21.8169V12.3908ZM21.2 12.3908H20.2V14.4458H21.2H22.2V12.3908H21.2ZM21.2 14.4458H20.2C20.2 14.8824 20.3296 15.3883 20.7182 15.7888C21.1149 16.1976 21.6552 16.367 22.2161 16.367V15.367V14.367C22.1312 14.367 22.0969 14.3545 22.0967 14.3544C22.0966 14.3544 22.0984 14.3551 22.1018 14.3567C22.1052 14.3584 22.1098 14.3609 22.1154 14.3645C22.1271 14.372 22.1404 14.3825 22.1536 14.3961C22.1815 14.4248 22.1951 14.453 22.2001 14.4672C22.2042 14.4791 22.2 14.4738 22.2 14.4458H21.2ZM22.2161 15.367V16.367C22.777 16.367 23.3173 16.1976 23.714 15.7888C24.1026 15.3883 24.2322 14.8824 24.2322 14.4458H23.2322H22.2322C22.2322 14.4738 22.2279 14.4791 22.2321 14.4672C22.2371 14.453 22.2507 14.4248 22.2786 14.3961C22.2918 14.3825 22.3051 14.372 22.3167 14.3645C22.3223 14.3609 22.327 14.3584 22.3304 14.3567C22.3337 14.3551 22.3355 14.3544 22.3354 14.3544C22.3352 14.3545 22.3009 14.367 22.2161 14.367V15.367ZM23.2322 14.4458H24.2322V13.8081H23.2322H22.2322V14.4458H23.2322ZM23.2322 13.8081V12.8081H22.6153V13.8081V14.8081H23.2322V13.8081ZM22.6153 13.8081H21.6153V14.375H22.6153H23.6153V13.8081H22.6153ZM25.8086 15.2607H26.8086V13.6309H25.8086H24.8086V15.2607H25.8086ZM25.8086 13.6309H26.8086C26.8086 13.115 26.5945 12.6433 26.2036 12.3177C25.8312 12.0076 25.3699 11.8869 24.9377 11.8869V12.8869V13.8869C25.0135 13.8869 24.9878 13.9079 24.9237 13.8546C24.8905 13.8269 24.8579 13.787 24.8353 13.7378C24.8128 13.6887 24.8086 13.6491 24.8086 13.6309H25.8086ZM24.9377 12.8869V11.8869C24.6377 11.8869 24.3323 11.9504 24.0604 12.0743C23.8032 12.1915 23.4782 12.4093 23.2856 12.7854L24.1757 13.2412L25.0657 13.697C25.0215 13.7834 24.9699 13.8348 24.9407 13.8595C24.9111 13.8846 24.8914 13.8935 24.8897 13.8943C24.887 13.8955 24.8919 13.8931 24.9038 13.8905C24.9154 13.8881 24.9275 13.8869 24.9377 13.8869V12.8869ZM24.1757 13.2412H25.1757V12.1428H24.1757H23.1757V13.2412H24.1757ZM24.1757 12.1428V11.1428H23.5225V12.1428V13.1428H24.1757V12.1428ZM23.5225 12.1428H22.5225V15.2607H23.5225H24.5225V12.1428H23.5225ZM23.5225 15.2607V16.2607H24.1757V15.2607V14.2607H23.5225V15.2607ZM24.1757 15.2607H25.1757V13.9498H24.1757H23.1757V15.2607H24.1757ZM24.1757 13.9498H25.1757C25.1757 13.9715 25.1695 14.0758 25.0706 14.1927C25.02 14.2525 24.9534 14.3042 24.8758 14.339C24.7989 14.3736 24.7303 14.3829 24.6837 14.3829V13.3829V12.3829C24.245 12.3829 23.8318 12.5605 23.5438 12.9009C23.2725 13.2214 23.1757 13.6092 23.1757 13.9498H24.1757ZM24.6837 13.3829V14.3829C24.7459 14.3829 24.5232 14.4023 24.3117 14.1958C24.0973 13.9865 24.1191 13.7669 24.1191 13.8435H25.1191H26.1192C26.1192 13.5658 26.0684 13.1159 25.7089 12.7648C25.3522 12.4166 24.9118 12.3829 24.6837 12.3829V13.3829ZM25.1191 13.8435H24.1191V15.2607H25.1191H26.1192V13.8435H25.1191ZM25.1191 15.2607V16.2607H25.8086V15.2607V14.2607H25.1191V15.2607ZM26.7521 13.9144L27.7457 14.0274C27.7403 14.0753 27.7101 14.182 27.6045 14.2799C27.4999 14.377 27.3707 14.4183 27.2602 14.4183V13.4183V12.4183C26.4639 12.4183 25.8484 13.0114 25.7585 13.8013L26.7521 13.9144ZM27.2602 13.4183V14.4183C27.1635 14.4183 27.0494 14.3864 26.9474 14.2962C26.8289 14.1915 26.7682 14.0431 26.7682 13.9144H27.7682H28.7682C28.7682 12.9303 27.9463 12.4183 27.2602 12.4183V13.4183ZM27.7682 13.9144V12.9144H26.7521V13.9144V14.9144H27.7682V13.9144ZM28.4577 14.2687H29.4577C29.4577 13.6874 29.335 13.0619 28.9011 12.5805C28.4482 12.078 27.8309 11.9223 27.2602 11.9223V12.9223V13.9223C27.3741 13.9223 27.4283 13.9378 27.4433 13.9433C27.4517 13.9463 27.4343 13.9404 27.4155 13.9195C27.3808 13.8811 27.4577 13.9288 27.4577 14.2687H28.4577ZM27.2602 12.9223V11.9223C26.6701 11.9223 26.0856 12.0958 25.6453 12.5257C25.203 12.9575 25.0264 13.5309 25.0264 14.0915H26.0264H27.0264C27.0264 14.016 27.038 13.975 27.0438 13.9595C27.0487 13.9463 27.0498 13.9496 27.0425 13.9567C27.0195 13.9791 27.0519 13.9223 27.2602 13.9223V12.9223ZM26.0264 14.0915H25.0264C25.0264 14.6702 25.1835 15.2773 25.6498 15.7326C26.112 16.1839 26.7203 16.3316 27.2964 16.3316V15.3316V14.3316C27.038 14.3316 27.0112 14.2666 27.047 14.3016C27.087 14.3406 27.0264 14.3277 27.0264 14.0915H26.0264ZM27.2964 15.3316V16.3316C27.7199 16.3316 28.1555 16.2343 28.5405 15.9837C28.932 15.7288 29.204 15.3589 29.3605 14.9311L28.4214 14.5875L27.4822 14.244C27.4685 14.2817 27.4564 14.2989 27.4526 14.3039C27.4515 14.3053 27.4507 14.3062 27.4502 14.3067C27.4498 14.3072 27.4495 14.3075 27.4495 14.3075C27.4495 14.3075 27.4496 14.3074 27.4496 14.3074C27.4497 14.3073 27.4497 14.3073 27.4495 14.3075C27.4492 14.3077 27.4473 14.3089 27.443 14.3108C27.4387 14.3127 27.4312 14.3155 27.4198 14.3185C27.3968 14.3247 27.357 14.3316 27.2964 14.3316V15.3316ZM28.4214 14.5875V13.5875H27.7319V14.5875V15.5875H28.4214V14.5875ZM27.7319 14.5875L26.7632 14.3395C26.8063 14.1709 26.8909 14.0587 26.9485 13.998C27.0067 13.9366 27.0602 13.9028 27.0918 13.8857C27.1471 13.8557 27.2102 13.8356 27.2964 13.8356V14.8356V15.8356C27.5641 15.8356 27.8268 15.7623 28.0454 15.6437C28.2346 15.5411 28.5825 15.297 28.7007 14.8356L27.7319 14.5875ZM27.2964 14.8356V13.8356C27.3601 13.8356 27.4858 13.862 27.5959 13.9695C27.6984 14.0696 27.7104 14.1645 27.7106 14.1668L26.7158 14.2687L25.721 14.3706C25.7576 14.7272 25.8966 15.1055 26.1987 15.4005C26.5083 15.7028 26.9062 15.8356 27.2964 15.8356V14.8356ZM26.7158 14.2687V15.2687H28.4577V14.2687V13.2687H26.7158V14.2687Z" fill="white" fill-opacity="0.99" mask="url(#path-51-inside-1_117_2766)"/>
<path d="M38.2 34.5V32.6633C37.9744 33.635 37.7428 34.0504 37 34.5H38.2Z" fill="white" fill-opacity="0.99" stroke="white" stroke-opacity="0.99"/>
<path d="M42 34.5V32.6633C42.2256 33.635 42.4571 34.0504 43.2 34.5H42Z" fill="white" fill-opacity="0.99" stroke="white" stroke-opacity="0.99"/>
<path d="M38.34 12.64V14.4767C38.1144 13.505 37.8829 13.0897 37.14 12.64H38.34Z" fill="white" fill-opacity="0.99" stroke="white" stroke-opacity="0.99"/>
<path d="M41.84 12.64V14.4767C42.0656 13.505 42.2971 13.0897 43.04 12.64H41.84Z" fill="white" fill-opacity="0.99" stroke="white" stroke-opacity="0.99"/>
<path fill-rule="evenodd" clip-rule="evenodd" d="M35.7544 34.9287H31.0749L31.0749 23.4602V23.3857L30.5805 23.3857L30.2 22.8218H30.5835L30.5426 20.0394L30.8315 18.8971C30.7911 18.8734 30.7708 18.826 30.7708 18.7986C30.7708 18.7234 30.8089 18.6858 30.885 18.6858C30.9611 18.6858 30.9991 18.7234 30.9991 18.7986C30.9991 18.8528 30.9793 18.8875 30.9398 18.9026L31.0749 19.4365L31.0749 18.197L33.178 10.7522H33.1673V9.62423H33.3603V8.26529L33.4342 5H37.8V8.36733H33.4342L33.4336 9.62423H33.6619V10.7522H33.6528L35.7544 18.197V19.4397L35.8916 18.8974C35.8509 18.8738 35.8305 18.8261 35.8305 18.7986C35.8305 18.7234 35.8685 18.6858 35.9446 18.6858C36.0207 18.6858 36.0588 18.7234 36.0588 18.7986C36.0588 18.8526 36.0392 18.8872 35.9999 18.9025L36.2875 20.0394L36.2495 22.8216L36.2717 22.8218H36.6296L36.2872 23.3857L35.7544 23.3857V23.4464V34.9287ZM33.4342 22.4458C34.4994 22.4458 35.3745 21.581 35.3745 20.5282C35.3745 19.4754 34.4994 18.6106 33.4342 18.6106C32.3689 18.6106 31.4939 19.4754 31.4939 20.5282C31.4939 21.6186 32.3689 22.4458 33.4342 22.4458ZM32.0641 26.3936C32.1402 26.3936 32.2163 25.8673 32.2163 25.1905C32.2163 24.5137 32.1402 23.9873 32.0641 23.9873C31.988 23.9873 31.9119 24.5137 31.9119 25.1905C31.9119 25.8673 31.988 26.3936 32.0641 26.3936ZM33.0915 25.1905C33.0915 25.8673 33.0155 26.3936 32.9394 26.3936C32.8633 26.3936 32.7872 25.8673 32.7872 25.1905C32.7872 24.5137 32.8633 23.9873 32.9394 23.9873C33.0155 23.9873 33.0915 24.5137 33.0915 25.1905ZM34.6513 26.3936C34.7274 26.3936 34.8034 25.8673 34.8034 25.1905C34.8034 24.5137 34.7274 23.9873 34.6513 23.9873C34.5752 23.9873 34.4991 24.5137 34.4991 25.1905C34.4991 25.8673 34.5752 26.3936 34.6513 26.3936ZM33.9668 25.1905C33.9668 25.8673 33.8907 26.3936 33.8146 26.3936C33.7385 26.3936 33.6624 25.8673 33.6624 25.1905C33.6624 24.5137 33.7385 23.9873 33.8146 23.9873C33.8907 23.9873 33.9668 24.5137 33.9668 25.1905Z" fill="white" fill-opacity="0.99"/>
<path d="M51 34.5V32.6633C50.7744 33.635 50.5429 34.0504 49.8 34.5H51Z" fill="white" fill-opacity="0.99" stroke="white" stroke-opacity="0.99"/>
<path d="M54.65 34.5V32.6633C54.8756 33.635 55.1071 34.0504 55.85 34.5H54.65Z" fill="white" fill-opacity="0.99" stroke="white" stroke-opacity="0.99"/>
<path d="M51.1 12.64V14.4767C50.8744 13.505 50.6429 13.0897 49.9 12.64H51.1Z" fill="white" fill-opacity="0.99" stroke="white" stroke-opacity="0.99"/>
<path d="M54.65 12.64V14.4767C54.8756 13.505 55.1071 13.0897 55.85 12.64H54.65Z" fill="white" fill-opacity="0.99" stroke="white" stroke-opacity="0.99"/>
<path d="M55.1361 34.9956V12.1428H50.6V34.9956H55.1361Z" fill="white" fill-opacity="0.99"/>
<path d="M54.6362 12.6428V34.4954H51.1V12.6428H54.6362Z" stroke="white" stroke-opacity="0.99"/>
<path d="M35.6764 18.2804L35.6621 22.8712L31.0001 22.8561L31.0143 18.2653L35.6764 18.2804ZM33.3628 18.9447C32.4531 18.9418 31.6926 19.6862 31.6898 20.5819C31.687 21.4777 32.4429 22.2269 33.3526 22.2299C34.2622 22.2327 35.0229 21.4884 35.0257 20.5927C35.0284 19.6971 34.2724 18.9478 33.3628 18.9447Z" fill="white" fill-opacity="0.99"/>
<path d="M33.319 20.8109C33.4327 20.8113 33.5087 20.7369 33.5091 20.6249C33.5094 20.5129 33.4339 20.438 33.3202 20.4376C33.2065 20.4373 33.1682 20.5491 33.168 20.6238C33.1678 20.6984 33.2432 20.8106 33.319 20.8109Z" fill="white" fill-opacity="0.99"/>
<path d="M33.3199 20.624L32.56 21.1442L33.3199 20.624Z" fill="white" fill-opacity="0.99"/>
<path d="M33.3199 20.624L32.56 21.1442" stroke="white" stroke-opacity="0.99" stroke-width="0.757998"/>
<path d="M33.3198 20.6252L34.2271 21.4121L33.3198 20.6252Z" fill="white" fill-opacity="0.99"/>
<path d="M33.3198 20.6252L34.2271 21.4121" stroke="white" stroke-opacity="0.99" stroke-width="0.757998"/>
<path d="M36.2032 6.94814C36.2714 6.93275 36.3092 6.82323 36.2878 6.70351C36.2663 6.58379 36.1936 6.49922 36.1254 6.51461C36.0572 6.53 36.0193 6.63953 36.0408 6.75925C36.0623 6.87896 36.135 6.96353 36.2032 6.94814Z" fill="#7500FF"/>
<path d="M35.3199 6.76979C35.3381 6.64951 35.2973 6.5411 35.2287 6.52764C35.1602 6.51419 35.0898 6.60078 35.0716 6.72106C35.0534 6.84134 35.0942 6.94975 35.1628 6.96321C35.2313 6.97667 35.3017 6.89007 35.3199 6.76979Z" fill="#7500FF"/>
<path fill-rule="evenodd" clip-rule="evenodd" d="M35.4216 7.063C35.5182 7.01126 35.6201 6.99304 35.6859 6.99211L35.688 6.99208L35.6901 6.99229C35.9362 7.01752 36.0824 7.15096 36.1496 7.298C36.1828 7.37061 36.1964 7.44622 36.1929 7.51223C36.1896 7.57683 36.1691 7.63918 36.1267 7.67501C36.073 7.72036 35.9887 7.75243 35.9104 7.77451C35.8306 7.79702 35.7507 7.81087 35.7009 7.81679L35.699 7.81701L35.6971 7.81704C35.604 7.81836 35.4544 7.79383 35.3387 7.7258C35.2806 7.69164 35.2274 7.64437 35.1962 7.57976C35.1642 7.51339 35.158 7.43424 35.1858 7.34434C35.2295 7.20274 35.3245 7.11496 35.4216 7.063ZM35.457 7.14697C35.373 7.19196 35.2978 7.26392 35.2635 7.37513C35.2425 7.44325 35.2488 7.49478 35.2684 7.53546C35.2889 7.5779 35.3266 7.61406 35.3766 7.64342C35.4762 7.70199 35.6101 7.72497 35.6939 7.72415C35.7406 7.7185 35.8157 7.7054 35.8903 7.68436C35.9674 7.66259 36.0377 7.63398 36.0772 7.60056C36.0931 7.58716 36.1082 7.55597 36.1108 7.50647C36.1133 7.45837 36.1034 7.3993 36.0765 7.3404C36.0237 7.22478 35.9045 7.10822 35.685 7.08505C35.6292 7.0862 35.5404 7.10232 35.457 7.14697Z" fill="#7500FF"/>
<path fill-rule="evenodd" clip-rule="evenodd" d="M35.3723 7.32478L34.9206 7.16906L34.9444 7.0802L35.3962 7.23592L35.3723 7.32478Z" fill="#7500FF"/>
<path fill-rule="evenodd" clip-rule="evenodd" d="M35.3205 7.43664L34.8492 7.40728L34.8535 7.31451L35.3248 7.34387L35.3205 7.43664Z" fill="#7500FF"/>
<path fill-rule="evenodd" clip-rule="evenodd" d="M35.3386 7.5653L34.8694 7.62167L34.8604 7.52927L35.3296 7.4729L35.3386 7.5653Z" fill="#7500FF"/>
<path fill-rule="evenodd" clip-rule="evenodd" d="M35.9745 7.33071L36.4337 7.20925L36.4147 7.11878L35.9555 7.24024L35.9745 7.33071Z" fill="#7500FF"/>
<path fill-rule="evenodd" clip-rule="evenodd" d="M36.013 7.45102L36.4833 7.40836L36.4765 7.31574L36.0061 7.3584L36.013 7.45102Z" fill="#7500FF"/>
<path fill-rule="evenodd" clip-rule="evenodd" d="M35.987 7.60454L36.4575 7.64763L36.4639 7.55502L35.9934 7.51193L35.987 7.60454Z" fill="#7500FF"/>
<path d="M35.5098 7.19346C35.5378 7.13311 35.6273 7.12882 35.6679 7.1269C35.7063 7.1251 35.8021 7.12046 35.8393 7.18326C35.8656 7.22771 35.8472 7.27993 35.8424 7.29354C35.821 7.35447 35.7596 7.40798 35.6838 7.40888C35.5925 7.41001 35.5416 7.33395 35.5342 7.32262C35.5247 7.30787 35.4852 7.24662 35.5098 7.19355L35.5098 7.19346Z" fill="#7500FF"/>
<path d="M35.2553 6.64661C35.2556 6.67227 35.2375 6.69332 35.2148 6.69365C35.192 6.69397 35.1733 6.67343 35.173 6.64777C35.1726 6.62212 35.1908 6.60106 35.2135 6.60074C35.2362 6.60042 35.2549 6.62095 35.2553 6.64661Z" fill="#7500FF"/>
<path d="M36.1696 6.63355C36.1699 6.6592 36.1518 6.68026 36.1291 6.68058C36.1063 6.6809 36.0876 6.66037 36.0873 6.63471C36.087 6.60906 36.1051 6.588 36.1278 6.58768C36.1505 6.58735 36.1692 6.60789 36.1696 6.63355Z" fill="#7500FF"/>
<path fill-rule="evenodd" clip-rule="evenodd" d="M34.4747 6.09638C34.4195 6.17449 34.3728 6.25114 34.3348 6.32187C34.2713 6.28578 34.2437 6.17917 34.2389 6.15432C34.2331 6.12415 34.2591 6.06327 34.2906 6.01442C34.3221 5.96557 34.3489 5.96519 34.3972 5.97056C34.4358 5.97485 34.4644 6.05231 34.4738 6.09049C34.4741 6.0924 34.4744 6.09436 34.4747 6.09638ZM36.8373 6.0742C36.8954 6.15804 36.9446 6.24059 36.9844 6.31634C37.0419 6.27512 37.065 6.17469 37.069 6.15064C37.0739 6.12031 37.0463 6.06019 37.0135 6.01225C36.9807 5.96431 36.9539 5.96468 36.9057 5.97142C36.8729 5.97601 36.8489 6.03351 36.8373 6.0742Z" fill="#7500FF"/>
<path fill-rule="evenodd" clip-rule="evenodd" d="M35.6134 5.43584C35.9686 5.40264 36.2714 5.56736 36.5071 5.78987C36.7431 6.01262 36.9093 6.29122 36.9897 6.47872L36.9979 6.49782L37.0166 6.49912C37.0918 6.50434 37.2932 6.61916 37.3545 7.09827L37.3557 7.1083L37.3614 7.11613C37.3744 7.13384 37.4015 7.20317 37.3464 7.2973L37.3383 7.31109L37.3423 7.32702C37.348 7.34972 37.3477 7.39931 37.3096 7.42657L37.2934 7.43812L37.2948 7.45968C37.2956 7.47122 37.2937 7.49142 37.2854 7.50992C37.2776 7.52722 37.2642 7.54312 37.2399 7.55034L37.2256 7.55457L37.2193 7.56953C37.2125 7.58544 37.1757 7.63488 37.0934 7.63605L37.0865 7.63614L37.0803 7.63942C37.0476 7.65663 36.9953 7.67525 36.946 7.67595C36.897 7.67664 36.8582 7.66009 36.8375 7.61677L36.8336 7.60858L36.8267 7.60353C36.8163 7.59598 36.7989 7.5794 36.7843 7.55635C36.7697 7.53343 36.7592 7.5064 36.7588 7.47723L36.7586 7.46073L36.7474 7.45008C36.7366 7.43982 36.7197 7.41905 36.707 7.39267C36.6943 7.36634 36.6874 7.33754 36.6917 7.30936L36.6942 7.29244L36.6842 7.27947C36.6668 7.25687 36.6437 7.21606 36.6328 7.1698C36.6221 7.12423 36.6236 7.07661 36.6502 7.0341L36.66 7.01842L36.6539 7.00044C36.6476 6.98155 36.6402 6.94921 36.6397 6.91638C36.6392 6.8829 36.6457 6.85556 36.6604 6.83857L36.671 6.82623L36.6692 6.80911C36.6675 6.79374 36.6676 6.7675 36.6734 6.74213C36.6793 6.71656 36.6898 6.69684 36.7054 6.68627L36.7192 6.67692L36.7207 6.65883C36.7219 6.6446 36.7267 6.62124 36.7366 6.60065C36.7465 6.58011 36.7593 6.56658 36.7752 6.56221L36.8148 6.55127L36.7958 6.51037C36.6897 6.28242 36.4774 5.97841 36.1831 5.80773C35.8864 5.63569 35.5089 5.6008 35.0809 5.90908L35.0803 5.90952L35.0797 5.90999C34.976 5.9924 34.7407 6.23273 34.6216 6.54256L34.611 6.57016L34.6332 6.58698C34.6417 6.59343 34.6546 6.60671 34.6634 6.62339C34.6719 6.63958 34.6751 6.65593 34.6704 6.67239L34.6636 6.69682L34.6818 6.71225C34.698 6.72605 34.7227 6.75471 34.7398 6.79314C34.7567 6.83099 34.7656 6.87669 34.7538 6.92703L34.7524 6.93325L34.7529 6.93965C34.7581 7.00098 34.7596 7.09742 34.7476 7.18608C34.7416 7.2304 34.7325 7.27135 34.7195 7.30454C34.7063 7.33801 34.6905 7.36059 34.6727 7.37263L34.6586 7.38227L34.6574 7.40093C34.6561 7.42065 34.6507 7.45073 34.6393 7.47535C34.6279 7.50004 34.6141 7.51259 34.5976 7.51407L34.5632 7.51715L34.5686 7.55565C34.5698 7.56452 34.5693 7.57878 34.5646 7.59041C34.5607 7.6 34.5537 7.60897 34.5372 7.61208L34.5148 7.61629L34.511 7.64151C34.509 7.65454 34.4885 7.70731 34.4 7.7044L34.3921 7.70414L34.385 7.70803C34.3412 7.73218 34.2767 7.75183 34.2231 7.73932C34.1972 7.73329 34.1744 7.71997 34.1566 7.69635C34.1386 7.67248 34.1236 7.63531 34.1179 7.57766L34.1164 7.56228L34.1055 7.55287C34.0959 7.5446 34.0825 7.52884 34.0749 7.5106C34.0676 7.49335 34.0665 7.47702 34.0746 7.46076L34.0852 7.43958L34.0717 7.4205C34.0587 7.40195 34.0405 7.36734 34.0311 7.32702C34.0216 7.28697 34.0214 7.24457 34.0394 7.20633L34.0477 7.1886L34.0388 7.1712C34.0327 7.15934 34.0255 7.13806 34.0248 7.11595C34.0243 7.09499 34.0295 7.07517 34.0459 7.05926L34.0612 7.04452L34.056 7.02259C34.0532 7.01075 34.0514 6.99106 34.0549 6.97313C34.0582 6.95625 34.0653 6.94397 34.079 6.93732L34.1057 6.92426L34.0966 6.89293C34.0933 6.88145 34.0906 6.8619 34.0939 6.84356C34.0968 6.82662 34.1043 6.81211 34.1211 6.80305L34.1418 6.79191L34.139 6.76621C34.1376 6.75306 34.139 6.73004 34.1485 6.70854C34.1574 6.68837 34.1738 6.66854 34.205 6.65878L34.2253 6.65244L34.2281 6.62887C34.2301 6.6124 34.2363 6.58733 34.2475 6.56738C34.2585 6.54775 34.2711 6.53802 34.2863 6.5378L34.3066 6.53752L34.315 6.51671C34.3815 6.35165 34.5271 6.09743 34.7462 5.87635C34.9651 5.65553 35.256 5.46925 35.6134 5.43584Z" fill="#7500FF"/>
<path fill-rule="evenodd" clip-rule="evenodd" d="M36.7123 7.56021C36.7182 7.57426 36.7251 7.58705 36.7324 7.59845C36.7494 7.6252 36.7693 7.64593 36.7852 7.65892C36.7898 7.66749 36.7947 7.67531 36.8001 7.68244C36.653 7.86319 36.2959 8.09546 35.682 8.07815C35.0913 8.0615 34.7634 7.81096 34.6266 7.61009C34.6299 7.59937 34.6318 7.58861 34.6326 7.57848C34.6632 7.56491 34.6835 7.53632 34.6961 7.50891C34.7015 7.49728 34.7059 7.48516 34.7093 7.47317C34.788 7.62085 35.0667 7.90591 35.685 7.92334C36.2998 7.94067 36.6129 7.69528 36.7123 7.56021Z" fill="#7500FF"/>
<defs>
<filter id="filter0_f_117_2766" x="0.5" y="0.5" width="61.2916" height="39" filterUnits="userSpaceOnUse" color-interpolation-filters="sRGB">
<feFlood flood-opacity="0" result="BackgroundImageFix"/>
<feBlend mode="normal" in="SourceGraphic" in2="BackgroundImageFix" result="shape"/>
<feGaussianBlur stdDeviation="2" result="effect1_foregroundBlur_117_2766"/>
</filter>
<filter id="filter1_f_117_2766" x="25.2596" y="0.5" width="17.0404" height="38.9287" filterUnits="userSpaceOnUse" color-interpolation-filters="sRGB">
<feFlood flood-opacity="0" result="BackgroundImageFix"/>
<feBlend mode="normal" in="SourceGraphic" in2="BackgroundImageFix" result="shape"/>
<feGaussianBlur stdDeviation="2" result="effect1_foregroundBlur_117_2766"/>
</filter>
<filter id="filter2_f_117_2766" x="25.2596" y="0.5" width="17.0404" height="38.9287" filterUnits="userSpaceOnUse" color-interpolation-filters="sRGB">
<feFlood flood-opacity="0" result="BackgroundImageFix"/>
<feBlend mode="normal" in="SourceGraphic" in2="BackgroundImageFix" result="shape"/>
<feGaussianBlur stdDeviation="2" result="effect1_foregroundBlur_117_2766"/>
</filter>
</defs>
</svg>
