<svg width="56" height="39" viewBox="0 0 56 39" fill="none" xmlns="http://www.w3.org/2000/svg">
<g filter="url(#filter0_f_454_198)">
<path d="M26.172 34.0571V22.6021C26.172 19.3783 24.0325 17.4234 20.9349 17.4234C18.9231 17.4234 17.0709 18.5209 16.4961 19.9613V11.936H12.5044V34.0571H16.4961V24.7628C16.4961 22.6021 17.6138 20.8187 19.5937 20.8187C21.4139 20.8187 22.1803 21.5733 22.1803 24.0083V34.0571H26.172Z" fill="#7500FF" stroke="#7500FF"/>
<path d="M37.8916 34.0571V11.936H33.8999V34.0571H37.8916ZM43.5439 34.0571V11.936H39.5522V34.0571H43.5439Z" fill="#7500FF" stroke="#7500FF"/>
<path d="M39.9866 33.884V32.1085C39.7875 33.0479 39.5832 33.4493 38.9277 33.884H39.9866Z" fill="#7500FF" stroke="#7500FF"/>
<path d="M43.3396 33.884V32.1085C43.5387 33.0479 43.743 33.4493 44.3984 33.884H43.3396Z" fill="#7500FF" stroke="#7500FF"/>
<path d="M39.9866 12.018V13.7935C39.7875 12.8541 39.5832 12.4527 38.9277 12.018H39.9866Z" fill="#7500FF" stroke="#7500FF"/>
<path d="M43.3396 12.018V13.7935C43.5387 12.8541 43.743 12.4527 44.3984 12.018H43.3396Z" fill="#7500FF" stroke="#7500FF"/>
<path d="M11.259 28.9811H8.03371C7.10763 28.9811 6.56475 29.7699 6.56475 30.9359C6.56475 31.6905 6.88409 32.3764 7.2673 32.5822H5V34.0569H11.259V32.5822H8.64045C8.03371 32.5822 7.52277 32.1706 7.52277 31.4161C7.52277 30.7302 7.7463 30.4558 8.41691 30.4558H11.259V28.9811ZM9.53459 24.8998C10.0775 24.8998 10.5245 25.4829 10.5245 26.2374C10.5245 26.7175 10.3649 26.9576 10.0136 26.9576C9.6304 26.9576 9.43879 26.6832 9.31106 25.8258C9.21526 25.2771 9.15139 25.0027 9.05559 24.8655L9.53459 24.8998ZM11.259 23.4251H8.35304C7.20343 23.4251 6.53282 24.0424 6.53282 25.8258C6.53282 27.6435 7.20343 28.2608 8.16144 28.2951V26.9233C7.7463 26.8547 7.49083 26.5803 7.49083 25.8944C7.49083 25.3114 7.68244 24.9341 7.96984 24.9341C8.28918 24.9341 8.41691 25.1399 8.48078 25.8944C8.64045 27.4034 8.80012 28.4666 10.1094 28.4666C10.8439 28.4666 11.3548 27.8836 11.3548 26.5803C11.3548 25.8258 11.1313 25.2428 10.8119 24.8655C10.9397 24.8655 11.0993 24.8312 11.2271 24.7626V23.4251H11.259ZM9.59846 19.2067C10.0775 19.2752 10.3649 19.7211 10.3649 20.3041C10.3649 20.8872 9.88587 21.4016 8.89592 21.4016C7.90597 21.4016 7.5547 20.8872 7.5547 20.2355C7.5547 19.6868 7.8421 19.2409 8.32111 19.1724V17.6633C7.23536 17.7662 6.56475 18.7608 6.56475 20.2012C6.56475 21.7789 7.2673 22.842 8.92785 22.842C10.5884 22.842 11.3868 21.7789 11.3868 20.2698C11.3868 18.898 10.6842 17.8348 9.59846 17.6976V19.2067ZM11.259 12.1416L8.35304 13.9936L6.69249 12.1073V13.925L8.44885 15.777H5V17.2518H11.259V15.7427H9.79006L9.18332 15.0225L11.259 13.7879V12.1416Z" fill="#7500FF" stroke="#7500FF"/>
<path d="M20.5013 14.0924C20.5013 14.3668 20.4055 14.5383 20.15 14.5383C19.9265 14.5383 19.7987 14.3668 19.7987 14.0924V13.1664H21.0122V12.7549H19.7987V12.1718H19.2559V14.161C19.2559 14.6412 19.5113 15.0527 20.15 15.0527C20.7887 15.0527 21.0441 14.6412 21.0441 14.161V13.5437H20.5013V14.0924ZM23.3114 14.9498V13.3722C23.3114 12.9264 22.9921 12.652 22.545 12.652C22.2576 12.652 21.9702 12.7892 21.8744 12.995V11.9318H21.2996V14.9498H21.8744V13.6809C21.8744 13.3722 22.0341 13.1321 22.3215 13.1321C22.577 13.1321 22.7047 13.235 22.7047 13.578V14.9498H23.3114ZM24.1417 13.6466C24.1737 13.3379 24.3653 13.1664 24.5888 13.1664C24.8123 13.1664 25.0359 13.3379 25.0359 13.6466H24.1417ZM25.6426 13.9895C25.6426 13.0978 25.2913 12.6863 24.5888 12.6863C23.8863 12.6863 23.503 13.1321 23.503 13.8181C23.503 14.6069 23.8863 15.0184 24.6207 15.0184C25.0997 15.0184 25.451 14.7784 25.6107 14.2982H25.0039C24.972 14.4354 24.7804 14.5383 24.6207 14.5383C24.3333 14.5383 24.1417 14.3325 24.1098 13.9895H25.6426Z" fill="#7500FF" stroke="#7500FF"/>
<path d="M34.3396 33.884V32.1085C34.1405 33.0479 33.9362 33.4493 33.2808 33.884H34.3396Z" fill="#7500FF" stroke="#7500FF"/>
<path d="M37.6926 33.884V32.1085C37.8917 33.0479 38.096 33.4493 38.7515 33.884H37.6926Z" fill="#7500FF" stroke="#7500FF"/>
<path d="M34.3396 12.018V13.7935C34.1405 12.8541 33.9362 12.4527 33.2808 12.018H34.3396Z" fill="#7500FF" stroke="#7500FF"/>
<path d="M37.6926 12.018V13.7935C37.8917 12.8541 38.096 12.4527 38.7515 12.018H37.6926Z" fill="#7500FF" stroke="#7500FF"/>
<g filter="url(#filter1_f_454_198)">
<g filter="url(#filter2_f_454_198)">
<path fill-rule="evenodd" clip-rule="evenodd" d="M32.1817 33.931H28.0527L28.0527 22.8449V22.7728L27.6165 22.7729L27.2808 22.2277H27.6191L27.583 19.5381L27.838 18.4339C27.8023 18.411 27.7844 18.3652 27.7844 18.3386C27.7844 18.266 27.818 18.2296 27.8851 18.2296C27.9523 18.2296 27.9858 18.266 27.9858 18.3386C27.9858 18.391 27.9684 18.4246 27.9335 18.4392L28.0527 18.9553L28.0527 17.7571L29.9084 10.5605H29.899V9.47009H30.0693V8.15645L30.1344 5H33.9866V8.25508H30.1344L30.1339 9.47009H30.3354V10.5605H30.3274L32.1817 17.7571V18.9583L32.3028 18.4341C32.2668 18.4113 32.2488 18.3652 32.2488 18.3387C32.2488 18.266 32.2824 18.2296 32.3495 18.2296C32.4167 18.2296 32.4503 18.266 32.4503 18.3387C32.4503 18.3909 32.4329 18.4243 32.3983 18.439L32.6521 19.5381L32.6185 22.2276L32.6381 22.2277H32.954L32.6518 22.7729L32.1817 22.7728V22.8315V33.931ZM30.1344 21.8642C31.0744 21.8642 31.8465 21.0283 31.8465 20.0106C31.8465 18.9929 31.0744 18.1569 30.1344 18.1569C29.1945 18.1569 28.4224 18.9929 28.4224 20.0106C28.4224 21.0646 29.1945 21.8642 30.1344 21.8642ZM28.9255 25.6805C28.9927 25.6805 29.0598 25.1717 29.0598 24.5174C29.0598 23.8632 28.9927 23.3544 28.9255 23.3544C28.8584 23.3544 28.7913 23.8632 28.7913 24.5174C28.7913 25.1717 28.8584 25.6805 28.9255 25.6805ZM29.8321 24.5174C29.8321 25.1717 29.765 25.6805 29.6978 25.6805C29.6307 25.6805 29.5636 25.1717 29.5636 24.5174C29.5636 23.8632 29.6307 23.3544 29.6978 23.3544C29.765 23.3544 29.8321 23.8632 29.8321 24.5174ZM31.2083 25.6805C31.2755 25.6805 31.3426 25.1717 31.3426 24.5174C31.3426 23.8632 31.2755 23.3544 31.2083 23.3544C31.1412 23.3544 31.0741 23.8632 31.0741 24.5174C31.0741 25.1717 31.1412 25.6805 31.2083 25.6805ZM30.6044 24.5174C30.6044 25.1717 30.5372 25.6805 30.4701 25.6805C30.403 25.6805 30.3358 25.1717 30.3358 24.5174C30.3358 23.8632 30.403 23.3544 30.4701 23.3544C30.5372 23.3544 30.6044 23.8632 30.6044 24.5174Z" fill="#7500FF"/>
<path d="M30.0693 9.47009H29.899V10.5605H29.9084L28.0527 17.7571L28.0527 18.9553L27.9335 18.4392C27.9684 18.4246 27.9858 18.391 27.9858 18.3386C27.9858 18.266 27.9523 18.2296 27.8851 18.2296C27.818 18.2296 27.7844 18.266 27.7844 18.3386C27.7844 18.3652 27.8023 18.411 27.838 18.4339L27.583 19.5381L27.6191 22.2277H27.2808L27.6165 22.7729L28.0527 22.7728V22.8449L28.0527 33.931H32.1817V22.8315V22.7728L32.6518 22.7729L32.954 22.2277H32.6381L32.6185 22.2276L32.6521 19.5381L32.3983 18.439C32.4329 18.4243 32.4503 18.3909 32.4503 18.3387C32.4503 18.266 32.4167 18.2296 32.3495 18.2296C32.2824 18.2296 32.2488 18.266 32.2488 18.3387C32.2488 18.3652 32.2668 18.4113 32.3028 18.4341L32.1817 18.9583V17.7571L30.3274 10.5605H30.3354V9.47009H30.1339M30.0693 9.47009V8.15645L30.1344 5H33.9866V8.25508H30.1344L30.1339 9.47009M30.0693 9.47009L30.0692 9.4731M30.1339 9.47009V9.4719M31.8465 20.0106C31.8465 21.0283 31.0744 21.8642 30.1344 21.8642C29.1945 21.8642 28.4224 21.0646 28.4224 20.0106C28.4224 18.9929 29.1945 18.1569 30.1344 18.1569C31.0744 18.1569 31.8465 18.9929 31.8465 20.0106ZM29.0598 24.5174C29.0598 25.1717 28.9927 25.6805 28.9255 25.6805C28.8584 25.6805 28.7913 25.1717 28.7913 24.5174C28.7913 23.8632 28.8584 23.3544 28.9255 23.3544C28.9927 23.3544 29.0598 23.8632 29.0598 24.5174ZM29.6978 25.6805C29.765 25.6805 29.8321 25.1717 29.8321 24.5174C29.8321 23.8632 29.765 23.3544 29.6978 23.3544C29.6307 23.3544 29.5636 23.8632 29.5636 24.5174C29.5636 25.1717 29.6307 25.6805 29.6978 25.6805ZM31.3426 24.5174C31.3426 25.1717 31.2755 25.6805 31.2083 25.6805C31.1412 25.6805 31.0741 25.1717 31.0741 24.5174C31.0741 23.8632 31.1412 23.3544 31.2083 23.3544C31.2755 23.3544 31.3426 23.8632 31.3426 24.5174ZM30.4701 25.6805C30.5372 25.6805 30.6044 25.1717 30.6044 24.5174C30.6044 23.8632 30.5372 23.3544 30.4701 23.3544C30.403 23.3544 30.3358 23.8632 30.3358 24.5174C30.3358 25.1717 30.403 25.6805 30.4701 25.6805Z" stroke="#7500FF"/>
</g>
</g>
<path d="M45.6335 33.884V32.1085C45.4345 33.0479 45.2302 33.4493 44.5747 33.884H45.6335Z" fill="#7500FF" stroke="#7500FF"/>
<path d="M48.9866 33.884V32.1085C49.1857 33.0479 49.39 33.4493 50.0454 33.884H48.9866Z" fill="#7500FF" stroke="#7500FF"/>
<path d="M45.6335 12.018V13.7935C45.4345 12.8541 45.2302 12.4527 44.5747 12.018H45.6335Z" fill="#7500FF" stroke="#7500FF"/>
<path d="M48.9866 12.018V13.7935C49.1857 12.8541 49.39 12.4527 50.0454 12.018H48.9866Z" fill="#7500FF" stroke="#7500FF"/>
<path d="M49.1196 34.0528V11.9318H45.1279V34.0528H49.1196Z" fill="#7500FF" stroke="#7500FF"/>
<path d="M31.9951 17.8725L31.9825 22.3168L27.88 22.3021L27.8926 17.8578L31.9951 17.8725ZM29.9591 18.5166C29.1587 18.5137 28.4895 19.2334 28.4868 20.1002C28.4844 20.9673 29.1495 21.6924 29.9501 21.6953C30.7505 21.6981 31.4197 20.9785 31.4223 20.1116C31.4248 19.2446 30.7597 18.5194 29.9591 18.5166Z" fill="#7500FF"/>
<path d="M29.9208 20.3221C30.0207 20.3225 30.0875 20.2505 30.0878 20.1421C30.0881 20.0338 30.0217 19.9613 29.9218 19.9609C29.8219 19.9606 29.7883 20.0688 29.7881 20.1411C29.7879 20.2133 29.8542 20.3219 29.9208 20.3221Z" fill="#7500FF"/>
<path d="M29.9208 20.1414L29.253 20.6447L29.9208 20.1414Z" fill="#7500FF"/>
<path d="M29.9208 20.1414L29.253 20.6447" stroke="#7500FF"/>
<path d="M29.9214 20.1426L30.7199 20.904L29.9214 20.1426Z" fill="#7500FF"/>
<path d="M29.9214 20.1426L30.7199 20.904" stroke="#7500FF"/>
<path d="M32.459 6.90291C32.5192 6.88797 32.5527 6.78204 32.5338 6.6663C32.5149 6.55057 32.4508 6.46885 32.3907 6.48378C32.3305 6.49872 32.297 6.60465 32.3159 6.72039C32.3348 6.83613 32.3989 6.91784 32.459 6.90291Z" fill="#7500FF"/>
<path d="M31.6821 6.7312C31.6981 6.61493 31.6621 6.51008 31.6016 6.49702C31.5411 6.48396 31.4791 6.56764 31.4631 6.68392C31.4471 6.80019 31.4831 6.90504 31.5436 6.9181C31.6041 6.93116 31.6661 6.84748 31.6821 6.7312Z" fill="#7500FF"/>
<path fill-rule="evenodd" clip-rule="evenodd" d="M31.8883 6.99423C31.9735 6.94422 32.0635 6.9266 32.1215 6.9257L32.1234 6.92567L32.1252 6.92588C32.3424 6.95027 32.4714 7.07926 32.5306 7.22139C32.5599 7.29158 32.572 7.36467 32.5689 7.42848C32.5659 7.49093 32.5478 7.55121 32.5104 7.58584C32.463 7.62968 32.3886 7.66067 32.3196 7.68202C32.2492 7.70379 32.1786 7.71717 32.1347 7.72289L32.133 7.72311L32.1314 7.72313C32.0492 7.72441 31.9173 7.7007 31.8152 7.63494C31.7639 7.60191 31.717 7.55622 31.6894 7.49376C31.6612 7.42961 31.6557 7.3531 31.6802 7.26619C31.7188 7.12931 31.8026 7.04446 31.8883 6.99423ZM31.9195 7.0754C31.8454 7.11889 31.7791 7.18845 31.7488 7.29596C31.7302 7.3618 31.7358 7.41161 31.7532 7.45094C31.7712 7.49197 31.8045 7.52692 31.8486 7.5553C31.9365 7.61192 32.0546 7.63413 32.1286 7.63335C32.1698 7.62788 32.2361 7.61521 32.3018 7.59488C32.3699 7.57384 32.4319 7.54618 32.4668 7.51387C32.4808 7.50091 32.4941 7.47077 32.4964 7.42292C32.4986 7.37642 32.4899 7.31932 32.4661 7.26238C32.4195 7.15061 32.3144 7.03794 32.1208 7.01555C32.0715 7.01666 31.9931 7.03224 31.9195 7.0754Z" fill="#7500FF"/>
<path fill-rule="evenodd" clip-rule="evenodd" d="M31.8448 7.24829L31.4462 7.09724L31.4673 7.01093L31.8659 7.16198L31.8448 7.24829Z" fill="#7500FF"/>
<path fill-rule="evenodd" clip-rule="evenodd" d="M31.7993 7.35637L31.3833 7.32749L31.387 7.23741L31.803 7.26629L31.7993 7.35637Z" fill="#7500FF"/>
<path fill-rule="evenodd" clip-rule="evenodd" d="M31.815 7.48056L31.4008 7.53467L31.3928 7.44499L31.8071 7.39088L31.815 7.48056Z" fill="#7500FF"/>
<path fill-rule="evenodd" clip-rule="evenodd" d="M32.3762 7.25395L32.7814 7.13601L32.7646 7.04814L32.3594 7.16608L32.3762 7.25395Z" fill="#7500FF"/>
<path fill-rule="evenodd" clip-rule="evenodd" d="M32.4098 7.37022L32.8249 7.32848L32.8189 7.23854L32.4038 7.28029L32.4098 7.37022Z" fill="#7500FF"/>
<path fill-rule="evenodd" clip-rule="evenodd" d="M32.3865 7.51856L32.802 7.55982L32.8078 7.46993L32.3923 7.42867L32.3865 7.51856Z" fill="#7500FF"/>
<path d="M31.849 7.14086C31.8736 7.08246 31.9522 7.07831 31.9879 7.07645C32.0217 7.07471 32.1059 7.07022 32.1386 7.13099C32.1617 7.174 32.1456 7.22454 32.1413 7.2377C32.1225 7.29667 32.0685 7.34844 32.002 7.34931C31.9217 7.3504 31.8769 7.2768 31.8705 7.26584C31.8621 7.25157 31.8274 7.1923 31.849 7.14094L31.849 7.14086Z" fill="#7500FF"/>
<path d="M31.7416 6.59202C31.7419 6.61694 31.7259 6.63739 31.7059 6.6377C31.6858 6.63802 31.6693 6.61807 31.669 6.59315C31.6687 6.56823 31.6847 6.54778 31.7047 6.54747C31.7248 6.54715 31.7413 6.5671 31.7416 6.59202Z" fill="#7500FF"/>
<path d="M32.5482 6.57942C32.5485 6.60434 32.5325 6.62479 32.5125 6.6251C32.4925 6.62542 32.476 6.60547 32.4757 6.58055C32.4753 6.55563 32.4913 6.53518 32.5114 6.53487C32.5314 6.53455 32.5479 6.5545 32.5482 6.57942Z" fill="#7500FF"/>
<path fill-rule="evenodd" clip-rule="evenodd" d="M31.0527 6.05988C31.004 6.13538 30.9628 6.20948 30.9292 6.27785C30.8732 6.24297 30.8488 6.13991 30.8446 6.11589C30.8395 6.08672 30.8624 6.02788 30.8902 5.98065C30.918 5.93343 30.9416 5.93306 30.9843 5.93825C31.0184 5.9424 31.0436 6.01727 31.0519 6.05419C31.0522 6.05603 31.0524 6.05792 31.0527 6.05988ZM33.1373 6.03844C33.1885 6.11948 33.232 6.19928 33.2671 6.27251C33.3179 6.23266 33.3383 6.13558 33.3417 6.11233C33.3461 6.08301 33.3217 6.0249 33.2928 5.97855C33.2638 5.93221 33.2402 5.93257 33.1977 5.93908C33.1687 5.94352 33.1475 5.99911 33.1373 6.03844Z" fill="#7500FF"/>
<path fill-rule="evenodd" clip-rule="evenodd" d="M32.0574 5.42134C32.3708 5.38925 32.638 5.54847 32.8459 5.76357C33.0541 5.9789 33.2008 6.24821 33.2718 6.42946L33.279 6.44792L33.2955 6.44918C33.3619 6.45422 33.5396 6.56522 33.5936 7.02835L33.5947 7.03805L33.5998 7.04562C33.6112 7.06274 33.6351 7.12976 33.5865 7.22075L33.5794 7.23408L33.5829 7.24948C33.5879 7.27143 33.5876 7.31936 33.554 7.34571L33.5398 7.35688L33.541 7.37772C33.5417 7.38888 33.54 7.4084 33.5327 7.42628C33.5258 7.44301 33.5139 7.45838 33.4925 7.46536L33.4799 7.46945L33.4743 7.48391C33.4683 7.49928 33.4359 7.54708 33.3632 7.54821L33.3572 7.5483L33.3517 7.55146C33.3228 7.5681 33.2767 7.58611 33.2332 7.58678C33.1899 7.58745 33.1557 7.57145 33.1374 7.52958L33.134 7.52166L33.1279 7.51677C33.1188 7.50948 33.1034 7.49345 33.0905 7.47117C33.0776 7.44902 33.0684 7.42288 33.068 7.39469L33.0678 7.37874L33.058 7.36844C33.0484 7.35852 33.0335 7.33844 33.0223 7.31295C33.0111 7.28749 33.005 7.25965 33.0088 7.23241L33.0111 7.21605L33.0022 7.20351C32.9869 7.18167 32.9665 7.14222 32.9569 7.0975C32.9474 7.05346 32.9488 7.00742 32.9722 6.96632L32.9808 6.95117L32.9755 6.93379C32.9699 6.91552 32.9634 6.88426 32.963 6.85253C32.9625 6.82017 32.9683 6.79374 32.9812 6.77731L32.9906 6.76539L32.9889 6.74884C32.9875 6.73398 32.9876 6.70861 32.9927 6.68409C32.9979 6.65937 33.0072 6.64031 33.0209 6.63009L33.0331 6.62105L33.0344 6.60357C33.0355 6.58981 33.0397 6.56723 33.0485 6.54733C33.0572 6.52747 33.0685 6.51439 33.0825 6.51017L33.1175 6.4996L33.1007 6.46006C33.0071 6.2397 32.8197 5.94583 32.56 5.78084C32.2983 5.61453 31.9652 5.5808 31.5875 5.8788L31.587 5.87923L31.5865 5.87969C31.495 5.95935 31.2873 6.19166 31.1823 6.49117L31.1729 6.51785L31.1925 6.53411C31.2 6.54035 31.2114 6.55318 31.2191 6.5693C31.2267 6.58496 31.2294 6.60076 31.2254 6.61667L31.2193 6.64029L31.2354 6.65521C31.2497 6.66855 31.2715 6.69625 31.2866 6.7334C31.3015 6.76998 31.3093 6.81416 31.2989 6.86283L31.2977 6.86883L31.2981 6.87502C31.3027 6.93431 31.304 7.02753 31.2935 7.11324C31.2882 7.15608 31.2801 7.19567 31.2686 7.22775C31.257 7.26011 31.243 7.28193 31.2274 7.29357L31.2149 7.30289L31.2138 7.32093C31.2127 7.33999 31.2079 7.36906 31.1979 7.39287C31.1878 7.41673 31.1756 7.42887 31.161 7.4303L31.1307 7.43328L31.1355 7.47049C31.1366 7.47906 31.1361 7.49285 31.132 7.5041C31.1285 7.51336 31.1224 7.52203 31.1078 7.52504L31.0881 7.52911L31.0847 7.55349C31.0829 7.56609 31.0648 7.61709 30.9867 7.61428L30.9797 7.61403L30.9735 7.61779C30.9348 7.64114 30.8779 7.66013 30.8306 7.64804C30.8078 7.64221 30.7877 7.62934 30.772 7.6065C30.7561 7.58342 30.7429 7.54749 30.7378 7.49176L30.7365 7.4769L30.7269 7.46781C30.7184 7.45981 30.7066 7.44457 30.6999 7.42694C30.6935 7.41027 30.6925 7.39449 30.6996 7.37877L30.709 7.35829L30.6971 7.33984C30.6856 7.32191 30.6696 7.28846 30.6612 7.24948C30.6529 7.21076 30.6527 7.16978 30.6686 7.13281L30.6759 7.11567L30.668 7.09886C30.6626 7.08739 30.6562 7.06682 30.6557 7.04544C30.6552 7.02518 30.6598 7.00603 30.6743 6.99064L30.6878 6.9764L30.6832 6.9552C30.6807 6.94376 30.6791 6.92472 30.6822 6.90739C30.6851 6.89107 30.6914 6.8792 30.7035 6.87277L30.7271 6.86015L30.719 6.82986C30.7161 6.81877 30.7138 6.79986 30.7166 6.78214C30.7192 6.76576 30.7258 6.75173 30.7407 6.74298L30.7589 6.73221L30.7565 6.70736C30.7552 6.69466 30.7565 6.6724 30.7648 6.65162C30.7727 6.63212 30.7871 6.61295 30.8147 6.60352L30.8326 6.59739L30.8351 6.5746C30.8368 6.55868 30.8423 6.53445 30.8521 6.51516C30.8618 6.49618 30.873 6.48678 30.8864 6.48657L30.9043 6.48629L30.9117 6.46619C30.9704 6.30662 31.0988 6.06087 31.2922 5.84717C31.4854 5.63371 31.742 5.45364 32.0574 5.42134Z" fill="#7500FF"/>
<path fill-rule="evenodd" clip-rule="evenodd" d="M33.027 7.47495C33.0322 7.48853 33.0383 7.5009 33.0447 7.51192C33.0597 7.53778 33.0773 7.55781 33.0913 7.57037C33.0954 7.57866 33.0997 7.58622 33.1044 7.5931C32.9746 7.76783 32.6596 7.99236 32.1179 7.97563C31.5967 7.95953 31.3074 7.71734 31.1867 7.52317C31.1896 7.51281 31.1912 7.5024 31.192 7.49261C31.219 7.47949 31.2369 7.45186 31.248 7.42536C31.2528 7.41412 31.2566 7.4024 31.2597 7.39081C31.3291 7.53357 31.575 7.80913 32.1206 7.82598C32.663 7.84273 32.9393 7.60552 33.027 7.47495Z" fill="#7500FF"/>
</g>
<path d="M26.172 34.0571V22.6021C26.172 19.3783 24.0325 17.4234 20.9349 17.4234C18.9231 17.4234 17.0709 18.5209 16.4961 19.9613V11.936H12.5044V34.0571H16.4961V24.7628C16.4961 22.6021 17.6138 20.8187 19.5937 20.8187C21.4139 20.8187 22.1803 21.5733 22.1803 24.0083V34.0571H26.172Z" fill="white" fill-opacity="0.99"/>
<path d="M15.9966 12.436V19.9614L16.9604 20.147C17.4392 18.9472 19.0672 17.9233 20.9351 17.9233C22.3783 17.9234 23.5549 18.3776 24.3677 19.1636C25.178 19.9473 25.6723 21.1047 25.6724 22.602V33.5571H22.6802V24.0083C22.6802 22.7656 22.4909 21.8117 21.9507 21.1763C21.3896 20.5163 20.5573 20.3188 19.5933 20.3188C18.4337 20.319 17.5143 20.8493 16.8999 21.6841C16.2954 22.5055 15.9966 23.6034 15.9966 24.7632V33.5571H13.0044V12.436H15.9966Z" stroke="white" stroke-opacity="0.99"/>
<path d="M37.8921 34.0571V11.936H33.9004V34.0571H37.8921ZM43.5444 34.0571V11.936H39.5527V34.0571H43.5444Z" fill="white" fill-opacity="0.99"/>
<path d="M43.0439 12.436V33.5571H40.0527V12.436H43.0439ZM37.3926 12.436V33.5571H34.4004V12.436H37.3926Z" stroke="white" stroke-opacity="0.99"/>
<path d="M39.9866 33.5166V31.7411C39.7875 32.6805 39.5832 33.082 38.9277 33.5166H39.9866Z" fill="white" fill-opacity="0.99" stroke="white" stroke-opacity="0.99"/>
<path d="M43.3396 33.5166V31.7411C43.5387 32.6805 43.743 33.082 44.3984 33.5166H43.3396Z" fill="white" fill-opacity="0.99" stroke="white" stroke-opacity="0.99"/>
<path d="M40.1189 12.3853V14.1608C39.9198 13.2215 39.7155 12.82 39.0601 12.3853H40.1189Z" fill="white" fill-opacity="0.99" stroke="white" stroke-opacity="0.99"/>
<path d="M43.2512 12.3853V14.1608C43.4503 13.2215 43.6546 12.82 44.3101 12.3853H43.2512Z" fill="white" fill-opacity="0.99" stroke="white" stroke-opacity="0.99"/>
<path d="M11.259 28.9811H8.03371C7.10763 28.9811 6.56475 29.7699 6.56475 30.9359C6.56475 31.6905 6.88409 32.3764 7.2673 32.5822H5V34.0569H11.259V32.5822H8.64045C8.03371 32.5822 7.52277 32.1706 7.52277 31.4161C7.52277 30.7302 7.7463 30.4558 8.41691 30.4558H11.259V28.9811ZM9.53459 24.8998C10.0775 24.8998 10.5245 25.4829 10.5245 26.2374C10.5245 26.7175 10.3649 26.9576 10.0136 26.9576C9.6304 26.9576 9.43879 26.6832 9.31106 25.8258C9.21526 25.2771 9.15139 25.0027 9.05559 24.8655L9.53459 24.8998ZM11.259 23.4251H8.35304C7.20343 23.4251 6.53282 24.0424 6.53282 25.8258C6.53282 27.6435 7.20343 28.2608 8.16144 28.2951V26.9233C7.7463 26.8547 7.49083 26.5803 7.49083 25.8944C7.49083 25.3114 7.68244 24.9341 7.96984 24.9341C8.28918 24.9341 8.41691 25.1399 8.48078 25.8944C8.64045 27.4034 8.80012 28.4666 10.1094 28.4666C10.8439 28.4666 11.3548 27.8836 11.3548 26.5803C11.3548 25.8258 11.1313 25.2428 10.8119 24.8655C10.9397 24.8655 11.0993 24.8312 11.2271 24.7626V23.4251H11.259ZM9.59846 19.2067C10.0775 19.2752 10.3649 19.7211 10.3649 20.3041C10.3649 20.8872 9.88587 21.4016 8.89592 21.4016C7.90597 21.4016 7.5547 20.8872 7.5547 20.2355C7.5547 19.6868 7.8421 19.2409 8.32111 19.1724V17.6633C7.23536 17.7662 6.56475 18.7608 6.56475 20.2012C6.56475 21.7789 7.2673 22.842 8.92785 22.842C10.5884 22.842 11.3868 21.7789 11.3868 20.2698C11.3868 18.898 10.6842 17.8348 9.59846 17.6976V19.2067ZM11.259 12.1416L8.35304 13.9936L6.69249 12.1073V13.925L8.44885 15.777H5V17.2518H11.259V15.7427H9.79006L9.18332 15.0225L11.259 13.7879V12.1416Z" fill="white" fill-opacity="0.99"/>
<path d="M7.50586 32.6415C7.81438 32.9404 8.22461 33.082 8.64062 33.082H10.7588V33.5566H5.5V33.082H7.26758L7.40527 32.5331C7.43709 32.5707 7.47034 32.6071 7.50586 32.6415ZM8.03418 29.4814H10.7588V29.956H8.41699C8.03176 29.956 7.62969 30.0313 7.34766 30.3427C7.19058 30.5162 7.10747 30.7258 7.06445 30.9433C7.06444 30.9408 7.06445 30.9379 7.06445 30.9355C7.06453 30.4228 7.1855 30.0492 7.35547 29.8173C7.5135 29.6018 7.73167 29.4814 8.03418 29.4814ZM9.14453 26.9814C9.23794 27.1283 9.36236 27.2558 9.52637 27.3427C9.68902 27.4288 9.85757 27.4579 10.0137 27.4579C10.3179 27.4579 10.6149 27.3435 10.8105 27.0634C10.8163 27.0552 10.8207 27.0463 10.8262 27.038C10.7834 27.368 10.6963 27.5867 10.5996 27.7226C10.4806 27.8897 10.3265 27.9667 10.1094 27.9667C9.85014 27.9667 9.69071 27.9145 9.58594 27.8505C9.48271 27.7874 9.39252 27.688 9.3125 27.5253C9.23787 27.3735 9.18245 27.188 9.13574 26.9657C9.13888 26.9708 9.14134 26.9763 9.14453 26.9814ZM7.08203 26.5614C7.12453 26.6946 7.18354 26.8181 7.2627 26.9296C7.37442 27.0868 7.51231 27.1984 7.66113 27.2773V27.6689C7.5546 27.6103 7.46442 27.5323 7.38867 27.4306C7.25846 27.2557 7.1441 26.9818 7.08203 26.5614ZM8.35352 23.9247H10.7275V24.3652H9.7334L9.78613 24.4277C9.71598 24.4133 9.64395 24.4033 9.56934 24.4013H9.57031L9.09082 24.3671L8.04492 24.2919L8.15527 24.4501C8.12737 24.4452 8.10004 24.4409 8.07324 24.4384L7.96973 24.4345C7.56632 24.4345 7.30729 24.7093 7.17578 24.9716C7.12337 25.0761 7.08585 25.1916 7.05664 25.3134C7.10829 24.7847 7.24053 24.4656 7.39746 24.2753C7.58123 24.0526 7.86777 23.9247 8.35352 23.9247ZM10.0986 18.413C10.5598 18.731 10.8866 19.3703 10.8867 20.2695C10.8867 20.941 10.7088 21.4514 10.4072 21.788C10.1135 22.1158 9.6462 22.3417 8.92773 22.3417C8.21106 22.3417 7.77642 22.1181 7.50879 21.7948C7.27804 21.516 7.12886 21.1099 7.08203 20.5732C7.1322 20.8766 7.25759 21.1753 7.50195 21.4179C7.83719 21.7506 8.31835 21.9012 8.89551 21.9013C9.47391 21.9013 9.96475 21.7511 10.3203 21.457C10.6816 21.158 10.8651 20.7408 10.8652 20.3046C10.8652 19.7221 10.621 19.1208 10.0986 18.8476V18.413ZM7.82129 18.8144C7.37517 19.0472 7.12901 19.516 7.06934 20.0009C7.09722 19.4492 7.24094 19.0155 7.44824 18.7138C7.5539 18.56 7.67889 18.4379 7.82129 18.3466V18.8144ZM10.7588 16.2431V16.7519H5.5V16.2773H9.6123L9.58008 16.2431H10.7588ZM10.7588 13.5028L8.92773 14.5927L8.4209 14.8945L8.80078 15.3446L9.37402 16.0253L8.81152 15.4325L7.19238 13.7245V13.4316L7.97754 14.3241L8.26074 14.6454L8.62207 14.415L10.7588 13.0527V13.5028Z" stroke="white" stroke-opacity="0.99"/>
<mask id="path-51-inside-1_454_198" fill="white">
<path d="M20.5018 14.0924C20.5018 14.3668 20.406 14.5383 20.1505 14.5383C19.927 14.5383 19.7992 14.3668 19.7992 14.0924V13.1664H21.0127V12.7549H19.7992V12.1718H19.2563V14.161C19.2563 14.6412 19.5118 15.0527 20.1505 15.0527C20.7892 15.0527 21.0446 14.6412 21.0446 14.161V13.5437H20.5018V14.0924ZM23.3119 14.9498V13.3722C23.3119 12.9264 22.9926 12.652 22.5455 12.652C22.2581 12.652 21.9707 12.7892 21.8749 12.995V11.9318H21.3001V14.9498H21.8749V13.6809C21.8749 13.3722 22.0346 13.1321 22.322 13.1321C22.5775 13.1321 22.7052 13.235 22.7052 13.578V14.9498H23.3119ZM24.1422 13.6466C24.1741 13.3379 24.3657 13.1664 24.5893 13.1664C24.8128 13.1664 25.0364 13.3379 25.0364 13.6466H24.1422ZM25.6431 13.9895C25.6431 13.0978 25.2918 12.6863 24.5893 12.6863C23.8867 12.6863 23.5035 13.1321 23.5035 13.8181C23.5035 14.6069 23.8867 15.0184 24.6212 15.0184C25.1002 15.0184 25.4515 14.7784 25.6112 14.2982H25.0044C24.9725 14.4354 24.7809 14.5383 24.6212 14.5383C24.3338 14.5383 24.1422 14.3325 24.1103 13.9895H25.6431Z"/>
</mask>
<path d="M20.5018 14.0924C20.5018 14.3668 20.406 14.5383 20.1505 14.5383C19.927 14.5383 19.7992 14.3668 19.7992 14.0924V13.1664H21.0127V12.7549H19.7992V12.1718H19.2563V14.161C19.2563 14.6412 19.5118 15.0527 20.1505 15.0527C20.7892 15.0527 21.0446 14.6412 21.0446 14.161V13.5437H20.5018V14.0924ZM23.3119 14.9498V13.3722C23.3119 12.9264 22.9926 12.652 22.5455 12.652C22.2581 12.652 21.9707 12.7892 21.8749 12.995V11.9318H21.3001V14.9498H21.8749V13.6809C21.8749 13.3722 22.0346 13.1321 22.322 13.1321C22.5775 13.1321 22.7052 13.235 22.7052 13.578V14.9498H23.3119ZM24.1422 13.6466C24.1741 13.3379 24.3657 13.1664 24.5893 13.1664C24.8128 13.1664 25.0364 13.3379 25.0364 13.6466H24.1422ZM25.6431 13.9895C25.6431 13.0978 25.2918 12.6863 24.5893 12.6863C23.8867 12.6863 23.5035 13.1321 23.5035 13.8181C23.5035 14.6069 23.8867 15.0184 24.6212 15.0184C25.1002 15.0184 25.4515 14.7784 25.6112 14.2982H25.0044C24.9725 14.4354 24.7809 14.5383 24.6212 14.5383C24.3338 14.5383 24.1422 14.3325 24.1103 13.9895H25.6431Z" fill="white" fill-opacity="0.99"/>
<path d="M19.7992 13.1664V12.1664H18.7992V13.1664H19.7992ZM21.0127 13.1664V14.1664H22.0127V13.1664H21.0127ZM21.0127 12.7549H22.0127V11.7549H21.0127V12.7549ZM19.7992 12.7549H18.7992V13.7549H19.7992V12.7549ZM19.7992 12.1718H20.7992V11.1718H19.7992V12.1718ZM19.2563 12.1718V11.1718H18.2563V12.1718H19.2563ZM21.0446 13.5437H22.0446V12.5437H21.0446V13.5437ZM20.5018 13.5437V12.5437H19.5018V13.5437H20.5018ZM23.3119 14.9498V15.9498H24.3119V14.9498H23.3119ZM21.8749 12.995H20.8749L22.7815 13.417L21.8749 12.995ZM21.8749 11.9318H22.8749V10.9318H21.8749V11.9318ZM21.3001 11.9318V10.9318H20.3001V11.9318H21.3001ZM21.3001 14.9498H20.3001V15.9498H21.3001V14.9498ZM21.8749 14.9498V15.9498H22.8749V14.9498H21.8749ZM22.7052 14.9498H21.7052V15.9498H22.7052V14.9498ZM24.1422 13.6466L23.1475 13.5437L23.0334 14.6466H24.1422V13.6466ZM25.0364 13.6466V14.6466H26.0364V13.6466H25.0364ZM25.6431 13.9895V14.9895H26.6431V13.9895H25.6431ZM25.6112 14.2982L26.5601 14.6138L26.9976 13.2982H25.6112V14.2982ZM25.0044 14.2982V13.2982H24.2105L24.0305 14.0715L25.0044 14.2982ZM24.1103 13.9895V12.9895H23.0128L23.1146 14.0823L24.1103 13.9895ZM20.5018 14.0924H19.5018C19.5018 14.1454 19.4865 14.005 19.612 13.8317C19.6833 13.7332 19.7828 13.6497 19.9002 13.5965C20.0111 13.5461 20.1037 13.5383 20.1505 13.5383V14.5383V15.5383C20.5265 15.5383 20.9491 15.3952 21.2318 15.0048C21.4691 14.6772 21.5018 14.3138 21.5018 14.0924H20.5018ZM20.1505 14.5383V13.5383C20.224 13.5383 20.3216 13.5529 20.426 13.6019C20.5319 13.6515 20.6183 13.7243 20.6811 13.8052C20.8004 13.9589 20.7992 14.09 20.7992 14.0924H19.7992H18.7992C18.7992 14.3693 18.8619 14.7232 19.101 15.0313C19.3653 15.372 19.7551 15.5383 20.1505 15.5383V14.5383ZM19.7992 14.0924H20.7992V13.1664H19.7992H18.7992V14.0924H19.7992ZM19.7992 13.1664V14.1664H21.0127V13.1664V12.1664H19.7992V13.1664ZM21.0127 13.1664H22.0127V12.7549H21.0127H20.0127V13.1664H21.0127ZM21.0127 12.7549V11.7549H19.7992V12.7549V13.7549H21.0127V12.7549ZM19.7992 12.7549H20.7992V12.1718H19.7992H18.7992V12.7549H19.7992ZM19.7992 12.1718V11.1718H19.2563V12.1718V13.1718H19.7992V12.1718ZM19.2563 12.1718H18.2563V14.161H19.2563H20.2563V12.1718H19.2563ZM19.2563 14.161H18.2563C18.2563 14.5656 18.3636 15.0512 18.714 15.4485C19.0837 15.8676 19.6038 16.0527 20.1505 16.0527V15.0527V14.0527C20.0979 14.0527 20.0927 14.0443 20.1168 14.0541C20.144 14.0651 20.1812 14.0884 20.2138 14.1254C20.2446 14.1602 20.256 14.1897 20.2587 14.1983C20.261 14.2053 20.2563 14.1942 20.2563 14.161H19.2563ZM20.1505 15.0527V16.0527C20.6972 16.0527 21.2173 15.8676 21.587 15.4485C21.9374 15.0512 22.0446 14.5656 22.0446 14.161H21.0446H20.0446C20.0446 14.1942 20.04 14.2053 20.0423 14.1983C20.045 14.1897 20.0564 14.1602 20.0871 14.1254C20.1198 14.0884 20.1569 14.0651 20.1842 14.0541C20.2082 14.0443 20.2031 14.0527 20.1505 14.0527V15.0527ZM21.0446 14.161H22.0446V13.5437H21.0446H20.0446V14.161H21.0446ZM21.0446 13.5437V12.5437H20.5018V13.5437V14.5437H21.0446V13.5437ZM20.5018 13.5437H19.5018V14.0924H20.5018H21.5018V13.5437H20.5018ZM23.3119 14.9498H24.3119V13.3722H23.3119H22.3119V14.9498H23.3119ZM23.3119 13.3722H24.3119C24.3119 12.8972 24.1343 12.4396 23.7719 12.1075C23.4192 11.7845 22.9712 11.652 22.5455 11.652V12.652V13.652C22.5669 13.652 22.5021 13.6567 22.4209 13.5823C22.3815 13.5462 22.3511 13.502 22.3323 13.4569C22.3138 13.4127 22.3119 13.381 22.3119 13.3722H23.3119ZM22.5455 12.652V11.652C22.2503 11.652 21.9527 11.7208 21.6903 11.8523C21.4369 11.9793 21.1393 12.2058 20.9683 12.5729L21.8749 12.995L22.7815 13.417C22.7427 13.5004 22.6948 13.5551 22.661 13.5865C22.6273 13.6179 22.5999 13.6336 22.5864 13.6403C22.5635 13.6518 22.5533 13.652 22.5455 13.652V12.652ZM21.8749 12.995H22.8749V11.9318H21.8749H20.8749V12.995H21.8749ZM21.8749 11.9318V10.9318H21.3001V11.9318V12.9318H21.8749V11.9318ZM21.3001 11.9318H20.3001V14.9498H21.3001H22.3001V11.9318H21.3001ZM21.3001 14.9498V15.9498H21.8749V14.9498V13.9498H21.3001V14.9498ZM21.8749 14.9498H22.8749V13.6809H21.8749H20.8749V14.9498H21.8749ZM21.8749 13.6809H22.8749C22.8749 13.6863 22.8748 13.7815 22.7833 13.9004C22.7348 13.9635 22.6648 14.0261 22.5734 14.0712C22.4815 14.1166 22.3925 14.1321 22.322 14.1321V13.1321V12.1321C21.8666 12.1321 21.4624 12.3373 21.198 12.6811C20.9548 12.9972 20.8749 13.3668 20.8749 13.6809H21.8749ZM22.322 13.1321V14.1321C22.3212 14.1321 22.3089 14.1321 22.2881 14.1296C22.2672 14.1269 22.2333 14.1212 22.1907 14.1079C22.0988 14.0791 21.9809 14.0189 21.8775 13.9079C21.6799 13.6957 21.7052 13.4879 21.7052 13.578H22.7052H23.7052C23.7052 13.3251 23.6666 12.8944 23.3413 12.545C22.9954 12.1736 22.553 12.1321 22.322 12.1321V13.1321ZM22.7052 13.578H21.7052V14.9498H22.7052H23.7052V13.578H22.7052ZM22.7052 14.9498V15.9498H23.3119V14.9498V13.9498H22.7052V14.9498ZM24.1422 13.6466L25.1369 13.7495C25.1338 13.7794 25.1131 13.8836 25.0081 13.9907C24.8987 14.1023 24.7447 14.1664 24.5893 14.1664V13.1664V12.1664C23.7466 12.1664 23.2204 12.839 23.1475 13.5437L24.1422 13.6466ZM24.5893 13.1664V14.1664C24.4494 14.1664 24.3087 14.1138 24.1998 14.0079C24.0797 13.8912 24.0364 13.748 24.0364 13.6466H25.0364H26.0364C26.0364 12.7588 25.3378 12.1664 24.5893 12.1664V13.1664ZM25.0364 13.6466V12.6466H24.1422V13.6466V14.6466H25.0364V13.6466ZM25.6431 13.9895H26.6431C26.6431 13.4412 26.54 12.8419 26.1531 12.3697C25.7328 11.8567 25.1415 11.6863 24.5893 11.6863V12.6863V13.6863C24.6699 13.6863 24.6924 13.6984 24.68 13.6934C24.6605 13.6856 24.6296 13.6659 24.6061 13.6373C24.5866 13.6134 24.5963 13.6126 24.6113 13.6684C24.6269 13.7266 24.6431 13.8286 24.6431 13.9895H25.6431ZM24.5893 12.6863V11.6863C24.0194 11.6863 23.4606 11.8737 23.0511 12.3135C22.6513 12.7429 22.5035 13.2949 22.5035 13.8181H23.5035H24.5035C24.5035 13.6553 24.5474 13.6415 24.5148 13.6764C24.5086 13.6831 24.5017 13.6888 24.4952 13.6933C24.4887 13.6976 24.4851 13.6989 24.4864 13.6984C24.489 13.6974 24.519 13.6863 24.5893 13.6863V12.6863ZM23.5035 13.8181H22.5035C22.5035 14.3598 22.6347 14.944 23.0551 15.3955C23.4871 15.8595 24.0695 16.0184 24.6212 16.0184V15.0184V14.0184C24.5289 14.0184 24.4874 14.0053 24.4802 14.0026C24.4777 14.0017 24.4974 14.0096 24.5188 14.0326C24.564 14.0812 24.5035 14.0651 24.5035 13.8181H23.5035ZM24.6212 15.0184V16.0184C25.0307 16.0184 25.4516 15.9139 25.8181 15.6515C26.1855 15.3884 26.4254 15.0188 26.5601 14.6138L25.6112 14.2982L24.6623 13.9827C24.6491 14.0222 24.6381 14.0387 24.6366 14.0408C24.6359 14.0419 24.6413 14.0343 24.6538 14.0253C24.6662 14.0164 24.6755 14.0134 24.6753 14.0135C24.6739 14.0139 24.6576 14.0184 24.6212 14.0184V15.0184ZM25.6112 14.2982V13.2982H25.0044V14.2982V15.2982H25.6112V14.2982ZM25.0044 14.2982L24.0305 14.0715C24.1001 13.7725 24.2967 13.6417 24.3483 13.6109C24.4174 13.5697 24.505 13.5383 24.6212 13.5383V14.5383V15.5383C24.8971 15.5383 25.1603 15.4554 25.3731 15.3284C25.5684 15.2119 25.8768 14.9612 25.9784 14.5249L25.0044 14.2982ZM24.6212 14.5383V13.5383C24.7344 13.5383 24.8868 13.5875 25.0018 13.7111C25.1021 13.8187 25.1072 13.9102 25.106 13.8968L24.1103 13.9895L23.1146 14.0823C23.1453 14.4118 23.2622 14.7777 23.5381 15.074C23.8287 15.3861 24.2207 15.5383 24.6212 15.5383V14.5383ZM24.1103 13.9895V14.9895H25.6431V13.9895V12.9895H24.1103V13.9895Z" fill="white" fill-opacity="0.99" mask="url(#path-51-inside-1_454_198)"/>
<path d="M34.3396 33.5166V31.7411C34.1405 32.6805 33.9362 33.082 33.2808 33.5166H34.3396Z" fill="white" fill-opacity="0.99" stroke="white" stroke-opacity="0.99"/>
<path d="M37.6926 33.5166V31.7411C37.8917 32.6805 38.096 33.082 38.7515 33.5166H37.6926Z" fill="white" fill-opacity="0.99" stroke="white" stroke-opacity="0.99"/>
<path d="M34.4631 12.3853V14.1608C34.264 13.2215 34.0597 12.82 33.4043 12.3853H34.4631Z" fill="white" fill-opacity="0.99" stroke="white" stroke-opacity="0.99"/>
<path d="M37.5515 12.3853V14.1608C37.7506 13.2215 37.9549 12.82 38.6104 12.3853H37.5515Z" fill="white" fill-opacity="0.99" stroke="white" stroke-opacity="0.99"/>
<path fill-rule="evenodd" clip-rule="evenodd" d="M32.1817 33.931H28.0527L28.0527 22.8449V22.7728L27.6165 22.7729L27.2808 22.2277H27.6191L27.583 19.5381L27.838 18.4339C27.8023 18.411 27.7844 18.3652 27.7844 18.3386C27.7844 18.266 27.818 18.2296 27.8851 18.2296C27.9523 18.2296 27.9858 18.266 27.9858 18.3386C27.9858 18.391 27.9684 18.4246 27.9335 18.4392L28.0527 18.9553L28.0527 17.7571L29.9084 10.5605H29.899V9.47009H30.0693V8.15645L30.1344 5H33.9866V8.25508H30.1344L30.1339 9.47009H30.3354V10.5605H30.3274L32.1817 17.7571V18.9583L32.3028 18.4341C32.2668 18.4113 32.2488 18.3652 32.2488 18.3387C32.2488 18.266 32.2824 18.2296 32.3495 18.2296C32.4167 18.2296 32.4503 18.266 32.4503 18.3387C32.4503 18.3909 32.4329 18.4243 32.3983 18.439L32.6521 19.5381L32.6185 22.2276L32.6381 22.2277H32.954L32.6518 22.7729L32.1817 22.7728V22.8315V33.931ZM30.1344 21.8642C31.0744 21.8642 31.8465 21.0283 31.8465 20.0106C31.8465 18.9929 31.0744 18.1569 30.1344 18.1569C29.1945 18.1569 28.4224 18.9929 28.4224 20.0106C28.4224 21.0646 29.1945 21.8642 30.1344 21.8642ZM28.9255 25.6805C28.9927 25.6805 29.0598 25.1717 29.0598 24.5174C29.0598 23.8632 28.9927 23.3544 28.9255 23.3544C28.8584 23.3544 28.7913 23.8632 28.7913 24.5174C28.7913 25.1717 28.8584 25.6805 28.9255 25.6805ZM29.8321 24.5174C29.8321 25.1717 29.765 25.6805 29.6978 25.6805C29.6307 25.6805 29.5636 25.1717 29.5636 24.5174C29.5636 23.8632 29.6307 23.3544 29.6978 23.3544C29.765 23.3544 29.8321 23.8632 29.8321 24.5174ZM31.2083 25.6805C31.2755 25.6805 31.3426 25.1717 31.3426 24.5174C31.3426 23.8632 31.2755 23.3544 31.2083 23.3544C31.1412 23.3544 31.0741 23.8632 31.0741 24.5174C31.0741 25.1717 31.1412 25.6805 31.2083 25.6805ZM30.6044 24.5174C30.6044 25.1717 30.5372 25.6805 30.4701 25.6805C30.403 25.6805 30.3358 25.1717 30.3358 24.5174C30.3358 23.8632 30.403 23.3544 30.4701 23.3544C30.5372 23.3544 30.6044 23.8632 30.6044 24.5174Z" fill="white" fill-opacity="0.99"/>
<path d="M45.6335 33.5166V31.7411C45.4345 32.6805 45.2302 33.082 44.5747 33.5166H45.6335Z" fill="white" fill-opacity="0.99" stroke="white" stroke-opacity="0.99"/>
<path d="M48.8543 33.5166V31.7411C49.0533 32.6805 49.2576 33.082 49.9131 33.5166H48.8543Z" fill="white" fill-opacity="0.99" stroke="white" stroke-opacity="0.99"/>
<path d="M45.7219 12.3853V14.1608C45.5228 13.2215 45.3185 12.82 44.6631 12.3853H45.7219Z" fill="white" fill-opacity="0.99" stroke="white" stroke-opacity="0.99"/>
<path d="M48.8543 12.3853V14.1608C49.0533 13.2215 49.2576 12.82 49.9131 12.3853H48.8543Z" fill="white" fill-opacity="0.99" stroke="white" stroke-opacity="0.99"/>
<path d="M49.1196 34.0528V11.9318H45.1279V34.0528H49.1196Z" fill="white" fill-opacity="0.99"/>
<path d="M48.6201 12.4318V33.5529H45.6279V12.4318H48.6201Z" stroke="white" stroke-opacity="0.99"/>
<path d="M31.9951 17.8725L31.9825 22.3168L27.88 22.3022L27.8926 17.8578L31.9951 17.8725ZM29.9591 18.5166C29.1587 18.5137 28.4895 19.2334 28.4868 20.1002C28.4844 20.9673 29.1495 21.6924 29.9501 21.6953C30.7505 21.6981 31.4197 20.9785 31.4223 20.1116C31.4248 19.2446 30.7597 18.5194 29.9591 18.5166Z" fill="white" fill-opacity="0.99"/>
<path d="M29.9208 20.3221C30.0207 20.3225 30.0875 20.2505 30.0878 20.1421C30.0881 20.0338 30.0217 19.9613 29.9218 19.961C29.8219 19.9606 29.7883 20.0688 29.7881 20.1411C29.7879 20.2133 29.8542 20.3219 29.9208 20.3221Z" fill="white" fill-opacity="0.99"/>
<path d="M29.9208 20.1414L29.253 20.6447L29.9208 20.1414Z" fill="white" fill-opacity="0.99"/>
<path d="M29.9208 20.1414L29.253 20.6447" stroke="white" stroke-opacity="0.99" stroke-width="0.25"/>
<path d="M29.9214 20.1426L30.7199 20.904L29.9214 20.1426Z" fill="white" fill-opacity="0.99"/>
<path d="M29.9214 20.1426L30.7199 20.904" stroke="white" stroke-opacity="0.99" stroke-width="0.25"/>
<defs>
<filter id="filter0_f_454_198" x="0.5" y="0.5" width="55.2041" height="38.0571" filterUnits="userSpaceOnUse" color-interpolation-filters="sRGB">
<feFlood flood-opacity="0" result="BackgroundImageFix"/>
<feBlend mode="normal" in="SourceGraphic" in2="BackgroundImageFix" result="shape"/>
<feGaussianBlur stdDeviation="2" result="effect1_foregroundBlur_454_198"/>
</filter>
<filter id="filter1_f_454_198" x="22.3857" y="0.5" width="16.1011" height="37.931" filterUnits="userSpaceOnUse" color-interpolation-filters="sRGB">
<feFlood flood-opacity="0" result="BackgroundImageFix"/>
<feBlend mode="normal" in="SourceGraphic" in2="BackgroundImageFix" result="shape"/>
<feGaussianBlur stdDeviation="2" result="effect1_foregroundBlur_454_198"/>
</filter>
<filter id="filter2_f_454_198" x="22.3857" y="0.5" width="16.1011" height="37.931" filterUnits="userSpaceOnUse" color-interpolation-filters="sRGB">
<feFlood flood-opacity="0" result="BackgroundImageFix"/>
<feBlend mode="normal" in="SourceGraphic" in2="BackgroundImageFix" result="shape"/>
<feGaussianBlur stdDeviation="2" result="effect1_foregroundBlur_454_198"/>
</filter>
</defs>
</svg>
