<svg width="1440" height="913" viewBox="0 0 1440 913" fill="none" xmlns="http://www.w3.org/2000/svg">
<g filter="url(#filter0_d_23_29)">
<path d="M40.2994 453.194C35.4554 454.383 30.2864 454.692 25.4803 454.493C18.4663 454.281 11.4068 453.382 4.93459 449.97C-2.05474 446.343 -7.43373 439.701 -10.3309 429.489C-10.863 427.551 -11.1154 425.503 -11.4482 423.493C-11.5837 422.198 -11.4234 419.434 -10.7803 418.304C-10.1529 417.271 -10.842 417.201 -11.402 416.974C-14.284 416.854 -17.0542 415.761 -19.9384 415.641C-21.5149 416.024 -23.1 415.591 -24.6449 416.057C-25.0014 416.164 -25.3998 416.31 -25.8786 416.494L-26.6051 411.818C-25.2756 412.078 -23.9042 412.298 -22.5746 412.557C-17.9169 413.464 -13.176 414.192 -8.63463 415.745C-7.35933 416.175 -5.55241 416.101 -4.55707 417.3C-4.4898 416.5 -6.63745 415.151 -7.12232 414.748C-4.23918 413.161 -1.88805 412.336 1.08088 412.237C4.91849 412.012 8.53483 413.058 12.0086 414.973C19.1024 418.917 24.352 426.365 29.2448 434.518C33.7202 442.018 38.9538 448.859 45.9984 450.619C46.9047 450.86 47.905 450.902 48.8566 451.064C49.0105 451.07 49.1542 451.198 49.2876 451.448C46.2736 452.133 43.284 452.629 40.2994 453.194Z" fill="#E54D1D" fill-opacity="0.7"/>
<path d="M1454.55 915.063C1449.54 914.47 1444.34 913.203 1439.58 911.703C1432.63 909.567 1425.73 906.964 1419.83 902.867C1413.44 898.481 1409.13 892.561 1407.86 884.99C1407.64 883.558 1407.71 882.133 1407.69 880.71C1407.76 879.815 1408.36 878.035 1409.18 877.472C1409.97 876.967 1409.3 876.725 1408.77 876.416C1405.92 875.516 1403.33 874.006 1400.48 873.105C1398.85 872.91 1397.34 872.172 1395.72 872.04C1395.35 872.01 1394.93 871.993 1394.42 871.978L1394.44 868.682C1395.72 869.232 1397.06 869.767 1398.34 870.317C1402.84 872.242 1407.45 874.073 1411.73 876.391C1412.93 877.039 1414.74 877.504 1415.54 878.579C1415.74 878.07 1413.81 876.568 1413.39 876.163C1416.51 875.935 1418.99 876.06 1421.96 876.839C1425.82 877.783 1429.26 879.503 1432.42 881.758C1438.86 886.382 1442.91 892.798 1446.5 899.577C1449.77 905.807 1453.9 911.816 1460.64 914.984C1461.5 915.402 1462.49 915.714 1463.42 916.092C1463.57 916.14 1463.69 916.265 1463.79 916.468C1460.67 916.063 1457.62 915.539 1454.55 915.063Z" fill="#E54D1D" fill-opacity="0.7"/>
<path d="M511.059 716.004C506.841 719.383 501.927 722.438 497.148 725.001C490.209 728.786 482.93 732.203 475.143 733.856C466.76 735.674 458.652 734.87 451.432 730.641C450.079 729.829 448.952 728.798 447.763 727.833C447.074 727.168 446.042 725.498 446.184 724.493C446.352 723.552 445.65 723.897 445.005 724.079C442.14 725.615 438.965 726.532 436.097 728.07C434.722 729.167 432.989 729.802 431.68 730.929C431.378 731.189 431.052 731.495 430.664 731.866L427.944 729.596C429.354 729.004 430.787 728.366 432.197 727.774C437.135 725.699 442.077 723.475 447.178 721.834C448.609 721.37 450.341 720.321 451.828 720.453C451.55 719.957 448.873 720.382 448.227 720.421C450.359 717.908 452.3 716.127 455.156 714.416C458.807 712.151 462.787 710.735 467.003 709.896C475.625 708.201 483.953 709.538 492.235 711.477C499.83 713.275 507.882 714.274 515.516 711.357C516.505 710.991 517.5 710.458 518.498 710.02C518.652 709.938 518.847 709.931 519.085 710C516.436 712.07 513.73 714.019 511.059 716.004Z" fill="#AF0E18"/>
<path d="M47.0603 829.09C42.752 831.2 37.92 832.897 33.308 834.192C26.5968 836.128 19.6746 837.68 12.6955 837.606C5.17282 837.559 -1.55811 835.294 -6.80538 830.236C-7.78418 829.271 -8.52453 828.16 -9.3321 827.094C-9.77729 826.384 -10.3007 824.738 -9.96638 823.896C-9.62334 823.113 -10.2946 823.276 -10.8818 823.309C-13.6473 824.085 -16.5448 824.266 -19.3125 825.043C-20.7157 825.727 -22.3265 825.942 -23.6795 826.665C-23.9917 826.832 -24.3342 827.033 -24.7438 827.28L-26.5767 824.788C-25.251 824.548 -23.8952 824.272 -22.5696 824.032C-17.9255 823.19 -13.2464 822.219 -8.55496 821.785C-7.23887 821.659 -5.54134 821.086 -4.30336 821.488C-4.43506 821.005 -6.80378 820.855 -7.36277 820.764C-5.01346 818.999 -2.98273 817.832 -0.188281 816.903C3.40048 815.647 7.08961 815.19 10.856 815.279C18.5553 815.478 25.3603 818.247 31.9989 821.528C38.0817 824.555 44.7231 826.977 51.8417 825.927C52.7612 825.801 53.7211 825.531 54.6642 825.346C54.8119 825.304 54.9796 825.336 55.1674 825.442C52.4731 826.723 49.756 827.887 47.0603 829.09Z" fill="#E54D1D" fill-opacity="0.7"/>
<path d="M803.663 676.546C799.355 678.656 794.523 680.352 789.911 681.648C783.2 683.584 776.278 685.136 769.298 685.062C761.776 685.015 755.045 682.75 749.798 677.691C748.819 676.726 748.078 675.615 747.271 674.55C746.826 673.84 746.302 672.194 746.637 671.351C746.98 670.569 746.308 670.731 745.721 670.764C742.956 671.541 740.058 671.721 737.29 672.499C735.887 673.183 734.276 673.398 732.923 674.121C732.611 674.287 732.269 674.489 731.859 674.736L730.026 672.244C731.352 672.003 732.708 671.728 734.033 671.488C738.677 670.645 743.357 669.675 748.048 669.24C749.364 669.115 751.062 668.542 752.3 668.943C752.168 668.461 749.799 668.311 749.24 668.22C751.59 666.455 753.62 665.288 756.415 664.358C760.003 663.102 763.693 662.646 767.459 662.734C775.158 662.934 781.963 665.703 788.602 668.984C794.685 672.01 801.326 674.433 808.445 673.383C809.364 673.257 810.324 672.987 811.267 672.801C811.415 672.76 811.583 672.792 811.77 672.898C809.076 674.178 806.359 675.343 803.663 676.546Z" fill="#E54D1D" fill-opacity="0.7"/>
<path d="M710.349 607.535C705.569 606.769 695.507 605.215 689.196 606.07C675.03 607.907 661.658 613.738 647.797 617.049C635.232 620.057 618.866 622.623 607.462 615.78C604.209 614.017 601.722 611.787 600.208 608.503C599.925 607.89 600.134 608.18 599.628 606.97C594.281 605.914 588.931 604.941 583.852 603.019C582.365 602.561 580.877 602.103 579.241 601.6C577.308 601.005 575.374 600.41 573.464 599.897L579.631 595.922C582.766 599.288 587.638 600.871 592.021 602.219C593.196 602.581 596.512 603.826 597.798 603.922C598.767 603.994 599.683 604.351 600.121 603.055C600.429 602.247 601.409 601.419 602.115 600.582C605.285 597.308 609.379 594.978 613.4 592.76C636.466 580.472 662.342 579.849 685.019 590.705C694.627 594.451 702.685 601.052 710.349 607.535Z" fill="#E54D1D" fill-opacity="0.7"/>
<path d="M393.632 957.749C389.144 956.082 379.731 952.523 374.918 948.747C364.068 940.342 356.269 928.952 346.555 919.452C337.752 910.834 325.481 900.749 311.781 901C307.985 900.913 304.558 901.589 301.321 903.626C300.718 904.006 301.067 903.864 299.918 904.639C294.779 902.942 289.686 901.173 284.256 900.336C282.728 900.002 281.201 899.668 279.521 899.301C277.535 898.867 275.549 898.433 273.633 897.941L276.461 904.278C281.114 902.956 286.167 903.98 290.668 904.964C291.875 905.228 295.414 905.783 296.555 906.324C297.416 906.732 298.402 906.874 297.998 908.179C297.775 909.01 298.108 910.183 298.204 911.23C298.924 915.526 300.987 919.472 303.055 923.288C315.177 944.815 336.628 957.864 362.229 959.684C372.567 961.175 383.301 959.507 393.632 957.749Z" fill="#E54D1D" fill-opacity="0.7"/>
<path d="M279.524 791.17C275.935 789.575 268.367 786.265 263.209 785.658C251.648 784.229 239.813 786.169 228.161 785.986C217.596 785.824 204.14 784.529 196.707 776.7C194.544 774.617 193.089 772.318 192.637 769.371C192.552 768.822 192.652 769.097 192.526 768.022C188.556 766.078 184.565 764.2 181.001 761.617C179.934 760.944 178.867 760.272 177.693 759.533C176.305 758.659 174.918 757.785 173.53 756.982L179.278 755.055C180.987 758.4 184.464 760.669 187.609 762.649C188.453 763.181 190.782 764.859 191.772 765.2C192.518 765.457 193.159 765.931 193.795 764.981C194.22 764.395 195.177 763.931 195.921 763.404C199.153 761.426 202.899 760.395 206.562 759.439C227.48 754.303 247.981 759.107 263.382 772.469C270.099 777.445 274.953 784.396 279.524 791.17Z" fill="#E54D1D" fill-opacity="0.7"/>
<path d="M1376.04 794.556C1373.39 791.766 1367.8 785.933 1363.33 783.507C1353.34 778.007 1341.78 775.575 1331.22 771.214C1321.64 767.263 1309.87 761.208 1306.18 751.174C1305.03 748.438 1304.61 745.753 1305.36 742.82C1305.5 742.273 1305.48 742.567 1305.79 741.511C1302.94 738.256 1300.04 735.056 1297.81 731.345C1297.1 730.329 1296.39 729.313 1295.61 728.196C1294.69 726.875 1293.77 725.555 1292.82 724.301L1298.82 724.555C1299.06 728.315 1301.34 731.699 1303.43 734.692C1303.99 735.495 1305.45 737.911 1306.22 738.586C1306.8 739.096 1307.2 739.773 1308.15 739.108C1308.77 738.71 1309.83 738.618 1310.72 738.39C1314.45 737.692 1318.27 738.07 1321.99 738.488C1343.11 741.18 1359.92 753.068 1368.69 771.169C1372.86 778.263 1374.54 786.543 1376.04 794.556Z" fill="#E54D1D" fill-opacity="0.7"/>
<path d="M72.3844 644.006C70.524 642.325 66.5896 638.812 63.5628 637.45C56.7942 634.354 49.1533 633.315 42.0681 630.982C35.643 628.869 27.6879 625.496 24.7811 619.18C23.8941 617.464 23.4855 615.748 23.8255 613.817C23.8889 613.457 23.8922 613.648 24.0401 612.951C22.0197 610.979 19.9726 609.043 18.3341 606.747C17.8222 606.123 17.3103 605.499 16.7473 604.812C16.0818 604.001 15.4162 603.19 14.736 602.423L18.6526 602.311C18.9979 604.73 20.6495 606.813 22.1579 608.652C22.5625 609.145 23.6353 610.639 24.1691 611.041C24.5718 611.344 24.8642 611.763 25.452 611.289C25.834 611.003 26.5163 610.895 27.0814 610.707C29.471 610.084 31.9766 610.152 34.4161 610.251C48.2779 611.018 59.8067 617.929 66.4271 629.226C69.4928 633.62 71.0065 638.895 72.3844 644.006Z" fill="#AF0E18"/>
<path d="M1356.85 670.394C1354.99 668.712 1351.05 665.199 1348.02 663.837C1341.26 660.741 1333.62 659.702 1326.53 657.369C1320.1 655.256 1312.15 651.884 1309.24 645.567C1308.36 643.851 1307.95 642.135 1308.29 640.204C1308.35 639.844 1308.35 640.035 1308.5 639.338C1306.48 637.366 1304.43 635.43 1302.8 633.134C1302.28 632.51 1301.77 631.886 1301.21 631.2C1300.54 630.388 1299.88 629.577 1299.2 628.81L1303.11 628.698C1303.46 631.118 1305.11 633.2 1306.62 635.039C1307.02 635.532 1308.1 637.026 1308.63 637.428C1309.03 637.731 1309.33 638.15 1309.91 637.676C1310.3 637.39 1310.98 637.282 1311.54 637.094C1313.93 636.471 1316.44 636.539 1318.88 636.638C1332.74 637.405 1344.27 644.316 1350.89 655.613C1353.95 660.007 1355.47 665.283 1356.85 670.394Z" fill="#AF0E18"/>
<path d="M864.468 793.245C862.608 791.563 858.674 788.05 855.647 786.688C848.878 783.593 841.237 782.553 834.152 780.22C827.727 778.107 819.772 774.735 816.865 768.418C815.978 766.703 815.569 764.986 815.909 763.055C815.973 762.695 815.976 762.886 816.124 762.189C814.104 760.217 812.057 758.282 810.418 755.985C809.906 755.361 809.394 754.737 808.831 754.051C808.166 753.24 807.5 752.428 806.82 751.662L810.737 751.549C811.082 753.969 812.733 756.051 814.242 757.89C814.646 758.383 815.719 759.878 816.253 760.279C816.656 760.582 816.948 761.001 817.536 760.528C817.918 760.241 818.6 760.133 819.165 759.945C821.555 759.322 824.061 759.39 826.5 759.489C840.362 760.256 851.891 767.167 858.511 778.464C861.577 782.859 863.09 788.134 864.468 793.245Z" fill="#AF0E18"/>
<path d="M166.097 916.713C163.902 914.73 159.262 910.586 155.691 908.979C147.707 905.328 138.694 904.102 130.337 901.35C122.758 898.858 113.375 894.88 109.946 887.429C108.899 885.405 108.417 883.38 108.818 881.103C108.893 880.678 108.897 880.904 109.072 880.081C106.688 877.755 104.274 875.472 102.341 872.763C101.737 872.027 101.133 871.291 100.469 870.482C99.6843 869.525 98.8992 868.568 98.0968 867.663L102.717 867.531C103.124 870.385 105.072 872.841 106.851 875.01C107.329 875.592 108.594 877.355 109.224 877.828C109.699 878.186 110.044 878.68 110.737 878.121C111.188 877.784 111.993 877.656 112.659 877.434C115.478 876.699 118.433 876.779 121.311 876.896C137.662 877.801 151.261 885.953 159.07 899.279C162.686 904.462 164.472 910.685 166.097 916.713Z" fill="#E54D1D"/>
<path d="M1048.93 792.858C1045.69 791.556 1038.84 788.857 1034.23 788.479C1023.9 787.574 1013.44 789.665 1003.07 789.868C993.661 790.055 981.647 789.328 974.766 782.614C972.77 780.835 971.396 778.84 970.893 776.24C970.799 775.755 970.897 775.996 970.748 775.047C967.15 773.447 963.535 771.906 960.276 769.725C959.303 769.162 958.33 768.599 957.261 767.98C955.996 767.248 954.732 766.516 953.47 765.848L958.516 763.958C960.152 766.872 963.324 768.776 966.189 770.434C966.958 770.879 969.088 772.296 969.98 772.567C970.653 772.771 971.239 773.172 971.772 772.309C972.13 771.776 972.965 771.335 973.609 770.844C976.416 768.987 979.713 767.956 982.939 766.993C1001.37 761.781 1019.77 765.401 1033.93 776.773C1040.08 780.977 1044.64 786.992 1048.93 792.858Z" fill="#E54D1D"/>
<path d="M435.251 853.751C439.873 852.034 444.98 850.796 449.818 849.946C456.864 848.656 464.082 847.782 471.171 848.581C478.817 849.409 485.405 852.428 490.167 858.157C491.052 859.247 491.679 860.463 492.379 861.639C492.751 862.413 493.096 864.154 492.66 864.983C492.222 865.75 492.924 865.653 493.525 865.68C496.426 865.17 499.393 865.286 502.297 864.776C503.802 864.22 505.464 864.166 506.923 863.565C507.259 863.427 507.631 863.255 508.075 863.045L509.656 865.79C508.28 865.899 506.87 866.04 505.494 866.149C500.675 866.531 495.806 867.042 490.985 867.001C489.632 866.993 487.84 867.405 486.626 866.865C486.706 867.373 489.098 867.772 489.656 867.924C487.066 869.489 484.867 870.475 481.919 871.138C478.126 872.054 474.322 872.14 470.502 871.659C462.694 870.657 456.087 867.114 449.709 863.062C443.866 859.33 437.387 856.159 430.028 856.497C429.078 856.532 428.071 856.709 427.091 856.801C426.936 856.828 426.769 856.778 426.59 856.651C429.476 855.617 432.372 854.704 435.251 853.751Z" fill="#E54D1D" fill-opacity="0.7"/>
<path d="M1138.97 836.843C1141.29 832.646 1144.32 828.478 1147.42 824.761C1151.9 819.311 1156.8 814.048 1162.78 810.063C1169.21 805.741 1176.37 803.665 1184.06 804.7C1185.5 804.91 1186.84 805.376 1188.21 805.767C1189.04 806.081 1190.53 807.104 1190.78 807.977C1190.99 808.806 1191.46 808.286 1191.93 807.92C1193.79 805.691 1196.14 803.866 1198 801.636C1198.76 800.271 1199.99 799.164 1200.68 797.797C1200.84 797.482 1201 797.121 1201.19 796.685L1204.34 797.631C1203.37 798.593 1202.39 799.601 1201.41 800.563C1198 803.933 1194.64 807.427 1190.92 810.496C1189.89 811.36 1188.81 812.806 1187.5 813.2C1187.92 813.512 1190.03 812.26 1190.56 812.01C1189.69 814.793 1188.7 816.911 1186.92 819.279C1184.66 822.372 1181.82 824.878 1178.56 826.989C1171.88 831.291 1164.33 833.004 1156.6 834.207C1149.5 835.294 1142.31 837.191 1136.92 842.163C1136.22 842.798 1135.57 843.571 1134.89 844.268C1134.79 844.387 1134.63 844.458 1134.4 844.482C1135.88 841.888 1137.45 839.375 1138.97 836.843Z" fill="#E54D1D" fill-opacity="0.7"/>
</g>
<defs>
<filter id="filter0_d_23_29" x="-145.524" y="411.818" width="1613.31" height="606.33" filterUnits="userSpaceOnUse" color-interpolation-filters="sRGB">
<feFlood flood-opacity="0" result="BackgroundImageFix"/>
<feColorMatrix in="SourceAlpha" type="matrix" values="0 0 0 0 0 0 0 0 0 0 0 0 0 0 0 0 0 0 127 0" result="hardAlpha"/>
<feOffset dy="4"/>
<feGaussianBlur stdDeviation="2"/>
<feComposite in2="hardAlpha" operator="out"/>
<feColorMatrix type="matrix" values="0 0 0 0 0 0 0 0 0 0 0 0 0 0 0 0 0 0 0.15 0"/>
<feBlend mode="normal" in2="BackgroundImageFix" result="effect1_dropShadow_23_29"/>
<feBlend mode="normal" in="SourceGraphic" in2="effect1_dropShadow_23_29" result="shape"/>
</filter>
</defs>
</svg>
