<svg width="39" height="39" viewBox="0 0 39 39" fill="none" xmlns="http://www.w3.org/2000/svg">
<path d="M16.9767 22.6216H22.7841M12.6191 9.18804L14.6836 11.1071M26.8666 14.2333L19.6217 8.2576L11.5142 15.2152L19.7941 29.0181L24.3078 21.9203L26.8666 14.2333Z" stroke="#a486c7" stroke-width="5.1756"/>
<path d="M19.4236 19.5392C21.6717 19.5392 23.4942 17.7167 23.4942 15.4685C23.4942 13.2204 21.6717 11.3979 19.4236 11.3979C17.1754 11.3979 15.3529 13.2204 15.3529 15.4685C15.3529 17.7167 17.1754 19.5392 19.4236 19.5392Z" stroke="#ffffff" stroke-width="2.90764"/>
<path d="M29.5415 16.8933C29.4485 21.1036 22.6989 30.0068 19.3357 33.9321C16.0986 29.9292 9.5719 20.9175 9.36255 16.8933C9.10086 11.8631 12.4156 6.60028 19.3357 6.39675C26.2559 6.19321 29.6579 11.6305 29.5415 16.8933Z" stroke="#ffffff" stroke-width="2.90764"/>
</svg>
