<svg xmlns="http://www.w3.org/2000/svg" fill="none" viewBox="0 0 277 302"><g filter="url(#a)"><path fill="#463129" d="M72.174 206.279c-47.169-46.138-67.075-53.957-63.808-69.854 1.756-8.536 9.194-14.539 11.883-16.711 12.134-9.792 26.63-8.566 29.736-8.494 22.477.543 35.926 15.821 51.386 35.468 9.177 11.663 16.834 33.516 16.329 58.449-.106 5.176-2.558 10.734-6.987 14.527-2.588 2.214-5.727 3.831-9.151 4.416-10.06 1.723-18.536-7.187-29.392-17.801h.004Z"/><path stroke="#201614" stroke-miterlimit="10" d="M102.915 161.69 86.05 218.319"/><path fill="#5B372B" d="M100.277 227.025c7.391 17.53 6.589 34.356-1.077 39.918-12.651 9.181-44.929-11.638-42.88-25.095 1.367-8.969 18.256-16.542 40.436-17.068"/><path fill="#5B372B" d="M174.781 239.485c16.414 10.763 25.349 25.646 21.908 34.835-5.685 15.168-45.488 15.944-51.419 3.225-3.95-8.473 6.317-24.713 25.188-37.958"/><path fill="#926466" d="M142.105 280.163c.127-.022.326-.06.568-.107.895-.186 5.944-3.054 8.184-6.728.632-1.035.785-3.258-1.048-4.226-1.54-.81-4.115.467-5.155 3.174"/><path fill="#926466" d="M194.36 283.039c.063-.115.157-.293.271-.509.412-.815 1.315-6.551-.161-10.594-.416-1.141-2.062-2.643-3.958-1.811-1.595.695-2.198 3.508-.73 6.007"/><path fill="#926466" d="M170.516 289.797c.093-.089.241-.229.415-.403.645-.645 3.297-5.812 3.157-10.114-.038-1.213-1.133-3.152-3.195-2.957-1.731.165-3.186 2.647-2.571 5.481"/><path fill="#926466" d="M184.911 287.748c.064-.114.157-.293.271-.509.412-.815 1.316-6.551-.157-10.594-.415-1.141-2.057-2.643-3.958-1.815-1.595.695-2.202 3.508-.73 6.007"/><path fill="#926466" d="M154.633 287.264c.11-.072.276-.182.479-.326.747-.526 4.23-5.176 4.815-9.436.166-1.205-.581-3.3-2.647-3.453-1.735-.132-3.585 2.07-3.458 4.968"/><path fill="#AE794E" d="M220.943 144.533a24.53 24.53 0 0 1 4.904 1.323c1.069.407 2.325-.45 2.609-1.48.327-1.193-.407-2.202-1.48-2.61a24.594 24.594 0 0 0-4.905-1.323c-1.128-.183-2.282.292-2.609 1.48-.276 1.01.344 2.427 1.481 2.61Z"/><path fill="#AE794E" d="M233.144 185.223c7.191 5.685 15.739 9.533 25.039 9.482 2.728-.013 2.736-4.255 0-4.243-8.103.043-15.744-3.266-22.04-8.243-2.121-1.676-5.142 1.307-2.999 3v.004Z"/><path fill="#AE794E" d="M261.782 185.723c-.836-.258-1.184-.398-2.041-.903-.382-.225-.73-.454-.95-.658-.174-.157-.314-.331-.475-.496.203.208-.098-.335 0 .021-.128-.458.008.276-.06-.238.038.272.132-.106.013.022-.051.051-.297.271-.306.292.034-.106.213-.025.31-.021.484.026 1.591.369 1.901.522 2.431 1.23 4.582-2.431 2.142-3.661-1.455-.734-3.135-1.248-4.773-1.048-2.036.25-3.483 1.824-3.525 3.894-.072 3.437 3.827 5.495 6.639 6.364 2.614.811 3.734-3.284 1.129-4.09h-.004Z"/><path fill="#AE794E" d="M261.522 179.19c-2.189-1.595-6.847-2.775-8.405.331-.64 1.277.357 2.35-.318 3.559-.725 1.303-2.219 1.757-3.542 1.218l-.564 4.166c3.385.42 6.775.611 10.186.581l-.564-4.166a34.323 34.323 0 0 1-6.704.781c-1.994.038-3.033 2.978-1.069 3.954 2.915 1.447 5.914 2.231 9.151 2.494 2.72.221 2.707-4.021 0-4.242-2.456-.199-4.802-.819-7.012-1.913l-1.07 3.954a40.18 40.18 0 0 0 7.832-.934c2.355-.513 1.803-4.187-.564-4.166a77.061 77.061 0 0 1-10.186-.581c-2.58-.318-2.567 3.356-.565 4.166 5.261 2.134 10.772-3.644 8.608-8.744l.213 1.634c-.429 1.073-.836.364.53.593.717.119 1.328.561 1.9.976 2.211 1.608 4.332-2.07 2.143-3.661Z"/><path fill="#AE794E" d="M259.07 175.312a128.003 128.003 0 0 1-15.473-14.119c-1.107-1.188-3.118-.552-3.547.938-1.548 5.413-1.65 11-.339 16.478.509 2.129 3.47 1.9 4.09 0l3.665-11.18-4.166-.564c.331 5.757.293 11.51-.119 17.259-.169 2.355 3.776 2.936 4.167.564.623-3.801.441-7.479-.688-11.175l-4.09 1.129c1.252 3.818 2.503 7.632 3.751 11.45.785 2.393 3.886 1.753 4.166-.564.462-3.835.925-7.675 1.383-11.51l-4.166.564c.912 4.646 2.554 9.058 4.777 13.233.98 1.837 4.043 1.018 3.954-1.069-.318-7.446 1.027-19.753-9.054-21.221-1.238-.183-2.804.521-2.685 2.045.441 5.578 1.391 11.599 5.613 15.676 1.917 1.849 4.62 1.964 6.686.152 1.79-1.569 2.283-4.013 3.046-6.16.917-2.575-3.182-3.687-4.09-1.128-.632 1.782-.831 4.467-3.194 4.34l1.502.619c-4.069-3.368-4.917-8.502-5.316-13.499l-2.686 2.044c7.48 1.091 5.706 11.71 5.94 17.132l3.954-1.069a43.62 43.62 0 0 1-4.349-12.219c-.5-2.55-3.907-1.608-4.166.564-.462 3.836-.925 7.675-1.383 11.51l4.166-.564c-1.251-3.818-2.503-7.632-3.75-11.45-.845-2.58-4.896-1.502-4.09 1.128.895 2.923 1.184 5.889.687 8.918l4.166.564c.412-5.749.45-11.506.119-17.259-.136-2.388-3.407-2.88-4.166-.564l-3.666 11.179h4.09c-1.137-4.751-1.005-9.524.34-14.221l-3.547.938c5.023 5.396 10.5 10.284 16.334 14.785 2.159 1.667 4.276-2.015 2.142-3.661l-.008-.013Z"/><path fill="#AE794E" d="M255.159 170.34c-1.642-1.383-3.318-2.745-4.226-4.739-.475-1.044-1.985-1.298-2.902-.759-1.069.628-1.239 1.854-.759 2.902 1.052 2.308 2.987 3.992 4.887 5.596.874.738 2.143.857 3 0 .759-.76.882-2.257 0-3Z"/><path fill="#AE794E" d="M250.021 170.717c.208.684.399 1.367.568 2.058 1.294-.543 2.584-1.09 3.878-1.633-1.459-2.134-2.919-4.268-4.378-6.407-1.532-2.24-5.21-.118-3.662 2.143a8891.47 8891.47 0 0 1 4.379 6.406c1.328 1.943 4.475.785 3.877-1.633a38.001 38.001 0 0 0-.568-2.058c-.794-2.605-4.892-1.493-4.09 1.129l-.004-.005Z"/><path fill="#AE794E" d="M241.989 162.36c1.303 2.231 1.557 4.743 3.377 6.724 1.464 1.591 4.081-.076 3.547-2.062-.166-.606-.356-1.281-.844-1.714-1.116-.992-2.478-.691-3.331.429-.623.819-.271 2.181.297 2.919 1.392 1.811 4.497.869 3.878-1.634a52.68 52.68 0 0 0-1.243-4.238c-.87-2.571-4.972-1.468-4.09 1.129a53.612 53.612 0 0 1 1.243 4.238c1.294-.543 2.584-1.09 3.878-1.633-.267-.353-.034.097-.034.326l-.289 1.069.026-.034-3.331.429c-.356-.654-.437-.704-.246-.157 1.184-.687 2.363-1.375 3.547-2.062-1.455-1.578-1.646-4.03-2.715-5.863-1.375-2.355-5.044-.225-3.661 2.142l-.009-.008Z"/><path fill="#AE794E" d="M237.815 157.074c.115 2.252-.259 4.297-1.133 6.376h4.09c-.233-1.175-.611-2.299-.921-3.453-.144-.539-.28-1.078-.331-1.638a4.808 4.808 0 0 1-.021-.882c.225-.883-.212-.751-1.315.394 2.618.798 3.738-3.296 1.129-4.09-2.41-.734-3.759.87-3.997 3.114-.284 2.677.849 5.113 1.366 7.684.463 2.299 3.373 1.705 4.09 0 1.006-2.385 1.413-4.922 1.286-7.505-.136-2.716-4.379-2.733-4.243 0Z"/><path fill="#AE794E" d="M229.974 150.527c2.418 5.036 3.933 10.518 4.561 16.067.305 2.711.475 5.511.313 8.239-.165 2.813-.831 5.545-.878 8.379-.012.674.395 1.548 1.052 1.833 3.984 1.714 8.248 2.736 12.045 4.874l1.633-3.877c-.98-.323-1.947-.632-2.88-1.069-.543 1.294-1.091 2.583-1.634 3.877 1.023.246 1.939.594 2.881 1.069l1.633-3.877c-5.795-2.215-6.707-10.327-7.797-15.537-1.388-6.639-2.317-13.364-3.827-19.978-.607-2.66-4.697-1.535-4.09 1.129 1.752 7.683 2.719 15.523 4.54 23.194 1.493 6.291 3.444 12.761 10.046 15.286 2.24.857 3.767-2.796 1.633-3.878-1.256-.636-2.52-1.167-3.894-1.498-2.232-.538-3.899 2.813-1.634 3.878 1.269.594 2.563 1.061 3.895 1.498 2.295.751 3.716-2.707 1.633-3.878-3.818-2.151-8.044-3.156-12.044-4.875l1.052 1.833c.051-3.076.836-6.062.899-9.126a58.383 58.383 0 0 0-.522-8.985c-.772-5.821-2.414-11.421-4.955-16.712-1.184-2.46-4.841-.309-3.661 2.143v-.009Z"/><path fill="#AE794E" d="M260.794 186.36c-8.1-.365-16.042-2.079-24.098-2.868-2.715-.267-2.698 3.975 0 4.242 8.056.794 15.998 2.503 24.098 2.868 2.727.123 2.723-4.119 0-4.242Z"/><path fill="#AE794E" d="M229.708 151.868a568.87 568.87 0 0 1 9.215 19.172c1.133 2.478 4.794.327 3.661-2.142a554.599 554.599 0 0 0-9.215-19.173c-1.23-2.439-4.891-.292-3.661 2.143Z"/><path fill="#AE794E" d="M232.037 193.598c5.239-2.495 10.712-4.455 16.041-6.746 2.499-1.078.343-4.731-2.143-3.661-5.328 2.295-10.797 4.251-16.041 6.745-2.465 1.175-.314 4.832 2.143 3.662Z"/><path fill="#AE794E" d="M226.097 198.591c7.268-5.125 14.463-10.619 23.169-13.02l-2.062-3.547-.81.301c.543 1.294 1.09 2.584 1.633 3.878.378-.28.789-.492 1.239-.632l-2.062-3.547c-1.048 1.111-2.036 2.248-3.33 3.08 1.039.798 2.079 1.595 3.114 2.397.161-1.15 1.875-1.612 2.783-2.142-.857-1.112-1.714-2.224-2.571-3.331-1.035 1.035-2.054 2.071-3.199 2.987l2.999 2.999c.819-1.014 1.68-1.926 2.771-2.655-.857-1.112-1.714-2.224-2.571-3.331-8.668 8.392-17.747 16.347-28.48 22.006.857 1.112 1.714 2.223 2.571 3.331 8.043-7.395 17.161-13.441 26.965-18.243l-2.142-3.662a429.044 429.044 0 0 1-30.937 16.16l2.902 2.902a26.09 26.09 0 0 1 1.629-2.164c1.748-2.078-1.239-5.095-2.999-2.999a35.952 35.952 0 0 0-2.291 3.025c-1.294 1.913 1.154 3.725 2.902 2.902a429.231 429.231 0 0 0 30.936-16.16c2.393-1.375.289-4.854-2.142-3.661-10.123 4.955-19.524 11.268-27.827 18.904-1.829 1.68.5 4.425 2.571 3.331 11.035-5.817 20.428-14.043 29.337-22.668 1.697-1.642-.535-4.697-2.571-3.33a15.983 15.983 0 0 0-3.627 3.321c-1.727 2.139.861 4.714 2.999 3 1.146-.916 2.164-1.952 3.199-2.987 1.697-1.701-.475-4.556-2.571-3.33-1.96 1.145-4.378 2.134-4.735 4.679-.233 1.668 1.392 3.505 3.114 2.397 1.608-1.035 2.885-2.363 4.188-3.742 1.353-1.438.034-4.314-2.062-3.546-.798.292-1.536.602-2.253 1.06-2.036 1.286-.734 4.438 1.634 3.878 1.077-.255 1.828-.713 2.681-1.392 1.731-1.37-.161-4.068-2.062-3.546-9.083 2.503-16.597 8.094-24.183 13.448-2.214 1.562-.097 5.244 2.143 3.662l.008-.013Z"/><path fill="#AE794E" d="M221.337 213.457c9.057-10.365 22.527-15.422 32.884-24.272 1.841-1.574-.543-4.586-2.571-3.33a461.436 461.436 0 0 1-41.569 22.821l2.902 2.901c2.215-4.722 6.139-8.116 10.339-11.056 2.219-1.552.102-5.235-2.142-3.661-4.765 3.339-9.342 7.212-11.858 12.579-.912 1.947.933 3.857 2.902 2.902a461.33 461.33 0 0 0 41.568-22.821c-.857-1.111-1.714-2.223-2.571-3.33-10.373 8.863-23.788 13.865-32.884 24.272-1.79 2.049 1.201 5.061 3 2.999v-.004Z"/><path fill="#AE794E" d="M217.018 214.501c11.256-7.013 23.046-13.08 34.815-19.172-.857-1.112-1.714-2.224-2.571-3.331-1.32 1.154-2.491 2.351-4.094 3.11l2.902 2.902c.933-1.256 2.401-1.99 3.763-2.677-.857-1.112-1.714-2.223-2.571-3.331-6.44 6.721-14.37 11.625-22.286 16.402-2.334 1.409-.204 5.078 2.142 3.661 8.214-4.955 16.461-10.093 23.143-17.067 1.701-1.778-.437-4.413-2.571-3.331-2.134 1.082-3.869 2.295-5.286 4.2-1.417 1.905 1.209 3.704 2.902 2.902 1.918-.908 3.373-2.393 4.955-3.771 1.888-1.646-.517-4.396-2.571-3.331-11.769 6.093-23.559 12.159-34.814 19.172-2.312 1.443-.187 5.113 2.142 3.662Z"/><path fill="#AE794E" d="M255.86 192.486c-11.107 5.884-22.197 11.82-33.699 16.915-2.49 1.103-.335 4.76 2.143 3.661 11.501-5.095 22.587-11.034 33.698-16.915 2.414-1.277.272-4.942-2.142-3.661Z"/><path fill="#AE794E" d="M254.178 194.421c-11.064 5.977-23.037 9.927-34.492 15.056l2.143 3.662c1.26-.743 2.494-1.583 3.848-2.147l-1.634-3.878c-1.353 1.001-2.808 1.697-4.352 2.359l2.142 3.661c10.029-5.612 21.692-7.178 31.968-12.256 2.448-1.209.301-4.871-2.143-3.662-10.28 5.079-21.913 6.632-31.967 12.257-2.448 1.37-.297 4.709 2.142 3.661 1.544-.661 3-1.357 4.353-2.358 1.739-1.29.785-4.884-1.633-3.878-1.714.713-3.263 1.633-4.858 2.575-2.406 1.413-.301 4.756 2.142 3.661 11.455-5.129 23.423-9.074 34.492-15.056 2.401-1.299.263-4.964-2.142-3.662l-.009.005Z"/><path fill="#AE794E" d="M232.316 211.242c6.033-2.486 12.193-4.705 17.946-7.814 2.401-1.299.263-4.964-2.142-3.662-5.435 2.936-11.235 5.04-16.932 7.391-2.491 1.026-1.4 5.133 1.128 4.09v-.005Z"/><path fill="#AE794E" d="M213.042 218.722a71.609 71.609 0 0 1 13.64-10.645 804.052 804.052 0 0 1-3.114-2.397c-1.077 2.983-2.596 5.715-4.463 8.273-1.612 2.211 2.07 4.328 3.661 2.143 2.088-2.864 3.687-5.953 4.892-9.283.641-1.773-1.608-3.305-3.114-2.397a76.543 76.543 0 0 0-14.497 11.306c-1.934 1.931 1.065 4.93 3 3h-.005Z"/><path fill="#AE794E" d="M229.942 195.121c6.711-1.167 13.512-1.642 20.279-2.427l-1.069-3.954a311.786 311.786 0 0 1-26.592 13.181c1.039.798 2.078 1.596 3.114 2.397.233-1.527.157-1.463 1.489-2.231a31.697 31.697 0 0 1 3.988-1.952c2.715-1.094 5.557-1.862 8.417-2.482 5.625-1.217 11.353-1.871 16.966-3.173-.543-1.294-1.091-2.584-1.634-3.878l-29.354 14.221c.857 1.112 1.714 2.223 2.571 3.331 5.813-7.09 14.938-9.873 23.343-12.605-.543-1.294-1.091-2.584-1.634-3.878-11.493 6.237-23.329 11.88-34.33 18.986-2.287 1.476-.162 5.15 2.142 3.661 11.001-7.106 22.838-12.749 34.331-18.985 2.087-1.133.674-4.629-1.634-3.878-9.057 2.94-18.951 6.054-25.213 13.695-1.523 1.858.335 4.417 2.571 3.33 9.783-4.738 19.571-9.482 29.354-14.221 2.236-1.081.624-4.399-1.633-3.877-6.406 1.485-12.982 2.113-19.359 3.729-3.135.793-6.215 1.854-9.121 3.288-1.371.679-3.114 1.404-4.192 2.499-.878.895-.967 2.104-1.146 3.279-.292 1.914 1.35 3.169 3.115 2.397a311.786 311.786 0 0 0 26.592-13.181c1.731-.963 1.082-4.205-1.069-3.954-7.141.827-14.319 1.349-21.404 2.579-2.686.467-1.548 4.557 1.129 4.09l-.017.013Z"/><path fill="#AE794E" d="M225.949 198.404c7.793-2.842 16.024-3.78 24.08-5.553 2.682-.59 1.532-4.607-1.128-4.09-1.027.2-2.053.403-3.084.598l1.128 4.09c1.027-.204 2.058-.399 3.084-.598l-1.128-4.09c-7.255 1.697-14.65 2.571-21.993 3.763-2.69.437-1.549 4.527 1.128 4.09 7.344-1.192 14.739-2.066 21.993-3.763 2.678-.628 1.528-4.603-1.128-4.09-1.027.2-2.058.395-3.084.598-2.686.531-1.54 4.586 1.128 4.09 1.031-.191 2.058-.399 3.084-.598l-1.128-4.09c-8.061 1.773-16.291 2.711-24.081 5.554-2.545.929-1.446 5.031 1.129 4.089Z"/><path fill="#AE794E" d="M242.554 203.245c-11.047 2.164-21.942 5.269-33.189 6.266l.564 4.166a3.274 3.274 0 0 1 1.37-.339l-.564-4.166c-.645.178-1.273.305-1.934.416l1.633 3.877c.093-.051.666-.301.67-.339.119-.662 1.88.645-.352-.437l-.976-1.269.03.179.212-1.634c.424-.619.734-.348.102-.505-.195-.046-.556.043-.759.056l1.501 3.623c.459-.518.862-1.078 1.294-1.617.382-.471 1.303-1.103 1.549-1.595l.229-.106-1.145-1.884c-.064-.012-.773.582-.866.637-.95.556-2.066.789-3.131 1.018l2.062 3.547c6.029-5.325 13.818-7.807 21.45-9.83 7.73-2.049 16.661-3.212 23.232-8.082 1.277-.946 1.447-2.749 0-3.662-2.35-1.489-4.734-.916-7.229-.131-3.076.967-6.3 1.536-9.414 2.397-6.292 1.739-12.507 3.75-18.862 5.265l1.633 3.878c.59-.403.997-.527 1.718-.569l-1.069-3.954c-.725.31-1.519.471-2.282.645a804.052 804.052 0 0 0 2.397 3.114c.182-.25.356-.488.56-.726l.309-.347c.586-.416.391-.565-.581-.442l-.976-1.268c-.241-.641.734-1.26.017-1.269-.148 0-.7.412-.81.471-.229.123-1.417.666-.921.467l2.61 2.609c.224-.585.543-1.069.95-1.54 1.782-2.053-1.209-5.07-3-2.999-.92 1.06-1.54 2.1-2.045 3.411-.547 1.438 1.159 3.186 2.61 2.609 1.9-.755 5.502-2.262 4.675-4.888-.479-1.519-2.236-2.036-3.619-1.536-1.515.552-2.545 2.054-3.453 3.305-1.159 1.6.746 3.496 2.397 3.114a19 19 0 0 0 3.296-1.073c1.956-.831.933-4.069-1.069-3.954-1.417.085-2.669.339-3.861 1.15-1.96 1.332-.776 4.45 1.634 3.877 5.574-1.323 11.043-3.033 16.55-4.611 2.702-.777 5.418-1.515 8.158-2.155 1.201-.28 2.393-.522 3.572-.896 1.303-.415 2.69-1.098 3.959-.297v-3.661c-3.577 2.652-7.794 3.891-12.041 5.032-4.246 1.141-8.116 2.032-12.15 3.156-7.713 2.147-15.278 5.023-21.353 10.39-1.689 1.494.136 3.959 2.062 3.547 2.414-.518 9.575-3.356 6.525-7.047-1.179-1.43-3.42-1.23-4.887-.373-1.587.929-2.521 2.533-3.704 3.873-1.12 1.269-.463 3.759 1.502 3.623 1.964-.135 5.379-.623 4.505-3.462-.814-2.651-3.924-1.383-5.579-.492-2.261 1.222-.594 4.243 1.634 3.878a17.65 17.65 0 0 0 1.934-.416c2.245-.615 1.88-4.336-.564-4.166-.882.059-1.667.178-2.499.492-2.057.777-2.002 4.395.564 4.166 11.638-1.026 22.889-4.179 34.318-6.414 2.677-.526 1.545-4.616-1.128-4.09l.025-.013Z"/><path fill="#AE794E" d="M247.403 188.15a689.856 689.856 0 0 1-34.394 12.626c-2.355.793-1.791 3.916.564 4.166 6.02.636 11.391-2.125 16.724-4.514 5.965-2.669 11.994-5.197 17.933-7.925 1.905-.874.972-4.094-1.069-3.954-11.548.789-21.726 6.224-31.543 11.934-2.113 1.231-.687 4.421 1.633 3.878 3.959-.925 7.981-1.854 11.706-3.509 3.508-1.557 6.953-3.25 10.436-4.853 7.128-3.284 14.539-6.317 22.418-7.115 2.69-.271 2.719-4.518 0-4.242-7.908.797-15.269 3.508-22.477 6.741-3.729 1.671-7.408 3.466-11.124 5.167-3.857 1.765-7.976 2.758-12.087 3.717l1.633 3.878c9.117-5.304 18.659-10.624 29.405-11.358l-1.069-3.954c-5.447 2.503-10.963 4.837-16.444 7.263-5.129 2.274-10.271 5.21-16.071 4.599l.565 4.166a689.149 689.149 0 0 0 34.394-12.625c2.507-.997 1.413-5.1-1.129-4.09l-.004.004Z"/><path fill="#AE794E" d="M258.304 195.965c.123-.216.25-.433.39-.641.064-.093.132-.178.191-.271.165-.255-.318.369.025-.03.344-.399.671-.738 1.048-1.069.836-.738.811-2.257 0-2.999-.891-.815-2.108-.785-2.999 0a11.399 11.399 0 0 0-2.321 2.868c-.547.967-.263 2.363.76 2.901 1.022.539 2.32.272 2.902-.759h.004Z"/><path fill="#AE794E" d="M256.424 192.223c-.722.28-1.443.569-2.156.87-.509.216-.992.454-1.268.976a2.171 2.171 0 0 0-.25 1.353c.148 1.107 1.018 1.735 2.083 1.841.428.043.857.072 1.285.094 1.112.046 2.172-1.01 2.121-2.122-.055-1.192-.933-2.07-2.121-2.121a22.194 22.194 0 0 1-1.285-.093l.564 4.166c.713-.301 1.434-.59 2.155-.87.53-.203.972-.467 1.269-.976.267-.454.377-1.124.212-1.633-.327-1.006-1.502-1.909-2.609-1.481v-.004Z"/><path fill="#AE794E" d="M249.249 181.205c3.836 2.168 7.285 4.794 10.356 7.959 1.905 1.96 4.905-1.039 3-2.999-3.309-3.407-7.085-6.284-11.213-8.621-2.38-1.345-4.523 2.316-2.143 3.661Z"/><path fill="#AE794E" d="M245.448 199.435c-4.192 3.488-9.232 5.749-14.26 7.743-2.507.997-1.412 5.099 1.129 4.09 5.757-2.283 11.34-4.845 16.134-8.833 2.1-1.748-.916-4.735-2.999-3h-.004Z"/><path fill="#AE794E" d="M235.757 177.527c.531 1.671 1.574 2.838 2.945 3.903 1.103.853 3.228 1.867 3.041 3.487l2.122-2.121c-2.991-.246-5.651-1.604-7.573-3.907-1.748-2.1-4.735.916-3 2.999 2.643 3.178 6.513 4.815 10.573 5.151 1.234.101 1.998-1.061 2.121-2.122.216-1.879-.781-3.551-2.109-4.802-1.2-1.137-3.5-2.045-4.03-3.712-.823-2.593-4.921-1.485-4.09 1.128v-.004Z"/><path fill="#AE794E" d="M259.486 186.653c-4.137 3.597-8.528 6.894-12.647 10.517-3.882 3.419-8.43 5.897-12.359 9.257-2.079 1.778.934 4.769 3 2.999 3.92-3.355 8.472-5.833 12.358-9.257 4.116-3.627 8.507-6.919 12.647-10.517 2.062-1.795-.946-4.786-2.999-2.999Z"/><path fill="#AE794E" d="m236.941 158.071.331.038-.237-.03c.182-.004.394.064.568.102.352.068.7.157 1.044.25 1.069.297 2.354-.365 2.609-1.48.255-1.116-.339-2.291-1.481-2.61-.929-.258-1.875-.407-2.834-.509-1.107-.118-2.168 1.061-2.121 2.122.055 1.251.933 1.994 2.121 2.121v-.004Z"/><path fill="#AE794E" d="M248.218 205.71c.874-.564 1.739-1.141 2.596-1.731.912-.628 1.413-1.888.76-2.902-.586-.908-1.927-1.434-2.902-.759-.857.59-1.723 1.167-2.597 1.731-.933.602-1.4 1.909-.759 2.902.598.929 1.905 1.404 2.902.759Z"/><path fill="#AE794E" d="M241.06 208.336c.993-.518 1.99-1.031 2.983-1.544 2.146-1.112.661-4.535-1.634-3.878-3.356.959-6.584 2.266-9.707 3.814-2.448 1.214-.301 4.875 2.143 3.661a51.187 51.187 0 0 1 8.693-3.385l-1.634-3.878-2.982 1.545c-2.423 1.26-.28 4.921 2.142 3.661l-.004.004Z"/><path fill="#AE794E" d="M258.743 188.265c-11.082 6.542-22.486 12.613-32.783 20.389-2.151 1.625-.038 5.312 2.143 3.662 10.297-7.773 21.7-13.844 32.782-20.39 2.35-1.387.216-5.057-2.142-3.661Z"/><path fill="#AE794E" d="M240.055 180.832c1.103 2.07 2.24 4.124 3.416 6.16 1.217 2.109 4.446.687 3.877-1.633-.598-2.444-1.54-4.777-2.757-6.979-1.324-2.389-4.99-.251-3.662 2.142a23.927 23.927 0 0 1 2.334 5.965c1.294-.543 2.583-1.09 3.877-1.633a216.63 216.63 0 0 1-3.415-6.16c-1.285-2.41-4.947-.272-3.661 2.142l-.009-.004Z"/><path fill="#AE794E" d="M229.658 184.951c1.383.938 2.745 1.905 4.085 2.902l-.759-2.902.11-.152.938-.548c-.429.149-.229.183.594.106.14.089.072.026-.212-.195-.251-.225-.514-.445-.768-.666-.598-.518-1.192-1.039-1.791-1.557-.865-.751-2.151-.848-2.999 0-.768.768-.87 2.244 0 3 1.145.997 2.265 2.163 3.525 3.007 1.362.913 3.462.726 4.264-.857.56-1.111.208-2.18-.759-2.901a114.331 114.331 0 0 0-4.086-2.902c-.95-.645-2.35-.183-2.902.759-.611 1.048-.191 2.257.76 2.902v.004Z"/><path fill="#AE794E" d="M226.372 193.165c-2.155.547-4.128 1.735-5.57 3.428-.743.869-.853 2.146 0 2.999.764.764 2.253.874 2.999 0 1.006-1.175 2.198-1.956 3.7-2.337 2.643-.671 1.523-4.765-1.129-4.09Z"/><path fill="#AE794E" d="M244.798 202.422c-10.429 5.337-21.934 7.959-33.279 10.564-2.66.611-1.536 4.701 1.129 4.09 11.718-2.694 23.52-5.477 34.292-10.993 2.431-1.243.289-4.904-2.142-3.661Z"/><path fill="#AE794E" d="M246.02 202.316c-1.527.115-2.808.692-4.242 1.171-1.438.479-2.902.84-4.391 1.124-2.682.509-1.545 4.599 1.128 4.09a33.763 33.763 0 0 0 3.819-.938c1.17-.364 2.46-1.111 3.686-1.204 2.707-.208 2.728-4.451 0-4.243Z"/><path fill="#AE794E" d="M230.552 195.676a20.648 20.648 0 0 0 3.25-2.761c1.069-1.125 2.019-1.507 3.508-1.922 1.909-.535 2.13-3.683 0-4.09-3.78-.721-6.737 2.749-9.448 4.908-2.134 1.702.887 4.684 3 3 2.112-1.684 4.48-3.53 7.102-4.629 2.435-1.022 1.518-4.997-1.129-4.09-3.182 1.091-5.511 3.509-8.544 4.862.857 1.112 1.714 2.224 2.571 3.331 2.218-2.491 5.222-3.997 8.544-4.336 2.69-.276 2.72-4.523 0-4.243-4.421.459-8.549 2.219-11.544 5.579-1.667 1.871.399 4.298 2.571 3.331 2.677-1.192 4.756-3.483 7.531-4.434l-1.129-4.09c-3.351 1.405-6.147 3.471-8.973 5.724l3 2.999c.869-.696 1.743-1.391 2.613-2.083.573-.458 1.884-1.892 2.707-1.735v-4.09c-1.451.407-2.902.866-4.107 1.799-1.311 1.022-2.287 2.35-3.666 3.309-2.223 1.549-.106 5.231 2.143 3.661Z"/><path fill="#AE794E" d="M238.969 184.273c-1.659 1.234-3.347 2.901-5.418 3.36.798 1.039 1.595 2.078 2.397 3.114.73-1.451 1.994-2.236 3.331-3.08 1.926-1.218.704-4.79-1.634-3.878-2.567 1.001-4.611 2.864-6.724 4.59a185.438 185.438 0 0 0-6.958 6.02c-2.024 1.842.984 4.833 2.999 3a183.013 183.013 0 0 1 5.719-4.998c1.829-1.527 3.84-3.648 6.089-4.527l-1.634-3.877c-1.926 1.217-3.801 2.516-4.849 4.603-.84 1.676.539 3.525 2.397 3.114 2.499-.552 4.425-2.295 6.427-3.789 2.164-1.612.051-5.294-2.142-3.661v.009Z"/><path fill="#AE794E" d="M235.427 181.023c-2.113-2.626-1.723-6.44-1.273-9.546.53-3.661 1.111-7.17.259-10.835-.615-2.66-4.709-1.532-4.09 1.128.971 4.196-.513 8.392-.717 12.592-.17 3.551.568 6.864 2.817 9.66 1.71 2.13 4.696-.891 2.999-2.999h.005Z"/><path fill="#AE794E" d="M236.733 179.377c-2.079-4.434-2.313-9.326-.866-13.975.815-2.614-3.279-3.73-4.09-1.129-1.798 5.783-1.268 11.786 1.29 17.246 1.158 2.469 4.815.318 3.661-2.142h.005Z"/><path fill="#AE794E" d="M239.504 177.998c.056-4.913-1.111-9.614-3.368-13.971-.781-1.51-3.611-1.32-3.878.505-.649 4.433-.284 8.769 1.337 12.965.878 2.274 3.907 1.854 4.166-.564.085-.802.174-1.604.259-2.406.292-2.711-3.955-2.69-4.243 0-.085.802-.174 1.604-.259 2.406l4.166-.565c-1.332-3.44-1.875-7.038-1.336-10.708-1.294.17-2.584.34-3.878.505 1.918 3.7 2.834 7.662 2.792 11.828-.03 2.733 4.213 2.733 4.242 0v.005Z"/><path fill="#AE794E" d="M254.573 193.967c-4.005 2.681-8.175 5.256-11.586 8.701-1.341 1.358-2.478 3.216-4.251 4.047-1.981.93-4.162 1.019-6.076 2.198-2.32 1.43-.19 5.1 2.143 3.661 1.862-1.145 4.128-1.217 6.075-2.197 1.727-.87 2.936-2.342 4.205-3.751 3.309-3.678 7.556-6.274 11.633-9.002 2.257-1.511.135-5.189-2.143-3.662v.005Z"/><path fill="#AE794E" d="M236.382 153.259c7.985 11.566 15.299 23.585 24.089 34.577 1.706 2.134 4.688-.887 3-2.999-8.562-10.704-15.651-22.456-23.428-33.716-1.54-2.231-5.218-.114-3.661 2.143v-.005Z"/><path fill="#AE794E" d="M258.005 189.224c-1.9 1.705-3.512 3.746-5.85 4.887-2.452 1.196-.305 4.858 2.143 3.661 2.664-1.302 4.543-3.606 6.707-5.549 2.036-1.828-.972-4.819-3-2.999Z"/><path fill="#AE794E" d="M236.284 153.518c7.65 8.439 15.023 17.119 22.558 25.655 1.811 2.049 4.802-.959 2.999-3-7.534-8.536-14.908-17.216-22.557-25.654-1.837-2.028-4.833.98-3 2.999Z"/><path fill="#AE794E" d="M258.022 182.499a74.346 74.346 0 0 1 2.648 3.326c.683.917 1.837 1.383 2.902.76.903-.531 1.451-1.977.759-2.902a92.713 92.713 0 0 0-3.309-4.188c-.738-.878-2.24-.759-3 0-.869.87-.738 2.122 0 3v.004Z"/><path fill="#AE794E" d="M236.677 153.663c1.948 2.409 3.59 5.035 4.977 7.806 1.222 2.439 4.883.297 3.661-2.143-1.557-3.105-3.458-5.965-5.638-8.663-1.718-2.125-4.701.895-3 3Z"/><path fill="#AE794E" d="M234.013 184.239c-1.922 1.968-3.135 4.208-4.48 6.58-1.324 2.333-3.36 4.166-4.425 6.652-1.065 2.486 2.588 4.646 3.661 2.143.976-2.279 2.804-3.967 4.086-6.063 1.353-2.21 2.316-4.425 4.157-6.309 1.842-1.883-1.09-4.959-2.999-2.999v-.004Z"/><path fill="#AE794E" d="M228.647 197.255c1.468-4.183 5.21-7.119 7.348-10.942 1.332-2.384-2.329-4.527-3.661-2.142-2.355 4.208-6.148 7.314-7.777 11.955-.908 2.58 3.19 3.691 4.09 1.129Z"/><path fill="#AE794E" d="M254.154 199.143c5.719-2.711 8.235-8.999 10.534-14.485 1.052-2.515-3.05-3.614-4.09-1.128-1.879 4.484-3.916 9.737-8.582 11.947-2.465 1.167-.314 4.828 2.142 3.661l-.004.005Z"/><path fill="#AE794E" d="M256.265 176.369c.607.199 1.027 1.277 1.438 1.739.581.653 1.404 1.107 1.909 1.824.467.658.895 1.714 1.018 2.503.191 1.231-.666 2.228-1.344 3.153-1.617 2.206 2.066 4.323 3.661 2.142 2.265-3.088 2.384-6.012.602-9.41-.755-1.438-2.006-2.206-3.008-3.424-1.001-1.217-1.629-2.117-3.156-2.617-2.601-.853-3.717 3.241-1.129 4.09h.009Z"/><path fill="#AE794E" d="M236.724 153.412c.615.836 1.167 1.71 1.659 2.622.526.976 1.96 1.366 2.902.76.992-.641 1.323-1.859.759-2.902a22.223 22.223 0 0 0-1.659-2.622c-.657-.891-1.871-1.426-2.902-.76-.882.569-1.463 1.948-.759 2.902Z"/><path fill="#AE794E" d="M237.014 149.31c-.967-.072-1.99-.615-2.893-.955l-3.237-1.209c-2.563-.955-3.666 3.144-1.129 4.09 2.329.87 4.756 2.125 7.259 2.312 2.724.208 2.711-4.039 0-4.243v.005Z"/><path fill="#AE794E" d="M238.235 150.124a478.998 478.998 0 0 1-5.6-3.644v3.661l.212-.11-1.633.212c-.268-.042-.263-.221.072.098.195.182.394.36.594.534.492.42 1.009.819 1.531 1.197a17.294 17.294 0 0 0 2.953 1.68c.874.394 1.854.381 2.571-.331.641-.641.844-1.791.331-2.571-.798-1.209-2.003-2.168-3.034-3.174-1.098-1.073-2.201-2.146-3.3-3.216-1.956-1.904-4.96 1.091-3 3 .989.967 1.982 1.93 2.97 2.898.84.818 2.062 1.663 2.703 2.634l2.901-2.902c-1.357-.611-2.655-1.357-3.78-2.342-1.285-1.124-2.452-2.206-4.234-1.264-1.485.781-1.264 2.83 0 3.661a547.813 547.813 0 0 0 5.6 3.645c2.304 1.48 4.434-2.194 2.143-3.661v-.005Z"/><path fill="#AE794E" d="M238.345 149.772c-.365-.114-.692-.751-.925-1.044a11.547 11.547 0 0 0-1.608-1.641c-1.171-.976-2.414-1.812-3.369-3.017-.717-.904-2.248-.738-2.999 0-.895.878-.709 2.109 0 3 1.137 1.429 2.707 2.337 4.018 3.585 1.311 1.247 1.968 2.638 3.759 3.203 2.609.823 3.729-3.276 1.128-4.09l-.004.004Z"/><path fill="#EDD7D7" d="M88.813 122.76c-8.129 9.058-7.764 20.407-8.082 22.825-.997 7.594.165 8.12-.624 15.956-1.544 15.35-6.364 20.67-7.654 30.309-2.634 19.732 29.041 56.298 44.263 51.585 7.895-2.444.322-12.236 10.878-14.544 3.979-.869 3.02-3.597 14.853.688 11.472 4.153 16.614 12.765 18.93 11.183 12.439-8.481 19.571-76.23 6.101-93.069-11.625-14.526-22.329-4.679-35.531-16.932-3.857-3.58-8.693-14.344-15.206-17.415-12.621-5.961-19.978.556-27.933 9.414h.005Z"/><path fill="#EDD7D7" d="M96.907 233.575c15.88 14.068 37.81 17.832 57.771 22.668l-.505-3.878c-2.995 1.888-6.695 1.243-9.996.641a68.453 68.453 0 0 1-10.373-2.745c-6.826-2.388-13.185-5.935-18.917-10.33-2.164-1.659-4.281 2.023-2.143 3.661a71.539 71.539 0 0 0 21.29 11.221 67.644 67.644 0 0 0 11.463 2.682c3.716.53 7.53.606 10.818-1.464 1.485-.938 1.328-3.432-.504-3.878-19.126-4.633-40.669-8.082-55.9-21.577-2.037-1.803-5.049 1.183-3 2.999h-.004Z"/><path fill="#EDD7D7" d="M232.482 166.085c2.015 12.087-4.34 21.433-5.359 23.639-3.203 6.937-4.463 6.737-7.971 13.763-6.877 13.754-5.656 20.882-9.707 29.698-8.29 18.043-54.394 31.361-64.686 19.023-5.337-6.397 6.245-10.466-1.4-18.213-2.885-2.923-.628-4.688-12.855-7.594-11.858-2.821-20.767 1.591-21.875-1.01-5.944-13.975 24.132-74.868 44.428-81.613 17.509-5.821 21.268 8.349 38.896 5.311 5.15-.887 14.946-7.276 22.057-6.283 13.788 1.93 16.503 11.459 18.476 23.283l-.004-.004Z"/><path stroke="#B7A293" stroke-miterlimit="10" stroke-width="12" d="M76.551 174.006c6.704 2.234 19.2 10.483 34.428 15.829 32.338 11.361 67.811 18.148 104.121 19.925"/><path fill="#EDD7D7" d="M114.602 240.945c6.131 7.42 14.149 11.904 23.381 14.271 4.561 1.167 9.291 3.564 14.102 2.614 3.984-.785 7.272-3.793 7.798-7.904.624-4.9-2.41-8.863-6.054-11.731-4.09-3.216-8.375-6.223-12.821-8.922-3.878-2.35-8.655-5.638-13.385-5.532-4.077.089-7.989 3.254-8.112 7.492-.148 5.04 4.803 7.658 9.041 8.638 4.947 1.146 10.22 1.375 14.484 4.412l2.55-4.361c-6.865-3.835-13.415-8.201-19.563-13.105l-2.456 4.221c3.933 1.523 7.921 2.957 11.811 4.599 3.072 1.294 6.037 2.932 7.781 5.872l.908-3.458c-.883.628-3.212-.573-4.226-.887a130.141 130.141 0 0 1-5.608-1.9c-3.64-1.328-7.2-2.834-10.7-4.497l-1.947 4.616a35.422 35.422 0 0 1 5.396 2.643 38.433 38.433 0 0 1 2.499 1.625c.437.305.866.623 1.286.954.577.632.725.67.445.106l.738-1.786c.531-.53.687-.153-.131-.382-.454-.127-.963-.144-1.43-.237a25.724 25.724 0 0 1-3.08-.806c-1.947-.633-3.751-1.54-5.49-2.614l-2.55 4.362a238.948 238.948 0 0 1 16.228 10.873l1.947-4.616c-5.524-1.9-10.674-4.586-15.46-7.929l-2.549 4.361a223.943 223.943 0 0 0 26.346 10.165l.67-4.959-4.357.547c-2.685.34-3.593 4.077-.67 4.96 4.06 1.23 8.073.776 11.921-.908l-3.457-3.458c-.7.997-4.951-.551-5.762-.73-2.711-.594-5.422-1.192-8.133-1.786-2.927-.645-4.183 2.932-1.947 4.616 5.155 3.882 12.333 2.788 16.843-1.527 1.472-1.413.59-3.585-1.116-4.221a207.603 207.603 0 0 0-16.474-5.388l-1.345 4.87a155.879 155.879 0 0 0 16.292 2.108c3.241.247 3.224-4.806 0-5.052-5.019-.382-10-1.019-14.951-1.926-3.152-.577-4.518 3.975-1.345 4.87a207.07 207.07 0 0 1 16.474 5.388l-1.116-4.221c-3.016 2.889-7.369 3.258-10.721.738l-1.947 4.616c3.95.869 7.895 1.849 11.871 2.605 3.037.577 5.846.271 7.73-2.41 1.62-2.308-1.417-4.349-3.458-3.458-2.597 1.137-5.342 1.214-8.031.399l-.671 4.96 4.357-.548c2.703-.339 3.577-4.051.671-4.959a213.074 213.074 0 0 1-25.141-9.656c-2.949-1.354-5.24 2.482-2.55 4.361 5.146 3.593 10.733 6.398 16.669 8.438 2.902.997 4.094-3.046 1.947-4.615a238.961 238.961 0 0 0-16.228-10.874c-2.779-1.701-5.311 2.656-2.549 4.361 2.8 1.727 5.867 3.059 9.083 3.78 2.265.509 6.135 1.566 7.564-1.048 1.655-3.02-1.816-5.231-3.886-6.699-2.817-1.998-5.889-3.529-9.104-4.777-2.652-1.026-4.527 3.39-1.948 4.616 4.366 2.071 8.833 3.937 13.394 5.537a110.74 110.74 0 0 0 6.771 2.163c1.871.527 3.793.773 5.473-.415 1.107-.785 1.655-2.198.908-3.458-2.087-3.517-5.371-5.812-9.054-7.45-4.433-1.973-9.036-3.589-13.559-5.341-2.299-.891-4.399 2.673-2.456 4.221 6.491 5.18 13.334 9.843 20.584 13.894 2.885 1.613 5.159-2.503 2.55-4.361-2.808-1.998-6.092-3.021-9.439-3.699-3.106-.633-6.767-.781-9.58-2.342-.967-.535-2.117-1.4-2.003-2.648.132-1.459 1.744-2.367 3.064-2.443 1.794-.098 3.572.857 5.12 1.646a90.05 90.05 0 0 1 5.384 2.995c3.432 2.062 6.737 4.323 9.957 6.699 2.754 2.028 6.496 4.378 6.827 8.133.297 3.373-2.966 4.951-5.893 4.709-1.829-.153-3.602-.831-5.333-1.387-1.914-.62-3.857-1.107-5.8-1.617-7.87-2.053-14.526-6.334-19.706-12.604-2.071-2.508-5.63 1.082-3.573 3.572v.026Z"/><path fill="#EDD7D7" d="M132.638 121.58c3.237 4.752 7.641 8.575 12.566 11.502 5.422 3.224 11.43 5.341 17.522 6.89 3.666.929 7.382 1.663 11.103 2.338.802.144 1.145-1.082.339-1.227-12.023-2.184-24.577-5.112-34.131-13.211-2.389-2.028-4.535-4.336-6.3-6.928-.458-.674-1.561-.038-1.099.641v-.005Z"/><path fill="#EDD7D7" d="M134.297 123.307c1.217 3.878 4.806 6.228 8.273 7.942 4.234 2.092 8.663 3.81 13.156 5.253 9.155 2.94 18.641 4.692 28.149 6.02 5.354.746 10.729 1.362 16.1 1.968v-1.272a130.1 130.1 0 0 1-30.44-3.386 131.11 131.11 0 0 1-8.43-2.27c-.785-.237-1.12.989-.339 1.226a131.454 131.454 0 0 0 39.209 5.702c.84-.004.794-1.183 0-1.272-9.329-1.057-18.671-2.126-27.899-3.916-9.227-1.791-18.149-4.243-26.622-8.091-3.822-1.739-8.565-3.89-9.931-8.239-.246-.781-1.472-.445-1.226.339v-.004Z"/><path fill="#EDD7D7" d="M147.496 136.374c8.323 2.037 16.647 4.069 24.975 6.105 8.328 2.037 16.58 4.052 24.87 6.08 4.692 1.145 9.385 2.295 14.081 3.441l.34-1.226c-6.992-1.193-13.988-2.385-20.98-3.573-1.981-.339-3.967-.674-5.948-1.014-.802-.135-1.145 1.091-.339 1.226 6.991 1.193 13.987 2.385 20.979 3.573 1.981.339 3.967.674 5.948 1.014.793.135 1.15-1.031.34-1.226-8.324-2.037-16.648-4.069-24.976-6.106-8.29-2.027-16.58-4.051-24.87-6.079-4.692-1.146-9.385-2.295-14.081-3.441-.798-.195-1.137 1.031-.339 1.226Z"/><path fill="#EDD7D7" d="M134.208 125.11c4.408 1.405 8.332 4.01 12.269 6.373l12.698 7.611c2.418 1.451 4.836 2.897 7.255 4.348l.64-1.098a715.708 715.708 0 0 1-36.282-17.191c-.73-.369-1.374.725-.64 1.099a720.76 720.76 0 0 0 36.282 17.195c.734.322 1.362-.666.64-1.099-4.293-2.575-8.587-5.146-12.876-7.722-4.204-2.52-8.366-5.12-12.63-7.539-2.24-1.272-4.556-2.418-7.017-3.203-.781-.25-1.116.98-.339 1.226Z"/><path fill="#EDD7D7" d="M120.967 123.159a139.683 139.683 0 0 1 32.583 5.871l.564-4.166c-10.632.934-21.306.687-31.963.412v4.242a204.453 204.453 0 0 1 42.323 4.357l.564-4.166a484.447 484.447 0 0 1-37.809-.263v4.243c12.655-.077 25.29.865 37.788 2.885v-4.09l-23.151 4.353c-2.414.454-1.752 4.111.564 4.166a317.619 317.619 0 0 0 42.807-1.846c2.686-.297 2.715-4.543 0-4.242a317.783 317.783 0 0 1-42.807 1.845l.564 4.166 23.152-4.352c1.998-.378 2.053-3.759 0-4.09-12.872-2.079-25.876-3.114-38.913-3.034-2.741.017-2.719 4.12 0 4.243 12.596.577 25.205.666 37.81.263 2.299-.072 2.995-3.657.564-4.166a210.013 210.013 0 0 0-43.452-4.51c-2.737 0-2.728 4.17 0 4.242 10.657.276 21.327.522 31.963-.411 2.321-.204 2.957-3.436.564-4.166-10.958-3.348-22.273-5.35-33.711-6.025-2.728-.161-2.719 4.082 0 4.243l-.004-.004Z"/><path fill="#EDD7D7" d="m188.611 139.068-32.46 1.731.565 4.166a162.119 162.119 0 0 1 32.069-5.036l-1.069-3.954a321.772 321.772 0 0 1-20.216 9.253c-2.439 1.014-1.591 4.841 1.129 4.09 11.679-3.211 23.092-7.25 34.22-12.027l-2.571-3.331c-5.655 5.719-12.363 10.314-19.8 13.394.543 1.294 1.09 2.584 1.633 3.878 6.212-3.772 12.423-7.539 18.634-11.311l-2.143-3.661c-6.372 4.136-13.084 7.734-20.097 10.665.798 1.04 1.595 2.079 2.397 3.114 2.605-3.949 6.432-6.805 10.946-8.209-.543-1.294-1.09-2.584-1.633-3.878-6.135 3.373-12.745 5.609-19.363 7.815l1.633 3.878a179.76 179.76 0 0 1 27.835-11.306l-2.061-3.547a94.218 94.218 0 0 1-11.12 11.747l2.999 3c4.175-3.729 8.35-7.459 12.52-11.188l-3.547-2.062c-1.417 4.311-3.457 8.303-6.054 12.019l3.662 2.143c2.002-3.733 4.004-7.467 6.007-11.196 1.162-2.164-1.527-4.154-3.33-2.571a127.389 127.389 0 0 1-16.389 12.193c-2.304 1.447-.217 5.07 2.142 3.661a101.802 101.802 0 0 0 18.464-14.085l-3.331-2.571c-2.668 4.578-5.668 8.931-9.041 13.016l3.547 2.062c.955-4.692 2.94-9.024 6.02-12.706l-3.546-2.062-1.96 10.381c-.505 2.669 3.228 3.746 4.089 1.129a68.76 68.76 0 0 1 5.931-13.135l-3.954-1.069a116.79 116.79 0 0 1-2.537 15.549c1.362.377 2.728.751 4.09 1.128.933-4.819 1.871-9.639 2.804-14.458l-4.166-.565c.081 4.111.161 8.218.238 12.329.047 2.355 3.555 2.932 4.166.564a51.074 51.074 0 0 0 1.629-12.596h-4.242c.314 3.573.784 7.128 1.408 10.662.412 2.325 4.434 1.82 4.166-.564a79.983 79.983 0 0 1-.454-11.392l-4.166.565a79.869 79.869 0 0 0 2.52 11.242c.666 2.211 4.319 1.91 4.166-.564-.199-3.203-.394-6.406-.594-9.609l-4.166.564a28781.6 28781.6 0 0 1 3.08 9.928c.806 2.6 4.905 1.489 4.09-1.129l-3.08-9.928c-.679-2.193-4.319-1.917-4.166.565l.594 9.609 4.166-.564a79.725 79.725 0 0 1-2.52-11.243c-.365-2.439-4.094-1.731-4.166.564-.119 3.81.034 7.603.454 11.392l4.166-.565a110.62 110.62 0 0 1-1.256-9.533c-.233-2.677-4.23-2.774-4.242 0a46.275 46.275 0 0 1-1.477 11.468l4.166.564c-.08-4.111-.161-8.218-.237-12.329-.047-2.303-3.695-2.991-4.166-.564-.934 4.82-1.871 9.639-2.805 14.459-.513 2.651 3.466 3.809 4.09 1.128a125.135 125.135 0 0 0 2.69-16.677c.204-2.168-2.953-2.783-3.954-1.069a74.14 74.14 0 0 0-6.36 14.149l4.09 1.128 1.96-10.381c.352-1.871-2.057-3.844-3.547-2.062-3.546 4.242-6.003 9.151-7.11 14.581-.382 1.875 2.083 3.84 3.547 2.062a104.296 104.296 0 0 0 9.702-13.873c1.222-2.096-1.595-4.238-3.33-2.571a96.85 96.85 0 0 1-17.607 13.419l2.143 3.662a134.534 134.534 0 0 0 17.246-12.855l-3.331-2.571c-2.002 3.733-4.005 7.467-6.007 11.196-1.307 2.435 2.113 4.361 3.661 2.142 2.805-4.013 4.951-8.383 6.479-13.033.7-2.134-2.062-3.39-3.547-2.062a35258.12 35258.12 0 0 0-12.52 11.188c-2.041 1.824.967 4.811 3 2.999a95.085 95.085 0 0 0 11.119-11.747c1.209-1.519.153-4.239-2.062-3.547a186.814 186.814 0 0 0-28.845 11.735c-2.129 1.082-.653 4.637 1.634 3.877 6.962-2.32 13.924-4.696 20.377-8.243 2.087-1.149.679-4.594-1.634-3.877-5.596 1.739-10.258 5.269-13.482 10.16-.947 1.439.666 3.84 2.397 3.114 7.365-3.08 14.411-6.745 21.106-11.094 2.278-1.476.208-5.091-2.142-3.661-6.211 3.772-12.422 7.539-18.634 11.311-1.964 1.192-.666 4.828 1.634 3.877 8.141-3.373 15.472-8.213 21.675-14.484 1.812-1.833-.471-4.234-2.571-3.33-10.785 4.633-21.891 8.485-33.206 11.599l1.128 4.09a339.928 339.928 0 0 0 21.23-9.682c1.867-.933.997-4.068-1.069-3.954a167.601 167.601 0 0 0-33.198 5.185c-2.27.594-1.867 4.297.564 4.166l32.46-1.731c2.715-.144 2.732-4.387 0-4.243h.004Z"/><path fill="#EDD7D7" d="M143.147 135.878c8.018 3.25 16.338 5.698 24.857 7.229 4.005.721 8.111.955 12.087 1.773 3.474.717 7.657 2.661 7.526 6.797-.06 1.884 2.337 2.741 3.623 1.502a26.15 26.15 0 0 0 3.432-4.103c-1.294-.543-2.584-1.09-3.878-1.633-.929 3.848-2.604 8.192-6.686 9.597-3.967 1.366-6.559-1.642-8.184-4.85-2.863-5.651-5.171-14.119-13.071-13.89-2.724.081-2.741 4.26 0 4.243 1.782-.009 3.191.437 4.675 1.417l.505-3.878c-10.245 2.062-19.952-3.92-28.276-9.121l-1.634 3.877 6.012 1.324.564-4.166c-6.826.055-13.275-2.07-18.79-6.088l-.505 3.878c5.974-1.244 12.108-1.405 18.133-.425l.564-4.166c-5.35-.339-10.649-.064-15.948.717-2.193.322-1.837 3.543 0 4.09a134.716 134.716 0 0 0 19.732 4.336l.565-4.166-14.459 1.667.564 4.166c8.307-1.417 16.724-1.858 25.137-1.404l-1.501-3.623c-2.55 2.528-5.813 3.491-9.347 3.025l1.502 3.623c1.884-1.706 4.149-2.597 6.686-2.669 2.279-.063 3.021-3.767.565-4.166-4.094-.666-8.188-1.336-12.283-2.002l.505 3.877a28.03 28.03 0 0 1 8.456-2.096c2.719-.241 2.736-4.009 0-4.242-3.997-.344-7.993-.683-11.985-1.027l.564 4.166c2.397-.339 4.794-.678 7.187-1.018 2.511-.356 1.65-3.984-.565-4.166l-31.704-2.597.564 4.167a120.712 120.712 0 0 1 23.699-3.445c2.753-.123 2.707-4.026 0-4.243l-25.027-2.011v4.243c6.788.119 13.572-.021 20.347-.416 2.716-.157 2.733-4.4 0-4.243-6.775.395-13.559.535-20.347.416-2.762-.046-2.685 4.026 0 4.243l25.027 2.011v-4.243a126.746 126.746 0 0 0-24.827 3.598c-2.44.607-1.719 3.979.564 4.166l31.704 2.596-.564-4.166-7.187 1.018c-2.52.357-1.642 3.98.565 4.167 3.996.343 7.992.683 11.985 1.026v-4.242c-3.721.335-7.166 1.217-10.598 2.677-1.634.691-1.222 3.593.505 3.878 4.094.666 8.188 1.336 12.282 2.002l.564-4.166c-3.691.106-6.953 1.438-9.686 3.911-1.523 1.379-.152 3.403 1.502 3.624 4.574.606 9.084-1.04 12.346-4.268 1.362-1.35.289-3.526-1.502-3.624-8.799-.475-17.581.077-26.265 1.558-2.33.398-1.816 4.441.564 4.166l14.458-1.668c2.13-.246 3.153-3.797.565-4.166a134.558 134.558 0 0 1-19.732-4.336v4.09c4.908-.725 9.868-.882 14.819-.568 2.35.148 2.94-3.78.564-4.167-6.818-1.111-13.623-.984-20.385.425-1.96.407-1.854 2.897-.505 3.877 6.075 4.43 13.419 6.729 20.928 6.665 2.334-.021 2.957-3.64.565-4.166l-6.012-1.323c-2.329-.514-3.717 2.575-1.634 3.877 9.444 5.902 20.013 11.871 31.548 9.55 1.905-.382 1.922-2.944.505-3.877-2.062-1.362-4.349-2.011-6.818-1.994v4.242c4.217-.123 6.347 4.671 7.713 7.963 1.459 3.522 3.059 7.323 6.347 9.533 3.288 2.211 7.802 1.948 11.141-.246 3.873-2.541 5.782-6.868 6.835-11.226.577-2.397-2.533-3.606-3.878-1.633-.81 1.192-1.731 2.24-2.766 3.241l3.623 1.502c.119-3.818-2.24-7.153-5.469-9.028-4.013-2.329-8.913-2.346-13.385-3.004-9.86-1.442-19.503-4.123-28.735-7.865-2.528-1.027-3.627 3.076-1.128 4.09l-.004.004Z"/><path fill="#EDD7D7" d="M101.579 116.315c11.382-.984 22.816-.398 34.025 1.837v-4.089c-10.093 2.117-20.224-2.283-30.22-3.199l.564 4.166c10.827-1.731 21.892-1.039 32.447 1.896 2.635.734 3.759-3.36 1.129-4.089-11.328-3.153-23.101-3.751-34.704-1.897-2.524.403-1.638 3.967.564 4.166 10.53.963 20.674 5.287 31.348 3.046 2.011-.42 2.037-3.686 0-4.089-11.578-2.308-23.389-3.008-35.149-1.99-2.698.233-2.724 4.48 0 4.242h-.004Z"/><path fill="#EDD7D7" d="M206.769 143.739c4.467.683 8.549 2.478 11.951 5.473 2.087 1.842 4.68-.891 3-2.999-3.738-4.701-8.553-8.163-14.086-10.445v4.089c1.506-.585 3.03.951 4.205 1.765 1.175.815 2.435 1.714 3.644 2.593a249.807 249.807 0 0 1 7.671 5.799c2.134 1.68 4.764-.865 2.999-2.999-3.576-4.332-7.794-8.019-12.52-11.052l-2.142 3.661c4.471 2.457 8.336 5.647 11.624 9.546 1.761 2.091 4.752-.925 3-3a44.01 44.01 0 0 0-12.486-10.207c-2.401-1.32-4.438 2.189-2.142 3.661 4.433 2.843 8.311 6.33 11.662 10.39l3-2.999a264.307 264.307 0 0 0-9.847-7.412c-2.724-1.947-6.182-5.24-9.796-3.835-2.037.793-1.969 3.275 0 4.089 4.845 2.003 8.96 5.27 12.21 9.355l2.999-2.999c-3.933-3.462-8.633-5.77-13.826-6.563-2.673-.408-3.823 3.678-1.129 4.089h.009Z"/><path fill="#EDD7D7" d="M103.259 116.231c.886-1.935 3.907-1.977 5.727-2.291 2.94-.505 5.885-.959 8.842-1.345a238.57 238.57 0 0 1 17.296-1.604c2.716-.157 2.733-4.399 0-4.242-6.8.39-13.576 1.06-20.317 2.015-3.174.449-6.398.87-9.533 1.548-2.312.505-4.641 1.502-5.68 3.776-1.13 2.465 2.528 4.625 3.66 2.143h.005Z"/><path fill="#EDD7D7" d="M171.607 138.903c.2-1.943.891-3.75 1.905-5.409 1.43-2.334-2.236-4.468-3.661-2.143-1.426 2.325-2.206 4.849-2.486 7.552-.119 1.141 1.06 2.121 2.121 2.121 1.247 0 2.002-.976 2.121-2.121Z"/><path fill="#EDD7D7" d="M176.748 140.74c-.722-2.02-.717-4.086.263-6.025 1.226-2.431-2.431-4.582-3.662-2.142-1.472 2.914-1.799 6.194-.691 9.291.912 2.554 5.014 1.451 4.09-1.129v.005Z"/><path fill="#EDD7D7" d="M107.903 243.609c24.331 12.477 54.971 21.917 81.16 9.435 6.402-3.05 12.176-7.424 16.652-12.94 1.705-2.1-1.277-5.12-3-2.999-7.513 9.257-18.493 14.722-30.122 16.732-13.627 2.355-27.699-.305-40.656-4.632-7.53-2.516-14.832-5.639-21.896-9.258-2.426-1.243-4.573 2.414-2.142 3.662h.004Z"/><path fill="#EDD7D7" d="M103.382 238.734c2.498 2.045 5.002 4.086 7.5 6.131l3-3a106.964 106.964 0 0 0-10.148-7.28l-2.143 3.661a30.87 30.87 0 0 1 7.145 5.265l2.062-3.547c-1.439-.475-2.478-1.26-3.454-2.401-1.777-2.079-4.768.938-2.999 3 1.442 1.684 3.233 2.8 5.328 3.491 2.096.692 3.526-2.1 2.062-3.547a34.931 34.931 0 0 0-8.005-5.931c-2.41-1.298-4.455 2.207-2.143 3.662a97.65 97.65 0 0 1 9.287 6.618c2.1 1.697 5.121-1.268 2.999-2.999-2.498-2.045-5.002-4.086-7.5-6.131-2.096-1.714-5.117 1.273-3 3l.009.008Z"/><path fill="#B7A293" d="M158.853 130.278c-7.662 13.436-4.362 29.239-7.404 43.783-1.646 7.87-4.548 15.4-7.509 22.854-3.029 7.628-5.952 15.265-8.358 23.118-2.8 9.155-5.121 18.451-7.441 27.738-1.324 5.299 6.86 7.56 8.184 2.257 4-16.024 8.251-31.862 14.352-47.233 2.961-7.466 6.042-14.925 8.065-22.718 2.024-7.794 2.465-15.019 2.8-22.681.344-7.785.679-15.905 4.633-22.838 2.707-4.751-4.62-9.032-7.327-4.28h.005Z"/><path fill="#EDD7D7" d="M168.428 143.871c1.087-4.417 2.168-8.837 3.255-13.254.649-2.652-3.441-3.784-4.09-1.128l-3.254 13.253c-.649 2.652 3.44 3.785 4.089 1.129Z"/><path fill="#EDD7D7" d="M107.756 110.681c-4.345-.602-8.888-1.217-13.148.2s-5.68 5.057-7.08 9.045c-3.242 9.249-5.537 18.799-6.92 28.497-.382 2.669 3.708 3.823 4.09 1.129 1.158-8.108 2.944-16.109 5.396-23.92a144.108 144.108 0 0 1 1.926-5.715c.564-1.565 1.078-3.419 2.533-4.386 3.284-2.185 8.43-1.269 12.074-.76 2.669.369 3.827-3.716 1.129-4.09Z"/><path fill="#EDD7D7" d="M111.192 111.275c-3.356-.568-5.778-3.288-8.939-4.408-3.16-1.12-6.771-.878-9.89.336-6.745 2.626-10.538 9.253-11.874 16.075-.522 2.668 3.568 3.809 4.09 1.128 1.12-5.736 4.12-11.752 10.13-13.542 2.86-.853 5.614-.513 8.172.997 2.333 1.379 4.438 3.038 7.183 3.504 2.745.467 3.818-3.631 1.128-4.09Z"/><path fill="#EDD7D7" d="M96.65 112.145a370.53 370.53 0 0 1 20.317 2.342c2.669.386 3.823-3.704 1.129-4.09a391.761 391.761 0 0 0-21.446-2.495c-2.72-.237-2.703 4.005 0 4.243Z"/><path fill="#EDD7D7" d="M97.463 110.312a117.44 117.44 0 0 0 22.397 3.7c2.724.186 2.715-4.056 0-4.243a111.744 111.744 0 0 1-21.268-3.551c-2.639-.704-3.767 3.386-1.129 4.09v.004Z"/><path fill="#EDD7D7" d="M96.975 110.656c7.912.467 15.294 3.78 23.321 2.558 2.69-.411 1.548-4.497-1.129-4.09-7.441 1.137-14.802-2.274-22.192-2.711-2.728-.161-2.72 4.082 0 4.243Z"/><path fill="#EDD7D7" d="M92.852 112.735c5.286-1.392 10.594-1.774 16.037-1.413 5.345.352 10.657 1.095 16.024.73 2.711-.187 2.728-4.43 0-4.243-5.643.386-11.222-.462-16.847-.78-5.626-.319-10.993.207-16.343 1.616-2.638.696-1.518 4.786 1.129 4.09Z"/><path fill="#EDD7D7" d="M211.566 141.635c2.804.687 5.609 1.379 8.417 2.066 2.652.649 3.784-3.44 1.129-4.09-2.805-.687-5.609-1.378-8.418-2.066-2.651-.649-3.784 3.441-1.128 4.09Z"/><path fill="#EDD7D7" d="M97.84 112.009c8.537-2.125 17.285-2.698 26.029-1.782 2.711.285 2.694-3.958 0-4.242-9.105-.959-18.273-.28-27.157 1.93-2.647.658-1.527 4.752 1.129 4.09v.004Z"/><path fill="#EDD7D7" d="M106.865 114.517c-.849 3.669.641 7.136.471 10.81-.191 4.115-1.485 8.302-2.355 12.32-.844 3.903-1.616 7.828-2.55 11.709-.75 3.127-1.739 6.161-4.255 8.32-2.074 1.782.938 4.773 3 3 5.54-4.761 6.096-13.594 7.539-20.259.929-4.285 2.074-8.587 2.647-12.939.259-1.96.284-3.861.004-5.821-.28-1.96-.882-3.992-.411-6.016.615-2.656-3.475-3.793-4.09-1.129v.005Z"/><path fill="#EDD7D7" d="M209.856 142.797c3.475 1.507 7.043 1.863 10.717.845 1.824-.505 2.007-2.898.505-3.878-1.939-1.268-4.069-1.565-6.317-1.095-2.249.471-1.833 4.451.564 4.167 2.728-.323 7.853-3.017 9.686-.026 2.015 3.292 2.762 8.014 3.407 11.761.712 4.153.924 8.396.708 12.6-.182 3.593-.318 8.086-2.876 10.895-1.837 2.015 1.154 5.023 2.999 2.999 3.174-3.483 3.729-8.209 4.052-12.732.373-5.231.025-10.5-.929-15.655a58.971 58.971 0 0 0-1.91-7.53c-.649-2.003-1.311-4.264-2.774-5.846-3.555-3.844-8.099-1.214-12.359-.709l.565 4.166c1.162-.242 2.078.034 3.046.666.169-1.294.339-2.583.505-3.877-2.495.691-5.049.623-7.446-.416-2.397-1.04-4.641 2.579-2.143 3.661v.004Z"/><path fill="#EDD7D7" d="M206.862 150.739c-2.979 8.07-.204 16.585 3.3 23.996l3.662-2.142c-2.295-3.076-3.547-6.542-3.589-10.39-.03-2.728-4.273-2.737-4.243 0 .051 4.535 1.447 8.888 4.17 12.528 1.625 2.172 4.85.365 3.662-2.142-3.042-6.432-5.452-13.734-2.872-20.725.946-2.567-3.153-3.67-4.09-1.129v.004Z"/><path fill="#EDD7D7" d="M103.832 111.521c2.554 7.073 3.394 14.506 4.141 21.939.237 2.342 3.373 2.927 4.166.564 1.884-5.592 1.986-11.557.344-17.225l-3.878 1.634a39.263 39.263 0 0 1 1.43 3.75c.343 1.056.458 2.435.92 3.428l-.012.488.823-.543c.017-.081-.688-1.15-.785-1.337a37.362 37.362 0 0 0-1.697-2.918c-2.38-3.636-5.393-6.695-8.884-9.266-2.202-1.621-4.319 2.062-2.143 3.661 2.601 1.918 4.939 4.26 6.797 6.903 1.523 2.168 2.618 5.961 5.252 7.034 2.635 1.073 4.854-1.171 4.892-3.751.047-3.186-1.676-6.741-2.927-9.588-.976-2.223-4.536-.632-3.878 1.634 1.442 4.985 1.311 10.05-.344 14.967l4.166.565c-.784-7.798-1.612-15.651-4.293-23.067-.921-2.55-5.023-1.447-4.09 1.128Z"/><path fill="#EDD7D7" d="M103.526 112.697c3.067.233 3.703 6.597 4.217 8.867a92.53 92.53 0 0 1 1.799 11.085c.271 2.69 4.518 2.72 4.242 0-.522-5.15-1.387-10.258-2.694-15.273-1.082-4.136-2.673-8.549-7.564-8.922-2.724-.208-2.711 4.035 0 4.243Z"/><path fill="#EDD7D7" d="M108.188 116.846c1.854 5.409 2.796 10.967 2.783 16.686-.004 2.732 4.238 2.732 4.243 0a54.528 54.528 0 0 0-2.936-17.815c-.883-2.566-4.981-1.463-4.09 1.129Z"/><path fill="#EDD7D7" d="M96.5 114.313c9.987 2.21 20.381-.441 28.12-7.115 1.714-1.48-.153-3.954-2.062-3.546-8.108 1.731-15.905 4.577-23.25 8.421l3.191 1.833c.051-.637 3.585-1.782 4.179-2.049 1.93-.87 3.873-1.71 5.829-2.52a242.946 242.946 0 0 1 10.988-4.226l-1.128-4.09-24.564 9.368 2.062 3.546a42.182 42.182 0 0 1 22.222-9.401l-.564-4.166a138.902 138.902 0 0 0-23.737 5.905c-2.554.883-1.506 4.905 1.128 4.09l21.875-6.767c2.6-.806 1.489-4.9-1.129-4.09-7.293 2.258-14.581 4.51-21.874 6.767l1.128 4.09a138.885 138.885 0 0 1 23.737-5.905c2.338-.365 1.816-4.425-.564-4.167-9.346 1.019-17.976 4.65-25.222 10.645-1.604 1.324.115 4.289 2.062 3.547l24.564-9.368c2.512-.959 1.468-5.019-1.128-4.09a246.483 246.483 0 0 0-14.484 5.702c-3.36 1.447-9.283 2.796-9.627 7.183-.131 1.697 1.876 2.52 3.191 1.833 7.03-3.678 14.475-6.334 22.235-7.993l-2.062-3.547c-6.538 5.643-15.566 7.887-23.992 6.024-2.66-.589-3.797 3.501-1.128 4.09l.004-.004Z"/><path fill="#EDD7D7" d="M209.938 135.776c2.231 2.613 3.674 5.63 4.437 8.969.607 2.66 4.701 1.536 4.09-1.129-.929-4.06-2.825-7.683-5.528-10.844-1.778-2.079-4.764.934-2.999 3v.004Z"/><path fill="#EDD7D7" d="M211.099 136.094a53.4 53.4 0 0 1 8.481 6.737c1.956 1.905 4.959-1.09 2.999-2.999a58.818 58.818 0 0 0-9.338-7.399c-2.307-1.476-4.437 2.193-2.142 3.661Z"/><path fill="#EDD7D7" d="M210.091 134.58a36.554 36.554 0 0 1 10.852 7.98c1.871 1.998 4.866-1.006 3-3a39.738 39.738 0 0 0-11.71-8.642c-2.448-1.183-4.599 2.474-2.142 3.662Z"/><path fill="#EDD7D7" d="M194.397 155.211c.416-3.729-1.425-7.026-3.122-10.203-2.015-3.789-4.035-7.573-6.05-11.362l-1.269 3.114c1.893-.572 3.67-.152 5.066 1.252l1.502-3.623a55.577 55.577 0 0 1-13.555-1.833l-.564 4.166c8.383-.178 16.766-.352 25.154-.53 2.817-.06 2.622-3.891 0-4.243l-6.563-.878v4.243c4.548.14 9.049-.17 13.546-.845 2.69-.403 1.549-4.493-1.128-4.09-4.116.616-8.261.819-12.418.692-2.809-.085-2.614 3.89 0 4.243l6.563.878v-4.243c-8.383.178-16.767.352-25.154.531-2.355.05-2.928 3.546-.564 4.166a60.414 60.414 0 0 0 14.683 1.985c1.85.021 2.783-2.329 1.502-3.623-2.431-2.444-5.885-3.343-9.194-2.342-1.345.407-1.922 1.888-1.268 3.114l5.269 9.894c1.578 2.965 3.716 6.028 3.322 9.529-.301 2.711 3.941 2.685 4.242 0v.008Z"/><path fill="#EDD7D7" d="M201.587 133.226c1.714-.823 3.535-1.128 5.422-1.052 2.733.111 2.724-4.132 0-4.242-2.723-.111-5.18.483-7.564 1.629-2.384 1.145-.31 4.841 2.142 3.661v.004Z"/><path fill="#EDD7D7" d="M204.295 133.795c2.214.522 4.463.22 6.431-.934 2.355-1.378.221-5.048-2.142-3.661-.985.577-2.045.772-3.165.505-2.656-.628-3.789 3.462-1.129 4.09h.005Z"/><path fill="#EDD7D7" d="m202.376 241.466.318-.059h-1.128c1.009.148 1.998.437 2.952-.089.845-.467 1.43-1.43 1.956-2.206 1.154-1.702 2.024-3.564 2.716-5.494.92-2.576-3.178-3.687-4.09-1.129-.352.98-.768 1.918-1.273 2.83a20.492 20.492 0 0 1-1.26 2.007c-.348.398-.348.454 0 .174h1.128c-.869-.128-1.557-.289-2.448-.124-1.128.208-1.764 1.574-1.48 2.61.327 1.188 1.476 1.688 2.609 1.48Z"/><path fill="#EDD7D7" d="M211.065 218.183c-.48 3.602-2.597 7.357-3.963 10.683-1.366 3.326-3.169 6.707-5.375 9.749-1.608 2.211 2.07 4.332 3.661 2.143 2.431-3.348 4.243-6.941 5.804-10.759 1.561-3.819 3.568-7.696 4.111-11.812.361-2.698-3.886-2.672-4.242 0l.004-.004Z"/><path fill="#EDD7D7" d="M221.44 143.379c1.616 1.65 2.685 2.762 3.16 5.095.425 2.083.476 4.183.327 6.3-.191 2.724 4.052 2.711 4.243 0 .19-2.711 0-5.498-.645-8.175-.645-2.677-2.181-4.272-4.086-6.22-1.905-1.947-4.913 1.048-2.999 3Z"/><path fill="#EDD7D7" d="M219.36 140.642a13.329 13.329 0 0 1 4.137.399c.878.221 2.872.488 3.568 1.129.632.581.789 2.032.997 2.829.309 1.188.538 2.393.661 3.619a25.51 25.51 0 0 1-2.426 13.721c-1.188 2.443 2.469 4.599 3.661 2.142 2.813-5.791 3.763-12.18 2.643-18.531-.433-2.457-1.039-6.059-3.402-7.442-2.724-1.595-6.738-2.295-9.847-2.108-2.711.165-2.733 4.408 0 4.242h.008Z"/><path fill="#EDD7D7" d="M226.351 149.933c.845.964.904 3.047 1.133 4.247.289 1.502.535 3.008.755 4.519.297 2.023 3.797 2.028 4.09 0 .34-2.342.488-4.65.344-7.013l-4.166.564c1.026 4.03.857 8.035-.433 11.985-.849 2.601 3.245 3.717 4.09 1.129 1.518-4.646 1.637-9.512.432-14.238-.581-2.274-4.314-1.863-4.166.564.123 1.973.094 3.928-.191 5.884h4.09c-.496-3.36-.641-7.971-2.978-10.636-1.803-2.057-4.794.955-3 3v-.005Z"/><path fill="#EDD7D7" d="M208.63 224.309c1.867-.53 2.949-1.883 4.039-3.389.442-.611.853-1.146 1.506-1.545.896-.543 1.774-.852 2.571-1.574 2.028-1.837-.98-4.828-2.999-2.999-.577.522-1.421.7-2.07 1.12-.65.42-1.205.955-1.693 1.553-.683.831-1.375 2.426-2.482 2.745-2.622.746-1.506 4.845 1.128 4.089Z"/><path fill="#EDD7D7" d="M220.773 140.358c2.524-.98 5.307-.479 7.275 1.442 2.414 2.355 1.91 6.139 1.888 9.22-.046 7.492-.381 14.988-3.046 22.073-.963 2.559 3.14 3.666 4.09 1.129 1.642-4.37 2.452-8.948 2.847-13.585.394-4.637.615-9.545.318-14.225-.233-3.682-1.633-6.856-4.76-8.947-2.83-1.893-6.551-2.431-9.741-1.193-2.52.976-1.426 5.079 1.129 4.09v-.004Z"/><path fill="#EDD7D7" d="M228.363 159.102c.323 2.812.217 5.562-.42 8.323-.611 2.652 3.386 3.776 4.09 1.129a51.87 51.87 0 0 0 1.519-8.761l-4.166.564c.483 2.635.25 5.193-.56 7.735-.811 2.541 3.262 3.724 4.09 1.128 1.047-3.292 1.183-6.601.56-9.991-.463-2.507-3.971-1.659-4.167.564-.229 2.592-.7 5.121-1.366 7.632l4.09 1.129c.717-3.123.938-6.266.569-9.452-.31-2.682-4.553-2.711-4.243 0h.004Z"/><path fill="#EDD7D7" d="M226.521 143.519c1.252 2.524 2.851 5.082 3.466 7.853.573 2.588.37 5.358.319 7.993-.102 5.375-.386 10.894-2.669 15.854-1.133 2.465 2.524 4.62 3.661 2.143 2.614-5.69 3.131-11.807 3.246-17.997.059-3.03.199-6.139-.471-9.118-.704-3.126-2.478-6.02-3.89-8.866-1.214-2.444-4.875-.297-3.662 2.142v-.004Z"/><path fill="#EDD7D7" d="M226.712 144.35c4.476 5.384 5.494 12.698 4.701 19.469-.442 3.759-1.447 7.446-2.601 11.039-1.09 3.407-2.117 7.272-4.404 10.102-1.701 2.104 1.281 5.125 3 2.999 2.571-3.182 3.848-7 5.125-10.835 1.442-4.336 2.609-8.757 3.122-13.305.904-7.988-.725-16.194-5.944-22.468-1.748-2.1-4.734.912-2.999 2.999Z"/><path fill="#EDD7D7" d="M235.69 159.382a139.858 139.858 0 0 0-2.991-13.823l-3.878 1.634c1.234 2.159 1.638 4.989 2.304 7.373.623 2.24 4.331 1.884 4.166-.564-.246-3.644-.921-7.187-2.113-10.645-.882-2.566-4.985-1.463-4.09 1.129 1.069 3.097 1.744 6.245 1.96 9.516l4.166-.564c-.776-2.779-1.285-5.859-2.732-8.388-1.196-2.091-4.505-.691-3.878 1.634a137.314 137.314 0 0 1 2.992 13.822c.441 2.69 4.526 1.548 4.089-1.129l.005.005Z"/><path fill="#EDD7D7" d="M229.39 143.947c-.22 2.245.603 4.192 1.341 6.262.878 2.461 1.171 4.905.98 7.505-.204 2.779 3.89 2.626 4.242 0 .683-5.137-.305-10.22-2.672-14.815-1.252-2.426-4.913-.284-3.662 2.143 2.041 3.962 2.682 8.273 2.096 12.672h4.243c.178-2.414-.013-4.84-.662-7.178-.611-2.202-1.888-4.243-1.659-6.589.267-2.715-3.98-2.698-4.243 0h-.004Z"/><path fill="#EDD7D7" d="M217.692 140.133a8 8 0 0 0 4.578 0c2.011-.598 2.024-3.5 0-4.09-1.426-.415-2.936-.581-4.412-.428-1.142.114-2.122.891-2.122 2.121 0 1.056.976 2.236 2.122 2.121 1.145-.114 2.176-.046 3.283.276v-4.09c-.848.255-1.476.251-2.32 0-1.099-.326-2.312.395-2.609 1.481-.297 1.086.377 2.282 1.48 2.609Z"/><path fill="#EDD7D7" d="M209.178 229.532c3.797-2.439 6.809-5.842 8.612-9.991 1.078-2.478-2.575-4.641-3.661-2.143-1.519 3.496-3.874 6.402-7.089 8.468-2.291 1.473-.166 5.147 2.142 3.662l-.004.004Z"/><path fill="#EDD7D7" d="M216.216 222.651c2.728 0 2.736-4.243 0-4.243-2.737 0-2.737 4.243 0 4.243Z"/><path fill="#EDD7D7" d="M226.746 140.842c11.09 6.503 6.007 21.552 2.456 30.86-.976 2.554 3.127 3.657 4.09 1.128 2.584-6.762 5.24-13.941 4.319-21.306-.726-5.812-3.568-11.319-8.723-14.344-2.359-1.383-4.497 2.283-2.142 3.662Z"/><path fill="#EDD7D7" d="M232.754 159.543c.128 1.943-1.395 4.34-2.112 6.105l-2.644 6.499c-1.026 2.529 3.076 3.628 4.09 1.129 1.014-2.499 1.969-4.845 2.953-7.263.827-2.037 2.104-4.209 1.952-6.466-.179-2.711-4.425-2.732-4.243 0l.004-.004Z"/><path fill="#926466" d="M52.391 242.255c.115.051.293.132.514.221.814.331 6.389.734 10.143-1.023 1.061-.496 2.368-2.206 1.418-3.975-.798-1.485-3.543-1.841-5.821-.212"/><path fill="#926466" d="M92.68 272.729c.11-.059.283-.148.487-.267.764-.437 4.552-4.582 5.528-8.638.276-1.145-.237-3.241-2.197-3.593-1.647-.297-3.636 1.646-3.793 4.459"/><path fill="#926466" d="M69.985 265.339c.123-.021.314-.055.547-.102.861-.174 5.745-2.919 7.93-6.461.615-1.002.78-3.157-.976-4.107-1.473-.802-3.963.42-4.985 3.037"/><path fill="#926466" d="M82.603 271.44c.11-.06.284-.149.488-.268.763-.437 4.552-4.577 5.532-8.633.276-1.146-.238-3.242-2.198-3.598-1.646-.297-3.635 1.646-3.797 4.455"/><path fill="#926466" d="M58.624 254.741c.123 0 .318 0 .556-.004.878-.026 6.147-1.897 8.896-5.024.777-.882 1.298-2.978-.276-4.217-1.319-1.039-3.975-.263-5.422 2.147"/><path fill="#FFE7C4" d="M87.904 71.345c8.188-18.103 38.404-59.94 80.065-61.08 45.985-1.26 89.497 47.5 78.95 64.851-19.397 31.917-173.63 28.536-159.015-3.771Z"/><path fill="#AE794E" d="M230.752 58.913c-4.99-8.548-24.841-38.75-59.943-38.649-42.502.123-59.672 44.114-60.766 46.736-3.157 7.573-12.987 21.526-4.544 34.059 6.792 10.08 13.835 22.379 29.651 27.067 4.892 1.451 8.32 2.979 11.451 4.396 3.945.886 8.018 1.026 12.032 1.391 8.396.76 16.656 1.931 25.06 1.239 7.51-1.756 14.696-.361 31.858-7.522 13.788-5.753 15.366-12.185 19.222-19.567 9.958-19.066-1.726-45.212-4.021-49.145v-.005Z"/><path fill="#362218" d="M232.865 58.035c6.537-.835 11.264-5.163 11.48-9.944.25-5.494-5.494-10.556-8.697-9.945-4.807.913-4.565 14.71-4.523 16.38"/><path fill="#362218" d="M97.476 58.46c-6.538-.836-11.264-5.164-11.48-9.945-.25-5.494 5.494-10.555 8.697-9.944 4.806.912 4.565 14.709 4.522 16.38"/><path fill="#FFE7C4" d="M241.031 58.854c-.908.611-1.922 1.035-3.012 1.167-3.293.39-5.702 2.478-8.341 4.383-1.909 1.378-2.054 4.005-2.957 5.23-3.068 4.15-.543 5.312-3.547 11.553-.293.611-.471 1.303-.382 1.973.081.602.412 1.137.586 1.718.602 1.998-.701 4.026-1.057 6.084-.424 2.46.53 4.93 1.464 7.246l2.991 7.408c.254.632.513 1.264.899 1.824.666.959 1.71 1.697 2.032 2.817.132.458.132.946.187 1.421.314 2.652 2.384 4.705 4.332 6.534 1.981 1.862 4.246 3.839 6.966 3.839.861 0 1.705-.203 2.537-.403 3.674-.891 7.352-1.777 11.026-2.668.73-.179 1.477-.361 2.083-.798.717-.518 1.159-1.328 1.799-1.935 1.023-.967 2.525-1.4 3.348-2.541.997-1.383.704-3.411 1.731-4.768.581-.768 1.527-1.235 1.989-2.079.7-1.277.043-2.906.459-4.302.22-.743.729-1.358 1.145-2.007 1.782-2.787 1.901-6.555.301-9.448-.186-.34-.399-.67-.556-1.023-.203-.458-.313-.95-.428-1.442-2.274-9.796-6.198-19.558-13.415-26.558-1.841-1.786-3.975-3.42-6.487-3.95-2.274-.484-4.582-.017-5.71.742l.017-.017Z"/><path fill="#FFE7C4" d="M109.605 59.478c-2.554-2.877-6.911-3.063-10.76-3.038-2.154.013-4.53.115-6.1 1.587-1.014.95-1.57 2.384-2.766 3.093-1.052.62-2.52.628-3.207 1.633-.285.412-.374.92-.552 1.392-1.116 2.936-5.562 4.022-5.766 7.153-.038.564.077 1.154-.144 1.675-.33.785-1.285 1.108-1.782 1.808-.819 1.158-.085 2.821-.568 4.157-.403 1.1-1.561 1.774-2.015 2.856-.518 1.226-.009 2.681-.438 3.941-.25.734-.793 1.332-1.081 2.053-.25.624-.293 1.311-.319 1.986a50.834 50.834 0 0 0 1.235 13.283c.106.467.22.942.458 1.358.289.505.743.904 1.019 1.417.852 1.599-.208 3.882 1 5.235.425.475 1.091.764 1.32 1.362.204.53-.017 1.116-.072 1.68-.106 1.057.365 2.075.853 3.017a49.893 49.893 0 0 0 1.735 3.08c.912 1.493 2.43 2.532 4.166 2.774 1.35.187 2.694.297 4.056.212 1.328-.084 1.468-.241 2.77-.513.471-.097 3.136-1.167 3.602-1.264 2.414-.505 3.81-.157 6.131-.993.339-.123.687-.259.942-.513.598-.603.479-1.634.984-2.312.708-.959 2.304-.84 3.038-1.782.721-.925.207-2.346.742-3.39.471-.917 1.595-1.277 2.304-2.024 1.336-1.413.916-3.852 2.172-5.337.475-.564 1.15-.929 1.638-1.481.56-.636.827-1.463 1.077-2.269 1.697-5.465 1.332-10.021 2.503-15.621.382-1.825 1.587-3.738 1.332-5.584-.297-2.176-.458-5.1-1.548-7.004-.649-1.133-1.307-2.274-2.215-3.212-.377-.39-.814-.763-1.001-1.277-.161-.437-.119-.92-.153-1.387-.089-1.31-.772-2.495-1.438-3.627-1.239-2.109-2.601-4.34-3.156-4.107l.004-.017Z"/><path fill="#FFE7C4" d="M241.064 68.892c-1.014-.836-2.164-1.463-3.407-1.777-2.804-.709-1.705-2.516-3.988-6.28-.453-.746-2.528-1.518-2.863-2.337-.365-.9-.951-1.667-1.532-2.418-1.574-2.045-3.148-4.086-4.722-6.13-2.363-3.068-4.73-6.14-7.263-9.042a91.828 91.828 0 0 0-11.328-10.933c-1.107-.899-2.252-1.777-3.555-2.282-1.68-.65-3.513-.632-5.252-1.06-2.656-.65-5.015-2.305-7.628-3.136-1.994-.636-4.09-.78-6.165-.92-7.424-.501-11.306-1.481-18.828-1.97-2.405-.156-6.109.756-8.281 1.889-1.154.602-3.089 1.175-4.01 1.697-3.474 1.964-3.801 2.333-6.588 3.504-2.448 1.09-4.892 2.185-7.34 3.275-2.893 1.392-5.978 2.516-8.655 4.408-2.269 1.604-4.187 3.717-6.075 5.825-4.879 5.444-9.711 11.001-13.551 17.352-2.057 3.407-3.856 7.077-6.576 9.885-2.719 2.81-6.682 4.646-10.254 3.403-1.854-5.71-.793-12.176 1.718-17.581 2.512-5.405 6.36-9.928 10.289-14.221 15.841-17.301 35.132-32.736 57.452-35.45 16.453-2.003 33.291 3.266 47.22 12.998 13.928 9.733 25.073 23.712 33.49 39.206 1.158 2.13 2.304 4.484 2.045 6.94-.229 2.156-1.294 7.671-4.357 5.151l.004.004Z"/><path fill="#201614" d="M198.423 83.316c3.066-.572 4.634-5.945 3.503-12-1.131-6.056-4.533-10.5-7.599-9.928-3.065.573-4.634 5.946-3.503 12.001 1.131 6.056 4.533 10.5 7.599 9.927Z"/><path fill="#201614" d="M149.758 73.411c1.131-6.055-.438-11.428-3.503-12-3.066-.573-6.468 3.871-7.599 9.927-1.131 6.055.437 11.428 3.503 12 3.065.573 6.467-3.872 7.599-9.927Z"/><path fill="#746155" d="M194.736 115.225c-4.442 7.887-16.991 8.57-23.317 8.774-5.982.19-19.371.029-25.052-8.256-4.022-5.864-2.834-11.426-2.07-13.203 3.428-7.968 13.075-14.909 24.857-14.934 14.212-.034 22.019 10.017 23.139 11.514 1.455 1.948 6.351 9.168 2.439 16.109l.004-.004Z"/><path fill="#201614" d="M160.244 94.907c1.638-3.024 6.742-3.177 9.058-3.245 2.189-.064 7.654-.23 9.724 2.965 1.464 2.262.378 4.884.094 5.567-1.269 3.059-4.811 5.714-9.126 5.706-5.206-.009-8.048-3.882-8.46-4.459-.53-.751-2.732-3.87-1.29-6.53v-.004Z"/><path fill="#fff" d="M173.889 95.12c.944 0 1.71-.31 1.71-.692 0-.382-.766-.691-1.71-.691s-1.71.31-1.71.691c0 .382.766.692 1.71.692Z"/><path fill="#fff" d="M198.045 68.548c1.312 0 2.376-.655 2.376-1.463 0-.809-1.064-1.464-2.376-1.464-1.312 0-2.376.655-2.376 1.464 0 .808 1.064 1.463 2.376 1.463Z"/><path fill="#fff" d="M147.56 68.548c1.312 0 2.376-.655 2.376-1.463 0-.809-1.064-1.464-2.376-1.464-1.312 0-2.376.655-2.376 1.464 0 .808 1.064 1.463 2.376 1.463Z"/><path fill="#201614" d="M188.712 105.323c.819 0 .819-1.273 0-1.273-.818 0-.818 1.273 0 1.273Z"/><path fill="#201614" d="M192.53 109.141c.819 0 .819-1.273 0-1.273s-.819 1.273 0 1.273Z"/><path fill="#201614" d="M187.015 110.414c.818 0 .818-1.273 0-1.273-.819 0-.819 1.273 0 1.273Z"/><path fill="#201614" d="M150.953 104.05c.819 0 .819-1.273 0-1.273s-.819 1.273 0 1.273Z"/><path fill="#201614" d="M152.65 109.141c.818 0 .818-1.273 0-1.273-.819 0-.819 1.273 0 1.273Z"/><path fill="#201614" d="M147.56 107.868c.819 0 .819-1.272 0-1.272-.818 0-.818 1.272 0 1.272Z"/><path stroke="#201614" stroke-miterlimit="10" d="M146.147 103.38c-2.884-1.684-27.118-8.905-35.302-3.051" opacity=".67"/><path stroke="#201614" stroke-miterlimit="10" d="M145.417 105.225c-3.118-1.2-36.024-5.663-43.155 1.434" opacity=".67"/><path stroke="#201614" stroke-miterlimit="10" d="M146.299 106.995c-3.233-.853-43.236-1.193-50.928 4.038" opacity=".67"/><path stroke="#201614" stroke-miterlimit="10" d="M193.927 103.202c2.902-1.655 27.207-8.63 35.332-2.69" opacity=".67"/><path stroke="#201614" stroke-miterlimit="10" d="M193.927 106.617c3.143-1.218 36.435-5.851 43.8 1.239" opacity=".67"/><path stroke="#201614" stroke-miterlimit="10" d="M193.755 107.966c3.084-.662 40.677.802 47.601 6.084" opacity=".67"/><path fill="#AE794E" d="M59.61 66.822c.42 4.081 2.511 7.28 5.188 10.284 2.677 3.004 5.952 5.757 7.39 9.592.942 2.52 4.76 1.57 4.09-1.128A71.309 71.309 0 0 0 65.71 62.12c-1.54-2.223-5.197-.14-3.661 2.143 3.038 4.514 6.075 9.028 9.117 13.542l3.33-2.571a64.64 64.64 0 0 1-8.345-10.7c-1.442-2.312-5.112-.182-3.66 2.143a70.457 70.457 0 0 0 9.006 11.556c1.638 1.702 4.7-.538 3.33-2.57A18878.26 18878.26 0 0 0 65.71 62.12l-3.661 2.143a67.95 67.95 0 0 1 10.14 22.434l4.09-1.128c-1.388-3.7-3.916-6.572-6.585-9.414-2.478-2.644-5.456-5.533-5.846-9.338-.276-2.69-4.523-2.72-4.243 0l.004.004Z"/><path fill="#AE794E" d="M56 61.867c3.652 2.07 7.212 4.4 9.965 7.615 3.153 3.678 4.684 8.557 6.381 13.02 3.39 8.906 6.351 18.523 4.272 28.095h4.09c-3.517-8.957-7.038-17.912-10.555-26.868-3.127-7.955-5.698-16.712-10.764-23.695-1.57-2.164-5.142-.216-3.661 2.142 2.787 4.442 4.527 9.334 6.088 14.315 1.727 5.507 3.407 11.03 5.108 16.55l10.394 33.698c.802 2.601 4.9 1.494 4.09-1.128l-10.64-34.5c-1.693-5.482-3.347-10.98-5.083-16.449-1.608-5.074-3.453-10.097-6.296-14.624l-3.661 2.143c5.019 6.92 7.543 15.57 10.64 23.452 3.42 8.698 6.835 17.399 10.255 26.096.695 1.769 3.601 2.249 4.09 0 2.312-10.649-.739-21.174-4.557-31.09-1.82-4.73-3.505-9.655-6.75-13.626-3.038-3.72-7.123-6.457-11.264-8.803-2.38-1.35-4.518 2.316-2.143 3.66v-.003Z"/><path fill="#AE794E" d="M102.167 145.576c-3.903-4.306-7.84-8.629-11.111-13.449-3.271-4.819-5.664-10.339-7.242-16.142-3.424-12.567-6.16-25.354-9.206-38.018-.297-1.226-2.02-2.079-3.114-1.268-2.126 1.574-2.24 3.763-1.702 6.21.747 3.395 1.71 6.755 2.563 10.12l5.23 20.643c1.745 6.882 3 13.335 5.33 19.694 1.9 5.18 4.772 10.942 10.28 12.987 5.056 1.879 12.192.225 16.528-2.809 4.582-3.203 5.524-8.667 4.849-13.894-1.395-10.844-6.559-21.79-12.43-30.89a91.802 91.802 0 0 0-26.168-26.584c-2.279-1.519-4.404 2.155-2.143 3.661 15.965 10.653 28.205 26.716 34.182 44.963 1.426 4.344 3.114 9.3 2.427 13.932-.793 5.333-6.012 7.34-10.81 8.002-5.897.814-9.215-2.885-11.535-7.836-2.457-5.24-3.573-11.103-4.99-16.682-1.642-6.478-3.28-12.952-4.921-19.43-.819-3.238-1.642-6.479-2.46-9.716-.412-1.62-.82-3.237-1.231-4.858-.204-.806-.454-1.616-.615-2.43a4.326 4.326 0 0 1-.17-1.07c.132-.5.106-.62-.076-.352l-3.114-1.269c3.16 13.144 5.855 26.512 9.622 39.499 1.659 5.718 4.085 11.064 7.463 15.977 3.436 4.998 7.505 9.52 11.569 14.005 1.837 2.028 4.832-.98 2.999-3l-.004.004Z"/><path fill="#AE794E" d="M99.91 133.926c-.012.755.013.692.081-.182.378-.747.399-.802.059-.174.522-.611.543-.653.06-.127-.526.471-.505.458.068-.043a9.26 9.26 0 0 1-.934.509c.692-.292.692-.326 0-.089-.734.153-.704.17.09.051-.357.03-.718.038-1.078.021.84.153.848.149.025-.017a12.761 12.761 0 0 1-1.183-.348c1.052.37-.985-.585-1.222-.725-.611-.429-.679-.467-.2-.119a15.47 15.47 0 0 1-.916-.844c-.178-.178-1.595-1.913-1.03-1.12-4.12-5.791-4.24-14.272-5.427-21.463-2.787-16.826-7.225-33.355-13.177-49.337l-11.634 4.905C70.382 75.4 76.975 86.159 83.5 96.965c1.439 2.38 2.792 4.862 4.412 7.119 1.94 2.698 4.875 4.379 8.273 2.949 3.195-1.345 4.599-4.875 3.522-8.1-1.078-3.224-2.754-6.32-4.268-9.278-.497-.967-1.052-1.862-1.816-2.656-3.67-3.813-10.16-1.332-10.84 3.704-.318 2.36.599 4.76 1.299 6.988 1.052 3.347 2.168 6.673 3.275 10.004 2.757 8.298 5.757 16.609 7.806 25.124l12.274-3.386c-2.126-7.377-4.956-14.543-8.362-21.424-1.392-2.805-5.236-3.797-7.947-2.605-3.14 1.378-4.145 4.263-3.682 7.509.797 5.63 1.51 12.04 3.992 17.22 1.515 3.165 4.4 5.236 7.904 5.486 3.818.272 7.233-2.418 9.015-5.592 6.436-11.454.183-24.195-6.024-34.122-1.82-2.91-5.677-4.056-8.706-2.283-3.029 1.773-4.11 5.783-2.282 8.706 1.994 3.186 4.386 6.852 5.558 10.084.335.925.64 1.863.882 2.817.068.276.48 2.508.39 1.782.11.929.132 1.88.098 2.809-.017.466-.051.929-.102 1.396.042-.429.025-.42-.05.025-.175.776-.349 1.604-.684 2.329.157-.433.085-.331-.22.301.148-.22.343-.381.59-.483 2.226-.866 3.928-.45 5.103 1.251-.335-.632-.348-.602-.038.085-.306-.831-.497-1.71-.709-2.567a122.182 122.182 0 0 1-2.444-12.63l-11.632 4.905c2.931 5.918 5.222 11.926 7.08 18.383.95 3.3 4.489 5.362 7.828 4.446 3.339-.916 5.252-4.476 4.446-7.828-1.875-7.78-4.578-15.387-7.098-22.977-1.209-3.649-2.435-7.293-3.606-10.95-.386-1.21-.776-2.423-1.12-3.644-.11-.395-.195-.802-.318-1.197-.043-.14-.034-.33-.098-.467.565 1.176-.102 3.585-.645 4.51l-2.282 2.283.017-.009-3.212.87h.022l-3.212-.865c-.526-.276-1.918-1.439-2.096-2.088.021.076.11.144.14.22.115.268.293.523.428.781.641 1.218 1.21 2.478 1.8 3.721.517 1.09 1.013 2.193 1.527 3.288.568 1.218-.484-1.493-.22-.518.262.976-.14.136-.082-1.183l.87-3.212-.008.017 3.801-2.923h-.017c1.633.216 3.271.433 4.904.645.81.356 1.786 1.595 1.94 1.888-.132-.255-.34-.497-.497-.738-.543-.832-1.06-1.685-1.578-2.533-1.77-2.89-3.505-5.796-5.261-8.693-5.55-9.164-11.2-18.269-17.05-27.246-1.723-2.643-4.973-3.911-7.947-2.605-2.686 1.18-4.807 4.489-3.683 7.51 5.435 14.598 9.614 29.647 12.418 44.971 2.503 13.673 2.754 32.879 19.032 37.716 8.184 2.431 18.396-2.813 18.332-12.062-.021-3.326-2.91-6.516-6.363-6.364-3.454.153-6.39 2.796-6.364 6.364l-.005-.017Z"/><path fill="#AE794E" d="M104.446 108.39c4.722-9.219-3.267-18.824-8.782-25.544-7.531-9.177-15.066-18.353-22.596-27.53l-3 3a101.322 101.322 0 0 1 26.542 45.208l3.546-2.062c-4.997-6.13-9.414-12.694-13.262-19.6l-3.33 2.57c6.847 5.389 11.408 12.78 15.854 20.14 1.214 2.011 4.616.717 3.878-1.633A68.888 68.888 0 0 0 96.1 87.19c-1.438-2.316-5.107-.186-3.66 2.143a64.371 64.371 0 0 1 6.766 14.734l3.878-1.633c-4.616-7.637-9.415-15.405-16.52-20.997-1.8-1.417-4.587.319-3.331 2.571 4.03 7.23 8.697 14.047 13.928 20.458 1.388 1.705 4.073-.144 3.547-2.062A105.639 105.639 0 0 0 73.076 55.32c-1.985-1.956-4.7.925-3 3l19.907 24.254c2.893 3.526 5.99 6.975 8.413 10.857 2.219 3.56 4.505 8.714 2.401 12.825-1.243 2.427 2.418 4.574 3.661 2.143l-.012-.009Z"/><path fill="#AE794E" d="M108.616 133.761c-.331 1.205 1.052 2.151 2.143 1.773 1.366-.471 1.366-2.214.81-3.288-.25-.479-1.044-.373-1.162.153l-.7 3.105 1.251.17c-.297-2.261-.594-4.522-.886-6.788-.094-.713-.976-.861-1.252-.17-1.061 2.699-1.328 5.635-.844 8.49.135.806 1.366.462 1.226-.34-.45-2.63-.132-5.333.844-7.81l-1.251-.17c.292 2.261.585 4.527.886 6.788.043.314.212.586.552.624.301.034.628-.14.7-.454l.7-3.106-1.163.153c.183.352.382 1.124-.042 1.409-.195.131-.624-.034-.581-.196.216-.789-1.01-1.128-1.226-.339l-.005-.004Z"/><path fill="#AE794E" d="M84.305 137.825c.19 2.351 2.16 3.975 3.784 5.465 1.625 1.489 3.509 3.058 5.566 4.119 2.058 1.061 4.294 1.617 6.585 1.303 2.117-.293 4.017-1.303 5.685-2.605 1.994-1.562 3.631-3.517 5.205-5.486l-1.065-.619c-1.149 2.859-4.094 4.476-6.749 5.706-1.634.759-3.377 1.595-5.206 1.693-1.48.08-3.106-.403-3.941-1.71l-.717.933c2.053.76 3.83 2.355 6.139 2.266 2.308-.089 4.336-1.574 5.88-3.169 3.156-3.263 4.701-7.832 4.539-12.333-.101-2.805-.814-5.537-1.968-8.087l-.87.87c2.028 1.387 3.021 4.039 2.44 6.419l.292-.382c-.39.204-1.111-.878-1.298-1.103a116.398 116.398 0 0 1-4.238-5.409 119.158 119.158 0 0 1-5.112-7.548c-.433-.695-1.536-.055-1.1.641a120.338 120.338 0 0 0 9.355 12.986c.544.658 1.125 1.506 2.02 1.697.373.081.861.017 1.141-.267.28-.284.284-.831.327-1.188a7.197 7.197 0 0 0-.144-2.482 7.423 7.423 0 0 0-3.047-4.463c-.581-.399-1.107.352-.869.87 1.833 4.06 2.409 8.756 1.052 13.05-.594 1.871-1.54 3.657-2.817 5.155-1.277 1.497-2.983 3.003-4.981 3.398-2.342.467-4.34-1.379-6.41-2.147-.522-.195-1.006.488-.717.934 1.705 2.672 5.171 2.685 7.861 1.747 1.451-.504 2.868-1.162 4.234-1.862 1.213-.624 2.384-1.336 3.432-2.219 1.184-.997 2.113-2.219 2.69-3.661.233-.581-.674-1.103-1.065-.62-2.414 3.013-5.201 6.449-9.092 7.514-4.246 1.162-8.162-1.353-11.238-4.03a45.736 45.736 0 0 1-2.643-2.465c-.785-.802-1.587-1.748-1.68-2.915-.064-.81-1.337-.819-1.273 0l.013.004Z"/><path fill="#AE794E" d="M109.643 130.439a78.348 78.348 0 0 0-9.3-14.111c-.522-.632-1.417.272-.9.9a76.875 76.875 0 0 1 9.105 13.852c.373.729 1.472.084 1.099-.641h-.004Z"/><path fill="#AE794E" d="M80.666 62.796c2.664 6.249 5.397 12.503 9.584 17.912 2.227 2.876 4.162 5.477 5.43 8.934 1.269 3.458 2.457 6.941 3.679 10.412.903 2.558 5.002 1.455 4.089-1.129-1.306-3.708-2.537-7.458-3.945-11.132-1.213-3.165-2.855-5.817-4.955-8.451-4.498-5.635-7.408-12.096-10.22-18.689-1.07-2.503-4.723-.343-3.662 2.143Z"/><path fill="#AE794E" d="M113.258 133.137c1.68-6.835-.038-13.627-1.964-20.216-.925-3.156-1.884-6.376-3.53-9.244-.781-1.358-1.982-2.563-2.614-3.992-.632-1.43-.386-3.14-.729-4.68-.7-3.165-3.055-5.927-4.807-8.574-1.973-2.974-3.92-5.965-5.927-8.918-3.526-5.193-7.403-10.131-12.72-13.593-2.294-1.493-4.424 2.177-2.142 3.661 4.981 3.246 8.51 8.07 11.782 12.94 1.794 2.673 3.564 5.367 5.341 8.052 1.68 2.538 4.171 5.295 4.489 8.418.14 1.387.136 2.668.666 3.983.53 1.316 1.434 2.423 2.236 3.624 1.65 2.473 2.605 5.239 3.453 8.065 1.867 6.215 3.971 12.842 2.372 19.346-.654 2.651 3.436 3.78 4.09 1.128h.004Z"/><path fill="#AE794E" d="M96.122 142.615a167.045 167.045 0 0 1-4.124-.721c-1.145-.217-3.212-.238-3.92-1.218-.569-.785-.429-2.461-.458-3.351a36.792 36.792 0 0 1 .131-4.379c.234-2.719-4.013-2.707-4.242 0-.268 3.131-.726 7.59 1.18 10.339 2.031 2.936 7.122 2.894 10.304 3.42 2.673.437 3.819-3.649 1.129-4.09Z"/><path fill="#AE794E" d="M98.187 133.447c-.7-8.562-1.4-17.127-2.104-25.689-.22-2.702-4.468-2.723-4.243 0 .7 8.562 1.4 17.127 2.105 25.689.22 2.702 4.467 2.724 4.242 0Z"/><path fill="#AE794E" d="M96.036 99.676c-3.772-4.25-7.878-8.68-9.932-14.076-1.03-2.703-1.485-5.571-2.685-8.218-1.2-2.648-2.894-4.922-4.527-7.25-7.408-10.586-14.81-21.167-22.218-31.752l-2.397 3.114c5.994 2.499 11.62 5.893 16.546 10.14 2.057 1.773 5.074-1.214 3-3-5.52-4.76-11.702-8.43-18.418-11.23-1.688-.704-3.402 1.676-2.397 3.114 7.565 10.81 15.133 21.62 22.698 32.434 1.633 2.338 3.406 4.71 4.378 7.416.972 2.707 1.493 5.529 2.681 8.176 2.397 5.337 6.424 9.796 10.267 14.127 1.816 2.045 4.807-.963 3-2.999l.004.004Z"/><path fill="#AE794E" d="M94.755 103.83c-4.743-.318-8.472-4.502-10.73-8.324-2.469-4.188-3.975-8.859-5.634-13.402-4.213-11.561-8.421-23.126-12.634-34.687-.925-2.537-4.743-1.566-4.09 1.128 4.824 19.927 15.295 38.162 29.694 52.71 1.417 1.429 4.297-.013 3.546-2.062a148.943 148.943 0 0 0-11.734-24.688c-.993-1.671-4.217-1.12-3.954 1.07 1.213 10.14 5.927 19.129 10.75 27.97l3.33-2.57A70.097 70.097 0 0 1 82.796 86.13c-1.277-2.414-4.938-.272-3.661 2.142 3.02 5.71 6.788 10.959 11.17 15.706 1.672 1.812 4.463-.5 3.33-2.571-4.424-8.111-9.053-16.512-10.169-25.833l-3.954 1.07c4.48 7.543 8.278 15.442 11.307 23.673l3.547-2.062C80.453 84.2 70.42 66.661 65.76 47.417l-4.09 1.128c4.688 12.876 9.36 25.76 14.069 38.629 3.203 8.756 8.226 20.173 19.015 20.898 2.724.183 2.715-4.06 0-4.242Z"/><path fill="#AE794E" d="M67.344 47.65c.433 1.366 1.307 2.507 2.465 3.343.509.365 1.234-.36.87-.87-1.031-1.438-2.067-2.88-3.097-4.319-.2-.28-.556-.411-.87-.229-.276.161-.429.59-.23.87l3.098 4.319.87-.87a5.881 5.881 0 0 1-1.129-1.12 5.869 5.869 0 0 1-.458-.746 3.726 3.726 0 0 1-.289-.718c-.097-.314-.44-.538-.785-.445-.322.09-.547.454-.445.785Z"/><path fill="#5B372B" d="M78.15 66.873c-6.953 4.556-18.79 2.29-25.293-2.953-7.374-5.948-10.785-18.06-2.08-25.4 8.732-7.36 23.997-5.155 29.864 1.01 2.995 3.143 3.182 6.94 3.36 10.55.204 4.167.62 12.559-5.846 16.797l-.004-.004Z"/><path fill="#5B372B" d="M62.924 31.494c-1.502-.793-3.093-1.561-4.824-1.633-1.892-.077-3.614.785-5.252 1.625-3.36 1.73-6.898 3.865-8.87 7.19-1.397 2.355 2.269 4.49 3.66 2.143 1.392-2.346 3.747-3.67 5.982-4.93 1.061-.598 2.22-1.344 3.407-1.65 1.383-.356 2.554.284 3.755.917 2.414 1.272 4.56-2.389 2.142-3.662Z"/><path fill="#5B372B" d="M58.235 34.027a20.005 20.005 0 0 1-3.22 1.464c-1.116.39-2.143.73-3.084 1.391-1.977 1.383-3.823 2.996-5.715 4.493-.64.51.263 1.404.9.9.941-.743 1.879-1.49 2.82-2.232.942-.742 1.82-1.515 2.796-2.168.921-.615 1.96-.904 2.987-1.281a21.294 21.294 0 0 0 3.16-1.46c.714-.403.073-1.501-.64-1.098l-.004-.009Z"/><path fill="#362218" d="M45.39 17.473c1.285-1.434 6.698 4.48 10.186 10.771 1.99 3.594 4.976 10.242 4.022 11.77-1.065 1.709-7.06-2.979-10.776-9.89-2.525-4.692-4.544-11.408-3.433-12.651Z"/><path fill="#362218" d="M66.763 38.8c-1.476 1.4-6.966-4.226-10.343-10.246-1.93-3.44-4.748-9.808-3.628-11.298 1.256-1.663 7.446 2.775 11.04 9.39 2.439 4.488 4.208 10.94 2.931 12.154Z"/><path fill="#362218" d="M51.35 47.523c.484 2.452-9.185-3.373-13.478-8.923-2.452-3.169-6.525-11.773-4.408-10.72 2.401 1.192 7.068 3.678 11.629 9.787 3.092 4.145 5.689 6.97 6.257 9.856Z"/><path fill="#362218" d="M77.404 44.557c2.465-.653 3.916-7.055 2.991-11.934-.526-2.788-2.261-7.348-4.433-7.005-2.431.382-5.426 6.903-4.294 12.172.768 3.577 3.602 7.34 5.736 6.771v-.004Z"/><path fill="#362218" d="M54.222 43.513c-1.299 1.154-7.641-1.349-10.446-7.606-.89-1.986-.95-2.788-3.054-7.374 0 0-.738-1.612-1.328-4.226a7.664 7.664 0 0 1-.102-3.1c.144-.811.191-1.303.429-1.312 2.885-.127 4.96 6.368 9.936 12.418 4.692 5.702 6.402 9.571 4.565 11.2Z"/><path fill="#5B372B" d="M221.284 222.833c-6.546-.458-11.819-7.051-12.375-12.995-.628-6.741 4.561-15.29 13.712-15.668 9.176-.377 16.397 7.709 16.062 13.903-.17 3.161-2.291 5.448-4.302 7.62-2.325 2.507-7.009 7.564-13.092 7.14h-.005Z"/><path fill="#362218" d="M199.72 215.213c-1.137-1.171 4.705-4.442 10.679-6.207 3.411-1.005 9.651-2.341 10.911-1.412 1.409 1.039-3.406 4.921-9.957 6.775-4.446 1.26-10.644 1.854-11.633.84v.004Z"/><path fill="#362218" d="M219.256 202.613c1.074 1.167-4.552 4.251-10.284 5.859-3.275.916-9.257 2.104-10.449 1.167-1.332-1.044 3.318-4.743 9.605-6.432 4.268-1.145 10.199-1.608 11.132-.598l-.004.004Z"/><path fill="#362218" d="M222.679 213.033c.98 1.065-1.548 5.727-7.297 7.441-1.824.543-2.55.535-6.767 1.833 0 0-1.48.454-3.86.725a8.083 8.083 0 0 1-2.796-.131c-.721-.166-1.163-.234-1.163-.412.013-2.206 5.944-3.347 11.604-6.733 5.333-3.19 8.888-4.234 10.275-2.728l.004.005Z"/><path fill="#362218" d="M226.295 217.776c.98.793-.908 5.201-5.965 7.475-1.608.721-2.261.815-5.974 2.516 0 0-1.302.598-3.436 1.158a7.895 7.895 0 0 1-2.541.267c-.666-.042-1.074-.046-1.086-.203-.183-1.922 5.095-3.725 9.931-7.442 4.557-3.504 7.688-4.895 9.075-3.771h-.004Z"/><path fill="#AE794E" d="M255.455 193.852c-4.167 4.705-8.867 9.13-14.739 11.595-2.478 1.039-1.392 5.146 1.128 4.09 6.61-2.775 11.901-7.365 16.614-12.685 1.803-2.037-1.183-5.049-2.999-3h-.004Z"/></g><defs><filter id="a" width="276.711" height="301.626" x=".022" y=".171" color-interpolation-filters="sRGB" filterUnits="userSpaceOnUse"><feFlood flood-opacity="0" result="BackgroundImageFix"/><feColorMatrix in="SourceAlpha" result="hardAlpha" values="0 0 0 0 0 0 0 0 0 0 0 0 0 0 0 0 0 0 127 0"/><feOffset dy="4"/><feGaussianBlur stdDeviation="4"/><feComposite in2="hardAlpha" operator="out"/><feColorMatrix values="0 0 0 0 0 0 0 0 0 0 0 0 0 0 0 0 0 0 0.5 0"/><feBlend in2="BackgroundImageFix" result="effect1_dropShadow_15_202"/><feBlend in="SourceGraphic" in2="effect1_dropShadow_15_202" result="shape"/></filter></defs></svg>
