<svg xmlns="http://www.w3.org/2000/svg" viewBox="0 0 744 750" shape-rendering="geometricPrecision" text-rendering="geometricPrecision"><path d="M185.34 602.45C51.45 523.33 1.48 516.62.03 478.39c-.78-20.53 12.88-38.45 17.82-44.93 22.28-29.23 56.14-34.57 63.3-36.15 51.76-11.39 91.13 16.03 137.55 52.32 27.56 21.55 57.37 67.27 70.22 124.63 2.67 11.91.17 26-7.84 37.18-4.68 6.52-10.96 11.99-18.47 15.25-22.06 9.6-46.47-6.03-77.28-24.24h.01Z" fill="#463129"/><path d="m192.55 430.2-9.26 170.3m-15.37-186.38-8.94 172.77m106.35-76.45-5.68 117.17m-16.73-152.75-5.47 108.37m-82.59 1.19 122.59-48.13m-153.24 31.23 142.04-56.2m-54.94 104.66 78.42-30.95M183.6 600.5l101.76-40.17m-54.09-63.93L94.22 550.38l8.14-154.67m-43.7 135.26 166.68-65.12M32.17 516.7l172.33-67.65M10.25 500.4l177.87-69.46M1.37 480.93l168.74-65.01M5.44 454.17l135.04-52.21M29.06 422.64l69.81-27.12m46.61 9.03-9.04 169.33M123.73 396.5l-8.95 162.69M80.96 397.58l-7.82 141.83M60.21 403.09l-7.18 125.56M40.29 413.92l-5.64 105.4m-13.67-88.27-4.05 76.01m197.51-67.63-9.09 172.27m25.3-128.59-6.78 139.1" fill="none" stroke="#201614" stroke-miterlimit="10"/><path d="M260.9 634.42c27.73 37.04 35.57 77.2 20.55 94.8-24.78 29.04-113.61-1.22-116.53-34.17-1.94-21.95 33.85-49.68 86.31-63.87m178.93-12.3c42.48 18.33 69.27 49.26 65 72-7.04 37.52-99.15 55.47-118.08 28.35-12.61-18.07 4.64-59.94 43.08-98.35" fill="#5b372b"/><path d="M155.81 698.31c.3.05.77.13 1.34.22 2.13.31 15.62-2 23.54-8.33 2.24-1.79 4.35-6.59 1.07-10.2-2.76-3.03-9.49-2.27-13.97 2.89m101.5 63.79c.23-.2.59-.52 1.01-.92 1.57-1.47 8.18-13.46 8.15-23.6 0-2.86-2.44-7.51-7.31-7.2-4.09.26-7.69 6.01-6.44 12.73m-53.68 14.8c.28-.12.72-.31 1.24-.55 1.95-.91 11.97-10.23 15.12-19.87.89-2.72.03-7.9-4.7-9.12-3.97-1.03-9.18 3.3-10.1 10.08m31.98 26.48c.23-.2.59-.52 1.01-.92 1.57-1.47 8.18-13.46 8.16-23.6 0-2.86-2.44-7.51-7.31-7.2-4.09.26-7.69 6-6.45 12.73m-62.11-6.4c.3-.07.76-.18 1.32-.34 2.08-.57 13.53-8.07 18.26-17.04 1.33-2.53 1.36-7.78-3.09-9.78-3.74-1.68-9.61 1.71-11.65 8.23M370.8 726.59c.29-.1.74-.27 1.27-.48 2-.79 12.56-9.51 16.27-18.94 1.05-2.66.5-7.88-4.15-9.38-3.9-1.26-9.36 2.75-10.68 9.46m119.78 4.82c.1-.29.25-.74.42-1.3.63-2.06.39-15.75-4.67-24.53-1.43-2.48-5.85-5.3-9.92-2.6-3.42 2.26-3.68 9.04.75 14.25m-39.19 39.55c.18-.24.47-.63.8-1.1 1.24-1.76 5.29-14.83 3.22-24.76-.58-2.8-3.91-6.86-8.61-5.57-3.95 1.08-6.32 7.43-3.74 13.77m40.91 7.06c.1-.29.25-.74.42-1.3.63-2.06.4-15.75-4.67-24.53-1.43-2.48-5.85-5.3-9.92-2.61-3.42 2.26-3.69 9.04.74 14.25M402.77 738c.22-.21.57-.54.98-.95 1.52-1.53 7.72-13.73 7.35-23.86-.1-2.86-2.69-7.42-7.55-6.95-4.08.4-7.49 6.26-6.01 12.94" fill="#926466"/><path d="M252.392 346.167a5.65 5.65 0 0 0-1.845-1.695c.509-2.057-.731-3.921-2.54-4.921 1.068-2.884-.777-6.39-3.558-6.972-1.039-1.025-2.591-1.476-4.529-.769l-.303.11c-1.408-1.309-3.483-1.825-5.637-.53-7.711 4.631-15.425 9.262-23.139 13.892l-5.499 3.301a320.979 320.979 0 0 0-16.763 10.029l-.088.02c-.287.044-.558.11-.812.197-4.507 1.157-8.793 3.263-12.489 5.991-13.53 9.98-18.21 26.94-17.46 43.11.122 2.612 1.855 4.164 3.845 4.652-1.254 19.167-.699 38.427 1.565 57.528.669 5.631 8.713 6.301 9.896 1.839.485 2.023.99 3.821 1.506 5.657 1.261 4.486 2.585 9.2 3.828 17.984 2.925 20.691 1.51 34.411.247 46.664-.935 9.066-1.787 17.329-.737 27.016 3.956 36.548 61.928 84.919 102.334 94.853a26.094 26.094 0 0 0 5.639 2.483c.567.573 1.338 1.017 2.337 1.254 15.244 3.618 31.243 6.613 47.489 8.451a167.94 167.94 0 0 0 19.581 2.539c9.367.653 18.876.584 28.213-.512 3.138-.061 6.237-.372 9.24-1.16 31.659-3.108 61.985-13.062 87.137-33.888 12.67-10.5 23.2-23.59 30.23-38.49.113-.239.206-.478.282-.714 2.327-4.394 3.32-9.623 3.815-14.911.19-.747.357-1.499.503-2.255 1.837-9.547 1.663-17.86 1.473-26.981-.258-12.328-.547-26.131 4.057-46.449 1.955-8.629 3.659-13.193 5.281-17.536 1.771-4.742 3.444-9.222 5.239-18.444.139-.718.413-1.753.76-3.067l.001-.001c1.818-6.876 5.656-21.394 2.854-38.234-.296-4.233-1.006-8.478-1.755-12.608-2.14-11.83-5.87-23.3-10.83-34.24-2.39-5.27-5.11-10.39-8.13-15.32l-.23-.375-.267-.435c-2.638-4.306-5.496-8.972-9.823-11.7-5.093-3.214-9.857-2.696-14.508-.939a93.756 93.756 0 0 0-25.282-9.361c-5.475-1.168-8.214 6.002-4.651 8.754a5.304 5.304 0 0 0-2.457-.104c-1.782-3.069-5.55-3.328-7.736-1.542-2.394-2.243-7.408-1.029-8.426 2.432-.261.885-.515 1.771-.761 2.659a645.1 645.1 0 0 1-3.522 2.636c-.142.07-.284.149-.427.235a432.95 432.95 0 0 0-17.653 11.253c-1.169-1.687-3.234-2.784-5.407-2.123-1.289.393-2.577.792-3.862 1.198-1.059-1.186-2.695-1.769-4.718-1.028a750.44 750.44 0 0 1-19.171 6.732c.066-.888.202-1.785.411-2.692 1.293-5.583-6.235-8.319-8.907-4.39-1.015-1.901-3.449-2.884-5.63-2.495-.46-5.972-9.983-5.839-9.983.455v4.737c-.631-1.772-2.177-3.165-4.54-3.087-7.418.248-14.826.662-22.218 1.242a5.282 5.282 0 0 0-.641-.994c.089-2.496-1.627-5.027-4.861-5.208a334.643 334.643 0 0 0-27.499-.394c2.537-3.141-.214-8.807-5.281-7.986l-6.012.973a5.661 5.661 0 0 0-.818-2.077c4.481-1.595 3.847-9.548-1.88-9.726a190.92 190.92 0 0 0-17.257.253 597.75 597.75 0 0 1 6.427-2.013c6.13-1.88 3.52-11.54-2.66-9.64a581.067 581.067 0 0 0-20.988 6.877Zm-70.686 40.066a28.97 28.97 0 0 1 2.212 2.743c-2.547 4.04-4.977 8.396-7.408 12.944h-.01a66.993 66.993 0 0 0-5.019 12.131c.18-2.942.402-5.883.669-8.821l.147-1.66c.394-4.496.794-9.055 1.693-13.47.584-2.86 1.658-4.977 3.278-6.68.103.004.205.01.306.019-.1.002.287.109.657.211.258.071.509.14.579.17.226.088.742.415 1.145.711.193.166.384.337.572.512.351.448.748.849 1.179 1.19Zm315.637-16.373c-.292 1.158-.949 2.225-1.837 2.967a102.965 102.965 0 0 1 8.394 5.503c1.331.969 1.984 2.266 2.132 3.593.588.942.836 2.057.703 3.16a41.67 41.67 0 0 1 3.611 3.094c-2.876-6.147-6.322-12.442-10.746-16.817a6.729 6.729 0 0 0-2.257-1.5Z" clip-rule="evenodd" fill="#5570b2" fill-rule="evenodd"/><path d="M341 379.96c-10.08 35.52 6.87 70.63 7.75 106.16.48 19.2-2.11 38.29-4.75 57.27-2.67 19.2-4.92 38.37-5.93 57.74-1.14 21.7-1.22 43.43-1.31 65.15-.05 12.87 19.95 12.89 20 0 .15-37.71.71-75.32 5.86-112.74 2.59-18.85 5.55-37.73 6.1-56.79.54-18.82-2.41-37.05-6.08-55.44-3.68-18.41-7.6-37.53-2.35-56.03 3.52-12.4-15.77-17.7-19.29-5.32Z" fill="#414f7f"/><path d="M183.44 516.94c27.21 15.96 62.48 22.38 97.86 25.97 75.12 7.62 154.51 3.71 233.04-11.48" fill="none" stroke="#414f7f" stroke-width="12" stroke-miterlimit="10"/><path d="M165.05 233.74c19.3-42.67 90.52-141.28 188.72-143.97 108.39-2.97 210.95 111.96 186.09 152.86-45.72 75.23-409.26 67.26-374.81-8.89Z" fill="#bfcfea"/><path d="M501.75 204.43c-11.76-20.15-58.55-91.34-141.29-91.1-100.18.29-140.65 103.98-143.23 110.16-7.44 17.85-30.61 50.74-10.71 80.28 16.01 23.76 32.61 52.75 69.89 63.8 11.53 3.42 19.61 7.02 26.99 10.36 9.3 2.09 18.9 2.42 28.36 3.28 19.79 1.79 39.26 4.55 59.07 2.92 17.7-4.14 34.64-.85 75.09-17.73 32.5-13.56 36.22-28.72 45.31-46.12 23.47-44.94-4.07-106.57-9.48-115.84v-.01Z" fill="#ae794e"/><path d="M506.73 202.36c15.41-1.97 26.55-12.17 27.06-23.44.59-12.95-12.95-24.88-20.5-23.44-11.33 2.15-10.76 34.67-10.66 38.61m-315.02 9.27c-15.41-1.97-26.55-12.17-27.06-23.44-.59-12.95 12.95-24.88 20.5-23.44 11.33 2.15 10.76 34.67 10.66 38.61" fill="#362218"/><path d="M525.98 204.3c-2.14 1.44-4.53 2.44-7.1 2.75-7.76.92-13.44 5.84-19.66 10.33-4.5 3.25-4.84 9.44-6.97 12.33-7.23 9.78-1.28 12.52-8.36 27.23-.69 1.44-1.11 3.07-.9 4.65.19 1.42.97 2.68 1.38 4.05 1.42 4.71-1.65 9.49-2.49 14.34-1 5.8 1.25 11.62 3.45 17.08l7.05 17.46c.6 1.49 1.21 2.98 2.12 4.3 1.57 2.26 4.03 4 4.79 6.64.31 1.08.31 2.23.44 3.35.74 6.25 5.62 11.09 10.21 15.4 4.67 4.39 10.01 9.05 16.42 9.05 2.03 0 4.02-.48 5.98-.95 8.66-2.1 17.33-4.19 25.99-6.29 1.72-.42 3.48-.85 4.91-1.88 1.69-1.22 2.73-3.13 4.24-4.56 2.41-2.28 5.95-3.3 7.89-5.99 2.35-3.26 1.66-8.04 4.08-11.24 1.37-1.81 3.6-2.91 4.69-4.9 1.65-3.01.1-6.85 1.08-10.14.52-1.75 1.72-3.2 2.7-4.73 4.2-6.57 4.48-15.45.71-22.27-.44-.8-.94-1.58-1.31-2.41-.48-1.08-.74-2.24-1.01-3.4-5.36-23.09-14.61-46.1-31.62-62.6-4.34-4.21-9.37-8.06-15.29-9.31-5.36-1.14-10.8-.04-13.46 1.75l.04-.04Zm-309.78 1.47c-6.02-6.78-16.29-7.22-25.36-7.16-5.08.03-10.68.27-14.38 3.74-2.39 2.24-3.7 5.62-6.52 7.29-2.48 1.46-5.94 1.48-7.56 3.85-.67.97-.88 2.17-1.3 3.28-2.63 6.92-13.11 9.48-13.59 16.86-.09 1.33.18 2.72-.34 3.95-.78 1.85-3.03 2.61-4.2 4.26-1.93 2.73-.2 6.65-1.34 9.8-.95 2.59-3.68 4.18-4.75 6.73-1.22 2.89-.02 6.32-1.03 9.29-.59 1.73-1.87 3.14-2.55 4.84-.59 1.47-.69 3.09-.75 4.68-.41 10.51.57 21.06 2.91 31.31.25 1.1.52 2.22 1.08 3.2.68 1.19 1.75 2.13 2.4 3.34 2.01 3.77-.49 9.15 2.36 12.34 1 1.12 2.57 1.8 3.11 3.21.48 1.25-.04 2.63-.17 3.96-.25 2.49.86 4.89 2.01 7.11 1.28 2.47 2.64 4.89 4.09 7.26 2.15 3.52 5.73 5.97 9.82 6.54 3.18.44 6.35.7 9.56.5 3.13-.2 3.46-.57 6.53-1.21 1.11-.23 7.39-2.75 8.49-2.98 5.69-1.19 8.98-.37 14.45-2.34.8-.29 1.62-.61 2.22-1.21 1.41-1.42 1.13-3.85 2.32-5.45 1.67-2.26 5.43-1.98 7.16-4.2 1.7-2.18.49-5.53 1.75-7.99 1.11-2.16 3.76-3.01 5.43-4.77 3.15-3.33 2.16-9.08 5.12-12.58 1.12-1.33 2.71-2.19 3.86-3.49 1.32-1.5 1.95-3.45 2.54-5.35 4-12.88 3.14-23.62 5.9-36.82.9-4.3 3.74-8.81 3.14-13.16-.7-5.13-1.08-12.02-3.65-16.51-1.53-2.67-3.08-5.36-5.22-7.57-.89-.92-1.92-1.8-2.36-3.01-.38-1.03-.28-2.17-.36-3.27-.21-3.09-1.82-5.88-3.39-8.55-2.92-4.97-6.13-10.23-7.44-9.68l.01-.04Z" fill="#bfcfea"/><path d="M526.06 227.96c-2.39-1.97-5.1-3.45-8.03-4.19-6.61-1.67-4.02-5.93-9.4-14.8-1.07-1.76-5.96-3.58-6.75-5.51-.86-2.12-2.24-3.93-3.61-5.7-3.71-4.82-7.42-9.63-11.13-14.45-5.57-7.23-11.15-14.47-17.12-21.31-8.2-9.39-17.14-18.02-26.7-25.77-2.61-2.12-5.31-4.19-8.38-5.38-3.96-1.53-8.28-1.49-12.38-2.5-6.26-1.53-11.82-5.43-17.98-7.39-4.7-1.5-9.64-1.84-14.53-2.17-17.5-1.18-26.65-3.49-44.38-4.64-5.67-.37-14.4 1.78-19.52 4.45-2.72 1.42-7.28 2.77-9.45 4-8.19 4.63-8.96 5.5-15.53 8.26-5.77 2.57-11.53 5.15-17.3 7.72-6.82 3.28-14.09 5.93-20.4 10.39-5.35 3.78-9.87 8.76-14.32 13.73-11.5 12.83-22.89 25.93-31.94 40.9-4.85 8.03-9.09 16.68-15.5 23.3s-15.75 10.95-24.17 8.02c-4.37-13.46-1.87-28.7 4.05-41.44s14.99-23.4 24.25-33.52c37.34-40.78 82.81-77.16 135.42-83.56 38.78-4.72 78.47 7.7 111.3 30.64s59.1 55.89 78.94 92.41c2.73 5.02 5.43 10.57 4.82 16.36-.54 5.08-3.05 18.08-10.27 12.14l.01.01Z" fill="#bfcfea"/><path d="M425.552 261.971c7.226-1.35 10.922-14.014 8.257-28.287-2.666-14.273-10.685-24.749-17.911-23.399s-10.923 14.014-8.257 28.287c2.666 14.272 10.685 24.749 17.911 23.399ZM310.813 238.603c2.666-14.273-1.031-26.937-8.257-28.287s-15.245 9.126-17.911 23.399c-2.665 14.273 1.031 26.937 8.257 28.287s15.245-9.126 17.911-23.399Z" fill="#201614"/><path d="M416.86 337.17c-10.47 18.59-40.05 20.2-54.96 20.68-14.1.45-45.66.07-59.05-19.46-9.48-13.82-6.68-26.93-4.88-31.12 8.08-18.78 30.82-35.14 58.59-35.2 33.5-.08 51.9 23.61 54.54 27.14 3.43 4.59 14.97 21.61 5.75 37.97l.01-.01Z" fill="#746155"/><path d="M335.56 289.28c3.86-7.13 15.89-7.49 21.35-7.65 5.16-.15 18.04-.54 22.92 6.99 3.45 5.33.89 11.51.22 13.12-2.99 7.21-11.34 13.47-21.51 13.45-12.27-.02-18.97-9.15-19.94-10.51-1.25-1.77-6.44-9.12-3.04-15.39v-.01Z" fill="#201614"/><path d="M367.72 289.77c2.226 0 4.03-.73 4.03-1.63s-1.804-1.63-4.03-1.63-4.03.73-4.03 1.63 1.804 1.63 4.03 1.63ZM424.66 227.15c3.093 0 5.6-1.545 5.6-3.45s-2.507-3.45-5.6-3.45-5.6 1.545-5.6 3.45 2.507 3.45 5.6 3.45ZM305.66 227.15c3.093 0 5.6-1.545 5.6-3.45s-2.507-3.45-5.6-3.45-5.6 1.545-5.6 3.45 2.507 3.45 5.6 3.45Z" fill="#fff"/><path d="M402.66 313.83c1.93 0 1.93-3 0-3s-1.93 3 0 3Zm9 9c1.93 0 1.93-3 0-3s-1.93 3 0 3Zm-13 3c1.93 0 1.93-3 0-3s-1.93 3 0 3Zm-85-15c1.93 0 1.93-3 0-3s-1.93 3 0 3Zm4 12c1.93 0 1.93-3 0-3s-1.93 3 0 3Zm-12-3c1.93 0 1.93-3 0-3s-1.93 3 0 3Z" fill="#201614"/><path d="M302.33 309.25c-6.8-3.97-63.92-20.99-83.21-7.19m81.49 11.54c-7.35-2.83-84.91-13.35-101.72 3.38m103.8.79c-7.62-2.01-101.91-2.81-120.04 9.52m232.3-18.46c6.84-3.9 64.13-20.34 83.28-6.34m-83.27 14.39c7.41-2.87 85.88-13.79 103.24 2.92m-103.65.26c7.27-1.56 95.88 1.89 112.2 14.34" opacity=".67" fill="none" stroke="#201614" stroke-miterlimit="10"/><g><g><path d="M586.788 233.41c-3.549.776-6.822 2.987-8.998 7.01-16.65 30.8-36.27 61.14-57.62 88.09-3.42 4.317-7.189 8.713-11.04 13.206-17.053 19.893-35.729 41.679-32.96 66.878a33.538 33.538 0 0 0-.085 5.542c-1.467 5.866-2.222 12.237.265 17.054 1.528 2.969 4.071 4.596 6.9 5.959-.165 2.828 1.869 4.296 4.151 4.419.113.132.229.263.349.392 1.361 1.461 3.02 2.555 4.833 3.369 2.9 1.684 6.158 2.807 9.457 3.451a48.28 48.28 0 0 0 3.955.603c4.872 1.39 9.91 1.847 14.815.147 1.014-.354 1.289-1.58.832-2.336 5.773-1.477 11.156-4.77 15.858-9.294 3.329-3.203 6.349-6.805 9.128-10.629 6.298-6.127 11.489-13.452 16.302-20.851l.558-.857.346-.531c3.652-5.605 7.346-11.275 10.136-17.362 1.101-2.402 1.831-5.073 2.564-7.754v-.001c1.278-4.673 2.564-9.377 5.836-12.745 5.2-5.34 7.63-10.86 9.59-18 2.36-8.61 4.71-17.22 7.06-25.84 1.947-7.134 3.79-14.265 5.076-21.448 3.257-9.293 7.379-18.246 11.724-27.262 2.434-5.053-3.873-9.576-7.352-6.728a250.567 250.567 0 0 0 4.292-33.582c.065-1.096-.243-2.03-.788-2.779l5.658-15.081c1.47-3.93-3.89-8.18-7.34-5.65-8.883 6.528-16.723 14.05-23.502 22.61Z" fill="#ae794e"/><animateTransform attributeName="transform" type="rotate" dur="5s" repeatCount="indefinite" values="0 0 0; 5 0 0; 0 0 0" keyTimes="0; 0.5; 1"/></g><animateTransform attributeName="transform" type="translate" dur="5s" repeatCount="indefinite" values="0 0; 40 -40; 0 0" keyTimes="0; 0.5; 1"/></g><path d="M213.19 449.63c-5.093 6.14-10.795 11.696-16.668 17.089a142.43 142.43 0 0 0-1.383 3.089c-1.687 3.852-3.374 7.704-6.319 10.952-2.784 3.068-6.16 5.404-9.539 7.74-2.204 1.525-4.41 3.05-6.451 4.78-3.492 2.96-5.359 6.71-7.253 10.514-1.49 2.994-2.997 6.022-5.327 8.726-2.126 2.468-4.535 4.701-7.024 6.868l-4.534 6.431-.861 1.755c-5.327 10.862-10.67 21.755-19.761 29.886-1.611 1.44-3.483 1.597-5.074 1.009-1.265.544-2.668.871-4.256.911-1.949.046-3.329-.874-4.095-2.19a18.131 18.131 0 0 1-3.925.78c-14.73 1.26-22.79-15.37-22.74-27.89.056-16.092 8.5-31.183 16.408-45.313l.002-.003.003-.007.036-.064c.476-.851.951-1.699 1.421-2.543 8.29-14.88 17.59-29.2 27.86-42.79a364.949 364.949 0 0 1 4.718-6.112 235.647 235.647 0 0 1 31.232-48.178c.377-.45.764-.914 1.161-1.391 7.561-9.075 18.758-22.515 31.679-19.969.838.165 1.622.377 2.353.631.931-.454 2.055-.608 3.327-.301 16.01 3.86 24.05 21.24 24.56 36.47.61 18.16-8.23 35.47-19.55 49.12Z" fill="#ae794e"/><path d="M126.29 534.33c-5.99-10.84-24.68-11.87-38.33-5.49-15.48 7.24-30.57 26.86-24.46 43.27 6.13 16.46 29.62 19.04 43.15 10.79 6.91-4.21 10.39-10.73 13.69-16.92 3.82-7.16 11.51-21.57 5.94-31.65h.01Z" fill="#5b372b"/><g><g><path d="M624.86 266.47c-9.52 13-29.41 21.23-43.16 13.57l-.01.01c-12.78-7.12-15.01-25.05-16.11-33.95l-.006-.049c-.948-7.695-1.945-15.787 2.176-23.311 8.09-14.78 33.99-23.86 51.83-10.77 17.79 13.06 16.08 39.75 5.28 54.5Z" fill="#5b372b"/><path d="M625.132 217.666c-3.809 5.017-8.203 7.15-9.822 5.894-2.137-1.656-2.545-5.16-1.376-10.323-3.759 6.826-7.714 10.505-9.234 8.453-1.306-1.763-.822-7.755.252-14.049-.373-.162-.744-.33-1.112-.501-.306-.144-.513-.341-.635-.565-.228.184-.461.387-.708.606-3.834 9.13-8.512 15.864-10.757 13.999h-.01c-2.66-2.2-1.83-16.41.86-26.64 3.97-15.08 13.22-26.28 16-23.11 2.377 2.713.013 15.995-2.099 24.013.37.006.744.026 1.122.06 3.883-14.344 11.26-28.42 14.007-25.753v.01c2.262 2.195 1.318 15.704-1.159 26.206 2.009-4.774 3.488-9.47 4.777-13.561 2.329-7.395 4.037-12.816 7.122-13.155.371-.035.617.756 1.035 2.099l.175.561c.95 2.98.93 5.46.91 6.61-.11 5.72-.84 9.35-.84 9.35-1.28 6.396-1.7 9.494-2.037 11.984l-.001.002c-.207 1.535-.384 2.84-.712 4.544a34.65 34.65 0 0 1-.68 2.883c.302.311.599.629.889.955 5.441-11.368 11.629-16.969 15.001-19.858 3.33-2.85-.77 16.59-3.94 24.02-5.55 13.02-20.4 28.17-20.42 22.83h-.01c-.015-4.85 2.098-9.98 4.881-16.528-.494-.342-.987-.688-1.479-1.036ZM565.75 212.01c.1 10.62 4.88 23.78 9.42 24.46h-.01c3.93.58 7.56-8.22 7.65-16.03.13-11.5-7.39-24.47-11.77-24.58-3.92-.1-5.35 10.08-5.29 16.15Z" fill="#362218"/><animateTransform attributeName="transform" type="rotate" dur="5s" repeatCount="indefinite" values="0 0 0; 10 0 0; 0 0 0" keyTimes="0; 0.5; 1"/></g><animateTransform attributeName="transform" type="translate" dur="5s" repeatCount="indefinite" values="0 0; 70 -80; 0 0" keyTimes="0; 0.5; 1"/></g><path d="M72.7 551.91c-1.34-2.19-9.01.27-14.44 3.93-4.64 3.13-10.25 8.89-9.17 11.12 1.21 2.5 11 .82 17.6-4.98 3.43-3.01 7.17-8.16 6.01-10.06v-.01Zm-4.54 53.71c2.52 1.49 8.92-5.37 12.43-12.18 3-5.82 5.57-14.89 3.3-16.56-2.55-1.87-11.5 5.39-15.05 15.05-1.84 5.02-2.86 12.4-.68 13.69Zm25.99-30.78c-2.42-.12-5.46 8.05-6.23 14.96-.66 5.91-.03 14.22 2.24 14.59 2.56.41 7.48-9.15 7.45-18.35-.02-4.78-1.37-11.09-3.47-11.2h.01Z" fill="#362218"/><path d="M78.5 566.83c-2.41-1.65-11.2 5.59-16.77 12.84-4.77 6.19-9.88 15.89-7.78 17.72 2.35 2.06 14.05-5.56 20.38-15.86 3.29-5.35 6.26-13.26 4.18-14.69l-.01-.01Z" fill="#362218"/><path d="M48.91 586.08c2.08 1.8 11.72-4.11 18.25-10.36 5.58-5.34 12.65-15.01 10.28-15.89-5.45-2.03-14.48 3.78-22.22 12.84-4.02 4.7-8.12 11.85-6.32 13.41h.01Z" fill="#362218"/></svg>
