<svg width="667" height="667" viewBox="0 0 667 667" fill="none" xmlns="http://www.w3.org/2000/svg">
<circle cx="333" cy="565" r="65" fill="#6A79AB"/>
<path d="M175.682 398C185.182 361 180.182 324 187.182 259C191.704 217.015 253.678 185.678 301.682 169.2C271.282 176.559 309.682 130.133 332.682 106V160L332.682 552C309.702 551.793 279.492 551.094 248.682 549.7C180.503 546.615 109.386 540.122 107.182 528C103.182 506 166.182 435 175.682 398Z" fill="#5570B2"/>
<path d="M332.682 160L332.682 552C309.702 551.793 279.492 551.094 248.682 549.7C180.503 546.615 109.386 540.122 107.182 528C103.182 506 166.182 435 175.682 398C185.182 361 180.182 324 187.182 259C191.704 217.015 253.678 185.678 301.682 169.2M332.682 160V106C309.682 130.133 271.282 176.559 301.682 169.2M332.682 160C323.79 162.183 313.134 165.268 301.682 169.2" stroke="#5570B2" stroke-width="57" stroke-linecap="round" stroke-linejoin="round"/>
<g clip-path="url(#clip0_81_164)">
<path d="M490 398C480.5 361 485.5 324 478.5 259C473.979 217.015 412.004 185.678 364 169.2C394.4 176.559 356 130.133 333 106V160L333 552C355.98 551.793 386.19 551.094 417 549.7C485.179 546.615 556.296 540.122 558.5 528C562.5 506 499.5 435 490 398Z" fill="#3D4775"/>
<path d="M333 160L333 552C355.98 551.793 386.19 551.094 417 549.7C485.179 546.615 556.296 540.122 558.5 528C562.5 506 499.5 435 490 398C480.5 361 485.5 324 478.5 259C473.979 217.015 412.004 185.678 364 169.2M333 160V106C356 130.133 394.4 176.559 364 169.2M333 160C341.892 162.183 352.548 165.268 364 169.2" stroke="#3D4775" stroke-width="57" stroke-linecap="round" stroke-linejoin="round"/>
</g>
<defs>
<clipPath id="clip0_81_164">
<rect width="278" height="591" fill="white" transform="translate(333 50)"/>
</clipPath>
</defs>
</svg>
