<svg width="39" height="39" viewBox="0 0 39 39" fill="none" xmlns="http://www.w3.org/2000/svg">
<path d="M29.2218 35.386C32.7225 35.386 35.5604 32.5481 35.5604 29.0473C35.5604 25.5466 32.7225 22.7087 29.2218 22.7087C25.721 22.7087 22.8831 25.5466 22.8831 29.0473C22.8831 32.5481 25.721 35.386 29.2218 35.386Z" stroke="#84010B" stroke-width="3.31471"/>
<path d="M29.1926 27.1573V29.8033H31.5478" stroke="#84010B" stroke-width="3.31471" stroke-linecap="round" stroke-linejoin="round"/>
<path d="M18.0855 33.2343H5.90247V8.51941H33.118V18.1146" stroke="#C11F25" stroke-width="3.31471" stroke-linecap="round" stroke-linejoin="round"/>
<path d="M11.7468 5.93158V11.1944" stroke="#C11F25" stroke-width="3.31471" stroke-linecap="round" stroke-linejoin="round"/>
<path d="M19.3648 5.93158V11.1944" stroke="#C11F25" stroke-width="3.31471" stroke-linecap="round" stroke-linejoin="round"/>
<path d="M27.448 5.93158V11.1944" stroke="#C11F25" stroke-width="3.31471" stroke-linecap="round" stroke-linejoin="round"/>
<path d="M11.7468 19.423C12.7103 19.423 13.4914 18.642 13.4914 17.6785C13.4914 16.7149 12.7103 15.9339 11.7468 15.9339C10.7833 15.9339 10.0023 16.7149 10.0023 17.6785C10.0023 18.642 10.7833 19.423 11.7468 19.423Z" fill="#C11F25"/>
<path d="M11.7468 29.0764C12.7103 29.0764 13.4914 28.2953 13.4914 27.3318C13.4914 26.3683 12.7103 25.5872 11.7468 25.5872C10.7833 25.5872 10.0023 26.3683 10.0023 27.3318C10.0023 28.2953 10.7833 29.0764 11.7468 29.0764Z" fill="#C11F25"/>
<path d="M19.3648 19.423C20.3283 19.423 21.1093 18.642 21.1093 17.6785C21.1093 16.7149 20.3283 15.9339 19.3648 15.9339C18.4013 15.9339 17.6202 16.7149 17.6202 17.6785C17.6202 18.642 18.4013 19.423 19.3648 19.423Z" fill="#C11F25"/>
<path d="M19.0741 29.0764C20.0376 29.0764 20.8187 28.2953 20.8187 27.3318C20.8187 26.3683 20.0376 25.5872 19.0741 25.5872C18.1106 25.5872 17.3295 26.3683 17.3295 27.3318C17.3295 28.2953 18.1106 29.0764 19.0741 29.0764Z" fill="#C11F25"/>
<path d="M27.448 19.423C28.4115 19.423 29.1926 18.642 29.1926 17.6785C29.1926 16.7149 28.4115 15.9339 27.448 15.9339C26.4845 15.9339 25.7035 16.7149 25.7035 17.6785C25.7035 18.642 26.4845 19.423 27.448 19.423Z" fill="#C11F25"/>
</svg>
