<svg width="713" height="151" viewBox="0 0 713 151" fill="none" xmlns="http://www.w3.org/2000/svg">
<path d="M721.439 158.793H165.953L25.7744 76.8525L112.692 19.5639L256.791 51.4838L332.926 13.938L416.575 33.9793L483.727 19.5639L581.948 1L654.454 35.6527H717.312L721.439 158.793Z" fill="url(#paint0_linear_117_2855)" stroke="#CFA6FF"/>
<path d="M395.009 58.0568L463.955 101.402L-1.99976 105.519L-1.99976 46.8488L62.0309 21.8024L176.346 46.8488L204.308 21.8024L265.367 33.8127L317.415 33.8127L338.807 40.3215L369.849 46.8488L395.009 58.0568Z" fill="url(#paint1_linear_117_2855)"/>
<path d="M395.009 58.0568L463.955 101.402L-1.99976 105.519L-1.99976 46.8488L62.0309 21.8024L176.346 46.8488L204.308 21.8024L265.367 33.8127L317.415 33.8127L338.807 40.3215L369.849 46.8488L395.009 58.0568Z" stroke="#7500FF" stroke-width="2" stroke-linejoin="round"/>
<path d="M395.009 58.0568L463.955 101.402L-1.99976 105.519L-1.99976 46.8488L62.0309 21.8024L176.346 46.8488L204.308 21.8024L265.367 33.8127L317.415 33.8127L338.807 40.3215L369.849 46.8488L395.009 58.0568Z" stroke="white" stroke-opacity="0.65" stroke-width="2" stroke-linejoin="round"/>
<path d="M223.462 53.0058L363.988 71.3006L398.604 92.3274L465.355 71.3006H529.807L546.77 66.7596L679.614 17.4896L717.191 33.2182L720.786 158.552L-1.99976 163.867L-1.99976 88.129L73.8078 50.469L123.148 84.9704L223.462 53.0058Z" fill="url(#paint2_linear_117_2855)"/>
<path d="M223.462 53.0058L363.988 71.3006L398.604 92.3274L465.355 71.3006H529.807L546.77 66.7596L679.614 17.4896L717.191 33.2182L720.786 158.552L-1.99976 163.867L-1.99976 88.129L73.8078 50.469L123.148 84.9704L223.462 53.0058Z" stroke="#7500FF" stroke-width="2" stroke-linejoin="round"/>
<path d="M223.462 53.0058L363.988 71.3006L398.604 92.3274L465.355 71.3006H529.807L546.77 66.7596L679.614 17.4896L717.191 33.2182L720.786 158.552L-1.99976 163.867L-1.99976 88.129L73.8078 50.469L123.148 84.9704L223.462 53.0058Z" stroke="white" stroke-opacity="0.65" stroke-width="2" stroke-linejoin="round"/>
<path d="M437.161 29.6666C423.045 45.0908 400.194 52.8014 390.501 55C391.066 54.8684 394.079 57.1734 398.001 59C425.709 46.62 435.419 34.233 437.161 29.6666Z" fill="#7500FF"/>
<path d="M343 142.5L349.5 141C345.5 138.5 338.753 132 338 130C336.39 130.537 335.02 131.073 334.045 131.455C333.203 131.785 332.655 132 332.5 132C334.191 135.382 336.911 137.974 339.5 140C340.738 140.969 341.5 141.5 343 142.5Z" fill="#CFA6FF"/>
<path d="M328 117.5L322.5 119.5C320.334 118.667 316.5 113 314 106.5C319.5 105.5 320.178 105 320.512 105C321 106.919 322 111.5 328 117.5Z" fill="#CFA6FF"/>
<path fill-rule="evenodd" clip-rule="evenodd" d="M334 68.5C329.099 82.6219 347.434 120.334 414.615 160.316C382.924 160.316 356.984 160.787 345.946 160.988C342.962 161.042 341.067 161.077 340.441 161.077C309.182 145.263 269.598 105.308 296 63.5L334 68.5ZM349.5 141L343 142.5C341.5 141.5 340.738 140.969 339.5 140C336.911 137.974 334.191 135.382 332.5 132C332.655 132 333.203 131.785 334.045 131.455C335.02 131.073 336.39 130.537 338 130C338.753 132 345.5 138.5 349.5 141ZM328 117.5L322.5 119.5C320.334 118.667 316.5 113 314 106.5C319.5 105.5 320.178 105 320.512 105C321 106.919 322 111.5 328 117.5ZM315.5 92H309.5C307.1 84.8 310 78.5 311 76.5C311.009 76.5 311.016 76.5 311.024 76.5001C311.166 76.5026 311.307 76.5511 317 77.5C315 83.1 314.5 89.5 315.5 92Z" fill="#7500FF"/>
<path d="M309.5 92H315.5C314.5 89.5 315 83.1 317 77.5C311.307 76.5511 311.166 76.5026 311.024 76.5001L311 76.5C310 78.5 307.1 84.8 309.5 92Z" fill="#CFA6FF"/>
<path d="M324.5 61L326 62C327 61.5 329.3 60.4 330.5 60L329.5 59C328.667 59.1666 326.5 59.8 324.5 61Z" fill="#CFA6FF"/>
<path d="M336.5 57L337 58C338 57.5 340.4 56.4 342 56L341.5 55C340.667 55.1666 338.5 55.8 336.5 57Z" fill="#CFA6FF"/>
<path d="M360 50.5L360.5 51.5L364.5 51L364 50L360 50.5Z" fill="#CFA6FF"/>
<path d="M348 53L348.5 54L353.5 53L353 52L348 53Z" fill="#CFA6FF"/>
<path fill-rule="evenodd" clip-rule="evenodd" d="M312 63.5C332.913 51.12 357.474 48.4228 370 48C370.621 48.2409 371.441 48.5913 372.346 49C373.346 49.4518 374.45 49.9749 375.5 50.5C353.019 53.5442 337.535 61.5182 331 66C330.41 65.9017 329.426 65.7785 327.668 65.5583C324.887 65.21 320.168 64.619 312 63.5ZM324.5 61L326 62C327 61.5 329.3 60.4 330.5 60L329.5 59C328.667 59.1666 326.5 59.8 324.5 61ZM337 58L336.5 57C338.5 55.8 340.667 55.1666 341.5 55L342 56C340.4 56.4 338 57.5 337 58ZM348 53L348.5 54L353.5 53L353 52L348 53ZM360.5 51.5L360 50.5L364 50L364.5 51L360.5 51.5ZM369.5 50L369 49.5L371 49L371.5 49.5L369.5 50Z" fill="#7500FF"/>
<path d="M369 49.5L369.5 50L371.5 49.5L371 49L369 49.5Z" fill="#CFA6FF"/>
<path d="M398 56L402 54M407.5 52L410.5 50.5M414.5 48.5L417 47M420 45L422.5 43.5M425.5 41.5L428 39.5M430 37.5L431.5 36M433 35L434 34M435 32.5L435.5 32" stroke="white" stroke-width="0.2"/>
<defs>
<linearGradient id="paint0_linear_117_2855" x1="443.695" y1="1" x2="443.695" y2="158.793" gradientUnits="userSpaceOnUse">
<stop stop-color="#6306CF"/>
<stop offset="0.677885" stop-color="#320369"/>
</linearGradient>
<linearGradient id="paint1_linear_117_2855" x1="198.904" y1="105.519" x2="198.236" y2="-73.8087" gradientUnits="userSpaceOnUse">
<stop stop-color="#290553"/>
<stop offset="1" stop-color="#460098"/>
</linearGradient>
<linearGradient id="paint2_linear_117_2855" x1="273.01" y1="163.867" x2="272.197" y2="-67.6294" gradientUnits="userSpaceOnUse">
<stop stop-color="#45098B"/>
<stop offset="0.807692" stop-color="#700BE6"/>
</linearGradient>
</defs>
</svg>
