<svg width="359" height="896" viewBox="0 0 359 896" fill="none" xmlns="http://www.w3.org/2000/svg">
<g filter="url(#filter0_d_23_90)">
<path d="M169.365 0V166.365L175.766 167.498L174.642 3.39521L169.365 0Z" fill="#C7C5C5"/>
<path d="M191.769 138.693V168.486L198.17 169.632V143.277L191.769 138.693Z" fill="#C7C5C5"/>
<path d="M162.964 170.699L149.512 180.866V198.94L77.7761 501.68L90.106 497.161L87.8642 552.513L74.4134 573.976L130.457 531.05V454.235L145.029 437.291L162.964 170.699Z" fill="#B9AFC5" fill-opacity="0.7"/>
<path d="M261.116 510.562L264.583 476.604L273.829 463.021H288.854V512.826V555.839L261.116 510.562Z" fill="#C7C5C5"/>
<path d="M84.956 551.62L87.2158 501.428L63.2112 506.229V557.972L68.0122 575.042L84.956 551.62Z" fill="#B9AFC5" fill-opacity="0.7"/>
<path d="M136.292 528.781V456.388L149.094 441.684L160.83 455.257V523.126L152.295 535.568L136.292 528.781Z" fill="#B9AFC5" fill-opacity="0.7" stroke="#B9AFC5" stroke-opacity="0.7"/>
<path d="M123.639 743.196L125.89 916.441H161.897V743.196L156.271 734.137L150.645 731.872L123.639 743.196Z" fill="#B9AFC5" fill-opacity="0.7"/>
<path d="M21.2449 800.944V893.794L31.3719 916.441L44.8744 915.308V796.415H51.6257V791.885H47.1249H27.9962L17.8693 798.679V804.341L21.2449 800.944Z" fill="#B9AFC5" fill-opacity="0.7"/>
<path d="M307.503 771.13V916.441H338.037L350.476 891.269V839.781H355V830.628L347.084 823.762V763.121L326.728 758.544L313.157 763.121H298.456V771.13H307.503Z" fill="#C7C5C5"/>
<path d="M168.249 188.875L151.228 439.029L165.98 452.613V520.528L276.052 540.902L257.896 510.341L261.3 475.251L268.108 465.064L198.888 192.27V175.292L169.384 169.632L168.249 188.875Z" fill="#C7C5C5"/>
<path d="M27.6263 783.832L19.7509 789.483V685.495L4 693.407L45.6273 580.377L65.8784 676.453V722.795L61.3782 725.056V678.714L56.8779 674.192L50.1276 677.583L51.2526 728.447L45.6273 730.708V680.974L43.3772 677.583L35.5017 680.974V731.838L27.6263 734.098V783.832Z" fill="#B9AFC5" fill-opacity="0.7"/>
<path d="M346.465 696.803V757.098L326.105 752.548L313.662 757.098H293.302V776.439H300.088V917.508L283.121 916.37V845.836L271.81 809.431L265.023 841.285V916.37H251.449V839.01L241.269 802.605L232.22 831.046V916.37H220.909V831.046L211.86 791.228L202.81 825.358V916.37H191.499V815.119L181.319 779.852L172.27 809.431V916.37H166.614V741.171L158.696 727.519V688.839L172.27 677.462L296.695 696.803V702.491L305.744 703.629V696.803H346.465Z" fill="#C7C5C5"/>
<path d="M60.9543 916.441H50.7986V801.538H55.3123V784.473H50.7986H33.8723V741.242L71.1101 727.59V708.25L139.944 676.395L151.228 687.772V724.177L119.632 737.829V916.441H113.99V820.878L104.963 798.125L101.577 821.884V916.441H92.5501V825.428L84.6512 809.501L80.1375 827.704V916.441H73.367L72.2385 835.667L65.468 817.465L60.9543 837.943V916.441Z" fill="#B9AFC5" fill-opacity="0.7"/>
<path d="M310.511 641.71V690.264H314.992V641.71H320.593V690.264H329.555V640.581H335.156V690.264H342.998V641.71H348.599L323.954 535.568L303.79 641.71H310.511Z" fill="#C7C5C5"/>
<path fill-rule="evenodd" clip-rule="evenodd" d="M71.9355 700.462L139.871 668.759L150.061 657.436L147.797 540.814L134.21 535.153L71.9355 582.707V700.462ZM105.903 671.023C114.658 671.023 121.755 649.732 121.755 623.468C121.755 597.204 114.658 575.913 105.903 575.913C97.1487 575.913 90.0517 597.204 90.0517 623.468C90.0517 649.732 97.1487 671.023 105.903 671.023Z" fill="#B9AFC5" fill-opacity="0.7"/>
<path d="M139.871 668.759L140.082 669.212L140.175 669.169L140.243 669.094L139.871 668.759ZM71.9355 700.462H71.4355V701.247L72.147 700.915L71.9355 700.462ZM150.061 657.436L150.433 657.771L150.565 657.624L150.561 657.427L150.061 657.436ZM147.797 540.814L148.297 540.804L148.29 540.478L147.989 540.352L147.797 540.814ZM134.21 535.153L134.402 534.691L134.136 534.58L133.906 534.755L134.21 535.153ZM71.9355 582.707L71.6321 582.31L71.4355 582.46V582.707H71.9355ZM139.66 668.306L71.7241 700.009L72.147 700.915L140.082 669.212L139.66 668.306ZM149.69 657.102L139.499 668.425L140.243 669.094L150.433 657.771L149.69 657.102ZM147.297 540.824L149.561 657.446L150.561 657.427L148.297 540.804L147.297 540.824ZM134.018 535.614L147.605 541.275L147.989 540.352L134.402 534.691L134.018 535.614ZM72.239 583.105L134.513 535.55L133.906 534.755L71.6321 582.31L72.239 583.105ZM72.4355 700.462V582.707H71.4355V700.462H72.4355ZM121.255 623.468C121.255 636.561 119.485 648.394 116.638 656.937C115.213 661.21 113.528 664.633 111.681 666.977C109.829 669.326 107.873 670.523 105.903 670.523V671.523C108.311 671.523 110.525 670.059 112.466 667.595C114.412 665.126 116.142 661.585 117.586 657.253C120.476 648.584 122.255 636.639 122.255 623.468H121.255ZM105.903 576.413C107.873 576.413 109.829 577.611 111.681 579.96C113.528 582.304 115.213 585.726 116.638 590C119.485 598.542 121.255 610.375 121.255 623.468H122.255C122.255 610.298 120.476 598.353 117.586 589.684C116.142 585.352 114.412 581.81 112.466 579.341C110.525 576.878 108.311 575.413 105.903 575.413V576.413ZM90.5517 623.468C90.5517 610.375 92.3214 598.542 95.1689 590C96.5935 585.726 98.2787 582.304 100.126 579.96C101.977 577.611 103.934 576.413 105.903 576.413V575.413C103.496 575.413 101.282 576.878 99.3404 579.341C97.3946 581.81 95.6642 585.352 94.2202 589.684C91.3305 598.353 89.5517 610.298 89.5517 623.468H90.5517ZM105.903 670.523C103.934 670.523 101.977 669.326 100.126 666.977C98.2787 664.633 96.5935 661.21 95.1689 656.937C92.3214 648.394 90.5517 636.561 90.5517 623.468H89.5517C89.5517 636.639 91.3305 648.584 94.2202 657.253C95.6642 661.585 97.3946 665.126 99.3404 667.595C101.282 670.059 103.496 671.523 105.903 671.523V670.523Z" fill="#B9AFC5" fill-opacity="0.7"/>
<path fill-rule="evenodd" clip-rule="evenodd" d="M155.723 540.814L167.045 523.831L279.139 545.343L293.858 570.253V689.14L172.706 671.024L157.987 658.569L155.723 540.814ZM230.452 661.966C250.462 661.966 266.684 639.661 266.684 612.147C266.684 584.632 250.462 562.328 230.452 562.328C210.441 562.328 194.219 584.632 194.219 612.147C194.219 639.661 210.441 661.966 230.452 661.966Z" fill="#C7C5C5"/>
<path d="M155.495 171.52L151.228 174.967V150.839L155.495 145.094V171.52Z" fill="#C7C5C5"/>
<path d="M251.992 67.2415L251.399 28.3031C251.399 28.3031 225.707 28.6942 225.364 19.7912C225.021 10.8882 200.023 2.36065 199.329 11.2794C198.636 20.1981 176.833 3.74954 176.833 3.74954L177.432 43.1022C177.432 43.1022 211.7 61.5363 214.712 55.1719C217.724 48.8074 233.774 54.8817 233.352 61.2067C232.93 67.5317 251.992 67.2415 251.992 67.2415Z" fill="#FFFFFF"/>
</g>
<defs>
<filter id="filter0_d_23_90" x="0" y="0" width="359" height="925.508" filterUnits="userSpaceOnUse" color-interpolation-filters="sRGB">
<feFlood flood-opacity="0" result="BackgroundImageFix"/>
<feColorMatrix in="SourceAlpha" type="matrix" values="0 0 0 0 0 0 0 0 0 0 0 0 0 0 0 0 0 0 127 0" result="hardAlpha"/>
<feOffset dy="4"/>
<feGaussianBlur stdDeviation="2"/>
<feComposite in2="hardAlpha" operator="out"/>
<feColorMatrix type="matrix" values="0 0 0 0 0 0 0 0 0 0 0 0 0 0 0 0 0 0 0.25 0"/>
<feBlend mode="normal" in2="BackgroundImageFix" result="effect1_dropShadow_23_90"/>
<feBlend mode="normal" in="SourceGraphic" in2="effect1_dropShadow_23_90" result="shape"/>
</filter>
</defs>
</svg>
