<svg width="521" height="207" viewBox="0 0 521 207" fill="none" xmlns="http://www.w3.org/2000/svg">
<g filter="url(#filter0_d_23_89)">
<path d="M126.469 187.34V94.925C126.469 68.39 108.68 52.835 82.3828 52.835C65.3672 52.835 49.8985 61.985 45.2578 72.965V8L12 8V187.34H45.2578V112.31C45.2578 94.925 54.539 80.285 71.5547 80.285C87.0234 80.285 93.2109 86.69 93.2109 105.905V187.34L126.469 187.34ZM218.508 137.93C218.508 153.485 205.359 166.295 188.344 166.295C177.516 166.295 172.102 161.72 172.102 151.655C172.102 140.675 178.289 135.185 197.625 131.525C210 128.78 216.188 126.95 219.281 124.205L218.508 137.93ZM251.766 187.34V104.075C251.766 71.135 237.844 51.92 197.625 51.92C156.633 51.92 142.711 71.135 141.938 98.585H172.875C174.422 86.69 180.609 79.37 196.078 79.37C209.227 79.37 217.734 84.86 217.734 93.095C217.734 102.245 213.094 105.905 196.078 107.735C162.047 112.31 138.07 116.885 138.07 154.4C138.07 175.445 151.219 190.085 180.609 190.085C197.625 190.085 210.773 183.68 219.281 174.53C219.281 178.19 220.055 182.765 221.602 186.425H251.766V187.34ZM346.898 139.76C345.352 153.485 335.297 161.72 322.148 161.72C309 161.72 297.398 147.995 297.398 119.63C297.398 91.265 309 81.2 323.695 81.2C336.07 81.2 346.125 89.435 347.672 103.16H381.703C379.383 72.05 356.953 52.835 324.469 52.835C288.891 52.835 264.914 72.965 264.914 120.545C264.914 168.125 288.891 191 322.922 191C353.859 191 377.836 170.87 380.93 139.76H346.898ZM506.227 187.34L464.461 104.075L507 56.495H466.008L424.242 106.82V8H390.984V187.34H425.016V145.25L441.258 127.865L469.102 187.34H506.227Z" fill="#ffffff"/>
<path d="M126.469 188.09H127.219V187.34V94.925C127.219 81.4826 122.708 70.7492 114.798 63.3806C106.896 56.0184 95.6768 52.085 82.3828 52.085C73.7441 52.085 65.4979 54.4067 58.8149 58.1272C53.263 61.2181 48.7515 65.2971 46.0078 69.8551V8V7.25H45.2578L12 7.25H11.25V8V187.34V188.09H12H45.2578H46.0078V187.34V112.31C46.0078 103.741 48.2963 95.9064 52.6218 90.2328C56.932 84.5795 63.2886 81.035 71.5547 81.035C79.2094 81.035 84.35 82.6232 87.6176 86.3815C90.9119 90.1705 92.4609 96.3384 92.4609 105.905V187.34V188.09H93.2109L126.469 188.09ZM217.759 137.888L217.758 137.909V137.93C217.758 153.035 204.981 165.545 188.344 165.545C183.016 165.545 179.171 164.417 176.66 162.188C174.167 159.976 172.852 156.557 172.852 151.655C172.852 146.333 174.337 142.455 178.084 139.428C181.895 136.349 188.119 134.088 197.764 132.262L197.776 132.26L197.787 132.257C203.976 130.884 208.649 129.734 212.168 128.578C214.834 127.701 216.882 126.808 218.441 125.783L217.759 137.888ZM141.188 98.5639L141.166 99.335H141.938H172.875H173.534L173.619 98.6817C174.379 92.8331 176.266 88.2267 179.758 85.0736C183.248 81.9227 188.456 80.12 196.078 80.12C202.56 80.12 207.82 81.475 211.434 83.7769C215.026 86.0654 216.984 89.276 216.984 93.095C216.984 95.3244 216.701 97.1595 216.053 98.6933C215.41 100.214 214.393 101.477 212.859 102.544C209.743 104.712 204.504 106.075 195.998 106.989L195.988 106.99L195.978 106.992C179.004 109.274 164.326 111.572 153.915 118.079C148.682 121.35 144.519 125.685 141.673 131.6C138.831 137.506 137.32 144.945 137.32 154.4C137.32 165.082 140.662 174.226 147.815 180.691C154.958 187.146 165.798 190.835 180.609 190.835C197.019 190.835 209.919 184.942 218.588 176.326C218.794 179.698 219.565 183.533 220.911 186.717L221.104 187.175H221.602H251.016V187.34H251.766H252.516V186.425V185.675V104.075C252.516 87.5185 249.02 74.2496 240.32 65.1274C231.614 55.9986 217.84 51.17 197.625 51.17C177.024 51.17 163.076 55.9977 154.184 64.414C145.286 72.8348 141.578 84.7254 141.188 98.5639ZM346.898 139.01H346.228L346.153 139.676C345.399 146.369 342.578 151.68 338.383 155.32C334.184 158.963 328.564 160.97 322.148 160.97C315.867 160.97 309.9 157.702 305.471 150.903C301.032 144.086 298.148 133.722 298.148 119.63C298.148 105.532 301.034 96.1171 305.627 90.2399C310.196 84.3932 316.533 81.95 323.695 81.95C335.693 81.95 345.423 89.903 346.927 103.244L347.002 103.91H347.672H381.703H382.511L382.451 103.104C381.278 87.3746 375.013 74.6022 364.891 65.7662C354.773 56.9341 340.859 52.085 324.469 52.085C306.541 52.085 291.429 57.1597 280.806 68.3307C270.188 79.4961 264.164 96.6373 264.164 120.545C264.164 144.453 270.188 162.266 280.593 174.11C291.008 185.966 305.731 191.75 322.922 191.75C354.218 191.75 378.542 171.354 381.676 139.834L381.758 139.01H380.93H346.898ZM506.227 188.09H507.442L506.897 187.004L465.36 104.195L507.559 56.9949L508.677 55.745H507H466.008H465.656L465.431 56.016L424.992 104.742V8V7.25H424.242L390.984 7.25H390.234V8V187.34V188.09H390.984H425.016H425.766V187.34V145.546L441.049 129.187L468.422 187.658L468.625 188.09H469.102H506.227Z" stroke="#FFF3B6" stroke-width="1.5"/>
</g>
<defs>
<filter id="filter0_d_23_89" x="0.5" y="0.5" width="519.853" height="206" filterUnits="userSpaceOnUse" color-interpolation-filters="sRGB">
<feFlood flood-opacity="0" result="BackgroundImageFix"/>
<feColorMatrix in="SourceAlpha" type="matrix" values="0 0 0 0 0 0 0 0 0 0 0 0 0 0 0 0 0 0 127 0" result="hardAlpha"/>
<feOffset dy="4"/>
<feGaussianBlur stdDeviation="5"/>
<feComposite in2="hardAlpha" operator="out"/>
<feColorMatrix type="matrix" values="0 0 0 0 0.168627 0 0 0 0 0 0 0 0 0 0.0352941 0 0 0 0.4 0"/>
<feBlend mode="normal" in2="BackgroundImageFix" result="effect1_dropShadow_23_89"/>
<feBlend mode="normal" in="SourceGraphic" in2="effect1_dropShadow_23_89" result="shape"/>
</filter>
</defs>
</svg>
