<svg width="290" height="219" viewBox="0 0 290 219" fill="none" xmlns="http://www.w3.org/2000/svg">
<g filter="url(#filter0_d_34_705)">
<path d="M129 203V112.38C129 86.876 110.685 71.4109 84.1682 71.4109C66.9463 71.4109 51.0911 80.093 46.1706 91.4884V28H12V203H46.1706V129.473C46.1706 112.38 55.7383 98.2713 72.6869 98.2713C88.2687 98.2713 94.8294 104.24 94.8294 123.504V203H129Z" fill="#C11F25"/>
<path d="M129 204H130V203V112.38C130 99.3737 125.321 88.8491 117.194 81.5858C109.08 74.3338 97.6162 70.4109 84.1682 70.4109C75.3947 70.4109 66.9634 72.6211 60.0853 76.2943C54.6199 79.213 50.0903 83.0812 47.1706 87.5447V28V27H46.1706H12H11V28V203V204H12H46.1706H47.1706V203V129.473C47.1706 121.102 49.5142 113.536 53.8553 108.085C58.178 102.657 64.5203 99.2713 72.6869 99.2713C80.3889 99.2713 85.5658 100.754 88.8654 104.341C92.1887 107.953 93.8294 113.934 93.8294 123.504V203V204H94.8294H129Z" stroke="#FFF3B6" stroke-width="2"/>
</g>
<g filter="url(#filter1_d_34_705)">
<mask id="path-3-inside-1_34_705" fill="white">
<path d="M161.719 12.8477H161.171V21.0646H161.719V12.8477Z"/>
</mask>
<path d="M161.719 12.8477H161.171V21.0646H161.719V12.8477Z" fill="#C11F25"/>
<path d="M161.719 12.8477H162.477V12.0897H161.719V12.8477ZM161.171 12.8477V12.0897H160.413V12.8477H161.171ZM161.171 21.0646H160.413V21.8226H161.171V21.0646ZM161.719 21.0646V21.8226H162.477V21.0646H161.719ZM161.719 12.0897H161.171V13.6057H161.719V12.0897ZM160.413 12.8477V21.0646H161.929V12.8477H160.413ZM161.171 21.8226H161.719V20.3066H161.171V21.8226ZM162.477 21.0646V12.8477H160.961V21.0646H162.477Z" fill="#C11F25" mask="url(#path-3-inside-1_34_705)"/>
<mask id="path-5-inside-2_34_705" fill="white">
<path fill-rule="evenodd" clip-rule="evenodd" d="M178.449 119.12H144.716V203.206H178.449V119.12ZM151.847 141.031C152.395 141.031 152.944 137.197 152.944 132.266C152.944 127.336 152.395 123.502 151.847 123.502C151.298 123.502 150.75 127.336 150.75 132.266C150.75 137.197 151.298 141.031 151.847 141.031ZM159.253 132.266C159.253 137.197 158.705 141.031 158.156 141.031C157.608 141.031 157.059 137.197 157.059 132.266C157.059 127.336 157.608 123.502 158.156 123.502C158.705 123.502 159.253 127.336 159.253 132.266ZM170.496 141.031C171.045 141.031 171.594 137.197 171.594 132.266C171.594 127.336 171.045 123.502 170.496 123.502C169.948 123.502 169.399 127.336 169.399 132.266C169.399 137.197 169.948 141.031 170.496 141.031ZM165.562 132.266C165.562 137.197 165.014 141.031 164.465 141.031C163.917 141.031 163.368 137.197 163.368 132.266C163.368 127.336 163.917 123.502 164.465 123.502C165.014 123.502 165.562 127.336 165.562 132.266Z"/>
</mask>
<path fill-rule="evenodd" clip-rule="evenodd" d="M178.449 119.12H144.716V203.206H178.449V119.12ZM151.847 141.031C152.395 141.031 152.944 137.197 152.944 132.266C152.944 127.336 152.395 123.502 151.847 123.502C151.298 123.502 150.75 127.336 150.75 132.266C150.75 137.197 151.298 141.031 151.847 141.031ZM159.253 132.266C159.253 137.197 158.705 141.031 158.156 141.031C157.608 141.031 157.059 137.197 157.059 132.266C157.059 127.336 157.608 123.502 158.156 123.502C158.705 123.502 159.253 127.336 159.253 132.266ZM170.496 141.031C171.045 141.031 171.594 137.197 171.594 132.266C171.594 127.336 171.045 123.502 170.496 123.502C169.948 123.502 169.399 127.336 169.399 132.266C169.399 137.197 169.948 141.031 170.496 141.031ZM165.562 132.266C165.562 137.197 165.014 141.031 164.465 141.031C163.917 141.031 163.368 137.197 163.368 132.266C163.368 127.336 163.917 123.502 164.465 123.502C165.014 123.502 165.562 127.336 165.562 132.266Z" fill="#C11F25"/>
<path d="M144.716 119.12V118.362H143.958V119.12H144.716ZM178.449 119.12H179.207V118.362H178.449V119.12ZM144.716 203.206H143.958V203.964H144.716V203.206ZM178.449 203.206V203.964H179.207V203.206H178.449ZM144.716 119.878H178.449V118.362H144.716V119.878ZM145.474 203.206V119.12H143.958V203.206H145.474ZM178.449 202.448H144.716V203.964H178.449V202.448ZM177.691 119.12V203.206H179.207V119.12H177.691ZM152.186 132.266C152.186 134.707 152.05 136.865 151.849 138.399C151.748 139.172 151.635 139.76 151.522 140.141C151.465 140.337 151.419 140.437 151.398 140.472C151.388 140.49 151.403 140.457 151.456 140.412C151.512 140.363 151.646 140.273 151.847 140.273V141.789C152.116 141.789 152.318 141.669 152.443 141.562C152.564 141.459 152.647 141.338 152.704 141.242C152.819 141.048 152.906 140.81 152.977 140.569C153.122 140.077 153.248 139.398 153.353 138.596C153.563 136.981 153.702 134.756 153.702 132.266H152.186ZM151.847 124.26C151.646 124.26 151.512 124.17 151.456 124.121C151.403 124.076 151.388 124.043 151.398 124.061C151.419 124.096 151.465 124.196 151.522 124.392C151.635 124.773 151.748 125.361 151.849 126.133C152.05 127.668 152.186 129.826 152.186 132.266H153.702C153.702 129.777 153.563 127.552 153.353 125.937C153.248 125.134 153.122 124.456 152.977 123.964C152.906 123.723 152.819 123.485 152.704 123.291C152.647 123.195 152.564 123.074 152.443 122.971C152.318 122.864 152.116 122.744 151.847 122.744V124.26ZM151.508 132.266C151.508 129.826 151.644 127.668 151.844 126.133C151.945 125.361 152.059 124.773 152.171 124.392C152.229 124.196 152.274 124.096 152.295 124.061C152.306 124.043 152.29 124.076 152.237 124.121C152.181 124.17 152.047 124.26 151.847 124.26V122.744C151.578 122.744 151.375 122.864 151.251 122.971C151.13 123.074 151.046 123.195 150.989 123.291C150.875 123.485 150.788 123.723 150.717 123.964C150.572 124.456 150.446 125.134 150.341 125.937C150.13 127.552 149.992 129.777 149.992 132.266H151.508ZM151.847 140.273C152.047 140.273 152.181 140.363 152.237 140.412C152.29 140.457 152.306 140.49 152.295 140.472C152.274 140.437 152.229 140.337 152.171 140.141C152.059 139.76 151.945 139.172 151.844 138.399C151.644 136.865 151.508 134.707 151.508 132.266H149.992C149.992 134.756 150.13 136.981 150.341 138.596C150.446 139.398 150.572 140.077 150.717 140.569C150.788 140.81 150.875 141.048 150.989 141.242C151.046 141.338 151.13 141.459 151.251 141.562C151.375 141.669 151.578 141.789 151.847 141.789V140.273ZM158.156 141.789C158.425 141.789 158.628 141.669 158.752 141.562C158.873 141.459 158.957 141.338 159.014 141.242C159.128 141.048 159.215 140.81 159.286 140.569C159.431 140.077 159.557 139.398 159.662 138.596C159.873 136.981 160.011 134.756 160.011 132.266H158.495C158.495 134.707 158.359 136.865 158.159 138.399C158.058 139.172 157.944 139.76 157.832 140.141C157.774 140.337 157.728 140.437 157.708 140.472C157.697 140.49 157.713 140.457 157.765 140.412C157.821 140.363 157.956 140.273 158.156 140.273V141.789ZM156.301 132.266C156.301 134.756 156.439 136.981 156.65 138.596C156.755 139.398 156.881 140.077 157.026 140.569C157.097 140.81 157.184 141.048 157.299 141.242C157.355 141.338 157.439 141.459 157.56 141.562C157.684 141.669 157.887 141.789 158.156 141.789V140.273C158.356 140.273 158.491 140.363 158.547 140.412C158.599 140.457 158.615 140.49 158.604 140.472C158.584 140.437 158.538 140.337 158.48 140.141C158.368 139.76 158.254 139.172 158.154 138.399C157.953 136.865 157.817 134.707 157.817 132.266H156.301ZM158.156 122.744C157.887 122.744 157.684 122.864 157.56 122.971C157.439 123.074 157.355 123.195 157.299 123.291C157.184 123.485 157.097 123.723 157.026 123.964C156.881 124.456 156.755 125.135 156.65 125.937C156.439 127.552 156.301 129.777 156.301 132.266H157.817C157.817 129.826 157.953 127.668 158.154 126.133C158.254 125.361 158.368 124.773 158.48 124.392C158.538 124.196 158.584 124.096 158.604 124.061C158.615 124.043 158.599 124.076 158.547 124.121C158.491 124.17 158.356 124.26 158.156 124.26V122.744ZM160.011 132.266C160.011 129.777 159.873 127.552 159.662 125.937C159.557 125.135 159.431 124.456 159.286 123.964C159.215 123.723 159.128 123.485 159.014 123.291C158.957 123.195 158.873 123.074 158.752 122.971C158.628 122.864 158.425 122.744 158.156 122.744V124.26C157.956 124.26 157.821 124.17 157.765 124.121C157.713 124.076 157.697 124.043 157.708 124.061C157.728 124.096 157.774 124.196 157.832 124.392C157.944 124.773 158.058 125.361 158.159 126.133C158.359 127.668 158.495 129.826 158.495 132.266H160.011ZM170.836 132.266C170.836 134.707 170.7 136.865 170.499 138.399C170.398 139.172 170.284 139.76 170.172 140.141C170.114 140.337 170.069 140.437 170.048 140.472C170.038 140.49 170.053 140.457 170.106 140.412C170.162 140.363 170.296 140.273 170.496 140.273V141.789C170.765 141.789 170.968 141.669 171.093 141.562C171.213 141.459 171.297 141.338 171.354 141.242C171.468 141.048 171.556 140.81 171.626 140.569C171.771 140.077 171.897 139.398 172.002 138.596C172.213 136.981 172.352 134.756 172.352 132.266H170.836ZM170.496 124.26C170.296 124.26 170.162 124.17 170.106 124.121C170.053 124.076 170.038 124.043 170.048 124.061C170.069 124.096 170.114 124.196 170.172 124.392C170.284 124.773 170.398 125.361 170.499 126.133C170.7 127.668 170.836 129.826 170.836 132.266H172.352C172.352 129.777 172.213 127.552 172.002 125.937C171.897 125.135 171.771 124.456 171.626 123.964C171.556 123.723 171.468 123.485 171.354 123.291C171.297 123.195 171.213 123.074 171.093 122.971C170.968 122.864 170.765 122.744 170.496 122.744V124.26ZM170.157 132.266C170.157 129.826 170.293 127.668 170.494 126.133C170.595 125.361 170.709 124.773 170.821 124.392C170.879 124.196 170.924 124.096 170.945 124.061C170.955 124.043 170.94 124.076 170.887 124.121C170.831 124.17 170.697 124.26 170.496 124.26V122.744C170.228 122.744 170.025 122.864 169.9 122.971C169.78 123.074 169.696 123.195 169.639 123.291C169.525 123.485 169.437 123.723 169.367 123.964C169.222 124.456 169.096 125.135 168.991 125.937C168.78 127.552 168.642 129.777 168.642 132.266H170.157ZM170.496 140.273C170.697 140.273 170.831 140.363 170.887 140.412C170.94 140.457 170.955 140.49 170.945 140.472C170.924 140.437 170.879 140.337 170.821 140.141C170.709 139.76 170.595 139.172 170.494 138.399C170.293 136.865 170.157 134.707 170.157 132.266H168.642C168.642 134.756 168.78 136.981 168.991 138.596C169.096 139.398 169.222 140.077 169.367 140.569C169.437 140.81 169.525 141.048 169.639 141.242C169.696 141.338 169.78 141.459 169.9 141.562C170.025 141.669 170.228 141.789 170.496 141.789V140.273ZM164.465 141.789C164.734 141.789 164.937 141.669 165.061 141.562C165.182 141.459 165.266 141.338 165.323 141.242C165.437 141.048 165.524 140.81 165.595 140.569C165.74 140.077 165.866 139.398 165.971 138.596C166.182 136.981 166.32 134.756 166.32 132.266H164.804C164.804 134.707 164.668 136.865 164.468 138.399C164.367 139.172 164.253 139.76 164.141 140.141C164.083 140.337 164.038 140.437 164.017 140.472C164.006 140.49 164.022 140.457 164.074 140.412C164.131 140.363 164.265 140.273 164.465 140.273V141.789ZM162.61 132.266C162.61 134.756 162.748 136.981 162.959 138.596C163.064 139.398 163.19 140.077 163.335 140.569C163.406 140.81 163.493 141.048 163.608 141.242C163.665 141.338 163.748 141.459 163.869 141.562C163.993 141.669 164.196 141.789 164.465 141.789V140.273C164.666 140.273 164.8 140.363 164.856 140.412C164.908 140.457 164.924 140.49 164.914 140.472C164.893 140.437 164.847 140.337 164.789 140.141C164.677 139.76 164.563 139.172 164.463 138.399C164.262 136.865 164.126 134.707 164.126 132.266H162.61ZM164.465 122.744C164.196 122.744 163.993 122.864 163.869 122.971C163.748 123.074 163.665 123.195 163.608 123.291C163.493 123.485 163.406 123.723 163.335 123.964C163.19 124.456 163.064 125.135 162.959 125.937C162.748 127.552 162.61 129.777 162.61 132.266H164.126C164.126 129.826 164.262 127.668 164.463 126.133C164.563 125.361 164.677 124.773 164.789 124.392C164.847 124.196 164.893 124.096 164.914 124.061C164.924 124.043 164.908 124.076 164.856 124.121C164.8 124.17 164.666 124.26 164.465 124.26V122.744ZM166.32 132.266C166.32 129.777 166.182 127.552 165.971 125.937C165.866 125.135 165.74 124.456 165.595 123.964C165.524 123.723 165.437 123.485 165.323 123.291C165.266 123.195 165.182 123.074 165.061 122.971C164.937 122.864 164.734 122.744 164.465 122.744V124.26C164.265 124.26 164.131 124.17 164.074 124.121C164.022 124.076 164.006 124.043 164.017 124.061C164.038 124.096 164.083 124.196 164.141 124.392C164.253 124.773 164.367 125.361 164.468 126.133C164.668 127.668 164.804 129.826 164.804 132.266H166.32Z" fill="#C11F25" mask="url(#path-5-inside-2_34_705)"/>
<path d="M141.419 118.62L139.344 115.511H183.874L182.007 118.62H141.419Z" fill="#C11F25" stroke="#C11F25"/>
<path d="M143.79 85.7039C143.79 85.9192 143.737 86.0112 143.696 86.052C143.655 86.0929 143.563 86.1466 143.347 86.1466C143.213 86.1466 143.108 86.084 143.025 85.9805C142.933 85.865 142.903 85.7409 142.903 85.7039C142.903 85.4885 142.956 85.3966 142.997 85.3558C143.038 85.3149 143.131 85.2612 143.347 85.2612C143.563 85.2612 143.655 85.3149 143.696 85.3558C143.737 85.3966 143.79 85.4885 143.79 85.7039Z" fill="#C11F25" stroke="#C11F25" stroke-width="0.757998"/>
<path d="M180.264 85.7039C180.264 85.9192 180.21 86.0112 180.169 86.052C180.128 86.0929 180.036 86.1466 179.82 86.1466C179.686 86.1466 179.582 86.084 179.499 85.9805C179.406 85.865 179.376 85.7409 179.376 85.7039C179.376 85.4885 179.43 85.3966 179.471 85.3558C179.512 85.3149 179.604 85.2612 179.82 85.2612C180.036 85.2612 180.128 85.3149 180.169 85.3558C180.21 85.3966 180.264 85.4885 180.264 85.7039Z" fill="#C11F25" stroke="#C11F25" stroke-width="0.757998"/>
<path d="M145.373 80.8213L161.449 22.9189L177.788 80.8213H145.373Z" fill="#C11F25" stroke="#C11F25"/>
<path d="M160.178 26.7108V19.2519H162.985V26.7108H160.178Z" fill="#C11F25" stroke="#C11F25" stroke-width="0.757998"/>
<path d="M177.734 114.631V94.5733H181.638V114.631H177.734Z" fill="#C11F25" stroke="#C11F25" stroke-width="0.757998"/>
<path d="M141.531 114.631V94.5733H145.436V114.631H141.531Z" fill="#C11F25" stroke="#C11F25" stroke-width="0.757998"/>
<path d="M161.55 12.4684V6.379H171.762V12.4684H161.55Z" fill="#C11F25" stroke="#C11F25" stroke-width="0.757998"/>
<path d="M145.33 94.3635H141.364L143.347 86.443L145.33 94.3635Z" fill="#C11F25" stroke="#C11F25" stroke-width="0.757998"/>
<path d="M181.806 94.3635H177.841L179.823 86.4429L181.806 94.3635Z" fill="#C11F25" stroke="#C11F25" stroke-width="0.757998"/>
<mask id="path-17-inside-3_34_705" fill="white">
<path fill-rule="evenodd" clip-rule="evenodd" d="M144.716 81.3214H178.449V115.011H144.716V81.3214ZM175.71 98.3033C175.71 105.972 169.402 112.272 161.723 112.272C154.044 112.272 147.736 106.246 147.736 98.3033C147.736 90.6342 154.044 84.3346 161.723 84.3346C169.402 84.3346 175.71 90.6342 175.71 98.3033Z"/>
</mask>
<path fill-rule="evenodd" clip-rule="evenodd" d="M144.716 81.3214H178.449V115.011H144.716V81.3214ZM175.71 98.3033C175.71 105.972 169.402 112.272 161.723 112.272C154.044 112.272 147.736 106.246 147.736 98.3033C147.736 90.6342 154.044 84.3346 161.723 84.3346C169.402 84.3346 175.71 90.6342 175.71 98.3033Z" fill="#C11F25"/>
<path d="M178.449 81.3214H179.207V80.5634H178.449V81.3214ZM144.716 81.3214V80.5634H143.958V81.3214H144.716ZM178.449 115.011V115.769H179.207V115.011H178.449ZM144.716 115.011H143.958V115.769H144.716V115.011ZM178.449 80.5634H144.716V82.0793H178.449V80.5634ZM179.207 115.011V81.3214H177.691V115.011H179.207ZM144.716 115.769H178.449V114.253H144.716V115.769ZM143.958 81.3214V115.011H145.474V81.3214H143.958ZM161.723 113.03C169.82 113.03 176.468 106.392 176.468 98.3033H174.952C174.952 105.553 168.984 111.514 161.723 111.514V113.03ZM146.978 98.3033C146.978 106.676 153.636 113.03 161.723 113.03V111.514C154.452 111.514 148.494 105.817 148.494 98.3033H146.978ZM161.723 83.5766C153.626 83.5766 146.978 90.2146 146.978 98.3033H148.494C148.494 91.0537 154.461 85.0926 161.723 85.0926V83.5766ZM176.468 98.3033C176.468 90.2146 169.82 83.5766 161.723 83.5766V85.0926C168.984 85.0926 174.952 91.0537 174.952 98.3033H176.468Z" fill="#C11F25" mask="url(#path-17-inside-3_34_705)"/>
<path d="M162.44 98.5769C162.44 98.9015 162.333 99.1425 162.174 99.3016C162.014 99.4607 161.773 99.5674 161.447 99.5674C161.353 99.5674 161.177 99.4809 160.996 99.2395C160.823 99.0087 160.729 98.7444 160.729 98.5769C160.729 98.355 160.787 98.087 160.912 97.8878C161.026 97.7051 161.188 97.5864 161.447 97.5864C161.773 97.5864 162.014 97.6931 162.174 97.8522C162.333 98.0112 162.44 98.2523 162.44 98.5769Z" fill="#C11F25" stroke="#C11F25" stroke-width="0.757998"/>
<path d="M161.447 98.5766L155.962 102.411L161.447 98.5766Z" fill="#C11F25"/>
<path d="M161.447 98.5766L155.962 102.411" stroke="#C11F25" stroke-width="0.757998"/>
<path d="M161.448 98.5766L168.03 104.328L161.448 98.5766Z" fill="#C11F25"/>
<path d="M161.448 98.5766L168.03 104.328" stroke="#C11F25" stroke-width="0.757998"/>
</g>
<g filter="url(#filter2_d_34_705)">
<path d="M229.354 203V28H195V203H229.354ZM278 203V28H243.646V203H278Z" fill="#C11F25"/>
<path d="M229.354 204H230.354V203V28V27H229.354H195H194V28V203V204H195H229.354ZM278 204H279V203V28V27H278H243.646H242.646V28V203V204H243.646H278Z" stroke="#FFF3B6" stroke-width="2"/>
</g>
<defs>
<filter id="filter0_d_34_705" x="0" y="20" width="141" height="199" filterUnits="userSpaceOnUse" color-interpolation-filters="sRGB">
<feFlood flood-opacity="0" result="BackgroundImageFix"/>
<feColorMatrix in="SourceAlpha" type="matrix" values="0 0 0 0 0 0 0 0 0 0 0 0 0 0 0 0 0 0 127 0" result="hardAlpha"/>
<feOffset dy="4"/>
<feGaussianBlur stdDeviation="5"/>
<feComposite in2="hardAlpha" operator="out"/>
<feColorMatrix type="matrix" values="0 0 0 0 0.168627 0 0 0 0 0 0 0 0 0 0.0352941 0 0 0 0.4 0"/>
<feBlend mode="normal" in2="BackgroundImageFix" result="effect1_dropShadow_34_705"/>
<feBlend mode="normal" in="SourceGraphic" in2="effect1_dropShadow_34_705" result="shape"/>
</filter>
<filter id="filter1_d_34_705" x="128.409" y="0" width="66.3487" height="217.206" filterUnits="userSpaceOnUse" color-interpolation-filters="sRGB">
<feFlood flood-opacity="0" result="BackgroundImageFix"/>
<feColorMatrix in="SourceAlpha" type="matrix" values="0 0 0 0 0 0 0 0 0 0 0 0 0 0 0 0 0 0 127 0" result="hardAlpha"/>
<feOffset dy="4"/>
<feGaussianBlur stdDeviation="5"/>
<feComposite in2="hardAlpha" operator="out"/>
<feColorMatrix type="matrix" values="0 0 0 0 0.168627 0 0 0 0 0 0 0 0 0 0.0352941 0 0 0 0.4 0"/>
<feBlend mode="normal" in2="BackgroundImageFix" result="effect1_dropShadow_34_705"/>
<feBlend mode="normal" in="SourceGraphic" in2="effect1_dropShadow_34_705" result="shape"/>
</filter>
<filter id="filter2_d_34_705" x="183" y="20" width="107" height="199" filterUnits="userSpaceOnUse" color-interpolation-filters="sRGB">
<feFlood flood-opacity="0" result="BackgroundImageFix"/>
<feColorMatrix in="SourceAlpha" type="matrix" values="0 0 0 0 0 0 0 0 0 0 0 0 0 0 0 0 0 0 127 0" result="hardAlpha"/>
<feOffset dy="4"/>
<feGaussianBlur stdDeviation="5"/>
<feComposite in2="hardAlpha" operator="out"/>
<feColorMatrix type="matrix" values="0 0 0 0 0.168627 0 0 0 0 0 0 0 0 0 0.0352941 0 0 0 0.4 0"/>
<feBlend mode="normal" in2="BackgroundImageFix" result="effect1_dropShadow_34_705"/>
<feBlend mode="normal" in="SourceGraphic" in2="effect1_dropShadow_34_705" result="shape"/>
</filter>
</defs>
</svg>
