<svg width="290" height="228" viewBox="0 0 290 228" fill="none" xmlns="http://www.w3.org/2000/svg">
<g filter="url(#filter0_d_1_29)">
<path d="M129 197V106.38C129 80.876 110.685 65.4109 84.1682 65.4109C66.9463 65.4109 51.0911 74.093 46.1706 85.4884V22H12V197H46.1706V123.473C46.1706 106.38 55.7383 92.2713 72.6869 92.2713C88.2687 92.2713 94.8294 98.2403 94.8294 117.504V197H129Z" fill="#C11F25"/>
<path d="M129 198H130V197V106.38C130 93.3737 125.321 82.8491 117.194 75.5858C109.08 68.3338 97.6162 64.4109 84.1682 64.4109C75.3947 64.4109 66.9634 66.6211 60.0853 70.2943C54.6199 73.213 50.0903 77.0812 47.1706 81.5447V22V21H46.1706H12H11V22V197V198H12H46.1706H47.1706V197V123.473C47.1706 115.102 49.5142 107.536 53.8553 102.085C58.178 96.6572 64.5203 93.2713 72.6869 93.2713C80.3889 93.2713 85.5658 94.754 88.8654 98.3408C92.1887 101.953 93.8294 107.934 93.8294 117.504V197V198H94.8294H129Z" stroke="#FFF3B6" stroke-width="2"/>
</g>
<path d="M161.719 6.84769H161.171V15.0646H161.719V6.84769Z" fill="#C11F25"/>
<path fill-rule="evenodd" clip-rule="evenodd" d="M178.449 113.12H144.716V197.206H178.449V113.12ZM151.847 135.031C152.395 135.031 152.944 131.197 152.944 126.266C152.944 121.336 152.395 117.502 151.847 117.502C151.298 117.502 150.75 121.336 150.75 126.266C150.75 131.197 151.298 135.031 151.847 135.031ZM159.253 126.266C159.253 131.197 158.705 135.031 158.156 135.031C157.608 135.031 157.059 131.197 157.059 126.266C157.059 121.336 157.608 117.502 158.156 117.502C158.705 117.502 159.253 121.336 159.253 126.266ZM170.496 135.031C171.045 135.031 171.594 131.197 171.594 126.266C171.594 121.336 171.045 117.502 170.496 117.502C169.948 117.502 169.399 121.336 169.399 126.266C169.399 131.197 169.948 135.031 170.496 135.031ZM165.562 126.266C165.562 131.197 165.014 135.031 164.465 135.031C163.917 135.031 163.368 131.197 163.368 126.266C163.368 121.336 163.917 117.502 164.465 117.502C165.014 117.502 165.562 121.336 165.562 126.266Z" fill="#C11F25"/>
<path d="M138.409 109.011H184.758L182.29 113.12H141.152L138.409 109.011Z" fill="#C11F25"/>
<path d="M143.347 80.5256C143.895 80.5256 144.169 80.2517 144.169 79.7039C144.169 79.1561 143.895 78.8822 143.347 78.8822C142.798 78.8822 142.524 79.1561 142.524 79.7039C142.524 79.9778 142.798 80.5256 143.347 80.5256Z" fill="#C11F25"/>
<path d="M179.82 80.5256C180.368 80.5256 180.643 80.2517 180.643 79.7039C180.643 79.1561 180.368 78.8822 179.82 78.8822C179.271 78.8822 178.997 79.1561 178.997 79.7039C178.997 79.9778 179.271 80.5256 179.82 80.5256Z" fill="#C11F25"/>
<path d="M161.445 15.0639L178.449 75.3212H144.716L161.445 15.0639Z" fill="#C11F25"/>
<path d="M163.364 12.8729H159.799V21.0898H163.364V12.8729Z" fill="#C11F25"/>
<path d="M182.017 88.1944H177.355V109.011H182.017V88.1944Z" fill="#C11F25"/>
<path d="M145.815 88.1944H141.152V109.011H145.815V88.1944Z" fill="#C11F25"/>
<path d="M172.141 0H161.171V6.84769L172.141 6.84742V0Z" fill="#C11F25"/>
<path d="M143.347 78.8822L140.879 88.7425H145.815L143.347 78.8822Z" fill="#C11F25"/>
<path d="M179.823 78.8822L177.355 88.7425H182.292L179.823 78.8822Z" fill="#C11F25"/>
<path fill-rule="evenodd" clip-rule="evenodd" d="M144.716 75.3212H178.449V109.011H144.716V75.3212ZM175.71 92.3033C175.71 99.9724 169.402 106.272 161.723 106.272C154.044 106.272 147.736 100.246 147.736 92.3033C147.736 84.6342 154.044 78.3345 161.723 78.3345C169.402 78.3345 175.71 84.6342 175.71 92.3033Z" fill="#C11F25"/>
<path d="M161.447 93.9464C162.27 93.9464 162.819 93.3986 162.819 92.5769C162.819 91.7552 162.27 91.2074 161.447 91.2074C160.625 91.2074 160.35 92.0291 160.35 92.5769C160.35 93.1247 160.899 93.9464 161.447 93.9464Z" fill="#C11F25"/>
<path d="M161.447 92.5766L155.962 96.4111Z" fill="#C11F25"/>
<path d="M161.448 92.5766L168.03 98.3284Z" fill="#C11F25"/>
<path d="M161.719 6.84769H161.171V15.0646H161.719V6.84769Z" fill="#C11F25"/>
<path fill-rule="evenodd" clip-rule="evenodd" d="M178.449 113.12H144.716V197.206H178.449V113.12ZM151.847 135.031C152.395 135.031 152.944 131.197 152.944 126.266C152.944 121.336 152.395 117.502 151.847 117.502C151.298 117.502 150.75 121.336 150.75 126.266C150.75 131.197 151.298 135.031 151.847 135.031ZM159.253 126.266C159.253 131.197 158.705 135.031 158.156 135.031C157.608 135.031 157.059 131.197 157.059 126.266C157.059 121.336 157.608 117.502 158.156 117.502C158.705 117.502 159.253 121.336 159.253 126.266ZM170.496 135.031C171.045 135.031 171.594 131.197 171.594 126.266C171.594 121.336 171.045 117.502 170.496 117.502C169.948 117.502 169.399 121.336 169.399 126.266C169.399 131.197 169.948 135.031 170.496 135.031ZM165.562 126.266C165.562 131.197 165.014 135.031 164.465 135.031C163.917 135.031 163.368 131.197 163.368 126.266C163.368 121.336 163.917 117.502 164.465 117.502C165.014 117.502 165.562 121.336 165.562 126.266Z" fill="#C11F25"/>
<path d="M138.409 109.011H184.758L182.29 113.12H141.152L138.409 109.011Z" fill="#C11F25"/>
<path d="M143.347 80.5256C143.895 80.5256 144.169 80.2517 144.169 79.7039C144.169 79.1561 143.895 78.8822 143.347 78.8822C142.798 78.8822 142.524 79.1561 142.524 79.7039C142.524 79.9778 142.798 80.5256 143.347 80.5256Z" fill="#C11F25"/>
<path d="M179.82 80.5256C180.368 80.5256 180.643 80.2517 180.643 79.7039C180.643 79.1561 180.368 78.8822 179.82 78.8822C179.271 78.8822 178.997 79.1561 178.997 79.7039C178.997 79.9778 179.271 80.5256 179.82 80.5256Z" fill="#C11F25"/>
<path d="M161.445 15.0639L178.449 75.3212H144.716L161.445 15.0639Z" fill="#C11F25"/>
<path d="M163.364 12.8729H159.799V21.0898H163.364V12.8729Z" fill="#C11F25"/>
<path d="M182.017 88.1944H177.355V109.011H182.017V88.1944Z" fill="#C11F25"/>
<path d="M145.815 88.1944H141.152V109.011H145.815V88.1944Z" fill="#C11F25"/>
<path d="M172.141 0H161.171V6.84769L172.141 6.84742V0Z" fill="#C11F25"/>
<path d="M143.347 78.8822L140.879 88.7425H145.815L143.347 78.8822Z" fill="#C11F25"/>
<path d="M179.823 78.8822L177.355 88.7425H182.292L179.823 78.8822Z" fill="#C11F25"/>
<path fill-rule="evenodd" clip-rule="evenodd" d="M144.716 75.3212H178.449V109.011H144.716V75.3212ZM175.71 92.3033C175.71 99.9724 169.402 106.272 161.723 106.272C154.044 106.272 147.736 100.246 147.736 92.3033C147.736 84.6342 154.044 78.3345 161.723 78.3345C169.402 78.3345 175.71 84.6342 175.71 92.3033Z" fill="#C11F25"/>
<path d="M161.447 93.9464C162.27 93.9464 162.819 93.3986 162.819 92.5769C162.819 91.7552 162.27 91.2074 161.447 91.2074C160.625 91.2074 160.35 92.0291 160.35 92.5769C160.35 93.1247 160.899 93.9464 161.447 93.9464Z" fill="#C11F25"/>
<path d="M161.447 92.5766L155.962 96.4111Z" fill="#C11F25"/>
<path d="M161.448 92.5766L168.03 98.3284Z" fill="#C11F25"/>
<g filter="url(#filter1_d_1_29)">
<path d="M229.354 197V22H195V197H229.354ZM278 197V22H243.646V197H278Z" fill="#C11F25"/>
<path d="M229.354 198H230.354V197V22V21H229.354H195H194V22V197V198H195H229.354ZM278 198H279V197V22V21H278H243.646H242.646V22V197V198H243.646H278Z" stroke="#FFF3B6" stroke-width="2"/>
</g>
<defs>
<filter id="filter0_d_1_29" x="0" y="14" width="141" height="199" filterUnits="userSpaceOnUse" color-interpolation-filters="sRGB">
<feFlood flood-opacity="0" result="BackgroundImageFix"/>
<feColorMatrix in="SourceAlpha" type="matrix" values="0 0 0 0 0 0 0 0 0 0 0 0 0 0 0 0 0 0 127 0" result="hardAlpha"/>
<feOffset dy="4"/>
<feGaussianBlur stdDeviation="5"/>
<feComposite in2="hardAlpha" operator="out"/>
<feColorMatrix type="matrix" values="0 0 0 0 0.168627 0 0 0 0 0 0 0 0 0 0.0352941 0 0 0 0.4 0"/>
<feBlend mode="normal" in2="BackgroundImageFix" result="effect1_dropShadow_1_29"/>
<feBlend mode="normal" in="SourceGraphic" in2="effect1_dropShadow_1_29" result="shape"/>
</filter>
<filter id="filter1_d_1_29" x="183" y="14" width="107" height="199" filterUnits="userSpaceOnUse" color-interpolation-filters="sRGB">
<feFlood flood-opacity="0" result="BackgroundImageFix"/>
<feColorMatrix in="SourceAlpha" type="matrix" values="0 0 0 0 0 0 0 0 0 0 0 0 0 0 0 0 0 0 127 0" result="hardAlpha"/>
<feOffset dy="4"/>
<feGaussianBlur stdDeviation="5"/>
<feComposite in2="hardAlpha" operator="out"/>
<feColorMatrix type="matrix" values="0 0 0 0 0.168627 0 0 0 0 0 0 0 0 0 0.0352941 0 0 0 0.4 0"/>
<feBlend mode="normal" in2="BackgroundImageFix" result="effect1_dropShadow_1_29"/>
<feBlend mode="normal" in="SourceGraphic" in2="effect1_dropShadow_1_29" result="shape"/>
</filter>
</defs>
</svg>
