<svg width="609" height="109" viewBox="0 0 609 109" fill="none" xmlns="http://www.w3.org/2000/svg">
<path d="M10.8934 9.5L12.3935 19L21.8935 18.9065L12.9702 21.0783V23L17.8975 34L10.8934 24.5L5.47021 34L8.78092 23V21.0783L0.970215 18.9065L9.39343 19L10.8934 9.5Z" fill="#D9D9D9"/>
<path d="M590.706 3.21573L589.935 12.8025L599.192 14.9409L589.935 14.9409L589.557 16.8261L591.765 28.6752L587.186 17.7969L579.685 25.759L585.485 15.843L585.936 13.975L578.853 10.031L587.019 12.0985L590.706 3.21573Z" fill="#D9D9D9"/>
<path d="M589.28 80.0889L593.224 88.8608L602.365 86.2741L594.254 90.7346L594.832 92.5687L602.477 101.887L593.222 94.5617L590.486 105.153L590.79 93.6696L590.285 91.8154L582.178 91.7727L590.329 89.6492L589.28 80.0889Z" fill="#D9D9D9"/>
<path d="M26.162 7L26.8072 11.2653L30.8936 11.2233L27.0553 12.1984V13.0612L29.1747 18L26.162 13.7347L23.8292 18L25.2533 13.0612V12.1984L21.8936 11.2233L25.5167 11.2653L26.162 7Z" fill="#D9D9D9"/>
<path d="M77.34 82.6864L78.8603 88.2749L85.0264 87.6261L79.3057 89.4869L79.4648 90.6313L83.2976 96.903L78.2018 91.6581L75.2245 97.6785L76.7433 90.8927L76.6328 89.7433L71.434 88.9318L76.9113 88.4621L77.34 82.6864Z" fill="#D9D9D9"/>
</svg>
