<svg width="601" height="43" viewBox="0 0 601 43" fill="none" xmlns="http://www.w3.org/2000/svg">
<path d="M10 9.50012L11.5 19.0001L21 18.9067L12.0768 21.0784V23.0001L17.004 34.0001L10 24.5001L4.57678 34.0001L7.88749 23.0001V21.0784L0.0767822 18.9067L8.5 19.0001L10 9.50012Z" fill="#D9D9D9"/>
<path d="M589.813 3.21582L589.042 12.8025L598.298 14.941L589.042 14.941L588.664 16.8262L590.872 28.6753L586.293 17.797L578.792 25.7591L584.591 15.8431L585.042 13.9751L577.959 10.0311L586.125 12.0986L589.813 3.21582Z" fill="#D9D9D9"/>
<path d="M23.2169 30.0001L24.0056 35.0409L29 34.9913L24.3088 36.1437V37.1634L26.8992 43.0001L23.2169 37.9593L20.3658 43.0001L22.1063 37.1634V36.1437L18 34.9913L22.4283 35.0409L23.2169 30.0001Z" fill="#D9D9D9"/>
<path d="M25.2684 7.00012L25.9136 11.2654L30 11.2235L26.1617 12.1985V13.0613L28.2812 18.0001L25.2684 13.7348L22.9356 18.0001L24.3597 13.0613V12.1985L21 11.2235L24.6232 11.2654L25.2684 7.00012Z" fill="#D9D9D9"/>
</svg>
