<svg width="296" height="296" viewBox="0 0 296 296" fill="none" xmlns="http://www.w3.org/2000/svg">
<g filter="url(#filter0_f_117_2294)">
<path d="M222.935 252.711L223.936 253.829L226.861 251.211H222.935V252.711ZM217.732 257.107L218.667 258.281L217.732 257.107ZM206.543 265V266.5H206.97L207.334 266.275L206.543 265ZM89.4568 265L88.6659 266.275L89.0292 266.5H89.4568V265ZM78.2674 257.107L77.3327 258.281H77.3327L78.2674 257.107ZM73.0643 252.711V251.211H69.1385L72.064 253.829L73.0643 252.711ZM246.035 224.871L247.316 225.651L248.705 223.371H246.035V224.871ZM237.51 237.161V238.661H238.238L238.689 238.088L237.51 237.161ZM58.4891 237.161L57.3099 238.088L57.7603 238.661H58.4891V237.161ZM49.9647 224.871V223.371H47.2944L48.6837 225.651L49.9647 224.871ZM258.478 197.784L259.904 198.249L260.545 196.284H258.478V197.784ZM253.771 210.074V211.574H254.748L255.143 210.681L253.771 210.074ZM42.2283 210.074L40.8566 210.681L41.2518 211.574H42.2283V210.074ZM37.5213 197.784V196.284H35.4545L36.0952 198.249L37.5213 197.784ZM264.108 171.952L265.598 172.124L265.791 170.452H264.108V171.952ZM262.104 184.241V185.741H263.32L263.572 184.552L262.104 184.241ZM33.8953 184.241L32.4278 184.552L32.6794 185.741H33.8953V184.241ZM31.8914 171.952V170.452H30.2084L30.4013 172.124L31.8914 171.952ZM264.748 148.125L266.245 148.034L266.159 146.625H264.748V148.125ZM265 156.402L266.5 156.402V156.402H265ZM264.939 160.415V161.915H266.396L266.439 160.459L264.939 160.415ZM31.0604 160.415L29.561 160.459L29.6037 161.915H31.0604V160.415ZM30.9998 156.402H29.4998V156.402L30.9998 156.402ZM31.2518 148.125V146.625H29.8402L29.7545 148.034L31.2518 148.125ZM262.157 128.813L263.625 128.506L263.375 127.313H262.157V128.813ZM264.136 141.103V142.603H265.815L265.626 140.933L264.136 141.103ZM31.8641 141.103L30.3736 140.933L30.1842 142.603H31.8641V141.103ZM33.8426 128.813V127.313H32.6242L32.3745 128.506L33.8426 128.813ZM148 31V29.5V31ZM260.813 123.045V124.545H262.747L262.266 122.672L260.813 123.045ZM35.1863 123.045L33.7335 122.672L33.2524 124.545H35.1863V123.045ZM222.935 252.711L221.935 251.593C220.261 253.091 218.549 254.539 216.798 255.934L217.732 257.107L218.667 258.281C220.464 256.849 222.22 255.364 223.936 253.829L222.935 252.711ZM217.732 257.107L216.798 255.934C213.265 258.749 209.577 261.351 205.752 263.725L206.543 265L207.334 266.275C211.26 263.838 215.044 261.168 218.667 258.281L217.732 257.107ZM206.543 265V263.5H89.4568V265V266.5H206.543V265ZM89.4568 265L90.2478 263.725C86.4224 261.351 82.7346 258.749 79.2021 255.934L78.2674 257.107L77.3327 258.281C80.9561 261.168 84.7398 263.838 88.6659 266.275L89.4568 265ZM78.2674 257.107L79.2021 255.934C77.4511 254.539 75.7383 253.091 74.0645 251.593L73.0643 252.711L72.064 253.829C73.7795 255.364 75.5359 256.849 77.3327 258.281L78.2674 257.107ZM73.0643 252.711V254.211H222.935V252.711V251.211H73.0643V252.711ZM246.035 224.871L244.754 224.091C242.174 228.326 239.36 232.381 236.33 236.234L237.51 237.161L238.689 238.088C241.792 234.141 244.674 229.988 247.316 225.651L246.035 224.871ZM237.51 237.161V235.661H58.4891V237.161V238.661H237.51V237.161ZM58.4891 237.161L59.6683 236.234C56.639 232.381 53.8256 228.326 51.2457 224.091L49.9647 224.871L48.6837 225.651C51.325 229.987 54.2063 234.141 57.3099 238.088L58.4891 237.161ZM49.9647 224.871V226.371H246.035V224.871V223.371H49.9647V224.871ZM258.478 197.784L257.052 197.319C255.698 201.474 254.143 205.528 252.4 209.467L253.771 210.074L255.143 210.681C256.927 206.649 258.518 202.501 259.904 198.249L258.478 197.784ZM253.771 210.074V208.574H42.2283V210.074V211.574H253.771V210.074ZM42.2283 210.074L43.6 209.467C41.8569 205.528 40.3021 201.474 38.9474 197.319L37.5213 197.784L36.0952 198.249C37.4813 202.501 39.0725 206.649 40.8566 210.681L42.2283 210.074ZM37.5213 197.784V199.284H258.478V197.784V196.284H37.5213V197.784ZM264.108 171.952L262.618 171.78C262.143 175.896 261.479 179.95 260.637 183.931L262.104 184.241L263.572 184.552C264.433 180.48 265.113 176.334 265.598 172.124L264.108 171.952ZM262.104 184.241V182.741H33.8953V184.241V185.741H262.104V184.241ZM33.8953 184.241L35.3629 183.931C34.5209 179.95 33.8565 175.896 33.3815 171.78L31.8914 171.952L30.4013 172.124C30.8871 176.334 31.5667 180.48 32.4278 184.552L33.8953 184.241ZM31.8914 171.952V173.452H264.108V171.952V170.452H31.8914V171.952ZM264.748 148.125L263.251 148.216C263.415 150.922 263.5 153.652 263.5 156.402H265H266.5C266.5 153.59 266.413 150.8 266.245 148.034L264.748 148.125ZM265 156.402L263.5 156.402C263.5 157.729 263.479 159.052 263.44 160.371L264.939 160.415L266.439 160.459C266.478 159.113 266.5 157.761 266.5 156.402L265 156.402ZM264.939 160.415V158.915H31.0604V160.415V161.915H264.939V160.415ZM31.0604 160.415L32.5597 160.371C32.521 159.052 32.4998 157.729 32.4998 156.402L30.9998 156.402L29.4998 156.402C29.4998 157.761 29.5215 159.113 29.561 160.459L31.0604 160.415ZM30.9998 156.402H32.4998C32.4998 153.652 32.5845 150.922 32.749 148.216L31.2518 148.125L29.7545 148.034C29.5864 150.8 29.4998 153.59 29.4998 156.402H30.9998ZM31.2518 148.125V149.625H264.748V148.125V146.625H31.2518V148.125ZM262.157 128.813L260.689 129.121C261.523 133.102 262.178 137.155 262.645 141.272L264.136 141.103L265.626 140.933C265.148 136.724 264.478 132.578 263.625 128.506L262.157 128.813ZM264.136 141.103V139.603H31.8641V141.103V142.603H264.136V141.103ZM31.8641 141.103L33.3545 141.272C33.8217 137.155 34.4769 133.102 35.3107 129.121L33.8426 128.813L32.3745 128.506C31.5215 132.578 30.8514 136.724 30.3736 140.933L31.8641 141.103ZM33.8426 128.813V130.313H262.157V128.813V127.313H33.8426V128.813ZM148 31V32.5C201.076 32.5 245.882 70.9354 259.36 123.418L260.813 123.045L262.266 122.672C248.489 69.0236 202.605 29.5 148 29.5V31ZM260.813 123.045V121.545H35.1863V123.045V124.545H260.813V123.045ZM35.1863 123.045L36.6392 123.418C50.1174 70.9354 94.9234 32.5 148 32.5V31V29.5C93.3947 29.5 47.511 69.0236 33.7335 122.672L35.1863 123.045Z" fill="#7500FF"/>
</g>
<path d="M222.935 252.711C221.241 254.227 219.506 255.694 217.732 257.107C214.154 259.958 210.419 262.595 206.543 265H89.4568C85.5811 262.595 81.8453 259.958 78.2674 257.107C76.4935 255.694 74.7589 254.227 73.0643 252.711H222.935ZM246.035 224.871C243.424 229.157 240.576 233.261 237.51 237.161H58.4891C55.4226 233.261 52.5753 229.156 49.9647 224.871H246.035ZM258.478 197.784C257.108 201.987 255.535 206.089 253.771 210.074H42.2283C40.4647 206.089 38.8917 201.987 37.5213 197.784H258.478ZM264.108 171.952C263.628 176.115 262.956 180.215 262.104 184.241H33.8953C33.0438 180.215 32.3718 176.115 31.8914 171.952H264.108ZM264.748 148.125C264.914 150.861 265 153.621 265 156.402C265 157.745 264.978 159.083 264.939 160.415H31.0604C31.0213 159.083 30.9998 157.745 30.9998 156.402C30.9998 153.621 31.0854 150.861 31.2518 148.125H264.748ZM262.157 128.813C263 132.84 263.663 136.94 264.136 141.103H31.8641C32.3365 136.94 32.9992 132.84 33.8426 128.813H262.157ZM148 31C201.841 31 247.185 69.9795 260.813 123.045H35.1863C48.8142 69.9795 94.1591 31 148 31Z" fill="url(#paint0_linear_117_2294)"/>
<defs>
<filter id="filter0_f_117_2294" x="0.499817" y="0.5" width="295" height="295" filterUnits="userSpaceOnUse" color-interpolation-filters="sRGB">
<feFlood flood-opacity="0" result="BackgroundImageFix"/>
<feBlend mode="normal" in="SourceGraphic" in2="BackgroundImageFix" result="shape"/>
<feGaussianBlur stdDeviation="14.5" result="effect1_foregroundBlur_117_2294"/>
</filter>
<linearGradient id="paint0_linear_117_2294" x1="148" y1="9.55627" x2="148" y2="265" gradientUnits="userSpaceOnUse">
<stop stop-color="#482C69"/>
<stop offset="1" stop-color="#7500FF"/>
</linearGradient>
</defs>
</svg>
