<svg width="412" height="201" viewBox="0 0 412 201" fill="none" xmlns="http://www.w3.org/2000/svg">
<g filter="url(#filter0_d_23_88)">
<path d="M87.66 129.308C87.66 145.22 81.84 155.165 66.32 155.165C52.74 155.165 44.98 145.22 44.98 129.308V75.6044H118.7V51.7363H44.98V17.9231H12V133.286C12 161.132 27.52 185 66.32 185C105.12 185 120.64 161.132 120.64 133.286V97.4835H87.66V129.308ZM258.38 183.033V91.5385C258.38 65.6813 238.98 49.7692 211.82 49.7692C194.36 49.7692 176.9 57.7253 171.08 69.6593V8H136.16V183.033H171.08V109.44C171.08 91.5385 180.78 77.6154 198.24 77.6154C213.76 77.6154 221.52 83.5824 221.52 103.473V183.033H258.38ZM308.82 103.451C310.76 85.5494 322.4 75.6044 335.98 75.6044C349.56 75.6044 363.14 85.5494 363.14 103.451H308.82ZM400 123.341C400 71.6264 378.66 47.7582 335.98 47.7582C293.3 47.7582 270.02 73.6154 270.02 113.396C270.02 159.143 293.3 183.011 337.92 183.011C367.02 183.011 388.36 169.088 398.06 141.242H361.2C359.26 149.198 347.62 155.165 337.92 155.165C320.46 155.165 308.82 143.231 306.88 123.341H400Z" fill="#C11F25"/>
<path d="M45.73 129.308V76.3544H118.7H119.45V75.6044V51.7363V50.9863H118.7H45.73V17.9231V17.1731H44.98H12H11.25V17.9231V133.286C11.25 147.341 15.1672 160.471 24.0591 170.094C32.9617 179.729 46.7605 185.75 66.32 185.75C85.8794 185.75 99.6783 179.729 108.581 170.094C117.473 160.471 121.39 147.341 121.39 133.286V97.4835V96.7335H120.64H87.66H86.91V97.4835V129.308C86.91 137.195 85.4633 143.465 82.2125 147.75C78.9927 151.994 73.9069 154.415 66.32 154.415C59.7296 154.415 54.6188 152.011 51.1395 147.73C47.6435 143.429 45.73 137.152 45.73 129.308ZM258.38 183.783H259.13V183.033V91.5385C259.13 78.4089 254.198 67.7552 245.779 60.3928C237.37 53.0397 225.543 49.0192 211.82 49.0192C202.982 49.0192 194.141 51.0317 186.761 54.5625C180.416 57.5983 175.104 61.7807 171.83 66.8203V8V7.25H171.08H136.16H135.41V8V183.033V183.783H136.16H171.08H171.83V183.033V109.44C171.83 100.616 174.221 92.8397 178.697 87.2851C183.157 81.7486 189.73 78.3654 198.24 78.3654C205.93 78.3654 211.496 79.8487 215.163 83.6088C218.838 87.3762 220.77 93.5952 220.77 103.473V183.033V183.783H221.52H258.38ZM400 124.091H400.75V123.341C400.75 97.4003 395.401 78.2938 384.564 65.6681C373.707 53.0189 357.46 47.0082 335.98 47.0082C314.487 47.0082 297.785 53.5227 286.458 65.1357C275.134 76.7454 269.27 93.3611 269.27 113.396C269.27 136.388 275.121 154.01 286.701 165.882C298.283 177.758 315.481 183.761 337.92 183.761C352.59 183.761 365.355 180.25 375.688 173.188C386.024 166.123 393.873 155.541 398.768 141.488L399.115 140.492H398.06H361.2H360.611L360.471 141.064C359.571 144.758 356.377 148.098 352.099 150.535C347.838 152.962 342.63 154.415 337.92 154.415C329.371 154.415 322.297 151.499 317.117 146.188C312.074 141.018 308.774 133.522 307.713 124.091H400ZM309.663 102.701C311.832 85.6529 323.045 76.3544 335.98 76.3544C349.009 76.3544 362.009 85.7389 362.382 102.701H309.663Z" stroke="#FFF3B6" stroke-width="1.5"/>
</g>
<defs>
<filter id="filter0_d_23_88" x="0.5" y="0.5" width="411" height="200" filterUnits="userSpaceOnUse" color-interpolation-filters="sRGB">
<feFlood flood-opacity="0" result="BackgroundImageFix"/>
<feColorMatrix in="SourceAlpha" type="matrix" values="0 0 0 0 0 0 0 0 0 0 0 0 0 0 0 0 0 0 127 0" result="hardAlpha"/>
<feOffset dy="4"/>
<feGaussianBlur stdDeviation="5"/>
<feComposite in2="hardAlpha" operator="out"/>
<feColorMatrix type="matrix" values="0 0 0 0 0.168627 0 0 0 0 0 0 0 0 0 0.0352941 0 0 0 0.4 0"/>
<feBlend mode="normal" in2="BackgroundImageFix" result="effect1_dropShadow_23_88"/>
<feBlend mode="normal" in="SourceGraphic" in2="effect1_dropShadow_23_88" result="shape"/>
</filter>
</defs>
</svg>
