<svg width="432" height="73" viewBox="0 0 432 73" fill="none" xmlns="http://www.w3.org/2000/svg">
<g filter="url(#filter0_f_117_2694)">
<mask id="path-1-outside-1_117_2694" maskUnits="userSpaceOnUse" x="6.99988" y="10.921" width="418" height="56" fill="black">
<rect fill="white" x="6.99988" y="10.921" width="418" height="56"/>
<path d="M41.196 63.0317H31.7393V40.288C31.7393 37.6035 31.258 35.7393 30.2955 34.6953C29.3811 33.6016 27.8411 33.0548 25.6754 33.0548C23.4135 33.0548 21.6329 33.8999 20.3335 35.5902C19.0341 37.2804 18.3844 39.4181 18.3844 42.0031V63.0317H8.99991V12.921H18.3844V31.116C19.0582 29.4755 20.3816 28.1084 22.3548 27.0147C24.3279 25.921 26.4936 25.3741 28.8517 25.3741C32.5574 25.3741 35.5412 26.4181 37.8031 28.5061C40.065 30.594 41.196 33.4525 41.196 37.0816V63.0317Z"/>
<path d="M66.8178 49.0872L66.89 45.0605C66.12 45.8559 64.0987 46.5767 60.8261 47.223C58.1792 47.7201 56.3264 48.4161 55.2676 49.311C54.257 50.1561 53.7517 51.374 53.7517 52.9649C53.7517 55.6991 55.2676 57.0662 58.2995 57.0662C60.7058 57.0662 62.703 56.2956 64.2912 54.7545C65.9275 53.1637 66.7697 51.2746 66.8178 49.0872ZM76.2745 63.0317H67.5397C67.2509 62.0872 67.0584 60.9935 66.9622 59.7507C64.4596 62.5843 60.8743 64.0011 56.2061 64.0011C52.3079 64.0011 49.3482 63.1063 47.3269 61.3166C45.3537 59.4773 44.3672 57.0165 44.3672 53.9343C44.3672 51.896 44.6559 50.1312 45.2334 48.6398C45.8109 47.1484 46.4847 45.9802 47.2547 45.1351C48.0728 44.2899 49.3001 43.5691 50.9363 42.9725C52.5726 42.376 54.0164 41.9534 55.2676 41.7049C56.5189 41.4563 58.3236 41.158 60.6818 40.81C62.9918 40.462 64.5559 40.0146 65.374 39.4678C66.2403 38.8712 66.6734 37.9267 66.6734 36.6341C66.6734 35.441 66.12 34.5213 65.0131 33.8751C63.9543 33.1791 62.5105 32.8311 60.6818 32.8311C56.8798 32.8311 54.7383 34.6456 54.257 38.2747H45.5222C45.6666 29.6743 50.8641 25.3741 61.1149 25.3741C66.5531 25.3741 70.4272 26.5921 72.7372 29.0281C75.0954 31.4143 76.2745 35.0185 76.2745 39.8406V63.0317Z"/>
<path d="M102.936 49.7584H112.392C111.911 53.984 110.155 57.4142 107.123 60.049C104.091 62.6837 100.409 64.0011 96.0778 64.0011C91.0727 64.0011 87.1024 62.3109 84.1667 58.9304C81.231 55.5499 79.7632 50.6532 79.7632 44.2402C79.7632 37.877 81.231 33.1542 84.1667 30.072C87.1024 26.9401 91.169 25.3741 96.3665 25.3741C100.987 25.3741 104.74 26.6418 107.628 29.1772C110.564 31.7126 112.176 35.1427 112.465 39.4678H103.008C102.767 37.5787 102.021 36.1122 100.77 35.0682C99.5669 33.9745 98.075 33.4277 96.2943 33.4277C91.4818 33.4277 89.0755 36.9573 89.0755 44.0165C89.0755 47.7947 89.7252 50.7278 91.0246 52.8157C92.3721 54.854 94.0324 55.8731 96.0056 55.8731C97.8825 55.8731 99.4466 55.3511 100.698 54.3071C101.997 53.2134 102.743 51.6972 102.936 49.7584Z"/>
<path d="M147.508 63.0317H136.969L129.172 46.5519L124.624 51.3989V63.0317H115.168V12.921H124.624V40.288L136.319 26.3436H147.797L135.886 39.8406L147.508 63.0317Z"/>
<path d="M189.779 48.4161V38.8712H198.513V49.3109C198.513 53.4868 197.286 56.9916 194.832 59.8252C192.425 62.6092 188.864 64.0011 184.148 64.0011C179.239 64.0011 175.581 62.6092 173.175 59.8252C170.817 57.0413 169.638 53.5117 169.638 49.2364V16.4258H178.878V26.3435H198.513V33.2039H178.878V48.267C178.878 53.1388 180.683 55.5748 184.292 55.5748C187.95 55.5748 189.779 53.1885 189.779 48.4161Z"/>
<path d="M234.544 63.0317H225.088V40.288C225.088 37.6035 224.606 35.7393 223.644 34.6953C222.73 33.6016 221.19 33.0548 219.024 33.0548C216.762 33.0548 214.981 33.8999 213.682 35.5901C212.383 37.2804 211.733 39.418 211.733 42.0031V63.0317H202.348V12.921H211.733V31.116C212.407 29.4754 213.73 28.1083 215.703 27.0147C217.676 25.921 219.842 25.3741 222.2 25.3741C225.906 25.3741 228.89 26.4181 231.152 28.506C233.413 30.594 234.544 33.4525 234.544 37.0815V63.0317Z"/>
<path d="M247.533 41.1083H262.043C261.995 38.5232 261.249 36.5347 259.805 35.1427C258.41 33.7508 256.725 33.0548 254.752 33.0548C252.827 33.0548 251.191 33.7756 249.843 35.2173C248.496 36.659 247.726 38.6226 247.533 41.1083ZM271.716 47.223H247.244C247.389 50.0069 248.159 52.2191 249.555 53.8597C250.998 55.5002 252.875 56.3205 255.185 56.3205C256.725 56.3205 258.073 55.9476 259.228 55.2019C260.431 54.4562 261.201 53.462 261.538 52.2191H271.211C270.152 55.9476 268.227 58.8558 265.436 60.9438C262.693 62.982 259.42 64.0011 255.618 64.0011C243.779 64.0011 237.86 57.3396 237.86 44.0165C237.86 38.2995 239.376 33.7756 242.408 30.4449C245.44 27.0644 249.651 25.3741 255.041 25.3741C266.158 25.3741 271.716 32.6571 271.716 47.223Z"/>
<path d="M396.011 63.0317H386.626V12.921H396.011V63.0317Z"/>
<path d="M409.335 63.0317H399.95V12.921H409.335V63.0317Z"/>
<path d="M423 63.0317H413.615V12.921H423V63.0317Z"/>
</mask>
<path d="M41.196 63.0317H31.7393V40.288C31.7393 37.6035 31.258 35.7393 30.2955 34.6953C29.3811 33.6016 27.8411 33.0548 25.6754 33.0548C23.4135 33.0548 21.6329 33.8999 20.3335 35.5902C19.0341 37.2804 18.3844 39.4181 18.3844 42.0031V63.0317H8.99991V12.921H18.3844V31.116C19.0582 29.4755 20.3816 28.1084 22.3548 27.0147C24.3279 25.921 26.4936 25.3741 28.8517 25.3741C32.5574 25.3741 35.5412 26.4181 37.8031 28.5061C40.065 30.594 41.196 33.4525 41.196 37.0816V63.0317Z" fill="#7500FF"/>
<path d="M66.8178 49.0872L66.89 45.0605C66.12 45.8559 64.0987 46.5767 60.8261 47.223C58.1792 47.7201 56.3264 48.4161 55.2676 49.311C54.257 50.1561 53.7517 51.374 53.7517 52.9649C53.7517 55.6991 55.2676 57.0662 58.2995 57.0662C60.7058 57.0662 62.703 56.2956 64.2912 54.7545C65.9275 53.1637 66.7697 51.2746 66.8178 49.0872ZM76.2745 63.0317H67.5397C67.2509 62.0872 67.0584 60.9935 66.9622 59.7507C64.4596 62.5843 60.8743 64.0011 56.2061 64.0011C52.3079 64.0011 49.3482 63.1063 47.3269 61.3166C45.3537 59.4773 44.3672 57.0165 44.3672 53.9343C44.3672 51.896 44.6559 50.1312 45.2334 48.6398C45.8109 47.1484 46.4847 45.9802 47.2547 45.1351C48.0728 44.2899 49.3001 43.5691 50.9363 42.9725C52.5726 42.376 54.0164 41.9534 55.2676 41.7049C56.5189 41.4563 58.3236 41.158 60.6818 40.81C62.9918 40.462 64.5559 40.0146 65.374 39.4678C66.2403 38.8712 66.6734 37.9267 66.6734 36.6341C66.6734 35.441 66.12 34.5213 65.0131 33.8751C63.9543 33.1791 62.5105 32.8311 60.6818 32.8311C56.8798 32.8311 54.7383 34.6456 54.257 38.2747H45.5222C45.6666 29.6743 50.8641 25.3741 61.1149 25.3741C66.5531 25.3741 70.4272 26.5921 72.7372 29.0281C75.0954 31.4143 76.2745 35.0185 76.2745 39.8406V63.0317Z" fill="#7500FF"/>
<path d="M102.936 49.7584H112.392C111.911 53.984 110.155 57.4142 107.123 60.049C104.091 62.6837 100.409 64.0011 96.0778 64.0011C91.0727 64.0011 87.1024 62.3109 84.1667 58.9304C81.231 55.5499 79.7632 50.6532 79.7632 44.2402C79.7632 37.877 81.231 33.1542 84.1667 30.072C87.1024 26.9401 91.169 25.3741 96.3665 25.3741C100.987 25.3741 104.74 26.6418 107.628 29.1772C110.564 31.7126 112.176 35.1427 112.465 39.4678H103.008C102.767 37.5787 102.021 36.1122 100.77 35.0682C99.5669 33.9745 98.075 33.4277 96.2943 33.4277C91.4818 33.4277 89.0755 36.9573 89.0755 44.0165C89.0755 47.7947 89.7252 50.7278 91.0246 52.8157C92.3721 54.854 94.0324 55.8731 96.0056 55.8731C97.8825 55.8731 99.4466 55.3511 100.698 54.3071C101.997 53.2134 102.743 51.6972 102.936 49.7584Z" fill="#7500FF"/>
<path d="M147.508 63.0317H136.969L129.172 46.5519L124.624 51.3989V63.0317H115.168V12.921H124.624V40.288L136.319 26.3436H147.797L135.886 39.8406L147.508 63.0317Z" fill="#7500FF"/>
<path d="M189.779 48.4161V38.8712H198.513V49.3109C198.513 53.4868 197.286 56.9916 194.832 59.8252C192.425 62.6092 188.864 64.0011 184.148 64.0011C179.239 64.0011 175.581 62.6092 173.175 59.8252C170.817 57.0413 169.638 53.5117 169.638 49.2364V16.4258H178.878V26.3435H198.513V33.2039H178.878V48.267C178.878 53.1388 180.683 55.5748 184.292 55.5748C187.95 55.5748 189.779 53.1885 189.779 48.4161Z" fill="#7500FF"/>
<path d="M234.544 63.0317H225.088V40.288C225.088 37.6035 224.606 35.7393 223.644 34.6953C222.73 33.6016 221.19 33.0548 219.024 33.0548C216.762 33.0548 214.981 33.8999 213.682 35.5901C212.383 37.2804 211.733 39.418 211.733 42.0031V63.0317H202.348V12.921H211.733V31.116C212.407 29.4754 213.73 28.1083 215.703 27.0147C217.676 25.921 219.842 25.3741 222.2 25.3741C225.906 25.3741 228.89 26.4181 231.152 28.506C233.413 30.594 234.544 33.4525 234.544 37.0815V63.0317Z" fill="#7500FF"/>
<path d="M247.533 41.1083H262.043C261.995 38.5232 261.249 36.5347 259.805 35.1427C258.41 33.7508 256.725 33.0548 254.752 33.0548C252.827 33.0548 251.191 33.7756 249.843 35.2173C248.496 36.659 247.726 38.6226 247.533 41.1083ZM271.716 47.223H247.244C247.389 50.0069 248.159 52.2191 249.555 53.8597C250.998 55.5002 252.875 56.3205 255.185 56.3205C256.725 56.3205 258.073 55.9476 259.228 55.2019C260.431 54.4562 261.201 53.462 261.538 52.2191H271.211C270.152 55.9476 268.227 58.8558 265.436 60.9438C262.693 62.982 259.42 64.0011 255.618 64.0011C243.779 64.0011 237.86 57.3396 237.86 44.0165C237.86 38.2995 239.376 33.7756 242.408 30.4449C245.44 27.0644 249.651 25.3741 255.041 25.3741C266.158 25.3741 271.716 32.6571 271.716 47.223Z" fill="#7500FF"/>
<path d="M396.011 63.0317H386.626V12.921H396.011V63.0317Z" fill="#7500FF"/>
<path d="M409.335 63.0317H399.95V12.921H409.335V63.0317Z" fill="#7500FF"/>
<path d="M423 63.0317H413.615V12.921H423V63.0317Z" fill="#7500FF"/>
<path d="M41.196 63.0317H31.7393V40.288C31.7393 37.6035 31.258 35.7393 30.2955 34.6953C29.3811 33.6016 27.8411 33.0548 25.6754 33.0548C23.4135 33.0548 21.6329 33.8999 20.3335 35.5902C19.0341 37.2804 18.3844 39.4181 18.3844 42.0031V63.0317H8.99991V12.921H18.3844V31.116C19.0582 29.4755 20.3816 28.1084 22.3548 27.0147C24.3279 25.921 26.4936 25.3741 28.8517 25.3741C32.5574 25.3741 35.5412 26.4181 37.8031 28.5061C40.065 30.594 41.196 33.4525 41.196 37.0816V63.0317Z" stroke="#7500FF" stroke-width="4" mask="url(#path-1-outside-1_117_2694)"/>
<path d="M66.8178 49.0872L66.89 45.0605C66.12 45.8559 64.0987 46.5767 60.8261 47.223C58.1792 47.7201 56.3264 48.4161 55.2676 49.311C54.257 50.1561 53.7517 51.374 53.7517 52.9649C53.7517 55.6991 55.2676 57.0662 58.2995 57.0662C60.7058 57.0662 62.703 56.2956 64.2912 54.7545C65.9275 53.1637 66.7697 51.2746 66.8178 49.0872ZM76.2745 63.0317H67.5397C67.2509 62.0872 67.0584 60.9935 66.9622 59.7507C64.4596 62.5843 60.8743 64.0011 56.2061 64.0011C52.3079 64.0011 49.3482 63.1063 47.3269 61.3166C45.3537 59.4773 44.3672 57.0165 44.3672 53.9343C44.3672 51.896 44.6559 50.1312 45.2334 48.6398C45.8109 47.1484 46.4847 45.9802 47.2547 45.1351C48.0728 44.2899 49.3001 43.5691 50.9363 42.9725C52.5726 42.376 54.0164 41.9534 55.2676 41.7049C56.5189 41.4563 58.3236 41.158 60.6818 40.81C62.9918 40.462 64.5559 40.0146 65.374 39.4678C66.2403 38.8712 66.6734 37.9267 66.6734 36.6341C66.6734 35.441 66.12 34.5213 65.0131 33.8751C63.9543 33.1791 62.5105 32.8311 60.6818 32.8311C56.8798 32.8311 54.7383 34.6456 54.257 38.2747H45.5222C45.6666 29.6743 50.8641 25.3741 61.1149 25.3741C66.5531 25.3741 70.4272 26.5921 72.7372 29.0281C75.0954 31.4143 76.2745 35.0185 76.2745 39.8406V63.0317Z" stroke="#7500FF" stroke-width="4" mask="url(#path-1-outside-1_117_2694)"/>
<path d="M102.936 49.7584H112.392C111.911 53.984 110.155 57.4142 107.123 60.049C104.091 62.6837 100.409 64.0011 96.0778 64.0011C91.0727 64.0011 87.1024 62.3109 84.1667 58.9304C81.231 55.5499 79.7632 50.6532 79.7632 44.2402C79.7632 37.877 81.231 33.1542 84.1667 30.072C87.1024 26.9401 91.169 25.3741 96.3665 25.3741C100.987 25.3741 104.74 26.6418 107.628 29.1772C110.564 31.7126 112.176 35.1427 112.465 39.4678H103.008C102.767 37.5787 102.021 36.1122 100.77 35.0682C99.5669 33.9745 98.075 33.4277 96.2943 33.4277C91.4818 33.4277 89.0755 36.9573 89.0755 44.0165C89.0755 47.7947 89.7252 50.7278 91.0246 52.8157C92.3721 54.854 94.0324 55.8731 96.0056 55.8731C97.8825 55.8731 99.4466 55.3511 100.698 54.3071C101.997 53.2134 102.743 51.6972 102.936 49.7584Z" stroke="#7500FF" stroke-width="4" mask="url(#path-1-outside-1_117_2694)"/>
<path d="M147.508 63.0317H136.969L129.172 46.5519L124.624 51.3989V63.0317H115.168V12.921H124.624V40.288L136.319 26.3436H147.797L135.886 39.8406L147.508 63.0317Z" stroke="#7500FF" stroke-width="4" mask="url(#path-1-outside-1_117_2694)"/>
<path d="M189.779 48.4161V38.8712H198.513V49.3109C198.513 53.4868 197.286 56.9916 194.832 59.8252C192.425 62.6092 188.864 64.0011 184.148 64.0011C179.239 64.0011 175.581 62.6092 173.175 59.8252C170.817 57.0413 169.638 53.5117 169.638 49.2364V16.4258H178.878V26.3435H198.513V33.2039H178.878V48.267C178.878 53.1388 180.683 55.5748 184.292 55.5748C187.95 55.5748 189.779 53.1885 189.779 48.4161Z" stroke="#7500FF" stroke-width="4" mask="url(#path-1-outside-1_117_2694)"/>
<path d="M234.544 63.0317H225.088V40.288C225.088 37.6035 224.606 35.7393 223.644 34.6953C222.73 33.6016 221.19 33.0548 219.024 33.0548C216.762 33.0548 214.981 33.8999 213.682 35.5901C212.383 37.2804 211.733 39.418 211.733 42.0031V63.0317H202.348V12.921H211.733V31.116C212.407 29.4754 213.73 28.1083 215.703 27.0147C217.676 25.921 219.842 25.3741 222.2 25.3741C225.906 25.3741 228.89 26.4181 231.152 28.506C233.413 30.594 234.544 33.4525 234.544 37.0815V63.0317Z" stroke="#7500FF" stroke-width="4" mask="url(#path-1-outside-1_117_2694)"/>
<path d="M247.533 41.1083H262.043C261.995 38.5232 261.249 36.5347 259.805 35.1427C258.41 33.7508 256.725 33.0548 254.752 33.0548C252.827 33.0548 251.191 33.7756 249.843 35.2173C248.496 36.659 247.726 38.6226 247.533 41.1083ZM271.716 47.223H247.244C247.389 50.0069 248.159 52.2191 249.555 53.8597C250.998 55.5002 252.875 56.3205 255.185 56.3205C256.725 56.3205 258.073 55.9476 259.228 55.2019C260.431 54.4562 261.201 53.462 261.538 52.2191H271.211C270.152 55.9476 268.227 58.8558 265.436 60.9438C262.693 62.982 259.42 64.0011 255.618 64.0011C243.779 64.0011 237.86 57.3396 237.86 44.0165C237.86 38.2995 239.376 33.7756 242.408 30.4449C245.44 27.0644 249.651 25.3741 255.041 25.3741C266.158 25.3741 271.716 32.6571 271.716 47.223Z" stroke="#7500FF" stroke-width="4" mask="url(#path-1-outside-1_117_2694)"/>
<path d="M396.011 63.0317H386.626V12.921H396.011V63.0317Z" stroke="#7500FF" stroke-width="4" mask="url(#path-1-outside-1_117_2694)"/>
<path d="M409.335 63.0317H399.95V12.921H409.335V63.0317Z" stroke="#7500FF" stroke-width="4" mask="url(#path-1-outside-1_117_2694)"/>
<path d="M423 63.0317H413.615V12.921H423V63.0317Z" stroke="#7500FF" stroke-width="4" mask="url(#path-1-outside-1_117_2694)"/>
<path d="M334.17 9.44806L334.16 12.7576L333.01 12.7538L333.02 9.44428L334.17 9.44806Z" fill="#7500FF" stroke="#7500FF"/>
<path d="M337.021 7.53295L337.012 10.4577L333.018 10.4446L333.027 7.51985L337.021 7.53295Z" fill="#7500FF" stroke="#7500FF"/>
<path d="M334.069 12.1245L338.659 29.0752L338.829 29.7076L328.315 29.6731L328.487 29.0437L333.104 12.1233L333.589 10.3485L334.069 12.1245Z" fill="#7500FF" stroke="#7500FF"/>
<path d="M334.614 11.1435L334.604 14.453L332.631 14.4464L332.641 11.1369L334.614 11.1435Z" fill="#7500FF" stroke="#7500FF"/>
<mask id="path-6-outside-2_117_2694" maskUnits="userSpaceOnUse" x="326.856" y="37.7926" width="14.086" height="28.0458" fill="black">
<rect fill="white" x="326.856" y="37.7926" width="14.086" height="28.0458"/>
<path d="M338.143 39.8294L338.07 63.4631L328.863 63.4329L328.936 39.7992L338.143 39.8294ZM330.878 41.039C330.729 41.0398 330.576 42.116 330.572 43.5009C330.568 44.8857 330.714 45.9639 330.863 45.9657C331.013 45.9662 331.166 44.8885 331.171 43.5028C331.175 42.1172 331.028 41.0395 330.878 41.039ZM332.6 41.0446C332.45 41.0454 332.298 42.1217 332.294 43.5065C332.289 44.8914 332.435 45.9696 332.585 45.9714C332.735 45.9718 332.888 44.8942 332.892 43.5085C332.897 42.1228 332.75 41.0451 332.6 41.0446ZM334.323 41.0503C334.173 41.0498 334.02 42.1265 334.015 43.5122C334.011 44.8979 334.158 45.9765 334.308 45.977C334.457 45.9762 334.61 44.899 334.614 43.5141C334.618 42.1293 334.472 41.0521 334.323 41.0503ZM335.969 41.0557C335.819 41.0552 335.666 42.1319 335.662 43.5176C335.658 44.9033 335.804 45.9819 335.954 45.9824C336.104 45.9808 336.256 44.9039 336.26 43.5195C336.265 42.1353 336.119 41.0583 335.969 41.0557Z"/>
</mask>
<path d="M338.143 39.8294L338.07 63.4631L328.863 63.4329L328.936 39.7992L338.143 39.8294ZM330.878 41.039C330.729 41.0398 330.576 42.116 330.572 43.5009C330.568 44.8857 330.714 45.9639 330.863 45.9657C331.013 45.9662 331.166 44.8885 331.171 43.5028C331.175 42.1172 331.028 41.0395 330.878 41.039ZM332.6 41.0446C332.45 41.0454 332.298 42.1217 332.294 43.5065C332.289 44.8914 332.435 45.9696 332.585 45.9714C332.735 45.9718 332.888 44.8942 332.892 43.5085C332.897 42.1228 332.75 41.0451 332.6 41.0446ZM334.323 41.0503C334.173 41.0498 334.02 42.1265 334.015 43.5122C334.011 44.8979 334.158 45.9765 334.308 45.977C334.457 45.9762 334.61 44.899 334.614 43.5141C334.618 42.1293 334.472 41.0521 334.323 41.0503ZM335.969 41.0557C335.819 41.0552 335.666 42.1319 335.662 43.5176C335.658 44.9033 335.804 45.9819 335.954 45.9824C336.104 45.9808 336.256 44.9039 336.26 43.5195C336.265 42.1353 336.119 41.0583 335.969 41.0557Z" fill="#7500FF"/>
<path d="M338.143 39.8294L340.143 39.836L340.149 37.836L338.149 37.8294L338.143 39.8294ZM338.07 63.4631L338.064 65.4631L340.064 65.4696L340.07 63.4696L338.07 63.4631ZM328.863 63.4329L326.863 63.4263L326.857 65.4263L328.857 65.4329L328.863 63.4329ZM328.936 39.7992L328.942 37.7992L326.942 37.7926L326.936 39.7926L328.936 39.7992ZM330.878 41.039L330.885 39.039L330.876 39.039L330.867 39.039L330.878 41.039ZM330.572 43.5009L328.572 43.4943L328.572 43.4943L330.572 43.5009ZM330.863 45.9657L330.84 47.9656L330.848 47.9657L330.857 47.9657L330.863 45.9657ZM331.171 43.5028L333.171 43.5094L333.171 43.5094L331.171 43.5028ZM332.6 41.0446L332.606 39.0446L332.597 39.0446L332.589 39.0446L332.6 41.0446ZM332.294 43.5065L330.294 43.4999L330.294 43.5L332.294 43.5065ZM332.585 45.9714L332.562 47.9712L332.57 47.9713L332.579 47.9713L332.585 45.9714ZM332.892 43.5085L334.892 43.515L334.892 43.515L332.892 43.5085ZM334.323 41.0503L334.347 39.0504L334.338 39.0503L334.329 39.0503L334.323 41.0503ZM334.015 43.5122L332.015 43.5056L332.015 43.5056L334.015 43.5122ZM334.308 45.977L334.301 47.977L334.31 47.977L334.319 47.977L334.308 45.977ZM334.614 43.5141L336.614 43.5207L336.614 43.5207L334.614 43.5141ZM335.969 41.0557L336.004 39.056L335.989 39.0557L335.975 39.0557L335.969 41.0557ZM335.662 43.5176L333.662 43.511L333.662 43.511L335.662 43.5176ZM335.954 45.9824L335.948 47.9824L335.962 47.9824L335.976 47.9823L335.954 45.9824ZM336.26 43.5195L338.26 43.5261L338.26 43.5261L336.26 43.5195ZM338.143 39.8294L336.143 39.8228L336.07 63.4565L338.07 63.4631L340.07 63.4696L340.143 39.836L338.143 39.8294ZM338.07 63.4631L338.076 61.4631L328.869 61.4329L328.863 63.4329L328.857 65.4329L338.064 65.4631L338.07 63.4631ZM328.863 63.4329L330.863 63.4394L330.936 39.8058L328.936 39.7992L326.936 39.7926L326.863 63.4263L328.863 63.4329ZM328.936 39.7992L328.93 41.7992L338.137 41.8294L338.143 39.8294L338.149 37.8294L328.942 37.7992L328.936 39.7992ZM330.878 41.039L330.867 39.039C330.222 39.0426 329.764 39.3414 329.524 39.5541C329.292 39.7601 329.155 39.9745 329.088 40.092C328.951 40.3299 328.88 40.5563 328.846 40.6742C328.77 40.9399 328.721 41.2333 328.687 41.4933C328.617 42.0382 328.574 42.74 328.572 43.4943L330.572 43.5009L332.572 43.5074C332.574 42.8769 332.61 42.3482 332.654 42.0086C332.678 41.8263 332.695 41.7639 332.69 41.7843C332.686 41.795 332.678 41.8247 332.661 41.8675C332.646 41.9064 332.614 41.9857 332.557 42.0843C332.508 42.1697 332.39 42.3595 332.176 42.549C331.955 42.7451 331.516 43.0354 330.89 43.0389L330.878 41.039ZM330.572 43.5009L328.572 43.4943C328.57 44.2486 328.608 44.9509 328.675 45.4965C328.707 45.7567 328.754 46.0505 328.829 46.3166C328.862 46.4348 328.932 46.6616 329.067 46.9003C329.133 47.0183 329.268 47.2336 329.5 47.4413C329.738 47.6556 330.194 47.9579 330.84 47.9656L330.863 45.9657L330.887 43.9658C331.514 43.9733 331.951 44.267 332.171 44.4646C332.384 44.6556 332.5 44.8462 332.548 44.9319C332.604 45.0309 332.636 45.1104 332.651 45.1493C332.667 45.1921 332.676 45.2219 332.679 45.2325C332.685 45.2527 332.667 45.1901 332.645 45.0074C332.603 44.6672 332.57 44.138 332.572 43.5074L330.572 43.5009ZM330.863 45.9657L330.857 47.9657C331.505 47.9678 331.967 47.6709 332.21 47.4569C332.446 47.2503 332.584 47.0346 332.652 46.9166C332.789 46.6778 332.861 46.4505 332.895 46.3326C332.972 46.0665 333.021 45.7727 333.055 45.5126C333.126 44.9671 333.168 44.2644 333.171 43.5094L331.171 43.5028L329.171 43.4963C329.169 44.127 329.132 44.6559 329.088 44.9956C329.064 45.1781 329.047 45.2401 329.053 45.2193C329.056 45.2085 329.065 45.1785 329.082 45.1354C329.097 45.0963 329.13 45.0164 329.187 44.9171C329.236 44.8313 329.355 44.64 329.572 44.4498C329.797 44.2522 330.24 43.9637 330.869 43.9657L330.863 45.9657ZM331.171 43.5028L333.171 43.5094C333.173 42.7544 333.135 42.0516 333.067 41.5059C333.035 41.2456 332.988 40.9515 332.912 40.6849C332.879 40.5667 332.809 40.3389 332.672 40.0992C332.605 39.9807 332.468 39.7642 332.234 39.5561C331.991 39.3405 331.532 39.0411 330.885 39.039L330.878 41.039L330.872 43.039C330.244 43.0369 329.803 42.7459 329.579 42.5469C329.363 42.3554 329.245 42.1633 329.196 42.0771C329.139 41.9774 329.107 41.8972 329.092 41.858C329.075 41.8147 329.067 41.7846 329.063 41.7737C329.057 41.7526 329.075 41.8146 329.097 41.9971C329.14 42.3367 329.173 42.8656 329.171 43.4963L331.171 43.5028ZM332.6 41.0446L332.589 39.0446C331.944 39.0482 331.486 39.3468 331.246 39.5595C331.013 39.7656 330.877 39.98 330.81 40.0976C330.673 40.3355 330.602 40.5619 330.568 40.6798C330.491 40.9455 330.443 41.239 330.409 41.4989C330.338 42.0438 330.296 42.7457 330.294 43.4999L332.294 43.5065L334.294 43.5131C334.296 42.8825 334.332 42.3538 334.376 42.0142C334.399 41.8319 334.417 41.7695 334.411 41.7899C334.408 41.8006 334.399 41.8304 334.383 41.8732C334.368 41.9121 334.335 41.9914 334.278 42.0901C334.229 42.1755 334.112 42.3653 333.898 42.5549C333.676 42.751 333.238 43.0412 332.611 43.0446L332.6 41.0446ZM332.294 43.5065L330.294 43.5C330.291 44.2542 330.329 44.9566 330.397 45.5021C330.429 45.7623 330.476 46.0561 330.551 46.3223C330.584 46.4405 330.653 46.6673 330.788 46.9061C330.855 47.0241 330.99 47.2394 331.221 47.4471C331.46 47.6615 331.916 47.9636 332.562 47.9712L332.585 45.9714L332.608 43.9715C333.235 43.9789 333.672 44.2724 333.892 44.4701C334.105 44.6611 334.222 44.8517 334.27 44.9374C334.326 45.0364 334.358 45.1159 334.373 45.1548C334.389 45.1977 334.398 45.2275 334.401 45.2381C334.406 45.2584 334.389 45.1958 334.367 45.0131C334.325 44.6729 334.292 44.1437 334.294 43.5131L332.294 43.5065ZM332.585 45.9714L332.579 47.9713C333.227 47.9735 333.688 47.6764 333.932 47.4624C334.168 47.2557 334.305 47.04 334.373 46.9221C334.511 46.6834 334.582 46.4561 334.617 46.3382C334.694 46.0722 334.743 45.7784 334.776 45.5183C334.847 44.9728 334.89 44.2701 334.892 43.515L332.892 43.5085L330.892 43.5019C330.89 44.1326 330.854 44.6616 330.81 45.0012C330.786 45.1837 330.768 45.2458 330.774 45.225C330.778 45.2142 330.786 45.1842 330.803 45.1411C330.818 45.102 330.851 45.0222 330.908 44.9229C330.958 44.8371 331.077 44.6459 331.294 44.4556C331.519 44.2581 331.962 43.9693 332.591 43.9714L332.585 45.9714ZM332.892 43.5085L334.892 43.515C334.895 42.76 334.856 42.0572 334.789 41.5115C334.756 41.2512 334.709 40.9571 334.634 40.6906C334.6 40.5725 334.53 40.3447 334.394 40.105C334.327 39.9866 334.19 39.77 333.956 39.5619C333.713 39.3464 333.254 39.0468 332.606 39.0446L332.6 41.0446L332.594 43.0446C331.965 43.0425 331.524 42.7514 331.3 42.5524C331.084 42.3608 330.967 42.1688 330.917 42.0826C330.861 41.9829 330.828 41.9027 330.813 41.8635C330.797 41.8202 330.788 41.7902 330.785 41.7793C330.779 41.7583 330.796 41.8203 330.819 42.0027C330.861 42.3424 330.894 42.8713 330.892 43.5019L332.892 43.5085ZM334.323 41.0503L334.329 39.0503C333.681 39.0482 333.22 39.3448 332.976 39.5587C332.74 39.7653 332.603 39.9809 332.535 40.0989C332.397 40.3377 332.325 40.565 332.291 40.6829C332.214 40.9489 332.165 41.2427 332.131 41.5028C332.06 42.0481 332.018 42.7506 332.015 43.5056L334.015 43.5122L336.015 43.5187C336.017 42.8881 336.054 42.3594 336.098 42.0201C336.121 41.8378 336.139 41.7759 336.133 41.7968C336.13 41.8077 336.121 41.8377 336.104 41.8809C336.089 41.92 336.056 42 335.999 42.0992C335.949 42.1851 335.83 42.3764 335.613 42.5665C335.388 42.764 334.945 43.0523 334.317 43.0503L334.323 41.0503ZM334.015 43.5122L332.015 43.5056C332.013 44.2607 332.051 44.9636 332.119 45.5095C332.151 45.7699 332.198 46.064 332.274 46.3305C332.307 46.4486 332.377 46.6764 332.513 46.916C332.581 47.0344 332.717 47.251 332.951 47.4591C333.193 47.6747 333.653 47.9749 334.301 47.977L334.308 45.977L334.314 43.977C334.943 43.9791 335.384 44.2707 335.608 44.4698C335.824 44.6614 335.941 44.8534 335.99 44.9396C336.047 45.0392 336.079 45.1193 336.094 45.1585C336.111 45.2017 336.12 45.2317 336.123 45.2425C336.128 45.2634 336.111 45.2012 336.089 45.0185C336.046 44.6786 336.013 44.1494 336.015 43.5187L334.015 43.5122ZM334.308 45.977L334.319 47.977C334.964 47.9735 335.422 47.6743 335.662 47.4616C335.895 47.2554 336.031 47.041 336.098 46.9234C336.235 46.6856 336.306 46.4592 336.34 46.3413C336.416 46.0756 336.465 45.7821 336.499 45.5221C336.569 44.977 336.612 44.275 336.614 43.5207L334.614 43.5141L332.614 43.5076C332.612 44.1382 332.576 44.6671 332.532 45.0071C332.508 45.1896 332.49 45.2521 332.496 45.2319C332.499 45.2212 332.508 45.1916 332.525 45.1488C332.54 45.11 332.572 45.0307 332.629 44.932C332.678 44.8467 332.795 44.6569 333.009 44.4673C333.231 44.2711 333.669 43.9804 334.296 43.977L334.308 45.977ZM334.614 43.5141L336.614 43.5207C336.616 42.7665 336.578 42.0643 336.511 41.519C336.479 41.2588 336.432 40.9651 336.357 40.6989C336.324 40.5807 336.254 40.3538 336.119 40.1151C336.052 39.997 335.917 39.7818 335.686 39.5742C335.447 39.36 334.992 39.0583 334.347 39.0504L334.323 41.0503L334.299 43.0501C333.672 43.0425 333.236 42.7494 333.016 42.5518C332.803 42.3609 332.686 42.1704 332.638 42.0847C332.582 41.9856 332.55 41.9061 332.535 41.8671C332.519 41.8242 332.51 41.7944 332.507 41.7837C332.501 41.7633 332.519 41.8257 332.541 42.0082C332.583 42.3481 332.616 42.877 332.614 43.5076L334.614 43.5141ZM335.969 41.0557L335.975 39.0557C335.328 39.0536 334.866 39.3502 334.622 39.5641C334.387 39.7707 334.249 39.9864 334.181 40.1043C334.043 40.3431 333.972 40.5704 333.938 40.6883C333.86 40.9544 333.812 41.2482 333.778 41.5082C333.707 42.0535 333.664 42.756 333.662 43.511L335.662 43.5176L337.662 43.5241C337.664 42.8935 337.7 42.3648 337.744 42.0255C337.768 41.8432 337.786 41.7813 337.78 41.8022C337.776 41.8131 337.767 41.8431 337.751 41.8862C337.736 41.9254 337.703 42.0053 337.645 42.1046C337.596 42.1905 337.477 42.3817 337.26 42.5719C337.035 42.7694 336.592 43.0577 335.963 43.0557L335.969 41.0557ZM335.662 43.5176L333.662 43.511C333.659 44.2661 333.698 44.969 333.765 45.5149C333.798 45.7753 333.845 46.0694 333.92 46.3359C333.954 46.4541 334.023 46.6818 334.16 46.9214C334.227 47.0398 334.363 47.2564 334.597 47.4646C334.84 47.6801 335.3 47.9803 335.948 47.9824L335.954 45.9824L335.96 43.9824C336.589 43.9845 337.031 44.2761 337.255 44.4752C337.47 44.6668 337.588 44.8588 337.637 44.945C337.694 45.0446 337.726 45.1247 337.741 45.1639C337.757 45.2071 337.766 45.2371 337.769 45.2479C337.775 45.2688 337.758 45.2066 337.735 45.024C337.693 44.684 337.66 44.1548 337.662 43.5241L335.662 43.5176ZM335.954 45.9824L335.976 47.9823C336.62 47.9755 337.074 47.6753 337.312 47.4635C337.543 47.2578 337.678 47.0443 337.746 46.927C337.881 46.6897 337.952 46.4639 337.986 46.346C338.063 46.0804 338.111 45.7871 338.145 45.5271C338.216 44.9821 338.258 44.2802 338.26 43.5261L336.26 43.5195L334.26 43.513C334.258 44.1433 334.222 44.672 334.178 45.012C334.155 45.1944 334.137 45.2571 334.143 45.2372C334.146 45.2267 334.154 45.1972 334.171 45.1546C334.186 45.116 334.218 45.0371 334.274 44.9389C334.323 44.8539 334.44 44.665 334.652 44.4759C334.871 44.2807 335.307 43.9891 335.932 43.9825L335.954 45.9824ZM336.26 43.5195L338.26 43.5261C338.263 42.772 338.225 42.0701 338.157 41.5248C338.125 41.2646 338.078 40.9711 338.003 40.705C337.97 40.5868 337.901 40.3606 337.766 40.1224C337.7 40.0046 337.566 39.7903 337.336 39.5832C337.1 39.3699 336.647 39.0672 336.004 39.056L335.969 41.0557L335.935 43.0554C335.31 43.0445 334.876 42.7505 334.658 42.5539C334.447 42.3636 334.332 42.174 334.283 42.0886C334.228 41.99 334.196 41.9109 334.181 41.8721C334.165 41.8294 334.156 41.7997 334.153 41.7891C334.148 41.769 334.165 41.8317 334.188 42.0142C334.23 42.3541 334.262 42.8827 334.26 43.513L336.26 43.5195Z" fill="#7500FF" mask="url(#path-6-outside-2_117_2694)"/>
<mask id="path-8-inside-3_117_2694" fill="white">
<path d="M338.175 29.2055L338.146 38.6742L328.939 38.644L328.968 29.1753L338.175 29.2055ZM333.605 30.5763C331.809 30.5704 330.307 32.1056 330.301 33.9531C330.296 35.8006 331.788 37.3447 333.585 37.3506C335.381 37.3564 336.882 35.8221 336.888 33.9747C336.894 32.1273 335.402 30.5823 333.605 30.5763Z"/>
</mask>
<path d="M338.175 29.2055L338.146 38.6742L328.939 38.644L328.968 29.1753L338.175 29.2055ZM333.605 30.5763C331.809 30.5704 330.307 32.1056 330.301 33.9531C330.296 35.8006 331.788 37.3447 333.585 37.3506C335.381 37.3564 336.882 35.8221 336.888 33.9747C336.894 32.1273 335.402 30.5823 333.605 30.5763Z" fill="#7500FF"/>
<path d="M338.175 29.2055L338.525 29.2066L338.526 28.8566L338.176 28.8555L338.175 29.2055ZM338.146 38.6742L338.145 39.0242L338.495 39.0253L338.496 38.6754L338.146 38.6742ZM328.939 38.644L328.589 38.6428L328.588 38.9928L328.938 38.994L328.939 38.644ZM328.968 29.1753L328.969 28.8253L328.619 28.8241L328.618 29.1741L328.968 29.1753ZM333.605 30.5763L333.607 30.2263L333.607 30.2263L333.605 30.5763ZM330.301 33.9531L329.951 33.952L329.951 33.952L330.301 33.9531ZM333.585 37.3506L333.584 37.7006L333.584 37.7006L333.585 37.3506ZM336.888 33.9747L337.238 33.9759L337.238 33.9759L336.888 33.9747ZM338.175 29.2055L337.825 29.2043L337.796 38.6731L338.146 38.6742L338.496 38.6754L338.525 29.2066L338.175 29.2055ZM338.146 38.6742L338.147 38.3242L328.94 38.294L328.939 38.644L328.938 38.994L338.145 39.0242L338.146 38.6742ZM328.939 38.644L329.289 38.6451L329.318 29.1764L328.968 29.1753L328.618 29.1741L328.589 38.6428L328.939 38.644ZM328.968 29.1753L328.967 29.5253L338.174 29.5555L338.175 29.2055L338.176 28.8555L328.969 28.8253L328.968 29.1753ZM333.605 30.5763L333.607 30.2263C331.608 30.2197 329.957 31.9205 329.951 33.952L330.301 33.9531L330.651 33.9543C330.656 32.2907 332.01 30.921 333.604 30.9263L333.605 30.5763ZM330.301 33.9531L329.951 33.952C329.945 35.9836 331.585 37.6941 333.584 37.7006L333.585 37.3506L333.586 37.0006C331.992 36.9954 330.646 35.6177 330.651 33.9542L330.301 33.9531ZM333.585 37.3506L333.584 37.7006C335.582 37.707 337.232 36.0073 337.238 33.9759L336.888 33.9747L336.538 33.9736C336.533 35.637 335.18 37.0057 333.586 37.0006L333.585 37.3506ZM336.888 33.9747L337.238 33.9759C337.244 31.9446 335.606 30.233 333.607 30.2263L333.605 30.5763L333.604 30.9263C335.198 30.9316 336.543 32.31 336.538 33.9736L336.888 33.9747Z" fill="#7500FF" mask="url(#path-8-inside-3_117_2694)"/>
<path d="M333.521 33.8305C333.592 33.8308 333.638 33.8543 333.667 33.8837C333.695 33.9136 333.72 33.964 333.72 34.0411C333.719 34.1182 333.695 34.1684 333.666 34.1981C333.637 34.2274 333.591 34.2505 333.52 34.2504C333.527 34.2505 333.523 34.2531 333.508 34.2425C333.493 34.2321 333.475 34.2137 333.456 34.1877C333.414 34.1306 333.395 34.0693 333.396 34.04C333.396 33.9862 333.41 33.9237 333.436 33.881C333.458 33.8456 333.482 33.8303 333.521 33.8305Z" fill="#7500FF" stroke="#7500FF" stroke-width="0.35"/>
<path d="M333.521 34.0404L332.02 35.1134L333.521 34.0404Z" fill="#7500FF"/>
<path d="M333.521 34.0404L332.02 35.1134" stroke="#7500FF" stroke-width="0.35"/>
<path d="M333.52 34.0425L335.312 35.6651L333.52 34.0425Z" fill="#7500FF"/>
<path d="M333.52 34.0425L335.312 35.6651" stroke="#7500FF" stroke-width="0.35"/>
<path d="M339.389 32.5795L339.37 38.93L337.597 38.9242L337.617 32.5736L339.389 32.5795Z" fill="#7500FF" stroke="#7500FF" stroke-width="0.5"/>
<path d="M329.508 32.5474L329.489 38.8979L327.716 38.8921L327.736 32.5415L329.508 32.5474Z" fill="#7500FF" stroke="#7500FF" stroke-width="0.5"/>
<path d="M328.835 30.1178L329.501 32.8914L329.574 33.2003L327.591 33.1938L327.667 32.8854L328.349 30.1162L328.835 30.1178Z" fill="#7500FF" stroke="#7500FF" stroke-width="0.5"/>
<path d="M338.791 30.1514L339.455 32.9251L339.53 33.234L337.546 33.2275L337.622 32.9191L338.305 30.1499L338.791 30.1514Z" fill="#7500FF" stroke="#7500FF" stroke-width="0.5"/>
<path d="M340.305 38.4304L340.084 38.8056L339.407 39.9577L339.334 40.0815L327.826 40.0438L327.753 39.9302L327.008 38.7725L326.759 38.3859L340.305 38.4304Z" fill="#7500FF" stroke="#7500FF" stroke-width="0.5"/>
<path d="M328.593 29.9254C328.708 29.9258 328.839 29.9566 328.94 30.0603C329.039 30.1628 329.066 30.2947 329.066 30.4084C329.065 30.522 329.037 30.6531 328.938 30.7547C328.837 30.8578 328.705 30.8877 328.59 30.8873C328.419 30.8868 328.296 30.7962 328.224 30.7035C328.158 30.6184 328.116 30.5075 328.116 30.4053C328.117 30.2916 328.145 30.1598 328.244 30.0581C328.345 29.955 328.477 29.925 328.593 29.9254Z" fill="#7500FF" stroke="#7500FF" stroke-width="0.5"/>
<path d="M338.547 29.9578C338.662 29.9581 338.794 29.989 338.894 30.0927C338.993 30.1951 339.02 30.327 339.02 30.4408C339.02 30.5544 338.991 30.6854 338.892 30.787C338.791 30.8901 338.659 30.9201 338.544 30.9197C338.373 30.9191 338.25 30.8286 338.178 30.7359C338.113 30.6507 338.071 30.5398 338.071 30.4377C338.071 30.3239 338.099 30.1922 338.199 30.0904C338.3 29.9873 338.432 29.9574 338.547 29.9578Z" fill="#7500FF" stroke="#7500FF" stroke-width="0.5"/>
<path d="M302.848 12.8493L302.799 28.7252C305.056 26.5488 308.589 25.1856 312.215 25.1975C316.045 25.2101 319.37 26.3798 321.745 28.593C324.129 30.8148 325.465 34.0044 325.453 37.865L325.371 64.5768L314.013 64.5395L314.086 40.984C314.094 38.3078 313.648 36.8367 312.922 36.0143C312.229 35.2283 311.077 34.8149 309.041 34.8082C307.043 34.8018 305.514 35.6439 304.457 37.01C303.381 38.4012 302.763 40.3833 302.756 42.6402L302.689 64.5024L291.333 64.4651L291.492 12.812L302.848 12.8493Z" fill="#7500FF" stroke="#7500FF" stroke-width="2"/>
<path d="M353.672 12.8728L353.514 64.5259L342.157 64.4887L342.316 12.8356L353.672 12.8728ZM366.922 12.9163L366.764 64.5694L355.406 64.5321L355.565 12.8791L366.922 12.9163Z" fill="#7500FF" stroke="#7500FF" stroke-width="2"/>
</g>
<mask id="path-24-outside-4_117_2694" maskUnits="userSpaceOnUse" x="7.99988" y="11.921" width="416" height="53" fill="black">
<rect fill="white" x="7.99988" y="11.921" width="416" height="53"/>
<path d="M41.1959 63.0317H31.7392V40.288C31.7392 37.6035 31.258 35.7393 30.2955 34.6953C29.3811 33.6016 27.8411 33.0548 25.6754 33.0548C23.4135 33.0548 21.6329 33.8999 20.3335 35.5902C19.0341 37.2804 18.3844 39.4181 18.3844 42.0031V63.0317H8.99988V12.921H18.3844V31.116C19.0581 29.4755 20.3816 28.1084 22.3547 27.0147C24.3279 25.921 26.4935 25.3741 28.8517 25.3741C32.5574 25.3741 35.5412 26.4181 37.8031 28.5061C40.065 30.594 41.1959 33.4525 41.1959 37.0815V63.0317Z"/>
<path d="M66.8178 49.0872L66.8899 45.0605C66.1199 45.8559 64.0987 46.5767 60.8261 47.223C58.1792 47.7201 56.3264 48.4161 55.2676 49.3109C54.257 50.1561 53.7517 51.374 53.7517 52.9649C53.7517 55.6991 55.2676 57.0662 58.2995 57.0662C60.7058 57.0662 62.703 56.2956 64.2912 54.7545C65.9274 53.1637 66.7696 51.2746 66.8178 49.0872ZM76.2744 63.0317H67.5396C67.2509 62.0872 67.0584 60.9935 66.9621 59.7507C64.4596 62.5843 60.8742 64.0011 56.2061 64.0011C52.3079 64.0011 49.3481 63.1063 47.3269 61.3166C45.3537 59.4772 44.3671 57.0165 44.3671 53.9342C44.3671 51.896 44.6559 50.1312 45.2334 48.6398C45.8109 47.1484 46.4847 45.9802 47.2547 45.1351C48.0728 44.2899 49.3 43.5691 50.9363 42.9725C52.5726 42.376 54.0163 41.9534 55.2676 41.7049C56.5189 41.4563 58.3236 41.158 60.6817 40.81C62.9918 40.462 64.5559 40.0146 65.374 39.4678C66.2402 38.8712 66.6734 37.9267 66.6734 36.6341C66.6734 35.441 66.1199 34.5213 65.0131 33.8751C63.9543 33.1791 62.5105 32.8311 60.6817 32.8311C56.8798 32.8311 54.7382 34.6456 54.257 38.2747H45.5222C45.6665 29.6743 50.8641 25.3741 61.1149 25.3741C66.5531 25.3741 70.4272 26.5921 72.7372 29.028C75.0954 31.4143 76.2744 35.0185 76.2744 39.8406V63.0317Z"/>
<path d="M102.936 49.7584H112.392C111.911 53.984 110.155 57.4142 107.123 60.0489C104.091 62.6837 100.409 64.0011 96.0778 64.0011C91.0727 64.0011 87.1023 62.3109 84.1667 58.9304C81.231 55.5499 79.7632 50.6532 79.7632 44.2402C79.7632 37.877 81.231 33.1542 84.1667 30.072C87.1023 26.9401 91.169 25.3741 96.3665 25.3741C100.987 25.3741 104.74 26.6418 107.628 29.1772C110.564 31.7125 112.176 35.1427 112.465 39.4678H103.008C102.767 37.5787 102.021 36.1121 100.77 35.0682C99.5669 33.9745 98.075 33.4276 96.2943 33.4276C91.4818 33.4276 89.0755 36.9573 89.0755 44.0165C89.0755 47.7947 89.7252 50.7278 91.0246 52.8157C92.3721 54.8539 94.0324 55.8731 96.0056 55.8731C97.8825 55.8731 99.4466 55.3511 100.698 54.3071C101.997 53.2134 102.743 51.6972 102.936 49.7584Z"/>
<path d="M147.508 63.0317H136.969L129.172 46.5519L124.624 51.3989V63.0317H115.168V12.921H124.624V40.288L136.319 26.3435H147.797L135.886 39.8406L147.508 63.0317Z"/>
<path d="M189.779 48.4161V38.8712H198.513V49.3109C198.513 53.4868 197.286 56.9916 194.832 59.8252C192.425 62.6091 188.864 64.0011 184.148 64.0011C179.239 64.0011 175.581 62.6091 173.175 59.8252C170.817 57.0413 169.638 53.5117 169.638 49.2364V16.4258H178.878V26.3435H198.513V33.2039H178.878V48.2669C178.878 53.1388 180.683 55.5748 184.292 55.5748C187.95 55.5748 189.779 53.1885 189.779 48.4161Z"/>
<path d="M234.544 63.0317H225.088V40.288C225.088 37.6035 224.606 35.7393 223.644 34.6953C222.73 33.6016 221.19 33.0548 219.024 33.0548C216.762 33.0548 214.981 33.8999 213.682 35.5901C212.383 37.2804 211.733 39.418 211.733 42.0031V63.0317H202.348V12.921H211.733V31.116C212.407 29.4754 213.73 28.1083 215.703 27.0147C217.676 25.921 219.842 25.3741 222.2 25.3741C225.906 25.3741 228.89 26.4181 231.152 28.506C233.413 30.594 234.544 33.4525 234.544 37.0815V63.0317Z"/>
<path d="M247.533 41.1083H262.043C261.995 38.5232 261.249 36.5347 259.805 35.1427C258.41 33.7508 256.725 33.0548 254.752 33.0548C252.827 33.0548 251.191 33.7756 249.843 35.2173C248.496 36.659 247.726 38.6226 247.533 41.1083ZM271.716 47.223H247.244C247.389 50.0069 248.159 52.2191 249.555 53.8597C250.998 55.5002 252.875 56.3204 255.185 56.3204C256.725 56.3204 258.073 55.9476 259.228 55.2019C260.431 54.4562 261.201 53.462 261.538 52.2191H271.211C270.152 55.9476 268.227 58.8558 265.436 60.9438C262.693 62.982 259.42 64.0011 255.618 64.0011C243.779 64.0011 237.86 57.3396 237.86 44.0165C237.86 38.2995 239.376 33.7756 242.408 30.4448C245.44 27.0644 249.651 25.3741 255.041 25.3741C266.158 25.3741 271.716 32.6571 271.716 47.223Z"/>
<path d="M396.011 63.0317H386.626V12.921H396.011V63.0317Z"/>
<path d="M409.335 63.0317H399.95V12.921H409.335V63.0317Z"/>
<path d="M423 63.0317H413.615V12.921H423V63.0317Z"/>
</mask>
<path d="M41.1959 63.0317H31.7392V40.288C31.7392 37.6035 31.258 35.7393 30.2955 34.6953C29.3811 33.6016 27.8411 33.0548 25.6754 33.0548C23.4135 33.0548 21.6329 33.8999 20.3335 35.5902C19.0341 37.2804 18.3844 39.4181 18.3844 42.0031V63.0317H8.99988V12.921H18.3844V31.116C19.0581 29.4755 20.3816 28.1084 22.3547 27.0147C24.3279 25.921 26.4935 25.3741 28.8517 25.3741C32.5574 25.3741 35.5412 26.4181 37.8031 28.5061C40.065 30.594 41.1959 33.4525 41.1959 37.0815V63.0317Z" fill="white" fill-opacity="0.98"/>
<path d="M66.8178 49.0872L66.8899 45.0605C66.1199 45.8559 64.0987 46.5767 60.8261 47.223C58.1792 47.7201 56.3264 48.4161 55.2676 49.3109C54.257 50.1561 53.7517 51.374 53.7517 52.9649C53.7517 55.6991 55.2676 57.0662 58.2995 57.0662C60.7058 57.0662 62.703 56.2956 64.2912 54.7545C65.9274 53.1637 66.7696 51.2746 66.8178 49.0872ZM76.2744 63.0317H67.5396C67.2509 62.0872 67.0584 60.9935 66.9621 59.7507C64.4596 62.5843 60.8742 64.0011 56.2061 64.0011C52.3079 64.0011 49.3481 63.1063 47.3269 61.3166C45.3537 59.4772 44.3671 57.0165 44.3671 53.9342C44.3671 51.896 44.6559 50.1312 45.2334 48.6398C45.8109 47.1484 46.4847 45.9802 47.2547 45.1351C48.0728 44.2899 49.3 43.5691 50.9363 42.9725C52.5726 42.376 54.0163 41.9534 55.2676 41.7049C56.5189 41.4563 58.3236 41.158 60.6817 40.81C62.9918 40.462 64.5559 40.0146 65.374 39.4678C66.2402 38.8712 66.6734 37.9267 66.6734 36.6341C66.6734 35.441 66.1199 34.5213 65.0131 33.8751C63.9543 33.1791 62.5105 32.8311 60.6817 32.8311C56.8798 32.8311 54.7382 34.6456 54.257 38.2747H45.5222C45.6665 29.6743 50.8641 25.3741 61.1149 25.3741C66.5531 25.3741 70.4272 26.5921 72.7372 29.028C75.0954 31.4143 76.2744 35.0185 76.2744 39.8406V63.0317Z" fill="white" fill-opacity="0.98"/>
<path d="M102.936 49.7584H112.392C111.911 53.984 110.155 57.4142 107.123 60.0489C104.091 62.6837 100.409 64.0011 96.0778 64.0011C91.0727 64.0011 87.1023 62.3109 84.1667 58.9304C81.231 55.5499 79.7632 50.6532 79.7632 44.2402C79.7632 37.877 81.231 33.1542 84.1667 30.072C87.1023 26.9401 91.169 25.3741 96.3665 25.3741C100.987 25.3741 104.74 26.6418 107.628 29.1772C110.564 31.7125 112.176 35.1427 112.465 39.4678H103.008C102.767 37.5787 102.021 36.1121 100.77 35.0682C99.5669 33.9745 98.075 33.4276 96.2943 33.4276C91.4818 33.4276 89.0755 36.9573 89.0755 44.0165C89.0755 47.7947 89.7252 50.7278 91.0246 52.8157C92.3721 54.8539 94.0324 55.8731 96.0056 55.8731C97.8825 55.8731 99.4466 55.3511 100.698 54.3071C101.997 53.2134 102.743 51.6972 102.936 49.7584Z" fill="white" fill-opacity="0.98"/>
<path d="M147.508 63.0317H136.969L129.172 46.5519L124.624 51.3989V63.0317H115.168V12.921H124.624V40.288L136.319 26.3435H147.797L135.886 39.8406L147.508 63.0317Z" fill="white" fill-opacity="0.98"/>
<path d="M189.779 48.4161V38.8712H198.513V49.3109C198.513 53.4868 197.286 56.9916 194.832 59.8252C192.425 62.6091 188.864 64.0011 184.148 64.0011C179.239 64.0011 175.581 62.6091 173.175 59.8252C170.817 57.0413 169.638 53.5117 169.638 49.2364V16.4258H178.878V26.3435H198.513V33.2039H178.878V48.2669C178.878 53.1388 180.683 55.5748 184.292 55.5748C187.95 55.5748 189.779 53.1885 189.779 48.4161Z" fill="white" fill-opacity="0.98"/>
<path d="M234.544 63.0317H225.088V40.288C225.088 37.6035 224.606 35.7393 223.644 34.6953C222.73 33.6016 221.19 33.0548 219.024 33.0548C216.762 33.0548 214.981 33.8999 213.682 35.5901C212.383 37.2804 211.733 39.418 211.733 42.0031V63.0317H202.348V12.921H211.733V31.116C212.407 29.4754 213.73 28.1083 215.703 27.0147C217.676 25.921 219.842 25.3741 222.2 25.3741C225.906 25.3741 228.89 26.4181 231.152 28.506C233.413 30.594 234.544 33.4525 234.544 37.0815V63.0317Z" fill="white" fill-opacity="0.98"/>
<path d="M247.533 41.1083H262.043C261.995 38.5232 261.249 36.5347 259.805 35.1427C258.41 33.7508 256.725 33.0548 254.752 33.0548C252.827 33.0548 251.191 33.7756 249.843 35.2173C248.496 36.659 247.726 38.6226 247.533 41.1083ZM271.716 47.223H247.244C247.389 50.0069 248.159 52.2191 249.555 53.8597C250.998 55.5002 252.875 56.3204 255.185 56.3204C256.725 56.3204 258.073 55.9476 259.228 55.2019C260.431 54.4562 261.201 53.462 261.538 52.2191H271.211C270.152 55.9476 268.227 58.8558 265.436 60.9438C262.693 62.982 259.42 64.0011 255.618 64.0011C243.779 64.0011 237.86 57.3396 237.86 44.0165C237.86 38.2995 239.376 33.7756 242.408 30.4448C245.44 27.0644 249.651 25.3741 255.041 25.3741C266.158 25.3741 271.716 32.6571 271.716 47.223Z" fill="white" fill-opacity="0.98"/>
<path d="M396.011 63.0317H386.626V12.921H396.011V63.0317Z" fill="white" fill-opacity="0.98"/>
<path d="M409.335 63.0317H399.95V12.921H409.335V63.0317Z" fill="white" fill-opacity="0.98"/>
<path d="M423 63.0317H413.615V12.921H423V63.0317Z" fill="white" fill-opacity="0.98"/>
<path d="M41.1959 63.0317H31.7392V40.288C31.7392 37.6035 31.258 35.7393 30.2955 34.6953C29.3811 33.6016 27.8411 33.0548 25.6754 33.0548C23.4135 33.0548 21.6329 33.8999 20.3335 35.5902C19.0341 37.2804 18.3844 39.4181 18.3844 42.0031V63.0317H8.99988V12.921H18.3844V31.116C19.0581 29.4755 20.3816 28.1084 22.3547 27.0147C24.3279 25.921 26.4935 25.3741 28.8517 25.3741C32.5574 25.3741 35.5412 26.4181 37.8031 28.5061C40.065 30.594 41.1959 33.4525 41.1959 37.0815V63.0317Z" stroke="#7500FF" mask="url(#path-24-outside-4_117_2694)"/>
<path d="M66.8178 49.0872L66.8899 45.0605C66.1199 45.8559 64.0987 46.5767 60.8261 47.223C58.1792 47.7201 56.3264 48.4161 55.2676 49.3109C54.257 50.1561 53.7517 51.374 53.7517 52.9649C53.7517 55.6991 55.2676 57.0662 58.2995 57.0662C60.7058 57.0662 62.703 56.2956 64.2912 54.7545C65.9274 53.1637 66.7696 51.2746 66.8178 49.0872ZM76.2744 63.0317H67.5396C67.2509 62.0872 67.0584 60.9935 66.9621 59.7507C64.4596 62.5843 60.8742 64.0011 56.2061 64.0011C52.3079 64.0011 49.3481 63.1063 47.3269 61.3166C45.3537 59.4772 44.3671 57.0165 44.3671 53.9342C44.3671 51.896 44.6559 50.1312 45.2334 48.6398C45.8109 47.1484 46.4847 45.9802 47.2547 45.1351C48.0728 44.2899 49.3 43.5691 50.9363 42.9725C52.5726 42.376 54.0163 41.9534 55.2676 41.7049C56.5189 41.4563 58.3236 41.158 60.6817 40.81C62.9918 40.462 64.5559 40.0146 65.374 39.4678C66.2402 38.8712 66.6734 37.9267 66.6734 36.6341C66.6734 35.441 66.1199 34.5213 65.0131 33.8751C63.9543 33.1791 62.5105 32.8311 60.6817 32.8311C56.8798 32.8311 54.7382 34.6456 54.257 38.2747H45.5222C45.6665 29.6743 50.8641 25.3741 61.1149 25.3741C66.5531 25.3741 70.4272 26.5921 72.7372 29.028C75.0954 31.4143 76.2744 35.0185 76.2744 39.8406V63.0317Z" stroke="#7500FF" mask="url(#path-24-outside-4_117_2694)"/>
<path d="M102.936 49.7584H112.392C111.911 53.984 110.155 57.4142 107.123 60.0489C104.091 62.6837 100.409 64.0011 96.0778 64.0011C91.0727 64.0011 87.1023 62.3109 84.1667 58.9304C81.231 55.5499 79.7632 50.6532 79.7632 44.2402C79.7632 37.877 81.231 33.1542 84.1667 30.072C87.1023 26.9401 91.169 25.3741 96.3665 25.3741C100.987 25.3741 104.74 26.6418 107.628 29.1772C110.564 31.7125 112.176 35.1427 112.465 39.4678H103.008C102.767 37.5787 102.021 36.1121 100.77 35.0682C99.5669 33.9745 98.075 33.4276 96.2943 33.4276C91.4818 33.4276 89.0755 36.9573 89.0755 44.0165C89.0755 47.7947 89.7252 50.7278 91.0246 52.8157C92.3721 54.8539 94.0324 55.8731 96.0056 55.8731C97.8825 55.8731 99.4466 55.3511 100.698 54.3071C101.997 53.2134 102.743 51.6972 102.936 49.7584Z" stroke="#7500FF" mask="url(#path-24-outside-4_117_2694)"/>
<path d="M147.508 63.0317H136.969L129.172 46.5519L124.624 51.3989V63.0317H115.168V12.921H124.624V40.288L136.319 26.3435H147.797L135.886 39.8406L147.508 63.0317Z" stroke="#7500FF" mask="url(#path-24-outside-4_117_2694)"/>
<path d="M189.779 48.4161V38.8712H198.513V49.3109C198.513 53.4868 197.286 56.9916 194.832 59.8252C192.425 62.6091 188.864 64.0011 184.148 64.0011C179.239 64.0011 175.581 62.6091 173.175 59.8252C170.817 57.0413 169.638 53.5117 169.638 49.2364V16.4258H178.878V26.3435H198.513V33.2039H178.878V48.2669C178.878 53.1388 180.683 55.5748 184.292 55.5748C187.95 55.5748 189.779 53.1885 189.779 48.4161Z" stroke="#7500FF" mask="url(#path-24-outside-4_117_2694)"/>
<path d="M234.544 63.0317H225.088V40.288C225.088 37.6035 224.606 35.7393 223.644 34.6953C222.73 33.6016 221.19 33.0548 219.024 33.0548C216.762 33.0548 214.981 33.8999 213.682 35.5901C212.383 37.2804 211.733 39.418 211.733 42.0031V63.0317H202.348V12.921H211.733V31.116C212.407 29.4754 213.73 28.1083 215.703 27.0147C217.676 25.921 219.842 25.3741 222.2 25.3741C225.906 25.3741 228.89 26.4181 231.152 28.506C233.413 30.594 234.544 33.4525 234.544 37.0815V63.0317Z" stroke="#7500FF" mask="url(#path-24-outside-4_117_2694)"/>
<path d="M247.533 41.1083H262.043C261.995 38.5232 261.249 36.5347 259.805 35.1427C258.41 33.7508 256.725 33.0548 254.752 33.0548C252.827 33.0548 251.191 33.7756 249.843 35.2173C248.496 36.659 247.726 38.6226 247.533 41.1083ZM271.716 47.223H247.244C247.389 50.0069 248.159 52.2191 249.555 53.8597C250.998 55.5002 252.875 56.3204 255.185 56.3204C256.725 56.3204 258.073 55.9476 259.228 55.2019C260.431 54.4562 261.201 53.462 261.538 52.2191H271.211C270.152 55.9476 268.227 58.8558 265.436 60.9438C262.693 62.982 259.42 64.0011 255.618 64.0011C243.779 64.0011 237.86 57.3396 237.86 44.0165C237.86 38.2995 239.376 33.7756 242.408 30.4448C245.44 27.0644 249.651 25.3741 255.041 25.3741C266.158 25.3741 271.716 32.6571 271.716 47.223Z" stroke="#7500FF" mask="url(#path-24-outside-4_117_2694)"/>
<path d="M396.011 63.0317H386.626V12.921H396.011V63.0317Z" stroke="#7500FF" mask="url(#path-24-outside-4_117_2694)"/>
<path d="M409.335 63.0317H399.95V12.921H409.335V63.0317Z" stroke="#7500FF" mask="url(#path-24-outside-4_117_2694)"/>
<path d="M423 63.0317H413.615V12.921H423V63.0317Z" stroke="#7500FF" mask="url(#path-24-outside-4_117_2694)"/>
<mask id="path-25-inside-5_117_2694" fill="white">
<path d="M333.668 9.94641L333.519 9.94592L333.512 12.2555L333.661 12.256L333.668 9.94641Z"/>
</mask>
<path d="M333.668 9.94641L333.519 9.94592L333.512 12.2555L333.661 12.256L333.668 9.94641Z" fill="white" fill-opacity="0.98"/>
<path d="M333.668 9.94641L334.168 9.94805L334.17 9.44805L333.67 9.44641L333.668 9.94641ZM333.519 9.94592L333.52 9.44593L333.02 9.44428L333.019 9.94428L333.519 9.94592ZM333.512 12.2555L333.012 12.2539L333.01 12.7539L333.51 12.7555L333.512 12.2555ZM333.661 12.256L333.659 12.756L334.159 12.7577L334.161 12.2577L333.661 12.256ZM333.668 9.94641L333.67 9.44641L333.52 9.44593L333.519 9.94592L333.517 10.4459L333.667 10.4464L333.668 9.94641ZM333.519 9.94592L333.019 9.94428L333.012 12.2539L333.512 12.2555L334.012 12.2572L334.019 9.94756L333.519 9.94592ZM333.512 12.2555L333.51 12.7555L333.659 12.756L333.661 12.256L333.662 11.756L333.513 11.7555L333.512 12.2555ZM333.661 12.256L334.161 12.2577L334.168 9.94805L333.668 9.94641L333.168 9.94477L333.161 12.2544L333.661 12.256Z" fill="#7500FF" mask="url(#path-25-inside-5_117_2694)"/>
<path d="M336.268 8.28049L336.264 9.70528L333.77 9.6971L333.774 8.2723L336.268 8.28049Z" fill="white" fill-opacity="0.98" stroke="#7500FF" stroke-width="0.5"/>
<path d="M337.848 28.9543L329.296 28.9263L333.585 13.2079L337.848 28.9543Z" fill="white" fill-opacity="0.98" stroke="#7500FF" stroke-width="0.5"/>
<path d="M333.862 11.891L333.857 13.7005L333.383 13.6989L333.388 11.8894L333.862 11.891Z" fill="white" fill-opacity="0.98" stroke="#7500FF" stroke-width="0.5"/>
<mask id="path-30-inside-6_117_2694" fill="white">
<path d="M338.143 39.8294L338.07 63.4631L328.863 63.4329L328.936 39.7992L338.143 39.8294ZM330.878 41.039C330.729 41.0398 330.576 42.116 330.572 43.5009C330.568 44.8857 330.714 45.9639 330.863 45.9657C331.013 45.9662 331.166 44.8885 331.171 43.5028C331.175 42.1172 331.028 41.0395 330.878 41.039ZM332.6 41.0446C332.45 41.0454 332.298 42.1217 332.294 43.5065C332.289 44.8914 332.435 45.9696 332.585 45.9714C332.735 45.9718 332.888 44.8942 332.892 43.5085C332.897 42.1228 332.75 41.0451 332.6 41.0446ZM334.323 41.0503C334.173 41.0498 334.02 42.1265 334.015 43.5122C334.011 44.8979 334.158 45.9765 334.308 45.977C334.457 45.9762 334.61 44.899 334.614 43.5141C334.618 42.1293 334.472 41.0521 334.323 41.0503ZM335.969 41.0557C335.819 41.0552 335.666 42.1319 335.662 43.5176C335.658 44.9033 335.804 45.9819 335.954 45.9824C336.104 45.9808 336.256 44.9039 336.26 43.5195C336.265 42.1353 336.119 41.0583 335.969 41.0557Z"/>
</mask>
<path d="M338.143 39.8294L338.07 63.4631L328.863 63.4329L328.936 39.7992L338.143 39.8294ZM330.878 41.039C330.729 41.0398 330.576 42.116 330.572 43.5009C330.568 44.8857 330.714 45.9639 330.863 45.9657C331.013 45.9662 331.166 44.8885 331.171 43.5028C331.175 42.1172 331.028 41.0395 330.878 41.039ZM332.6 41.0446C332.45 41.0454 332.298 42.1217 332.294 43.5065C332.289 44.8914 332.435 45.9696 332.585 45.9714C332.735 45.9718 332.888 44.8942 332.892 43.5085C332.897 42.1228 332.75 41.0451 332.6 41.0446ZM334.323 41.0503C334.173 41.0498 334.02 42.1265 334.015 43.5122C334.011 44.8979 334.158 45.9765 334.308 45.977C334.457 45.9762 334.61 44.899 334.614 43.5141C334.618 42.1293 334.472 41.0521 334.323 41.0503ZM335.969 41.0557C335.819 41.0552 335.666 42.1319 335.662 43.5176C335.658 44.9033 335.804 45.9819 335.954 45.9824C336.104 45.9808 336.256 44.9039 336.26 43.5195C336.265 42.1353 336.119 41.0583 335.969 41.0557Z" fill="white" fill-opacity="0.98"/>
<path d="M338.143 39.8294L338.743 39.8314L338.745 39.2314L338.145 39.2294L338.143 39.8294ZM338.07 63.4631L338.068 64.0631L338.668 64.065L338.67 63.465L338.07 63.4631ZM328.863 63.4329L328.263 63.4309L328.261 64.0309L328.861 64.0329L328.863 63.4329ZM328.936 39.7992L328.938 39.1992L328.338 39.1972L328.336 39.7972L328.936 39.7992ZM330.878 41.039L330.88 40.439L330.875 40.439L330.878 41.039ZM330.572 43.5009L329.972 43.4989L329.972 43.4989L330.572 43.5009ZM330.863 45.9657L330.856 46.5657L330.861 46.5657L330.863 45.9657ZM331.171 43.5028L331.771 43.5048L331.771 43.5048L331.171 43.5028ZM332.6 41.0446L332.602 40.4446L332.597 40.4446L332.6 41.0446ZM332.294 43.5065L331.694 43.5045L331.694 43.5046L332.294 43.5065ZM332.585 45.9714L332.578 46.5713L332.583 46.5714L332.585 45.9714ZM332.892 43.5085L333.492 43.5105L333.492 43.5104L332.892 43.5085ZM334.323 41.0503L334.33 40.4503L334.325 40.4503L334.323 41.0503ZM334.015 43.5122L333.415 43.5102L333.415 43.5102L334.015 43.5122ZM334.308 45.977L334.306 46.577L334.311 46.577L334.308 45.977ZM334.614 43.5141L335.214 43.5161L335.214 43.5161L334.614 43.5141ZM335.969 41.0557L335.979 40.4557L335.971 40.4557L335.969 41.0557ZM335.662 43.5176L335.062 43.5156L335.062 43.5156L335.662 43.5176ZM335.954 45.9824L335.952 46.5825L335.96 46.5824L335.954 45.9824ZM336.26 43.5195L336.86 43.5215L336.86 43.5215L336.26 43.5195ZM338.143 39.8294L337.543 39.8274L337.47 63.4611L338.07 63.4631L338.67 63.465L338.743 39.8314L338.143 39.8294ZM338.07 63.4631L338.072 62.8631L328.865 62.8329L328.863 63.4329L328.861 64.0329L338.068 64.0631L338.07 63.4631ZM328.863 63.4329L329.463 63.4348L329.536 39.8012L328.936 39.7992L328.336 39.7972L328.263 63.4309L328.863 63.4329ZM328.936 39.7992L328.934 40.3992L338.141 40.4294L338.143 39.8294L338.145 39.2294L328.938 39.1992L328.936 39.7992ZM330.878 41.039L330.875 40.439C330.675 40.4401 330.531 40.5327 330.453 40.6023C330.376 40.6699 330.329 40.7428 330.302 40.7894C330.248 40.8833 330.214 40.9844 330.192 41.0627C330.144 41.2283 330.106 41.4408 330.076 41.6736C330.014 42.1467 329.974 42.7879 329.972 43.4989L330.572 43.5009L331.172 43.5028C331.174 42.829 331.212 42.2397 331.266 41.8282C331.293 41.6187 331.321 41.4755 331.344 41.3958C331.357 41.3514 331.36 41.3576 331.343 41.387C331.335 41.4014 331.306 41.4497 331.248 41.5008C331.188 41.5538 331.063 41.638 330.882 41.639L330.878 41.039ZM330.572 43.5009L329.972 43.4989C329.97 44.2099 330.006 44.8516 330.064 45.3253C330.093 45.5584 330.13 45.7713 330.176 45.9372C330.199 46.0157 330.232 46.1171 330.285 46.2114C330.312 46.2581 330.359 46.3313 330.435 46.3995C330.513 46.4696 330.656 46.5633 330.856 46.5657L330.863 45.9657L330.87 45.3657C331.052 45.3679 331.176 45.453 331.236 45.5064C331.293 45.5579 331.322 45.6065 331.33 45.6208C331.347 45.6504 331.344 45.6564 331.332 45.612C331.309 45.5319 331.281 45.3884 331.255 45.1786C331.205 44.7665 331.17 44.1767 331.172 43.5028L330.572 43.5009ZM330.863 45.9657L330.861 46.5657C331.062 46.5664 331.207 46.4744 331.287 46.4044C331.364 46.3367 331.412 46.2634 331.439 46.2168C331.493 46.1227 331.527 46.0212 331.55 45.9429C331.598 45.7773 331.636 45.5646 331.666 45.3316C331.728 44.8582 331.768 44.2163 331.771 43.5048L331.171 43.5028L330.571 43.5009C330.569 44.1751 330.53 44.7648 330.476 45.1765C330.449 45.3862 330.421 45.5294 330.398 45.609C330.385 45.6533 330.382 45.6468 330.4 45.6169C330.408 45.6024 330.437 45.5536 330.496 45.5023C330.557 45.4488 330.683 45.3651 330.865 45.3657L330.863 45.9657ZM331.171 43.5028L331.771 43.5048C331.773 42.7933 331.736 42.1514 331.678 41.6778C331.649 41.4448 331.612 41.2319 331.565 41.066C331.543 40.9876 331.509 40.8859 331.456 40.7915C331.429 40.7446 331.382 40.6711 331.305 40.6029C331.225 40.5324 331.081 40.4396 330.88 40.439L330.878 41.039L330.877 41.639C330.695 41.6384 330.569 41.5541 330.508 41.5001C330.45 41.4484 330.421 41.3994 330.413 41.3848C330.396 41.3548 330.398 41.3483 330.411 41.3926C330.433 41.4722 330.461 41.6155 330.487 41.8251C330.538 42.2369 330.573 42.8267 330.571 43.5009L331.171 43.5028ZM332.6 41.0446L332.597 40.4446C332.397 40.4457 332.253 40.5383 332.174 40.6079C332.098 40.6755 332.051 40.7484 332.024 40.795C331.97 40.8889 331.936 40.9901 331.913 41.0684C331.865 41.2339 331.828 41.4465 331.797 41.6793C331.736 42.1523 331.696 42.7936 331.694 43.5045L332.294 43.5065L332.894 43.5085C332.896 42.8346 332.934 42.2453 332.987 41.8339C333.015 41.6244 333.043 41.4811 333.066 41.4014C333.079 41.3571 333.081 41.3632 333.064 41.3927C333.056 41.4071 333.027 41.4554 332.97 41.5065C332.91 41.5595 332.785 41.6436 332.603 41.6446L332.6 41.0446ZM332.294 43.5065L331.694 43.5046C331.691 44.2155 331.728 44.8573 331.786 45.331C331.815 45.564 331.851 45.7769 331.898 45.9429C331.92 46.0213 331.954 46.1228 332.007 46.217C332.033 46.2638 332.08 46.337 332.156 46.4052C332.234 46.4753 332.378 46.5689 332.578 46.5713L332.585 45.9714L332.592 45.3714C332.773 45.3735 332.898 45.4586 332.958 45.512C333.015 45.5635 333.043 45.6121 333.051 45.6264C333.068 45.656 333.066 45.6621 333.053 45.6176C333.031 45.5376 333.003 45.3941 332.977 45.1843C332.926 44.7722 332.892 44.1824 332.894 43.5085L332.294 43.5065ZM332.585 45.9714L332.583 46.5714C332.784 46.572 332.929 46.4799 333.009 46.41C333.086 46.3423 333.134 46.269 333.161 46.2224C333.215 46.1283 333.249 46.0269 333.272 45.9486C333.32 45.783 333.358 45.5702 333.388 45.3373C333.45 44.8639 333.49 44.222 333.492 43.5105L332.892 43.5085L332.292 43.5065C332.29 44.1807 332.252 44.7705 332.198 45.1822C332.171 45.3918 332.142 45.535 332.119 45.6146C332.106 45.6589 332.104 45.6525 332.121 45.6226C332.13 45.6081 332.159 45.5593 332.217 45.508C332.278 45.4545 332.405 45.3708 332.587 45.3714L332.585 45.9714ZM332.892 43.5085L333.492 43.5104C333.494 42.799 333.458 42.157 333.399 41.6834C333.37 41.4504 333.334 41.2375 333.287 41.0716C333.265 40.9932 333.231 40.8916 333.177 40.7972C333.151 40.7504 333.103 40.6768 333.026 40.6086C332.947 40.5381 332.803 40.4453 332.602 40.4446L332.6 41.0446L332.598 41.6446C332.416 41.644 332.29 41.5596 332.23 41.5057C332.171 41.454 332.143 41.405 332.134 41.3904C332.117 41.3604 332.12 41.3539 332.132 41.3983C332.155 41.4779 332.182 41.6211 332.208 41.8308C332.259 42.2426 332.294 42.8323 332.292 43.5065L332.892 43.5085ZM334.323 41.0503L334.325 40.4503C334.124 40.4496 333.979 40.5415 333.899 40.6114C333.822 40.6792 333.774 40.7524 333.747 40.799C333.693 40.8931 333.658 40.9945 333.636 41.0728C333.588 41.2384 333.55 41.451 333.519 41.6838C333.458 42.157 333.418 42.7987 333.415 43.5102L334.015 43.5122L334.615 43.5141C334.617 42.84 334.656 42.2504 334.709 41.839C334.737 41.6295 334.765 41.4864 334.788 41.407C334.801 41.3627 334.804 41.3692 334.786 41.3991C334.778 41.4137 334.749 41.4625 334.69 41.5138C334.629 41.5673 334.503 41.6509 334.321 41.6503L334.323 41.0503ZM334.015 43.5122L333.415 43.5102C333.413 44.2217 333.45 44.8639 333.508 45.3377C333.537 45.5708 333.574 45.7838 333.621 45.9497C333.643 46.0282 333.677 46.1298 333.73 46.2243C333.757 46.2711 333.804 46.3446 333.881 46.4129C333.96 46.4833 334.105 46.5763 334.306 46.577L334.308 45.977L334.309 45.377C334.492 45.3776 334.617 45.4621 334.678 45.5161C334.736 45.5678 334.765 45.6168 334.773 45.6313C334.79 45.6613 334.788 45.6677 334.775 45.6233C334.753 45.5436 334.725 45.4002 334.699 45.1904C334.648 44.7784 334.613 44.1883 334.615 43.5141L334.015 43.5122ZM334.308 45.977L334.311 46.577C334.511 46.5759 334.655 46.4832 334.734 46.4136C334.81 46.3459 334.857 46.273 334.884 46.2265C334.938 46.1325 334.972 46.0313 334.994 45.953C335.042 45.7874 335.08 45.5747 335.11 45.3418C335.172 44.8686 335.212 44.2271 335.214 43.5161L334.614 43.5141L334.014 43.5122C334.012 44.186 333.974 44.7756 333.92 45.1873C333.893 45.397 333.864 45.5403 333.841 45.6202C333.829 45.6646 333.826 45.6585 333.843 45.629C333.851 45.6147 333.88 45.5664 333.938 45.5153C333.998 45.4622 334.123 45.378 334.304 45.377L334.308 45.977ZM334.614 43.5141L335.214 43.5161C335.216 42.8051 335.18 42.1637 335.121 41.6902C335.093 41.4572 335.056 41.2444 335.009 41.0786C334.987 41.0001 334.954 40.8987 334.9 40.8044C334.874 40.7577 334.827 40.6845 334.751 40.6164C334.673 40.5463 334.53 40.4528 334.33 40.4503L334.323 41.0503L334.315 41.6502C334.134 41.648 334.01 41.5631 333.95 41.5097C333.893 41.4582 333.864 41.4097 333.856 41.3953C333.839 41.3657 333.842 41.3596 333.854 41.404C333.877 41.4839 333.905 41.6273 333.931 41.837C333.981 42.2488 334.016 42.8383 334.014 43.5122L334.614 43.5141ZM335.969 41.0557L335.971 40.4557C335.77 40.455 335.625 40.5469 335.545 40.6169C335.468 40.6846 335.42 40.7578 335.393 40.8044C335.339 40.8985 335.305 40.9999 335.282 41.0782C335.234 41.2438 335.196 41.4564 335.166 41.6892C335.104 42.1625 335.064 42.8041 335.062 43.5156L335.662 43.5176L336.262 43.5195C336.264 42.8454 336.302 42.2559 336.356 41.8444C336.383 41.6349 336.412 41.4918 336.435 41.4124C336.448 41.3681 336.45 41.3746 336.433 41.4045C336.424 41.4191 336.395 41.4679 336.337 41.5192C336.276 41.5727 336.149 41.6563 335.967 41.6557L335.969 41.0557ZM335.662 43.5176L335.062 43.5156C335.06 44.2271 335.096 44.8693 335.155 45.3431C335.184 45.5762 335.22 45.7892 335.267 45.9551C335.289 46.0336 335.323 46.1352 335.377 46.2297C335.403 46.2765 335.451 46.35 335.527 46.4183C335.607 46.4887 335.751 46.5817 335.952 46.5824L335.954 45.9824L335.956 45.3824C336.138 45.383 336.264 45.4675 336.325 45.5215C336.383 45.5732 336.412 45.6222 336.42 45.6367C336.437 45.6667 336.434 45.6731 336.422 45.6287C336.399 45.549 336.372 45.4056 336.346 45.1958C336.295 44.7838 336.26 44.1937 336.262 43.5195L335.662 43.5176ZM335.954 45.9824L335.96 46.5824C336.16 46.5803 336.303 46.4872 336.381 46.4178C336.457 46.3503 336.504 46.2776 336.531 46.2311C336.584 46.1373 336.618 46.0363 336.641 45.9579C336.689 45.7923 336.727 45.5797 336.757 45.3468C336.818 44.8735 336.858 44.2323 336.86 43.5215L336.26 43.5195L335.66 43.5176C335.658 44.1912 335.62 44.7805 335.567 45.1922C335.54 45.4018 335.511 45.5453 335.488 45.6253C335.475 45.6697 335.473 45.6639 335.489 45.6347C335.497 45.6205 335.526 45.5725 335.583 45.5216C335.642 45.4688 335.766 45.3844 335.948 45.3824L335.954 45.9824ZM336.26 43.5195L336.86 43.5215C336.863 42.8108 336.826 42.1695 336.768 41.6961C336.739 41.4631 336.703 41.2503 336.656 41.0845C336.634 41.006 336.6 40.9047 336.547 40.8106C336.521 40.7639 336.474 40.6909 336.399 40.6229C336.321 40.5531 336.179 40.4592 335.979 40.4558L335.969 41.0557L335.959 41.6556C335.778 41.6524 335.654 41.5673 335.595 41.5142C335.539 41.4629 335.51 41.4147 335.502 41.4004C335.486 41.3711 335.488 41.3652 335.501 41.4097C335.523 41.4897 335.551 41.6332 335.577 41.8429C335.628 42.2547 335.662 42.844 335.66 43.5176L336.26 43.5195Z" fill="#7500FF" mask="url(#path-30-inside-6_117_2694)"/>
<mask id="path-32-inside-7_117_2694" fill="white">
<path d="M338.175 29.2055L338.146 38.6742L328.939 38.644L328.968 29.1753L338.175 29.2055ZM333.605 30.5763C331.809 30.5704 330.307 32.1056 330.301 33.9531C330.296 35.8006 331.788 37.3447 333.585 37.3506C335.381 37.3564 336.882 35.8221 336.888 33.9747C336.894 32.1273 335.402 30.5823 333.605 30.5763Z"/>
</mask>
<path d="M338.175 29.2055L338.146 38.6742L328.939 38.644L328.968 29.1753L338.175 29.2055ZM333.605 30.5763C331.809 30.5704 330.307 32.1056 330.301 33.9531C330.296 35.8006 331.788 37.3447 333.585 37.3506C335.381 37.3564 336.882 35.8221 336.888 33.9747C336.894 32.1273 335.402 30.5823 333.605 30.5763Z" fill="white" fill-opacity="0.98"/>
<path d="M338.175 29.2055L338.525 29.2066L338.526 28.8566L338.176 28.8555L338.175 29.2055ZM338.146 38.6742L338.145 39.0242L338.495 39.0253L338.496 38.6754L338.146 38.6742ZM328.939 38.644L328.589 38.6428L328.588 38.9928L328.938 38.994L328.939 38.644ZM328.968 29.1753L328.969 28.8253L328.619 28.8241L328.618 29.1741L328.968 29.1753ZM333.605 30.5763L333.607 30.2263L333.607 30.2263L333.605 30.5763ZM330.301 33.9531L329.951 33.952L329.951 33.952L330.301 33.9531ZM333.585 37.3506L333.584 37.7006L333.584 37.7006L333.585 37.3506ZM336.888 33.9747L337.238 33.9759L337.238 33.9759L336.888 33.9747ZM338.175 29.2055L337.825 29.2043L337.796 38.6731L338.146 38.6742L338.496 38.6754L338.525 29.2066L338.175 29.2055ZM338.146 38.6742L338.147 38.3242L328.94 38.294L328.939 38.644L328.938 38.994L338.145 39.0242L338.146 38.6742ZM328.939 38.644L329.289 38.6451L329.318 29.1764L328.968 29.1753L328.618 29.1741L328.589 38.6428L328.939 38.644ZM328.968 29.1753L328.967 29.5253L338.174 29.5555L338.175 29.2055L338.176 28.8555L328.969 28.8253L328.968 29.1753ZM333.605 30.5763L333.607 30.2263C331.608 30.2197 329.957 31.9205 329.951 33.952L330.301 33.9531L330.651 33.9543C330.656 32.2907 332.01 30.921 333.604 30.9263L333.605 30.5763ZM330.301 33.9531L329.951 33.952C329.945 35.9836 331.585 37.6941 333.584 37.7006L333.585 37.3506L333.586 37.0006C331.992 36.9954 330.646 35.6177 330.651 33.9542L330.301 33.9531ZM333.585 37.3506L333.584 37.7006C335.582 37.707 337.232 36.0073 337.238 33.9759L336.888 33.9747L336.538 33.9736C336.533 35.637 335.18 37.0057 333.586 37.0006L333.585 37.3506ZM336.888 33.9747L337.238 33.9759C337.244 31.9446 335.606 30.233 333.607 30.2263L333.605 30.5763L333.604 30.9263C335.198 30.9316 336.543 32.31 336.538 33.9736L336.888 33.9747Z" fill="#7500FF" mask="url(#path-32-inside-7_117_2694)"/>
<path d="M333.521 33.8305C333.592 33.8308 333.638 33.8543 333.667 33.8837C333.695 33.9136 333.72 33.964 333.72 34.0411C333.719 34.1182 333.695 34.1684 333.666 34.1981C333.637 34.2274 333.591 34.2505 333.52 34.2504C333.527 34.2505 333.523 34.2531 333.508 34.2425C333.493 34.2321 333.475 34.2137 333.456 34.1877C333.414 34.1306 333.395 34.0693 333.396 34.04C333.396 33.9862 333.41 33.9237 333.436 33.881C333.458 33.8456 333.482 33.8303 333.521 33.8305Z" fill="white" fill-opacity="0.98" stroke="#7500FF" stroke-width="0.35"/>
<path d="M333.521 34.0404L332.02 35.1134L333.521 34.0404Z" fill="white" fill-opacity="0.98"/>
<path d="M333.521 34.0404L332.02 35.1134" stroke="#7500FF" stroke-width="0.35"/>
<path d="M333.52 34.0425L335.312 35.6651L333.52 34.0425Z" fill="white" fill-opacity="0.98"/>
<path d="M333.52 34.0425L335.312 35.6651" stroke="#7500FF" stroke-width="0.35"/>
<path d="M338.963 33.0029L338.946 38.5038L338.023 38.5008L338.04 32.9998L338.963 33.0029Z" fill="white" fill-opacity="0.98" stroke="#7500FF" stroke-width="0.35"/>
<path d="M329.082 32.9708L329.065 38.4717L328.142 38.4687L328.159 32.9677L329.082 32.9708Z" fill="white" fill-opacity="0.98" stroke="#7500FF" stroke-width="0.35"/>
<path d="M329.035 32.7737L328.133 32.7707L328.59 30.9148L329.035 32.7737Z" fill="white" fill-opacity="0.98" stroke="#7500FF" stroke-width="0.35"/>
<path d="M338.991 32.8074L338.089 32.8044L338.545 30.9485L338.991 32.8074Z" fill="white" fill-opacity="0.98" stroke="#7500FF" stroke-width="0.35"/>
<path d="M339.563 38.8528L339.091 39.6559L328.059 39.6197L327.539 38.8133L339.563 38.8528Z" fill="white" fill-opacity="0.98" stroke="#7500FF" stroke-width="0.35"/>
<path d="M328.591 30.3502C328.638 30.3504 328.641 30.3622 328.634 30.3552C328.628 30.3492 328.641 30.3559 328.641 30.407C328.641 30.4577 328.628 30.4638 328.634 30.4578C328.641 30.4509 328.637 30.4627 328.591 30.4625C328.585 30.4625 328.581 30.4613 328.578 30.4596C328.574 30.4572 328.567 30.4517 328.561 30.4429C328.554 30.434 328.548 30.4233 328.544 30.4135C328.54 30.403 328.541 30.4004 328.541 30.4067C328.541 30.3556 328.554 30.349 328.548 30.355C328.541 30.3619 328.545 30.3501 328.591 30.3502Z" fill="white" fill-opacity="0.98" stroke="#7500FF" stroke-width="0.35"/>
<path d="M338.546 30.3826C338.592 30.3827 338.595 30.3946 338.589 30.3876C338.583 30.3816 338.595 30.3882 338.595 30.4394C338.595 30.4901 338.582 30.4961 338.588 30.4901C338.595 30.4832 338.592 30.495 338.545 30.4949C338.539 30.4949 338.536 30.4936 338.533 30.4919C338.528 30.4895 338.522 30.484 338.515 30.4752C338.508 30.4664 338.502 30.4556 338.499 30.4459C338.495 30.4353 338.496 30.4328 338.496 30.439C338.496 30.388 338.508 30.3814 338.503 30.3873C338.496 30.3942 338.499 30.3824 338.546 30.3826Z" fill="white" fill-opacity="0.98" stroke="#7500FF" stroke-width="0.35"/>
<path d="M301.594 14.0952L301.54 31.8588L302.021 31.957C303.327 28.8498 307.562 26.4322 312.211 26.4475C315.792 26.4592 318.792 27.5501 320.893 29.5072C322.991 31.4625 324.214 34.3034 324.203 37.8609L324.125 63.3227L315.267 63.2936L315.336 40.9881C315.344 38.2413 314.902 36.37 313.859 35.1883C312.809 33.9975 311.203 33.5653 309.045 33.5582C306.644 33.5505 304.754 34.5831 303.468 36.245C302.188 37.9008 301.514 40.1692 301.506 42.6361L301.443 63.2483L292.587 63.2192L292.738 14.0661L301.594 14.0952Z" fill="white" fill-opacity="0.98" stroke="#7500FF" stroke-width="0.5"/>
<path d="M365.669 14.1622L365.517 63.3153L356.66 63.2862L356.811 14.1332L365.669 14.1622ZM352.419 14.1187L352.267 63.2718L343.411 63.2428L343.562 14.0897L352.419 14.1187Z" fill="white" fill-opacity="0.98" stroke="#7500FF" stroke-width="0.5"/>
<defs>
<filter id="filter0_f_117_2694" x="-0.00012207" y="0.0181885" width="432" height="72.9829" filterUnits="userSpaceOnUse" color-interpolation-filters="sRGB">
<feFlood flood-opacity="0" result="BackgroundImageFix"/>
<feBlend mode="normal" in="SourceGraphic" in2="BackgroundImageFix" result="shape"/>
<feGaussianBlur stdDeviation="3.5" result="effect1_foregroundBlur_117_2694"/>
</filter>
</defs>
</svg>
